<svg height="88mm" viewBox="0 0 63.000003 88.000003" width="63.000004mm" xmlns="http://www.w3.org/2000/svg" xmlns:xlink="http://www.w3.org/1999/xlink"><pattern id="a" patternTransform="matrix(.5110943 .55752546 -4.2606771 3.9058447 -3722.8864 10154.029)" xlink:href="#b"/><pattern id="b" patternTransform="matrix(.13522704 .14751195 -1.1273042 1.0334214 -1213.7013 1922.2501)" xlink:href="#c"/><pattern id="c" patternTransform="matrix(.30118304 -.45387313 .45387313 .30118304 -1268.9118 1919.5169)" xlink:href="#d"/><pattern id="d" height="1" patternTransform="scale(10)" patternUnits="userSpaceOnUse" width="6"><path d="m0-.5h1v2h-1z" fill="#fff"/></pattern><g><rect fill="#fff" height="88" rx="3.0135" ry="3.009652" width="63.000004" x="-.00002" y=".00002"/><path d="m4.5605 4.801856h53.878986v78.396317h-53.878986z" fill="#d15a05" stroke="#d15a05"/></g><path d="m5.7028 5.941951h51.59428v76.116035h-51.59428z" fill="none" stroke="#fffbfb" stroke-width=".444041"/><g transform="translate(1267.46299 -1893.005)"><g stroke="#fffbfb"><path d="m-1251.0659 1909.6683h30.205402v54.673412h-30.205402z" fill="none" stroke-width=".218214"/><path d="m-4725.7949 7220.2539v201.4199h108.8769v-201.4199zm54.4394 3.5586a44.922102 44.871114 0 0 1 44.9219 44.8711 44.922102 44.871114 0 0 1 -5.209 20.9121 50.634364 50.576899 0 0 1 10.9199 31.3672 50.634364 50.576899 0 0 1 -10.9453 31.3223 44.922103 44.871115 0 0 1 5.2344 20.9589 44.922103 44.871115 0 0 1 -44.9219 44.8711 44.922103 44.871115 0 0 1 -44.9238-44.8711 44.922103 44.871115 0 0 1 5.209-20.9121 50.634364 50.576899 0 0 1 -10.9199-31.3691 50.634364 50.576899 0 0 1 10.9453-31.3203 44.922102 44.871114 0 0 1 -5.2344-20.959 44.922102 44.871114 0 0 1 44.9238-44.8711z" fill="url(#a)" stroke-width=".824747" transform="scale(.26458333)"/><rect fill="none" height="56.035736" rx=".317375" ry=".316969" stroke-width=".218214" width="31.5117" x="-1251.719" y="1908.9872"/><path d="m-1246.4669 1945.2889a13.38376 13.366672 0 0 1 -2.8801-8.2839 13.38376 13.366672 0 0 1 2.8757-8.2783" fill="none" opacity=".99" stroke-width=".448306"/><path d="m-1225.4596 1928.7211a13.38376 13.366672 0 0 1 2.8802 8.2839 13.38376 13.366672 0 0 1 -2.8758 8.2784" fill="none" opacity=".99" stroke-width=".448306"/><path d="m-1246.1118 1944.6637a12.719969 12.703729 0 0 1 -2.5714-7.6587 12.719969 12.703729 0 0 1 2.5734-7.6612" fill="none" opacity=".99" stroke-width=".213259"/><path d="m-1225.8144 1929.3468a12.719969 12.703729 0 0 1 2.5711 7.6582 12.719969 12.703729 0 0 1 -2.5728 7.6605" fill="none" opacity=".99" stroke-width=".213259"/><ellipse cx="-1235.963" cy="-1950.8373" fill="none" opacity=".99" rx="11.88933" ry="11.87415" stroke-width=".398249" transform="scale(1 -1)"/></g><ellipse cx="1235.963" cy="1923.1726" fill="none" rx="11.88933" ry="11.87415" stroke="#fff" stroke-width=".398249" transform="scale(-1 1)"/></g></svg>