<svg height="88mm" viewBox="0 0 63.000003 88.000003" width="63.000004mm" xmlns="http://www.w3.org/2000/svg" xmlns:xlink="http://www.w3.org/1999/xlink"><pattern id="a" patternTransform="matrix(.13522703 .14751194 -1.1273041 1.0334214 358.67848 1009.2693)" xlink:href="#b"/><pattern id="b" patternTransform="matrix(.13522704 .14751195 -1.1273042 1.0334214 -1213.7013 1922.2501)" xlink:href="#c"/><pattern id="c" patternTransform="matrix(.30118304 -.45387313 .45387313 .30118304 -1268.9118 1919.5169)" xlink:href="#d"/><pattern id="d" height="1" patternTransform="scale(10)" patternUnits="userSpaceOnUse" width="6"><path d="m0-.5h1v2h-1z" fill="#fff"/></pattern><rect fill="#fff" height="88" rx="3.0135" ry="3.009652" width="63.000004" x="-.000047" y=".000017"/><path d="m4.560463 4.801857h53.878986v78.396317h-53.878986z" fill="#0565d1" stroke="#0565d1"/><g stroke="#fffbfb"><path d="m5.70277 5.941951h51.59428v76.116035h-51.59428z" fill="none" stroke-width=".444041"/><path d="m16.397081 16.663336h30.205402v54.673412h-30.205402z" fill="none" stroke-width=".218214"/><path d="m17.096448 17.35382v53.292348h28.807013v-53.292348zm14.403758.941547a11.885639 11.872149 0 0 1 11.885586 11.872145 11.885639 11.872149 0 0 1 -1.378214 5.532993 13.397009 13.381804 0 0 1 2.889223 8.299238 13.397009 13.381804 0 0 1 -2.895944 8.287358 11.88564 11.872149 0 0 1 1.384935 5.545376 11.88564 11.872149 0 0 1 -11.885586 11.872145 11.88564 11.872149 0 0 1 -11.886088-11.872145 11.88564 11.872149 0 0 1 1.378214-5.532993 13.397009 13.381804 0 0 1 -2.889223-8.299741 13.397009 13.381804 0 0 1 2.895944-8.286829 11.885639 11.872149 0 0 1 -1.384935-5.545402 11.885639 11.872149 0 0 1 11.886088-11.872145z" fill="url(#a)" stroke-width=".218214"/><rect fill="none" height="56.035736" rx=".317375" ry=".316969" stroke-width=".218214" width="31.5117" x="15.744006" y="15.982183"/><path d="m20.9961 52.2839a13.38376 13.366672 0 0 1 -2.8801-8.2839 13.38376 13.366672 0 0 1 2.8757-8.2783" fill="none" opacity=".99" stroke-width=".448306"/><path d="m42.0034 35.7161a13.38376 13.366672 0 0 1 2.8802 8.2839 13.38376 13.366672 0 0 1 -2.8758 8.2784" fill="none" opacity=".99" stroke-width=".448306"/><path d="m21.3512 51.6587a12.719969 12.703729 0 0 1 -2.5714-7.6587 12.719969 12.703729 0 0 1 2.5734-7.6612" fill="none" opacity=".99" stroke-width=".213259"/><path d="m41.6486 36.3418a12.719969 12.703729 0 0 1 2.5711 7.6582 12.719969 12.703729 0 0 1 -2.5728 7.6605" fill="none" opacity=".99" stroke-width=".213259"/><ellipse cx="31.499987" cy="-57.832279" fill="none" opacity=".99" rx="11.88933" ry="11.87415" stroke-width=".398249" transform="scale(1 -1)"/></g><ellipse cx="-31.499987" cy="30.167608" fill="none" rx="11.88933" ry="11.87415" stroke="#fff" stroke-width=".398249" transform="scale(-1 1)"/></svg>