<?xml version="1.0" encoding="UTF-8" standalone="no"?>
<svg
   height="88mm"
   viewBox="0 0 63.000003 88.000003"
   width="63.000004mm"
   version="1.1"
   id="svg10888"
   xmlns:xlink="http://www.w3.org/1999/xlink"
   xmlns="http://www.w3.org/2000/svg"
   xmlns:svg="http://www.w3.org/2000/svg">
  <defs
     id="defs10892" />
  <pattern
     id="a"
     patternTransform="matrix(0.13522703,0.14751194,-1.1273041,1.0334214,282.44932,793.58181)"
     xlink:href="#b" />
  <pattern
     id="b"
     patternTransform="matrix(.13522704 .14751195 -1.1273042 1.0334214 -1213.7013 1922.2501)"
     xlink:href="#c" />
  <pattern
     id="c"
     patternTransform="matrix(.30118304 -.45387313 .45387313 .30118304 -1268.9118 1919.5169)"
     xlink:href="#d" />
  <pattern
     id="d"
     height="1"
     patternTransform="scale(10)"
     patternUnits="userSpaceOnUse"
     width="6">
    <path
       d="m0-.5h1v2h-1z"
       fill="#fff"
       id="path10855" />
  </pattern>
  <path
     id="rect10858"
     style="fill:#ffffff"
     d="m 3.01348,1.9999999e-5 h 56.973004 c 1.669479,0 3.0135,1.342304700001 3.0135,3.009651900001 V 84.990368 c 0,1.667347 -1.344021,3.009652 -3.0135,3.009652 H 3.01348 c -1.669479,0 -3.013499999999,-1.342305 -3.013499999999,-3.009652 V 3.0096719 C -1.9999999e-5,1.3423247 1.344001,1.9999999e-5 3.01348,1.9999999e-5 Z" />
  <path
     d="m4.5605 4.801856h53.878986v78.396317h-53.878986z"
     fill="#a03f3f"
     stroke="#ce5b5b"
     id="path10860" />
  <path
     d="m5.7028 5.941951h51.59428v76.116035h-51.59428z"
     fill="none"
     stroke="#fffbfb"
     stroke-width=".444041"
     id="path10862" />
  <path
     d="M 16.3971,16.6633 H 46.6025 V 71.3367 H 16.3971 Z"
     fill="none"
     stroke-width="0.218214"
     id="path10864"
     style="stroke:#fffbfb" />
  <path
     d="M 17.096448,17.35382 V 70.646168 H 45.903461 V 17.35382 Z m 14.403758,0.941547 a 11.885639,11.872149 0 0 1 11.885586,11.872145 11.885639,11.872149 0 0 1 -1.378214,5.532993 13.397009,13.381804 0 0 1 2.889223,8.299238 13.397009,13.381804 0 0 1 -2.895944,8.287358 11.88564,11.872149 0 0 1 1.384935,5.545376 11.88564,11.872149 0 0 1 -11.885586,11.872145 11.88564,11.872149 0 0 1 -11.886088,-11.872145 11.88564,11.872149 0 0 1 1.378214,-5.532993 13.397009,13.381804 0 0 1 -2.889223,-8.299741 13.397009,13.381804 0 0 1 2.895944,-8.286829 11.885639,11.872149 0 0 1 -1.384935,-5.545402 11.885639,11.872149 0 0 1 11.886088,-11.872145 z"
     fill="url(#a)"
     stroke-width="0.218214"
     id="path10866"
     style="stroke:#fffbfb" />
  <path
     id="rect10868"
     style="fill:none;stroke:#fffbfb;stroke-width:0.218214"
     d="m 16.061381,15.982183 h 30.87695 c 0.175826,0 0.317375,0.141369 0.317375,0.316969 v 55.401799 c 0,0.1756 -0.141549,0.316969 -0.317375,0.316969 h -30.87695 c -0.175826,0 -0.317375,-0.141369 -0.317375,-0.316969 V 16.299152 c 0,-0.1756 0.141549,-0.316969 0.317375,-0.316969 z" />
  <path
     d="M 20.9961,52.2839 A 13.38376,13.366672 0 0 1 18.116,44 13.38376,13.366672 0 0 1 20.9917,35.7217"
     opacity="0.99"
     stroke-width="0.448306"
     id="path10870"
     style="fill:none;stroke:#fffbfb" />
  <path
     d="M 42.0034,35.7161 A 13.38376,13.366672 0 0 1 44.8836,44 13.38376,13.366672 0 0 1 42.0078,52.2784"
     opacity="0.99"
     stroke-width="0.448306"
     id="path10872"
     style="fill:none;stroke:#fffbfb" />
  <path
     d="M 21.3512,51.6587 A 12.719969,12.703729 0 0 1 18.7798,44 12.719969,12.703729 0 0 1 21.3532,36.3388"
     opacity="0.99"
     stroke-width="0.213259"
     id="path10874"
     style="fill:none;stroke:#fffbfb" />
  <path
     d="M 41.6486,36.3418 A 12.719969,12.703729 0 0 1 44.2197,44 12.719969,12.703729 0 0 1 41.6469,51.6605"
     opacity="0.99"
     stroke-width="0.213259"
     id="path10876"
     style="fill:none;stroke:#fffbfb" />
  <path
     id="ellipse10878"
     style="opacity:0.99;fill:none;stroke:#fffbfb;stroke-width:0.398249"
     transform="scale(1,-1)"
     d="m 43.389317,-57.832279 a 11.88933,11.87415 0 0 1 -11.88933,11.87415 11.88933,11.87415 0 0 1 -11.88933,-11.87415 11.88933,11.87415 0 0 1 11.88933,-11.87415 11.88933,11.87415 0 0 1 11.88933,11.87415 z" />
  <path
     id="ellipse10884"
     transform="scale(-1,1)"
     style="fill:none;stroke:#ffffff;stroke-width:0.398249"
     d="m -19.610657,30.167608 a 11.88933,11.87415 0 0 1 -11.88933,11.874151 11.88933,11.87415 0 0 1 -11.88933,-11.874151 11.88933,11.87415 0 0 1 11.88933,-11.87415 11.88933,11.87415 0 0 1 11.88933,11.87415 z" />
</svg>
