<?xml version="1.0" encoding="UTF-8" standalone="no"?>
<svg
   height="88mm"
   viewBox="0 0 63.000003 88.000003"
   width="63.000004mm"
   version="1.1"
   id="svg10057"
   xmlns:xlink="http://www.w3.org/1999/xlink"
   xmlns="http://www.w3.org/2000/svg"
   xmlns:svg="http://www.w3.org/2000/svg">
  <defs
     id="defs10061" />
  <pattern
     id="a"
     patternTransform="matrix(0.13522703,0.14751194,-1.1273041,1.0334214,358.67848,1009.2693)"
     xlink:href="#b" />
  <pattern
     id="b"
     patternTransform="matrix(.13522704 .14751195 -1.1273042 1.0334214 -1213.7013 1922.2501)"
     xlink:href="#c" />
  <pattern
     id="c"
     patternTransform="matrix(.30118304 -.45387313 .45387313 .30118304 -1268.9118 1919.5169)"
     xlink:href="#d" />
  <pattern
     id="d"
     height="1"
     patternTransform="scale(10)"
     patternUnits="userSpaceOnUse"
     width="6">
    <path
       d="m0-.5h1v2h-1z"
       fill="#fff"
       id="path10028" />
  </pattern>
  <path
     d="m3.013453.000017h56.973004c1.669479 0 3.0135 1.3423047 3.0135 3.0096519v81.9806961c0 1.667347-1.344021 3.009652-3.0135 3.009652h-56.973004c-1.669479 0-3.0135-1.342305-3.0135-3.009652v-81.9806961c0-1.6673472 1.344021-3.0096519 3.0135-3.0096519z"
     fill="#fff"
     id="path10031" />
  <path
     d="m4.560463 4.801857h53.878986v78.396317h-53.878986z"
     fill="#0565d1"
     stroke="#0565d1"
     id="path10033" />
  <path
     d="M 5.70277,5.941951 H 57.29705 V 82.057986 H 5.70277 Z"
     fill="none"
     stroke-width="0.444041"
     id="path10035"
     style="stroke:#fffbfb" />
  <path
     d="M 16.397081,16.663336 H 46.602483 V 71.336748 H 16.397081 Z"
     fill="none"
     stroke-width="0.218214"
     id="path10037"
     style="stroke:#fffbfb" />
  <path
     d="M 17.096448,17.35382 V 70.646168 H 45.903461 V 17.35382 Z m 14.403758,0.941547 a 11.885639,11.872149 0 0 1 11.885586,11.872145 11.885639,11.872149 0 0 1 -1.378214,5.532993 13.397009,13.381804 0 0 1 2.889223,8.299238 13.397009,13.381804 0 0 1 -2.895944,8.287358 11.88564,11.872149 0 0 1 1.384935,5.545376 11.88564,11.872149 0 0 1 -11.885586,11.872145 11.88564,11.872149 0 0 1 -11.886088,-11.872145 11.88564,11.872149 0 0 1 1.378214,-5.532993 13.397009,13.381804 0 0 1 -2.889223,-8.299741 13.397009,13.381804 0 0 1 2.895944,-8.286829 11.885639,11.872149 0 0 1 -1.384935,-5.545402 11.885639,11.872149 0 0 1 11.886088,-11.872145 z"
     fill="url(#a)"
     stroke-width="0.218214"
     id="path10039"
     style="stroke:#fffbfb" />
  <path
     d="m 16.061381,15.982183 h 30.87695 c 0.175826,0 0.317375,0.141369 0.317375,0.316969 v 55.401799 c 0,0.1756 -0.141549,0.316969 -0.317375,0.316969 h -30.87695 c -0.175826,0 -0.317375,-0.141369 -0.317375,-0.316969 V 16.299152 c 0,-0.1756 0.141549,-0.316969 0.317375,-0.316969 z"
     fill="none"
     stroke-width="0.218214"
     id="path10041"
     style="stroke:#fffbfb" />
  <path
     d="M 20.9961,52.2839 A 13.38376,13.366672 0 0 1 18.116,44 13.38376,13.366672 0 0 1 20.9917,35.7217"
     fill="none"
     opacity="0.99"
     stroke-width="0.448306"
     id="path10043"
     style="stroke:#fffbfb" />
  <path
     d="M 42.0034,35.7161 A 13.38376,13.366672 0 0 1 44.8836,44 13.38376,13.366672 0 0 1 42.0078,52.2784"
     fill="none"
     opacity="0.99"
     stroke-width="0.448306"
     id="path10045"
     style="stroke:#fffbfb" />
  <path
     d="M 21.3512,51.6587 A 12.719969,12.703729 0 0 1 18.7798,44 12.719969,12.703729 0 0 1 21.3532,36.3388"
     fill="none"
     opacity="0.99"
     stroke-width="0.213259"
     id="path10047"
     style="stroke:#fffbfb" />
  <path
     d="M 41.6486,36.3418 A 12.719969,12.703729 0 0 1 44.2197,44 12.719969,12.703729 0 0 1 41.6469,51.6605"
     fill="none"
     opacity="0.99"
     stroke-width="0.213259"
     id="path10049"
     style="stroke:#fffbfb" />
  <path
     d="m 43.389317,57.832279 a 11.88933,-11.87415 0 0 0 -11.88933,-11.87415 11.88933,-11.87415 0 0 0 -11.88933,11.87415 11.88933,-11.87415 0 0 0 11.88933,11.87415 11.88933,-11.87415 0 0 0 11.88933,-11.87415 z"
     fill="none"
     opacity="0.99"
     stroke-width="0.398249"
     id="path10051"
     style="stroke:#fffbfb" />
  <path
     d="m-19.610657 30.167608a11.88933 11.87415 0 0 1 -11.88933 11.874151 11.88933 11.87415 0 0 1 -11.88933-11.874151 11.88933 11.87415 0 0 1 11.88933-11.87415 11.88933 11.87415 0 0 1 11.88933 11.87415z"
     fill="none"
     stroke="#fff"
     stroke-width=".398249"
     transform="scale(-1 1)"
     id="path10055" />
</svg>
