<svg height="88.000046mm" viewBox="0 0 238.11073 332.5986" width="63.00013mm" xmlns="http://www.w3.org/2000/svg"><g transform="matrix(1.07145 0 0 1.07009 -3610.7964 1164.653456)"><rect fill="#fff" height="310.81366" rx="10.62995" ry="10.629899" width="222.23224" x="3370.0093" y="-1088.3696"/><path d="m3575.1033-827.36925c3.9097-.0884 5.663-4.67386 2.7674-8.23469-.42-.51939-.4633-.81746.3058-.31856 1.9496 1.358 5.6877.46526 5.8792-3.68637.2364-5.11539-6.6253-6.58928-7.9136-1.14986-.068.57391-.5157.56081-.4078-.25382.1175-2.211.7804-4.27752 1.6914-6.29271-1.5493 0-3.0985 0-4.6478 0 .9111 2.01519 1.574 4.08171 1.6914 6.29271.1081.81463-.3397.82773-.4078.25382-1.2883-5.43942-8.1499-3.96553-7.9135 1.14986.1914 4.15163 3.9295 5.04437 5.8792 3.68637.7691-.4989.7258-.20083.3058.31856-2.8956 3.56083-1.1424 8.14624 2.7673 8.23469z"/><path d="m3387.1484-1038.5562c-3.9098.088-5.6631 4.6739-2.7675 8.2347.4201.5194.4633.8175-.3058.3186-1.9496-1.358-5.6877-.4653-5.8791 3.6863-.2364 5.1154 6.6251 6.5893 7.9134 1.1499.068-.5739.5159-.5608.4078.2538-.1175 2.211-.7802 4.2775-1.6913 6.2927h4.6477c-.911-2.0152-1.5739-4.0817-1.6914-6.2927-.1079-.8146.3398-.8277.4078-.2538 1.2883 5.4394 8.1501 3.9655 7.9135-1.1499-.1913-4.1516-3.9296-5.0443-5.879-3.6863-.7693.4989-.7259.2008-.306-.3186 2.8958-3.5608 1.1424-8.1462-2.7672-8.2347-.0009 0 0 0 0 0z"/><path d="m3379.9122-1052.5665h-2.7455v-3.7475h2.7455s.021-2.0193.1-5.5815c.1703-7.5929.3596-8.7716 2.5548-10.8614 4.3352-4.13 11.595-.765 11.5092 5.4457-.1254 8.7651-.035 17.1216-.2905 18.3056-.4545 2.0845-.5005 2.202-.3149 2.5831.3801.7649 3.6594 1.0965 3.6594.8824v3.6914c-2.5049.1945-3.5455-.04-5.5498-1.4737-1.2505 1.2088-5.0596 2.4227-8.0893.9947-2.3039-1.086-4.0498-3.8911-3.5787-10.2388zm9.2796 6.5422c-1.3606-1.9684-3.6504-4.6548-5.8046-5.6089-.1344 2.2634.061 4.1613.8551 5.182 1.2645 1.6251 3.3086 1.9971 4.9495.4269zm1.1289-21.6498c-1.0098-2.8638-3.6043-3.835-5.4999-2.0428-1.1852 1.1148-1.3747 2.2882-1.4002 8.662-.015 3.9316-.015 5.5841-.015 5.5841 3.6902 1.1983 7.1396 5.5058 7.1102 5.4496l.09-11.89c.072-1.9292-.024-3.8611-.2842-5.7629z"/><path d="m3582.3366-813.35895h2.7455v3.74757h-2.7455s-.021 2.01932-.1 5.58149c-.1702 7.59293-.3596 8.77165-2.5547 10.86145-4.3352 4.12994-11.5951.76484-11.5092-5.44573.1254-8.76517.035-17.12166.2905-18.30566.4544-2.08451.5004-2.20203.3148-2.58311-.3801-.76494-3.6594-1.09648-3.6594-.88237v-3.69145c2.5049-.19448 3.5456.0409 5.5499 1.47367 1.2505-1.20872 5.0596-2.42263 8.0892-.99461 2.304 1.08602 4.0499 3.89112 3.5788 10.23875zm-9.2796-6.54211c1.3606 1.96838 3.6504 4.65466 5.8045 5.6088.1344-2.26334-.061-4.16125-.855-5.18197-1.2646-1.62509-3.3087-1.99709-4.9495-.42683zm-1.129 21.64973c1.0099 2.86381 3.6044 3.83499 5.5 2.04274 1.1852-1.11472 1.3746-2.28816 1.4002-8.6619.015-3.93159.015-5.58418.015-5.58418-3.6901-1.19826-7.1396-5.50574-7.1101-5.44962l-.09 11.89005c-.072 1.92921.024 3.86111.2841 5.76291z"/><g transform="matrix(.15470293328 -.00172956699 .00172267387 .15532196296 3428.77886624 -975.37396793)"><path d="m376.56653 1111.8137c4.13836-52.3384 1.7132-108.6052 4.57606-151.20569-1.58886-3.02535 4.34176-11.23093 4.64925-11.22751-3.39729-6.37325-4.38429-22.6117.1579-36.95658 35.73717-130.24204 98.95578-231.20383 163.96086-325.28871 50.25846 157.24319-114.25763 265.33652-150.12068 401.8452-11.9808 47.27529-10.63468 80.39229-15.5035 123.16499zm-271.51224-1.0286-190.917743-302.24872 42.414843-20.06299 196.11458 321.79191zm257.45724-553.11613c1.61971 8.6338 8.34435 13.33568 15.58291 9.4743 7.08931-3.78176 7.90571-4.03288 3.44577 2.7108-9.84819 14.89102 9.59859 29.6248 22.3264 16.897 4.52354-4.5236 5.35415-11.96021 1.3347-15.7853-4.53971-4.32019-5.51256-6.5428 1.21788-3.2151 16.92188 7.0704 26.55864-17.4123 10.18072-25.8647-4.22134-2.1785-12.51345-.37965-15.66265 2.8306-3.8041 3.87786-4.31786 2.49492-3.28191-.53446.61275-1.79186 1.06589-4.70665 2.52072-8.17124 1.14133-2.718 1.98064-6.42913 1.98064-6.42913l-17.36913-.0102s1.36008 3.9939 2.74343 7.3579c1.30174 3.16552 1.78244 5.52815 2.41741 6.84475 2.28827 4.74461-.50406 2.96732-5.15581-.57455-6.57602-5.00702-14.90478-3.71451-19.70582 2.722-1.78523 3.79469-3.28902 7.74847-2.57526 11.74733zm27.79725-243.86001 37.35364-.69309c10.30462 39.65241 22.35481 78.28785 39.80331 113.77826-33.47341 54.19705-43.02292 115.64179-5.47516 178.44474l-118.42245-1.12917c33.06102-94.4382 44.46177-195.15505 46.74066-290.40074zm37.40308 147.88307c5.06188-4.42461 5.79437-12.54417 1.2872-18.01437-5.66683-6.87765-4.34584-7.21079 3.30656-2.6751 11.04254 6.54507 21.83007-7.2254 15.40797-19.5792-4.07928-7.8471-17.5315-9.7233-22.75821-2.8459-4.35728 5.73338-3.82089.4459-.43315-7.2009 1.24549-2.81131 3.04717-8.09673 3.04717-8.09673l-18.10001.17025s2.27912 5.14887 3.48792 8.45438c3.20581 8.76642 3.30856 11.53142-1.71868 5.8611-10.94228-9.40551-23.97029-2.82308-24.23957 10.5047 0 10.2476 9.2131 16.92989 17.39878 12.2306 4.97387-2.85543 7.19914-3.52769 1.55874 3.0927-3.91053 6.32742-2.62381 14.46075 2.40252 18.32682 6.89528 4.2737 14.33062 4.11948 19.35276-.22835zm-250.55145 32.52703c1.46481-1.05452 1.99443-.34536 1.08706 1.08888-.77326 1.22227-2.74114 2.95055-4.42814 4.78551-8.5498 9.29966 2.24476 21.36021 15.87883 19.66458 9.28065-1.15421 14.8821-15.66855 8.09813-21.50066-2.20085-1.50628-3.93702-1.80773-5.59595-3.85381-.1254-.81106.25947-1.35449 1.07691-1.0259 1.20285.5185 3.64784 2.54035 4.88963 2.89248 8.58501 2.43444 15.12654-1.05256 17.38015-7.10807 1.46093-7.01405.21346-14.58101-5.4876-18.59247-5.29947-3.64239-13.20745-2.70332-17.87893 3.35797-4.78095 6.20333-5.36406.24323-1.41481-8.347 1.48004-3.21932 2.52362-7.81225 2.52362-7.81225l-16.64469.69758s.84491 3.58956 2.26303 7.72171c3.59198 9.43723 6.20964 12.1614 1.54301 7.25373-20.18988-12.19583-27.11929 4.00532-27.52561 10.47435-.76498 12.17905 16.9007 19.28774 24.23536 10.30337zm83.40137-182.88429 30.01883.43811c-23.97741 120.09624-71.48321 220.3922-150.29642 288.9004l-146.8617986-2.08746-70.2186924-50.26915 27.726309-35.19084c186.236312 21.286 266.668202-70.27192 309.631772-201.79106zm-138.22753 277.48922c8.82992-3.7781 12.59751-13.6877 6.85879-20.4308-5.18837-6.09643-5.70419-7.98759 2.31684-3.19449 10.73298 6.41367 21.31547-6.03161 16.15539-18.38141-3.21188-7.6871-13.57455-10.1678-21.11069-5.0536-6.62657 4.83212-6.47708 2.6417-2.9562-5.0629 1.74253-3.8131 3.11833-9.93864 3.11833-9.93864l-18.40434.0525s1.28095 4.38721 2.58723 7.40606c2.99377 6.9187 4.06991 10.09181 2.64351 10.09181-.68912 0-2.93983-2.12421-4.25709-3.36171-3.62668-3.4071-13.635404-4.15489-17.393094-.64379-11.132047 10.38261-5.1343 28.83077 8.915824 25.59579 9.07167-2.08871 11.1802-5.50517 3.58951 2.92047-9.355306 10.38438 4.78785 25.62643 17.93599 20.00071zm-116.0325549-4.94272c7.6496879-3.50269 10.2921269-12.24873 6.0955169-17.96083-4.2247878-5.75045-6.3028866-9.44911 1.267418-4.22684 10.0805 5.2128 19.01544-1.46291 19.01544-12.99421 0-12.0775-13.498615-17.86161-23.5554747-10.70041-1.69893 1.2097-3.7844482 2.2928-4.1557482 2.2928-1.21807 0 1.0679903-6.5075 3.5410982-10.7569 1.073463-1.84447 2.9690057-5.6039 2.9690057-5.6039l-18.3956131-.9087s.9736152 5.02524 2.3740074 8.8979c2.8446295 7.86657 3.5338684 10.48558-1.55509 5.9805-13.6947073-13.08731-28.6397073 3.21927-22.9730453 17.50313 2.99408 8.03977 12.437491 8.14282 18.055615 4.2041 5.1001566-3.86293 2.4571911 1.30624-1.055999 5.40354-9.579808 11.17258 4.1243991 25.33912 18.3728691 18.86982zm843.7268049-292.38529.71982 22.2721-240.00719 195.52334-9.8021-15.38576zm-884.929134 31.82729c34.50931202-23.98099 73.078745-67.29894 110.925066-89.67608 26.756678 63.42303-38.346297 124.58211-110.925066 89.67608zm625.282094-4.62837c-22.70932-133.69688 120.33094-104.29415 112.63891-92.47514zm-768.89045-90.186 237.543497-189.292124 10.516671 16.253757-250.609358 200.682207zm647.01719-186.409705c.64104 2.013058 7.67672 9.740219 7.68215 10.435098-2.01723-1.540459-14.03257-8.449284-20.0114-1.930489-2.08866 2.387976-4.77412 8.12333-4.55861 14.097046 2.35409 10.71747 14.48081 14.624312 23.2056 7.401191 2.51237-2.079951 4.67701-4.611242 5.17261-3.706033.43075.786756-.96874 4.445793-2.10925 7.341888-1.3106 2.974734-6.12244 9.201242-2.6818 9.233275l16.71658.155633s-.57305-3.923438-2.52477-8.278059c-3.64728-8.137716-3.44281-12.533817 1.00305-6.64939 8.65535 11.455985 25.78314 2.17428 24.15619-11.462206-1.17477-9.846475-11.06513-15.58022-18.43942-10.974919-.80683.503873-3.18093 2.805719-3.51646 2.81734-.89615.03104 1.59707-3.692507 3.25526-6.786312 5.50968-10.279858-2.43581-19.941788-14.76799-19.049758-3.98322.28812-8.36811 2.747216-8.395 3.102982-4.67029 3.681049-5.50251 10.120825-4.18674 14.252713zm204.31523-94.01188c23.31145 21.925293 46.68728 38.067831 70.08549 52.20109385l-22.61534 34.84174115c-150.47575-15.622529-260.67938 42.712135-308.18449 203.65286l-23.31059-.76309c10.46311-100.60973 43.75055-194.842213 144.61594-291.326371zm-144.62644 22.490473c-.0135 4.774731 8.69243 10.552374 6.72732 11.844652-.90212.46783-6.07322-4.13521-8.46942-4.416836-17.37076-2.041588-21.27657 24.9591705-4.07724 28.1857805 3.38369.63479 10.40533-1.393276 12.50124-3.076111 2.78376-2.23511837 4.71696-4.07763371 5.28241-3.86539841 1.05142.39463781-1.40811 5.19179051-3.33929 8.74246941-1.79402 3.2984875-4.32255 10.1843235-4.32255 10.1843235l19.77032.309441s-1.72362-6.080767-3.455-10.4056801c-2.21326-5.5286222-2.65525-9.02321591-1.13064-8.6365883.65693.16659277 1.38058 1.8940067 2.75283 3.0988539 8.48294 7.4481146 21.08441 4.4463429 24.51441-7.0019871 3.2246-10.7626504-9.57636-22.0232814-18.64359-16.0822014-3.16795 2.07572-3.15469.49041.0352-4.21015 2.91363-4.293477 2.28412-10.851928-.27057-14.774362-9.33896-10.133903-28.15709-3.171569-27.87543 10.103794zm141.6109 33.6042831c-.4473-2.4132204.15731-1.7199635 2.66046.9445362 7.83608 8.3411797 21.50242 7.2137417 25.09972-3.6863182 3.5898-10.87711-6.86752-23.4848621-16.15052-19.2988121-4.8288 2.17747-4.90401 1.386753-2.11721-2.156077 7.1852-9.13445-.48859-21.364443-12.63979-21.364443-11.1033 0-17.7686 10.61555-12.4663 19.8544 2.1716 3.78383 1.443 4.57806-2.4283 2.64682-11.2969-5.63562-22.0916 12.2205603-13.8891 22.9746503 4.82 6.3192997 16.13286 7.1052797 22.67786.9565398 3.4826-3.27178 3.43629-1.6887348.85725 5.1343179-2.24627 5.942684-4.71742 10.74191-4.71742 10.74191l19.65076.392505s-5.13742-10.033013-6.53741-17.1400289zm-423.55694 236.8146089c5.73994-1.42012-19.25858-83.75298-37.82719-120.5628 21.59087-48.501725 49.97159-89.508257 3.43239-176.502143l120.89436 1.009652c-36.51425 97.716899-50.21422 296.182861-50.22136 296.128831zm11.66329-94.91976s-5.87698-8.27729-6.16811-14.9317c-.67141-4.27383.43209-4.52307 2.60335-.14919 10.63629 12.02169 25.33883.6927 25.52304-9.84734 1.34496-9.63026-9.84491-18.02167-17.143-13.28841-5.1141 3.31681-6.48328 2.33436-1.88585-3.89676 6.47491-8.775751-.34487-20.366376-11.75102-20.366376-14.83853 0-20.67374 13.800299-10.15002 23.810546 7.77421 7.39489.49982 2.99621-5.70942.31321-12.09139-5.22467-20.19472 7.0566-14.88415 19.6036 3.66478 8.65857 14.68332 11.02837 21.23705 4.12365 3.59005-3.78232 6.89354-5.98542 4.90579-.22906-1.05848 4.66062-6.59675 14.5046-6.59675 14.5046zm20.16446-129.941643s-7.05827-9.0530192-8.21751-15.81705816c-.39232-2.49004334 1.36198-1.84062184 5.3879 1.69418726 12.88257 11.3110639 30.97426-8.509175 18.99004-20.8737551-4.1186-4.24932-8.33983-5.514679-13.23395-3.027928-6.10658 3.102811-5.60279 1.5703-2.53647-1.675519 4.4956-4.758774 4.26382-13.537266-.47113-17.852016-13.09341-11.93143-34.21597 5.394981-22.06586 18.127541 5.28912 5.542664 2.76012 4.802393-3.08807 1.21466-11.06498-6.788122-23.59686 11.330604-15.34972 22.14315391 9.82298 8.49324389 17.30064 4.45172819 24.21561-.73828211 1.49739-.7698917 2.79075-1.1121184 2.79075-.4644245 0 1.21094004-7.04376 17.2898057-7.04376 17.2898057zm-158.54232-51.294987c-33.794357-113.75215 58.26083-222.54398 114.73801-306.55041 59.51358-83.31841 53.78439-222.8721 56.21186-217.28359l8.29834 1.05896s-7.3391 81.69123-4.11584 118.67306c3.41944 32.52265 2.56769 34.53377.206 37.72812-.64807 3.02105.16292 11.88361-.53002 14.91668-16.98935 70.21649-80.34167 239.44045-174.80835 351.45718zm605.21668-204.45022-194.33473-316.21338 47.56481-1.6746c17.33237 28.14853 186.22091 296.59571 186.22091 296.59571z" fill="#c8102e"/><path d="m-104.99933 1114.0133c23.414712-82.2202-35.39752-274.70875-73.20806-300.1927 44.6907-1.39455 98.427985-1.67624 96.76066-4.18299 0 0 186.62546 300.88129 185.06046 302.44629-1.47993 1.48-208.61306 1.9294-208.61306 1.9294zm775.0963-459.32339c-45.96181-7.05339-27.38172-45.06317 2.26086-48.70033-3.86154.59948 3.38201-18.96329 27.34227-26.63976 5.53071-9.7697 9.97034-26.5117 15.01867-34.25183-14.36088 4.49102-31.88422 16.38698-96.78441 6.13234 6.0043-30.74074 68.24498-35.30135 90.61523-30.28894 12.91554 3.15257 25.48288 22.58804 29.41397 23.03767 39.98748-6.20486 90.36251 30.46793 74.5935 66.95053-2.43905 5.20014-8.38164-6.29979-21.76534-11.32199-43.25177-16.23013-46.03101-39.76505-55.89985-50.39938-3.62254-.72226-23.24982 37.06775-23.24982 37.06775l5.70969 25.87882c10.42616-.83757 56.39707 28.28112-1.4452 47.01503-16.54373 54.74161-46.12406 15.64919-45.80957-4.47991zm111.81525-244.01465c-2.4331-2.52788 2.15671-19.57605 8.11072-29.34592 3.21579-5.27675 10.54868-8.76088 14.81794-7.96245 7.60612 1.42248 6.29349 12.48675-4.16474 44.81077-.47427 4.67502-10.78307 5.05169-18.76392-7.5024zm-914.20361-237.33815c-12.63256-.18413-.92058-34.40963 6.97006-45.2303 2.58901-3.3558 12.59098 3.97108 13.05498 8.95297.83121 8.92453-13.21 39.8928-20.02504 36.27733zm-6.36253-233.67378c15.37704 3.891297 39.54032 19.682033 51.075307 28.328694 14.341205 10.9522 10.158557 32.09745671 21.706444 34.106251 7.858513-3.7771743 22.574852-38.315239 22.574852-38.315239s3.795009-17.786497-6.335602-23.389186c-25.207446-13.940867-24.591752-28.693184-22.96496-29.98715 7.738894-19.41062 22.671039-15.77459 30.774154-16.76967.291765-10.67221.188328-33.20505 22.252699-30.63633 19.29956503 2.04146 20.8958285 29.66504 12.768386 29.82969-.150461-.46872 36.593195-4.85793 35.96507 19.341228-.34056 13.120449-22.2901606 29.6641-28.99870439 23.491699 0 0 3.34109199 26.197533-29.63712461 34.795933-7.765261 7.731588-14.407407 40.91168-14.374978 37.9594755 20.022926-17.671432 51.1174434-21.5215035 100.029116-14.5513274-30.974637 55.9195709-114.583482 28.6567879-121.022484 17.6982449-42.074605-13.2055027-81.487575-30.231052-73.812175-71.902313zm362.92076-130.81164 133.50857-.18217c-.54572 4.52285 41.72451 24.24103 78.66832 3.75709 7.13108-3.95392 149.23047-.12281 149.23047-.12281 31.71911 47.99655 89.33963 135.229347 89.33963 135.229347l-134.22389 1.623749c-114.90389 91.072537-130.52462 194.253024-159.17147 295.844934l49.58824 1.05853c82.28354-227.785281 279.01848-224.648169 401.70456-125.66785l-128.49845 102.20747c-98.0929-50.86309-141.99106 95.33886-112.06588 96.04163l258.76508-206.75798s4.19816 17.16034 3.7516 17.73253c-18.54265 23.75892-327.02172 268.50517-327.02172 268.50517l-13.25716-14.97682-17.58614 14.54223s6.83408 12.82971 12.92965 19.25981c-61.10251 47.9267-64.09784 137.07219-19.99538 186.24556l-21.89921 1.51521c-8.20359 10.18938-62.44316-104.67242.6679-177.48982-24.61134-49.62009-39.36513-116.92071-42.4825-120.06845.58353 7.91582-39.77552 4.83841-39.77552 4.83841-4.19841 100.22924-15.75686 198.43373-40.90424 292.89992l185.49102 6.05813-80.50768 136.18785s-88.60269-3.20379-126.75609-6.29836c-39.60638-23.64064-62.78633-6.26149-100.29653 1.91042-53.26099.96999-131.605054-2.37912-131.613112-1.65545-25.995043-53.08589-54.129681-92.22346-92.45041571-137.90627-4.84163879-8.27406 157.63467771-1.3871 157.63467771-1.3871s82.60991-121.99275 97.79677-156.53888c11.85201-26.96022 38.8591-125.29929 38.8591-125.29929 1.13934 5.15317-14.46817-25.8113-51.6303-25.52839-32.99724 203.88597-276.448364 269.97805-421.01667 136.90869l-1.09595-23.76541 324.71507-257.44263 14.11469 16.68632c-3.04764-2.49427-199.334468 157.17888-196.091837 156.19141 57.305657 30.81051 124.274513 7.1334 117.619992-91.98787 46.036045-32.50563 86.903475-70.51437 127.101015-109.32946.86988-1.52552 43.27522 98.11257 41.99275 117.18166 25.11892-8.1259 39.74145 9.66119 39.30239 6.64462-8.36038-57.43985 44.27586-274.290623 45.51041-299.276452-27.86553-2.555559-64.85883-1.939917-122.83109-4.886771 45.58029 90.688744 28.71777 151.5922-37.01819 206.415033l-13.42944-17.26341c5.49494 3.14072 95.94664-73.389906 25.10232-190.022243-3.30536.240019-37.98488-3.561085-37.98488-3.561085zm349.92484-368.81315s203.15848-2.61779 203.15848 3.33648c-7.69834 109.04515 16.62563 208.86363 76.98281 301.60456 0 0-89.92248-4.19046-88.29314-3.04137z" fill="#ffcd00"/><g stroke-width=".165357" transform="matrix(6.05923 .0674715 -.0672025 6.03507 -10348.2 986.993)"><path d="m1674.584-277.72852v280.7011762h174.1523v-280.7011762zm157.7793 1.22071c-.014-.0153-2.2468 29.70743 13.1992 49.17383-9.4355-1.43513-14.8364.0151-20.3301 3.9121l.752.77735c7.5666-4.66742 13.9856-3.43995 20.5547-2.71289v38.23828c-.047 1.85662-7.8653 1.02914-12.6895-2.61328-3.2059-2.11851-5.4569-4.75856-7.5137-7.77735-.4429-.51227-3.1949-5.65962-8.2461-15.40429-2.5682-4.95458-5.9634-11.71289-8.7207-16.95117-1.7849-3.39135-5.1033-9.79809-5.3379-10.3086-.4881-1.06507-4.1014-8.14346-5.5078-10.71875-3.7149-6.80247-9.7138-18.67182-11.8535-22.92578-.4728-1.10397-1.1932-1.72546.096-1.68945.2861.007.572-.0394.7364 0 .2269.11365.5019-.21485.5019-.21485zm-79.7539.66015 1.5781.1836c-.064 3.17069-.544 5.53295-.666 9.75195-.1902 4.52098-.1156 7.9588.3633 12.37305.2353 2.16923.3766 3.57526.014 3.85742-.1733.14144-.3306.89192-.1718 1.16797-.025.60207-.1036 1.80469-.1036 1.80469-2.4315 11.95193-15.4728 42.59828-27.496 57.54101-.2032.0753-.4261.15278-.67.23047-1.3015-5.82273-.5591-13.60243.9746-19.45117 2.2338-8.11937 6.4068-14.6317 11.0508-21.17578 10.616-14.94409 15.3171-26.20876 15.127-46.28321zm-75.6211.25196h74.5664c.4172 10.27433-.8249 19.02782-4.5 28.18164-4.3551 9.8598-11.1139 17.1891-16.2852 26.26367-6.244 10.95689-8.2419 22.32227-6.1152 33.75391-6.3794 8.38383-11.7546 12.40757-16.8574 16.30273 0 0-3.8241-4.03733-5.9492-6.29687 0 0 .8967-.0746 1.9453-.11719 4.8472-.54572 10.0933-1.23684 12.1191-6.30274.2886-.56314.1668-.81288-.1758-.89062-3.795.52826-7.0934-.006-9.2461.14648-5.2632.37339-7.4863 2.20313-7.4863 2.20313.8036-1.72565 1.6227-3.64451 2.1543-5.21094 2.3925.0251 3.5691-.87485 4.418-1.95898 1.212-.0333 2.1398-.0284 3.791-.0762-.054-1.63907.022-3.95898.022-3.95898 1.674-1.73009 2.8094-3.72922.2148-6.78711 0 0-.1048-1.42455-.1426-3.85547-1.1959-.19127-3.8769-.0684-3.8769-.0684-2.1673-3.06267-6.0115-2.29125-7.1778-.002 0 0-1.7284.097-2.914.10156-.024.64784-.2285 3.51758-.2285 3.51758 0-.00002-5.0532 3.45962.1894 7.53711l-.07 3.42578c.9812.0792 1.6851.0132 2.9649.25977 0 0-2.0056 4.67562-3.3243 6.89453-.4508.11894-.3431-.1411-.8886-1.69141-.6559-1.82777-2.1401-3.82506-3.3985-4.80859-1.7059-1.32116-4.04-1.73136-5.6679-2.87891-1.5695-1.10633-2.6767-2.53521-3.1758-2.26953-.1624.55559-.3441 3.74935.2461 5.80078.8323 3.37425 5.6685 5.52401 9.707 7.13867.3106.20145.5867.50728.5879.61719.01.55826-.5321.3865-1.8574.25391-2.0023-.20033-2.8307.34778-3.5332 2.06445-.21.42336-.7081 1.15335-1.1133 1.63672-.4048.48337-.8275.95484-.8867 1.16015-.059.20532-.4741 1.24681-.8868 2.11719-.2536.53594-.6762 1.0984-.707 1.89063-.094 2.41833-.1296 5.66729.2324 7.71484.2662 1.50416 2.159 2.36817 2.8106 2.49023 1.0007.18756 1.1822 1.20519 1.0254 2.03907-.7712 4.11072-3.128 6.62799-3.8828 5.27734-.1985-.35518-.4093-2.03459-.4649-2.01367-.036.0136-.3948 1.42861-.2578 2.00391.1475.61907.9362 1.07363 1.7129.79101 1.1522-.4192 2.0598-1.56602 2.7754-4.17383.2928-1.06694.5688-1.66113 1.0664-1.73828.9106.063 2.332 1.94531 2.332 1.94531-4.7293 3.95637-13.8086 11.14063-13.8086 11.14063zm157.084 0h12.4668v47.30078c-9.1744-12.94671-13.9188-27.81895-12.4668-47.30078zm-58.7325.0312c.2995.008.5932.0311.8633.043 1.9573 3.69426 6.7354 7.26271 6.7168 7.24609 0 0 .1198 1.60646-.055 1.89062-.1.49537-7.5869-5.71759-8.4199-9.13671.2898-.0439.5951-.051.8945-.043zm-19.9746.002c.492.007 1.3706-.0106 1.6114 0 .3232.51211-.9626 3.78382-1.7578 4.31055-.7529.49858-.808-.0816-.2637-2.97266.086-.45738.1362-1.16642.4101-1.33789zm3.4805 0c.6525.0257.7617-.0113 1.4121 0 .3149.79724-1.4812 4.58487-3.709 7.44336-1.1558 1.48261-1.7372 1.91249-2.0976 1.55859-.3045-.6748-.2968-1.46051.7676-2.69336.8772-1.01626 2.3706-3.39191 2.9863-4.72265.1647-.48385.3339-1.34548.6406-1.58594zm3.0605 0c.5899.0122.9122-.0119 1.2618 0 .5004 2.035-4.1241 10.39628-7.5 12.64258-1.1997.79827-1.2777.58742-1.1817-.75196.064-.90006.1512-.8273 1.3828-2.00781 1.7582-1.68569 3.6782-4.28659 4.7344-6.59179 1.0853-2.36828 1.107-3.12062 1.3027-3.29102zm15.7872 0c.7257.003 1.1868-.004 1.7089 0 .9231.94114 2.431 2.28864 2.7579 3.36328.2008.65887.3462 1.41598.205 1.77149-.806.5059-4.8265-4.58932-4.6718-5.13477zm6.4941 0c.1141.002.2172.007.3125 0 1.6623 1.96035 2.7456 5.23583 4.168 7.68164.1807.31122 1.4768 2.34614.4179 1.58008-.4345-.35792-1.2235-1.2603-2.4804-2.69336-2.9725-3.38854-3.0625-3.17864-3.0039-4.02148.024-.88651-.4826-2.27071.2109-2.5254.1354-.0218.2609-.0232.375-.0215zm-19.7266.041c.5953-.0202 1.1408 0 1.7325 0 .1539.26611-.052 1.17887-.1954 1.71289-1.5247 4.33288-5.3154 10.56782-9.7675 14.10937-1.7312 1.34032-2.0267 1.33105-2.1524-.0527-.073-.80441.2956-1.0392 1.1094-1.60547 3.7771-2.6292 7.1714-7.19162 8.6074-11.85156.2797-.90759.1741-2.03644.666-2.3125zm4.0196 0c.3385-.0121 1.0084.0186 1.3261 0 1.7583 3.24299 5.3856 10.87059 13.9102 13.84375.6129.13411 1.2665 1.88505.7969 2.36718-4.6743-1.36059-13.1537-6.26753-16.0332-16.21093zm3.0254 0h1.5253c2.1433 4.38827 6.1787 8.68871 10.3086 10.80468.6023.34317.3187 1.20413.5215 1.8086-4.6393-.69212-10.7268-7.79682-12.3554-12.61328zm-3.9883.68164c-.2765.0478 4.0442 12.73716 16.3222 16.46093 1.0636.33488 1.6889.79571 1.6211 1.42774-.085.79658-.061.89624-1.2441.30078-3.3552-1.75954-8.1368-2.58268-12.1309-.54492-.6231.31793-1.2559 1.18396-.7539 1.73047.2865.27774.992.0719 1.8907-.2793 4.649-1.81646 11.7647-.74796 13.0214 2.10742.8924 2.02686 1.044 3.5209.5567 3.76953-.3719.18989-1.0039-.49165-2.1153-1.4707-3.5373-3.11577-7.7665-3.9817-11.1289-.98828-.7276.64784-1.4473.53398-1.7011.80078-.2466.25876.045.84235.2519 1.41016.2162.59414.2264.75604.012 1.25781-.2945.6871-.3057 1.56615-.2734 2.2207.079 1.59554 1.1307 2.96988 4.1563 5.07422 1.674 1.16439 2.8867 1.46875 2.8867 1.46875s-.7256-.5644-1.5567-1.24023c-4.9511-4.02664-5.8499-5.6666-2.6406-4.27149 3.2044 1.29298 7.6486-.004 10.7949-2.41406 1.0712-.018 1.7073-.20579 2.2715.20703 2.3467 5.53115 4.2651 12.89202 7.3848 20.02734-3.7252 4.22618-16.6966 14.57619-25.9453 14.20704-7.9857-.31881-10.8042-13.44103-12.5703-20.69336-.5943-3.06877-1.2735-6.19294-1.1915-10.52735 0 0 .1438-.11715.3497-.0781 1.339.25382 3.643.43067 4.8125.15625 2.1252-.49864 2.5513-.87877 2.6757-.56446.1465.37075-.737 1.20473-2.2832 2.26758-.6725.4623-2.6678 1.63477-2.6679 1.63477 1.9172-.65621 3.3974-1.19877 4.9179-2.28907 0 0-.6975 3.15167-.8281 3.47657-1.2627 3.1458-1.1415 3.43095 1.3203 5.36914.8562.67407 1.639 1.34653 1.8262 1.64062.2019.47546.4813.88296.7383 1.32032 0 0-.1195-.94691-.3203-2.10157-.2873-1.05801-1.3206-2.10814-2.0528-2.61914-1.3436-.93811-1.1342-1.85956-.022-5.05468 3.2818-9.42299 2.4455-13.62468-1.1679-15.67188-1.6292-.92306-6.191-.67716-7.6289.5293-.7083.59429-.6111-.57247-.4981-.65039 8.6658-5.98014 10.6997-11.90453 12.9102-17.40625zm16.7285 4.83203c2.4601 2.45139 5.5232 5.78122 7.3672 8.14843 1.0125 1.26234 1.5459 2.55683 2.3515 3.88282.1532.24027.3043.51515.1954.62695-.041.0476-.3929-.15716-.5879-.30469-1.8031-1.36432-9.2461-9.875-9.2461-9.875-.3437-1.39722-.5836-1.87435-.08-2.47851zm.9375 5.47851c.1557-.0311.4078.20032.5352.29883 0 0 6.4483 7.06964 10.1425 10.54688.7271 1.53207 2.1193 3.73927 2.084 4.11132-.015.16424-.7888-.43554-.7891-.43554-4.0827-3.77631-7.8542-8.02039-11.7734-12.04297.037.0213-.3098-1.66509-.3144-2.3457.022-.0833.063-.12247.1152-.13282zm1.2754 5.30664c.7149.27943 1.1849 1.06036 1.6465 1.55664 2.2792 2.4507 6.6215 6.66091 11.6035 11.55664.8677 1.41773 1.5004 2.68799 1.918 3.52149.689 1.31996.4596 1.35866-.1485.87109-4.6147-3.79189-8.4794-8.41017-12.8262-12.64062-.5645-.58334-1.6914-1.87891-1.6914-1.87891.04.0469-1.4162-3.04858-.5019-2.98633zm-27.0059 3.00977c1.9028-.0574 3.7768.43549 4.7227 1.60742.8605 1.06626 1.2097 2.75415.7324 3.24414-.2979.30586-1.3555-.55664-1.3555-.55664-4.4815-2.52468-6.025-1.3092-8.457-.56836-.3469.10568-.7155-.83314-.2715-1.76172.8925-1.54352 3.1543-1.92035 4.6289-1.96484zm28.2031 2.38867c4.7949 4.82576 9.6659 10.18752 14.8536 14.33789.7269.62212 1.2252 1.02247 1.5566 1.35742.6849 1.36296 2.2617 4.60743 2.2617 4.60743-5.5597-3.90251-18.0835-17.35738-17.9453-17.26758.1253.0629-1.05-2.46325-.7266-3.03516zm-9.3828.80078c.8755-.008 1.835.26692 2.5918.56836 2.4157.96212 3.9357 1.98635 1.4336 1.64453-3.4813-.47558-4.6704-.50054-5.9453-.29492-2.3677.38188-2.5529.6469-2.7597.26953-.5438-.99115 2.0532-2.16242 4.6796-2.1875zm-19.7636.28321c.8725-.005 1.8201.18642 2.748.59375 2.9531 1.29633 3.473 2.14042.959 1.73437-1.3046-.2107-3.6977-.18896-5.4102.25391-.543.14046-1.1428.45888-1.2832.5039-.6075.19478-.7754-.26082-.5156-1.02539.4488-1.32086 1.8358-2.05014 3.502-2.06054zm21.3789 3.78125.6093.0449c-.7614 4.33035-5.0687 3.90864-6.2285.18945l.6094-.0137c2.269 3.55669 3.9655 1.46391 5.0098-.2207zm2.4004.2246c1.9906-.0223 1.8604 1.17912-.2129 1.98438-1.5891.61726-1.7677.50499-1.1856-.68945.5594-1.14836.503-1.28491 1.3985-1.29493zm-21.086.15626h.5762c.1942 3.90152-5.2204 4.61622-5.5527.36132l.5136-.0234c1.7744 3.34571 3.8231 1.32426 4.4629-.33789zm2.6192.38085c.1255.0191.2469.0682.3652.15235.6127.42016.2311.99753-1.0996 1.8125-1.2006.74997-1.5091-.15664-.5195-1.41406.4651-.3901.8773-.60799 1.2539-.55079zm9.7558.14649c.2369-.075.7988.98013.3203 1.23242-.2847.14993-.7065-.28063-.7539-.59961-.037-.25234.1218-.53398.4336-.63281zm16.2129.24414c3.6135 3.99668 7.2519 8.01004 17.8906 16.70898 0 0 1.5043 2.68331 1.8321 3.73243-.2585.31986-.3948.28343-1.1407-.0879-6.9382-5.37788-13.3887-11.91887-18.4414-17.99805-.2399-.85831-.7766-1.68569-.1406-2.35547zm-34.3984.38281c.083.013.1462.0714.164.0801.3816.18617.7231.9349.4571 1.39648-.2641.2079-.6737-.11621-.8516-.36914-.1767-.25123-.1802-.71797-.061-.91601.1043-.17191.2077-.20439.291-.19141zm-.9024.65235c1.6092 13.30722 3.951 33.05684 15.293 33.83593 3.7189.25545 8.0244-2.30187 8.7266-1.8789l23.5625-.1875c4.8324 9.83688 10.0248 16.17404 16.1718 22.90234 8.5376 5.14077 20.6269 8.47946 27.9512 6.48047-4.6612 3.6919-10.04 2.64518-15.9629 1.06445-.3313-.0884-.6792-.19155-1.0254-.31445l-4.4707 6.75391c-9.9543-2.36847-41.9131-.69138-50.3379 34.19335 0 0 .8663.44373.6641.20313 6.6913-30.27885 34.9535-36.31454 48.4277-33.29883l-1.1582 1.77539c-22.3573-2.74536-40.5592 11.29401-44.8945 31.20313l.4297.39258c8.3895-30.09999 43.6578-41.23679 65.5234-20.37305l4.0117-2.85156-.1308 3.85937-53.7578 45.2207-2.1485-2.23242c-.9089.69107-1.7543 1.44214-2.6172 2.31446 0 0 2.1606 2.5263 2.2266 2.68945-8.9165 7.29459-11.77 21.382079-3.2734 31.212889.921 1.065589.7726 1.324375.5996.148438-7.6004-8.303799-6.6359-22.990107 2.8398-29.949217l1.9102 2.51367c-4.0945 9.19722-6.2454 23.541256 4.5722 24.783203 3.9304 10.574568-.591 23.10497-5.6386 31.503906-5.3491 9.67601-11.8318 17.716765-15.8789 28.25586-1.9665 4.39754-5.0947 17.4411626-4.9297 27.40820288l-1.1797-.0117188.5176-25.73242208s.6908-1.023247.7207-1.128906c-.7159-1.333976-.696-2.605498-.2149-3.980469-2.3597-8.295133-2.5527-23.202534-10.1699-30.050781-3.7351-3.220443-8.6975-3.351193-15.123-.708984-14.1796.02543-12.0765.757852-23.5274.101562-4.7374-8.707613-10.4835-17.189886-16.6992-23.478515-2.9054-3.252919-6.9595-5.015523-10.7578-7.373047 1.5234-2.901411 3.2661-5.040887 5.1543-6.417969.3925-.560953.659-1.167319 1.166-1.642578 38.6115 3.724433 46.9852-33.818034 45.2227-32.863284l-.3418.29688c-10.5562 38.681846-48.2955 37.194103-67.1797 20.4707-2.1371 2.14378-2.6906-.24707-2.7715-2.25781l54.1055-44.27735 2.4472 2.45118 2.3711-2.19141-1.9394-3.49023c14.1793-14.73872 7.7838-21.32253 3.2324-31.42188.127-.53198-6.0469-.32617-6.0469-.32617 3.8347-5.73899 7.0979-11.64286 10.3027-17.5625 4.9717-8.95941 11.8646-24.656 14.0254-36.0332zm36.8125 4.89843c-.028-.13929 16.8042 16.98944 18.9629 16.66211 1.0059.59399 3.5078 5.46289 3.5078 5.46289.072.15423.06.43997-.3457.23828-2.8452-1.41343-14.7422-11.32516-20.8242-18.70312-.4448-1.07443-.9845-2.43927-1.3008-3.66016zm-19.6113 1.57227c-1.2314.111-.9226.70432-.3965.94336 2.935 1.42384 1.6717 4.34328-1.4258 2.48633-2.4412-1.4896-4.3756-1.6242-4.3613-.33594.01.5448.6704 1.24352 1.3145 1.23633 1.2069.0779 2.3003.52084 3.4863.78125 1.85.39862 3.2343-.0935 3.6973-1.22071.786-1.91323-1.0831-4.00162-2.3145-3.89062zm22.4766 5.50586c.1239-.00071.2528.0664.3691.11914-.2056-.18064 8.3694 9.2526 20.0606 17.04492.4538.52589 1.5831 3.24638 1.7636 3.61328-.047.25636-.3047.006-.3047.006-5.9043-3.4271-13.6983-10.2229-21.082-17.93555 0 0-.7098-1.71011-.9277-2.82226.04-.0185.08-.0252.1211-.0254zm-19.1094 3.51562c-.2668.037-.6224.44037-1.0625.6836-.8993.49699-1.1847.62846-3.3945-.0371-1.1987-.36108-1.3932-.33523-2.1094.19726-.6258.46501-.9718.54268-1.6699.22852-1.2562-.56535-1.8388-.15399-3.002.25391-1.1078.40218-1.487-.0884-2.4844-.31641-.1318.001-.1874 4.0388-.057 4.16797.046.0448 1.036-.60944 1.5977-.89649.9663-.49376.8277-.41556 2.2382-.35742 2.0823.36068 4.1445.23916 5.5391-.31055 1.7358-.49267 3.0923-.40019 4.291.58594.7279.59884 1.6932.49997 1.1289-.60156-.1948-.38057-.6351-1.7812-.582-2.30274.079-.77964-.094-1.27923-.3828-1.29492-.017-.00099-.033-.002-.051 0zm21.6504 2.88868c.18-.0494.4644.18635.5859.25976 3.9468 3.79998 8.815 9.59977 20.2637 16.32031.5965 1.04932 1.4016 2.44338 1.9121 3.53125.047.30145-.026.56888-.3184.46485-7.0745-4.50217-11.0078-6.68944-20.8144-16.39258-.6096-.98378-1.2589-2.65853-1.7637-4.02344.027-.0963.075-.14374.1348-.16015zm-1.0801 1.70898 4.3789 8.25391-14.7441-.0312c3.7469-2.24204 7.3228-5.23093 10.3652-8.22266zm-24.1269.0957c-.083.0115-.1872.04-.3125.0898-2.4208.96614-2.7862 1.16741-5.1875.58007-1.399-.34219-1.015.47378-.2989.81055 1.8117.85199 4.4354.24982 5.4082-.42383.5616-.36325.9694-1.13701.3907-1.05664zm-2.7969 2.63867c-2.5355.0357-4.9274.92284-5.1055 1.95704-.034.19981.1721.42385.5664.18554 1.7181-1.03846 5.9839-1.37715 9.211-.20703.5226.18949.6137-.13557.072-.58398-1.2074-1.00085-3.0093-1.37601-4.7441-1.35157zm31.8261 3.29493c.1195.0326.2778.1705.3536.23046 4.7723 4.42215 9.3786 8.49044 19.6504 14.41016.7394 1.6197 1.8097 3.5581 1.998 3.72656-9.6264-4.69101-20.1191-13.94921-20.1191-13.94922 0 0-1.6505-2.95349-2.0293-4.21874-.01-.10672.01-.16403.045-.18946.026-.0191.062-.0204.1015-.01zm3.6407 7.11914s8.788 7.46224 18.8066 12.52734c.406.39131 1.4133 2.79329 1.7422 3.05078.3319.25989-.3974.25781-1.1191-.11523-5.243-2.42471-16.4864-10.1836-16.4864-10.1836-1.079-1.77455-2.623-3.62192-2.9433-5.27929zm4.4746 7.70703c1.5382 1.18897 14.5813 9.3793 16.9883 9.56445 0 0 1.1518 1.29912 2.1035 2.48047.8864 1.10082 1.2121 1.27372 1.3144 1.49609.1017.22097-.3332.20928-.4062.20118-5.8674-2.56074-11.8367-5.25535-16.9102-9.51172-.685-.58344-.8386-.84995-1.1758-1.29492-.4471-.59412-1.7748-2.71427-1.914-2.93555zm-106.5996.23047c1.8184.1818 3.6734 2.05631 3.664 4.83593 8.1743.69093 4.311 8.27993-.4375 7.11915 1.8834 4.31254-3.7734 5.93086-4.5683 5.19726-.3194 1.39349-2.473 5.88086-2.9317 7.21484 6.057-4.31008 15.8013-2.39727 17.2129-2.67382-3.5191 7.38878-15.0224 5.5904-15.4043 5.28125 0 0-6.0911-2.90607-6.5429-2.98829-7.8825-2.53253-10.212-4.01785-10.7461-11.4121.039-.27099.1465-.26084.4121-.0664.6838.47334 3.3369 2.20968 4.3164 2.6875 4.4876 2.12136 5.7766 4.41888 7.1308 8.02539.3239.35136.5864.32084.9922.01 1.7332-2.25185 2.5431-4.12769 3.3457-6.54493.1042-.26937.3303-.5456.1973-.93554-.3165-1.06718-1.0938-2.44766-.2988-3.49219-2.5346.11642-4.9597-1.74278-4.6504-3.60547.6749-3.45132 2.1325-2.82922 4.8652-3.33203-.1579-3.99075 1.6249-5.50212 3.4434-5.32031zm110.9219 6.37695c5.9651 3.36557 11.0351 6.62786 16.4707 8.38281.7751.29177 1.1722.3123 1.5585.58594.3861.27364 2.0422 1.30095 2.4336 1.53125 2.48 1.46039 2.734 1.39191 2.1192 1.63672-.6812.27119-5.0355-1.0055-8.7149-2.37109-6.527-2.4226-8.8367-3.79671-11.1972-5.9336-.5317-.55271-3.0114-3.52974-2.6699-3.83203zm-81.5762 6.92578 4.0801.0684c6.3645 7.77466 8.0995 21.50893-3.0137 30.22656-1.5152-1.7611-2.903-3.61313-4.2617-5.49414 8.9793-7.5086 6.2529-15.01679-.2266-22.52539zm-37.3477 11.84375c.5032-.0114 1.3083.30234 2.1465.94727.8964.68998 3.0969 2.13572 4.0059 2.52734.465.20033.6113.25195.6113.25195l5.8652 6.68555-15.1035 12.32617s-1.2249-1.25869-1.6152-1.67968c-.3689-.39784-.2629-.73056.1972-1.18165.3691-.3619.3959-1.14795.334-1.5332-.092-.57153-.077-1.21633.6446-1.75.5821-.43022.6723-1.18382.6445-1.39258-.022-.1669.3155-.71638.8203-1.08593 1.06-.77613 1.3796-1.722 1.0215-2.83399-.15-.46563-.2304-.58737.3769-.99414 1.3789-.87278 1.5208-1.67784 1.3711-2.93555-.2127-1.12166.7741-.837 1.584.57032.4416.76722.5675 2.02665.7891 3.45898.2608 1.68889.4396 2.1487.5312 1.91016.5237-1.36302-.096-6.48112-1.6465-7.17578-2.2673-1.01545-4.1616-3.08558-3.5937-3.89844.1968-.28172.2305-.18569 1.6133.45508.8094.37517 1.5597.68003 1.6719.68359 1.6.0509.6283-.63652.1074-.70898-.6262-.0871-2.497-1.23187-2.7168-1.63282-.365-.66683-.1637-1.0023.3398-1.01367zm-3.8633.88086c1.4756-.0165 1.7601.38013 1.7754 1.65625.01.7529.2891 1.3322 1.4649 2.83203.4793.61144.7989 1.08045.7676 1.32031-.052.39569-.1941-.0144-1.8204-.20703-.5773-.0684-.8703-.078-1.0722.22266-.5601.83379-1.7469-.035-2.4766-1.26367-1.7396-2.92922-1.1262-4.53277 1.3613-4.56055zm28.1211 1.76563 16.0567 19.72851-1.8125 1.41211-16.1172-19.46094zm-2.6855 1.21093 1.7207 2.91602s-4.9767 4.2681-6.2852 5.47266c-10.5703 8.59422-34.4316 28.10351-34.4316 28.10351l-.3223-3.92383zm-28.9824.52735c.3136.008.6711.4063 1.1797 1.18554.4407.67547 1.387 2.03135 2.3945 2.96289 1.9566 1.80971 2.1452 1.64453.5566 1.81641-.6313.0683-.8376-.006-1.2226.95899-1.1656 1.45916-4.6072-3.76946-3.8008-5.76954.3151-.78085.5789-1.16219.8926-1.15429zm5.7265 2.83593c.3638.0325.7015.23247.9922.35352.8524.35089.9099.55636.7695 1.37305-.1343.78159-.727.98378-1.8925-.0469-.7784-.73601-.7574-1.45984-.2403-1.64844.126-.0356.2499-.0421.3711-.0312zm25.502.46875 1.8867 2.44532-42.7617 34.76757v-4c1.0439.13507 28.4524-23.82281 40.875-33.21289zm-33.209.39844c.1144-.0239.2924.36859.7676 1.08594.9668 1.46058 1.8547 2.42328 2.8672 3.18945.9571.72443 1.0654 1.1299.4082 1.13477-.2805.002-.6656.29817-.8672.64648-.4051.69973-.4396.53429-1.0664.16602-.8955-.52591-1.8451-1.3036-2.1504-2.36133-.3877-1.34304-.4404-2.84009.041-3.86133zm6.7617 2.77539c1.0913-.038 1.8758 1.23643 1.1543 2.26758-.4012.39269-.7633.58014-1.5625.10742-1.0548-.6239-1.2448-1.58287-.3808-2.12109.2694-.16781.5372-.24514.789-.25391zm-7.0254 2.75977c.2296-.0106.643.32121 1.336 1.03515.5319.54794 1.4562 1.01548 1.8261 1.22266.8294.4645.8689.6249.418.99805-.1921.1591-.8246.17018-.9961.67383-.4907 1.4411-2.5714-.23447-2.7695-2.29493-.1009-1.046-.11-1.6212.1855-1.63476zm5.2305.16992c1.3657.0572 2.01 1.65674.9219 2.44336-.5931.42874-2.0884-.32823-2.2383-1.11328-.097-.5055.7972-1.35182 1.3164-1.33008zm31.9316 1.18945c.7922 0 1.4336.64413 1.4336 1.43946 0 .79532-.6414 1.43945-1.4336 1.43945-.7921 0-1.4336-.64413-1.4336-1.43945 0-.79533.6415-1.43946 1.4336-1.43946zm-4.2851.59571c.7921 0 1.4336.64413 1.4336 1.43945s-.6415 1.43945-1.4336 1.43945c-.7922 0-1.4356-.64413-1.4356-1.43945s.6434-1.43945 1.4356-1.43945zm-28.4473 1.92187c1.317.0102 1.3857 1.32313.6035 2-.4675.40432-.8893.53049-1.4941.0449-.8263-.66372-.7878-1.46657-.1426-1.83984.3658-.24167.6656-.20792 1.0332-.20508zm28.957 2.01953-2.3027 5.82813-6.209.84179 2.3028-5.82812zm2.6817.0859c.7921 0 1.4335.64413 1.4336 1.43945 0 .79533-.6415 1.43946-1.4336 1.43946-.7922 0-1.4395-.64413-1.4395-1.43946 0-.79532.6473-1.43945 1.4395-1.43945zm125.9043.0859v3.63867l-50.5996 42.28711-1.7129-2.24609zm-118.6348.10156 1.6153 2.08594-52.3555 42.85351v-3.00586zm89.002 3.4668c-12.716-.10563-26.1067 9.81053-19.502 31.84375l6.6621-5.36328c-2.8682-14.52902 8.5803-20.31031 19.4532-16.08985l6.7656-5.78906c-3.5305-2.98456-8.4031-4.56023-13.3789-4.60156zm-109.6387 3.44531c.7921 0 1.4336.64413 1.4336 1.43945 0 .79533-.6415 1.43946-1.4336 1.43946-.7922 0-1.4336-.64413-1.4336-1.43946 0-.79532.6414-1.43945 1.4336-1.43945zm-4.3535.35352c.7921 0 1.3887.59725 1.3887 1.39257 0 .79533-.5966 1.49024-1.3887 1.49024-.7922 0-1.4336-.64804-1.4336-1.44336 0-.79533.6414-1.43952 1.4336-1.43945zm23.166 2.92187-6.6055 5.30859c1.7069 13.9115-5.0331 20.99573-19.5234 16.22657l-7.0078 5.58203c18.9341 13.07518 43.7105-3.7787 33.1367-27.11719zm-20.3281 1.25586c.7921 0 1.4336.64413 1.4336 1.43945-.0001.79533-.6415 1.43946-1.4336 1.43946-.7922 0-1.4336-.64413-1.4336-1.43946 0-.79532.6414-1.43945 1.4336-1.43945zm-2.461.34375-2.3007 5.82812-6.209.84375 2.3007-5.82812zm141.4141.0215c.7921 0 1.4395.64413 1.4395 1.43946-.0006.79532-.6474 1.43945-1.4395 1.43945-.7923 0-1.4334-.64413-1.4336-1.43945 0-.79533.6413-1.43946 1.4336-1.43946zm-1.1094 3.14649-2.3008 5.82812-6.2089.84375 2.3007-5.82812zm-150.8867 4.17187c.7921 0 1.4374.64413 1.4375 1.43946 0 .79532-.6454 1.43945-1.4375 1.43945-.7922 0-1.4336-.64413-1.4336-1.43945 0-.79533.6414-1.43946 1.4336-1.43946zm-4.127.16016c.7928 0 1.4393.64413 1.4395 1.43945 0 .79533-.6467 1.43946-1.4395 1.43946-.7921 0-1.4335-.64413-1.4335-1.43946 0-.79532.6414-1.43945 1.4335-1.43945zm143.4668.85547c.7922 0 1.4336.64413 1.4336 1.43945s-.6414 1.43945-1.4336 1.43945c-.7921 0-1.4335-.64413-1.4335-1.43945s.6414-1.43945 1.4335-1.43945zm14.6661.22265v3.19727l-41.0918 34.30078-1.7285-2.22851zm-155.2598 3.11719c.7923 0 1.4334.64419 1.4336 1.43945 0 .79533-.6413 1.44532-1.4336 1.44532-.7922 0-1.4336-.64999-1.4336-1.44532-.0001-.79526.6414-1.43945 1.4336-1.43945zm143.5273.34571c.7922 0 1.4336.64412 1.4336 1.43945 0 .79532-.6414 1.44531-1.4336 1.44531-.7923 0-1.4334-.64999-1.4336-1.44531 0-.79533.6413-1.43952 1.4336-1.43945zm-146.0449.15429-2.3008 5.82813-6.2089.84179 2.3007-5.82812zm141.9863.10547c.7922 0 1.4336.64413 1.4336 1.43945 0 .79533-.6414 1.44532-1.4336 1.44532-.7921 0-1.4372-.64999-1.4375-1.44532 0-.79532.6454-1.43945 1.4375-1.43945zm16.0274.50977-.1211 4.06836c-12.8016 10.95737-38.9855 32.723284-38.8945 32.736324l-1.9786-2.742184s28.7038-24.82347 40.9942-34.0625zm-17.5801 2.62695-2.3027 5.82812-6.209.84375 2.3027-5.82812zm17.3438 2.56836v131.69539125l-74.2227.0332031c-.9307-8.15752925 1.5126-18.94950635 5.5586-29.75976535 2.5005-6.680902 6.0922-11.638652 10.1426-17.619141 7.7646-11.403902 13.6374-22.981017 11.373-37.660156-.2957-2.178432-.5942-3.222556-.4922-3.808594.9435-1.777749 4.6874-7.16775 7.4239-9.412109 4.0157-3.293399 9.6047-8.213619 10.0527-7.921879 1.3335 2.5829 2.9116 4.67323 5.002 6.250004.3679.400998.3785.752731-.4708.93164-5.5436-.05022-11.2504 1.17222-13.1015 6.095704-.2471.932137-.2527.922388.8672.808593.5666-.05761 2.844-.05364 4.4336.0098 2.9228.228765 7.5239.250227 9.832-1.515625.4465-.427541.6919-.4001.7754-.166016.1972 1.140165-2.043 4.892578-2.043 4.892578l-3.6992 2.052735s-1.5144.07085-3.3906.02539l-.033 3.341797c-1.4703.87243-3.9933 4.611601.061 7.478516l-.1328 3.638672 3.5742.06641c2.3717 2.278922 4.3013 2.267581 6.4785.121094l4.1211.0039-.016-3.929688c2.0312-1.639078 2.3185-4.422225.2422-6.644531l-.051-3.988281-3.1699.02148s-.6555-.510842-.6738-.916015c0-.261953 2.3142-4.744498 2.7578-5.384766.5764-.832201.42-.3564 1.3418 1.564453 1.3194 2.749012 2.6248 3.87141 5.9687 5.494141 2.9836 1.448262 4.0487 2.12389 4.9141 2.953125.689.660217 1.0952.452507 1.3613-.533203.5755-2.19182.3995-4.386329-.8027-6.392578-2.538-4.235166-6.9592-4.430311-7.6621-5.410157-.092-.233537.808-.503314 1.7754-.9375 1.6737-1.02082 4.1228-4.108641 4.4375-5.347652-.057-.59741.3357-2.47808.625-2.89453.3335-.73953.3703-1.08468.3554-3.07032-.2994-1.1332-.027-2.60877.1133-3.11718.1518-1.03037-.3931-2.24411-1.168-3.73438-.2902-1.38386-.222-1.02459.67-4.14258.1452-.50387 1.1482-4.8468-.1348-5.14453.7264 3.38425-.2059 6.15843-1.4863 8.07422-.8652-.26412-1.5981-.94591-2.336-1.50976 0 0-.019-1.63345.3243-3.25586-.2018.55071-.3374 1.96952-.9747 2.30273-.3416.0798-.8124-.22535-1.7011-.99414-.3394-.29352-1.0664-.80469-1.0664-.80469s10.3347-8.89179 14.2461-11.83984zm-167.8887 1.41016c.7921 0 1.4336.64413 1.4336 1.43945 0 .79548-.6415 1.43929-1.4336 1.43945-.7922 0-1.4336-.64397-1.4336-1.43945 0-.79532.6414-1.43952 1.4336-1.43945zm139.043.32617c.7922 0 1.4355.64413 1.4355 1.43945s-.6433 1.43945-1.4355 1.43945c-.7921 0-1.4337-.64413-1.4336-1.43945 0-.79532.6415-1.43945 1.4336-1.43945zm3.125 3.94726c.7924 0 1.4334.64414 1.4336 1.43946 0 .79531-.6412 1.43945-1.4336 1.43945-.7921 0-1.4337-.64414-1.4336-1.43945 0-.79532.6415-1.43946 1.4336-1.43946zm-4.6407.61328c.7922 0 1.4336.64414 1.4336 1.43946 0 .7956-.6414 1.43917-1.4336 1.43945-.7921 0-1.4336-.64385-1.4336-1.43945 0-.79532.6415-1.43946 1.4336-1.43946zm-1.7715 3.22266-2.3027 5.82813-6.209.84374 2.3028-5.82812zm-23.1113 2.31055 15.5078 19.724606-1.9804 1.72461-15.3828-19.943356zm39.9942 1.02539s2.2321 1.155 2.6543 1.67969c.1505.57726-.2522.75539-.8457 1.29296-.2726.35053-.4437.68681-.459 1.44532-.017.81684.2521 1.18292-.076 1.54296-.5488-.0286-.9882.69095-.9648 1.27344.018.44464-.5609.9384-.9004 1.27344-.6021.59426-.7788.71809-1.1661 2.73242-.039.20156-.025.72453-.3085.9961-.8417.0757-1.4522 2.146-1.836 2.27734-.6144-.0396-1.5899-.79427-1.8281-1.9082-.1549-.72396-.1127-2.12953.059-3.03516.2029-1.07823.2938-2.05535.2266-2.31445-.1572-.60044-.5528-.23128-.5469.61133 0 .34243-.1273 1.36734-.3438 2.33398-.2168.96944-.8057 2.25738-.541 3.02148.3949 1.13952 1.8486 1.62151 2.5039 2.22461 1.7239 1.5865 2.0989 2.36092 2.2949 2.712894 1.3786 2.530054 1.3822 2.959576 1.0371 4.863281-.1987 1.095694-1.2622.909964-1.9023.464844 0 0-4.0952-2.99074-5.8769-4.476563-2.6996-2.250756-4.5935-4.551216-5.7383-7.109376zm-28.3457 1.04883c.7922 0 1.4336.64218 1.4336 1.4375 0 .79531-.6414 1.43945-1.4336 1.43945-.7921 0-1.4337-.64414-1.4336-1.43945 0-.79532.6415-1.4375 1.4336-1.4375zm31.7011 1.97265c.2173.0308.415.12947.6114.25977 1.3183.8747-.0001 2.3392-1.1934 1.80078-1.0339-.43821-.9554-1.49242-.1406-1.91406.2686-.14033.5054-.17731.7226-.14649zm2.2696 1.18945c1.2793.0204 2.6933 3.06449 2.4336 3.95899-.381 1.041-.7304 1.0777-2.5352-.45508-1.7836-1.51472-1.8089-1.57707-1.0879-2.39648.4003-.46532.5906-1.07858 1.1895-1.10743zm-30.4278.55469c.7925 0 1.4333.64414 1.4336 1.43946 0 .79531-.6411 1.44501-1.4336 1.44531-.7921 0-1.4336-.65-1.4336-1.44531 0-.79532.6415-1.43946 1.4336-1.43946zm-4.4453.55469c.7921 0 1.4336.64382 1.4336 1.43945 0 .79532-.6415 1.43946-1.4336 1.43946-.7925 0-1.4333-.64414-1.4336-1.43946 0-.79563.6411-1.43914 1.4336-1.43945zm31.4922 1.02539c1.4152.21032 1.7855 1.28385 1.1348 2.08203-.8847 1.07971-2.8687.0991-2.3985-1.18554.2136-.58348.7305-.88572 1.2637-.89649zm2.5371 1.62109c.5542-.0475 1.3895.72093 2.3027 1.9961 1.0264 1.43312 1.1091 1.89711.8184 2.77148-.4239 1.27411-.688 1.50761-1.6094.26563-.3476-.46794-1.1548-1.56677-1.7304-2.17188-1.2285-1.29241-1.4204-.96446-.6875-1.95117.3399-.45731.5737-.88166.9062-.91016zm-4.5312 1.17383c.1005-.0102.2046-.009.3125.002.2877.0288.595.13451.8925.33007 1.271.65886 1.3935 1.51628.6426 2.12305-.884.48528-2.4434-.0904-2.7461-.96875-.2906-.84321.1948-1.41484.8985-1.48633zm3.3593 2.23047c.7186-.0456 1.312.69944 2.1914 2.125 1.4977 2.42723 1.5793 3.24367.3028 4.843751-.9184 1.151465-1.0115 1.213584-1.9102-.621091-.7344-1.49923-2.1322-3.25585-3.4258-4.3086-.5403-.43973-.7298-1.05592-.3398-1.09765.1133-.0121.5921-.0336 1.0625-.0508.6911-.0252.9416-.11972 1.3203-.49219.2503-.24654.5178-.38059.7988-.39844zm-5.1601 1.89453c.6689-.0328 1.5325.33157 2.1758 1.08203.729.76966.6426 1.47376-.7891 1.61524-.6447.25353-2.3996-.90225-2.4082-1.67774-.01-.65074.4312-.99091 1.0215-1.01953zm3.4765 2.81446c.6011-.0303.912.61136 1.5879 1.972652 1.037 2.09007.7382 3.227474-1.0547 4.152344-1.2162.627526-2.1441.815027-2.3007.09766-.086-1.453559-.4918-3.015123-1.1465-4.025391-1.0959-1.657875-1.2901-2.246145-.088-1.757815.6365.25851 1.3298.22929 2.0586-.1543.2924-.20092.6374-.26971.9433-.28515zm-6.1836 3.361324c-.4171-.0086-.6848.247399-.5722.93164.3785.186797.9764.01248 1.4277.175782.6088.220249.985 1.212973 1.6348 1.050781.068-.837271-1.5719-2.138404-2.4903-2.158203zm-4.7773.640625c1.5617.634485 5.627 3.595703 5.627 3.595703l-3.7032 7.734375c.6744 1.211775.9453 4.220703.9453 4.220703 4.684-.360007 7.22 7.565911-.074 6.833984.8325 4.89926-7.0272 8.739328-6.8125-.04102-8.1879.638528-5.4402-8.675129-.3945-6.927735-.1511-3.946355 2.47-4.456507 4.3184-5.425781 1.5156-1.721133 2.4453-5.617187 2.4453-5.617187l-.3692-1.189454c-1.553 2.723612-8.1642 3.504882-15.4297 2.060547 1.9671-4.679209 7.9345-4.54608 13.4473-5.24414zm8.4766 4.029297c.1776-.01015.3677-.0045.5683.01367 2.6755.242606 7.193 2.871492 8.1739 4.341796 1.8833 2.82836 1.7649 5.917189.9765 6.390625-.8309-.469576-1.5522-1.285869-2.4121-1.658203-4.328-1.874046-7.7844-3.411574-8.4023-6.167968-.7734-2.046035-.1479-2.848905 1.0957-2.919922zm-146.8828 1.65625c7.0429-.06785 14.3721 2.776476 19.6015 7.722656 1.5749 1.576173.7179 1.123992-.541.521484-3.3512-1.60318-11.6545-5.313322-15.6543-5.367187-7.4166-2.089822-7.6649-1.139811-10.2656-1.808594 2.1956-.699889 4.5117-1.045743 6.8594-1.068359zm-5.4668 2.234375c6.9062-.140513 12.9684 3.422116 15.8222 7.59375 6.8172 9.023149 11.4408 20.495784 17.4707 30.998047 7.8766 13.718672 15.2194 29.193079 27.5371 52.10742138l-1.1836.37109372-46.9726.085937c2.2441-24.4207151-10.352-47.7222591-12.0723-48.4882811 10.5325.147171 17.5305-1.623979 20.6895-4.673828l-1.0157-1.5625c-6.1925 5.365573-15.479 5.611612-21.6679 3.953125.1404-13.189719-.4091-27.120665 0-40.30664.4672-.0432.9321-.06875 1.3926-.07813zm11.75 2.046875c1.884-.144497 12.1658 4.101176 16.7656 7.273437 1.2775 1.326581 3.144 3.631987 3.1465 3.857422.01.612847-.8993-.14174-5.3418-2.685547-3.3623-1.89885-6.8521-3.413545-10.2481-4.86914-.1557-.06676-.4648-.201172-.4648-.201172s-.2522-.289797-.6836-.625c-1.2095-.939733-3.5602-2.606399-3.1738-2.75zm4.998 4.808593c-.1018-.01917 10.1975 3.727234 18.3926 10.279297 1.0897.871221 2.4277 4.121094 2.4277 4.121094-.7312-1.381655-13.6745-9.156802-18.2187-10.9375-.01-.0061-2.6016-3.462891-2.6016-3.462891zm3.6328 4.972657c.5614-.338203 15.6226 8.588289 17.8301 10.892578 1.0007.768179 3.3452 4.499135 3.3535 5.25.01.66802-.7257.09276-2.0742-1.158203-6.9364-6.503434-16.9579-11.405567-17.0391-11.296875zm2.7949 5.1875c7.0728 3.004701 15.9572 10.229386 20.4414 14.529296 1.1216 1.114152 1.9209 2.727353 2.0723 3.478516.094.465799-.1404.434598-.2324.683594-5.8111-6.696394-18.5815-14.339814-20.2754-14.9375.013.423432-1.4046-2.596377-2.0059-3.753906zm2.7227 5.257812c4.1656 1.36444 16.0809 10.915322 20.7598 15.607422.814.832913 2.1048 3.754768 1.8164 4.111328-.1418.175364-.1275.084-.4688-.154297-1.8593-1.857212-11.4115-10.365848-19.3808-15.138672-.7486-.37578-3.2587-4.349598-2.7266-4.425781zm3.5254 6.111328c.1378.01027.3868.188964.8144.425782 7.3289 4.058602 17.9528 14.279441 19.9668 16.736328.4582.756564 1.1801 2.145054 1.127 2.996093-.091.669115-.3592.09937-3.3223-2.828125-4.7615-4.68133-10.2381-9.210552-16.0429-13.015625-1.116-.770018-.9032-.868012-1.7129-2.283203-.8123-1.419614-1.1336-2.053667-.8301-2.03125zm45.3789.0957c.5415-.01805 1.0458.000214 1.4941.06055 5.233.149534 7.2792 4.127675 10.502 11.458985 2.638 7.223778 3.7312 13.842485 3.8515 19.111328.01.353793-.6307.05144-.9218-.02734-1.4013-.37747-3.1465-.729816-5.168-.216797-.9424.239055-2.3457.275391-2.3457.275391 1.0489-1.487165 2.2512-2.006639 3.5059-2.947266.4855-.303176 1-.683594 1-.683594-1.6769.193607-2.8955 1.047538-4.42 2.021485 0 0 .2109-1.044822.4746-1.695313 1.5223-3.757719 1.9829-5.982953-.2832-6.679687-1.4522-.410012-2.0585-1.251811-2.5058-2.707032-.6794 1.483073.3735 2.974667 1.5312 3.779297 1.5764 1.134913 1.8878 1.448664 1.0313 4.136719-1.2002 3.765325-1.4557 4.686759-1.6758 5.560547-.1266.502647-.3707 1.358281-.4941 1.912109-.4757 2.13416-.4179 3.999351-.3301 5.773438.5181 3.963272 4.7726 5.91806 10.4844 3.716797.5406-.21112.7656-.02148.7656-.02148-4.5498 4.645923-9.6569 7.615451-12.6328 17.0019535-3.8278-7.7437734-9.2474-13.8122725-18.2598-16.2441405l-.1328-1.617188c3.1432 1.513096 9.2368 3.571728 13.1055 1.257813 2.0712-1.419962 1.4415-2.334635-1.0723-1.355469-2.9931 1.166161-8.3984 1.029281-11.0977-.498047-.5494-.310797-1.1094-.04095-1.2675.01172-.1411-.91024-1.4405-4.341211-1.25-5.630859-.1114-.180534.8224-.18973 1.0019.05078.7467 1.000705 4.5388 3.980706 8.4785 3.748047 1.9587-.115667 3.5678-.71112 5.2696-2.513672.1418-.126983.8355-.217764.9297-.324219.1519-.171089.041-.428088.035-.519531-.042-.137206-.2957-.511767-.4629-.935547-.2194-.37023-.2655-.757151-.2285-1.054687 0-.247687.1687-.377721.2969-.550782.147-.331558.1081-.753876.025-.978515-.3495-.237166-.303-.677869-.1192-.886719.4401-.500079-2.9814-3.7907-4.748-4.91211-.3711-.235569-1.4004-.402343-1.4004-.402343s.4083.702409 1.1445 1.193359c2.6025 1.735482 4.5007 4.002744 4.0703 4.298828-.3313.228119-1.4969-.271727-2.6836-.552734-2.3817-.560672-5.2419-.918802-8.3437 1.328125-1.1602.956715-4.2266 1.101562-4.2266 1.101562-.038-1.624941-6.6653-19.255135-7.0918-19.615234 2.5862-3.017491 10.6348-10.110439 18.7051-13.171875 1.8657-.614209 3.8345-1.002479 5.459-1.056641zm-29.166 4.251953 14.6797.228516c-3.6908 1.864851-10.3965 8.554688-10.3965 8.554688-1.9184-3.875275-2.505-5.80889-4.2832-8.783204zm-12.6895 1.94336c1.0941.0061 12.7447 9.539979 14.4024 11.791016.1996.271158 1.3799 1.522309 2.625 2.77539 3.0137 3.033117 4.2577 4.786199 4.2715 6.03711.01.590853-.5317.20615-1.336-.683594-6.0351-6.732332-9.9631-10.387053-17.4219-15.548828-.8468-.455261-3.476-3.967838-2.5839-4.359375.012-.0048.026-.01188.043-.01172zm39.8555 1.755859c-.3278-.01143-.2736.304374-.096.595703 1.8494 1.640675 6.7308 1.568172 8.4141.242188 1.527-1.202861-.4743-.56716-1.0977-.298828-1.4589.627974-3.0237.557149-5.0547.01563-1.1845-.315835-1.8382-.543322-2.166-.554688zm4.5019 2.671875c-1.7071.01591-3.4914.530515-3.0937 1.160156.145.229859.6125.659291 1.7285.05078 1.6108-.799942 4.9199.249808 5.0176.27539.3378.08916-1.1008-.952112-1.584-1.166015-.5318-.235377-1.2925-.32752-2.0684-.320313zm-41.1347 1.78125c6.2614 3.846429 13.8885 11.542299 18.4668 17.039063.7621.946509 1.3127 2.111937 1.3203 2.796875.011.987251-.1994.439229-4.3574-3.791016-3.2614-3.35016-8.1837-7.909391-11.4434-10.365234-1.958-1.432588-2.3069-1.618468-3.2285-3.31836-.8646-1.594763-1.1766-2.385916-.7578-2.361328zm47.7637.146485c-.03-.004-.06.0027-.094.01953-.9872.498107-1.789 1.02698-2.7305 1.009766-1.7265-.0316-3.2415-1.07279-5.9297.107421-1.1772.561566-2.7393.442684-4.2597-.08203-1.3771-.475325-1.0523-.06869-.5293 1.439453.2378.685998.3851 1.659348.3867 1.802735 0 .335253 0 .357895.9746-.1875.8465-.475425 1.0242-.638589 2.8301-.216797 1.8357.428767 1.8659.269577 2.7285-.181641.752-.393343.9079-.62973 1.4219-.421875 1.0065.407029 2.1456.581602 3.4355-.09961.9892-.522381 1.3116-.170876 1.7696.06055.6217.313829.8627.113782.6191-.507813-.097-.247521-.2782-1.310718-.2832-1.646484-.01-.557799-.1306-1.06746-.3398-1.095703zm-85.3262 2.449218c15.6066 19.521303 13.1152 47.6618955 12.5957 47.43359412l-12.5957.0546875zm40.875 3.945313c6.2337 4.388576 13.6517 12.038322 17.7637 17.328125.6995.913603.1312 1.202581.4804 2.304687.1283.4091-.5626-.194576-2.5429-2.330078-2.4672-2.660931-6.5245-6.662176-9.1954-8.984375-2.9261-2.543939-3.7711-3.183628-4.3945-4.042969-.4911-.719145-2.4941-4.174503-2.1113-4.27539zm35.084 1.794922c-.066-.0017-.131.0029-.1953.0059-2.2189.104682-3.3469 2.601453-1.4454 4.365235.7151.663226 2.1172.74414 2.1172.74414s-.6288-.490816-.8789-.683594c-1.5839-1.222478-1.4225-3.12632.3809-3.146484.6248-.007.6643.216205 2.1094 1.257812 1.6998 1.224749 3.7071 1.225632 3.6836-.0059-.018-.904938-.3549-1.830886-1.8731-1.681641-.3991.03953-.9318.08127-1.3984-.03711-.447-.11343-.8273-.388261-1.0039-.466797-.529-.235674-1.0347-.344556-1.4961-.351561zm-31.0332 5.748047c4.7693 3.214627 11.3235 10.484209 14.6738 14.771484.7677 1.004897.82 2.114774.5098 2.712891-.074.117853-.6602-.248047-.6602-.248047-3.8739-4.579515-8.266-8.743159-12.5781-12.970703 0 0-2.5624-4.135676-1.9453-4.265625zm43.0351 4.621093c.9122.03425 2 .649667 3.1992 2.332032l-1.0293.513672c-1.5614-2.349406-2.9898-2.381704-4.1855.363281l-.7676-.19336c-.3798-.356175.7765-3.090986 2.7832-3.015625zm2.9688.328125c.4298.01508 1.1806.249376 1.3554.689453.1959.405687-.024.864401-.6132.84375-.09-.0031-.6597-.706559-.9434-1.136718-.2099-.262152-.1192-.405001.2012-.396485zm-20.9707.181641c1.4182.0692 2.8378.878009 3.455 2.693359l-1.1523.05273c-2.1961-2.897617-3.8379-.95305-4.8223.255859l-1.2363-.167969c.1108-1.790044 1.9326-2.922949 3.7559-2.833984zm14.6738.21875c.1736.0033.3452.03527.5059.09766-.4544.691847-.5323 1.270632-.6348 1.896485-.4485.186349-1.0872.575477-1.5625.07813-.8841-.805989.4759-2.09586 1.6914-2.072266zm-18.1231.302734c.5441.0023.381-.03351.1446.271485-.2386.309902-.6301.859535-.8047 1.351562-.074.342063-.1102.488816-.4297.5-.6096.0192-1.6881-.19979-1.6797-.191406-.4694-.445187 1.3612-1.884038 2.7695-1.931641zm7.086.427735c.3635-.04441.2786.477148.1621.68164-.2297.272159-.3208.360774-.4492.02148-.062-.163253-.1579-.293466-.2364-.390625-.1795-.231549-.1586-.241866.062-.28125.1-.017.3334-.02928.461-.03125zm-24.543 1.816406c4.4899 3.818411 7.8691 8.144888 11.459 12.130859.7157.888237 1.0502 1.744013.9121 2.324219-.172.721869-1.6445-1-1.6445-1 .037.01607-8.7637-9.414062-8.7637-9.414062s-2.2334-4.021067-1.9629-4.041016zm43.3887.496094c1.3431-.03536.4446 2.252895-1.4238 2.80664-2.0635 1.049882-4.4294.79838-6.8379-.580078-1.374-.786222-1.7904-1.613966-.5938-1.283203 4.5094 1.246802 5.6059 1.014794 8.3262-.751953.1618-.138482.3343-.172104.5293-.191406zm-29.9727.824219c.3119.01044.9294.155423 1.9278.414062 4.3186 1.314336 5.6254 1.265219 8.1074.121094 1.582-.729127 2.2376-.62385 1.5605.472656-1.2461 2.017549-5.6481 2.239412-8.9511 1.113281-.8745-.298221-1.6421-.8197-2.4844-1.453125-.4517-.472061-.5611-.681329-.1602-.667968zm19.916 1.335937c.2587-.01695.7398.281638 1.3262.615234 3.6178 2.059634 6.2884 1.682172 8.5176.300782.4032-.369236.6217-.191838.6758.166015.1897 1.254424.2466 2.155784-.3242 2.759766-.3319.351291-.8964.50929-1.7481.796875-3.5029 1.18268-7.7661.337269-8.582-2.300781-.2655-1.356405-.4343-2.301307.1347-2.337891zm-28.707 5.658203c.013-.0017.026-.0023.041 0 .2534.03831.8388.550739 1.7598 1.59961 4.8152 5.483651 7.4786 8.6341579 6.9922 10.2207026-.045 0-.074.3422413-.2774.1660156-2.6484-2.2959205-4.8117-4.8055052-6.4218-7.4296872-1.7648-2.875746-2.49-4.522045-2.0938-4.556641zm38.791 2.095703c.7344.303657.02 1.795238.029 1.761719-4.0634 3.119407-8.993 10.5457182-9.4355 14.203125-.084.69887698.053 1.47587472-.2051 1.72851562-.2569-.002767-.6946.003307-1.2793 0-.377-.0692907-.474-.25842394-.4375-.69335937.3553-3.91262055 2.5556-10.49314025 11.3281-17.00000025zm-30.0605.06836c.2869-.0083.7314.143249 1.3515.410156 3.6478 1.570755 5.0082 2.141684 7.3692 4.074219 4.3994 3.6014232 9.3106 12.34041831 7.875 13.14062462-.3762.004428-.8105-.009575-.9863 0-.5359-.98083112-.93-2.28269102-1.4258-3.20898442-2.9493-5.4416715-6.7848-9.1848852-12.1914-11.8320312-1.9971-.977592-2.2-.868919-2.3516-1.6875-.1142-.61447-.01-.886162.3594-.896484zm30.0312 3.142578c.3655-.03093.4524.638755.3282 1.986328-.051.557394-.092.825202-.2813 1.123047-2.3054 2.3570694-5.5706 6.8956266-6.6582 11.37304662-.5386-.0442022-1.558.0635297-1.5449 0-.3113-.16625122-.3397-1.10264568-.2461-1.48046874.8545-3.45092368 3.0876-7.66820418 6.5293-11.38085988.9679-1.044142 1.5506-1.593788 1.873-1.621093zm-29.2715.09961c4.6689 1.945011 10.7722 6.3838851 13.5215 14.41015638-.6089-.0367827-1.4833.0444209-1.707 0-.4643-.18282006-.705-1.04780272-1.5742-2.68749998-2.2677-4.277118-5.533-7.3785099-9.0703-9.0156254-.6584-.304617-1.0102-.497888-1.2227-.734375-.2368-.490287-.541-1.870128.053-1.972656zm1.0411 3.826172c.5996.11343 2.259 1.1926652 3.6465 2.2148438 2.4529 1.807489 6.2925 7.55013997 5.5214 8.34179682-.8278-.0164992-.7743-.003862-1.5898 0-2.6263-4.69398872-6.0979-7.05466542-7.4824-8.35937502-.4201-.7083159-1.4004-2.3793898-.096-2.1972656zm-5.4571.828125c.1137-.028913.5739.4249509 1.4082 1.3046875 2.4646 2.5984176 4.0296 5.47892 3.668 6.93359375-.306 1.23046484-.6655.55542709-3.4863-4.84765625-1.1871-2.2740171-1.756-3.3483746-1.5899-3.390625zm33.7227.072266c.056 1.49482-.063 1.8629859-.2207 2.65625-.1074.5398941-.4642.7904713-.8008 1.2109375-1.3532 1.8868702-2.2437 3.89654785-2.7539 5.78906252h-1.6582c.197-2.45285762 2.4481-6.47970052 5.4336-9.65625002zm-27.9356 2.755941c.7451.099368 6.5396 6.19827256 5.6915 6.90039062-1.0137-.0254038-.5304.0131218-1.7403 0-.7035-1.58246879-3.8853-4.91406252-3.8847-4.91406252l-.1465-1.9257812c0-.047919.031-.067171.08-.060547zm27.5704 2.1582031c.015-.00348.028-.00298.041 0 .2939.060261.1946 4.40474754-.051 4.74218752-.4686.0447566-1.3572-.038996-1.832 0-.2898-.15771829-.4396-.70268624-.3301-1.01953124.2727-.79188889 1.7001-3.62496668 2.1719-3.72265628zm-26.836 1.9707031c.5983.0003574 2.2054 2.3611894 2.0528 2.77148442-.6805.007442-1.8721-.0248945-1.9493 0-.1547-.11773778-.3912-2.37439342-.2109-2.74218752.031-.02008.068-.029321.1074-.029297z" fill="#004c97"/><path d="m1791.0762-277.22656.8261 1.08789-4.8222.0254c.7887.6686 18.6551 36.76485 41.5 78.46875 3.7818 7.3189 10.994 9.95704 19.3691 10.27734l-22.1855-35.87109c2.3631-1.2923 7.0547-4.75168 9.8925-4.10938.1756.8749 1.0171.5272 1.0293-.25l1.0274.0215.3613.56445h4.3106l.3535-.51172 3.7148.53711c-9.9318-12.2913-15.1696-31.23345-13.4687-49.72265l-32.9395.0723-.4375-.58008zm-38.7696 1.12304c.3969 7.6326-.6089 17.03779-3.0957 24.05079-3.7447 12.1416-13.0056 22.1324-18.5039 32.1914-5.895 10.9754-7.2798 20.52636-5.6211 30.97266l1.0782.0937c12.5667-17.2107 22.2998-37.77304 27.7461-57.99414.1186-.4404-.082-1.21838.017-1.66406-.2326-.5348-.03-1.11374.1172-1.26954.3165-.3343.1998-1.6471-.035-3.8164-.593-6.4438-.4761-11.5009.061-17.3418.4128-4.4841.3867-5.18945.3867-5.18945zm80.0528.51758c-1.0705 12.1165 1.3511 28.75745 7.0195 38.58985 0 0-.1801.66034-.2988.83984-.54.8172-.8074.11007-1.1348-.54883-1.2072-2.2392-3.4874-2.58838-4.4863-1.3418-2.2061 3.0186.1842 4.20957 2.041 5.91407-7.588-.4653-10.1171-8.8484-8.3633-12.9961-.039.791.3835 1.98535.9395 2.83203 2.1322 3.2472 5.2461.5065 4.3535-2.0625-.3693-1.06268-1.7285-2.83398-1.7285-2.83398s1.8483-.27432 2.6035-.73242c.7053-.4396 1.1503-1.218.9687-2.2832-.1456-.8548-.1842-1.22775-.6406-1.99805-.5597-.7018-1.5624-1.18641-2.3652-1.13281-1.5665.1048-1.756 1.18633-2.7813 1.92773-.2546-1.9491-1.4974-3.43295-3.5273-3.06445-1.5439.2803-2.6568 1.92994-1.711 3.99414.4777 1.0539 1.1486 1.37321 1.8243 2.28711-10.9028-1.2259-9.7142-14.22254-8.5078-13.99024 0 0 .3275-.062.2304.43555-.621 3.1804 3.3142 5.08083 5.0391 2.76953 1.0994-1.8748-1.2617-4.83398-1.2617-4.83398s1.5712-.33856 2.2851-.75196c2.8473-1.6486-.1866-6.38565-2.8359-5.22265-.9296.4248-1.1653 1.29105-2.0723 1.75195-.6063-.6775-.6427-1.41814-1.7324-2.02734-2.9895-1.6711-4.8599 2.28198-3.2051 4.02148.6789.7048 1.877 1.34751 1.6426 1.43359-9.2695-1.17508-9.1789-11.01731-8.9668-10.94921zm-39.1172.0274h6.4004l31.0879 48.53515-5.6739 2.79102zm7.7012 0h3.5332c.5449 10.8459 9.6434 12.30293 11.0507 12.14453-2.3234 7.3349 1.5224 15.38464 10.7832 16.52734-2.1239 6.7997 1.6364 15.76333 9.045 15.51953l.7851.49805c-.4778.9792-.5809 2.99254-.5527 3.02344-1.6473.1212-2.5395.36152-3.6094.57422-9.5753-14.4951-31.0351-48.28711-31.0351-48.28711zm-48.2579.0547h1.2754c-.378 5.7783-1.1949 13.40086-.6601 19.03516.624 5.382.6534 6.14609.2695 6.67969-.5268.5935-.2484.87197-.1445 1.35547.1385.8843.1518.89493.025 1.39843-1.1235 4.5181-2.5608 9.1993-4.3848 13.9336-5.9647 16.5123-15.6959 34.51668-23.3281 43.95898-.01-.034-.3482.03-.3535 0-2.0884-13.1752 2.3753-24.15871 4.705-28.66601 4.7231-9.1382 12.1413-16.93812 16.5469-26.51172 3.7489-8.1465 6.5152-17.93759 6.0488-31.17969zm65.1778 9.42579c.8048-.00001 1.4531.65674 1.4531 1.46484s-.6483 1.46484-1.4531 1.46484c-.8049 0-1.459-.65674-1.459-1.46484-.0001-.8081.6541-1.46485 1.459-1.46484zm10.3086 16.18554c.8144 0 1.4745.66287 1.4746 1.48047 0 .8176-.6602 1.48037-1.4746 1.48047-.8143-.0001-1.4746-.66287-1.4746-1.48047-.0001-.8176.6603-1.48047 1.4746-1.48047zm-74.0703 2.88867v.002c.5307 2.115-9.8678 33.85839-24.6426 54.05859l6.4531.13477.1992.71484c9.0385 13.3981 3.3861 25.25036-3.9121 30.75586l2.5254 3.38086-2.2734 1.84765-2.2754-2.71679c-18.4959 13.9293-54.5879 44.76172-54.5879 44.76172l.2012 4.94336 2.8164-2.22657c18.3082 17.792508 57.1294 16.819502 67.3105-19.9082l2.7285.0625c-6.1577 26.9198-31.2149 37.455888-50.1269 32.992188l-4.4297 6.390625 1.1855.636719c-.2188-.3404-.4176-.458886-.098-.771484l3.7637-4.863282c28.2945 3.6383 45.3789-12.439046 50.9218-34.218746l3.6094.0605c-3.0968 18.2952-11.6385 34.403469-23.8203 47.009769-8.7912-.036-24.2481-.238281-24.2481-.238281 5.6284 5.475298 16.3779 22.184006 16.8067 23.878906 0 0 11.0569.3549 22.918.0625 4.3474-1.9642 10.1657-2.753606 12.8828-1.378906 4.7741 2.415598 9.2621 11.379265 11.2793 25.759765.5196 3.7046.9892 5.274185 1.1328 6.021485.026.134498.3511.232131.3984.207031.182-.097-.2906.65629-.3105 1.21289-.02.5566-.001 1.3959.2636 1.6875.3345.3693.2942.612585.2481.771485-.03.1044-.6758.703125-.6758.703125-.096 8.3776-.05 15.9845624-.5059 26.2890622l1.6407.00977c-.012-16.5805002 4.9707-31.9236752 12.6504-42.4843752 4.6686-6.9312 9.6077-14.401072 12.3398-21.513672 3.0754-8.0062 3.4991-16.417625 1.8516-23.515625l-1.1231.0625c-6.7539-4.6481-9.5068-14.569409-1.1875-21.658209l-2.9433-3.8457c-8.3084 6.4492-10.2167 18.344409-1.6094 28.191409l-3.3672-.0098c-8.3984-10.5232-6.5388-22.608019 3.166-31.232419l-2.1719-2.76953 2.3614-2.08789 2.1289 2.33984 54.1777-45.44922-.039-4.97266-4.1503 3.38086c-24.3027-22.5578-60.3428-6.72969-65.627 20.44141l-3.3027.0332c6.9262-29.2396 32.447-37.50178 50.9082-33.61328l4.5547-6.91992c-3.3516-.9453-6.6198-3.17906-9.7051-5.81836-1.2997-1.1118-2.1196-1.79335-3.0645-2.90625-8.7439-9.2774-14.6807-22.16014-14.959-22.18164l-23.7753-.0586c-3.4886 1.7316-9.4608 3.70045-12.7383 1.04297-7.0379-5.7062-9.3998-17.21722-10.3672-24.625-.2936-2.3056-.542-6.31794-.7578-7.64844-.134-.2437-.3943-.25685-.6289-.21485zm84.291 12.80469c.7954 0 1.4394.65062 1.4394 1.44922s-.644 1.44531-1.4394 1.44531c-.7955 0-1.4375-.64671-1.4375-1.44531s.642-1.44922 1.4375-1.44922zm3.0957 1.70313c1.1722 1.5246 2.2127 3.09591 2.7949 4.75781-.5465-.017-1.0602.15423-1.668-.32227-.1411-1.6783-.8293-2.68443-1.6953-3.80273zm-4.3477 2.13867c.4808.2365.8614 2.05859.5254 2.37109-.5787.1238-.9727.082-1.168-.12109-.2905-.4807.2599-2.1567.6426-2.25zm-94.5566 15.83398 22.0722.0254c3.8404 2.9558 7.5943 2.56492 13.043.19532h24.543l1.3867 2.52734h-62.2402c.3466-.9396 1.1953-2.74805 1.1953-2.74805zm-1.8203 3.94922h63.5215l1.6035 2.5957h-66.6973zm6.1328 3.76953h7.1269l-2.6406 4.5h-7.3535zm15.8223 0h6.8007l-3.0273 4.4961h-6.7402zm22 0-2.8633 4.4961h-6.916l2.9707-4.45313zm8.5292 0h6.8125l-2.5468 4.4961h-7.0547zm-91.5058.69922c-4.4171-.051-3.5983 5.83039-3.1817 5.64649-2.7729-.6374-4.8227.68669-5.164 3.05859-.2708 1.8825 1.5621 4.56415 4.7656 4.18945-.4259.4931.01 3.34031.4336 3.59961 0 0 .054.41153-1.6367 3.95313-2.007 4.2034-2.4165 4.40386-3.3262 1.64258-.9783-2.9698-2.4899-4.47434-6.4297-6.39454-1.0495-.5115-2.5347-1.40487-3.3008-1.98437-1.7592-1.3306-1.7801-1.30982-1.6972 1.39258.1077 3.5091 1.1689 5.04774 4.9004 7.11914 1.8264 1.0138 5.3216 2.44655 5.955 2.43945.4454 0 2.0821.7316 4.5079 2.0293.4738.2535 2.0951 1.15006 4.1718 1.35156 2.2038.1561 7.1693-.36636 10.0469-2.03516 1.6147-.9363 2.2385-1.77398 3.4297-4.16796 0 0-4.0785.2121-5.9414-.2793-3.8713-.228-5.7951.00004-8.7305 1.52734-2.4556 1.2802-2.5936 1.50953-1.5683-.60547.4686-.9711.9041-2.11445 1.2988-3.25195.4279-1.1318.5416-1.22614 1.6152-1.33594 2.355-.241 3.6963-1.6047 3.9141-3.9707.058-.6345-.035-1.30469-.035-1.30469 1.6029.2379 4.8856-.56013 4.7832-3.89453-.092-2.9979-2.221-3.68658-4.8418-3.89258.3368-1.5359-.7802-4.79543-3.9668-4.83203zm.055.93164c3.8702.027 3.7801 3.59279 2.0937 5.61719l-2.0586-1.70117-1.6601 1.53906c-1.8073-1.1591-1.8006-5.47908 1.625-5.45508zm105.8926.043 1.9043 2.82227h-3.9297zm-72.2559 4.05274h7.2871l-2.9238 4.12695h-6.8907s1.5425-2.63497 2.5274-4.12695zm22.9707 0-2.7539 4.2871h-6.3692l2.5528-4.19726zm8.5352 0h6.5839l-2.6035 4.57226h-6.5078zm15.496 0h6.668l-2.7129 4.57226h-6.5742zm15.1055 0h6.8692l-2.836 4.57226h-6.623zm-90.3144.82226c1.6619.068 3.2425 1.43846 2.9687 3.25586-.5801 3.8493-4.2746 3.64031-5.3242 1.75781l1.5059-1.72461-1.8458-1.81836c.672-1.0823 1.6983-1.5114 2.6954-1.4707zm-5.334.0273 3.2734 3.31446-3.1914 3.20898-3.291-3.1582zm-4.7969.26368c.7431.048 1.5002.41964 2.1035 1.12304l-1.7695 2.00196 1.9433 1.875c-1.2518 1.7458-6.0621 1.60619-5.0976-2.59571.3828-1.6676 1.5816-2.48399 2.8203-2.40429zm114.3477.63281 2.0273 2.79492-3.8008.0312zm-109.4571.71875-1.5488 1.54883 1.5488 1.54883 1.5489-1.54883zm30.4199 2.71289 81.4883.26562 2.1817 2.67579c-28.4514.4922-56.3119-.45787-85.377-.48047zm-28.6484 1.74023c3.2291 1.9884.8428 6.1793-2.623 5.4668-2.5833-1.1384-3.1112-3.82902-.7871-5.39062l1.8203 1.50781zm27.9414 1.60547-2.2226.01-2.1661 2.54297c8.1875 8.6599 7.8868 16.172.2579 22.7207l3.0683 3.44727c8.5573-7.3497 10.4541-18.89801 1.0625-28.72071zm8.4121.33203c4.5897 7.1997 8.5595 20.83583-5.1152 33.32813l-1.6504-2.00781c11.9061-11.6747 9.1086-21.49213 3.7754-31.23243zm1.2735.17578 18.5039.0723c-3.9611 15.1561-6.7405 24.08132-7.1582 47.79102l-5.3477.0312c.5819-.5464-2.7683-14.3175-6.6777-19.0918 8.1985-13.976 3.7796-21.85754.6797-28.80274zm-58.2032.0195c.3196 0 .926.50244 2.2598 1.18554 3.9561 2.026 7.0937 3.93944 7.8535 6.79492.5414 1.5426.2038 1.57275-1.3515.11915-1.1567-1.0813-2.3886-2.01362-5.4707-4.13282-1.0856-.7464-1.4286-.62334-.7989.28516.454.6548 1.4299 1.39887 3.4082 2.60937 1.4347.8778 3.4094 2.63564 3.2539 2.89454-.1415.2357-.3867.2156-1.0781-.0879-.3193-.13998-1.3508-.56516-2.289-.94726-4.0303-1.642-5.7506-3.65912-5.9922-7.01172-.084-1.1674-.1572-1.70598.205-1.70898zm84.4434.0742s.5572.73712.6289 1.04492c.1549.6651-.4953 1.27475-2.543 2.18945-.7027.314-1.2863.48488-1.2675.89648.094.9666 1.9365 2.44277 1.7109 3.75977-.424 1.0074-2.9848 1.99589-3.625 3.18359 0 .8173 1.6648 2.06849 1.4277 3.17969-.1293.3313-.6653.66983-1.459 1.36133-1.6248 1.4155-1.7251 1.63257-1.1289 2.73437 1.3847 2.5595 1.4347 2.3694-.455 4.1875-1.9044 1.832-1.869 1.80965-.959 3.40235.981 1.7166.9362 1.63848-.3809 2.73828-1.291 1.0779-1.2386 1.29822-.5469 2.63672.669 1.2944.8212 1.31305-.3046 2.31445-1.3152 1.1699-1.5605 1.29177-.6329 2.76367.9592 1.5224 1.0282 1.45833-.055 2.70313-1.0246 1.179-1.1436 1.23365-.5879 2.03515.6978 1.0068.8301 1.27502.1 2.38282-.7903 1.1966-.7868 1.11186-.062 2.22656.6103.9386.5039 1.98242.5039 1.98242l-2.2891-.01s-.016-1.32105-.2832-1.80665c-.6487-1.17808-.6324-1.54474.1387-2.58984.7914-1.0726.6604-1.16383-.076-2.23633-.7457-1.0853-.6404-1.07389.3281-2.30859.8887-1.1327.9349-1.66745.4297-2.31445-1.1976-1.5339-1.192-2.18082.014-3.19532.9193-.7737 1.0043-1.11826.2109-2.44336-.7765-1.2968-.8734-1.41628.5528-2.70898 1.4573-1.3209 1.4405-1.29146.4629-2.78906-.9482-1.4525-.8967-1.5493.625-2.9668 1.5397-1.4343 1.5591-1.43895.5507-3.24805-.9438-1.6932-.951-1.6632.8926-3.3125 1.8356-1.5357 2.4604-1.73124.6289-3.93554-1.0203-1.7482-.2932-1.92022 1.3828-2.79102 2.9395-1.8024 1.6003-1.69073.3653-4.36523-1.0322-1.7931-.4414-1.80643 1.3574-2.70313.4462-.1927.9416-.41306 1.4492-.69726 1.2029-.6737.5508-1.29102.5508-1.29102zm3.8418.041 8.834.11328c-10.2393 13.1276-15.1668 29.91856-16.9356 47.63086l-3.3379-.0527c-.2089-13.8328 4.1263-31.11361 11.4395-47.69141zm10.0977.0879 4.3535.0781s.8167.98434 1.1856 1.33984c1.8787 2.1392 2.0416 1.71435-2.0977 4.06055-2.6141 1.4816-3.773 2.16816-3.9258 2.78906-.1168.6253 1.1413 1.86692 1.2891 2.70312 0 .094-3.553 2.48387-4.1973 2.82227-.8968.4366-.9425.81349-.053 2.36719 1.0238 1.7863.9405 1.72308-1.2695 3.27148-2.1556 1.5103-2.5786 1.36068-1.6602 2.86328 1.2754 2.0868.675 2.5574-2.3262 4.1836-.7578.4106-.7776.82354-.248 2.24804.7358 1.9795.9274 1.77967-.6231 2.85157-1.8311 1.266-2.1537 1.30087-1.748 2.07617 1.1791 2.2533 1.6477 2.80151.072 3.53711-1.2012.561-1.2264.87773-.5625 2.36523.6675 1.4953.8402 1.4363-.3457 2.2793-1.0987.7809-1.7456.60736-.6758 1.88476.8462 1.0103.7704 1.80734.082 2.42774-.5928.2521-.8681 1.3834-.6953 1.4082l-1.5273.041c-1.1954-1.6177.2147-2.54277.4277-2.70117.1943-.3726-.043-.63592-.5254-1.51172-.6639-1.2061-.6409-1.35134.3144-2.05664.9651-.7126.9947-.52737.3516-2.10157-.7483-1.8311-.7145-2.03977.4629-2.88867 1.1589-.8356 1.1742-1.02315.3867-2.62695-.8307-1.6916-.8302-1.69205 1.2285-3.06445 1.4482-.9655 1.468-.90737.7012-2.69727-.5297-1.2362-.1559-1.66513 1.8145-3.01953 1.1256-.7737 1.2115-.92606.6816-1.84766-1.4609-2.5408-1.4458-2.61776 1.0723-4.25586 2.0599-1.34 2.0424-1.45638 1.248-3.24218-.8605-1.9342-.9382-1.78478 1.8867-3.48438 2.326-1.3995 2.453-1.31725 1.4961-3.00195-1.1903-2.0955-1.1133-1.75258 3.5391-4.42188 1.6772-1.1535 3.1888-.75455 1.5195-2.71875-.7346-.942-1.6347-1.95703-1.6347-1.95703zm14.121.14258 21.1426.0762c5.0523 4.2699 8.7959 6.71619 11.459 7.67969 0 0-3.562 5.93565-3.8359 5.71875-20.4948-3.9639-44.8679 8.03334-50.3809 33.89844l-3.2285.0215c1.1925-10.1494 3.8528-18.62665 8.752-27.46875 4.8609-8.5854 9.3381-13.60298 16.0917-19.92578zm-96.2793 3.30469c.3225-.012.5734.3877.5567 1.125-.057 1.0388-.5461 2.06926-1.0156 3.10156-.9839 2.1033-1.964 3.65826-2.4805 3.66406-1.2161.014-1.1828-.25874.4336-3.43164.8266-1.4579 1.7018-4.33328 2.5058-4.45898zm8.6563 4.4707c2.1278.0424 4.3293.23949 6.2988.29297.022 4.4541-13.8909 6.69947-14.6133 4.45117 2.4252-1.9064 9.5963-1.06042 11.1153-2.76562-1.8319-.1063-4.3134.19606-6.0137.22656-2.1207.038-5.5453.94812-5.5801 1.32422-.2219-1.1722 3.6402-3.37157 6.7012-3.50977.6817-.0317 1.3825-.0337 2.0918-.0195zm7.4902 7.0918s-27.1286 22.53826-40.539 33.44336l.082 4.86132 42.918-35.27539zm-.088 1.11328 1.7344 2.11328-40.289 32.95508-.1446-3.45313zm100.6055 1.375c8.5566.036 17.7664 3.09035 26.7383 10.18945l-1.4492 1.55078c-39.3491-29.3948-75.5841 15.23708-55.6035 47.16406-.181.4115-1.5704 1.43165-1.5704 1.43165-17.0498-28.3779 3.933-60.45364 31.8848-60.33594zm5.084 3.75195c2.2336.017 6.3455 1.5557 8.082 3.6543 2.0216 2.4433 1.4336 3.53146-1.1347 1.22656-2.7605-2.0137-5.0406-2.4809-1.2071-.10352.8457.5245 1.6076 1.54861 1.6465 1.66211.14.4084-.5681-.019-3.7812-1.19531-1.9104-.6993-4.3316-2.591-4.961-3.8789-.4709-.9636.1854-1.37434 1.3555-1.36524zm-8.2813.0664c.6967-.01 1.3169.049 1.7579.17578 2.8146.8113 3.7011 1.23754 4.75 2.05664.7178.5605.4877.96417-.3457.60547-.9706-.418-4.0437-1.3361-4.5938-1.2793-.7994.082.0007.60829 1.1484.89649 2.544.6387 3.8079 1.29661 1.9922 1.32421-.9468.1411-5.0921.15408-6.2207.0215-1.8855-.2234-4.7088-1.94966-4.0586-2.56836.7015-.6676 3.4801-1.21542 5.5703-1.23242zm-8.0703 2.65625c3.3374.039 5.1418 1.29077 1.4942 1.54297-6.2708.9968-7.4746 2.36517-.5254.73437 1.617-.3795 1.5865.20586.4687.75586-.9142.4459-2.0548.66581-3.0058 1.12891-1.7142.7163-5.6418.87591-7.1739.29101-2.2607-.8631 4.8368-4.49922 8.7422-4.45312zm26.8516.57031c1.6861.044 5.2836 2.49703 6.8848 4.79883 1.0467 1.5046.5258 2.58485-1.0567 1.37695-.3165-.2415-2.5895-2.18116-2.7129-2.22656-.2126-.078 1.8847 1.92303 2.1914 2.48633.263.4773.8699 1.57115-.2617 1.59375-1.7683-.2189-5.9216-4.87608-5.9472-7.17578-.01-.6152.3402-.86802.9023-.85352zm-20.9219 1.30859c.7025-.023.3438.35193-.9902 1.29493-2.4069 1.7013-1.1523 1.3601 1.6601-.0937.8548-.4417 1.8877-.78642 2.25-.85352.3624-.067.7932-.1657.959-.2168.7561-.233.1715.70151-1.0586 1.69141-2.5883 2.0829-5.5113 3.7192-7.5293 4.2207-2.5718.6391-3.1168.72088-2.166-.89062 1.5107-2.5607 3.7111-4.60993 5.8125-5.00781.4726-.09.8282-.13694 1.0625-.14454zm8.6543.041c1.0713-.022 2.3944.2031 4.4805.6543 1.4665.4592 1.082.5572-.6758.75-3.3064.3628-1.9289.74976 1.2852.69336 4.3849-.033-2.1972 1.58665-4.3321 1.91015-1.6652.074-2.1549.015-5.7871-.66797-1.3841-.2603-.5535-1.27831 2.0684-2.53711 1.0718-.5146 1.8897-.78133 2.9609-.80273zm27.0996.5957.1192 2.83789-53.0918 44.57032-1.8047-2.00391zm-18.0644 2.43946c2.1171-.028 5.1763 1.44683 4.8476 2.33593-.1226.3317-.3585.31657-1.9746-.11523-1.0605-.2833-2.9615-.5814-2.709-.3457.087.081 1.5693.65072 2.1348.7871 1.8701.4513 4.1103 1.51128 3.6152 1.82618-.8667.5296-1.659.11552-2.6855.01-2.5671-.3578-6.7847-1.65879-7.4785-2.30859-.7871-.7374 1.972-2.15515 4.25-2.18555zm-24.7657.16601c.3819.02.5247.37734.1602.86524-.5534.7324-.8077 1.34629-1.3047 2.24609-1.7748 2.7519-2.8934 3.8413-4.5996 4.9082-1.7061 1.0668-1.9508.88346-1.8008-1.33594.1915-2.30448 1.8363-4.72693 4.1582-5.86523 1.0718-.1525 1.685-.43628.5606.91602-1.9951 2.3995-.628 2.15358 1.2344-.57032.592-.8658 1.2099-1.18426 1.5917-1.16406zm-6.8984.32031c1.1506-.01 1.5356.40326.061 1.09766-1.4041.6612-4.1971 2.62249-4.2656 2.83789-.116.3651.9293-.20826 2.666-1.16016 2.3217-1.2726 2.5268-1.24199 1.4043.21289-1.2694 1.6452-4.324 3.70606-6.7207 4.46876-3.3532.92188-3.2722.27594-1.3984-2.22266 1.7864-2.7162 3.3046-4.01065 5.5918-4.75195 1.0023-.3249 1.9697-.47893 2.6601-.48243zm-56.8691.41407c12.1664 21.0659 5.4121 42.47113-8.7032 53.38671-14.757 11.41191-37.7155 10.733118-51.2636-2.96289l1.8808-1.78125c-.01.01 21.3561 21.85469 48.2657 2.4629 13.6567-9.8414 19.2971-33.08201 8.0312-49.28321zm-54.502.0469c-.038.00066-.069.01-.092.0215-.4097.267-1.9532 4.81687-2.2637 6.70507-.091.5525.042 1.09361.4942 1.53711.3174.3116.8316.10986.9902.0469 1.0288-.4675 1.5964-1.18333 2.4961-3.45313.6037-1.2425.6859-2.72729.5664-3.24609-.048-.2101-.3809-.69992-.7988-.97852-.4618-.30796-1.113-.63357-1.3906-.63281zm.2403.94727c.4866 0 1.4482.79122 1.5664 1.35742.01.9876-.5541 2.63102-.9746 2.38672-.7029-.8766-1.5106-.32438-1.6446-.64258-.091-.9718.5311-2.24324.959-3.08984.028-.01.061-.0117.094-.0117zm131.4023.77929v.004c5.4099 0 10.7893 1.59247 14.7383 5.10547l-2.1074 1.9414c-9.264-6.63028-20.0498-4.68919-26.4414-.21679-6.3277 4.4276-11.9276 14.22735-6.4415 28.03125l-1.9804 1.80273c-6.1467-11.103-2.8489-25.77705 8.0293-32.71875 3.8356-2.4477 8.7499-3.84765 13.6777-3.93945.1745 0 .3508-.01.5254-.01zm-80.002 1.62891c.1642.0001.4133.53967.3868 1.20117-.032.7944-.3668 1.83128-.9024 2.05078-.6037.2474-.9844-1.55859-.9844-1.55859.3704-.5891.8759-1.18906 1.5-1.69336zm96.8614.62109c.2205-.011.4345-.001.6191.0215.6042.075.6092.61747.041 1.13867-.6135.5628-.9338.59167-1.5527.13867-.5525-.4043-.5813-.70082-.1035-1.04492.2499-.1596.6288-.23531.9961-.25391zm-103.9063.125 1.7949 2.22071-6.2187 5.02148-.7441.0586-47.6094 39.58399-.012-3.51563zm86.2031 1.12891c4.9248-.1491 9.7669 1.24777 13.2754 4.23047l-6.4843 5.37109c-12.9604-6.7602-23.3536 5.28622-19.6875 16.22852l-5.6075 4.88672c-7.209-19.8628 5.9183-30.3355 18.5039-30.7168zm-20.6757.01h.057c.043.01.087.041.1289.082.2268.2227-.2251 3.88806-.5625 4.56836-.1228.2475-.2184.56598-.2168.70898 0 .3006-1.1946 2.81406-2.1308 4.47266-.3529.6251-.7285 1.44562-.834 1.82812-.7515 3.628-2.373-2.20571-1.8008-5.59179.269-1.5916 2.5192-4.87787 3.1719-4.63477.3327.1239.3088.37478-.2735 1.64648-1.6248 3.5485-2.0317 5.37827-.3242 1.94727 1.9678-3.9548 2.4803-4.97134 2.7852-5.02734zm-110.1524.0723c.2407.014.4328.14769.5371.42969.072.2408.1491.74027.016.98437-.3324.7515-1.0206 1.24608-1.7168 1.20118-.306-.02-.6404-.2895-.6817-.6211-.037-.2999.035-.81026.4121-1.19726.496-.5091 1.0324-.81978 1.4336-.79688zm49.3653.22852c.768.038 1.5778 2.11059 1.0625 3.05859-.4216.7757-.5004.63176-1.2383-.86914-.388-.7892-.6856-1.63672-.6856-1.63672l.6289-.49609c.051-.028.1077-.0457.1602-.0527.025 0 .046-.01.07 0zm-1.295.875s.8086 1.46962 1.0059 2.64062c.1206.715.1.58156-.6816.28516-.6158-.3863-.7516-.61125-1.1348-1.09375-.252-.4466-.5039-.77539-.5039-.77539zm4.8575.31445c.4084-.014.8466.40056 1.248 1.41406 1.5071 3.8055 1.3693 8.0759-.3242 10.0918-.2805.334-.3488.34922-.6856.14062-.2751-.1704-.3032-1.97988-.037-2.49218.083-.1604.3329-1.25194.3516-1.86914.044-1.4616-.3556-1.64417-.5469-.28907-.2211 1.5661-.4614 2.66005-.8867 1.71875-.2137-.4783-.3223-.95564-.4844-1.46484-.8475-3.2902.1399-7.208 1.3653-7.25zm-6.5645.97461s1.4501 1.88013 2.0469 2.55273c.2108.3633.2037.45469-.1328.58399-.5741.2205-2.4951-1.06199-3.2559-1.45899-.4103-.3284-.2305-.58007-.2305-.58007.5244-.3966 1.0479-.78616 1.5723-1.09766zm57.1992.0664c.7739-.01.7719.26237-.055 1.45507-4.6129 6.6627-3.6818 5.6728-.7481 2.0293 1.6314-2.0261 1.9146-2.21922 2.0938-1.76562.1342.3395-1.8065 4.28223-2.8106 5.71093-.5187.7381-2.2893 1.97419-3.1855 2.42969-2.194 1.1152-1.9515.66634-1.1406-2.09766 1.0339-4.2883 3.6322-7.73701 5.8437-7.76171zm-59.9062 2.30468c12.6457 31.5717-21.9818 45.42953-37.6055 30.82813l1.8203-1.45508c21.7336 14.7997 43.1833-8.90969 33.3653-27.46289 0 0 .891-.74226 2.4199-1.91016zm2.9297.76563c2.0815.214 5.1555 4.03827 5.3105 6.16797.3288 1.5128-.097 1.77198-.8359.70898-1.2469-2.3126-1.0968-.84718-.035 1.44922.5636 1.1604.6933 2.5507.1074 2.625-.8008-.1629-2.5328-2.93658-3.0625-4.08008-1.2629-2.5056-1.3544-2.07967-2.0468-5.79297-.1297-.6959.052-1.07242.5625-1.07812zm-6.293 1.03711c9.6326 18.5464-11.0883 40.82938-32.1641 26.42578l6.3164-5.0332c11 5.2976 23.2729-1.2716 19.7578-16.5zm90.4277 2.12695c1.9887-.054 3.9548.36868 5.666 1.33008l-17.3769 14.53711c-2.7937-9.4135 4.6084-15.67459 11.7109-15.86719zm-26.6113 1.29883c.5678-.1187 1.0489 3.53094 1.1542 8.65234.103 5.0099.2305 5.50641-1.3203 3.66211-.6502-.7516-1.4495-1.47023-1.8047-2.14453-1.0301-1.9553-.7026-4.00323-.4179-6.86523.2657-2.6702 1.2172-2.25382 1.0625.54296-.1 1.7996-.08 4.03641.2012 4.03321.1021 0 .1299-.17287.064-.41797-.1342-.512.4797-6.31219.7324-6.99609.1091-.2951.2209-.4449.3262-.4668zm-47.8867 2.20703c1.2552.4932 1.6134 4.69864.2539 8.76562-.5842 1.7474-1.4817 2.88916-2.8203 3.59376-.9553.50278-1.1789.34349-.7481-.53321.7928-1.4288 1.2161-2.9103 1.5371-4.7539.1284-1.7995-.8177-.35474-.7382.41406-.7408 3.3564-1.7137 3.86167-1.5879.32617.093-2.6056.4319-3.72297 1.6543-5.51367.6148-.8967 1.2719-2.13093 2.4492-2.29883zm43.584.42383c.5164 0 .6421.70104.1797 2.05664-.3207.9394-1.4113 3.9814-1.2833 3.9707.08-.01 1.2515-2.74285 1.4903-3.18945.3922-.7331.5365-.87294.8808-.83984.3359 1.35118-.01 3.0387-.1738 4.4375-.7099 3.64588-3.1832 7.41171-4.1308 6.29101-1.5439-1.826-.8214-9.22095 1.2265-11.46875.7713-.8465 1.4091-1.26141 1.8106-1.25781zm-66.1817.55859c1.8663 12.8972-8.7335 18.40367-17.8906 14.51367.1939-.049 17.8906-14.51367 17.8906-14.51367zm43.3301.23828 1.8457 2.4336 3.3828.17773-1.7324 2.5625 1.7226 3.2832-3.7753.0723-2.17 2.50586-1.8886-2.26367-3.3008-.17578 1.9238-3.08008-1.5508-2.94727 3.5625-.16992zm-28.3906 1.10938c.4243.015 2.5115 2.76835 2.7187 3.78515.6302 2.4618.398 7.11899-.4844 6.95899-.9569-3.3545-.5863-5.08833-.9296-4.70313-.5946.6171.3694 5.76035.053 7.02735-.1513.323-.6636-.067-1.2383-.89649-1.5347-2.2159-1.3279-10.88401-.1543-12.16211.01-.01.022-.01.035-.01zm112.9765 5.22461-41.75 34.72656 2.4082 3.111328 39.418-32.673828zm-60.3007.59961c.1825-.037.5996.25724 1.3828 1.11914 1.3665 1.8523 2.8146 4.39671 3.3418 6.35351.2002.7612.5218 1.76834.7168 2.24024.2929.7085.3154.90504.1425 1.11914-.7231.8948-3.7467-1.35833-4.7226-3.51563-1.3706-3.0301-1.4062-5.76066-.031-3.10156.4999.9673 1.1195 2.37786 1.1133 1.81836 0-.1595-.6082-2.19146-1.0722-3.09766-.2881-.5697-1.3377-2.83994-.8711-2.93554zm59.8574.84375.088 2.875-38.8848 32.650388-1.5254-1.865238s36.6244-30.58315 40.3223-33.66015zm-60.709 1.77734c.1827.019.2776.27948.2227.86328-.1782 1.8979-.6439 6.03043-.5469 6.39453.058.2191.6147-2.73632.7422-3.26172.6641-2.7387 1.6805 3.80889 1.0683 6.74219-.096.4612-.2917 1.20531-.3926 1.66211s-.4259 1.23676-.5566 1.44336c-1.1017 1.7395-3.6898-5.18459-3.2539-8.71289.2713-2.1971 2.0638-5.19686 2.7168-5.13086zm-44.9844 1.51563c.5086-.027.6055.47374.5195 1.52734-.294 3.6123-2.686 7.40536-5.3066 8.41406-2.6099 1.0045-2.8524.80234-1.3047-1.07226 1.1733-1.4212 1.8849-2.91227 1.6875-3.10547-.1091-.1069-.37.48889-1.3203 1.71289-1.1915 1.5347-1.3883.23507-.3047-2.01953.9358-1.9472 1.8097-2.96505 3.5684-4.15625 1.2409-.8405 2.0119-1.27668 2.4609-1.30078zm23.6445 1.09765c-.5259 15.5546-4.3881 32.453733-11.8457 47.144533l-6.9667.01563c8.5309-12.6168 13.9765-28.238003 15.4921-47.091803zm3.0626.0156s1.0458 1.08816 1.4707 1.82226c.4685.8096.6 1.51705-.252 2.12305-.9889.8394-1.4017.52707.2109 2.60937.8497 1.0972.5729 1.27718-.4804 2.20118-1.0873.9539-1.1491 1.00592-.1387 2.29492 1.0811 1.3792 1.2755 1.5892-.1348 2.6543-1.2705.95938-1.2852 1.18659-.2929 2.74609.914 1.4363 1.1905 1.4205-.5625 2.9082-1.4975 1.2707-1.5345.91981-.09 3.25781.5315.8601.4977.91605-.4765 1.78125-2.3935 2.1261-2.2717 1.99334-1.9317 2.55274 2.6234 3.774 1.4395 3.6652-1.1269 5.466796-.5177.4448-.3847.946131.7734 2.832031.9843 1.6031.8411 1.950869-1.4648 3.542969-2.401 1.6579-2.4796 1.881165-1.2793 3.572265 1.1826 1.6659 1.2093 1.551585-.711 3.271485-.8669.7763-1.5781 1.492187-1.5781 1.492187h-4.2559s.8992-.823997 1.5118-1.279297c3.4939-2.5965 3.4794-2.321159 2.0058-4.193359-1.3042-1.6567-1.1776-1.767444.1445-2.714844.9505-.6817 2.2325-1.382778 3.1934-2.080078.5177-.3696.1315-.677953-.7305-2.314453-.9659-1.8343-1.0177-1.622722.7793-3.107422 1.9675-1.6253 2.0002-1.5658.9336-3.625-1.0696-2.0653-1.0849-1.88539.2657-2.99219 2.0079-1.6457 2.1035-1.55629 1.0468-3.46289-.8429-1.5207-.8513-1.47895.5723-2.90625 1.4354-1.4392 1.2559-1.34821.4062-2.66601-.8635-1.3395-.8178-1.52011.3204-2.53711 1.2262-1.0958 1.0505-1.02834.033-2.42774-1.0019-1.3792-.9862-1.2763.2324-2.3457.6406-.5623 1.2848-1.13424 1.248-1.39844-.094-.6811-.7411-1.64782-1.3652-2.57812-.238-.3548.2381-.46322 1-1.25782.775-.8083.7398-.60543.1543-1.67773-.3168-.5802-.918-1.55859-.918-1.55859zm-11.4063.0371 1.2128.0312s.2086.27595.4903.56445c.7786.7974.8118 1.26556.029 1.69336-.7503.4105-.4634.98527.164 1.91015.6656.9813.6606.86794-.2929 1.83204-.9848.8038-1.494 1.03113-.4082 2.55273.6171.7055.5402 1.43431-.418 2.06641-.7366.4859-1.9593.88878-.6699 2.73828.6292 1.3182.6785 1.23422-.6348 2.16992-1.7475 1.2452-2.0755 1.02985-1.2734 2.84375.8925 2.018.9801 2.04709-.8516 3.40039-2.1287 1.5727-2.2007 1.7009-1.3144 3.58398.894 1.8993.9167 1.41644-1.336 3.17774-1.6503 1.2901-2.026 1.36259-1.5371 2.42969.9158 1.999094 1.3054 2.5343-1.3652 3.9082-3.0837 1.5866-3.2406 1.704253-1.7598 4.064453 1.2042 1.9196.9379 1.647875-1.0508 2.796875-2.875 1.661-4.145 2.383038-4.2343 2.898438-.059.5834 2.2421 2.320312 2.2421 2.320312l-4.0117.109375s-1.6873-1.376125-2.3418-2.015625c-1.8148-1.7735-1.8332-1.191659 4.1992-4.130859 3.3292-1.6221 3.0494-1.254972 2.5059-2.201172-1.6051-2.7949-1.6606-3.084922 1.3516-4.607422 2.6172-1.3227 2.1674-1.418073 1.5312-3.417965-.5545-1.7428-.467-1.58208.9121-2.60938 3.3339-2.4831 3.2432-2.22606 2.7227-3.44336-.512-1.1977-.904-1.7556-.5196-2.3457 1.2016-1.7299 3.7575-2.09605 2.7129-4.15625-.4876-1.3288-.6626-1.62629.8086-2.77539 1.3268-1.1088 1.3339-.97526.4844-2.43946-1.0344-1.34368-.8855-1.56424.6289-2.61914 1.0793-.9907 1.0648-.96494.459-1.93164-.8352-1.3326-.7935-1.37452.3984-2.42382.9709-.8546 1.1387-.90135.5196-1.84375-.8213-1.2504-.6839-1.52528.3984-2.13868.6637-.3762.6603-.52856.6035-1.16406-.011-.1222-.3574-.82812-.3574-.82812zm15.0527.0723 5.586.0156c1.7839 10.3975 4.8984 14.66483 6.6992 17.95703-7.0618 11.3825-5.4559 20.83507-1.1445 29.20117l-17.6895-.06445c4.535-15.5763 6.8725-31.24843 6.5488-47.10743zm-38.3379.041c.2052-.015.3509.31931.6973.91211 1.1191 1.9152.3272 4.63126-1.3105 7.47656-1.2252 2.1289-1.4472.5032-.8868-2.5625.3533-1.933-.6172.96197-1.0781 3.29687-.25 1.2659-.855 2.28747-1.5117 2.22657-.6184-.1008-.4261-1.87438-.4063-2.26758.1403-2.7947 1.1767-4.77403 3.1915-7.54883.7631-1.051 1.0719-1.5164 1.3046-1.5332zm57.0176 5.46875c.2654-.012.6365.0979 1.0938.36133.356.2049.9944.59484 1.4375.83984 1.5491.8563 1.6753 1.11576.9394 1.97656-.9105 1.0647-1.4934.65892-3.0683-1.11328-1.0625-1.1957-1.0807-2.03345-.4024-2.06445zm-.5156 2.33984c.2501.01.7649.27572 1.2676.85352 1.0203 1.1722.8988 2.16396-.2305 1.88086-.4612-.6768-.7001-1.70851-1.1406-2.47071-.1002-.1731-.047-.26737.1035-.26367zm49.8867.15039c-.9892.002-2.6421 1.31193-2.957 2.64453-.9611 4.0676-.9602 3.89198-.1 4.48438.2529.1738.4418.3017.5664.3789.5053.4 1.1944 1.01764 1.2851.89454.821 0 2.0667-5.2056 2.0254-6.2793.052-1.134.093-1.27191-.1894-1.78711-.1279-.23341-.3528-.33592-.6289-.33594zm-50.6445.0879c.066-.013.147.023.2461.10352.6482.6474.9096 1.80526 1.2383 2.63476 0 .1799-.072.47495-.1641.65235-.5601 1.0793-1.4317.032-1.5215-1.82813-.05-1.046.0001-1.5246.2012-1.5625zm50.4922.80274h.125c.6641.03.5604.71895-.3614 1.71875-.4848.5258-1.486.77352-1.8164.44922-.4806-.4719.5121-1.76718 1.5938-2.08008.176-.051.3285-.0799.459-.0879zm-112.1817.56836h.1075c.3472.022.639.17921.8671.44531.4424.5491.2564 1.39822.047 2.10742-.5246 1.859-3.9953 5.45866-5.2402 5.47266-.741-.1298 2.3579-4.08275 2.4551-4.74805-.2307-.2265-2.1508 2.00008-3.0528 3.54688-.4085.70038-.8726 1.56494-1.1191 1.71484-.6471.075-1.3942.48726-1.3985.0508.107-1.975 3.9592-6.27876 5.2715-7.47656.8053-.7613 1.502-1.10308 2.0625-1.11328zm9.2871.1875c2.9755-.033-2.8815 6.50311-6.6718 7.44531-1.1805.2933-3.3583.3711-3.5137.125-.1551-.2463.02-.44787.5059-.57617.7822-.2065 4.6555-2.67921 4.6523-2.97071 0-.3662-1.6042.24121-2.9707 1.12891-.8849.5748-1.3009.45572-.8203-.23828 2.2252-3.2123 5.2019-4.87356 8.8183-4.91406zm51.5039.01c.169.014.3379.35142.4434 1.10352.5408 1.4008.5653 1.78331.057 2.19531-.8727.7051-1.086.50772-1.0761-1.11328.01-1.3356.2945-2.20875.5761-2.18555zm-98.0195 1.85938s1.0841.40748.6328.92578c-.3135.3601-1.6492.0542-1.6504-.0508zm149.4785.041c.3542-.023.3615.30577.1739 1.13477-.098.4352-.5259 2.72377-1.2832 3.35937-.092.061-1.1915-.59709-1.4903-.90039-.137-.1405-.5678-.46233-.625-.67383-.1872-.6918.014-1.59056.5371-2.03906.2043-.1753.6153-.27299.836-.27539.1735 0 .6846-.17095 1.1386-.37305.3176-.1415.5519-.22192.7129-.23242zm-149.0976 1.58008c.7146-.01 1.5918.072 2.3359.32617 2.1942.6404 6.2188 2.44907 6.8379 3.04297.9015.865-1.4504 1.78676-4.2793 1.81836-1.5001.017-1.7826-.29627-3.8574-1.54297-.2664-.1761-1.476-.97327-1.125-1.26367.3845-.3948 1.5431.11361 2.9863.84961.4707.2398 1.6155.17146 1.6133-.041 0-.2502-2.8837-1.32692-5.043-2.01562-1.4178-.4521-1.3846-.90706-.5156-1.10156.249-.038.6183-.0673 1.0469-.0703zm-2.836.98828s.5968.53108 1.3711 1.11328c.8406.632 1.8167 1.41182 2.4961 2.44922.9825 1.2028 2.5347 4.19443 2.3614 4.73633-.3974 1.2425-4.5442-.93725-7.9356-4.34375-1.1024-1.1073-1.748-1.93164-1.748-1.93164l1.2929-1.17383s1.1383.95399 2.4512 2.11719c2.4627 2.1818 2.4453 1.43186-.031-.86524-.7007-.6498-1.3457-1.23242-1.3457-1.23242.033-.4167.4248-.78394 1.0879-.86914zm101.3204.10352s1.3248 1.37867 1.8164 2.01367c-8.0713 7.9217-11.1537 18.990443-3.3633 30.777343l-3.7383-.01563c-7.0029-13.8364-3.6832-24.253593 5.2852-32.775393zm-68.2637.32617c.5019-.023.045.5702-.8457 2.0918-1.6628 2.8413-1.9931 3.55762-4.6934 4.26562-.6954.1804-1.686.0369-2.0937.0879-1.1613.146-.6445-.0001 1.1347-1.1582 2.4655-1.6053.3715-.77996-1.9082.39844-1.3204.6824-2.7054.64832-2.8261.29492-.067-.1948.5355-.70814.9238-1.05664 3.4716-3.1164 4.5356-2.98553 7.7656-4.11133 1.4096-.4915 2.1997-.7967 2.543-.8125zm-14.5117 2.83398v.004c1.2566.01 2.4287.13544 3.4707.36914.6902.1563 1.8126.2944.8652 1.1543-1.0731 1.0136-3.9702 2.39753-6.1152 2.49023-.3012.011-4.718-.3027-3.7754-1.2539.1883-.1054.7878-.078 1.3047-.17579 2.4466-.4648 1.7853-.86061-1.2266-.69921-3.7722.2021-3.9461-.18866-1.0898-.97266 2.089-.5734 4.1418-.86815 6.0234-.90625.183 0 .3634-.01.543-.01zm20.1543.29883c1.6789-.017 2.983.28328 2.9902.92578.012 1.042-3.1691 3.32885-5.2559 3.78125-.4914.1065-1.1884.2597-1.5508.3418-.7278.1648-4.7595.024-5.1523-.11914-1.8879-.6883-.5758-.95998 2.8867-1.36328 1.5069-.1757 2.2259-.57198 2.2227-.85938 0-.1396-1.1115-.1782-2.7637.0312-1.846.2345-1.4838-.31016.8145-1.50586 1.5183-.7898 3.9057-1.21362 5.8086-1.23242zm-31.0723 1.44336c.2349.01.8008.2017 1.7422.5957 2.0102.5874 4.773 1.25172 6.664 3.32422 1.527 1.4848 1.8992 1.96433 1.5782 2.48633-.3888.6324-5.1289.15062-7.1231-.70508-1.3174-.5653-2.8863-1.77727-3.6035-2.82617-1.7375-2.541-1.007-3.21155 1.2012-1.43555 2.6611 2.1402 3.0552 2.36128 3.5273 2.26368.1899-.039-.2777-.47914-1.1699-1.14454-2.2411-1.67138-3.3331-2.57159-2.8164-2.55859zm16.3945 2.73047c2.2287 0 2.7095.16946 4.8731 1.16406 2.7078.9581 2.0513 1.81097-2.7539 3.01367-2.4063.5669-4.8284.16989-6.586-.91601-3.873-2.3927-3.6168-2.87204.7071-1.80274 1.421.3514 2.8363.41728 2.9238.1504.067-.2045-1.651-.64313-3.0469-1.10743-1.512-.5027-.2124-.46038 2.8106-.49218.4 0 .7538-.01 1.0722-.01zm111.4414 10.335938s-.4945.234968-.7129.355468c-.1726.095-1.512.263747-2.9765.373047-4.9311.2833-8.7434 1.477494-10.9942 5.746094 1.977-.1346 13.1665 1.897209 16.2715-2.150391.6501-.8474-1.6697 6.39725-2.8594 6.71875-2.9492-.3556-4.1899 4.28985-3.8945 4.09375-2.9747 1.1573-5.2816 1.836435-4.5254 5.302735.3298 1.5116 1.8569 3.306668 5.0899 2.855468-.8805 6.0106 6.4446 7.565813 7.2519.320313 0 0 1.4286-.272591 1.9785-.337891 3.3403-.7945 4.1507-5.6955-.7519-7.25-1.3602-.4045-1.4375-.660156-1.4375-.660156.2536-1.1057.1931-2.265589-.6035-3.554687 1.0814-2.5873 3.7734-7.578126 3.7734-7.578126zm-.4082 1.324218c.473 0 .8194.04192.9258.169922.674.9039-2.841 2.40151-6.584 2.72461-.8395.072-2.6868.242371-2.7344.326171-.4032.7086 7.2387.193669 9.6192-1.144531.8154-.4583.8892-.05601.5351.650391-2.7636 3.5674-9.4346 2.689-14.6503 2.0625-.2976-.3006-.043-.669394 1.125-1.621094 2.1432-1.7456 3.6865-2.329334 7.0703-2.677734.7083-.023 3.2743-.479335 4.6933-.490235zm3.7696 2.804688c.7649-.059 1.3276.50634 1.289 1.05664-.4805 1.5345-2.9922 6.21875-2.9922 6.21875-.3083.3096-1.4071.527197-1.3242-.658203.013-1.2725 2.387-6.516187 3.0274-6.617187zm4.6308.171875c-.8212.061-1.7385.590287-1.75 1.242187.7355 5.3746 4.7975 6.653658 8.6953 8.347656 1.0259.4722 1.8974 1.311116 2.9258 1.853516 1.9263-2.6376-.245-7.760687-3.6367-9.429687-2.5196-1.1805-4.8152-2.119572-6.2344-2.013672zm.334.921875c4.1593-.1409 9.4683 3.29627 9.8301 7.542968.026.1356.2015 2.733324-.3906 2.640626-.8949-.2585-1.3772-1.162926-2.8125-1.765626-2.9828-1.424198-7.0213-2.686087-7.9258-6.554687-.1539-1.0875.2085-1.197811 1.1191-.320313 2.0388 1.6284 4.0488 2.184313 6.0645 3.757813.56.4371 2.5699 1.556961 1.1972.164063-.9298-.9435-3.6673-2.589416-5.1211-3.291016-2.0211-.9753-3.1206-2.160728-1.9609-2.173828zm-152.8008 5.300781c-.6356.0008-1.2897.0225-1.9629.0625l23.0371 36.15625c-5.6698 3.0026-8.466 4.317825-17.8808 3.578125l.035.476562-4-.234374c6.9099 10.829098 15.4371 24.956062 13.0176 49.601562l28.2266-.029297c.5396.771.6444.5641848 1.3203-.041016l12.6816-.068359.3418.4121094 5.9004-.041016s-26.9861-50.7064134-40.541-75.8828134c-5.2207-9.4682-10.6429-14.000581-20.1758-13.988281zm143.3028 1.259766c1.5127-.037 3.0169 1.005503 3.0273 3.033203.01 1.0563-.8828 2.529297-.8828 2.529297l-2.0567-1.966797-1.9648 1.974609c-.9674-.8032-1.5396-2.331372-1.2227-3.201172.6047-1.4866 1.9231-2.33994 3.0997-2.36914zm-23.8262.724609c1.9495 7.628255 4.0516 18.147179-12.8516 42.451172-10.0002 14.3783-13.2726 27.943447-13.6719 44.49804675l-1.0097.0117188c.4775-9.08520005.5409-25.55859355.541-25.55859355l.9434-.84375s-.4302-.699385-.6192-1.521485c-.3187-1.3854-.05-.923631.7735-4.644531 3.4561-17.9698 25.8945-54.392578 25.8945-54.392578zm-90.2813 3.494141 85.6856.394531-1.1387 2.257812-82.916-.595703zm114.2149.652343 3.1816 3.111328-3.1094 3.50586-3.2753-3.4375zm-5.3907.09766c.927-.018 1.9274.359062 2.7813 1.226562l-1.7363 1.853516 1.5058 1.589843c-1.5491 3.2644-5.673.716438-5.5351-1.726562.1009-1.7863 1.4397-2.913559 2.9843-2.943359zm10.3965.296875c1.5618-.022 2.7552 1.487959 2.9161 2.943359.2492 2.2561-3.2562 4.803222-5.0333 1.669922l1.3829-1.763672-1.5625-1.720703c.7996-.7927 1.5869-1.118806 2.2968-1.128906zm-4.9843 1.304687-1.5489 1.550781 1.5489 1.548828 1.5488-1.548828zm-98.6153 1.150391 7.0196.06641-2.6094 4.902344-7.1172-.0293zm15.6367.03711h6.4473l-2.7246 4.96875h-6.5234zm15.2247 0h6.8378l-2.7753 4.96875h-7.0235zm15.3046 0h7l-2.5488 4.96875h-7.2617zm15.5899 0h6.7461l-2.7324 4.96875h-6.9415zm-74.4883.02344h4.5332l-1.8516 3.273437zm109.4805 3.027343 1.9472 1.78711 1.6036-1.677735c2.5943 2.0911.7928 5.526691-1.9102 5.587891-1.8616.042-4.5645-3.120466-1.6406-5.697266zm-91.8028 2.751954h6.5918l-2.4804 4.472656h-6.4571zm14.6524.03516h7.2304l-2.5488 4.474609h-6.8789zm15.4804 0h7.1954l-2.3457 4.474609h-7.2676zm15.4258 0h7.1368l-2.2227 4.474609h-7.5449zm-58.8632.171875h4.5488l-1.9395 3.582031zm3.4296 5.1875 66.7891.595703-1.1348 2.173828-63.957.01172zm2.3457 3.894531 62.5879.154297-1.4394 3.007812-21.6231-.09766c-4.2197-3.1622-9.0417-1.701648-14.5429.09766 0 0-16.5535.1734-23.0625 0zm-20.8125 12.746094 33.0098 52.31054662-7.2969-.0820312-31.3457-49.20898442zm-6.6171 3.408203 31.164 48.89062488c-1.4302-.033-2.7572.0552031-4.1875.0332031.5793-9.13099998-6.7387-13.41335898-11.039-13.63085898 2.5795-10.6782-5.175-15.171332-10.3477-16.019532 2.0975-13.8777-9.3452-15.844678-9.5117-15.705078.056-1.1392-.1581-1.959956-.3106-2.910156 1.3787-.059 2.7714-.187203 4.2325-.658203zm-5.0489.773437c-.067.2937.587 3.060382-.6445 2.550782l-.088-2.544922zm-8.0097.01563 1.4492.05859c.445 1.8385 1.3861 2.202347 2.664 3.435547 0 0-1.6347.279776-2.0136.01758-.6795-.4717-2.0996-3.511719-2.0996-3.511719zm6.3222 3.166016c.79 0 1.4297.646153 1.4297 1.439453 0 .7932-.6397 1.433594-1.4297 1.433594-.7901 0-1.4277-.640394-1.4277-1.433594 0-.7933.6376-1.439453 1.4277-1.439453zm2.8321 1.105469c4.0989-.2693 10.044 4.143897 8.4765 12.404297-.2728-.5768-.5945-1.845394-1.2597-2.746094-2.8259-3.8262-6.1547 1.416741-3.9122 3.556641 1.0993 1.048998 1.6146 1.463393 1.4961 1.558593-2.5265-.4814-4.4401 1.764813-3.3886 4.257813 1.7527 3.2266 4.1884 1.517415 5.5976-.396485 0 0 .8677 2.886707 1.7305 3.253907 1.3209.562 3.143-.149654 3.7637-1.751954.9233-2.383398-1.3227-2.993412-1.8164-4.320312 4.7419.155 10.7837 7.111984 8.0351 13.146484.3604-1.3757-1.1079-4.456209-3.9629-3.662109-1.4268.5002-1.9241 2.586722-.7734 4.732422.3683.6867.5664.943359.5664.943359s-1.2344.162782-1.5586.363282c-3.7045 2.290299 1.0713 8.538612 3.8281 4.632812.2812-.4643.7422-.9941406.7422-.9941406.4552.8699.5953 2.093872 1.4258 2.5136718 3.4134 1.725 4.9342-1.9162718 3.5-3.7011718-.8077-1.0053004-1.7188-2.1660154-1.7188-2.1660154-.1422-.6426 10.2298 2.0883498 8.9668 12.21874975l-27.498-.0371094c2.5489-15.56210035-3.6216-33.36521535-6.7715-38.79101535l1.3633-1.808594c.342.6723.9106 2.367106 1.914 2.691406 3.1898 1.0308 4.1618-1.210919 3.7344-3.511719-.2276-1.225098-1.9376-2.207865-2.4804-2.384765zm7.2812 14.644531c.7499 0 1.3574.614289 1.3574 1.367187 0 .7529-.6075 1.363282-1.3574 1.363282s-1.3612-.610382-1.3613-1.363282c0-.752898.6114-1.367187 1.3613-1.367187zm10.3203 16.212891c.7575 0 1.3711.616353 1.3711 1.376953 0 .7604994-.6136 1.3769529-1.3711 1.3769529s-1.3711-.6164535-1.3711-1.3769529c0-.7606.6136-1.376953 1.3711-1.376953z"/></g></g><path d="m3532.6649-810.14621c9.7744-.21232 14.1574-11.21731 6.9183-19.76328-1.0498-1.2465-1.1582-1.96191.7646-.76455 4.8739 3.25924 14.2193 1.11662 14.6978-8.84731.5912-12.2769-16.5628-15.81425-19.7837-2.75964-.17 1.37738-1.2894 1.34598-1.0195-.60915.2937-5.30637 1.9508-10.26606 4.2286-15.10254-3.8391 0-8.1295 0-11.6202 0 2.2777 4.83648 3.935 9.79617 4.2287 15.10254.2699 1.95513-.8495 1.98653-1.0196.60915-3.2208-13.05461-20.3748-9.51726-19.7837 2.75964.4785 9.96393 9.824 12.10655 14.6978 8.84731 1.9228-1.19736 1.8145-.48195.7646.76455-7.2391 8.54597-2.8561 19.55096 6.9183 19.76328 0 0 0-.0001.01 0z"/><path d="m3429.5941-1055.7792c9.7744.2122 14.1574 11.2172 6.9183 19.7633-1.0498 1.2465-1.1582 1.9618.7646.7644 4.8739-3.2591 14.2193-1.1166 14.6978 8.8473.5912 12.277-16.5628 15.8143-19.7837 2.7597-.17-1.3773-1.2894-1.3459-1.0195.6092.2937 5.3064 1.9508 10.2661 4.2286 15.1024-3.8391 0-8.1295 0-11.6202 0 2.2777-4.8363 3.935-9.796 4.2287-15.1024.2699-1.9551-.8495-1.9865-1.0196-.6092-3.2208 13.0546-20.3748 9.5173-19.7837-2.7597.4785-9.9639 9.824-12.1064 14.6978-8.8473 1.9228 1.1974 1.8145.4821.7646-.7644-7.2391-8.5461-2.8561-19.5511 6.9183-19.7633 0-.0001 0 0 .01 0z"/></g></svg>