<svg height="88.000015mm" viewBox="0 0 238.11081 332.59849" width="63.000149mm" xmlns="http://www.w3.org/2000/svg"><g transform="matrix(1.07145 0 0 1.07009 -779.7574 1164.652717)"><rect fill="#fff" height="311.81104" rx="10.677567" ry="10.664032" transform="matrix(.995538 0 0 .996801 468.488 -1457.46)" width="223.22835" x="260.43304" y="370.27557"/><path d="m838.87056-1055.3647c-9.77449.2122-14.15744 11.2173-6.91839 19.7633 1.04989 1.2465 1.15822 1.9619-.76458.7645-4.87384-3.2592-14.21924-1.1166-14.69781 8.8473-.59114 12.2769 16.56286 15.8143 19.78372 2.7597.17004-1.3774 1.28941-1.346 1.01952.6091-.29368 5.3064-1.95085 10.2661-4.22863 15.1025h11.6202c-2.27768-4.8364-3.93495-9.7961-4.22864-15.1025-.2699-1.9551.84949-1.9865 1.01953-.6091 3.22086 13.0546 20.37487 9.5172 19.78372-2.7597-.47846-9.9639-9.82396-12.1065-14.69781-8.8473-1.92279 1.1974-1.81448.482-.76458-.7645 7.23906-8.546 2.8561-19.551-6.9183-19.7633 0-.0001 0 0-.01 0z"/><path d="m838.87056-809.73166c-9.77448-.21226-14.15744-11.21726-6.91838-19.76328 1.0499-1.24653 1.15822-1.96187-.76458-.76453-4.87385 3.2592-14.21926 1.11663-14.69782-8.84728-.59115-12.27694 16.56287-15.81426 19.78373-2.75966.17004 1.37736 1.28941 1.34593 1.01952-.60917-.29368-5.30641-1.95084-10.26605-4.22863-15.10252h11.6202c-2.27768 4.83647-3.93495 9.79611-4.22864 15.10252-.26989 1.9551.84949 1.98653 1.01953.60917 3.22086-13.0546 20.37487-9.51728 19.78372 2.75966-.47846 9.96391-9.82396 12.10648-14.69781 8.84728-1.92279-1.19734-1.81447-.482-.76458.76453 7.23906 8.54602 2.8561 19.55101-6.91829 19.76328 0 .00006 0-.00005-.01 0z"/><path d="m932.85252-827.36914c3.90977-.0884 5.66301-4.67386 2.76739-8.2347-.42002-.51939-.46332-.81745.30583-.31855 1.94956 1.358 5.68771.46525 5.87915-3.68638.23644-5.11539-6.6252-6.58927-7.91353-1.14986-.0677.57391-.51579.56082-.40777-.25381.11747-2.21101.7803-4.27752 1.69142-6.29272-1.54926 0-3.09862 0-4.64787 0 .91112 2.0152 1.57394 4.08171 1.69142 6.29272.10801.81463-.33978.82772-.40777.25381-1.28833-5.43941-8.14997-3.96553-7.91353 1.14986.19144 4.15163 3.92958 5.04438 5.87914 3.68638.76916-.4989.72585-.20084.30583.31855-2.89562 3.56084-1.14238 8.14624 2.7673 8.2347.00099.00002 0-.00002 0 0z"/><path d="m744.89758-1038.5561c-3.90978.088-5.66302 4.6739-2.7674 8.2347.42002.5194.46333.8175-.30583.3186-1.94956-1.358-5.68769-.4653-5.87913 3.6863-.23644 5.1154 6.62519 6.5893 7.91352 1.1499.0677-.5739.51578-.5608.40777.2538-.11748 2.211-.7803 4.2775-1.69142 6.2927h4.64787c-.91112-2.0152-1.57395-4.0817-1.69142-6.2927-.10802-.8146.33977-.8277.40777-.2538 1.28833 5.4394 8.14997 3.9655 7.91353-1.1499-.19144-4.1516-3.92959-5.0443-5.87915-3.6863-.76915.4989-.72585.2008-.30583-.3186 2.89562-3.5608 1.14238-8.1462-2.76729-8.2347-.001 0 0 0 0 0z"/><path d="m735.04977-1041.7521.16008-2.0284c.50554-6.2682 1.85071-8.3828 9.48051-14.9264 3.70419-3.1719 4.91885-4.737 5.08909-6.5527.48512-4.2827-3.29971-5.6194-5.76486-5.639-3.19478-.029-6.80938 1.9175-5.08402 6.4418l-3.58513 1.0743c-.72057-4.2202.0209-8.1792 3.37528-9.9361 4.47982-2.2909 10.22417-1.3928 13.12457 2.2164 1.94936 2.4214 2.39476 5.7721 1.34905 8.3945-3.0552 6.6989-13.41895 9.6463-14.27402 17.3973h11.45426v-4.3153h3.37527v7.9441l-18.70008-.07z"/><path d="m942.19967-824.17315-.16008 2.02849c-.50554 6.26809-1.85071 8.3827-9.48051 14.92631-3.7042 3.17192-4.91885 4.737-5.08909 6.55277-.48512 4.28276 3.29971 5.61937 5.76486 5.639 3.19478.0289 6.80938-1.91754 5.08401-6.44182l3.58513-1.07426c.72058 4.22006-.0209 8.17916-3.37527 9.93612-4.47982 2.29085-10.22417 1.39273-13.12457-2.21649-1.94936-2.42133-2.39476-5.77208-1.34905-8.39446 3.0552-6.69891 13.41895-9.64635 14.27402-17.39738h-11.45426v4.31546h-3.37527v-7.94421l18.70008.0708z"/></g></svg>