<svg height="88.000046mm" viewBox="0 0 238.11073 332.5986" width="63.00013mm" xmlns="http://www.w3.org/2000/svg"><g transform="matrix(1.07145 0 0 1.07009 -3893.9004 1164.653326)"><rect fill="#fff" height="310.81366" rx="10.62995" ry="10.629899" width="222.23224" x="3634.2344" y="-1088.3695"/><path d="m3839.3284-827.36919c3.9098-.0884 5.6631-4.67386 2.7674-8.23469-.42-.5194-.4633-.81746.3059-.31856 1.9495 1.358 5.6877.46525 5.8791-3.68637.2365-5.1154-6.6252-6.58928-7.9135-1.14986-.068.57391-.5158.56081-.4078-.25382.1175-2.211.7803-4.27752 1.6914-6.29272-1.5492 0-3.0986 0-4.6478 0 .9111 2.0152 1.5739 4.08172 1.6914 6.29272.108.81463-.3398.82773-.4078.25382-1.2883-5.43942-8.15-3.96554-7.9135 1.14986.1914 4.15162 3.9296 5.04437 5.8791 3.68637.7692-.4989.7259-.20084.3059.31856-2.8957 3.56083-1.1424 8.14624 2.7673 8.23469.0009.00002 0-.00002 0 0z"/><path d="m3651.3735-1038.5561c-3.9098.088-5.663 4.6738-2.7674 8.2347.42.5194.4633.8174-.3058.3185-1.9496-1.358-5.6877-.4652-5.8792 3.6864-.2364 5.1154 6.6252 6.5893 7.9136 1.1499.068-.574.5157-.5609.4077.2538-.1174 2.211-.7803 4.2775-1.6914 6.2927h4.6479c-.9111-2.0152-1.574-4.0817-1.6914-6.2927-.1081-.8147.3397-.8278.4077-.2538 1.2884 5.4394 8.15 3.9655 7.9136-1.1499-.1915-4.1516-3.9296-5.0444-5.8792-3.6864-.7691.4989-.7258.2009-.3058-.3185 2.8956-3.5609 1.1424-8.1463-2.7673-8.2347z"/><path d="m3652.1674-1045.3048h3.3049l-4.8549-12.146-3.7094 5.1307.026 7.0153h2.6048v3.618h-9.1799v-3.618h3.0245v-26.1206l-3.0245.012v-3.1625h9.3143v3.2695h-2.5703l-.055 12.7307 8.1304-12.8377h-2.8697v-3.1625h9.9096v3.1625h-2.6149l-6.6944 10.491 6.5548 15.623h2.9094l.015 3.618h-10.1899l-.031-3.6232z"/><path d="m3838.5316-820.62032h-3.3049l4.855 12.14603 3.7093-5.13074-.026-7.01529h-2.6048v-3.61799h9.18v3.61799h-3.0246v26.12059l3.0246-.012v3.16246h-9.3144v-3.26951h2.5703l.055-12.73075-8.1305 12.8378h2.8697v3.16246h-9.9095v-3.16246h2.6148l6.6944-10.49103-6.5548-15.62297h-2.9094l-.015-3.61799h10.1899l.031 3.62318z"/><g transform="matrix(.15307720155 -.00319028912 .00316095944 .1544791736 3654.04571682747 -963.60442740719)"><path d="m4797.4688-237.3125-533.75 2.59375 67.7812 128.40625c138.7237-12.47662 260.2925-1.38149 386.9375 2.75zm-364.5313 451.46875c-.5561.74768-22.2055 6.33819-20 11.25 56.5244 120.99976 81.7691 219.45572 105.375 343.8125 11.9315-9.68314 31.2334-9.29334 31.2334-9.29334-9.5215-46.18046 48.7026-51.93901 49.0826-3.6253 11.1766 2.59204 22.6723 2.6308 32.7618 13.91924 4.534-135.89664 56.1777-280.10542 119.1624-377.53252-71.7792 28.40338-179.9606 102.79851-179.9606 102.79851s-87.6369-36.19057-137.6546-81.32909zm436.2813 14.46875c-95.5282 90.66448-130.171 334.18887-126.0626 345.8125-123.135-4.10746-160.4547 131.60326-53.7187 204.78125-4.2182 14.19322-14.6423 25.74158-22.7187 38.28125 11.0078 6.30224 23.027 7.64835 35.0312 8.96875 9.1143 10.7961 18.0729 23.25527 27.9688 24.28125 10.7378-6.76346 18.3692-16.66069 27.3124-25.21875 11.158-2.83776 22.2248-5.97884 32.8126-10.8125-9.3785-13.08113-20.4956-26.308-20.7813-38.5625 92.8029-65.40415 80.0666-154.34567-3.5937-199.875 12.3783-156.26466 58.5767-246.85526 103.4687-313.5zm-657.9063 115.71875c-12.1357 5.91985-18.7564 18.41443-27.5625 28.21875-12.0898.55006-23.7331 4.67943-35.25 9.8125 0 0 27.6823 38.22501 25.9688 40.28125-89.7597 58.76801-89.0264 144.66746-2.8438 201.25 14.6 122.25085-89.315 315.7161-94.5625 310.09375l-.1875 40c73.9562-80.7996 116.1936-226.74513 120.4062-344.59375 147.6917-9.82906 152.9237-152.47121 51.25-206.125-7.8163-7.16499 25.5626-40.3125 25.5626-40.3125-8.4741-8.34121-22.649-9.28751-35.0626-10.3125-7.8315-9.35483-14.6596-18.68234-27.7187-28.3125zm730.0865 106.26571c9.3867 16.57849 35.148 29.97754 37.851-1.14071-4.3956-23.37741-19.7921-28.55932-80.875-18.375-35.9959 15.99091-31.7989-26.0791-49.5062-9.59636-57.4174 53.4468 91.344 47.59288 92.5302 29.11207zm-34.5789 60.21247c-17.1255-.0156-20.0384 66.92442-19.7889 87.02182-49.584 78.27617 101.7143 69.37788 36.2836-15.89446 2.8487-8.79299-7.3989-25.42217-8.0483-37.34377-5.3616-.68213-7.7163-30.90664-8.4464-33.78359zm-885.5701 100.95932c-1.569 20.24677 13.2753 81.69085 18.7848 79.60734 19.3882-31.21212 17.0826-57.90937 15.078-88.39212 46.1814-88.82656-111.5394-52.36942-33.8628 8.78478zm287.875 14.28125c-6.8906 130.74334-38.9346 259.02225-111.5421 370.26519 62.5005-29.12137 123.1573-66.69502 181.8546-98.85894l137.1657 84.87598c7.944-3.44649 13.4442-5.1426 18.7093-10.34473-63.21-92.42064-82.7732-225.44437-110.3125-345.78125-10.48 7.42614-30.1875 11.15625-30.1875 11.15625-1.4086 41.73881-45.2022 55.26599-54.1467.82967zm-331.0625 102c-14.6312.92618-25.6336 37.13696 15.8125 42.5 29.2486 4.13536 66.7028-10.25984 85.2812-3.59375 21.6011 34.44504 40.993-16.25913 12.125-24.53125-31.0111-8.88626-94.1697 14.29516-101.1562-5.40625-3.5911-6.72706-7.9658-9.22808-12.0625-8.96875zm248.7813 566.3125-82.75 146.125 529.0624-3.1875-69.1562-139.375c1.1823-1.5461-231.0696 27.6061-377.1562-3.5625z" fill="#ffcd00" transform="matrix(.999573 .0206431 -.020645 .999787 -3870.09 -482.784)"/><path d="m2045.1582-254.77539c-8.8598.0711-18.0367.99016-27.7187 3.11133l1.7128 3.13476c20.234-3.36495 36.168-3.89019 57.1016.19141l1.9102-3.26367c-10.7477-1.95462-21.6147-3.26532-33.0059-3.17383zm-6.6191 45.67773s-1.337 3.02675-2.0137 4.63868l17.6582 11.52929s8.4563-6.03067 12.0605-8.58203l-2.1875-3.24414c-7.4677 16.61472-20.5957 3.47585-25.5175-4.3418zm52.2421 1.17774-5.248 3.19531c-12.0872 18.14253-20.3446 40.99163-19.6855 70.87305 4.4662-5.15658 10.0122-8.46675 17.7207-8.00391.9796-21.60668 8.4033-40.81966 20.2929-58.12891zm-1.3261 6.55078c.7815-.0538 1.6627.16768 2.5273.75 1.998 1.34559 1.9099 4.60189-.2734 5.20508-1.7633.48715-1.8088.95302-.2598.87695 2.7792-.13649 3.5186 3.60563 1.541 5.43555-2.2735 2.10379-5.1728.61307-5.4375-2.02539-.1213-.74601-.2772-.735-.5215-.3125-.7015 1.21739-.7654 2.79955-.6289 4.23242l-4.1074-2.57031c1.4619-.73023 2.3534-1.1715 3.4102-2.2793.138-.14448.2415-.25133.2402-.31445 0-.11264-.4562.0389-1.293.12695-2.4806.26092-4.3896-1.36194-3.8808-3.71875.4329-2.00525 1.4621-2.87933 3.1816-2.91797 1.2236-.0262 1.9006.45002 2.5157 1.70703.6943 1.41926.9601 1.06886.5136-.70117-.484-1.91878.7533-3.37574 2.4727-3.49414zm-121.6465 17.0293s-8.855 6.6932-12.9688 9.92578l.1993 59.57812c1.2363-.4516 3.0615-2.05757 4.1211-2.64062-2.4622-2.19558-1.8267-3.8825-2.3145-5.50391-1.1053-1.71402-.094-2.98946-.2773-4.06445-.27-7.59985 1.1004-8.60074 7.2031-9.28711-1.2865.46887-4.5391-9.51317 4.2558-9.46289zm111.709 3.32226c3.3132-.0486 6.0378 2.6206 6.0859 5.96485.048 3.34424-2.5989 6.094-5.9121 6.14257-3.3132.0486-6.0398-2.62255-6.0879-5.96679-.048-3.34425 2.6009-6.09206 5.9141-6.14063zm.055 1.08203c-2.6529.0389-4.769 2.23832-4.7305 4.91602.038 2.67769 2.2182 4.82014 4.8711 4.78125 2.6528-.0389 4.7749-2.24418 4.7363-4.92188-.039-2.67769-2.2241-4.81428-4.8769-4.77539zm.125 1.53711c1.7989-.0264 3.2805 1.42251 3.3066 3.23828.026 1.81578-1.414 3.31348-3.2129 3.33985-1.7989.0264-3.2746-1.42837-3.3008-3.24414-.026-1.81578 1.4081-3.30762 3.2071-3.33399zm-119.0957 2.48828c.244-.004.5023.0327.7656.11719 1.4951.47956 2.0188 1.80895 1.209 3.06836-.6361.9892-.5646 1.07384.5488.65625.8757-.32843 1.3232-.22499 2.0137.46484 2.0703 2.06838-1.0126 5.54612-3.0391 3.43946-1.0037-1.04336-1.0983-.73607-.4023 1.05664.2252.58026.5976 1.48242.5976 1.48242l-2.9707-.0449s.4607-1.19455.6738-1.75781c.5141-1.35879.531-1.55773-.541-.70313-2.4173 1.92719-5.1577-1.37111-2.9336-3.52734.4524-.43857 1.1778-.45719 2.1875-.0566.7357.29181.8261.0894.2735-.61133-1.2022-1.5242-.091-3.55346 1.6172-3.58399zm119.1699.0586a.84784812.84784811 89.752843 0 0 -.8477.84765.84784812.84784811 89.752843 0 0 .8477.84766.84784812.84784811 89.752843 0 0 .8476-.84766.84784812.84784811 89.752843 0 0 -.8476-.84765zm-57.7832 4.53125c-1.2081 7.98422.034 19.93846.01 25.92578 3.2212.61952 3.2571 2.83312 3.7519 5.58594 1.5658-.55098 4.9903 1.78352 5.459 1.57812.37-7.72342-3.8699-28.59081-9.2187-33.08984zm53.6367 8.75195c4.573.37005 3.6961 3.93395 2.334 5.39844-.6451.75117-.5251 1.08838.1836.65625 1.9314-1.17773 3.4634-.32565 4.0859 1.70312 1.0635 3.46586-3.4501 6.45081-5.4629 3.33985-.6819-1.05403-1.0987-.81579-.9316.28711.1028 1.06291 1.1308 3.26562 1.1308 3.26562l-4.4863-.40625s1.3706-2.30217 1.6113-2.92187c.4997-1.28611.2359-1.62852-.7226-.5918-2.806 2.5917-6.6946-.72612-4.8828-4.16211.8932-1.69397 2.5409-2.24188 4.3203-.89258 1.1987.79016 1.4567.44638.3848-.51172-2.0035-1.79057-.257-5.38193 2.4355-5.16406zm46.5234 1.43945c-5.03 5.24595-3.4512 2.14582-1.1191 6.14453 1.2534 6.87338-.2994 6.98081-.1055 10.25977.3868 4.40806-3.7113 5.13652-7.3437 5.87109.588-.0391 5.6193 9.3457-3.7696 10.08008l.1075 38.14844 14.7207-10.95508-.062-59.54883zm-161.1777 1.38672c.3843.007.7878.11573 1.1895.34375 1.1148.63285 1.4197 1.88115.7207 2.9668-.402.62476-.2838 1.01757.1836.60937.6257-.5465 2.0062-.18164 2.5449.66993 1.3837 2.18718-1.3187 5.04763-3.0449 3.22656-.762-.80385-1.0552-.83652-.9668-.3086.2482.99082.8945 2.68165.8945 2.68165l-3.1074.0547s.6713-1.77757.8203-2.67968c.1144-.71368-.1681-.60897-.9082.23437-.7198.82017-1.3733.90492-2.291.29102-2.2647-1.51491-.4516-5.40456 1.9101-4.09766.8136.45021.9269.19019.291-.6582-1.1356-1.51513.024-3.25243 1.6114-3.33008.051-.002.1003-.005.1523-.004zm50.7051 18.75586c-3.715 2.96998-9.754 9.65603-17.4102 8.02539-.8922 23.80189-8.6309 42.228471-19.6699 58.064456 3.8113 2.274512 8.0064 5.004079 11.9043 6.753906 3.2956-1.715782 5.1447-2.430911 8.3789-5.117188 13.2711-20.692226 17.4797-43.312024 16.7969-67.726564zm34.6543 4.35352c.745 12.22405 2.7156 23.7989 9.0156 33.08593l.4277-25.97851c-2.245-.54262-4.0851-2.00666-4.7402-6.16016zm-45.5293 7.21093 4.209.0996s-.9538 1.92034-1.3672 2.99415c-.5022 1.31225-.2645 1.58001.6953.66796 1.2493-1.18717 3.2413-1.29768 4.2891-.23828 2.782 2.81308-.1274 7.39775-3.418 5.38672-1.4088-.86098-1.6453-.57221-.5274.64649 2.1746 2.03663-.095 4.96961-2.6367 4.98242-1.8376-.008-3.0294-1.48956-3.1738-3.12305-.071-1.02764.4406-2.05936 1.3242-2.56055.9213-.52256.2626-.86185-.7383-.31836-3.2677 1.77448-5.454-2.7836-2.9882-5.37695 1.4217-1.49541 2.9257-1.35702 4.371.0703 1.0092.9966 1.3708.90926 1.086-.26953-.2868-1.32684-1.125-2.96094-1.125-2.96094zm113.6347 3.57618 3.0157.004c-.2967.75328-.6792 1.52092-.92 2.26563-.2592.81104-.07.91528.7286.13086 2.079-1.40889 4.2965.00072 3.8457 2.23242-.3111 1.53974-1.5889 2.29565-3.0645 1.62695-1.301-.5896-.8824-.33781-.1426.56055.8801 1.06865.6558 2.31505-.5078 3.14062-2.0584 1.4605-4.7758-.96614-3.414-3.08398.8028-1.25939.4342-1.12278-.2969-.51367-1.0974.81026-2.7565-.33566-2.7891-1.92578-.1266-2.28732 2.1625-3.57563 3.7754-1.95703.7681.65273.9583.57441.6113-.375-.3178-.68968-.4195-1.42954-.8418-2.10547zm3.3223 16.59961s-.044.2446-.5312 1.16797c-.5723 1.08523-.4843 2.20726.1132 1.44531 1.0083-1.28578 3.1497-.92711 3.8516.64453.8178 1.83108-.7771 3.85297-2.4316 3.08398-1.0754-.49982-1.1483-.39195-.4336.65039.6952 1.01413.3876 2.260343-.7422 2.988285-2.2199 1.430212-4.8826-1.424625-3.0332-3.251955.4951-.48918.3406-.72779-.2598-.39844-2.4508 1.34438-4.2598-1.99773-2.1406-3.95507.9023-.83344 1.5925-.77506 3.0762.25976.4617.32209.5515-.0106.2187-.82812-.567-1.39303-.8496-1.76954-.8496-1.76953zm-120.5078 2.03711c3.5182-.0516 6.4079 2.78281 6.459 6.33398.051 3.551171-2.7552 6.473816-6.2735 6.525391-3.5182.05157-6.4137-2.78672-6.4648-6.337891-.051-3.55117 2.7611-6.46991 6.2793-6.52148zm.072 1.14843c-2.8903.0424-5.2002 2.43815-5.1582 5.35547.042 2.917327 2.4203 5.249402 5.3105 5.207033 2.8902-.04237 5.2002-2.444 5.1582-5.361333-.042-2.91732-2.4203-5.24354-5.3105-5.20117zm.061 2.0293c1.7792-.0261 3.2398 1.40527 3.2656 3.20117.026 1.795904-1.3926 3.276654-3.1718 3.302736-1.7793.02608-3.2457-1.411125-3.2715-3.207036-.026-1.7959 1.3985-3.27079 3.1777-3.29687zm.041 2.52734a.84784812.84784812 0 0 0 -.8476.84766.84784812.84784812 0 0 0 .8476.847656.84784812.84784812 0 0 0 .8477-.847656.84784812.84784812 0 0 0 -.8477-.84766zm-8.0488 13.050785 3.6777 1.814453s-1.7395 1.428206-2.4316 2.164063c-.8846.94795-.8234 1.39294.3711.939453 2.2777-.864737 4.5588.430183 4.6016 2.816406.057 3.184529-3.6749 4.716026-5.4668 2.304688-.5328-.716917-1.1692-1.013372-.92-.427735.6066 1.425277.2362 3.219375-.8203 3.957031-.8457.590522-2.3933.763883-3.1738.355469-2.6845-1.404638-2.8253-4.526424-.2578-5.759765 1.2907-.620024 1.334-1.202175.064-.882813-2.6436.664999-4.184-2.562852-2.2773-4.78125 2.0237-2.354547 5.3227-1.868714 5.6875 1.615234.065.619836.483.172083.6699-.777343.2246-.705442.2754-3.337891.2754-3.337891zm34.2793 5.238281-13.0566 8.060547 2.9843 4.173828c6.6813-15.280445 22.683-2.625881 25.2461 5.175781.556.345709.6496.248023 1.2539.521485.057-.550643 1.168-5.970703 1.168-5.970703zm34.5273 56.181641c-22.0474 5.676488-56.9429.640501-56.6015.240234l-2.1699 3.119141c-.7494.321574 33.5728 6.187858 60.6445.228516z" fill="#c8102e" stroke-width=".164046" transform="matrix(6.12174 .126426 -.125264 6.0662 -11912 786.077)"/><path d="m1952.6953-277.72656v280.6992162h174.1524v-280.6992162zm139.6524 1.83008-16.1622 27.92578c.1548-1.47211-31.4202-5.98409-57.2265-.47852l-14.0488-27.10742zm31.1503.45703.5118 113.99609 1.0703 59.75195-15.1074 11.105472-.2207-38.277342s-2.1639-1.04281-2.7305-1.11328c-.2129-.0166-.4884.46326-.1035.71094.5551.35711 1.9218.85742 1.9218.85742l.3204 37.937497c-12.288 8.900874-27.6395 15.10177-39.3184 20.005859-.9564-3.185597-10.4029-10.627514-21.0234-5.367187-.972.363688-2.1744.679091-2.9864 1.248047-4.0466.746048-5.3798 5.113389-5.9922 9.359375-.021.16712.3203.130041.3321.146484.044.06109.963-4.074962 1.3281-4.857422.7797-1.671221 1.7626-2.672401 2.2832-2.830078.2373-.04058.4452.333307.123.921875-.6396 1.169767-1.161 3.655771-1.3164 4.777344-.1388 1.034926-.1655 1.866654.025 1.902344.034.03281.9398-3.134113 1.3477-4.251954 1.0632-2.913863 1.7336-4.120647 2.7578-4.742187 1.0503-.637377 1.299-.54662 1.0918.130859-1.5629 3.075886-2.2075 5.401599-2.5137 8.677735-.047.653182.2821.671925.541-.410157.8561-3.439285 2.0304-8.091704 4.8067-9.480468 1.1847-.540465 1.711-.514783 1.584-.128907-3.3057 4.213977-4.1328 8.893657-4.0938 10.404297.013.504124.2147.405696.6387-.685547 1.1196-4.153336 2.7802-7.687014 4.75-9.419921.7622-.670613 1.6841-.854404 2.457-.951172 2.3345-.292278 2.4147.57927.3828 1.773437-2.3143 1.360196-4.9919 6.309505-5.289 10.025391-.1029 1.285963.3473 1.425705.666-.289063 1.3727-7.385904 7.6472-12.267547 12.6758-10.005859 2.2624 1.01758 2.6725 2.431535.7031 1.802734-3.9868-1.272929-8.4131 1.577901-10.2383 5.556641-1.6501 3.597064-1.6155 5.485557-.4551 10.302734.7912 4.449415 2.3331 10.134598 1.8243 14.492188-.5482.847169-2.2798-.347596-4.3243-.601563-1.2332-.232909-2.7397-.292233-4.0273.205078-1.1225.433525-1.7589.542977-1.9668-.06641-.067-.196632.8658-1.156937 1.2812-1.6875.2894-.369522.4356-.794922.4356-.794922s-.5598.212833-1.0879.732422c-.4582.450769-1.443 1.50546-1.7129 1.560547-.5912.120686-.6139-.551674-.1367-2.263672 1.6741-6.647153 1.2249-6.759065-1.6465-8.105469-2.8453-1.093754-1.9449-1.646508-3.2051-2.734375-.888.700196 1.1596 3.913101 3.4766 4.615235 1.8953.574356 1.6639 1.552534.834 4.183594-.8419 3.682531-2.2784 8.557666-1.4473 11.828124 1.7461 6.871249 8.6588 6.730359 13.9531 3.953126l.6446 1.751953c-4.476 1.829197-28.0668 3.392909-36.0176 2.470703-.6144-2.168482-.6769-2.726546-.9258-5.279297 0 0 4.9115 2.238688 7.3633 2.626953 3.0607.484698 7.7754.507102 8.9824-2.337891.3696-.833903-.01-1.537927-1.0664-1.054687-1.9415.888182-5.2606 1.543989-7.9414 1.376953-2.2505-.140229-5.4572-1.051642-6.8438-1.894531-.659-.400635-1.2155-1.183929-.6992-2.167969.4575-.102374 1.0581.407329 1.4141.591797 4.0606 2.06797 6.3412 2.6277 8.9375 1.677734 1.7237-.630689 3.658-1.498525 4.0469-3.410156-1.5022.762553-2.8873 2.124683-4.4825 2.5625-3.1897.875476-6.6011-.455499-9.9199-2.625-1.0243-.896973-.5571-1.550919.6973-.833984 4.9713 2.525721 7.0459 4.200914 11.8027.65625 1.0627-.795192 1.6551-.692471 2.2793-.210938 2.4699 2.232681 2.4616.977659.6524-1.341797-.4111-.526952-.7831-1.263198-1.0293-2.048828-.182-.580748-.2233-1.162862-.5528-1.544922-.5611-.650781-1.5717-.965779-2.7265-1.478515-1.0652-.47291-1.8301-.332032-1.8301-.332032s.3953.334061.8398.552735c2.155 1.060079 3.2039 2.196667.5274 1.583984-2.4291-1.096576-6.4848-.482385-8.7793 1.125-1.8016.886526-2.5943 1.835695-3.0196-.169922-.8903-4.186053-.023-9.865095-1.2167-17.169922-.2277-1.392609-.5075-2.276283-.2188-2.466797.3706-.244502 1.2966.658421 2.4434 2.283204.5225.740453 1.5601 2.165564 1.5547 1.86914.039-1.546933-2.3451-4.450023-4.3126-5.59375-1.0802-.628279-1.8147-3.533663-.5781-2.894531.9545.469009 5.9215 4.876567 6.8672 6.447266.4393.729674.8105.264218.3457-.59375-.2789-.514846-1.4461-2.026991-2.5801-3.144532-2.012-1.982965-2.2457-1.890508-1.8593-2.296875.7644-.804006 2.3997.232549 5.3164 2.896485.7483.953188 1.7388 1.81337 1.6172 1.339843.2983-.741988-2.6213-3.910834-4.3536-4.759765-.3239-.204669-.368-.420678-.3378-.814453.164-1.496583 3.5167.701639 6.2988 3.267578 1.042.961112.1775-.847484-1.0293-2.076172-.9486-.965745-2.4787-2.166103-3.5156-2.578125-1.0301-.428738-1.0931-1.334309-.2852-1.714844 2.7888-.118847 5.6667 2.756376 7.3828 5.017578.4737.621093.9088 1.099459.416-.07617-1.5894-3.540466-4.8956-5.535102-7.1855-5.939454-1.8602-.328467-1.8187-2.021784-.07-1.830078 1.9231.210907 5.0708 1.962521 7.7402 4.673828.7766.7888 2.0837 2.578162 1.8145 1.527344-.01-.286157-.8253-1.406008-1.7715-2.486328-2.1838-2.188942-4.7223-4.124874-7.4141-4.701172-1.2583-.359171-4.9932.368635-5.0156-.285156-.01-.482602.3905-.772384 1.5801-1.171875 4.6165-1.55042 11.3721 2.453156 15.0683 8.607422.2646.440438.7664.628428.7969.529297-1.7838-5.029257-7.3282-9.589874-11.7383-10.371094-2.9995-.485618-6.0231.287973-7.4609 2.328125-1.6179 2.295589-.9861 5.365243 1.4433 5.119141 1.2749-.118928 1.1741-.847458 1.1504-.871094-.087-.0865-.827.264609-1.2851.173828-1.6614-.329206-1.4887-3.361687.9433-3.0625 2.7967.344046 3.1919 4.794524.066 5.730469-2.8844.863879-3.9413-.465657-4.7304-2.042969-1.1558-2.310228.085-6.0348 2.123-7.462891 5.7032-3.997259 12.9162-.647544 16.9922 3.316407 2.0166 1.961162 3.4885 4.292621 4.4141 6.80664.2377.584365.7468.524742.5136-.07617-5.7378-14.788186-22.8725-16.512384-25.3789-5.03125-4.1476-6.562826-7.779-7.020499-13.3359-4.15625-5.6681 2.366595-8.4564 4.295731-13.6992 6.777344l-11.8887-6.443359c-.7007-11.920704-.3014-23.876834-.2539-35.8125.034-.27846-2.5754.18892-6.9219.87695-11.5578 2.32847-10.5661-3.9237-12.0762-4.23828-.8073-.16312-.7488.18629-.9687-21.8164-.064-6.39065-.1881-17.62477-.2813-24.9668-.093-7.34203-.1172-13.45859-.053-13.58789.065-.1293.7129-.6915 1.461-1.22656 2.8161-2.01431 4.3994-3.23458 10.5625-7.98047 1.3956-1.07475 1.746-1.25586 1.746-1.25586.7075 13.21949.074 27.10252.4219 38.46679l.5196.002-.2012-38.16016c-1.0631-.28135 24.3011-15.26295 38.2012-20.12304.2605-.0911.9101.20117.9101.20117 7.9778 9.86836 28.9702 6.88137 30.6621-5.13282 3.478 7.32376 18.7564 21.55421 25.7383 4.40039 0 0 2.5301 4.92881 4.7012 5.25391 4.8792.65373 5.4207-.12358 16.1601-5.38086-12.2791 18.80318-19.0492 38.71172-19.916 62.82227-1.6792-2.44464-5.2083-2.33877-5.5039-2.15821.023-2.29733-.3864-5.41417-3.8223-5.74804-3.4909-.26672-5.2837 4.38194-3.9589 6.34961-2.1547-.9027-5.3868 1.35971-5.3868 1.57226-.2751.009-2.7434 6.5964 4.7286 6.93555.6801 3.10929 1.844 4.61332 4.2324 5.89258l.059 25.37695.8437 1.15234.074-26.5957c3.824-.1709 4.2973-4.58713 4.0137-5.60547 1.6985.0747 3.2399-.26947 4.5391-1.26953l.4472 4.33399s.8969-1.52853.6993-2.33985c-1.6639-24.92385 7.2693-51.88636 18.996-69.36328.627-.7336.8184-1.60876 1.129-1.61523 2.8597-1.55512 4.666-2.60157 4.666-2.60157 4.716 2.28729 13.1367 7.80664 13.1367 7.80664l.1367 35.51563c-.1307-.34937 15.6906-1.7811 15.4531-1.34961 0 0-1.385-.54805-1.4062-1.48242l-.4121-83.10742-6.9219-4.56446s-5.6915 3.7545-7.2832 5.03711l.1738 48.92774-12.2597-7.24805s.1949-1.73137.2128-2.29297c.5197-5.65422-3.4209-8.88343-9.6269-6.93555-.8286.26544-1.4057.49816-1.8105.15625-2.6033-7.68133-3.773-27.86738-3.7696-27.86718l17.4492-29.83594zm-168.3418.53515h47.5489l16.0332 28.97461s.9413 1.81114.3789 3.70508c-.6138 2.0668-1.1411 2.98406-1.6934 4.03906.055-.60186-4.6197-1.19839-4.2285 2.8418.2648 2.73468 3.693 4.28004 6.2461 2.15234.4081-.0344.4056.3481.3164 1.01563-.2357 1.56682-1.8831 6.53928-3.0137 6.86914-5.7557-4.76369-7.8104 3.93541-3.9296 5.66992 2.2465 1.00409 5.7015.17532 7.3164-2.55078 1.2352-2.08535 1.0989-1.7418 1.4882.78906.1448.94115.3497 2.03296.4551 2.52344.3296 1.53388-.0006 1.83128-2.5586 2.52734-2.0583.80927-4.1448 1.25528-6.2676 1.71875-3.8794.64214-5.8623 3.59681-5.9589 7.19141-.021.77703.01 1.13626-.1582 1.36719-16.4131 6.28756-33.6795 15.08576-51.9747 30.10937zm156.3965 21.50196s3.3688 2.24594 4.9942 3.36914l.023 3.60937-4.8691-3.20898zm-1.7695.54101c1.0448 3.32116 1.0364 10.442.6445 13.61328-.6547 2.06528-.9458 11.25666-.2031 15.9336.5921 3.72824.4822 9.89445-.076 12.8457-.2182 1.15309-.049 6.55725.3614 11.55664.3136 3.82087.2228 7.29499-.2344 9.2832-.3603 1.56677-.235 7.18033.1758 9.33399.6043 3.16843.7082 13.34741.4375 13.90039-.7185.82114-6.3397.9363-5.9629.65625l-.1602-83.76758s3.3454-2.24403 5.0176-3.35547zm-61.0918 4.46485c4.7239-.0286 7.9271.11455 7.8965.16601.4522 1.82405.626 3.64861.8027 5.47266 0 0-4.2935-2.12648-6.5332-2.83399-3.4503-1.06738-8.9047.10467-9.8711 2.10352-.5479 1.13337-.2616 1.88894 2.0567.6289 3.7941-2.06215 11.5424-.49112 14.2734 1.69532.6292.50372.5973.61437.6094 1.20508.018.90061.071.95173-1.1719.28125-6.5119-3.36035-12.0763-2.97022-13.9961 1.4414-.4421-.13478-2.1308-.42773-2.1308-.42773l1.8144 2.70703.3438 2.83203c1.8023.93621 2.3461 1.23538 5.3925 2.66602 0 0-1.0097-.9771-2.0879-1.73438-1.4485-1.01746-.2953-1.34453.6602-.95508 1.9656.45502 4.8382 1.03369 8.1641-1.09765 1.033-.66201 3.3984-.0888 3.4355.21093 0 0 .3144 2.47797.627 7.64649.1478 2.44491.4458 5.63809.6152 6.94922.5118 3.96097.6588 4.18639-1.4063 2.28711-.6928-.63726-1.8459-1.69386-1.8593-1.63086-.2619 1.22828 2.7828 3.38465 3.4922 4.125 1.0765 1.12363 1.9408 4.00128 1.5097 4.17187-.273.10803-3.1673-2.36969-5.4453-4.59765-.8534-.83466-2.1238-1.95425-2.1601-1.91602-.471.31667 1.4429 2.49581 3.2343 4.125 2.0905 1.90121 2.3317 2.07279 1.6289 2.35938-1.2975.52905-2.4649-.12886-5.6152-2.75782-.3067-.25591-1.4999-1.11024-1.5566-1.04883-.2873.38693 2.6191 3.16347 3.2793 3.40235 1.2259.44361 1.5782 1.63827.6113 2.10742-.6454.31314-3.0504-1.01702-4.9785-2.70312-.3455-.30218-1.3036-.81512-1.3672-.7461-.3825.24805 1.7734 2.12888 3.8301 3.37891 2.0135 1.22381 2.3354 1.52535 1.8222 2.54297-.4781 1.04788-4.8966-1.37803-7.1074-3.87696-.4704-.53173-.8437-.76141-.75-.58203.9627 2.69354 4.1313 4.62404 6.4883 5.39258.4207.13907 1.0319.31092 1.3066.53125.6712.53822.5217 1.09859-.205 1.41406-2.5135.71182-6.4772-2.36121-9.3126-5.58008-.3278-.13713-.1331.28453-.047.42383 2.3648 3.80941 6.8939 6.70699 9.6211 6.16602 1.5945-.3163 2.8761.16911 2.8886.70898.01.44251-.8691 1.14622-2.5839 1.26953-3.8795.27898-9.9409-4.00361-13.4864-9.45898-.1105-.17003-.2414-.23402-.25-.13086-.096 1.1564 2.1079 3.99295 3.7989 5.61523 5.0237 4.81983 9.7739 6.44961 13.4785 3.73438 2.0885-1.63389 4.1077-5.20674.9961-6.40039-1.6478-.63212-2.6906 1.6573-1.2813 1.0039 1.8517-.22501 2.2722.76745 2.0313 1.69922-.4716 1.60005-2.0434 1.85427-3.3203 1.18164-2.2228-1.21502-1.7505-5.37985 1.1269-6.10742 2.5929-.63194 4.8557 1.58685 5.1523 3.69141.4617 3.26902-3.1909 6.8056-6.121 7.68555-9.9949 3.00153-17.8026-11.01488-17.8477-11.33204-.5015-.97388-1.104-1.49076-1.4844-.35546-.4092 1.64411-2.6643 6.46655-3.8711 6.4375.3756-1.70087 1.9561-4.55993 1.5723-7.06446-.6672 2.05671-2.0728 6.44399-4.7637 8.78125-.6973.64114-2.7448 1.398-1.3359-.25195 1.7009-2.41353 3.9276-5.71353 3.4668-8.8125-.4515.69631-.6988 2.45895-1.2149 3.62305-1.2919 2.91458-4.1149 6.37351-5.9785 6.93359-1.3761.41358-1.2468-.0552.1621-1.55273 1.5105-1.60548 4.1844-6.31924 4.0078-8.35157-.076-.89745-2.7743 7.76203-7.8457 10.13282-1.3694.50543-2.1464-.13086-2.1464-.13086 1.9936-1.15848 7.5004-6.63833 6.9804-12.86328 0 0-.295.9223-.7285 2.30468-1.867 5.9413-5.8776 9.84842-9.0039 10.17188-2.4958.25822-4.2382-.75814-3.6191-1.20703 3.2359.024 5.895-1.10565 7.9726-4.28907 2.1116-3.23553 2.8987-8.43516 1.6192-13.9375-1.154-4.96226-1.4078-9.42331-1.8106-14.19336 3.5453 1.22223 7.1123 2.0354 10.5645.67383-.3463 1.42136-.9241 1.59617-1.834 2.66992-.2335.27556-.3028.54493-.3027.54493 1.2783-.4232 3.7949-2.30078 3.7949-2.30078s-.3122 1.76472-1.0625 4.68164c-1.122 4.36173-.8315 4.67475 3.3203 6.31836.7746.30663 1.0647.60705 1.3359.93359.1269.1528.8085 1.39003.8731 1.43359.1516.10226.1115-1.26237.027-1.60742-.2228-.91631-.7134-1.60383-1.1426-1.875-.8148-.75752-1.9902-.82546-2.7441-1.17383-1.1233-.52632-1.5508-.51487-1.3359-1.75195.1414-.81433 1.291-6.29578 1.8378-8.41406 1.6377-6.34348.099-9.85937-4.539-11.27735-3.1434-.96097-5.8501-.47308-9.0528 1.2461l-.5761-1.79493c8.3915-2.21575 20.4882-2.7394 28.3613-2.7871zm63.2656.0625 4.5332 3.0957.047 3.92578-4.5664-3.05859zm-54.0215.16406 2.0059.22851s.7534 2.90392 1.5645 10.75196c.402 3.89046.8211 11.97904 1.1562 15.69726.5065 5.52466 2.9797 14.35782 4.5117 16.58789 2.4985 3.63682 7.5215 1.28516 5.8418-3.0332-.8715-2.24049-4.2454-1.87773-3.7773.44727.01.41463.3187-.29733.8125-.73438 1.4583-.55748 3.1004.97565 2.2441 2.82031-1.0633 2.35517-4.2102 1.2791-5.2539-1.68945-1.2467-3.54612 2.9554-6.20371 6.0977-4.04102 3.5004 2.40923 3.5067 8.5157.6875 10.44336-4.7446 1.74657-7.9707-1.7426-9.5196-5.30664-.6216-1.01479-2.609-6.34348-3.1543-8.5664-1.4246-10.7783-1.6947-23.57254-3.2168-33.60547zm3.3184.59961 2.084.13086c.8303 4.36196 1.1908 9.3197 1.5215 14.29101.1057 7.66527 1.0429 15.74987 2.8261 21.04883l-1.5312 1.62109c-2.6085-6.07215-2.8146-15.64974-3.3965-22.13281-.2549-7.29152-1.4442-14.9122-1.5039-14.95898zm3.0078.28906 1.8301.19922c.5567 5.17889 1.4115 8.69313 1.7363 14.39844.4202 7.37909 1.6869 13.43938 2.4746 19.20312l-1.3711.45899c-.9177.42672-2.4381-6.38442-3.1152-20.19141-.2049-4.17861-.9068-8.87789-1.5547-14.06836zm2.7695.19336 2.1856.39648c.9665 13.10953 2.4925 25.42153 4.0918 32.47657l-1.9004.39062c-2.3571-10.08304-2.5092-22.01461-4.377-33.26367zm3.1563.46484 2.0098.35157c2.4162 29.98031 3.9069 29.59292 4.373 30.77148l-2.1738.89062c-2.3503-8.6152-2.8258-20.76077-4.209-32.01367zm2.877.55664 2.3964.2461c-.078.0532 1.6996 24.58367 3.8457 28.64453-.3433 1.00988-1.1581.91577-2.0468 1.01953-.9951-2.75527-1.575-6.03831-1.9922-9.25391-.9164-7.06327-1.2482-13.6858-2.2031-20.65625zm-45.3106 2.53907c3.1583.15393 5.7789 1.58562 6.0313 3.67968.057.47104-.3127.2409-.7403-.0898-2.7162-2.10108-5.8086-2.75575-9.541-1.40039-.8133.29536-1.4783.7615-1.8418.69727-.3265-.21054-.4274-.72135-.1777-1.14258.8705-1.46862 4.7066-1.82032 6.2695-1.74414zm84.2598.53125 4.5625 3.14453-.029 3.40234-4.8574-3.27539zm-91.8594.97265s.2703 1.87414.2773 2.70117c.068 3.30199-.7288 5.1218-2.4453 5.88477-2.0716.92086-4.7283-1.0498-3.4375-3.25586.976-1.66791 2.653-1.16645 2.9727.58594zm6.5254 1.06641c.2223-.007.4442-.006.666.004 1.0646.0456 2.1137.27894 3.0625.6582 2.3931.95652 3.2727 2.125 3.3613 2.64453-.1382.38711-.3776.1238-2.125-.82813-2.6909-1.66572-6.1995-1.93882-9.2812.17579-.7681.15321-.8461-.28582-.076-1.1211 1.2842-1.01506 2.8361-1.48307 4.3926-1.5332zm21.9023.0254c2.1055-.0671 4.6223.47236 6.7481 1.54883.9401.47605 1.7837.77311 2.3965 1.32031.49.25787.5286 1.38015.1699 1.46484-.3203.0454-.8448-.20726-1.6289-.75976-5.0514-3.31063-8.6865-2.90316-11.6074-.86524-.162.11256-.6629.22995-.8614.21485-.5568-.0424-.586-.27356-.3535-.57813 1.3518-1.54185 3.3728-2.2846 5.1367-2.3457zm63.1231 2.38281 4.8672 3.4336v3.375l-5.1758-3.63086zm-87.8672 1.3711.7109.0215c1.6568 4.05193 3.7343 1.9623 4.5977.33984l.8652.14258c-1.3548 5.42736-6.8684 2.58753-6.1738-.5039zm27.3887.29492.5703.18359c-.1501 2.31368-4.01 4.77972-5.8418-.0391l.7656-.0566c2.0984 3.22262 3.3097 1.31554 4.5059-.0879zm-28.5977.24609c.8045.0976.776 1.01489 1.0273 1.6836.5631 1.49431-1.5723.23115-1.9374-.13282-.6197-.65817.2613-1.48315.9101-1.55078zm30.5449.20508c.2249.004.6755.16681 1.0899.33594 1.1477.46842 1.0875.81221-.1836 1.38281-2.0329.9125-2.7395 1.03119-2.1309-.25781.3504-.58963.5821-1.37242 1.2246-1.46094zm-8.2031.42187c.071-.0108.1494.0102.2305.0703.5115.37947.8472.79954.9062 1.48242.042.48136-1.5458-.0729-1.5429-.83985.038-.36559.1935-.68038.4062-.71289zm-13.834.25391c1.0429.38994.9178.89093.1914 1.3457-1.3046.73392-1.863.58948-1.0195-.56445.3891-.5323.4732-.7702.8281-.78125zm80.2422 1.69922 5.2715 3.74023-.047 3.4336-5.2676-3.625c-.245-1.47132-.013-2.45921.043-3.54883zm-.1426 4.68164 5.2676 3.87891.023 3.41211-5.2246-3.62696c-.2063-1.52042-.116-2.60514-.066-3.66406zm-69.4922.42773c-.8043.0457-.6786.59709.4727 1.03125 1.6163.60949 1.7789 2.34221.3555 3.12305-1.671 1.13905-4.4084-1.75393-6.4161-1.50976-.9592.28946-1.5738 1.19605-1.0253 2.30273.428.77609 1.8716 1.24582 2.457.73633.538-.53283.7005-.54824 1.7344-.1543 3.2393 1.23434 5.8248-1.1106 5.0605-3.57617-.2768-.89286-1.4894-1.86129-2.2363-1.93945-.1526-.016-.2875-.0202-.4024-.0137zm-21.4668.20508c.2499.006.3477.83935.4063 2.0586.097 2.02716-1.9469 4.85177-4.0137 5.82421-2.4891 1.17121-5.155-.47247-4.709-2.90624.4112-2.24318 3.57-2.33609 3.6895-.26368-.307.54512.1225 1.00285.2988.95508.8121-.22 2.727-1.95878 3.5059-3.9043.3035-.75816.4879-1.53796.7051-1.71484.042-.0343.082-.0497.1171-.0488zm29.7403 3.45117c-1.1037.0126-2.4308.60541-2.6992 1.31836-.3982.67517-.072 1.88591.7441.85547 2.0989-2.46583 5.1381.61939 3.5117 2.58008-1.476 1.7795-3.2912 1.20656-7.1269-.27148-2.7943-1.07672-3.2351-.70939-3.9239.0684-.5671.64031-.2775 1.92937.4571 1.91406 2.2643.51867 4.2244 1.02359 6.5683 1.51562 4.9543 1.02577 7.9769-5.41438 3.4512-7.78125-.2706-.14154-.6145-.20343-.9824-.19922zm61.5664 1.07032 4.9531 3.53125-.029 3.28515-4.8008-3.49414zm-84.1543.32617c-.705-.0203-1.4483.22117-1.9766.66406-1.9316 1.74813-.348 6.34356 2.4961 6.75391.5956.0859 1.4848.0596 2.4942-.23438 1.9902-.57957 4.1835-1.76676 4.2734-2.45898.4083-3.14519-4.2315-.32398-4.8457.0488-1.4628.89626-3.0114.77942-3.791-.28516-1.7571-2.39929 1.3937-5.15207 3.3066-2.2168.1242.19055.3164.45899.3164.45899s-.1402-1.19271-.5312-1.82617c-.3717-.60204-1.0373-.88404-1.7422-.9043zm84.5254 4.48242 4.6894 3.4043.08 3.41406-4.9199-3.26953c.096-1.22916.1181-2.38429.1504-3.54883zm-26.2891 1.96094c4.1224.0684 6.4495 6.21722 4.2754 8.77539-.6468.76107-1.1641.96527-1.457.68164-.063-.0611.042-.75022.084-1.52734.134-2.47817-.3893-4.17421-2.1856-6.05664-1.3474-1.41206-1.8564-1.8493-.7168-1.87305zm-49.2695.58984c-.5089-.01-.9693.20119-1.4961.39063-.7788.28004-1.6023.84709-2.2402.70703-.6301-.13832-.9311.17713-1.1778.67578-.9438 1.90764-.6517 2.52455 1.2188 1.44141.8877-.51402 1.1985-.32942 3.5742.12304 1.6977.32333 2.8518.29153 4.3457-.0996 1.857-.48622 2.9647-.52414 3.9043-.006.9396.51843 1.5814 1.23216 1.6055.65039-.1046-.68093-.6925-2.42334-.8282-3.00195-.065-.27837-.5276-.032-.9648 0-1.5394.11269-3.3752-1.28574-4.5645-.54687-.9518.59134-1.0788.74585-2.3847-.0273-.3647-.21592-.6869-.30077-.9922-.30664zm46.2637.13867c.6992-.02 1.3586.22548 1.8984.67969 2.7915 2.35305 3.5072 4.4393 3.2363 6.15235-.1385 1.24602-.2315 2.623-1.4414 3.37304-.2229.10744-.5547.1749-.8633.2207.9386-3.5393-.1687-6.71003-4.1152-10.09179.4306-.21512.8656-.32196 1.2852-.33399zm-61.0684.67383c.781-.0245.7386 1.23973.5781 1.90821-.1292.53806-.6888.0697-1.1308-.94727-.3283-.55379.016-.9593.5527-.96094zm58.0527.76367c.7229-.05 1.6858.33022 2.1211.62305 2.6025 1.7637 4.0995 6.37381 2.502 8.99414-.1737.32161-.3872.50627-.668.67969-.5371.34026-.8536.61364-.9629.375-.083-.18077.2157-.96166.2461-1.21875 1.1372-5.3727-4.0114-8.95462-4.1152-8.78711.096-.45148.4432-.63603.8769-.66602zm-60.6308.23243c1.0191-.0212 1.4071.92129 1.582 1.67187.149.63973-.041 2.54855-.582 1.88281-.1299-.40444-.682-1.70972-1.125-2.04883-.9867-.75517-.89-1.4847.125-1.50585zm92.8086.20703 4.8418 3.5039.01 3.75-5.0703-3.43945c.113-1.31218.1717-2.56875.2188-3.81445zm-95.6778.74023c.149-.004.3402.0155.5723.0547 1.5912.26892 2.8097 2.82504 2.4394 4.27539-.8414 1.56002-1.1537.50815-1.4316-.90625-.2173-.58639-.8681-1.50589-1.2676-1.98047-.829-.98494-.958-1.42497-.3125-1.44336zm60.8282.0332c3.8618-.0656 6.3252 6.23692 4.5429 9.3418-.4589.49195-1.8588 1.49841-1.9043 1.03125 0-.38559.2553-1.60225.3145-2.19726.2288-2.29986-.8373-4.63529-2.7227-6.46094-1.5822-1.53211-1.7278-1.68942-.2304-1.71485zm-63.9766.7461c2.3729-.041 4.4005 2.78814 3.6523 5.47265-.9275 2.79958-5.5482 2.20178-4.7812-.58984.2206-.80294 1.07-1.38936 1.8808-.88672 1.1712.72597 1.0425-.45563.2989-.875-1.1477-.64725-2.7246-.25542-3.0762 1.05469-1.2257 4.56721 4.59 6.12456 7.7559 1.40625 1.157-1.72448 2.4159-3.57034 3.1113-4.35742.6248-.70713.7572-.63239.6562.27929-.4034 4.24357-3.334 9.54599-8.832 9.25586-5.3433-.51223-7.0139-6.23323-2.9785-9.80468.754-.5752 1.4902-.94089 2.3125-.95508zm28.3144.23047c-1.9553.95573-3.7276 1.31642-5.6523.4707-1.4227-.62514-1.3996.0541-.7812.61133 1.7874 1.53594 5.037.84113 6.4296-.0234.4508-.27984.6004-1.08873 0-1.05859zm32.7325.0234c1.439.0858 3.7372 1.93332 4.4316 3.75391.7832 2.04309.9796 4.15498-.123 6.46484-.7669.49552-1.9602 1.49088-2.3145 1.34961-.1912-.1138.01-.4856.2402-1.36718.8774-3.29612.3259-5.86881-1.7871-8.29297-1.1772-1.35061-1.6204-1.58713-1.0039-1.83203.1634-.0649.3511-.0884.5567-.0762zm37.4258 3.17579 5.2109 3.58398.016 3.41211-5.4082-3.6582c-.085-.81628 0-2.05667.1817-3.33789zm0 4.72265 5.1503 3.42383.1348 3.38086-5.0039-3.13086zm.3593 4.74414 4.9199 3.4336.07 3.6914-4.875-3.23633zm-119.8789 3.85938c-.052-.25746-3.5527 10.04101-3.5527 10.04101l3.3476 2.36719 3.5528-2.31641-3.6563-4.89257s.3606-4.94176.3086-5.19922zm120.084 1.24609 4.7402 3.28906.072 3.40821-4.9258-3.4375zm-.1934 4.17383 4.8614 3.54297.096 3.62304-5.5078-3.70507zm-108.6679 2.17187c-.052-.25746-3.5547 10.04102-3.5547 10.04102l3.3476 2.36914 3.5528-2.31641-3.6563-4.89257s.3626-4.94372.3106-5.20118zm-22.4727.80469c-.052-.25746-3.5527 10.04102-3.5527 10.04102l3.3457 2.36719 3.5547-2.31641-3.6563-4.89063s.3606-4.94371.3086-5.20117zm130.5078 1.60352 5.7051 4.03906.047 3.8457-5.5293-3.73828zm.3828 5.3125 5.2559 3.82031.064 3.36914-4.8008-3.44922zm-96.539 4.36719c-.052-.25753-3.5528 10.04101-3.5528 10.04101l3.3477 2.36914 3.5527-2.31641-3.6562-4.89257s.3606-4.94371.3086-5.20117zm97.375 1.02343 4.4531 3.08008-.033 3.45899-4.3848-2.96485zm-91.3438 2.89258c.069 2.4429.226 27.47826.1875 27.64063-3.0704.35765-3.9273 2.45481-4.205 5.27148-2.3956-.18128-3.954 1.27423-4.002 1.51562-.8845-1.22616-.2254-3.03108-.9238-4.31054-2.1224 7.49159 2.0067 11.97243 5.6093 11.55469.5782 7.19294 8.4272 8.49445 8.1602-.23047 9.4961-.56255 6.2776-9.37499-.1465-8.20899.045-3.80203-1.9374-4.7767-3.5781-5.54687 0 0-.2759-24.09454-.2402-24.81446 0 .10515-.4189-2.60926-.4668-2.76953 0 .002-.3928-.10571-.3926-.10156zm91.336 1.72266 4.3593 3.12109-.053 1.49609-4.3476-.0879zm-131.3106 1.41992c-.051-.25746-3.5527 10.04101-3.5527 10.04101l3.3457 2.36914 3.5527-2.3164-3.6562-4.89258s.3625-4.94371.3105-5.20117zm135.7168 8.83398c-9.5739.45031-18.1702 1.1246-17.8457 14.22657-1.3772 5.56096.9549 10.51258 7.6367 8.98242 1.4629-1.31892.4996-3.22999.3203-4.14844-.5708-2.52754.088-4.16944.2715-5.35352.5687-3.66237 3.2284-7.06256 3.5176-1.32226.4661-.72054.2462-.82609 1.0156-1.125 1.835-.66759 1.8329 1.20393 1.4571 1.95898-.2415.3881-.607.35594-.9805.3125-.5337-.0646-1.2307-.26536-1.2422-.46289-.1437.59588.972 1.70465.8555 2.26367-.1474.53085-.2429.48821.2441.13672 2.3029-1.66218 3.7463 2.05129.4141 1.62696 1.6417.88447-.7884 3.47481.9082 4.80078 5.1699.39711 9.0166-3.14726 7.3691-5.69141 1.9254-5.17949.7407-10.5376-2.0332-12.8125-.4218-.50607.9838-1.00108 1.5235-1.87109-1.652.44118-2.5362-.39972-3.4317-1.52149zm-5.7207 1.85938c.8843.001 1.114.17147 1.0508.89258.3441 1.77439.7842 2.5981 3.0762 2.41211 2.3097-.3034 3.0437-.45009.7187.95898-1.1738.52207-1.5557.6244-2.9472.49805-1.4028-.12737-1.2967-.27018-2.0977.21289-.4475.26997-.9366.59942-1.3008.66601-.5392.0986-1.4883.3086-1.4883.3086-.5399 2.75529-1.3613 4.14183-2.4922 5.45117-1.6004 1.83538-2.4132 2.15693-.4511 2.01953.7255.0454.351-.32181.6679 2.64844.111 1.04035.3025 2.24557.4551 2.65039.5101 1.35329.5783 2.02708-1.3613 2.12304-4.8408.36979-5.9706-4.38468-5.3262-6.81445.2862-1.45539.3446-2.89209.2539-4.22461.1104-4.53092 1.1752-5.72645 5.1602-8.67187 1.2021-.88847 3.3612-1.07068 4.9668-1.08985.4539-.0233.8204-.0414 1.1152-.041zm3.1367.28515c2.2347-.0466 4.3934 1.03712 3.3164 1.74024-.6961.45442-3.2102.2668-3.9082-.23438-.9009-.64678-.5624-1.4818.5918-1.50586zm4.834 3.11329c1.4472.29244 1.5044 1.62463 1.1367 2.44531-.8088 1.80489-6.2226 2.67881-6.2226 2.67969-.044-.77504.063-1.52251-.5-2.39454 0 0 3.6064-.95245 4.3691-1.65429.5093-.46869.8166-1.06089 1.2168-1.07617zm-104.5273.83007c-.026-.12863-1.7938 4.91698-1.7938 4.91698l-.2802 6.16927 1.8669 1.32196 3.5528-2.31641-3.6543-4.89258s.3606-4.94176.3086-5.19922zm97.2871 2.23243c.4435-.0331 1.0278.36979 1.1445.91992.084 1.64256-2.1045 1.27353-2.1738.23633-.049-.73656.6128-1.12516 1.0293-1.15625zm8.3125 1.04296c.5246.007.8034.39134.9453 1.17188.067.4183-.088.77351-.4258 1.23047-1.3752 1.50745-5.2396 2.55313-6.6348 2.16992-.099-.13068.1393-1.71953.2403-2.42578 1.8581.0566 4.9877-1.60662 5.875-2.14649zm-64.4121 2.66016c1.1832.0386 2.3036.73349 2.8105 1.93359.2685.83037.3482 1.78517.051 2.61133-.2485.68928-.7031.79297-.7031.79297l-2.377-2.05078-2.3261 2.17773s-1.4242-1.44838-.6426-3.45507c.7582-1.43031 2.0043-2.04835 3.1875-2.00977zm64.2558 1.60352c1.5224-.0971.7348 1.67152-1.5175 2.86914-1.4135.75156-2.5844.9633-3.0918.6914-.278-.83013-.043-1.58705.1308-1.92383.961-.49773 3.6011-1.37164 4.4785-1.63671zm-98.2832 3.33007c1.6903-.0415 3.1547 1.17349 3.209 3.32618.022.87709-.4238 1.74804-.4238 1.74804l-2.8242-2.10156-2.1582 2.32227c-.3679.1298-1.6899-1.53356-.7813-3.34375.6605-1.31599 1.822-1.92277 2.9785-1.95118zm97.8653.10743c.4094-.0007.5132.15702.6308.54297.3336 1.095-.5139 2.1983-1.9765 2.54687-1.3517.32215-1.2232.48062-1.8633-.73828-.5015-.9551-.6346-.91461.1504-1.2168.9487-.31091 1.9636-.67356 3.0586-1.13476zm-58.2032.67968c.4046-.0168.8114.0353 1.1739.20118 2.3759 1.08719 2.7892 4.44077.4785 5.73242-1.0981.61386-2.8262.95484-3.6348-.28711l2.334-2.56836-2.6797-2.27734c-.079-.0793 1.1143-.75029 2.3281-.80079zm-10.9531.42188c.978.0224 1.7576.37871 1.582.54297 0 0-1.6844 1.72823-2.4218 2.45117l2.5371 2.67187c.1223.32467-2.9274 1.71831-4.5313-.38281-1.0413-1.36408-.4546-3.95933 1.0235-4.84961.5662-.34103 1.2237-.44704 1.8105-.43359zm5.2168.24023c1.4974-.022 2.7264 1.18383 2.7481 2.69532.022 1.51148-1.1726 2.75734-2.67 2.77929-1.4975.022-2.7322-1.18773-2.7539-2.69922-.022-1.51148 1.1783-2.75344 2.6758-2.77539zm58.8203.20703c.6722.042 1.2642.49094 1.2793 1.22657.021 1.04329-1.1644 1.38675-2.0918.80078-.7188-.4419-.7637-1.26754-.3769-1.63867.3537-.29288.786-.41389 1.1894-.38868zm-58.8301 2.13672c-.2879.00019-.5213.23357-.5214.52149.0002.28791.2335.52129.5214.52148.288-.00014.5213-.23353.5215-.52148-.0001-.28795-.2335-.52135-.5215-.52149zm-27.8476 1.31446c.3794-.008.7559.0511 1.0801.21484 1.7124.86499 2.5912 3.97542.6738 5.61328-1.5256 1.3033-3.8547.21973-3.9004.0664l2.3926-2.64258-2.5391-2.46289c-.024-.15066 1.155-.76641 2.293-.78906zm-11.082.34179c.6319-.003 1.2158.20235 1.8691.60742l-2.4316 2.57032 2.6308 2.88867s-2.0829.34278-2.8222.20312c-3.581-.67645-3.2306-4.91417-.461-6.03515.4383-.15519.8358-.23229 1.2149-.23438zm5.3808.60352c1.4459-.0212 2.6353 1.144 2.6563 2.60351.021 1.45952-1.1341 2.65849-2.5801 2.67969-1.4459.0212-2.6353-1.144-2.6563-2.60351-.021-1.45952 1.1341-2.65849 2.5801-2.67969zm-48.9531.52734c-.6902.0277-1.4566.14212-2.3047.34961 0 0 .4785 5.44513.916 7.30469-.2881 2.12223-1.6477 3.56539-2.2597 5.74414-.326.9695-1.5525 2.27389-1.7891.9082-.8845-1.68732-.038-3.77296-.7695-4.97461-.5598-1.13293-.2607-1.77002-.5079-2.94531-.6877-.97177-1.0144-1.41063-.9003-2.27344-.145-3.84923-1.0963-3.08613-2.7891-2.77148-6.5666.57094-6.5645 4.38718-6.1602 9.23242-.9322 4.54268.7862 3.46787.7305 4.28516-.088 1.29573.1212 3.11102.5078 3.31054 2.3422 2.70983 2.457 4.58834 5.5039 4.12305 5.1558.40663 13.3483-.36634 15.1192-6.71094 1.0008-8.10799 1.3752-15.84935-5.2969-15.58203zm-.047.86133c.9745-.0119 2.1218.19349 3.0664 1.10742 2.0236 1.95792 1.5759 3.68804 1.2149 11.26758-.2134 4.47968-4.0522 6.79335-8.3438 7.82422-1.0486.26035-1.9603.2653-2.6699.25977-.7661-.006-1.2127-.36351-1.2695-1.01172.1686-1.75445-1.6071-1.92543-2.6348-1.82618-1.8325.0734-2.0201.26877-.877-.625 1.3046-1.02003 4.312-1.03492 4.8829-.4375 1.1726-1.18494 2.3959-1.32391 3.8925-1.5-.2217-.32863-.7592-1.64224-.4043-2.48632.7752-1.3754 2.0803-3.80284 3.4493-4.71289 1.3542-1.7872.2034-.97781-.6368-.94727-.48.0174-.4378-.14261-.5156-.4668-.3344-1.39261-.8163-3.99675-.8203-5.54687 0-.74706.6914-.88654 1.666-.89844zm85.1094.24805c1.9769 2.40715.2815 5.27345-2.3711 5.45312-2.1972.11056-4.0062-2.26277-3.1777-4.62695.4534-.64008.6485-.54883.6484-.54883l2.502 2.25586zm-36.1367.49804c-.288.00014-.5214.23354-.5215.52149.0002.28795.2335.52134.5215.52148.2887.00091.5233-.23279.5234-.52148-.0001-.2887-.2347-.5224-.5234-.52149zm-58.4805.91797c.3159-.0288.6405.0566.8809.26367.5292.47486.5226 1.13739-.033 1.63086-.6359.56432-1.8986.25332-1.9297-.80859.053-.66974.5554-1.0379 1.082-1.08594zm-2.373.16993c.2285.012.4441.0665.5761.19335-.1801.69183.058 1.3825.088 1.71875-.4354.31298-2.2906.85952-3.2851 1.35352-.6911.23972-1.1914-.41538-1.0957-1.01367.2618-1.11447 1.8865-1.84227 3.0664-2.1875.182-.045.4219-.0765.6504-.0645zm101.7832 1.76953-3.5547 2.31836.053.0703-.053.0332 3.6504 4.88281c-.013.18178-.3028 5.10547-.3028 5.10547l.01-.0117-.01.11524 2.5165-10.9s-1.335-.92371-2.3094-1.61367zm-38.4571 1.11132c1.6531 3.7197-.2509 5.42193-2.2773 5.37696-2.2356-.0496-4.6196-2.18709-2.5352-5.2168l2.5918 2.13281zm-62.3418.50196c.6687-.0814.4718 1.38879.2207 2.14062-.2493.53747-.9862.51571-1.6484.55469-1.1702.0689-2.644 1.43028-3.2773 1.21094-.2097-.098-.3606-.65753-.3829-1.01367.1373-1.96296 3.3687-2.68329 5.0879-2.89258zm2.2618.0762c1.187-.0519 1.8208 1.15494 1.2734 1.96875-.2234.32883-.942.48678-1.543.32031-.9826-.27211-1.1318-1.6945-.2695-2.18359.1904-.0636.3695-.0981.5391-.10547zm-1.4688 3.42578c.6372.11652.3221 2.0881.2148 2.14844-.5239.19518-2.785.49317-3.7363 1.30273-2.0266 1.60246-2.8899.62485-1.9512-1.29492.8888-1.11627 4.1553-2.13297 5.3321-2.1543.051-.01.098-.01.1406-.002zm2.4375.10742c.9035-.0853 1.5357.924.9844 1.88477-.7484.7022-2.0599.18781-2.0547-.80664 0-.62493.5061-1.04527 1.0703-1.07813zm-2.0918 3.23047c.9232.003-.063 1.43355.7598 2.45117.1239.52264-.057.3604-1.0059.64258-.5229.15547-1.3452.50722-2.2012.94336-1.2555.63963-1.6068.98501-2.0527.91211-.3541-.0781-.7635-.23357-.873-.5957-.4373-1.44685.7313-2.92062 3.4511-3.9336.5656-.21067 1.5755-.3812 1.9219-.41992zm2.3672.27344c1.3147-.0193 1.5599 1.74304.5762 2.05273-2.3028.60095-2.1069-2.05448-.5762-2.05273zm-3.4395 6.22265c.9048-.0177 1.5209-.0206 1.8164.26563.37.35827.4219.94603.01 1.25195-.7595.37826-3.6757.0566-3.6953-.76953-.011-.54474.9615-.72997 1.8671-.74805zm134.4864.19727-3.5547 2.31836 3.6562 4.89063s-.3606 4.94367-.3086 5.20117 3.5528-10.04102 3.5528-10.04102zm-141.5723 5.61914c1.439 1.71144 2.207 2.83403 4.6133 3.72461.5562 25.09334.4609 82.593751.4609 82.593751l7.0762 4.855468 7.4492-5.402343c-.076-18.099391-.1477-30.584779-.2187-47.341797l10.916 6.050781s.3337.487914.2832 2.751953c-.7542 6.253257 5.2379 10.312579 9.2129 7.84375 1.5337-.650453 1.6577-.766183 1.9824-.277344.8938 1.345395 1.9018 7.106128 2.0703 10.78125.2538 5.537375 1.6969 16.82663 2.0449 16.902344l-17.7676 30.23437512h-28.123zm107.7832 1.44922-3.5527 2.31836 3.6543 4.89062s-.3606 4.943676-.3086 5.201176 3.5527-10.041016 3.5527-10.041016zm-89.6641 1.33594.625 82.269529s-3.456 2.504776-4.5605 3.224609c-.5804.21974-.8622.259435-1-.300781-.1693-.688502.1029-1.9901.3437-4.144531.2226-1.992022.2208-2.104258-.1074-4.94336-.3429-2.965312-.3833-3.089781-.1054-7.003906.3099-4.365684.3701-8.60597.027-11.230469-.3255-2.495008-.3218-8.184989-.072-11.361328.3053-3.888945.2057-7.301553-.2988-10.123047-.8996-5.030496-1.0467-6.762133-.1094-10.546875.3507-1.416313.5239-2.169486.4512-4.541015-.081-2.636831-.1292-3.498789-1.0645-9.337891-.538-3.361365-.5805-3.821745-.076-9.140625.1018-1.07325.1358-1.7922.541-2.13281.4732-.39769 5.4062-.6875 5.4062-.6875zm-6.9707.97461c-.4146 1.69746-.5064 2.98882-.5488 4.21679l-4.7715-3.16406-.051-.99414zm-5.2929 2.22851 4.7246 3.11133c.01 1.31329-.093 2.56654.096 3.878907l-4.7871-3.207027zm.01 4.9375 5.0547 3.488284c.1971 1.35845.6095 2.73214.7676 3.953125l-5.7305-3.914063zm163.4551 1.375002.2637 100.41601612h-50.3145l-15.9474-30.91797912s.1622-2.845253.5566-4.296875c.4767-1.754765.6047-2.137699 1.2734-2.220703 1.7902.935706 3.7838-.308256 4.3946-1.677734.7521-1.686293-.7702-4.238004-3.1074-4.791016-1.0307-.247531-2.1566.219244-3.295 1.095703-.6613.557177-.8075.619313-.9394.134766-.2969-1.091437.6621-4.058483 2.3789-6.605469.9549-1.416653 1.2144-1.823989 1.5234-1.285156 1.2496 2.179329 3.9285 1.729267 4.9453.498047 1.2304-1.489954.9748-4.886833-1.8125-5.78711-5.4535-1.761439-7.9568 3.76174-7.8886 3.748047l-1.168-6.623047c6.565-1.62352 10.3548-2.196238 12.4394-4.205078 1.6409-1.581007 2.4234-4.314885 2.2208-6.746093 0 0 18.2353-7.478432 26.7695-12.121094 14.6949-7.994089 27.707-18.61523 27.707-18.615235zm-26.957.765626-3.5527 2.318359 3.6562 4.890625s-.3606 4.943672-.3086 5.201172 3.5527-10.041016 3.5527-10.041016zm-22.9512.982421-3.5527 2.31836 3.6543 4.890625s-.3606 4.943672-.3086 5.201172 3.5527-10.041016 3.5527-10.041016zm-113.3105 1.88086 5.7929 4.029297c.1266 1.308573.2929 2.474255.1192 3.957031l-6.0977-4.070313zm-.1016 5.146484 5.9922 4.005859c.023 1.237148.081 2.403298-.3457 3.277344l-5.6543-3.662109zm124.6621.333985-3.5527 2.316406 3.6562 4.892578s-.3606 4.943672-.3086 5.201172 3.5528-10.041016 3.5528-10.041016zm-124.6504 4.332031 5.1953 3.851562c.075.05531-.2896 1.757113-.207 2.720703l-4.9434-3.074218zm.1406 4.763672 4.8438 3.359375c.011 1.273614.098 2.471104.2969 3.554687l-5.2598-3.445312zm-.084 4.853515 5.6015 4.023438.2949 3.234375-5.9335-3.765625zm44.4296 1.136719c.5355-.04891 1.1012.01525 1.6817.210937 5.3756 2.022737 10.4146 12.339536 10.2598 25.697266-.1074 9.273501 2.6688 22.510484 2.6171 22.357422 0 0-1.5588.21053-2-.138672-2.0247-6.809024-2.7-14.003222-3.0195-19.9375-.2623-4.948577-.5428-9.805426-.8535-10.939453-.8834-3.990921-1.842-8.646342-4.3691-11.679687-1.9692-2.287213-4.213-2.685688-5.5547-.117188-1.0989 2.103848 1.2137 5.585031 3.1347 4.427734.4642-.263314.7415-.709946.1328-.697265-1.9939.29833-3.3321-2.485747-2.0703-3.8125 2.2221-2.336588 6.1101 2.869184 4.3067 5.734375-.7943 1.239102-2.8725 1.458783-4.5352 1.001953-3.6976-1.804437-4.6242-6.221826-3.3867-9.132813.7079-1.66498 2.05-2.827884 3.6562-2.974609zm-4.8222 1.537109c.4249-.103248.1398.833467-.2637 2.101563-.9512 3.039482.8324 7.760404 3.3027 8.701172.7413.509204.7018.703785.2071.984375-1.6128.91478-4.5398-1.828851-5.3125-4.884766-.559-2.210995-.4222-4.820282.6308-5.927734.377-.515879.9194-.849151 1.4356-.97461zm-3.5723 1.742188c.4436-.01405.2777.736163.1543 2.105469-.286 3.170893.6893 5.476294 2.9082 7.390625.936.807495 1.192 1.060657.7891 1.484375-.5719.601475-2.2122-.203677-3.4981-1.556641-2.3544-2.477036-3.1335-7.153126-1.2988-8.847656.4026-.371906.7129-.568813.9453-.576172zm-36.0937.05078 5.9824 3.945313c.2782 1.231356.1556 2.543867-.031 3.86914l-5.9882-4.210937zm102.623.5c2.5559-.100268 4.7118.900403 4.9492 4.052735.3475 4.615341-3.9124 7.138099-6.8847 4.488281-2.664-2.660305.037-6.824201 3.125-4.873047 1.5526.988506-.3006 3.241057-1.5567 2.076172-.5665-.525383-.8166-.198469-.414.408203 1.2156 1.831525 3.6107.308416 3.4394-1.304688-.3369-3.171618-4.1983-3.130609-5.6523-1.888671-1.9896 1.699489-3.7434 4.201681-5.0508 6.02539-1.0706 1.582274-1.3007 1.540685-1.1426-.414062.4178-5.165854 5.2002-8.413871 9.1875-8.570313zm-69.6035 1.007813c.4071-.01487.2444.574982.2754 2.09375.1642 3.899172 1.7938 6.326985 3.8594 7.685546.6921.771617-.1955 1.318546-1.4981.945313-2.9676-.922501-5.9956-7.358014-3.4804-10.125.3526-.388289.6305-.591786.8437-.599609zm-2.8867 1.279296c.4112-.02635.1799.836256.2187 2.462891.082 3.42348 1.1302 5.066767 3.6524 7.15625.8219.680816.9242.605098.5996.982422-.8638 1.004166-3.7893-.418374-5.0371-2.46875-1.4849-2.440201-1.7039-6.120921-.3223-7.511719.3863-.388927.6734-.607305.8887-.621094zm-2.8692 1.648438c.3405.0018.1508.621242.2032 2.099609.1272 3.584774.9377 5.359289 3.1914 7.017579 1.4161 1.041917 1.7611.728482 1.3281 1.140624-.7584.722021-2.8343.103269-4.3906-1.222656-2.3329-1.987558-2.9862-6.891428-1.0899-8.570312.3381-.29941.5794-.465756.7578-.464844zm-27.1621.507812 5.7481 4.019532-.1621 3.396484-5.7188-3.90625zm97.9981 1.589844c.1294.0246.2755.170229.4258.486328.3443 1.338517 1.2297 3.194317 2.4394 3.554688.487.145097.08.826877-.3672.734375-2.3404-.483687-3.2259-2.188057-2.9414-4.119141.059-.403314.2277-.697253.4434-.65625zm-47.8223.767578c2.6388 6.70409 2.5917 14.031102 3.0293 20.953125.5816 9.20093 2.1938 15.396986 2.7207 16.441407 0 0-2.5765.0309-2.707-.345704 0 0-2.4308-12.202527-2.0645-18.236328.026-6.752257-1.2763-12.688234-2.0722-15.355468-.841-2.363319-.8778-.801645 1.0937-3.457032zm27.7735 1.189454c-1.1882.02137-3.636.674866-3.627 1.117187 0 .203103.7999.372521 2.0469.06836 1.3842-.337621 2.7629-.277246 3.8261.01758 1.131.31345 1.2571-.05332.2344-.503906-.4987-.219693-1.2926-.720576-2.4804-.699218zm18.1717.414053c.1697-.0128.3791.151519.5977.5625.1348.250362.5559.811909.9316 1.251953.7115.833188.9116.839283.5879 1.179688-.7454.783997-2.3105-.351569-2.4785-1.800782-.091-.661485.079-1.172033.3613-1.193359zm-48.9121.847656c2.5821 3.714606 2.9627 12.426375 3.0156 18.619141.048 5.576872 1.9176 15.793896 2.0684 15.75-.532.31636-1.2481.204837-1.9199-.05664-.664-.873179-1.0707-3.319722-1.8418-9.947265-.199-1.709851-.5899-7.14973-.6778-11.529297-.078-3.863834-2.2148-12.226563-2.2148-12.226563s.8301-.593957 1.5703-.609376zm23.5625.164063c-.2604.01602-.1743.907753.024 1.982422.065 2.466951.3793 1.463406 1.2421 1.070312.6501-.05585 1.1805.302363 2.3887.75 1.5385.570027 1.4011.760028 2.4824.224609.667-.330223 1.1986-.443181 1.5176-.18164 1.2643 1.036544 2.8945.452966 3.8125-.386719.7165-.377514 1.4989-.171451 2.1055-.115234.8749.08111.648-.482016.7558-1.597657.096-.990631-.2798-1.078215-1.2949-.74414-1.0388.341822-2.0691.391039-2.9707.113281-2.3056-.710294-3.9936-.249748-5.1367-.06836-2.6995.428324-2.8431.153968-3.4551-.236328-.4565-.29114-1.2102-.826645-1.4707-.810547zm-70.8047.0039 5.5293 3.646484c-.078 1.248597-.09 2.497488-.074 3.746094l-5.4199-3.871094zm44.3672.759766c2.3539 5.300798 2.7359 10.564204 2.8418 16.951171.1002 6.041492 1.4307 13.118941 1.9336 16.242188-.7946.08319-1.6336.150157-1.9668-.210938-1.3418-4.415315-1.7442-11.76675-2.1172-17.054687-.4603-7.447448-.5788-9.291181-1.625-13.003906-.5934-2.105808-.8031-2.061693-.3554-2.466797.3405-.308131.9922-.462982 1.289-.457031zm50.582.07227c.1584.06522.2924.350615.5606.703125.5978.78585.7724 1.157259.2715 1.230469-1.3257.193692-1.656.05228-1.6094-.779297.037-.663063.1821-.9222.6055-1.140625.064-.03312.1191-.03541.1718-.01367zm-53.3574 1.183594c1.9461 1.978987 2.4408 13.08073 2.6621 15.470703.7016 12.950112 1.9188 14.811208 1.293 15.783203-.7366-.01246-.9937.261291-1.4746-.388672-1.6656-4.743739-1.5684-9.617523-1.8379-14.566406-.3807-6.554445-1.0258-10.10531-1.9395-13.353516-.6068-2.159699-.5997-2.195796.4961-2.789062.1944-.105242.6258-.162371.8008-.15625zm-3.3847 1.388672c.2308-.0059.4867.04294.7636.171875.6852 1.573216 2.0631 8.724094 2.25 14.896484.1484 4.900846 1.3068 14.482866 1.5215 14.535157-.708.06495-1.5564-.08166-1.9004-.623047-2.1228-9.446846-1.4463-18.603836-3.9004-28.103516.1096-.345339.5732-.859335 1.2657-.876953zm49.9824.28125c-.8646-.06153-1.8302.137022-2.877.609375-3.2374 1.26824-4.0757 2.310065-3.5664 3.224609.429.770292 1.7173.499395 5.166-.953125 2.5776-1.085594 3.3869-.611259 3.9102 1.027344-.026 2.420081-2.3427 2.662023-3.6641 2.367187-.2106-.047-.4531-.152343-.4531-.152343s.1187.554437.5742.941406c2.5947 2.20395 5.9422-2.017956 4.3106-4.638672-.7981-1.496238-1.9594-2.323229-3.4004-2.425781zm-20.7207.779297c-.8578-.02971-1.6699.171932-2.4785.8125-2.6711 2.115966-1.7172 5.927941.5058 6.5.6187.317195 1.5408.167631 1.9024-.07422.3335-.223042.331-.586616-.3516-.701172-2.0638-.34635-3.2358-1.874505-2.2383-3.423828.9681-1.503497 2.7609-1.214624 6.209.285156 2.9812 1.296615 4.2875.89639 4.6387-.660156.1551-.687307-.033-1.33126-1.4629-1.384766-2.7347-.102321-4.8376-1.28816-6.7246-1.353514zm-67.3887.277343 5.7344 4.150391.1211 3.541016-5.8516-4.191407zm101.4551 3.16211c1.821.08921 2.9781 1.240648 3.0293 2.542969.1151 2.929767-3.3489 2.95971-3.8223.666015-.1773-1.097212-1.9442.02851-3.1152 1.972656-1.152 1.912522-1.2714 2.1851-1.5059.199219-.3496-2.961224 2.696-5.277364 4.5957-5.351562.286-.03328.5582-.04204.8184-.0293zm-101.582 1.458984 6.0722 4.208985s.2052 2.256502.074 3.46875l-6.0976-3.9375zm79.6777 1.017578c-.1841.01235-.3798.06574-.584.167969-.4408.220692-.7715.42987-1.709.195313-1.423-.300707-3.1308-.622145-4.4668.0332-2.641 1.807853-1.0896 5.107203.7578 5.478515 1.9476.391453 2.0845-.979989.1485-1.384765-1.0352-.410334-1.3001-1.405737-.8965-2.173828.9234-1.524832 2.6318-.537849 3.625-.0625 2.2039 1.05834 3.3451 1.446737 4.041.714843 1.0821-1.138059.3725-3.055194-.916-2.96875zm-79.627 3.988282 5.9746 4.126953-.1836 3.65039-5.6074-4.154297zm.1231 5.015625 5.6191 4.041015c-.083 1.542247-.045 2.157929.016 3.140625l-5.6816-3.703125zm99.3594.777343c4.5059.444491 3.013 5.669892-.1329 4.259766-.8391-.636948-1.0912-.586441-2.0234 1.705078-1.1923 2.930933-1.4841 2.693005-1.3203-.693359.12-3.315521 1.629-5.245736 3.4766-5.271485zm-10.2852.572267c1.2346.0505 2.4915 1.16363 3.4844 3.539062l-1.3633.08203c-1.2226-2.966657-2.9526-3.4111-4.4199-.480469l-1.0567-.306641c.9082-1.872819 2.1209-2.884485 3.3555-2.833984zm-3.3281.154297c.6972-.04256.6066.281819-.1192 1.283203-.6309.870602-.7839 1.008279-1.4179.533203-1.0399-.779189.6882-1.758634 1.5371-1.816406zm-18.6758.01367c1.1375-.03475 2.227.732682 2.8027 2.746093l-.8047.117188c-1.2162-2.734158-3.7434-2.109011-4.5234.429688l-1.1113-.126954c.631-1.750975 2.1741-3.121342 3.6367-3.166015zm-3.209.05664c.1064.0027.1927.01967.2461.0625.3043.344667-.6101 1.707712-1.3848 2.507813-.5711.378202-1.958-.642761-1.6211-1.140625.3936-.484683 2.0335-1.3554 2.7598-1.429688zm28.3418.01758c.1333.0081.2888.0204.4648.06445 1.4047.350474 2.0484 1.022972 1.3594 1.884765-.4294.537163-.8461.748406-1.1289.388672-.9476-1.577246-1.473-2.385077-.6953-2.33789zm-22.1055.529296c.3565-.04234.8083.161289.8848.404297.147.587096-.313 1.003895-.8262.515625-.209-.198885-.3911-.53754-.3652-.787109.08-.07634.1878-.118699.3066-.132813zm-70.1543 2.421875 5.7774 4.1875c.1897 1.475152.2276 2.594172.2187 3.601563l-5.9472-3.976563zm82.4668.410157c.3396-.0024 1.1371.436164 1.7403.857422 3.3274 2.301188 7.2292 2.27114 9.6699.25.5455-.451694 1.0204-.47129 1.0293-.03711-.3475 1.613177-4.59 3.682307-7.9043 2.509766-1.8207-.644135-3.317-1.283352-4.5117-3-.2663-.419207-.2267-.578637-.024-.580078zm.1485 1.96289c.049-.0063.1112-.000739.1836.01758 4.8635 4.234562 8.7298 3.057219 11.6601.921875.4326-.109096.4388.2845.5352 1.015625.1235.936684-.6469 1.39837-2.7539 2.035157-4.0737 1.231148-8.8521-.11563-9.7129-2.873047-.088-.474425-.259-1.073184.088-1.117188zm-82.6367 2.552735 5.8574 4.054687-.1875 3.09961-5.7051-3.892579zm.094 4.748047 5.5293 3.783203-.018 2.564453-5.3789-3.867188zm96.8691 1.115234 14.5332 28.7695311-87.5859.1191407c5.7198-9.3504011 10.4787-19.5749448 16.3418-28.8007818 23.5876 5.386132 40.3056 2.830019 56.7109-.08789z" fill="#004c97" stroke-width=".164046" transform="matrix(6.12174 .126426 -.125264 6.0662 -11912 786.077)"/><path d="m4255.875-243.09375c15.4599 26.56076 27.6507 54.00062 41.5634 81.17108l2.2284 1.42972 3.3326 6.28591.3709 3.05662 8.2498 13.1942-.053 2.83323 34.9955 65.09174c28.864-10.774782 265.9605-30.175 353.75 1.5625l12.7861-21.670273 3.0594-.02129 22.5478-39.553617-.3591-3.32728 7.588-8.65139 1.1018-3.94044 24.8801-38.93451.088-6.27661 31.1205-51.87459zm536.8438 7.46875s-16.23 31.20139-24.5938 43.8125c-6.7681-5.33823-26.3896-1.71394-25.2188 18.96875-31.9866-12.11632-39.6997 26.03653-14.9687 34.625-12.6914 11.0802-24.8203-1.45171-34.4425-9.94959-9.4118 2.33142-28.9517 9.24656-40.0168-11.10348 0 0 4.6252 2.49704 9.2406 5.20932 26.1637 7.95372 28.2733-27.3455 8.8124-33.125-2.4503-.64422-7.0624-.90625-7.0624-.90625 6.5415-27.14543-35.4554-36.62205-36.25-4 0 0-4.9929-.8155-8.7813-.125-22.2629 4.05776-17.1619 36.88394 5.5937 35.3125 3.1358-.21655 5.9376.34375 5.9376.34375-.371 5.25727-27.9108 15.30285-47.75-2.78125-9.4088 7.16578-24.3016 16.14787-43.7188-1.71875 12.7697-.5195 25.0149-4.15295 24.875-18.625-.091-9.42272-8.565-17.83349-20.7812-18.28125-.6929-10.52787-8.5332-20.57292-18.7188-21.34375-12.4314.72545-18.7885 10.75357-18.875 21.34375-10.5706 1.0918-20.4606 10.40781-18.1875 21.09375 3.101 14.57811 14.3342 16.37152 27.1563 13.59375-15.5962 25.06811-40.9879 11.99231-48.8126 4-9.3227 8.69639-25.5757 20.47168-45.5937 4.375 10.6686-1.82533 22.5331-8.0829 20.5313-22.96875-1.5777-11.73136-14.7467-15.21423-20.4688-14.59375-.013-7.75117-5.868-20.5398-19.6875-19.21875-15.0793 1.44147-14.1777 20.50595-14 20.65625-12.4527-1.02647-21.4892 13.61903-17.9375 22.96875 4.3222 11.37785 13.3719 14.91536 30 11.84375-19.4006 18.20444-31.723 11.13847-42.3125 7.3125-9.373 9.8221-21.8881 12.99014-34.7187 4.28125 28.7001 1.36768 24.1347-49.36505-9.9063-30.96875-24.2096-28.48079-23.771-15.82522-45.4687-57.71875zm-267.4688 50c1.388-.0578 2.8637.23037 4.3125.96875 4.4887 2.28383 5.3299 6.26927 2.5937 12.15625-.9619 2.06785-2.3508 4.43987-2.125 6.625 31.604 58.27937 101.2857 32.23334 107.8438 5.15625.4159-1.71721-.3817-3.59694-1.2812-5.4375-2.6785-4.45451-2.3247-8.10288 1.1562-11.15625 7.4156-6.50455 18.0542 1.1725 13.75 9.9375-1.1362 2.31249-2.332 4.84537-1.4688 7.9375 17.891 40.61656 53.5124 43.66839 83.4063 27.59375-13.7712 24.6529-67.1481 39.768405-89.5625-19.59375-35.7744 48.3609-92.5455 47.44773-118.3125-7.15625-23.1743 55.85199-93.0848 57.17361-118.5313 10.78125-23.1621 53.072841-76.879 41.03169-92.0937 7.8125 49.8995 36.1086 82.7788-1.58557 88.6875-17.65625 0 0-1.1593-1.87636-2.75-3.4375-6.3848-6.26593-6.2095-13.63702.4062-16.5625 8.4751-3.74766 16.4127 4.38844 12.0626 12.375-1.2186 2.23711-2.3 2.72757-1.5 4.65625 15.5297 36.19029 92.0081 46.7053 107.5-4.0625.5249-2.90055.2251-5.58135-1.0938-7.78125-3.635-6.06345.9855-12.90605 7-13.15625zm-223.25 20.5c12.063.68482 8.6982 11.05644 6.2812 11.84375zm447.9375 6.46875c.082.1949-7.4375 13.4375-7.4375 13.4375-3.9821-6.35793-2.9485-14.27356 7.4375-13.4375zm-40.7813 66.90625s-7.7028 17.037454-10.25 18.46875c-142.8859-36.60006-342.2531-4.776206-347.1562-1.25l-8.7812-16.53125c125.2838-25.0289 250.1985-19.68281 366.1874-.6875zm-241.375 253.1875c-13.7945 53.2079-47.1918 58.62193-87.5312 65.09375-49.9628 8.01573-82.5231-10.18657-97.75-38 0 0-71.4557 26.99964-97.5312 42.6875 54.2156 24.83763 125.8443 79.83438 166.5624 142.28125 14.5063 19.04119 13.7739 14.73321 13.75 56.5-.057 90.57464.1563 124.25.1563 124.25 22.3689 3.35127 23.5943 18.73286 22.375 36.00971 17.9542-7.92825 35.2297 1.77362 35.153 18.71551-.1409 31.14006-30.7383 22.67969-37.0926 19.2479 9.9514 27.44749-1.7295 38.81219-13.6536 40.16024-14.7008 1.66197-31.5639-5.4056-26.6482-36.81973-36.4205 8.67529-38.2335-25.77046-39.9149-56.03238 39.6385-74.57699-10.1214-135.21538-56.8437-155.15625 0 0 13.2185-27.32847 30.3125-35 1.7389-.52441-10.3652-18.27479-30.7188-14.40625-9.3672.19345-7.1875.12923-16-11.3125-17.4196-22.618-25.621-24.16786-42.5937.0312-7.4711 10.65214-9.257 10.94255-18.0937 11.125-9.7355.201-24.6746 7.19202-27.875 13.4375-.7328 1.42868 3.0847 2.88794 8.1562 8.8125 7.2971 8.52454 18.5571 20.23408 16.7812 32.15625-38.4764 15.65252-102.3011 84.33871-35.1874 172.28125l-48.5313.625-2.3125-313.0625-33.75 18.78125 1.5 245.21875-9.625-3.1875c.7393-78.21767-.4405-156.38327-2.9062-234.5625l-89 64.84375 3.9687 367.6875 9.4687 2c7.0234 50.09859 106.2681 15.06046 112.0626 19.40625l1.1874 204.3125-4.3437 10.125 78.9687 43.15625 72.4376-37.5625s9.7769-1.75892 13.4374-3.6875c30.0365-15.82593 52.4208-12.27586 68.75 10.9375 10.074 14.3208 11.7813 16.4375 11.7813 16.4375 6.106-41.31833 42.7452-56.54631 78.2813-45.75 26.1377 7.94103 61.8518 33.98487 72.7812 65.7813 0 0 1.9651 4.7849 3.9062 6.9375l1.5.6563c-.093-.8285-1.7252-4.7914-2.3437-6.7188-36.653-84.17422-139.9418-97.08362-155.875-28.3126l-14.625-20.49995 76.9063-47.15625 105.0937 69.1562s-4.9396 24.3106-5.5 34.8126l1.8125.8438c.7261-12.7186 4.5335-27.2559 10.5625-38.0314 2.4879-4.44208 5.3692-8.0573 8.5937-10.74995 6.2766-3.64542 12.0982-3.27176 18.4688-9.25l-15.3438-11.46875-.3437-36.8125 30.8437 43.1875c9.6979-2.24318 47.4712-13.51406 69.875-1.03125 2.5297.78285 35.3871-8.58335 55.8438 37.24995 36.1358-15.20366 76.4444-31.15703 104.8438-45.37495-98.2182-36.24189-197.3876-164.56095-187.8438-166.625 0 0-.2905-13.1669.4688-45.46875.7951-36.00624.3622-72.76224.9687-108.89006-33.4259-10.67136-25.1164-37.60994-25.1164-37.60994-20.0923 4.40748-23.2959.5056-28.3836-3.03125l-3.4687-34.09375c12.049-10.25144 19.2783-11.20594 34.1874-7.9375 0 0-7.2287-14.81254-.6562-27 5.5343-9.63963 20.2679-15.72425 32.0312-8.9375 14.7956 9.69033 12.3315 28.96206 8.4943 34.57477-.095.1169-.2215.36097-.2605.5059 15.7684-6.93124 35.0982.88597 39.8288 16.45058 2.3667-46.2108 6.3833-97.94416 15.6562-138.25 17.0989-72.74732 45.0922-148.93176 80.1562-208.84375 9.2729-15.66508 18.591-27.52705 27.0626-43.15625 0 0-7.4994 4.12968-15.4376 6.34375-11.4151 3.09535-20.0098 6.04179-21.3124 7.34375-8.3496 7.0279-19.3036 12.23571-28.25 16.125-31.5467 12.27641-52.7539-6.03202-65.8515-33.99323-7.2909 35.51156-39.8357 65.55943-87.8328 46.88653-27.1184-14.3915-35.6438-23.59364-61.0033-61.1433-2.1297-3.8383-7.625-8.25-7.625-8.24995zm1.0454 5.80391c17.9465 35.47908 44.8116 60.61679 70.9265 70.66547 46.6264 15.28375 77.3838-14.56645 86.0561-41.99092l8.9982 15.23591-70.5972 50.12089-106.5278-67.71994c1.7815-1.63237 11.3079-25.49302 11.1442-26.31141zm320.5796 2.44609-31.625 18.625s-21.0059 33.89327-28.0624 46.65625c-36.8948 65.15908-64.5894 136.04775-79.0313 206.375-12.9154 58.24244-17.6648 130.31656-16.2813 179.375l2.4688 2.6875s-3.8762 6.80069-6.6562 12.53125c-7.5526 15.57334-9.3978 24.38094-8.9376 42.4375 1.0529 41.55012 26.3133 81.32288 62 97.53125 2.0109.91329 4.6876 2.09375 4.6876 2.09375s-6.117 16.5398-17.2188 28.1875c-7.4057 7.76853-8.9931 8.14819-6.375 11.96875 3.6412 5.31655 15.3971 9.93324 30 9.71875 5.1682-.0758 5.1362-.0892 14.6875 10.3125 18.6465 20.3068 24.2519 19.88975 41.2187-3.125 5.0435-6.84127 7.9139-8.48012 15.2813-8.65625 10.8376-.25859 30.6179-9.00496 30.5313-13.09375-13.344-5.90857-28.8022-36.36604-26.3438-36.6875 72.965-38.60621 88.4264-118.62739 35.1348-177.46875l50.8964-.8125 1.875 319.21875c9.9656-6.61466 32.5-20.84375 32.5-20.84375l-.7452-248.40286c3.4999.6638 7.0658 3.17082 13.8702 4.27786l2 236.53209s65.3953-46.0947 96.5-70.15709l-1.9062-361.96875h-7.4375l1.1875 361.78125-86.4062 63.09375-.5626-224.84375s6.8259-1.0183 9.375-1.375c25.2898-3.53852 37.0042-35.786 20.2188-56.84375-5.9582-7.4746-1.7307-6.94546 10.9375-9.375 22.4671-1.98014 34.9082-18.96082 28.375-31.0625-2.8026-5.19104.8455-4.63037 3.2187-9.5625 1.5565-3.87897 1.2641-8.68957.5938-12.5-.88-5.00061 1.1708-7.21438 2.4375-10.40625 1.9841-4.99983.059-10.64829-3.25-15.34375-3.4925-4.95555-2.529-10.27488-2.5625-13.5625-.1518-7.35133-2.811-8.40105-10.5938-15.5-5.888-5.37069-1.1622-6.54204 7.5-11 13.6286-7.0138 14.5669-31.8349-3.5624-42.40625-22.7107-9.26143-58.1762.81766-97.0313 4.65625 0 0-.1274-141.52093-1.125-214.46875zm0 5s77.5815 45.3851 76.9688 46.65625c-26.055 35.68473-123.2358 177.87483-123.9375 349.8125-71.2639-8.94282-100.4424 46.77395-103.9063 46.5625-9.3656-210.45704 76.0496-361.03071 119.8126-424.9375zm-51.0426 23.13688.1328 11.60296-15.5664 24.70776-.5977-26.03502zm-21.6448 12.55062.5624 37-31.5 24.0625-.8868-38.59375zm-291.9688 8.46875 16.1875 11.1875-.5625 36.71875-24.375-44.34375zm443.125 12.375.125 26.5625c-62.1062 87.60162-94.6944 187.65908-104.6562 314.375l-15.125-.5c4.002-126.0043 46.4229-240.97187 119.6562-340.4375zm-420.625 2.71875 38.3125 25.03125-1.6563 41.875-34.7812-22.3125-3.25-8.5625zm231.9375 1.78125-.1563 38.9375-29.5937 21.96875-1.375-38.65625zm-358.6875 10.1875c4.3898.053 7.8966 3.24989 8.7188 9.3125 3.2493 25.87938 22.941 18.40958 27.625 26.1875 1.7716 2.6536-2.4276 4.95918-15.9063 3.875-24.7125-1.84843-42.7258-21.83556-30.0937-35 3.2466-2.98287 6.6527-4.41124 9.6562-4.375zm170.7812 16.6875 32.7188 20.84375-.094 43-32.0624-19.5625zm149.2813.125 2.5313 38.03125-35.8126 23.8125-1.2812-37.78125zm68.1563.15625-20.5626 43.78125-119.9687 86.3125-99.5625-64.46875-18.4688-42.25 116.1563 75.78125zm-323.5313 17.375c31.8803-.3908 56.3456 33.44626 64.7187 63.09375 6.0878 19.60371 7.0136 26.65894 7.6563 57.78125.6572 31.70344 1.6518 37.17688 7.5937 41.65625 3.6608 2.75852 4.725 2.01391 5.1876-3.59375 1.0328-12.45738 15.9254-4.78105 16.1874 8.34375.2888 14.57774-15.7604 19.26165-27.625 8.0625-6.3183-5.96275-6.3997-5.90557-8.375 5.8125-1.316 7.84936-10.4637 56.99026 12.9063 69.21875 4.4002.41646 5.4544-3.11213 2.1875-7.21875-6.558-8.23768 6.5409-17.74399 17.2188-12.5 12.9049 6.33914 11.5979 27.1375-2.1876 34.53125-15.7691 8.45905-36.1607-1.15447-45.6874-21.53125-6.9909-14.95796-6.9604-35.69727.125-66.5 3.2655-14.19674 4.7023-23.23723 5.4374-34.125.2414-3.57437.6649-7.46651.9376-8.65625.7605-3.31838-.8768-3.47545-6.5313-.625-15.4304 7.77862-32.2599 2.25023-36.4063-11.96875-4.9573-17.00042 13.9907-34.5644 25.6876-23.8125 4.4403 4.08075 3.9014 8.13401-1.4063 10.75-9.1984 4.5316-6.0568 16.45291 3.7187 14.09375 32.2294-9.64489 2.7626-100.08206-33.5312-106.34375-23.9958-4.13996-42.8339 23.19261-25.4688 37.8125 6.8031 5.72763 13.7067 2.65414 12.2188-5.4375-2.072-11.28697 12.9223-10.06748 18.4688 1.5 9.0233 18.82363-14.273 34.14436-36.0313 23.71875-39.0498-23.18847-12.3553-73.35116 23-74.0625zm144.5313 7.1875 32.1562 21.59375.2812 41.96875-31.9374-18.9375zm70.8437 3.625.1563 38.53125-31.0313 22.5625v-41zm83.5937 25.25-15.875 44.21875-100.1562 68.5-82.625-51.8125-14.2188-40.90625 97.3438 63.0625zm-650.0312 3.21875-.031 223.84375c-32.4536 1.3813-51.0851 33.48118-26.7813 63.8125 0 0-4.2353.57094-9.1875 1.25-21.9544 3.01076-36.6608 14.64734-33.75 28.75.8915 4.3207-.011 8.68561-1.25 10.84375-1.9542 5.79588-1.4376 10.22258 1.1875 15.21875 2.0609 3.92379 1.7182 5.50077.5625 8.40625-2.4902 6.25554-1.895 11.07595 1.0312 15.84375 3.6154 3.53739 2.6114 6.39343 2.125 12.0625-.5793 8.00657.8596 11.22767 5.9063 14.34375 6.5055 4.01676 8.9298 10.6038 1.5313 10.0625-3.6722-.26867-16.5938 12.1875-16.5938 12.1875l-1.219-359.21875zm175.9688 28.71875c5.8077-.0148 11.7883 7.2809 20.375 19.59375 5.1907 8.81867 5.281 7.62244 17.1562 7.15625 12.1291.88353 19.5164 4.08651 22.6875 7.75 1.1982 1.38702-1.983 1.74861-9.6563 9.53125-7.9551 8.07088-9.0591 11.28013-14.3437 20.3125-1.9031 3.25677-6.0556 3.56415-8 .59375-1.571-2.40354 2.4529-10.22096 10-19.4375 10.6471-10.27634 8.4101-11.31213-7.0625-9.6875-10.8694 1.14128-12.0304.59843-16.1562-6-12.3056-24.46379-18.8427-23.63775-30.625.75-3.2139 6.82496-1.9365 6.38651-15.875 5.3125-10.9764-.84557-13.6915 1.92349-7.5 7.6875 9.67 7.93791 13.4374 26.66515 12.9062 26.4375l-7.4688.6875s-2.282-4.2172-3.2812-6.875c-2.0245-5.38012-7.4671-13.46366-13.375-19.84375-8.368-9.03953-3.7711-13.98422 14.9062-16 10.4091-1.1233 10.6466-1.267 15.4376-8.28125 8.4372-12.35638 14.0672-19.67264 19.875-19.6875zm454.3124 22.28125-10.7812 38.1875-85.4375 59.90625-69.5-46.375-9.2187-35.90625 79.8437 50.5625zm-294.5624 30.25s24.6961 48.10847 33.6562 79.28125c7.7945 27.11898 18.6324 105.63637 15.7812 110.46875-6.0705-8.33067-26.1335-6.45167-26.4062-6.375 1.6987-9.19829-5.7348-27.73722-22.8438-31.40625zm281.0937 17.59375-8.5313 37.59375-72.75 52.59375-60.0312-41-7.875-36.34375 66.4375 44.375zm-422.9375 2.09375 9.4375 3.28125 1.7813 67.90625 72.7812 12.09375 1.6562 11.625-84.2812-13.59375c-.8836-28.95912-1.375-81.3125-1.375-81.3125zm-36.9375 2.03125 2.0313 78.96875c-.7872-.26241-60.6727 8.27276-83.5938 14.28125l1.3438-10.8125s41.6287-9.05342 71.7812-12.53125c0-22.08233-.1734-45.30751-.2188-67.8125zm677.125 14.53125s9.904.92081 31.0937-2.8125c54.6275-9.55755 69.4233-5.68461 76.4063 11.15625 7.6301 26.11348-20.9999 26.74537-26.1011 10.16834-3.2456-10.7436-14.9776-8.39097-54.1489.89416-33.5006 7.94096-54.7277 1.58366-54.3195-17.39416.4196-19.51251 22.6477-21.23824 27.0695-2.01209zm-448.9375-14.28125c6.7549-.0981 12.3394 5.30758 12.4375 12.0625.098 6.75492-5.3076 12.30815-12.0625 12.40625s-12.3081-5.27633-12.4062-12.03125c-.099-6.75491 5.2763-12.3394 12.0312-12.4375zm-177.4688 2.15625 8.625 2.59375s1.2714 51.51128 1.5313 51.59375c18.5609 4.09107 57.5313 11.40625 57.5313 11.40625l2.0624 10.1875c-16.3125-3.82917-68.3124-12.34375-68.3124-12.34375-1.6225-22.33895-1.4376-63.4375-1.4376-63.4375zm-62.9687.96875s.033 41.10497-.6563 63.1875c.2902-.19338-44.1272 7.07181-66.6874 11.75l1.75-8.25c17.8404-4.02786 37.258-8.06818 56.9062-12.1875-.3896-16.16813-.375-51.625-.375-51.625zm31.7187 8.84375c5.4237-.0788 9.9213 4.29509 10 9.71875.079 5.42366-4.2951 9.85873-9.7187 9.9375-5.4236.0788-9.8587-4.23259-9.9375-9.65625-.079-5.42366 4.2326-9.92123 9.6562-10zm739.125 25.65625c6.0435 8.95306 11.1087 8.68588 17.0626 7.8125-1.4998.4412-8.5273 4.59645-8.125 5.96875.2011.6862-2.9651 12.00449 1.8437 12.46875 18.128 1.7501 8.9547 20.5749 11.125 23.46875 4.9011 5.58512 8.4863 9.12837 5.125 16.09375-2.9812 6.18267-7.2633 5.98711-3.9375 11.28125 7.2234 10.85778-2.7558 13.10948-1.875 20.5.6071 4.46212 2.1772 10.55935.5312 14.03125-4.9623 10.46597-22.4881 16.43433-41.9687 17.25-2.7758.12422-.67-4.41173-1.9687-7.28125-4.8162-3.04495-2.1798-8.17456-.5626-11.53125 1.5978-4.45648 1.6117-4.46002-1.375-6.71875-8.3134-5.16569-7.8859-7.54759-7.2187-11.28125 1.8219-11.03607.1079-12.11623-3.2187-13.75-4.2625-2.09345-3.6793-6.7488-1.7813-12.71875 1.3099-4.12704.3826-5.16061-1.625-8.90625-1.1815-2.20177-1.5334-3.3987-1.5625-4.8125.5989-5.69922-4.5079-5.67917-11.6562-.0937-6.0616 10.44483-8.1424 24.15235-11.9376 32.8125-2.9363 6.65194-3.4018 13.60169.094 28.9375 6.7098 23.44074 1.7271 27.34909-24.6562 22.34375-19.8408-4.87988-25.7015-26.05247-20.1876-51.96875.8923-4.19201.6476-8.24576.25-11.53125-2.159-17.84083 2.4528-34.97751 14.9063-46.6875 20.7857-19.54473 31.0626-22.52209 74.0313-19.78125 16.816 1.18932 18.0937 2.25 18.0937 2.25s.073-8.09177.5937-8.15625zm-309.4687 5.375-5 36.34375-41.0204 28.2006c-18.0606-16.68247-37.2108-11.14867-46.3546 6.33065-10.5888-5.36858-31.75-20-31.75-20l-5.4063-41.21875 58.6563 40.6875zm-428.7813 8.625c5.4225-.0788 9.8588 4.26384 9.9376 9.6875.079 5.42366-4.2339 9.89-9.6563 9.96875-5.4237.0788-9.9212-4.23259-10-9.65625-.079-5.42366 4.295-9.92123 9.7187-10zm422.0313 37.21875-2.2187 35-14.3438 10.78125-18.4974-.93245c1.7106-8.90316-1.015-21.16712-.835-21.28528zm-422.2813.28125c5.4237-.0788 9.9213 4.29509 10 9.71875.079 5.42366-4.2951 9.85873-9.7187 9.9375-5.4236.0788-9.8587-4.23259-9.9375-9.65625-.079-5.42366 4.2326-9.92123 9.6562-10zm39.5626 1.09375c5.4222-.0788 9.8587 4.23259 9.9374 9.65625.079 5.42365-4.234 9.89-9.6562 9.96875-5.4237.0788-9.8886-4.26386-9.9688-9.6875-.079-5.42366 4.2638-9.85873 9.6876-9.9375zm-78.6563 1.875c5.4236-.0788 9.89 4.26384 9.9687 9.6875.079 5.42366-4.2326 9.88998-9.6562 9.96875-5.4236.0788-9.9212-4.26384-10-9.6875-.08-5.42364 4.2639-9.88998 9.6875-9.96875zm730.5937 1.59375c2.7677-.22349 6.8659 3.88122 4.875 10.03125-2.6672 7.01882-.7935 9.40522 3.6563 15.09375 3.765 4.81298 3.0998 5.48086 2.5313 8.5625-.8659 20.20556 12.1513 11.47349 6.5 26.15625-1.2299 3.19504.4 7.75729.9687 11.53125-1.2714-3.45583-25.2168-3.13949-27.25.375-3.4073-.50817-7.7234-23.00201-4.2813-25.96875.4429-.009 2.9369 3.85725 4.2188 6.03125 3.2162 5.45457 3.908 5.25537 2.9062-1.0625-3.9773-25.07586-1.5953-50.59575 5.875-50.75zm-612.2812 1.75c5.4236-.0788 9.89 4.26384 9.9688 9.6875.079 5.42366-4.2639 9.85873-9.6876 9.9375-5.4236.0788-9.8587-4.23259-9.9374-9.65625-.079-5.42366 4.2326-9.88998 9.6562-9.96875zm-159.125 1.8125c5.4237-.0788 9.8578 4.26386 9.9375 9.6875.079 5.42366-4.2325 9.85873-9.6563 9.9375-5.4227.0788-9.9212-4.23259-10-9.65625-.079-5.42366 4.2961-9.88999 9.7188-9.96875zm385.25 2.84375 29.4375 19.09375c.4044 5.31032-1.1698 7.08691 1.6875 17.5625-19.2119-1.79087-28.9366 9.15568-28.9375 9.15625zm-209.6875 30.53125-2.2813 10.375c-58.002-14.92844-122.8325-15.71471-184.7812.6875l-4.8125-10.90625c62.5688-18.97462 129.0512-19.6716 191.875-.15625zm-274.625-.65625c8.4464-.14657 17.078 3.00006 23.1563 9.8125 11.4198 12.79428 5.9243 36.52095-10.2188 44.0625-24.1564 11.28608-49.3202-12.8471-39.0625-37.71875 4.2592-10.32717 15.2654-15.96778 26.125-16.15625zm597.8437 3.03125-.375 10.40625-7.3437-6.125zm-153.7187.46875c10.6502-.15467 19.4078 8.38116 19.5625 19.03125s-8.3498 19.40783-19 19.5625c-10.6494.15466-19.4078-8.34991-19.5625-19s8.3506-19.43909 19-19.59375zm-443.5937.625c-2.5952.0368-6.9143 1.09696-8.875 2.90625-5.1404 4.74335.023 4.87779 6.8124 6.125 12.0566 2.21486 15.3783 12.59699 14.2813 23.8125-.997 10.19286 2.4276 10.03416 5.1875 6.25 11.2362-15.40259 1.6441-37.84916-17.4062-39.09375zm178.5312 11.1875c14.4288-.29796 15.9423 23.42885 3.1875 49.9375-3.8347 7.96966-5.7918 6.9777-10-5.0625-10.373-29.6783-8.1196-44.56669 6.8125-44.875zm33.375.6875c2.7825-.14068 5.4794.92126 7.6875 3.4375 7.7574 8.84283 1.791 23.15599-18.875 45.1875-5.024 5.35585-7.6247 7.39941-9.4687 7.4375-5.1737.10684-5.1513-.75275.7187-19.875 3.8206-11.25616 5.7079-35.52551 19.9375-36.1875zm-46.75 41.53125c1.5842 4.60668 2.6355 8.9891 2.375 9.71875-1.2745 3.53706-10.4854-1.2717-17.0625-8.90625-13.244-15.37566-18.5245-28.75014-15.7865-35.93087 4.0158-5.75035 15.279-9.06427 19.0249-3.27452 7.0933 10.96368 7.0649 25.42131 11.4491 38.39289zm85.8125-35.625c13.961 8.23326-2.1227 27.03039-33.4063 42.625-13.3848 6.67273-12.429 3.66719-2.2812-9.5 3.8838-5.03935 9.085-13.24033 11.625-18.25 5.6153-11.07527 11.2366-22.15531 24.0625-14.875zm-139.375.0625c4.4324-.0362 8.9674 4.70472 17.375 16.875 6.062 9.08761 16.8663 18.34102 20 26.03125-1.4426 8.5329-44.9926-18.49864-48.125-29.875-1.0764-6.93768 4.3827-13.14217 10.75-13.03125zm623.3125 24.75c7.8535 16.15132 8.5297 26.19213 2.0312 29.84375-9.2313 5.18858-21.1039-2.72384-21.3437-14.21875-.08-3.86177-4.0516-17.33816-7.6875-26.09375-2.9939-7.20517-3.4024-11.65207-.9408-12.00859 9.6271 1.54084 23.8755 14.88949 27.9408 22.47734zm-52.125-12.25c-4.4607 11.44348-5.0241 26.21438-8.4062 35.34375-6.337 17.10561-26.8448 3.02839-19.9063-14.125 6.259-15.46544 22.1859-31.56384 28.4611-32.09691 4.293-.36469.2826 9.52513-.1486 10.87816zm12.7117-8.86321c3.146-.31038 5.785 6.56605 9.8508 18.14446 5.4921 15.64023 5.263 27.83916-.6563 33.03125-12.6873 11.13069-26.001-5.02989-20.875-25.34375 4.0987-16.23525 8.1149-25.4802 11.6805-25.83196zm-425.7117 2.86321c15.7939 232.45695-103.3718 411.30001-111.8617 416.17915l-40.5476 22.17155-71.1293-38.74486c73.7058-101.06447 117.7647-216.89955 121.1011-351.41834 68.1853 6.61998 103.2628-47.94477 102.4375-48.1875zm390.7565.73818c4.9739-1.36362 1.5029 2.98063-3.431 10.0948-5.265 7.59153-12.0996 28.23123-17.5195 31.53773-12.1597 5.84516-25.9189-5.29372-18.542-14.97305 6.7927-8.91276 26.7535-23.16704 39.4925-26.65948zm72.3373 1.57432c1.9089-.008 5.4741 1.25061 10.6562 3.78125 25.3181 12.36379 37.8042 28.67167 26.9698 36.47199-7.6073 5.47701-15.7411 1.22837-23.3448-13.19074-2.5805-4.89776-7.2958-12.16741-10.4375-16.1875-5.6977-7.28562-7.0232-10.86225-3.8437-10.875zm142.3437 8.28125c16.2707-.2363 29.6387 12.72905 29.875 29s-12.7606 29.66995-29.0313 29.90625c-16.2709.23631-29.6384-12.79155-29.875-29.0625-.2363-16.27095 12.7603-29.60744 29.0313-29.84375zm-8.9645 7.64766c-19.1458 8.48154-13.3789 38.54063 3.1208 42.88359 6.9684 1.95006 15.4466-.94985 11.9525-4.30173-21.7981-6.8404-21.9385-22.90906-13.1574-34.66897 1.411-1.88963-.4814-4.54836-1.9159-3.91289zm-797.5108 41.34586c-.7442 16.98857 2.8765 36.6642-5.181 55.13148-12.356 28.31912-51.8027 41.29646-72.9062 38.78125-4.3956-1.80536-9.5169-3.51624-13.8512-1.67731-2.6221 1.11244-5.8559.97037-8.653-.33105-2.698-1.2553-5.2876.38914-7.902-.55414-3.0585-2.06633-8.0557-6.75846-7.4688-10.25.9546-4.92336.5744-8.57159-5.1875-10.1875-7.9844-2.23825-9.5997-6.55061-7.25-19.1875.5077-2.73026 1.1198-3.96646-.6563-5.15625-5.8806-3.94133-8.1123-11.22938-4.25-18.90625 2.5182-4.42274 4.1469-6.13605.4793-10.5262-2.8422-3.40223-2.0167-6.11971 1.8337-11.2863 4.1031-4.90402 4.8187-5.46533 2.1874-9.65625-5.9131-9.41953.7872-16.36965 8.75-20.25 10.6687-4.37618 19.9906-6.63426 31.25-7.9375 4.1881.23566 4.0101 3.91917 6.5313 7.46875 3.7077 5.76584-1.5199 14.10569 1.5 17.0625 4.362 2.01278 6.3447 6.03262 6 9.46875-.152 8.00434.3317 10.74289 2.5 14.09375 2.4013 3.71102 3.3052 10.52741 1.0625 15.16054-1.9965 4.12443-1.7789 3.8449.8438 6.27696 2.5957 2.40706 3.8742 14.47469 2.9519 14.24412l10.9501-1.00277c-1.1427 1.21851 4.118-22.56497 16.5987-40.95178-.688-14.40487-6.176-27.65059-5.6883-46.67428 27.0512-9.68516 46.5866 13.31235 45.5556 36.84698zm420.1628-32.36852c3.9057 3.06634 23.2907 8.46196 24 7.84375-.6073 9.28319 5.0435 27.31778 25.25 33.34375.2431 25.87466.031 145.34375.031 145.34375-28.1458-47.1616-45.5907-108.04432-49.2812-186.53125zm-470.8125 4.21875s1.0725 3.44228 2.0625 10.09375c1.7281 13.58999-.1362 15.44558-3.75 6.15625-4.2318-10.87788-4.4512-2.40279.3125 22.5 1.1531 6.03108 1.1093 7.4314-.375 11.5-.928 2.55031-2.5834 8.47791-3.875 13.125-3.8066 13.67132-6.031 17.6001-9.9375 6.71875-1.9918-5.5478-3.659-6.41257-2.237-10.75648 1.7778-5.43814 1.3496-9.51383-2.2318-14.80602-.5852-.86455-1.8713-2.846-2.0937-8.46875 1.1005-12.62433-4.5187-12.74317-5.6239-16.00669.1881-4.93858-2.1186-16.90906 1.2802-16.58706 2.7986.26515 12.925.54521 17.7187-1.21875 2.124-.78156 8.75-2.25 8.75-2.25zm419.5625 1.5625c10.4529-.15181 19.0357 8.20339 19.1875 18.65625s-8.2034 19.03569-18.6563 19.1875c-10.4528.15181-19.0669-8.17214-19.2187-18.625s8.2346-19.06694 18.6875-19.21875zm-292.25 11.53125 14.3438 2.71875c3.1962 1.06538.8663 198.83021-113.9376 341.5625l-1-33.0625c54.6279-79.06179 93.9654-176.02203 100.5938-311.21875zm243.2188 4.15625 2.625 47.25c-8.0762-6.86801-28.5892-19.72549-28.4376-20l.094-17.46875c.019.0364 17.63 1.35074 25.7188-9.78125zm-110.5626.65625c3.4592 1.45603 6.4752 4.8028 9.4376 7.21875l-9.375 6.3125zm328.625 2.375c61.9313 18.36913 122.9183 17.83751 183.2188 4.40625l4.125 11.5625c-65.428 17.73598-130.4506 16.71241-195.0625-3.90625zm-299.9374 8.84375 3.3124 20.375-34.9493 22.62176 1.6993-30.93426 18.2188-11.8125zm309.4062 16.96875c5.6458-.082 10.293 4.44569 10.375 10.09375s-4.4479 10.293-10.0938 10.375c-5.6481.082-10.2617-4.44569-10.3437-10.09375s4.4144-10.29297 10.0625-10.375zm159.125.84375c5.6481-.082 10.293 4.44569 10.375 10.09375.083 5.64806-4.4456 10.29297-10.0938 10.375-5.6481.082-10.2617-4.44569-10.3437-10.09375-.083-5.64806 4.4144-10.29297 10.0625-10.375zm-298.0312 31.78892c4.5804 16.14358 3.5824 52.62307-2.3126 77.36733-1.7696 7.43025-2.8437 33.8049-2.8437 33.8049-1.0937 1.3804 35.0794-29.93458 46.7102 11.13162 3.999 14.1196-12.2531 27.50622-23.1316 23.58825-2.1185-.76303-1.479-7.75536.5464-11.86852 6.0337-12.28047-11.1677-18.6645-20.9687-7.78125-22.6441 25.14682.6548 88.81535 36.1562 95 29.4718 5.1341 53.1034-24.20416 33.4375-41.6875-8.601-7.64557-22.3597 2.89322-16.0625 12.625 6.7275 10.39753-5.6604 14.54466-15.0312 4.90625-16.3401-16.80648 2.0056-42.10334 26.6874-36.25 39.4559 8.97112 31.3378 70.65221-10.0312 74.125-31.6349 2.65563-52.9335-11.12535-66.3125-35.5625-12.567-23.48178-13.5009-42.19669-7.75-83.375 3.4156-24.44702.6056-45.04652-6.1875-44.90625-3.7259.0769-6.63 1.87261-7.2188 6.25-1.2045 8.95548-2.2328 10.62807-7.8437 7.375-7.1248-4.13038-11.0844-17.43486.5625-26.4375 11.9405-9.22912 27.4132 5.17376 26.7812 7.65625.288-.45682 1.4905-2.79719 3.0938-13.28125 5.2167-34.11056-6.3716-70.14946-20.6875-64.375-3.1416 1.26723-2.7644 2.68832 1.3437 5 9.5374 5.36367 1.1327 19.10872-10.8437 17.71875-16.9601-1.9687-20.8152-25.62931-5.875-36.09375 23.5326-12.68687 42.7047 7.17792 47.7813 25.07017zm-115.7813-28.41392s30.0868 18.34987 31.6875 23.0625c1.0248 3.02159 2.25 29.34375 2.25 29.34375l-52.2188-32.6875-74.8632 46.28125c1.2248-10.15888 6.6132-36.3125 6.6132-36.3125l39.8126-25.1875c.1973 1.51666 27.5394 19.56354 46.7187-4.5zm373.8437 1.75c5.6482-.082 10.293 4.44569 10.375 10.09375s-4.4143 10.29297-10.0624 10.375c-5.6462.082-10.293-4.41444-10.375-10.0625s4.4163-10.32425 10.0624-10.40625zm-79.6874.15625c5.6459-.082 10.3221 4.41447 10.4062 10.0625.082 5.64806-4.4791 10.32425-10.125 10.40625-5.6481.082-10.2617-4.44569-10.3438-10.09375-.082-5.64806 4.4144-10.29297 10.0626-10.375zm40.0624 2.3125c5.6482-.082 10.3243 4.44569 10.4063 10.09375s-4.4456 10.29297-10.0937 10.375c-5.6482.082-10.291-4.44571-10.375-10.09375-.082-5.64806 4.4143-10.29297 10.0624-10.375zm-100.3124 14.5c27.1113 5.64173 54.2901 11.44012 80.2812 14.28125l1.0625 79.78125-7.5937-.4375-1.0938-71.28125c-25.108-1.79678-48.7905-7.18598-71.0312-12.9375zm201.5937 2.59375-1.4063 9.375s-46.9067 8.11877-71.4062 11.28125c-.3906 16.05969-.3438 69.71875-.3438 69.71875l-9.375 1.71875-.031-81.21875c27.816-3.02386 55.5968-6.15055 82.5625-10.875zm-453.875 4.5 55.2187 36.5 6.5 38.6875-64.375-42.78125s-58.3547 39.27871-80.1874 53.84375l6.6562-36.46875zm254.9063 7.21875c22.2296 4.70374 44.4578 9.59244 66.6874 11.5l.9376 64.1875-10.2188-2.71875-.8125-52.09375c-17.3613-1.50338-35.1922-4.8669-53.125-8.65625zm196.6562 1.90625-1.875 8.71875s-35.5798 5.36349-53.9375 8.65625c-1.6251.373-1.0313 56.5-1.0313 56.5l-8.7812 1.34375-1.0312-65.53125zm-99.6562 7.1875c5.6481-.082 10.2599 4.44571 10.3437 10.09375.082 5.64806-4.4144 10.29297-10.0625 10.375-5.6481.082-10.2912-4.41446-10.375-10.0625-.082-5.64806 4.4456-10.32422 10.0938-10.40625zm-352.75 23.15625 65.2812 44.0625s7.568 22.94778 9.1875 35.65625l-75.125-48.5-94 62.3125 10.875-38.5zm-395.6876 1.34375c3.8725.0521 7.7372 2.64236 9.75 8.59375 2.834 8.37639 8.1202 10.85099 22.0313 10.59375 27.3116-1.457 55.9398-14.29027 81.7187-4.65625 12.5288 4.61551 16.9913 23.09458 6.5 27.90625-11.3868 5.22249-16.2396 1.94149-20.1874-7-3.6478-3.8009-8.1807-3.20572-32.6563 1-10.7967 1.75134-23.4842 3.3244-34.1563 4.1875-27.2855 2.20505-42.3532-6.39165-45.75-22.625-2.1703-10.37966 6.2969-18.08694 12.75-18zm747.875 14.90625c5.6482-.082 10.2913 4.41446 10.375 10.0625.082 5.64806-4.4456 10.32422-10.0937 10.40625-5.6481.082-10.293-4.44569-10.375-10.09375s4.4456-10.29297 10.0937-10.375zm-200 12.46875c7.3461-.10669 13.3934 5.77841 13.5 13.125.1072 7.34658-5.7789 13.39331-13.125 13.5-7.3466.1067-13.362-5.77841-13.4687-13.125s5.7471-13.3933 13.0937-13.5zm-152.0937 9.3125s53.7232 35.89091 78.5937 52.46875l13.75 39.5-91.5-59.5-111.9616 72.84139 13.4304-40.62264zm387.875 12.34375c4.8745 13.12525 13.7128 23.12492 23.0625 33.28125 0 0-5.2066 9.86515-23.7812 9.28125-10.1466-.31896-10.6904 1.2742-14.1563 8.15625-5.6909 8.72023-10.3219 14.41787-14 17.25-6.5049 5.00865-18.699-2.47424-28.75-17.6875-3.6624-5.54338-5.1791-6.85294-16.2187-6.625-16.9511.34999-23.0858-4.35087-14.2813-11.96875 7.6775-9.35329 13.194-19.63702 20.0625-29.46875l7.625.875c.3233 1.13154-5.9275 20.01469-14.7188 27.6875-4.4615 5.03749 1.7846 6.86396 12.6876 4.5625 6.9155-2.08247 8.6885-1.26559 13.8124 9.3125 10.6726 20.17757 16.2204 19.20359 28.875-1.25 4.4198-9.13024 4.2521-10.03638 16.4063-7.40625 13.0485 1.31352 16.985-.32461 11.625-4.875-10.8352-9.19444-16.8125-30.875-16.8125-30.875zm-387.4063 27.03125s97.1583 63.63479 96.9063 62.25l19.4687 45.875-114.0312-75.84375-139.3125 90.59375 20.8437-45.40625zm3.75 41.78125 33.875 22.28125-.094 40.09375-34.5937-23.25zm-8.6874 1.15625.625 39.5625-30.375 18.09375-1.6876-37.125zm-38.193 25.23185 1.443 37.86185-34.9376 24.21875.125-40.28125zm89.1304.70565 31.8438 21.25 1.3125 42.4375-34.5625-22.625zm39.3126 25.90625 31.9374 22.1875 1.125 42.375-32.625-21.96875zm-169.0313.15625-.1563 39.15625-31.7812 21.80828-1.5-39.62078zm336.125 50.53125c-6.3069 6.57391-8.6346 5.75905-14.0313-5.09375-5.6023-11.26125-14.0066-16.525-26.1874-16.3125-15.3655.26756-5.3196-9.8077 10.9687-11 28.1625-1.24026 42.4563 17.65548 29.25 32.40625zm-377.5307-24.44356 1.6557 38.90203-32.0078 18.05986-.5859-18.39333 16.2812-28.46875zm-37.0028 45.91643.4238 13.79256-8.1403 5.37855zm377.6272 291.18338c-133.0879 28.474-260.684 18.4136-352.25 1.4688l-41.8437 71.5-2.875-.125-10.7813 18.5 1.1563 2.125s-34.7662 66.7127-49.4063 87.75c171.0427-1.6475 546.4688-2.4688 546.4688-2.4688l-22.875-46 1.25-1.25-22.5938-48.0312-7.3437-8.3126s-4.4855-8.6805-7.8437-18c-3.0889-8.5777-16.3438-32.0624-16.3438-32.0624l-1.875.1562zm-347.4374 10.0625c1.764 1.3992 170.4732 33.1916 345.3437.5313l9.5625 16c-153.0456 35.2214-374.489 1.5774-365.75-1.6876zm2.9062 31.4687c15.4271-.551 31.0582 7.7374 41.5938 21.5626 3.3527 4.3994 8.8437 17.375 8.8437 17.375s7.3829-12.2245 14.625-18.3438c10.9525-9.2545 25.1605-16.9821 45.7187-16.25 18.9254.6741 39.7616 10.9195 58.5626 40.5312 4.7454-17.0858 66.9327-75.1416 118.1562-2.75 5.8583-19.2363 33.271-57.6583 77.6562-30.8124 3.0307 6.4883 6.1563 13.625 6.1563 13.625-26.1962-18.3448-69.3833-6.04-79.5937 22.5937-.9156 3.4872.2433 5.3009 1.5937 8.6875 13.4992 19.2942-21.6246 18.8313-11.2187 3.2188 1.9463-3.5491 2.1059-6.4707-1-11.125-8.237-12.3432-33.0269-27.7064-51.2188-27.3126-21.0082.4567-44.2862 14.3971-52.0625 27.0626-2.8692 4.6731-3.5216 9.3524-1 13.4374 1.8312 4.1191 1.2044 7.5669-1.875 10.0938-7.2358 5.9362-16.3235-.9107-12.8437-9.6875 2.2899-3.8671 1.937-8.6072-2.75-15.1875-9.4138-13.2166-31.3817-27.1448-50.5-26.75-27.3618.6319-55.0007 20.3374-53.25 36.5625.7695 7.1318-1.1808 9.79-7 8.9687-7.0773-.9985-7.8801-7.6813-2.875-13.125.7419-1.7439 1.9407-5.9722-.3438-9.0624-28.8917-39.0736-72.1517-27.685-82.0625-18.9376 9.6294-16.5091 23.0754-23.8887 36.6875-24.375zm-25.7188 27.125c10.8424.089 22.5194 8.2862 26.2188 14.6876 2.6794-2.774 27.2047-14.4717 39.125 2.25-31.2195-2.3513-31.6027 30.7782-8.5312 33.9687-10.5209 31.9618 36.6454 33.8932 33.6562 3.875 35.2403 5.2081 30.8929-39.4654-2.2812-34.75 17.3791-12.656 29.2067-8.5701 50.0937 5.9375 7.0214-9.1415 35.6545-17.6857 42.6875-1.7188-32.8195-2.0246-27.2294 35.9819-2.7188 36.3126-7.2823 26.339 40.9349 36.0275 33.5-3.3126 30.6047 2.1454 26.1734-39.2003-3.1562-35.7812 2.1733-7.5229 31.9401-10.7748 45.0938 3.5938 12.0862-11.0327 25.4297-18.5885 49.5312-2.8126-32.8624-5.4772-33.2707 37.1837-2.75 34.625-2.8483 28.2521 40.3029 28.7275 33.0938-3.9062 32.8529-8.8667 14.788-44.0279-9.3438-34.3438 10.7421-12.7694 28.9825-6.7475 36.2188-4.1562 22.3607-25.5931 41.8437-4.1875 41.8437-4.1875-38.9157-4.064-30.4517 51.4006 7.4687 31.2813-.038 11.4115 4.8614 21.2916 20.3438 22.9062l18.4062 38.0938-521.5866 3.4374 28.7788-50.6156c2.9087.9158 19.5412 2.4281 23.1204-17.0718 34.2755 10.8728 36.5747-29.0354 10.9687-35.3438 3.1027-2.1417 6.6046-2.9983 10.2187-2.9688zm-20.3437 14.4376c3.4082 5.4754.5541 9.0421-5.3125 9.1874 0 0 3.8157-5.5427 5.3125-9.1874zm429.0937 7.0624 3.375 7.0938c-3.6519-1.4799-4.1011-3.0452-3.3752-7.0938z" transform="matrix(.999573 .0206431 -.020645 .999787 -3870.09 -482.784)"/></g><path d="m3796.8899-810.14613c9.7745-.21232 14.1574-11.21731 6.9184-19.76328-1.0499-1.2465-1.1582-1.96191.7646-.76455 4.8738 3.25924 14.2192 1.11662 14.6978-8.84731.5911-12.2769-16.5629-15.81425-19.7837-2.75964-.1701 1.37738-1.2895 1.34598-1.0196-.60915.2937-5.30637 1.9509-10.26606 4.2287-15.10254-3.8391 0-8.1296 0-11.6202 0 2.2776 4.83648 3.9349 9.79617 4.2286 15.10254.2699 1.95513-.8495 1.98653-1.0195.60915-3.2209-13.05461-20.3749-9.51726-19.7838 2.75964.4785 9.96393 9.824 12.10655 14.6979 8.84731 1.9227-1.19736 1.8144-.48195.7645.76455-7.239 8.54597-2.8561 19.55096 6.9183 19.76328 0 0 0-.0001.01 0z"/><path d="m3693.8191-1055.7791c9.7745.2122 14.1574 11.2172 6.9184 19.7632-1.0499 1.2465-1.1582 1.9618.7645.7645 4.8739-3.2592 14.2193-1.1166 14.6979 8.8473.5911 12.277-16.5629 15.8142-19.7838 2.7596-.17-1.3772-1.2894-1.3458-1.0195.6093.2937 5.3064 1.9509 10.266 4.2287 15.1024-3.8391 0-8.1296 0-11.6203 0 2.2777-4.8364 3.935-9.796 4.2287-15.1024.2699-1.9551-.8495-1.9865-1.0195-.6093-3.2209 13.0546-20.3749 9.5174-19.7838-2.7596.4785-9.9639 9.824-12.1065 14.6979-8.8473 1.9227 1.1973 1.8144.482.7645-.7645-7.239-8.546-2.8561-19.551 6.9183-19.7632 0-.0001 0 0 .01 0z"/></g></svg>