<svg height="88.000015mm" viewBox="0 0 238.11081 332.59849" width="63.000149mm" xmlns="http://www.w3.org/2000/svg"><g transform="matrix(1.07145 0 0 1.07009 -1062.86125 1164.652717)"><rect fill="#fff" height="311.81104" rx="10.677567" ry="10.664032" transform="matrix(.995538 0 0 .996801 732.713 -1457.46)" width="223.22835" x="260.43304" y="370.27557"/><path d="m1103.0956-1055.3647c-9.7745.2123-14.1574 11.2173-6.9184 19.7633 1.0499 1.2465 1.1582 1.9619-.7646.7645-4.8738-3.2592-14.2192-1.1166-14.6978 8.8473-.5911 12.2769 16.5629 15.8143 19.7837 2.7597.1701-1.3774 1.2894-1.346 1.0196.6091-.2937 5.3064-1.9509 10.2661-4.2287 15.1025h11.6202c-2.2777-4.8364-3.9349-9.7961-4.2286-15.1025-.2699-1.9551.8495-1.9865 1.0195-.6091 3.2209 13.0546 20.3749 9.5172 19.7837-2.7597-.4784-9.9639-9.8239-12.1065-14.6978-8.8473-1.9228 1.1974-1.8145.482-.7645-.7645 7.239-8.546 2.8561-19.551-6.9183-19.7633 0-.0001 0 0-.01 0z"/><path d="m1103.0956-809.73165c-9.7745-.21226-14.1574-11.21727-6.9184-19.76329 1.0499-1.24653 1.1582-1.96187-.7646-.76452-4.8738 3.25919-14.2192 1.11662-14.6978-8.84728-.5911-12.27695 16.5629-15.81427 19.7837-2.75967.1701 1.37736 1.2895 1.34593 1.0196-.60916-.2937-5.30641-1.9509-10.26606-4.2287-15.10253h11.6202c-2.2776 4.83647-3.9349 9.79612-4.2286 15.10253-.2699 1.95509.8495 1.98652 1.0195.60916 3.2209-13.0546 20.3749-9.51728 19.7837 2.75967-.4784 9.9639-9.8239 12.10647-14.6978 8.84728-1.9227-1.19735-1.8144-.48201-.7645.76452 7.239 8.54602 2.8561 19.55102-6.9183 19.76329 0 .00006 0-.00005-.01 0z"/><path d="m1103.0956-956.4714c-9.7745.21226-14.1574 11.21727-6.9184 19.76328 1.0499 1.24653 1.1582 1.96188-.7646.76453-4.8738-3.25919-14.2192-1.11663-14.6978 8.84728-.5911 12.27694 16.5629 15.81426 19.7837 2.75966.1701-1.37736 1.2894-1.34593 1.0196.60917-.2937 5.30641-1.9509 10.26606-4.2287 15.10253h11.6202c-2.2777-4.83647-3.9349-9.79612-4.2286-15.10253-.2699-1.9551.8495-1.98653 1.0195-.60917 3.2209 13.0546 20.3749 9.51728 19.7837-2.75966-.4784-9.96391-9.8239-12.10647-14.6978-8.84728-1.9228 1.19735-1.8144.482-.7645-.76453 7.239-8.54601 2.8561-19.55101-6.9183-19.76328 0-.00006 0 .00005-.01 0z"/><path d="m1197.0776-827.36914c3.9097-.0884 5.663-4.67386 2.7674-8.23469-.4201-.5194-.4634-.81746.3058-.31856 1.9495 1.358 5.6877.46526 5.8791-3.68637.2365-5.1154-6.6252-6.58928-7.9135-1.14986-.068.57391-.5158.56081-.4078-.25382.1175-2.211.7803-4.27752 1.6914-6.29271-1.5492 0-3.0986 0-4.6478 0 .9111 2.01519 1.5739 4.08171 1.6914 6.29271.108.81463-.3398.82773-.4078.25382-1.2883-5.43942-8.1499-3.96554-7.9135 1.14986.1914 4.15163 3.9296 5.04437 5.8791 3.68637.7692-.4989.7259-.20084.3059.31856-2.8956 3.56083-1.1424 8.14624 2.7673 8.23469.001.00002 0-.00002 0 0z"/><path d="m1009.1226-1038.5561c-3.9098.088-5.663 4.6739-2.7674 8.2347.42.5194.4633.8175-.3058.3186-1.9496-1.358-5.6877-.4653-5.8792 3.6863-.23639 5.1154 6.6252 6.5893 7.9136 1.1499.068-.5739.5158-.5608.4077.2538-.1174 2.211-.7803 4.2775-1.6914 6.2927h4.6479c-.9111-2.0152-1.574-4.0817-1.6914-6.2927-.108-.8146.3397-.8277.4077-.2538 1.2884 5.4394 8.15 3.9655 7.9136-1.1499-.1915-4.1516-3.9296-5.0443-5.8792-3.6863-.7691.4989-.7258.2008-.3058-.3186 2.8956-3.5608 1.1424-8.1462-2.7673-8.2347-.001 0 0 0 0 0z"/><path d="m998.46109-1048.8921 2.52921-1.8626c2.1951 3.5789 4.65 5.9361 8.4054 5.5315 5.6343-.3876 7.969-6.3015 6.7901-10.7575-1.1403-3.9979-5.8058-5.9452-9.5151-3.8138-.8755.5051-1.7202.9175-1.8854.9175-.389 0-1.2697-1.7542-1.1493-2.2893 2.4894-3.6402 8.5346-10.0175 8.5346-10.0175h-9.4447v4.2707h-3.62478v-7.6629h18.45938v2.6s-4.9458 5.1359-6.5802 7.9487c4.0254.1475 7.2701 2.7018 8.4349 6.7401.6796 2.1262.375 6.9894-.5146 9.0855-1.486 3.4941-5.5448 6.329-9.2552 6.4921-6.2296.419-9.5344-3.9508-11.18431-7.1825z"/><path d="m1207.7369-817.03308-2.5292 1.86252c-2.1951-3.57892-4.65-5.93615-8.4054-5.53145-5.6343.38765-7.9689 6.30148-6.7901 10.75748 1.1404 3.99787 5.8059 5.94522 9.5151 3.81386.8755-.50518 1.7202-.91756 1.8854-.91756.389 0 1.2697 1.75418 1.1493 2.28926-2.4894 3.64032-8.5346 10.01755-8.5346 10.01755h9.4447v-4.27069h3.6248v7.66291h-18.4594v-2.59996s4.9458-5.13602 6.5802-7.94879c-4.0254-.14743-7.2701-2.70173-8.4348-6.74007-.6797-2.12618-.3751-6.98938.5145-9.08555 1.486-3.49399 5.5448-6.32899 9.2553-6.49207 6.2295-.41895 9.5343 3.95083 11.1842 7.18256z"/></g></svg>