<svg height="88.000046mm" viewBox="0 0 238.11073 332.5986" width="63.00013mm" xmlns="http://www.w3.org/2000/svg"><g transform="matrix(1.07145 0 0 1.07009 -2195.2768 1164.653456)"><rect fill="#fff" height="310.81366" rx="10.62995" ry="10.629899" width="222.23224" x="2048.884" y="-1088.3696"/><path d="m2211.5312-1055.3647c-9.7745.2122-14.1574 11.2172-6.9184 19.7633 1.0499 1.2465 1.1582 1.9618-.7645.7645-4.8739-3.2592-14.2193-1.1166-14.6979 8.8473-.5911 12.2769 16.5629 15.8142 19.7838 2.7596.17-1.3773 1.2895-1.3459 1.0195.6092-.2937 5.3064-1.9509 10.2661-4.2287 15.1025h11.6203c-2.2777-4.8364-3.935-9.7961-4.2287-15.1025-.2699-1.9551.8495-1.9865 1.0195-.6092 3.2209 13.0546 20.3749 9.5173 19.7838-2.7596-.4785-9.9639-9.824-12.1065-14.6979-8.8473-1.9227 1.1973-1.8144.482-.7645-.7645 7.239-8.5461 2.8561-19.5511-6.9183-19.7633 0-.0001 0 0-.01 0z"/><path d="m2108.4604-1055.3647c-9.7745.2122-14.1574 11.2172-6.9184 19.7633 1.0499 1.2465 1.1582 1.9618-.7646.7645-4.8738-3.2592-14.2191-1.1166-14.6978 8.8473-.591 12.2769 16.5629 15.8142 19.7838 2.7596.17-1.3773 1.2894-1.3459 1.0195.6092-.2937 5.3064-1.9509 10.2661-4.2287 15.1025h11.6203c-2.2777-4.8364-3.935-9.7961-4.2287-15.1025-.2699-1.9551.8495-1.9865 1.0195-.6092 3.2209 13.0546 20.3749 9.5173 19.7838-2.7596-.4785-9.9639-9.824-12.1065-14.6979-8.8473-1.9227 1.1973-1.8144.482-.7645-.7645 7.239-8.5461 2.8561-19.5511-6.9183-19.7633 0-.0001 0 0-.01 0z"/><path d="m2211.5312-809.73168c-9.7745-.21226-14.1574-11.21727-6.9184-19.76328 1.0499-1.24653 1.1582-1.96188-.7645-.76453-4.8739 3.25919-14.2192 1.11663-14.6979-8.84728-.591-12.27694 16.5629-15.81426 19.7838-2.75966.17 1.37736 1.2895 1.34593 1.0195-.60917-.2937-5.30641-1.9509-10.26605-4.2287-15.10253h11.6203c-2.2777 4.83648-3.935 9.79612-4.2287 15.10253-.2699 1.9551.8495 1.98653 1.0195.60917 3.2209-13.0546 20.3749-9.51728 19.7838 2.75966-.4785 9.96391-9.824 12.10647-14.6979 8.84728-1.9227-1.19735-1.8144-.482-.7645.76453 7.239 8.54601 2.8561 19.55101-6.9183 19.76328 0 .00006 0-.00005-.01 0z"/><path d="m2108.4604-809.73168c-9.7745-.21226-14.1574-11.21727-6.9184-19.76328 1.0499-1.24653 1.1582-1.96188-.7646-.76453-4.8738 3.25919-14.2191 1.11663-14.6978-8.84728-.591-12.27694 16.5629-15.81426 19.7838-2.75966.17 1.37736 1.2894 1.34593 1.0195-.60917-.2937-5.30641-1.9509-10.26605-4.2287-15.10253h11.6203c-2.2777 4.83648-3.935 9.79612-4.2287 15.10253-.2699 1.9551.8495 1.98653 1.0195.60917 3.2209-13.0546 20.3749-9.51728 19.7838 2.75966-.4785 9.96391-9.824 12.10647-14.6979 8.84728-1.9227-1.19735-1.8144-.482-.7645.76453 7.239 8.54601 2.8561 19.55101-6.9183 19.76328 0 .00006 0-.00005-.01 0z"/><path d="m2159.996-1005.9179c-9.7745.2122-14.1573 11.21724-6.9184 19.76326 1.0499 1.24653 1.1583 1.96187-.7646.76452-4.8737-3.25919-14.2191-1.11662-14.6977 8.84727-.5911 12.27695 16.5628 15.81427 19.7836 2.75967.1701-1.37736 1.2895-1.34593 1.0196.60916-.2937 5.30642-1.9509 10.26606-4.2287 15.10253h11.6202c-2.2776-4.83647-3.9349-9.79611-4.2286-15.10253-.2699-1.95509.8495-1.98652 1.0195-.60916 3.2209 13.0546 20.3749 9.51728 19.7838-2.75967-.4785-9.96389-9.824-12.10646-14.6979-8.84727-1.9227 1.19735-1.8144.48201-.7645-.76452 7.239-8.54602 2.8561-19.55106-6.9183-19.76326 0-.0001 0 0-.01 0z"/><path d="m2211.5312-956.47142c-9.7745.21225-14.1574 11.21726-6.9184 19.76328 1.0499 1.24653 1.1582 1.96187-.7645.76452-4.8739-3.25919-14.2193-1.11662-14.6979 8.84728-.591 12.27695 16.5629 15.81427 19.7838 2.75967.17-1.37736 1.2894-1.34593 1.0195.60916-.2937 5.30642-1.9509 10.26606-4.2287 15.10253h11.6203c-2.2777-4.83647-3.935-9.79611-4.2287-15.10253-.2699-1.95509.8495-1.98652 1.0195-.60916 3.2209 13.0546 20.3749 9.51728 19.7838-2.75967-.4785-9.9639-9.824-12.10647-14.6979-8.84728-1.9227 1.19735-1.8144.48201-.7645-.76452 7.239-8.54602 2.8561-19.55102-6.9183-19.76328 0-.00006 0 .00005-.01 0z"/><path d="m2108.4604-956.47142c-9.7745.21225-14.1574 11.21726-6.9184 19.76328 1.0499 1.24653 1.1582 1.96187-.7646.76452-4.8738-3.25919-14.2191-1.11662-14.6977 8.84728-.5911 12.27695 16.5628 15.81427 19.7837 2.75967.17-1.37736 1.2894-1.34593 1.0195.60916-.2937 5.30642-1.9509 10.26606-4.2287 15.10253h11.6203c-2.2777-4.83647-3.935-9.79611-4.2287-15.10253-.2699-1.95509.8495-1.98652 1.0195-.60916 3.2209 13.0546 20.3749 9.51728 19.7838-2.75967-.4785-9.9639-9.824-12.10647-14.6979-8.84728-1.9227 1.19735-1.8144.48201-.7645-.76452 7.239-8.54602 2.8561-19.55102-6.9183-19.76328 0-.00006 0 .00005-.01 0z"/><path d="m2253.9779-827.36916c3.9097-.0884 5.663-4.67387 2.7674-8.2347-.4201-.51939-.4634-.81746.3058-.31856 1.9496 1.35801 5.6877.46526 5.8791-3.68637.2365-5.11539-6.6252-6.58927-7.9135-1.14986-.068.57391-.5158.56081-.4078-.25381.1175-2.21101.7803-4.27753 1.6915-6.29272-1.5493 0-3.0987 0-4.6479 0 .9111 2.01519 1.5739 4.08171 1.6914 6.29272.108.81462-.3398.82772-.4078.25381-1.2883-5.43941-8.1499-3.96553-7.9135 1.14986.1914 4.15163 3.9296 5.04438 5.8792 3.68637.7691-.4989.7258-.20083.3058.31856-2.8956 3.56083-1.1424 8.14624 2.7673 8.2347.001.00002 0-.00002 0 0z"/><path d="m2066.0229-1038.5561c-3.9097.088-5.663 4.6739-2.7674 8.2347.42.5194.4633.8175-.3058.3186-1.9497-1.358-5.6877-.4653-5.8791 3.6863-.2365 5.1154 6.6252 6.5893 7.9134 1.1499.068-.5739.5159-.5608.4079.2538-.1176 2.211-.7803 4.2775-1.6915 6.2927h4.6479c-.9111-2.0152-1.5739-4.0817-1.6915-6.2927-.1079-.8146.3398-.8277.4079-.2538 1.2882 5.4394 8.1499 3.9655 7.9134-1.1499-.1914-4.1516-3.9295-5.0443-5.8791-3.6863-.7691.4989-.7258.2008-.3059-.3186 2.8957-3.5608 1.1424-8.1462-2.7672-8.2347z"/><path d="m2060.9729-1041.6852c2.1606-11.4366 4.4606-20.0224 10.4994-29.3406h-12.2747v4.011h-3.2588v-7.5612h17.9538l2.2144 3.5502c-6.4138 7.0105-12.2837 29.6721-11.2444 29.3406z"/><path d="m2259.025-824.24006c-2.1606 11.4365-4.4606 20.02245-10.4994 29.34054h12.2747v-4.01102h3.2588v7.56133h-17.9539l-2.2143-3.55031c6.4138-7.0104 12.2837-29.67208 11.2444-29.34054z"/></g></svg>