<svg height="88.000015mm" viewBox="0 0 238.11081 332.59849" width="63.000149mm" xmlns="http://www.w3.org/2000/svg"><g transform="matrix(1.07145 0 0 1.07009 -1629.06579 1164.652717)"><rect fill="#fff" height="311.81104" rx="10.677567" ry="10.664032" transform="matrix(.995538 0 0 .996801 1261.16 -1457.46)" width="223.22835" x="260.43304" y="370.27557"/><path d="m1683.0812-1055.3648c-9.7745.2123-14.1574 11.2173-6.9184 19.7633 1.0499 1.2465 1.1582 1.9619-.7646.7645-4.8738-3.2592-14.2192-1.1166-14.6978 8.8473-.5911 12.2769 16.5629 15.8143 19.7837 2.7597.1701-1.3774 1.2895-1.346 1.0196.6091-.2937 5.3064-1.9509 10.2661-4.2287 15.1025h11.6202c-2.2777-4.8364-3.9349-9.7961-4.2286-15.1025-.2699-1.9551.8495-1.9865 1.0195-.6091 3.2209 13.0546 20.3749 9.5172 19.7837-2.7597-.4784-9.9639-9.8239-12.1065-14.6978-8.8473-1.9228 1.1974-1.8144.482-.7645-.7645 7.239-8.546 2.8561-19.551-6.9183-19.7633 0-.0001 0 0-.01 0z"/><path d="m1580.0104-1055.3648c-9.7745.2123-14.1575 11.2173-6.9184 19.7633 1.0499 1.2465 1.1582 1.9619-.7646.7645-4.8738-3.2592-14.2192-1.1166-14.6978 8.8473-.5911 12.2769 16.5629 15.8143 19.7837 2.7597.1701-1.3774 1.2894-1.346 1.0196.6091-.2937 5.3064-1.9509 10.2661-4.2287 15.1025h11.6202c-2.2777-4.8364-3.9349-9.7961-4.2286-15.1025-.2699-1.9551.8495-1.9865 1.0195-.6091 3.2209 13.0546 20.3749 9.5172 19.7837-2.7597-.4784-9.9639-9.8239-12.1065-14.6978-8.8473-1.9228 1.1974-1.8145.482-.7646-.7645 7.2391-8.546 2.8561-19.551-6.9182-19.7633 0-.0001 0 0-.01 0z"/><path d="m1683.0812-809.73175c-9.7745-.21226-14.1574-11.21727-6.9184-19.76328 1.0499-1.24653 1.1582-1.96188-.7646-.76453-4.8738 3.25919-14.2192 1.11663-14.6978-8.84728-.5911-12.27695 16.5629-15.81426 19.7837-2.75967.1701 1.37736 1.2895 1.34594 1.0196-.60916-.2937-5.30641-1.9509-10.26606-4.2287-15.10253h11.6202c-2.2777 4.83647-3.9349 9.79612-4.2286 15.10253-.2699 1.9551.8495 1.98652 1.0195.60916 3.2209-13.05459 20.3749-9.51728 19.7837 2.75967-.4784 9.96391-9.8239 12.10647-14.6978 8.84728-1.9228-1.19735-1.8144-.482-.7645.76453 7.239 8.54601 2.8561 19.55101-6.9183 19.76328 0 .00006 0-.00005-.01 0z"/><path d="m1580.0104-809.73175c-9.7745-.21226-14.1575-11.21727-6.9184-19.76328 1.0499-1.24653 1.1582-1.96188-.7646-.76453-4.8738 3.25919-14.2192 1.11663-14.6978-8.84728-.5911-12.27695 16.5629-15.81426 19.7837-2.75967.1701 1.37736 1.2894 1.34594 1.0196-.60916-.2937-5.30641-1.9509-10.26606-4.2287-15.10253h11.6202c-2.2777 4.83647-3.9349 9.79612-4.2286 15.10253-.2699 1.9551.8495 1.98652 1.0195.60916 3.2209-13.05459 20.3749-9.51728 19.7837 2.75967-.4784 9.96391-9.8239 12.10647-14.6978 8.84728-1.9228-1.19735-1.8145-.482-.7646.76453 7.2391 8.54601 2.8561 19.55101-6.9182 19.76328 0 .00006 0-.00005-.01 0z"/><path d="m1631.5458-956.4715c-9.7745.21226-14.1574 11.21727-6.9184 19.76328 1.0499 1.24653 1.1582 1.96188-.7646.76453-4.8738-3.25919-14.2192-1.11663-14.6978 8.84728-.5911 12.27694 16.5629 15.81426 19.7837 2.75967.1701-1.37736 1.2894-1.34594 1.0196.60916-.2937 5.30641-1.9509 10.26606-4.2287 15.10253h11.6202c-2.2777-4.83647-3.9349-9.79612-4.2286-15.10253-.2699-1.9551.8495-1.98652 1.0195-.60916 3.2209 13.05459 20.3749 9.51727 19.7837-2.75967-.4784-9.96391-9.8239-12.10647-14.6978-8.84728-1.9228 1.19735-1.8144.482-.7646-.76453 7.2391-8.54601 2.8561-19.55101-6.9182-19.76328 0-.00006 0 .00005-.01 0z"/><path d="m1725.5278-827.36924c3.9097-.0884 5.663-4.67386 2.7673-8.23469-.42-.51939-.4633-.81746.3059-.31856 1.9495 1.358 5.6877.46526 5.8791-3.68637.2365-5.1154-6.6252-6.58928-7.9135-1.14986-.068.57391-.5158.56081-.4078-.25382.1175-2.211.7803-4.27752 1.6914-6.29271-1.5492 0-3.0986 0-4.6478 0 .9111 2.01519 1.5739 4.08171 1.6914 6.29271.108.81463-.3398.82773-.4078.25382-1.2883-5.43942-8.1499-3.96554-7.9135 1.14986.1914 4.15163 3.9296 5.04437 5.8791 3.68637.7692-.4989.7259-.20083.3059.31856-2.8957 3.56083-1.1424 8.14624 2.7673 8.23469.001.00002 0-.00002 0 0z"/><path d="m1537.5728-1038.5562c-3.9098.088-5.663 4.6739-2.7674 8.2347.42.5194.4633.8175-.3058.3186-1.9496-1.358-5.6877-.4653-5.8791 3.6864-.2365 5.1153 6.6251 6.5892 7.9135 1.1498.068-.5739.5158-.5608.4077.2538-.1174 2.211-.7803 4.2776-1.6914 6.2927h4.6479c-.9111-2.0151-1.574-4.0817-1.6914-6.2927-.108-.8146.3397-.8277.4077-.2538 1.2884 5.4394 8.15 3.9655 7.9136-1.1498-.1915-4.1517-3.9296-5.0444-5.8792-3.6864-.7691.4989-.7258.2008-.3058-.3186 2.8956-3.5608 1.1424-8.1462-2.7673-8.2347-.001 0 0 0 0 0z"/><path d="m1527.2177-1050.1972 3.2204-.031c.6143 1.9854 1.9736 4.0035 3.8194 4.5635 5.2144 1.2493 8.5692-1.7231 9.6738-5.1496 1.3401-4.1563-.03-9.9926-3.6198-12.0642-2.9745-1.7178-7.3942-.2689-9.4241 3.4057l-2.2553-1.4072 1.2108-13.6958h14.7334v3.2373h-11.9393l-.1894 5.7057c2.5702-1.8406 6.5201-1.821 9.0888-.53 4.8651 2.3667 7.1255 7.7474 6.1809 14.0888-1.3106 6.3075-4.2007 9.8816-10.7195 10.392-7.2509.067-9.8109-5.0178-9.7801-8.5149z"/><path d="m1735.8799-815.72773-3.2204.0309c-.6144-1.98553-1.9737-4.00355-3.8194-4.56355-5.2144-1.24929-8.5692 1.72307-9.6738 5.14957-1.3401 4.15636.03 9.99254 3.6197 12.06419 2.9746 1.71789 7.3943.26894 9.4242-3.40567l2.2553 1.40718-1.2108 13.69585h-14.7334v-3.23731h11.9393l.1894-5.70579c-2.5702 1.84059-6.5201 1.82106-9.0889.53-4.8651-2.36661-7.1254-7.74734-6.1809-14.08869 1.3107-6.30756 4.2008-9.88159 10.7196-10.39205 7.2509-.0668 9.8108 5.0178 9.7801 8.51487z"/></g></svg>