<svg height="87.999702mm" viewBox="0 0 238.1104 332.59731" width="63.000042mm" xmlns="http://www.w3.org/2000/svg"><g transform="matrix(1.0666673568 0 0 1.0666630325 -2837.5958152 880.59296334)"><rect fill="#fff" height="311.81104" rx="10.677567" ry="10.664032" width="223.22835" x="2660.2444" y="-825.55872"/><path d="m2866.2577-563.72081c3.9272-.0887 5.6884-4.68886 2.7797-8.26112-.4218-.52106-.4653-.82008.3073-.31958 1.9583 1.36236 5.7132.46675 5.9054-3.6982.2376-5.13181-6.6548-6.61042-7.9489-1.15355-.068.57575-.5181.56261-.4096-.25463.118-2.2181.7838-4.29125 1.6989-6.31291-1.5561 0-3.1124 0-4.6686 0 .9152 2.02166 1.5809 4.09481 1.699 6.31291.1085.81724-.3413.83038-.4096.25463-1.2941-5.45687-8.1865-3.97826-7.949 1.15355.1923 4.16495 3.9472 5.06056 5.9055 3.6982.7725-.5005.7291-.20148.3072.31958-2.9086 3.57226-1.1475 8.17238 2.7796 8.26112z"/><path d="m2677.4603-775.58543c-3.9274.0887-5.6884 4.68886-2.7799 8.26112.422.52106.4654.82008-.3071.31958-1.9584-1.36236-5.7132-.46675-5.9055 3.6982-.2375 5.13181 6.6549 6.61042 7.9489 1.15355.068-.57575.5182-.56261.4096.25463-.118 2.2181-.7837 4.29125-1.699 6.31291h4.6688c-.9152-2.02166-1.5811-4.09481-1.6991-6.31291-.1084-.81724.3414-.83038.4096-.25463 1.2941 5.45687 8.1866 3.97826 7.949-1.15355-.1922-4.16495-3.9472-5.06056-5.9054-3.6982-.7727.5005-.7291.20148-.3073-.31958 2.9087-3.57226 1.1475-8.17238-2.7797-8.26112-.0009-.00002 0 .00002 0 0z"/><path d="m2677.3535-811.72095v3.45423h3.3544s.081 3.32985.1105 10.3928c.026 6.8587.1659 10.26054-.2713 12.21419-1.1751 4.50176-7.6987 4.52664-8.9946 1.28979-.7534-1.88294-.5529-3.34687-.5876-5.24291h-3.6064s.021.95459.026 2.12257c.021 5.06218 1.6971 7.48328 5.6197 8.43784 4.0332 1.08944 8.7491-.57221 10.4257-4.01857.9989-1.96412.8845-2.099.9089-13.97536.015-7.92324.135-11.22035.135-11.22035h3.0883v-3.45423h-10.2084z"/><path d="m2866.3616-527.58527v-3.4543h-3.3544s-.081-3.3298-.1105-10.3928c-.026-6.8587-.1659-10.2605.2713-12.2141 1.1751-4.5018 7.6987-4.5267 8.9946-1.2898.7534 1.8829.5529 3.3468.5876 5.2429h3.6064s-.021-.9546-.026-2.1226c-.021-5.0622-1.6971-7.4833-5.6197-8.4378-4.0332-1.0895-8.7491.5722-10.4257 4.0185-.9989 1.9642-.8845 2.099-.9089 13.9754-.015 7.9232-.135 11.2203-.135 11.2203h-3.0883v3.4543h10.2084z"/></g><g transform="matrix(1.00448 0 0 1.00321 -1397.93389552 -3.389541)"><g transform="matrix(-.16454336841 0 0 -.1654581978 1237.65283207 248.3949318)"><path d="m-1979.1029 1288.4696c-5.5071 7.8674-29.3704-47.0322-44.6879-88.6435-7.5248-20.4418-17.5855-37.2935-13.4336-42.6681 10.911-11.0315 39.1634-1.1598 59.7032 14.5945 21.9546 16.8396 37.4518 41.6027 37.4518 41.6027zm-192.5578-40.6985-.8716-32.2845c18.9105-17.0079 42.3954-37.8724 69.8823-69.6193l-70.1594.1319c-4.8661-398.82748-4.4066-1192.495481-3.8088-1192.410724 0 0 81.5642 82.510481 79.5805 82.809083-.094.01417 2.3212 480.401421 2.6313 803.560961.6423 1.52476-42.6517 1.60292-45.4001 22.74709-1.8162 13.9723 45.3959 12.04232 46.141 12.97487-.097 145.25952.433 247.80092.433 247.80092l43.3707 1.4223zm254.8129-149.5504c-6.3076-12.5385-16.3421-60.7421-24.0246-59.5897-35.2665 11.6782-46.6309-40.30337-10.1368-42.97934 13.8202-1.01339 29.25 16.97094 37.9064 39.34794 4.158 11.7237-.1237 67.9135-3.745 63.2211zm7.9507-72.2925c-10.4059-16.9637-20.3588-78.95238-39.3149-75.43937-17.3032 3.93277-28.3802-11.20749-26.6919-24.47077 8.877-37.25173 72.2808-1.85978 88.9203 6.72325-8.2431 18.70638-19.8926 65.34663-22.9135 93.18689zm-133.8092-174.76771c14.5145-32.78098 10.6113-59.7089-1.697-92.68167 37.6484-16.09904 71.275-33.77731 108.3867-53.09685 1.1559-3.72302 7.1127 126.13966-6.9572 186.61635-4.2309 8.9746-19.4831 1.81105-28.2905-2.56641-23.8322-11.23028-49.439-23.86451-71.442-38.27142zm668.2561-593.38809c-7.682-61.04154 9.3344-199.216053 9.3344-199.216053s90.9064 50.251183 97.215 54.172503c-17.1902 31.79641 6.3083 105.68747 3.7456 92.45429-6.0533 4.2256-108.2853 58.75651-110.295 52.58926zm-37.4929-253.3307604c1.6366-3.91420328 8.1617-49.6080736 10.1808-49.7824276 6.6242-.572023 16.3324 44.74633143 33.215 59.700827 31.8728-3.674497 35.6086 17.893024 29.3732 28.317454 1.5452 4.576879-10.2893 14.523114-21.3427 13.569654-27.4807-10.719143-64.5402-20.204072-51.4263-51.8055074zm-365.6882-78.0077216s23.956-134.336078 24.0643-134.165998c59.2048-8.54447 116.274-18.32721 169.051-12.35302-10.4157 139.629904-26.808 260.379459-71.7908 281.328925l93.1962 74.839075s103.4868-64.409176 97.5757-63.449926c-2.552.689964-4.5687 54.793336-6.0825 142.281006 2.625 228.33738 134.2855 459.49995 139.3969 457.17659 2.7894 1.85962-112.1597 10.82824-194.7936-24.69857l-3.7116 302.36189s40.9525 20.40633 48.5375 29.84452c15.1233 52.60309-25.6497 66.04529-50.0919 52.89209-11.4288 39.9779-28.8082 138.8136-29.4366 138.7767-55.1894 9.1103-112.2684 16.1775-168.7033 12.9642 9.4677-46.508 15.4612-81.8988 18.5103-128.6673 7.1255-69.75162 21.4426-135.82235 58.2023-151.52495-6.5413 2.59127-91.3934-72.13197-91.3934-72.13197l-104.2636 63.97265c33.5169-217.59876-23.7758-428.93075-122.6522-599.88359 49.8238-5.73668 106.2431-3.01242 194.2857 23.27207 0 0-4.9481-302.950432-4.9833-301.266102-97.4009-38.323055-44.2416-112.922405 5.0829-91.56829zm378.8019-27.119998c.3624-3.07931 1.7801-37.29814 1.7801-37.29814 13.7845 16.15002 24.8949 63.502644 27.6378 62.702628 0 0 17.6999-2.777942 23.2056 3.077805 17.9571 19.098904.3007 41.65022-17.6409 37.432082-17.8493-4.582116-37.473-35.0936-34.9826-65.914375zm183.0828 1027.1266s-3.8182-537.26123-3.7243-806.54801c68.0901 1.06127 54.7238-36.707747-.9011-32.731007l-.1864-248.281943-36.8836-1.28417s69.425-72.36962 113.4386-118.58332l1.0091 23.50229-66.9858 72.15912 69.36-.11748.2406 1191.3419zm-115.8279-1247.86203c16.8034-3.65608 34.3224 73.71734 63.4582 120.67083-33.1116 19.81939-85.3427-17.87577-97.0819-48.11991 7.6511-25.62843 34.1065-72.27733 33.6237-72.55092z" fill="#ffcd00"/><path d="m1423.1426-277.72656v280.6992162h174.1523v-280.6992162zm57.3086 1.08594 83.8437.0664c-1.1735 2.37413-2.2871 5.44141-2.2871 5.44141 2.5614 1.03274 4.549 4.88324 5.7793 8.13086 1.0796 2.85003 2.9477 9.80989 5.4082 13.20117-4.3034 2.45379-15.1224-3.02218-16.6641-10.48047l-3.6269 6.19531c-24.5563-4.78131-51.1245-1.30952-59.2559-.17773-3.9878-7.65509-9.6694-14.48464-13.1972-22.37695zm106.1465.88671c3.0973.005 5.9466.0175 8.041.043v9.89258l-21.9453 22.60156 8.6933.3711-.3008 38.96484c-3.1785.66594-6.914 4.00195-6.914 4.00195l-14.7403-7.91015s3.8229-1.60977 3.7168-4.17774c-.1515-2.87197-1.8636-5.22066-5.2597-4.33984-.7796.11332-1.1347-.21076-1.8867-1.97461-1.4384-3.37573-2.8599-7.0834-2.3047-6.96875 1.8086 1.45204 1.5378 1.53193 3.666 2.49219 3.9705 1.1002 6.387-2.61477 5.1328-5.6211-1.169-2.77311-3.1146-2.93253-5.0645-2.64843-.2855-.0657-.528-.38055-.7207-.74414-.6196-1.26252-1.5581-3.50925-2.2929-6.96485-1.1326-5.32868-1.3872-11.99813-.5606-13.67578 1.1426-2.31921 2.7207-5.45898 2.7207-5.45898 3.0741 5.89294 9.7745 11.05605 17.3028 9.22851.2538-.15892.3039-.99061-.037-1.47851-2.7748-4.43687-3.2436-8.25175-5.004-12.72852-1.8533-4.68728-3.2422-6.8214-5.414-8.55273l2.3652-4.3086s11.5149-.0573 20.8067-.043zm-160.7364.20508h52.9942l13.6523 23.13086c.2698.45729.6646.29504.9629.73438l-4.0469 21.73242c-6.3715-2.95002-11.7322 4.68082-8.2539 10.86328-19.6391 7.21239-42.2422 25.23242-42.2422 25.23242l-.1484-17.88476-12.918-13.44922zm169.4668 10.78516c-.7861 22.03816.3195-2.6095-.291 70.31445l.4297 139.072267c.7712 2.326297 1.095 3.233103.7969 5.578125l-13.6055-14.447266-.018-40.425786s-12.872-19.11546-15.8359-27.94335c-7.8468-19.54523-9.9043-30.90184-10.8555-46.94336l1.4258-2.27539-1.5898-2.04688-.01-5.46094 2.1191-2.16601-1.9394-2.47071.539-5.0996 1.5118-1.35352c-1.3459-1.49772-.8887-3.62045-.6582-5.10352.3842-1.16242 1.0129-1.00009 1.9453-.77343 4.8447 1.31377 9.7383 4.82185 14.2109 7.53711-.195 2.65438-3.4629 8.70572 1.0859 15.38086 1.6822 1.26685 6.5647.80308 6.9922.99414l-.037 20.55859-3.4355.19922 2.5801-2.91797-3.5059.26562 2.3789-2.48437-3.6504-.14844 2.6836-2.78906-3.5879.0723 2.6524-2.69336-3.3848-.0977 2.2363-2.46484-3.7226.2871 2.7168-2.94726-3.9883.0723 3.0234-2.75-3.9785.0273 1.1934-1.36719-1.0586-.53516c-1.0826.5066-7.5293 3.92579-7.5293 3.92579.056.56094 5.4594-1.45911 5.7031-1.35938 1.6275 7.21579 8.6436 23.17445 13.2715 27.82813l.3242-45.09766c.7079-.6595 1.8373-.33282 2.5586-.625 2.3468.12274 6.2676-3.82142 4.2187-4.60352-1.0713-.23771-7.003-1.25787-7.0195-1.55468.3099-12.84071.4518-26.21287-.092-40.16602-1.6586-.24756-7.0801-.55859-7.0801-.55859s19.8855-20.86353 20.2754-20.44336zm-76.7988 10.45508c2.7323.00087 4.4319.26696 4.043.9707-.1016.35813.6426-.74414.6426-.74414 0-.47708 19.5481.49018 29.1894 2.33789.161 1.33141-.1767 1.94953-.07 4.41016-5.8925-.98355-10.188.95011-11.4824 5.10742-.7856 2.25336-.4179 4.28323.7813 10.31054 1.1646 5.85287 1.1771 5.22257 1.039 6.01368-.1625.92875-1.1594 1.96442-2.5918 3.13281-.7073.57688-.8691 1.79297-.8691 1.79297s.4739-.24666.7363-.59571c.6376-.84821 1.4637-.76044 2.4043-1.2539 2.2137-1.16147 2.1406-2.28707.834-7.09375-.4719-1.93457-1.1404-3.82303-1.3691-5.80274 0 0 .7585.59668 1.6621 1.22071 1.4111.87881 2.5553 1.8432 4.1836 2.10937-1.5824-1.69015-3.1948-2.39722-4.4336-4.13281 3.0823 1.07094 6.6176.63827 8.4609-.2207 0 0-.3754 2.42738-.5234 5.69336-.3743 8.25976-2.3091 17.063-7.7735 22.15039-7.8224 7.28273-20.6762 2.34233-27.8086-4.4043l-.7714 1.17773c4.788 4.04061 13.0873 9.08263 21.1699 8.10352-3.3795 2.83395-10.834 7.52734-10.834 7.52734-5.1126-3.72761-8.8843-7.44592-14.4961-11.48242l-.9766.65039 15.4356 12.30664 16.6289-11.02539s-.6911 10.57712-.9512 14.44336l7.2149-6.41211-5.5645-8.2832 5.8984-6.10156s-.9979.14117.092-1.74219c3.3043-8.95321 3.7701-17.6013 4.6094-26.73828.5453 3.41398 1.1884 5.20645 2.4453 8.30469 1.154 2.98477 1.6067 2.96309 2.9082 2.52734 7.0555-.5956 3.8608 13.09026-4.4765 4.13867-.3665-.37991-.9679-.84512-.9961-.75586-.1733.54904 2.2115 7.75623 3.1347 9.41797.9758 1.75574.9849 2.00364 2.4336 1.85352 2.7116-.28093 3.6299.69036 3.9043 3.56054-.3606 5.42589-6.201 3.13443-9.9414 1.4668-.3383-.26069 1.7548 1.91641 2.5039 2.68359 1.0183 1.04272 1.1836 1.71094 1.1836 1.71094l-.2207 2.87891-5.7246 5.2539 4.7051 6.98633-.1953 2.49609-5.0293 6.06641 5.3594 5.84766.066 2.08398-4.3555 5.82617 5.8359 4.70508.2832 1.87696s-3.7473 6.96906-3.6464 7.22265c.085.21288 6.3261 4.54492 6.3261 4.54492l.627 2.9336-2.711 7.43945 6.4844 3.72266 1.1875 3.36132-1.8242 6.89258 6.7246 3.12305 1.918 3.88281-1.2481 7.24414 7.5371 2.24414 2 3.18555-.2617 6.369141 1.9238.191406v1.84375l-2.1601-.287109-.3262 8.787109 2.4863.214844v1.65039h-3.1269l-1.2754-1.304687.6016-9.88086-9.6407-1.617184-.916-1.24219 1.6153-9.15625-9.0508-2.63281-1.2188-2.2168 2.5664-9.52539-9.1211-4.0332-.6015-1.76758 3.8711-8.45508-8.3809-4.09375-.5254-2.02734 4.6543-8.7168-8.3047-6.07617.2442 1.54297 6.7031 4.8125-3.8828 7.43945c.041 3.13692 2.6736 10.30047 3.7539 13.64453l-12.793 8.65039c5.4808 3.31877 12.3987 3.20879 18.7481 4.45313 0 0 .2782.88846.7558 1.68554 1.8475 2.97902 3.5088 6.76749 5.5703 10.67578-1.5188.72025-3.8066.94727-3.8066.94727-4.5101 13.644246-.7382 32.512187-8.4766 43.029297 0 0-.1633.06694-.2675.09766-.7251.249144-1.2344-.960773-1.2344-1.777344 0-.920885.6498-1.690179 1.5137-1.865234v-.957031c-1.3921.184122-2.4688 1.371914-2.4688 2.822265 0 .862045.3826 1.633126.9824 2.15625-.3513.100568-1.3652.576172-1.3652.576172l-2.3672-2.603515 5.2266-5.181641.01-1.736328c-2.2253 2.325381-6.6875 6.917969-6.6875 6.917969l2.8477 3.009765-1.4082.660157-2.3086-2.552735-5.1797 5.351563-1.3262-.910157c1.7445-2.303514 2.8809-3.053489 5.4922-5.77539-1.3389-1.592835-6.3571-6.458602-6.5449-6.640625l-.014 1.738281 5.1348 5.005859-5.2051 5.144532s-3.1702-1.003036-4.4297-1.470704c1.7092 1.414217 4.7779 2.62691 6.4453 3.84961 7.5562 4.480425.3798 13.749077-6.5898 11.447266-.1983-.746804-3.8164 21.916015-3.8164 21.916015s-22.9846 2.272108-27.9512 2.318359c.6858-3.277518 1.9063-15.125 1.9063-15.125 1.3545-11.526129 2.4006-26.009249 9.9648-30.798828 0 0-1.1588-1.240412-2.1582-1.873046-.024.01633.8904.94571.9199 1.054687 0 .334933-.194.54624-.416.722656-1.6026 1.306233-3.5569 4.0149-3.4863 4.085938-6.2427-5.450897-16.012-10.14419-21.9004-8.195313-2.3231.489928-3.3534 2.740676-4.5859.914063 4.1581-25.692244-1.6613-53.307253-8.4415-72.953133 2.1363-.75842 13.0997-8.15039 13.0997-8.15039-5.6732-3.47753-17.4429-2.74154-19.4161-4.08593-.7735.43303-1.2949 1.26524-1.2949 2.21875 0 1.39907 1.1224 2.5332 2.5137 2.5332.261 0 .5131-.0394.75-.11328.6552 1.61556 1.2148 3.02929 1.2148 3.02929l-7.3847-3.23242 2.4062-8.12304-.8066-1.80274-2.9356 10.57813 9.4239 4.05859.6386 1.87695-3.9082 8.02539 8.4278 5.01953.3554 1.59766-4.5351 8.61524 8.1601 6.30273-5.9707 7.75586 7.3477 6.20508-.082 1.02929-6.0879 7.046883 6.2929 6.503907.1758 2.632812-6.8594 6.13086 5.9239 8.65039c-2.469 1.667276-3.8491 3.571265-5.4668 5.466797l-1.4453-.636719 5.2617-4.007812-5.6211-8.164063-5.9278 5.382813 3.2129 5.269531-1.9589-.894531-1.795-2.824219.293-2.884766 5.8574-5.361328-5.0351-7.332031-.041-1.34375s3.1311-3.618393 5.4101-6.308594l-6.3808-7.07813 5.2187-6.69726-6.5664-5.61915.1855 1.68555 4.8438 4.10938-3.7188 4.52929c-.2663 2.729698.3243 7.414522-1.0625 9.470711 2.2412 2.205815 1.0693 7.519911-.031 9.242187 2.1414 2.548678.9168 8.142937-.4492 8.378907 1.6347 2.060221.9832 6.23733-.3828 7.595703-.4376.234664 5.8359 2.509437 9.7929 5.242187-3.2926 6.160981-2.5242 11.95773-3.5625 14.046875-1.425-4.133531-3.2492-8.529907-4.8242-11.695312-.166-.328258-.5146-.254377-1.0371-.263672-6.5432-.585486-5.9205-6.009437-1.0137-7.398438-4.8848-2.403516-11.2404-7.583372-14.8808-8.96289.7177-1.491931 1.1313-4.072853 1.2383-6.34375.3638-3.378371-1.2598-8.5625-1.2598-8.5625l2.0722-1.28711c.4124-1.783909 2.7293-1.820761 2.9532-3.091796-.4896-5.459142-11.0918-26.364182-13.3301-28.726562-.8482 14.91762.7714 31.10969-.039 45.998046-9.9945-.03398-12.1298 5.333516-.053 6.1875-.2269 13.508541-.012 40.644531-.012 40.644531l7.1367.05078s-17.6385 18.466615-19.3008 20.023438c-1.5065-64.345145-1.4394-213.064455-1.4394-213.064455l13.4765 13.55664.1485 42.24219c4.5109 4.59511 7.0963 11.29609 9.7812 15.63672l7.3692 3.60156-1.7325 5.95312.7422 1.69336 2.3008-8.42383-8.0625-3.85156-.8535-1.74414 1.3574-7.93555-7.6308-2.63281-1.3223-1.82422.4785-7.75195-1.6016-.48437v-1.53711l1.5918.13476.5664-8.70117-2.1582-.63672v-2.99805c1.6465.92849 2.9031 1.86229 4.1309 3.375l-.7598 9.66407 9.6719 1.94922.7188 1.02343-1.7774 9.66016 10.1543 3.12305c-1.0421-2.57829-2.4243-4.99111-3.5742-7.5293 1.3947-.40614 2.8519-.49654 4.2637-.80078.3808-13.04863-.06-26.62616.3437-38.89844 3.6285-1.0228 5.4136-3.40591 7.8945-4.08594.9256 0 1.6758.75681 1.6758 1.6875 0 .84324-.6181 1.53431-1.4218 1.65821v.84961c1.269-.13063 2.2636-1.19686 2.2636-2.50782 0-.8941-.4598-1.67923-1.1562-2.13086l1.4082-.50781 2.4648 2.80273-4.9804 4.80274v1.45117l6.2539-6.28906-2.7657-3.21094 1.6465-.85937 2.5235 2.67382s5.4337-5.5911 5.0957-5.69336c-4.752-6.07841-.086-13.53065 7.1171-10.70703 1.6227-7.72885 3.1696-14.7033 4.4454-22.70898-1.698-.20417 15.7972-2.59834 23.9941-2.5957zm13.334 6.00781c-3.2377-.0605-7.3469 1.58209-9.8965 2.84375-2.3435 1.04707-1.8945 1.68103-.4277 1.23047 2.1246-.56397 4.381-1.13247 6.4433-1.53125 2.2097-.43541 5.4299-.0348 7.1114.79687 1.2418.61463 1.6767.25193 1.1308-.9414-.7897-1.71293-2.4187-2.36215-4.3613-2.39844zm16.4512 2.57617c1.4387.0433 2.8763.6475 3.9433 2.07813l-.059 1.32031c-2.5746-2.2691-6.9372-1.49018-9.3867-.17969.7026-1.80594 3.1041-3.29088 5.502-3.21875zm-20.3536 1.36523c-2.1694.0179-4.2448.41135-5.8457 2.02735 3.1277-1.27688 7.7058-1.39866 11.041-.0898.672.24147 1.795 1.10547 1.795 1.10547l-.4512.29493s-.9677-.0313-1.8125-.33008c-3.0382-1.07477-6.7853-1.26309-10.1855.27929-.8703.38991-1.5813.89802-2.4629 1.19727l.02 1.04492c1.2997.0214 2.5186.69641 3.3945 1.19141 2.9802 1.65289 4.4337 1.48601 7.2696 1.46875.6594-.004 1.4979-.21485 1.498-.21485 0 0-1.1276.87633-1.9473 1.14844-2.1246.92988-3.6251 1.04991-5.6132 2.18164 3.0159-.24251 7.3674-1.45342 9.9043-3.29297 1.7414-1.36398 2.2176-1.70455 1.4804-2.24804-.6755-.49768-1.1943-.51545-.2676-1.46875.3301-.33984.8919-1.0514.8907-1.18946-.01-.68342-4.1291-2.87677-6.5196-3.02929-.7297-.0466-1.4644-.0821-2.1875-.0762zm19.5528 1.45118c1.6268-.0649 3.1458.39364 4.5429 1.99609l-.072.74609c-3.1415-2.4485-6.8457-1.51613-9.7246-.51953.7864-1.03596 2.4238-1.75098 3.5918-2.00586.5653-.11511 1.1199-.19515 1.6621-.21679zm-21.2383 2.83398.6894.0156c.6381 3.41707 3.2494 2.64173 3.836.20507l.8125.23438c-.677 1.76501-1.6566 2.47927-2.5918 2.51758-1.3668.056-2.6389-1.33103-2.7461-2.97266zm-.877.0117c.1687.94225.9202 2.3344 1.1582 2.55273-.121-.0283-1.5094-.35506-1.957-.54882-1.7617-.76257-1.9452-1.06291-1.0449-1.54102.6107-.32428 1.1906-.43723 1.8437-.46289zm20.4297.60547c.1991.0134.3579.055.4141.0918.4494 2.76259 2.5346 2.1881 3.043.34961.239-.0228.5402.0149.9472.16015-.7429 1.4696-1.7868 2.18763-2.7402 2.1875-1.0804-.00008-2.0472-.92296-2.3242-2.71484.2217-.0727.4611-.0876.6601-.0742zm-13.5508.0195s1.1292.48631 1.3868.88867c.1758.39829-.2341.70757-1.1094.98633-.4002.12742-1.5664.15625-1.5664.15625.6706-.6575.8272-1.10219 1.289-2.03125zm11.836.0859c.091-.003.1737.003.2422.0215.3007 1.69113.7718 1.92869 1.1797 2.58399-1.2516.0946-3.3007-.87445-3.3945-1.34375l.01-.31641c.2182-.40898 1.3183-.92099 1.961-.94531zm6.7851.76367.9141.47266-.123.6914c-.7226.33474-1.4805.56018-2.2872.64258.4877-.34008.9964-1.1074 1.4961-1.80664zm-16.3398 8.95508c-.5883.0355-1.5395.69946-2.1914 1.58789-2.5773 3.51268.2582 7.06144 3.8301 5.0332.8046-.45688 1.9278-.59417 2.7441-1.13476 1.7263-1.19748.109-2.19273-1.0898-1.94336-.4903.11251-1.0587.35784-1.6875.77734-2.1615 1.44215-3.3604 1.23106-3.5645-.51562-.2206-1.88744 2.6722-2.73818 2.4024-3.61524-.091-.14274-.2472-.2013-.4434-.18945zm-4.1113 10.13086c-.2914.0876-.5743 1.09229-1.1953 2.74023-.4261 1.04906-.5582 1.92539-.1329 1.91992.1417-.002.3478-.10315.6231-.32617.7964-.53159 2.0423-1.24435 5.0488-.41406 1.6527.54619 3.5062.0689 4.586-.23633.8416-.2379 2.0484-.47088 3.0136-.0273.9431.45568 1.9768 1.14636 1.7852.43359-.048-.18132-.1062-1.22587-.1192-1.8457-.031-1.45825-.1306-2.67332-1.1777-1.5293-.4533.49557-1.0002.49868-2.0254.0918-.7311-.29013-1.2443-.48586-1.8105-.11328-.8024.52796-1.4946.6607-2.9766.15625-.7028-.23933-1.4408-.26124-2.3301.28906-1.4781.91454-2.4154.0254-2.9824-.91016-.1123-.18519-.2095-.25771-.3066-.22851zm-45.6875 1.93359-5.8067 5.97266 5.5801 5.85742v-1.40234l-4.1758-4.39844 3.9961-4.08399c.5821-.80198 2.071-.62837 2.5391-.68359-.3232-.99875-1.2167-.87524-2.1328-1.26172zm-.2266 3.56055c-1.283.11693-2.293 1.18874-2.293 2.50976s1.01 2.3946 2.293 2.51172v-.84961c-.8169-.1122-1.4492-.80942-1.4492-1.66211 0-.85268.6323-1.54991 1.4492-1.66211zm47.5566.12109c-.1185-.009-.2023.006-.25.0469-.3973.34338 1.0013 1.6877 2.3399 1.93945 1.0265.19304 2.3514.0348 2.3515.19531-.56.13872-1.2209.43321-1.5097.63672-.062.42067.246.85464.6113.91406.3926.0639.7006-.3493.9981-.46875.2507-.0952.5961-.0364.8691-.0371.8751-.002 1.9618.62106 2.2012.50782.2739-.12956.3221-.77675.1679-.96485-.5303-.41946-1.2004-.59012-1.8769-.76953 0 0 .7863-.17055 1.0879-.24219.444-.10459.8017-.13289 1.084-.53711.1757-.25152.191-.69001-.1094-.68554-1.7461.026-3.9628.74773-6.0527.043-.8956-.32222-1.5567-.55254-1.9122-.57813zm17.7676 2.30664-5.7344 4.9336 4.9063 7.18554 6.2617-5.05664-4.0312-6.21484zm-72.209 1.16406-5.9179 6.29688 6.164 6.2207 5.9805-6.01367zm72.0489 3.26758c.8697 0 1.5742.71336 1.5742 1.58789 0 .87454-.7045 1.58203-1.5742 1.58203-.8698 0-1.5782-.70749-1.5782-1.58203 0-.87453.7078-1.58789 1.5782-1.58789zm-71.9102 1.60352c.8697 0 1.5781.7114 1.5781 1.58594 0 .87453-.7083 1.58203-1.5781 1.58203-.8697 0-1.5742-.7075-1.5742-1.58203 0-.87454.7045-1.58594 1.5742-1.58594zm64.5527 1.0957 4.334 6.375-5.2402 4.51953c.084-1.06039.1419-1.91759.1953-2.69922 1.1753-.34979 2.0371-1.44535 2.0371-2.74023 0-1.14892-.6775-2.13754-1.6504-2.5918.078-.81895.1798-1.72431.3242-2.86328zm-72.1191 1.1582v1.70118l4.8145 4.98437-4.8125 5.04688.098 1.61718 6.4121-6.57617zm14.3125.37696-5.9746 6.33398 5.9746 6.23242v-2.00976l-4.0937-4.32617 4.0937-4.22657zm97.6367.45898c.9145-.0305 1.9082.0655 3.043.27539-.5211 2.06383 1.6599 3.17528 1.9746 2.71875.04-.007.2075-.3677 0-.39258-1.5642-.1928-1.4407-2.06808-1.2559-2.07617 1.7292.0539 2.8525.0246 3.0293.79883.1089.47703-.1678 1.21384-1.1757 2.04297-1.1836.95249-6.6329.93164-6.6329.93164-.021-.008.012 1.55696-.5351 2.45508-.4807.78868-1.1469 1.66482-.6895 2.02734.7859.36593 1.3175 1.25264 1.4297 2.27539.2123 2.1435-.1231 7.30226-.047 7.35742-.9176.0872-1.9693.18664-2.9825.18555-1.6886-.002-3.264-.2927-3.9062-1.42187-2.5863-3.48268-1.8431-10.63771-.053-13.09766 3.0184-2.75472 5.0533-3.98869 7.7969-4.08008zm-26.4726.98828-.1133 1.45313c-1.2523.29818-2.1836 1.43057-2.1836 2.78125 0 1.19639.7306 2.21794 1.7676 2.64258l-.1582 2.04296-3.625-5.11328zm-13.7754.93164c.4785.34562.7929.9047.7929 1.54102 0 .72802-.4094 1.36137-1.0078 1.67969.078-1.21319.1336-2.21072.2149-3.22071zm-57.3887 1.41797c-1.1887.2277-2.0977 1.23251-2.0977 2.48633 0 1.25376.9087 2.28263 2.0977 2.48438v-.86329c-.7188-.18763-1.2498-.83773-1.25-1.62109 0-.78335.5312-1.43756 1.25-1.62695zm-14.248.0957c-.04.33592.013.61152 0 .8496.9256 0 1.6757.75877 1.6757 1.68946s-.7501 1.68164-1.6757 1.68164c-.028.35276.022.69457 0 .84766 1.3913 0 2.5195-1.13023 2.5195-2.5293s-1.1282-2.53906-2.5195-2.53906zm85.2226.0371-.2617 3.36524c-.5358-.33447-.8945-.93137-.8945-1.61328 0-.78876.4761-1.46382 1.1562-1.75196zm-6.7305 2.47657-6.207 6.21484 6.0059 6.6543 5.4922-5.96094zm-71.0937.625-5.9238 6.35547 6.0527 6.2207 6.1348-6.13867zm70.8516 4.26172c.8697 0 1.5781.71335 1.5781 1.58789 0 .87453-.7084 1.58203-1.5781 1.58203-.8699 0-1.5743-.7075-1.5743-1.58203 0-.87454.7045-1.58789 1.5743-1.58789zm-70.7129.61914c.8697 0 1.5742.70945 1.5742 1.58398 0 .87454-.7045 1.58203-1.5742 1.58203-.8698 0-1.5782-.70749-1.5782-1.58203 0-.87453.7078-1.58398 1.5782-1.58398zm63.0312 1.48437.02 1.58203 5.2969 5.58399-4.9629 5.81836.1133 1.70508 6.3516-7.61133zm-70.5176.56446c-.089.519-.09 1.04222-.1152 1.56445l4.9902 5.06445-4.7109 4.89063-.1836 1.9082 6.5352-6.63867zm14.1973.82421-5.7383 5.94922 5.7383 5.81641v-1.79688l-3.959-4.05078 3.959-4.06445zm70.2383 1.6875.031 1.40235c-1.01.43841-1.7168 1.4503-1.7168 2.62695 0 1.21874.7578 2.25248 1.8262 2.66211l.029 1.44336-3.7949-4.01367zm-110.793.66211 1.8516 2.25c-.3153.42374-.5039.94967-.5039 1.51953 0 1.39908 1.1281 2.5293 2.5195 2.5293.3971 0 .7709-.0951 1.1055-.25976l2.2519 2.73632-7.6972-1.46289zm26.2422.71289v.84766c.9113.0162 1.6484.76107 1.6484 1.68164s-.7371 1.66548-1.6484 1.68164v.84766c1.3771-.0162 2.4902-1.14035 2.4902-2.5293s-1.1131-2.51305-2.4902-2.5293zm70.6523.17774v.99805c.7299.26406 1.2559.96518 1.2559 1.78906 0 .82353-.5265 1.52018-1.2559 1.7832v.99805c1.2615-.2913 2.2071-1.4249 2.2071-2.78125s-.9455-2.49474-2.2071-2.78711zm-56.3398.30078c-1.1165.25907-1.9492 1.26225-1.9492 2.46484 0 1.2026.8327 2.20577 1.9492 2.46485v-.88477c-.6441-.23432-1.1055-.8502-1.1055-1.58008 0-.72987.4614-1.34581 1.1055-1.58007zm70.291.62305.066 3.13867c-.5159-.33841-.8535-.9194-.8535-1.58594 0-.63746.3088-1.20729.7871-1.55273zm-108.4297 1.11718 1.9961 2.43164c-.1711.0589-.3546.0879-.5449.0879-.9256 0-1.6777-.75096-1.6777-1.68165 0-.30418.087-.5912.2265-.83789zm102.6231 1.66016-5.7012 6.72266 6.3555 4.93164 4.916-6.28125zm-71.1953.11328-6.0879 6.24219 4.3242 4.75195-2.1387-.20312c-.9021-1.03404-1.8949-2.67847-3.5527-3.55664l.164 1.24023c.085-.0588 2.0122 1.82407 1.7071 2.13086l-1.7012-.125c-.1369.0372-.066.62891-.066.62891 4.5568.44082 9.223 1.3355 14.0742 3.01172l-.1269-.8711-.7598-.33398s.4767-.57731.875-1.02344v-1.56826l-2.0215 2.30273-.9765-.36132 2.998-3.0625v-1.15821l-3.9707 3.91992-1.9375-.5371 5.2812-5.22852zm71.0879 4.32422c.8698 0 1.5742.7075 1.5742 1.58203 0 .87454-.7044 1.58594-1.5742 1.58594-.8697 0-1.5723-.7114-1.5723-1.58594 0-.87453.7026-1.58203 1.5723-1.58203zm-71.252.45312c.8697 0 1.5781.70945 1.5781 1.58399s-.7084 1.58203-1.5781 1.58203c-.8693 0-1.5742-.70749-1.5742-1.58203s.7049-1.58398 1.5742-1.58399zm-35.5664.30665-.6387 7.90039 7.8789 2.64648 1.3106-8.71289zm-3.1914.49609.6035.13476-.2207 4.21876-.3828-.0684zm102.3184 1.47266.1171 1.68554 5.543 3.98242-4.2168 5.64649.3594 1.99609 5.7812-7.6582zm-87.5684.7871 1.7793 2.97266c-.4842.46238-.7871 1.1116-.7871 1.83594 0 1.39907 1.1224 2.5332 2.5136 2.5332.2822 0 .5554-.0488.8086-.13476l1.6192 2.70507-7.5488-2.38476zm101.625.26758.166 1.23633c-.731.51759-1.209 1.37452-1.209 2.3418 0 1.237.7836 2.28316 1.877 2.67969l.1386 1.05468-4.0371-3zm-109.0762.42383c.87 0 1.5742.70945 1.5742 1.58399 0 .87453-.7042 1.58203-1.5742 1.58203-.8697 0-1.5722-.7075-1.5722-1.58203 0-.87454.7025-1.58399 1.5722-1.58399zm109.3965 1.9707.3594 2.70899c-1.0465-.92628-.9844-1.65828-.3594-2.70899zm-13.9355.25586.123.96875c.9218.12695 1.6367.91565 1.6367 1.87696 0 .79492-.4899 1.46554-1.1797 1.74804l.1231.97657c1.1593-.36021 2.0078-1.44172 2.0078-2.72461 0-1.53177-1.205-2.77429-2.7109-2.84571zm-85.7774.80469 1.6289 2.73047c-.114.0246-.2341.041-.3555.041-.9255 0-1.6699-.75486-1.6699-1.68555 0-.41509.1495-.79173.3965-1.08594zm94.0762 2.08789-4.627 7.0586 6.5137 4.55078 4.0371-7.05274zm-107.5137 2.28516 5.2559 1.89258-.8379 5-1.0293-1.60157c.3203-.42431.5156-.95163.5156-1.52539 0-1.39907-1.1341-2.53515-2.5254-2.53515-.1887 0-.3741.019-.5508.0586zm8.2949 1.61328-1.6054 8.30469 7.7968 3.54101 2.1895-8.77343zm99.8985.23437c.8698 0 1.5781.7075 1.5781 1.58204 0 .87453-.7083 1.58203-1.5781 1.58203-.8696 0-1.5742-.7075-1.5742-1.58203 0-.87454.7046-1.58204 1.5742-1.58204zm-106.8614.23243c.016-.0005.031 0 .047 0 1.4673.0281 2.0874 1.24148 1.5059 2.42382zm137.795 1.74414-.022 1.85156-2.2012.38672zm-24.2598 1.08398.3437 1.61328c-.7363.51686-1.2187 1.37019-1.2187 2.3418 0 1.39836.9952 2.56075 2.3145 2.80664l.3554 1.67187-4.4472-3.08789s1.437-3.4854 2.6523-5.3457zm-103.1992 1.00781c.87 0 1.5781.7075 1.5781 1.58204 0 .87447-.7081 1.58789-1.5781 1.58789-.8696 0-1.5742-.71342-1.5742-1.58789 0-.87454.7046-1.58204 1.5742-1.58204zm127.4844.83399s-.01 1.28836 0 1.85351l-1.2539-.36328zm-23.7149.83008.6426 3.02539c-.6685-.29172-1.1348-.9617-1.1348-1.74219 0-.49453.185-.94454.4922-1.2832zm-13.6933 2.125c-.1023 0-.1966.0265-.295.0391.1155.39554.2071.63018.295.91797 1.0436 0 1.8925.85294 1.8925 1.90234 0 .77805-.4764 1.42529-1.1425 1.71875l.2207.95703c1.0912-.39824 1.8732-1.44099 1.873-2.67578 0-1.57752-1.2749-2.85937-2.8437-2.85937zm-80.1368.3789c.3683.83313.8743 1.65616 1.3321 2.77539-.1361.0358-.1767.0625-.3243.0625-.9256 0-1.6718-.749-1.6718-1.67968 0-.60997.182-.86171.664-1.15821zm88.4102 1.66992-3.6817 8.25196 7.3536 4.34765 3.3984-7.91601zm-101.168 3.06055c-.3103.002-.5878.0336-.8359.0918-.7257.97784.3025 4.72672 2.2324 4.68164.7047-.45443 1.1232-1.33684 1.1231-2.24024 0-1.39907-1.1283-2.54182-2.5196-2.5332zm6.8281.5586-2.0918 7.98242 7.5743 4.24609 2.8945-7.80273zm-6.8281.28906c.9245.0434 1.6757.75486 1.6758 1.68554 0 .53014-.2423 1.00347-.623 1.3125-1.447 1.09151-1.6597-3.14026-1.4258-2.92187.104-.055.2273-.083.373-.0762zm102.7266.98242c.8697 0 1.5739.71335 1.5742 1.58789 0 .87454-.7045 1.58203-1.5742 1.58203-.8698 0-1.5723-.70749-1.5723-1.58203s.7025-1.58789 1.5723-1.58789zm6.6738 2.6582.6289 2.02149c-.4283.50092-.6894 1.1491-.6894 1.86133 0 1.33184.9068 2.44604 2.1328 2.76171l.5508 1.76758-4.7774-2.80664zm-99.7168.59961c.8696 0 1.5723.7075 1.5723 1.58203 0 .87454-.7027 1.58203-1.5723 1.58203-.8699 0-1.5742-.70749-1.5742-1.58203 0-.87453.7043-1.58203 1.5742-1.58203zm8.1445 1.19922.92 3.08203c-.6662.45653-1.1055 1.22192-1.1055 2.09375 0 1.38862 1.1113 2.51646 2.4883 2.53321l.7715 2.57617-6.1758-3.5586zm92.5801 1.43164.6895 2.20899c-.4865-.34294-.8067-.91282-.8067-1.55664 0-.22956.043-.44843.1172-.65235zm-13.9394.70508 6.2832 3.3125c-.8807 2.37926-1.6343 4.02794-2.9199 6.38086-.4794-.87059-.8392-1.78103-1.168-2.71485.7532-.51311 1.25-1.37794 1.25-2.36132 0-1.52014-1.184-2.76687-2.6738-2.85547-.056-.003-.3184-.041-.3184-.041zm-93.0567 1.10156.6016 1.56055 5.916 3.43359-2.5371 6.19141.5371 1.81055 3.4863-8.55665zm15.5977.71289.8594 2.87891c-.7861-.13848-1.3828-.8237-1.3829-1.6543 0-.48343.1999-.9167.5235-1.22461zm78.3379.92578c.9986.0511 1.6152.86035 1.6152 1.87696 0 .5622-.2461 1.06293-.6328 1.41015zm8.2383.76954-3.3321 8.22656 8.336 3.76953 2.2968-8.17578zm-100.1719 1.40039c-2.5289.0579-1.2398 5.08906 0 5.06835 1.3914 0 2.5195-1.13413 2.5195-2.5332s-1.129-2.58681-2.5195-2.53515zm0 .84961c.9256 0 1.6777.75485 1.6777 1.68554s-.7521 1.68555-1.6777 1.68555c-.7347-.30929-.9322-3.27619 0-3.37109zm7.3183.79101-3.4961 7.9043 6.9825 4.92773 4.1133-8.17383zm94.9258 1.5293c.8698 0 1.5723.70749 1.5723 1.58203 0 .87453-.7026 1.58203-1.5723 1.58203s-1.5742-.7075-1.5742-1.58203c0-.87454.7045-1.58203 1.5742-1.58203zm6.9668 2.73047.5703 1.18945c-.2764.44113-.4414.95999-.4414 1.51953 0 1.47366 1.1105 2.68676 2.5352 2.83984l.6992 1.45313-4.6836-2.14063zm-99.7597.56836c.8697 0 1.5742.70749 1.5742 1.58203 0 .87453-.7045 1.58789-1.5742 1.58789-.8698 0-1.5782-.71336-1.5782-1.58789 0-.87454.7078-1.58203 1.5782-1.58203zm7.5644 1.68164s.3519 1.37408.7969 3.2207c-.8532.4063-1.4453 1.27848-1.4453 2.29102 0 1.39901 1.1281 2.5332 2.5195 2.5332.01 0 .021.00012.031 0 .2361 1.10803.4457 2.17614.5957 3.07617l-6.0039-4.31641zm93.3164.082.9922 2.06836c-.6125-.31316-1.056-.95203-1.0332-1.69141.01-.21158.024-.21593.041-.37695zm-14.1562 1.12695 7.3886 3.25195-2.1015 7.38477-1.6914-2.96289c.6977-.5199 1.1504-1.35105 1.1504-2.29102 0-1.57752-1.2752-2.85937-2.8438-2.85937-.235 0-.4596.0337-.6777.0879zm-93.2891 1.18945.4981 1.72657 5.1874 3.82617-3.0175 5.56055.3203 2.0625 4.2656-8.08204zm15.1309 1.67579c.2328.98108.4774 2.04986.7109 3.11132-.8521-.0791-1.5176-.79625-1.5176-1.67382 0-.60951.3253-1.14094.8067-1.4375zm80.0605.61523c1.0435 0 1.8926.85295 1.8926 1.90234 0 .55488-.2394 1.05367-.6172 1.40039l-1.5371-3.2832c.085-.0119.1728-.0195.2617-.0195zm8.1914.0879-1.9375 9.17188 8.1758 2.73046 1.7227-8.68164zm-102.041 1.97461c-1.9024.46279-.8807 4.86086 0 5.06641.6621.1545 1.2947-.26893 1.748-.70899.4746-.46077.7715-1.1086.7715-1.82422 0-1.39907-1.1281-2.5332-2.5195-2.5332zm.334.8418c.7584.0885 1.3418.87705 1.3418 1.6914 0 .93069-.7502 1.68555-1.6758 1.68555-1.0433-.32029-.6902-3.26264 0-3.37109.1144-.018.2257-.0181.334-.006zm6.5508 1.09765-4.0215 6.90821 6.4433 4.97265 4.6778-6.3125zm-28.9629.006.8672.64844-.8731.97461zm126.8242.78516c.8697 0 1.5742.70749 1.5742 1.58203s-.7045 1.58789-1.5742 1.58789c-.8699 0-1.5742-.71335-1.5742-1.58789s.7043-1.58203 1.5742-1.58203zm7.0801 1.51953c.084.31754.3804.89326.7773 1.57812-.2273.41128-.3594.88112-.3594 1.38477 0 1.57753 1.2691 2.85352 2.8379 2.85352.076 0 .1525-.004.2266-.01.4719.69928.8125 1.19531.8125 1.19531l-5.291-1.55664zm-133.9043.31641 1.6777.83593-1.7187 1.41993zm30.4785 2.1289c.8699 0 1.5801.7075 1.5801 1.58203 0 .87454-.7096 1.58399-1.5801 1.58399-.8696 0-1.5723-.70945-1.5723-1.58399 0-.87453.7027-1.58203 1.5723-1.58203zm104.8301.17188c.4554.73479.9495 1.49833 1.4082 2.1914-.829-.20015-1.4434-.94993-1.4434-1.8457 0-.11847.015-.23317.035-.3457zm-135.3399.96289 2.3555.38476-1.9941 2.53907 3.5136-.16016-2.4121 2.63086 3.8887.0898-3.0332 2.58789 4.0918.0488-3.041 2.54688 4.4804-.20508-3.2089 2.77148 4.4277-.0195-3.3027 2.787111 4.332.05859-2.8145 2.503907 3.7813.04492-4.2735 3.017579c-1.8257-.802231-4.275-1.257478-6.7382-1.310547zm38.125 1.16211.2891 2.28515c-.9704.3525-1.666 1.28522-1.666 2.38282 0 1.31686 1.0001 2.39711 2.2773 2.51953l.334 2.67187-5.5371-4.5332zm83.877 1.01758 7.0547 2.08007-1.3731 7.29493s-.8274-1.33736-1.7734-2.8125c.5088-.51552.8222-1.22235.8222-2.00586 0-1.57753-1.2741-2.85938-2.8437-2.85938-.2884 0-.5658.0425-.8281.12305-.3703-.70275-1.0586-1.82032-1.0586-1.82031zm9.7285 1.94921-1.0234 8.31446 8.6171 1.60937s.409-5.20583.6387-7.71094zm-93.209.19141.3965 3.1543c-.7576-.161-1.3262-.83415-1.3262-1.64453 0-.66063.3798-1.23284.9297-1.50977zm85.3672.51172c1.0436 0 1.8926.8549 1.8926 1.9043 0 .44449-.1515.85069-.4063 1.17382-.6299-.99842-1.2843-2.07465-1.8359-3.04687.1138-.0215.23-.0312.3496-.0312zm-27.627.20312v.52344l1.4512.375-1.4687 1.76758-.014 1.67578 2.7832-2.99805 1.0293.23829-3.8223 3.96289-.014 1.67187 5.1113-5.25781 1.5371.35156-5.3731 5.51172 5.9493 6.214843 6.3711-6.503903-4.5-4.70117 2.4882.27539 3.3457 3.42968v-1.34765l-1.6269-1.8711 1.6309.0566v-.41992l.051.008c-5.2378-1.30814-11.1525-2.35446-14.9297-2.96289zm-71.8906.32227c-.4671.19062-.5613 4.41392.098 5.08594 1.3913 0 2.5254-1.13023 2.5254-2.5293s-1.1341-2.53906-2.5254-2.53906c-.034-.0254-.067-.0303-.098-.0176zm.041.86719c.017-.0109.036-.0111.057 0 .9256 0 1.6816.75876 1.6816 1.68945s-.756 1.68164-1.6816 1.68164c-.1399-.70696-.3081-3.20777-.057-3.37109zm110.7481 1.55078c.8699 0 1.5781.7114 1.5781 1.58594 0 .87453-.7082 1.58398-1.5781 1.58398-.8696 0-1.5742-.70945-1.5742-1.58398 0-.87454.7046-1.58594 1.5742-1.58594zm-103.8945.082-4.5235 5.63672 5.7109 6.333982 5.1934-6.277342zm111.0371 1.25781.7714 1.19531v3.46289l-.9628-.15624zm-38.6641 2.22656c.8697 0 1.5742.7075 1.5742 1.58204 0 .87453-.7045 1.58398-1.5742 1.58398-.8698 0-1.5723-.70945-1.5723-1.58398 0-.87454.7025-1.58204 1.5723-1.58204zm-71.4473.82227c.87 0 1.5782.7075 1.5782 1.58203 0 .874543-.7082 1.582037-1.5782 1.582032-.8697 0-1.5722-.707489-1.5722-1.582032 0-.87453.7025-1.58203 1.5722-1.58203zm78.9356 1.12305-6.7051 6.974606 6.6641 6.837891v-1.669922l-5.1563-5.142578 5.1875-5.246094zm-14.9414.5664-.014 1.687503 4.8203 4.875-4.9004 5.042969-.012 1.519531 6.2734-6.519531zm34.1972 1.417972 7.5586 1.220703-.4257 7.833984s-1.606-1.721597-2.1504-2.425781c.4257-.498794.6894-1.140842.6894-1.849609 0-1.577525-1.2749-2.859375-2.8437-2.859375-.4518 0-.8749.109722-1.2539.298828-.2916-.435303-1.5743-2.21875-1.5743-2.21875zm-90.7754.01172v2.787109c-.9874.343294-1.6972 1.288711-1.6972 2.398438 0 1.111247.7136 2.047753 1.7031 2.388671v2.601563l-4.8066-4.808594zm-13.4628 1.478515 3.8046 4.21875-3.5839 4.230469-.051-1.964844c1.0806-.285318 1.8828-1.271612 1.8828-2.447265 0-1.222442-.8657-2.241849-2.0117-2.480469zm84.9707.652344c-1.346.194537-2.3809 1.389245-2.3809 2.806641 0 1.41119 1.0255 2.557269 2.3633 2.787109v-.964844c-.8119-.211114-1.4141-.938886-1.4141-1.822265 0-.886865.607-1.621027 1.4238-1.830079zm-14.959.09766-.01.960938c.8504.186266 1.4902.945293 1.4902 1.855468 0 .920886-.6541 1.685427-1.5195 1.859376l-.01.958984c1.3948-.181894 2.4786-1.366676 2.4786-2.81836 0-1.434826-1.0584-2.612847-2.4297-2.816406zm37.0547.634766c1.0436 0 1.8925.854899 1.8925 1.904297 0 .40027-.1231.768395-.3339 1.074219l-2.211-2.859376c.2037-.07604.4221-.11914.6524-.11914zm-93.5996.851562.01 2.939454c-.5126-.287382-.8594-.835775-.8594-1.46875 0-.629382.3419-1.180614.8497-1.470704zm-13.4043.199219c.6667.223432 1.1464.856886 1.1464 1.601563 0 .711859-.4373 1.322051-1.0586 1.568359zm77.5722 2.382813-5.9961 6.365234 5.666 5.765625 6.0118-6.226563zm-71.5351.18164-5.1524 6.296875 5.0742 6.845703 6.2676-6.28125zm-32.1446.146485s4.6783.02064 6.3047 1.203125c1.7034 3.12489 2.8628 9.863497.3614 13.5625-.8743 1.108638-2.1562 1.637538-3.6309 2.8125-1.1368.905777-2.7041 1.347626-4.0684 1.349609-1.365.002-2.5318-.449267-2.8886-1.345703-.2799-.503698-.4295-.938857-.8379-1.126953-.7961-.366819-1.878-.113171-1.9297.15625-.094.0013 1.2699.13183 1.5019.341797 1.0663.965561.8864 1.571965-.6269 1.451172-.4874-.02213-1.8502-.04213-1.8809-.578126-.3026-1.847698 2.1425-3.20094 5.2696-2.953124 2.2305.370598 2.2407-.492592 2.3964-1.689454.098-.393013.44-1.028748.7188-1.53125.7888-1.421896 1.0504-1.223348.5-1.773437-.5333-.699246-1.2253-1.567135-1.2149-2.382813zm103.3809 4.134765c.8701 0 1.5723.711402 1.5723 1.585938s-.7022 1.583984-1.5723 1.583984c-.8696 0-1.5781-.709448-1.5781-1.583984s.7085-1.585938 1.5781-1.585938zm-70.8262.857422c.8696 0 1.5742.707495 1.5742 1.582031 0 .874535-.7046 1.587891-1.5742 1.587891-.8699 0-1.5722-.713356-1.5722-1.587891 0-.874536.7023-1.582031 1.5722-1.582031zm78.4297.882813-6.6328 7.101562 6.6211 6.882813.01-1.652344-5.254-5.230469 5.254-5.484375zm31.9902.15625v2.363281l-2.3203-2.341797zm-47.0019.08203-.016 1.863281 4.9238 5.119141-5.0059 4.998047-.016 1.724609 6.4902-6.697266zm-69.8399 3.037109 3.4707 5.009766-4.1796 3.923828.1679-2.166016c1.1886-.203464 2.0996-1.239337 2.0996-2.492187 0-1.111254-.7164-2.052422-1.707-2.394531zm13.5547.515625-.2734 2.990235c-1.1758.214139-2.0664 1.251763-2.0664 2.496093 0 1.080585.6724 1.999783 1.6191 2.363282l-.2617 2.849609-4.3496-5.890625zm56.252.396485-.01.955078c.9667.08441 1.7305.893187 1.7305 1.886719 0 1.003647-.7791 1.813352-1.7598 1.882812l-.01.957031c1.5096-.06712 2.7187-1.305426 2.7187-2.839843 0-1.517632-1.1834-2.749545-2.6699-2.841797zm46.9531.01758v18.511719l13.3574 14.140624v50.16016075h-52.5097l-15.3926-25.87695275c.9251-6.778968 3.3223-19.900391 3.3223-19.900391 1.4129.342948 6.1794.793875 8.7539-2.917969 1.2283-1.770868 1.8851-4.184446.2285-7.990234-.2357-.452281-.6231-1.103516-.6231-1.103516s.4194-.109984.7129-.302734c20.1817-7.506014 41.7733-24.228667 42.1504-24.720703zm-31.9219.08594c-1.3374.231864-2.3554 1.399235-2.3554 2.810547 0 1.405916 1.0178 2.565598 2.3476 2.802735v-.980469c-.8005-.219436-1.3984-.94675-1.3984-1.822266 0-.879748.596-1.614774 1.4023-1.832031zm-85.0586 1.75c.5525.276433.9297.848098.9297 1.509766 0 .756184-.4949 1.394611-1.1777 1.607422zm13.42 1.634766-.2832 3.070312c-.5128-.287308-.8575-.835576-.8575-1.46875 0-.744676.4751-1.378131 1.1407-1.601562zm63.9824.603516-5.9707 6.205078 5.8574 6.039062 6.0723-6.173828zm-96.6445 2.507812 12.9941 7.228516.9355.480468s-.3588.10279-1.1211.605469c-1.4693.9688-2.0291 3.351097-1.3613 5.140625 1.0916 2.92538 3.3447 2.397773 5.2227 2.404297 1.5602 1.211186 2.8949 5.262795 3.9902 7.966797.5063 1.174609.9913 2.074404 1.1172 2.755859.1164.629647.1113 1.179688.1113 1.179688s-.2522-.07809-.6211-.837891c-2.0699-4.384576-6.9068-6.503223-9.4765-2.357422-1.3021 2.542141-.4025 5.444181 1.7851 6.25586.6695.248414 2.9453-.01563 2.9453-.01563.1328-.08013 1.6513 2.15282 3.795 9.488281.8804 3.029861 1.1101 9.601847.2714 10.546875-1.4199 1.732736-1.7846 4.167747-2.9863 5.916015-.1465.294898-.4394.810547-.4394.810547-2.3295-4.936381-9.0968-9.206029-13.6758-8.830078-3.3251.273006-4.3625 1.28791-3.5742 2.253907 1.8291 1.878639 3.0249 4.516705 3.625 6.826171 1.3968 5.375305 2.879 10.1695583 6.6347 14.3476566l-2.1562 4.24609378-27.7246-.18164063v-10.28905655l21.3652-22.8398442-8.2383-.103515.088-39.175781c2.2583-.943753 4.4114-2.407898 6.4942-3.822266zm96.582 2.048828c.8697 0 1.5742.707496 1.5742 1.582031 0 .874536-.7045 1.585938-1.5742 1.585938-.8698 0-1.5742-.711402-1.5742-1.585938 0-.874535.7044-1.582031 1.5742-1.582031zm-71.9766 2.072266c.8698 0 1.5782.707495 1.5781 1.582031 0 .874536-.7077 1.587891-1.5781 1.587891-.8697 0-1.5742-.713355-1.5742-1.587891s.7045-1.582031 1.5742-1.582031zm15.8047.628906c5.7448-.125648 11.8897 3.145421 18.4395 8.238281-4.3422 12.094843-4.8172 24.894935-4.9746 25.367188 0 0-2.3248-.289304-3.0567-.703125-1.6222-.927418-3.4676-1.485493-5.2402-1.582032-1.6498-.0899-1.916-.0918-1.916-.0918 2.2084-1.484765 4.7985-1.703133 6.705-2.603516 0 0-.7028-.349331-1.9257-.238281-2.6245.238335-5.1582 1.287025-7.8457 3.083984-1.8614 1.244294-1.9297 1.245331-1.4297 2.806641.1204.375798.3733.939688-.5137 1.267578-.9198.340167-.7903.717128-.2676 1.136719.1283.102896.4591.127118.5918.232421.1658.130881-.011.717417-.01.796876 3.1787 2.703445 8.6339 2.93139 13.3515.507812.3116-.160078 1.1152-.482422 1.1152-.482422l-.1113 1.164063c-2.7503 1.818774-6.5186 2.330979-9.373 2.36914-1.7111.02774-2.0461-.190838-4.6231-.982422-1.0596-.325514-1.6515-.412023-1.748-.25-.2192.368438.162 1.465836.9765 2.052735 2.7516 1.98273 6.7589 1.826692 12.2286-.355469.6487-.258825 2.4218-1.177734 2.4218-1.177734-.093 1.896363-.4873 3.828573-.7461 5.417968-.2625 1.611664-.6347 3.191407-.6347 3.191407-.5886.336366-26.2403-.927323-29.7344-3.097657-.3508-.332931-.073-.775541-.01-1.703125.1019-1.490854.211-2.425781.211-2.425781s.8533.418625 1.3476.636719c2.5829 1.138905 6.2351.142655 8.4375-2.259766 2.7772-3.030187 2.8654-6.147378 1.1309-12.304687-1.9808-6.925397-1.9326-7.839888.4433-9.25586 1.642-1.116748 2.5569-3.672774 2.3438-3.779297-.9653 1.062479-1.9602 1.697186-2.9102 2.275391-2.7583 1.89725-3.6224 2.865457-2.3554 6.369141 1.2509 3.457695 2.2592 6.837017 1.7383 7.046875-.2491.100219-1.2007-1.023463-1.7891-1.363281-1.2057-.695826-4.2324-1.94336-4.2324-1.94336s.1987.275049 1.4394 1.09375c3.3199 2.192103 4.6802 4.177718 1.4766 2.921875-2.4899-.871258-4.6121-.05792-6.4512.810547 0 0-.1143-1.485392-.1211-2.023438-.053-2.875967.312-5.599672.5567-8.103515.6065-6.230484 1.6621-11.480422 4.3847-14.861328 3.9851-4.948829 8.2115-7.101493 12.6797-7.199219zm48.7422 3.177734-.01.955078c.9002.146342 1.5918.927259 1.5918 1.873047 0 .955912-.7068 1.736321-1.6211 1.869141l-.01.957031c1.4435-.135484 2.5801-1.339514 2.58-2.826172 0-1.469869-1.111-2.669414-2.5312-2.828125zm-49.1562 1.873047c-.2855-.02855-.7918.141965-1.1485.447266-.8417.720282-3.126.533669-4.416-.05664-.5659-.258998-.6297.817755.045 1.054688.6541.229692 1.6172.507812 1.6172.507812s-1.0392.367705-2.1777.740235c-.669.218919-.7135 1.35331.053 1.091797 1.7292-.590854 4.1048-1.381312 6.7813-.591797 2.103.645368 1.6002-.943789-.6836-1.142579-.7286-.06343-1.9493-.208984-1.9493-.208984s1.037-.463167 1.7071-1.09375c.5218-.490977.4573-.719493.1719-.748047zm-1.752 4.876953c-.8755-.0097-1.8487.2306-2.9336.705078-1.5222.665931-3.025.876451-4.4844-.357421-.8502-.718669-.8038-.173278-.5859 1.314453.244 1.663303.4152 2.570904.875 2.517578.1798-.02087.4037-.189936.6933-.517578.3049-.345399.7936-.251155 2.0313-.175782 1.3251.08064 1.662.04463 2.5352-.273437.9953-.362576 1.0167-.361559 1.707-.06641 1.0791.461644 1.7548.515352 2.7461.232422 1.2168-.346998 1.9841-.252177 2.7344.11914.7598.375776 1.0011.298805 1.2656-.394531.1109-.29085.6508-1.41868.9004-1.802734.8119-1.248488.6146-1.457693-1.086-.931641-1.1686.361339-3.3223.589925-4.9257-.07813-.4571-.190451-.9473-.285192-1.4727-.291016zm2.3223 7.44336c-1.7944-.03172-3.2034 1.216255-5.168 1.761718-.9706.254602-.744 1.51397-.1231 2.060547.7979.702456 2.0237.264199 3.6661-1 3.2224-2.480356 3.9967 2.287877 1.0586 3.13086-.4552.130616-.246 1.187274.7109.917969 1.842-.518385 2.6979-2.118658 2.582-3.904297-.094-1.44419-.8387-2.620633-1.9297-2.869141-.2748-.06259-.5405-.09312-.7968-.09766zm-24.9649 1.240234c1.5468-.09231 3.1837.891777 4.4727 3.013672 1.6382 2.695354 2.0898 4.328328 2.1426 6.039062-.1484 3.591616.053 5.513693-.1817 9.123047-2.2773-3.528327-2.6791-8.703296-5.1016-11.505859-4.4816.838616-6.6028-3.398917-2.832-6.220703.4794-.267695.9844-.41845 1.5-.449219zm10.9297 13.347656c1.0873-.10757 2.1775.862493 2.7168 2.625l-.7871-.05859c-.8251-2.245507-2.7529-2.180311-3.4961-.232422l-.7051.0059c.5809-1.521314 1.4257-2.256178 2.2715-2.339844zm2.332.386719s1.6936.09892 2.3203.341797c.4257.164937.7981.409065.8516.691406.054.283634-.2402.645334-.6953.779297-.4118.121243-.845.18428-1.2539.289063-.2016-.75174-.7014-1.557852-1.2227-2.101563zm16.9239.167969c.9881.01799 1.9647.875332 2.4863 2.654297l-.9922.07617c-.7207-2.456041-2.3337-2.800113-3.3008-.226563l-.7519-.125c.5702-1.576886 1.5705-2.396896 2.5586-2.378906zm-21.3379.0625c-.3394.352593-.7664 1.086485-.9629 1.582031l-.6211-.171875.07-.953125c.4846-.290677 1.126-.456937 1.5137-.457031zm18.3613.130859c.1784-.0085.3692-.0043.5801.0098-.162-.0162-1.0535 1.25895-1.0879 2.015625 0 0-.804-.205438-1.0176-.449219-.3428-.427263-.4323-.776329.021-1.064453.5438-.343978.9694-.486357 1.5039-.511719zm5.3672.253907c1.3406.25286 2.1354.826422 3.0723 1.824218l-1.7832.310547c-.5418-.730152-.6518-1.368976-1.2891-2.134765zm5.5058 2.601562-.1328 1.224609c-2.8197 1.434647-9.2532 2.914377-13.4687.464844-.3499-.394791-.1289-.955078-.1289-.955078 5.9488 2.144815 9.7471.986602 13.7304-.734375zm-30.8359.257812c2.6819 1.715425 6.0918.982487 9.3965.01758-3.084 2.973714-7.3905 2.087814-9.5137 1.208984zm9.0371 1.699219c-2.2284 3.567096-5.5339 3.938676-9.2656 2.191407l.055-1.576172c3.132 1.695783 6.5717 1.051735 9.2109-.615235zm-28.4433 7.740235c.3224-.011.6449-.0059.9668.01367 5.5805.338569 11.0078 5.157626 12.9238 10.513671l4.0801-7.035156c18.2442 2.446307 33.9445 3.592904 59.7597-.365234l13.2657 23.5273435-85.1875.5488281c.8867-1.73941091 1.7822-3.1502635 2.455-5.1816406 0 0-4.7882-5.0150838-6.539-11.607422-.977-3.678687-2.3803-7.121537-4.8418-9.570312-.038-.08748.087-.198083.2363-.300782.9472-.33561 1.9136-.50997 2.8809-.542968z" fill="#004c97" stroke-width=".165" transform="matrix(-6.07743 0 0 -6.04382 7521.75 -351.302)"/><path d="m-1479.9206 1316.4697-504.6906.01 65.7596-131.4403c122.686 18.5738 243.631 16.2552 363.193-2.6597l75.738 134.0921zm-689.9602-106.516-1.0571-63.0139 65.3697 1.4443zm551.8071-423.70958.7145-191.24794c26.0695 18.39393 52.1314 36.82605 78.9584 51.43274l-1.0355 197.8862zm-219.9924-41.84166c-4.6316-108.15016-20.3867-150.36948-30.6027-205.19337l93.5895-60.4896.2706 222.00965zm-255.8618-189.7121.5306-266.35419c86.0308 123.72867 140.3808 249.40534 155.3743 419.06329-23.3915 9.43185-46.2101 19.84561-70.1959 28.25863-24.5116-66.87658-53.7464-126.74786-85.709-180.96773zm874.6727 111.19038c-79.4995-101.00043-130.447-237.092-155.4717-402.87332l72.7778-35.33128c24.1571 58.52921 52.7505 128.3095 83.3071 176.88396zm-314.2008-180.15863.2948-222.71796 62.1368-40.34491c3.8711 78.2966 16.2866 151.44781 30.6444 205.68443zm-163.542-117.28126c-22.986-17.29043-46.9177-33.19864-73.4556-45.29781l3.8779-197.59439 70.1422 54.0075zm493.0179-556.731s43.7467-44.42852 59.9767-58.85432l.3584 60.32277zm-550.8778-28.76507-81.5702-139.19519 511.2996-4.29068-70.7979 143.97039c-135.4051-24.75762-246.1526-17.38364-358.9315-.48452z" fill="#c8102e"/><path d="m1452.9824-276.72266 13.7285 24.09375c18.2651-4.05526 40.0701-3.3425 59.7598-.10156 1.0544-1.42489 2.2105-4.32451 3.3184-6.42187 2.7481 7.43511 11.537 12.23475 17.1992 10.16796 0 0 .055-.35467-.8945-2.02734-2.7598-4.82398-3.3981-9.94498-5.8379-15.11523-1.2146-2.82911-3.9493-5.02183-4.5606-5.1836l3.0391-5.41211zm2.4512 1.27344h2.8125l10.4629 17.41406 14.1172-1.60351-4.6504-15.81055h4.1953l4.166 15.44336c7.8807-.32 15.3991-.4098 21.9531.11914l2.2207-15.5625h4.0039l-2.5351 15.53906 13.2461 1.70313 7.1855-17.24219h4.1387c-2.6712 4.53112-9.3416 19.03344-10.5879 20.47461-31.55-4.07725-44.3927-2.02258-58.8769-.082zm5.6465 0h14.414l4.8418 14.4375-10.2832 1.22656zm23.5625 0h24.0429l-1.9824 13.38672c-6.3101-.37971-12.4764-.0304-18.6719.16602zm32.9765 0h12.7715l-6.4062 15.20508c-3.6409-.51489-5.8188-1.04886-8.9864-1.12891zm18.7188 5.4961s.5384.0431.9062.42968c1.5884 1.66807 3.1337 4.73842 4.5176 9.03906 1.018 3.16368 2.2298 6.5065 3.5664 9.28126.7213 1.46747.654 1.54168-1.4609 1.57226-4.5314.0655-8.3082-2.10277-11.6621-6.69726-1.0672-1.46365-1.4803-2.12336-1.4766-2.73829.113-.71064 1.5176-2.98437 1.5176-2.98437s.8144 2.25732 1.0078 3.34961c1.2182-4.51167 1.7035.71686 2.1719 2.0957 1.4869-4.35853 2.2879 1.63184 2.2129 3.24805 2.0227-2.79496 1.8926 1.79568 2.8789 2.64844.024-2.42193 1.4418-.76458 3.2773-.24805-.9599-1.35388-2.8299-2.26372-.4433-2.5625-2.3806-1.65308-3.5725-1.40033-1.2618-2.3125-1.7807-.98805-4.7119-2.17612-1.4707-2.82617-1.9807-1.25558-5.167-1.78306-1.7421-2.98242-2.5868-1.5915-6.0297-1.4778-1.1856-2.75586-1.755-1.03208-4.8482-1.41789-1.3867-2.31446-.535-.24056-1.4629-.86718-1.4629-.86718zm32.8203 4.05078-22.0332 22.40039 8.3008.24609v40.48047s.9121.23147 1.791.2832c4.1747.24566 5.306.58714 5.3203 1.59375.018 1.2463-1.8749 2.7898-3.4453 2.8125-.3554.005-.9492.35938-.9492.35938l.5039 132.556638 9.8574 10.38086-.041 3.296874-12.1465-12.927734-.457-132.486328-.461.21484-.033 44.49414c-6.2254-9.36114-9.7173-18.63907-13.1797-27.91601 0 0-1.2253.42365-1.2753.44922-.01.0103.4375.15625.4375.15625 3.5323 11.85672 8.002 20.45419 13.7988 29.42773l-.084 43.1211c-14.8431-21.08324-22.0185-40.04483-25-67.37305l7.5117-3.77149.7285-.98046 5.6739-2.85157.5449.91016 3.4394-2.39453c-2.6569-4.66226-2.5584-11.36302-.3925-14.91211l-.9317-.58399c-.064-.25665-3.566 7.25719.3496 14.89844l-2.5625 1.58594c-3.697-7.68498-1.9797-15.96284-.2383-18.0957-3.5647-2.19847-7.5568-4.60481-11.0546-5.76172-1.544-.63139-2.5249.1108-2.5196.12695l-.75 4.29102 1.1914 1.63476-1.3886 1.125-.6329 6.56836 1.4922 1.51563-1.5332 1.70703-.209 6.25976 1.6817 1.31055-1.2988 2.17188.09 5.54492.3906.26953c3.238 39.69516 22.5634 63.15065 25.5879 68.4707l.4258.69336c.2079 13.469005.1416 26.997814 0 40.695313l14.2363 15.226563-.082-5.572266-.6973-.505859v-25.365235l.5918-.0332s.1816-6.820888.1348-11.505859l-.8457-.02344.053-17.431637.7188-.0859-.041-11.29297-.7832.002s-.1801-11.84131.1015-17.59961l.5821-.0351-.039-11.22657-.6582-.0508-.047-16.05468.8145-.125-.2207-10.59766-.6661-.0391c-.2394-6.54843-.125-17.86914-.125-17.86914l.7618-.0352-.1875-10.52344-.5489-.0352.1621-18.47461.4961-.0586-.1914-10.91211-.5332-.0488.092-9.07422.3692-.0625.092-3.39453-.3926-.89844-.025-12.08985.2988-.13281zm-1.1348 2.06054.059 3.84375-12.9433 12.7793 13.0429.19922-.031 2.60156-19.0098-.18945zm-.1113 5.85742.086 9.87305-10.2031-.16406zm-75.5527 3.53907c-8.8948.0126-17.8378 1.02594-24.7617 2.56445 0 0-3.3401 15.94429-4.5313 22.71289-1.1254-.64874-2.1257-.93211-3.1387-.91015-7.834.8563-7.1632 11.65847-3.125 11.96093.5405-.008.7751.0841 1.1309.45508.4951.51619 1.0891.8619 1.4043.81641.4254-.0615.6197.0161.623.24414 0 .18668-.1864.21658-.8847.15429-.4252-.0379-1.3223.63672-1.3223.63672l-.01 48.64453c-3.8031-1.5861-9.4886-2.49839-13.8574-3.01953l-.2929-43.35742s-6.4089 3.37592-8.7364 4.72461l-.084 38.81055-4.539.49804 7.1699 14.65039c1.0064-.77831 15.1164.54627 18.6406 2.85157l-12.8769 8.08008c1.3083 4.01114 2.4978 7.84413 3.5918 11.90625.034.12449.2713.11175.3047.23632.2649.99094.4549 1.43778.7031 2.43555.046.18624-.03.4891.023.67383 2.7739 9.60942 4.6683 22.34238 5.0528 33.742186-.041.107818-.4512.01563-.4512.01563l.082 6.964844.457-.306641-.045 3.152344-.4648.460938c-.011.610919-.053 1.763672-.053 1.763672l.5957.375-.3086 5.28125-.6132.08984-.336 8.359375 16.3067-10.613281s10.6421 7.662839 15.2968 11.636719c-5.1214 3.501577-6.481 10.328098-7.75 15.99414-1.298 5.606628-1.7247 10.236069-2.0917 14.927735-.405 5.170899-1.3811 11.989132-2.0626 15.248047 5.5357.229601 18.2557-.217886 28.5391-2.458985.8656-7.544061 2.1905-14.394929 3.7539-21.705078 0 0 .1745.613042 2.7246.576172 7.4631-.107901 10.0772-8.448642 3.836-12.140625-.5886-.351507-1.5892-1.023603-2.5762-1.544922-.2837-.147533-3.8613-2.259763-3.8613-2.259766l4.2871 1.939454.3105-50.044928s8.9412 2.70079 14.836 2.95508l-.062 43.392582 8.2324-4.466797.375-38.796875 4.5097-.29102s-1.7083-3.65573-2.0878-4.42383c-.7624-1.53836-2.6805-4.95734-3.9903-7.11914-.4641-.76446-1.5488-2.46679-1.5488-2.46679-6.0092-.16036-12.1582-1.06716-17.7461-3.56446l12.9336-8.46289c-5.4017-15.30507-12.1383-37.7004-8.3848-73.84765l-.9062.57812-.2481 3.89453-16.1015 11.14258-19.8614-16.08398s1.4427.0392 1.7657.0527c5.0655.17955 8.6317-5.03108 9.8554-9.38086 2.1571-7.6672 2.4402-9.55882 3.4336-21.71679.3929-4.80802 1.34-9.44576 2.3047-14.02735.5086-2.30276.4336-2.5332.4336-2.5332-1.2622-.0405-2.5325-.0584-3.8027-.0566zm.7168.375 1.9414.0469c-2.8251 14.05934-2.8384 26.09204-5.8535 37.17578-1.4925 5.4946-5.3004 9.40445-8.9961 9.39258-8.2046-1.02142-6.0316-9.67632-2.5723-11.47461 4.7087-2.20509 8.4803 2.23726 5.4727 6.73828-2.2065 3.30215-6.4031 1.11761-4.7813-2.50195.9134-2.03851 2.8067-1.79953 2.7891.26172-.6761 1.95972-.056 1.2619.4726.57031 1.6594-2.17123-1.6891-4.47502-3.4101-2.33203-1.0563 1.3153-1.2776 2.87705-.916 4.125.6173 2.13109 3.0639 3.37683 5.832 1.4043 3.3073-3.98823 5.0739-9.14799 6.0508-14.91992 2.079-12.28417 2.1854-25.20859 3.9707-28.48633zm-1.2578.0391c-.8551.57428-1.9512 17.67075-3.6582 28.63281-.1358.88904-2.0237 9.63268-3.0762 9.10352-.1663-.1734-1.1563-2.54448-1.2793-3.0332 2.0473-2.96149 2.6261-7.82207 2.9433-11.50391 1.1554-10.43514 2.3565-23.0349 2.8809-23.15039zm-3.2969.13867c-1.0906 3.70001-1.5934 14.03425-2.6738 22.69141-.6301 4.38193-1.3175 10.40618-2.9239 11.28906l-1.3652-.88086c1.4731-4.41529 2.0167-9.62343 2.6191-14.66406.7287-6.09699 1.3712-12.37306 2.2539-18.35938zm-3.1426.17188c-.4762 3.44439-1.3788 11.11648-2.1484 18.17382-.8937 8.19513-2.2977 14.39256-2.6758 14.19336l-1.752-1.01953c.6187-2.46361 1.3512-5.16383 1.7129-7.74804.8042-5.74531 1.1207-12.71565 2.9707-23.43946zm-2.8516.14648c-1.0045 4.66604-2.1555 15.62855-3.0585 23.35742-.525 4.48721-1.6122 7.6539-1.877 7.56641 0 0-1.5046-.85335-1.6953-.95313 1.1368-4.52724 1.6917-8.73371 2.2519-12.83789.7556-5.53514 1.3164-10.92004 2.3594-17.0039zm-3 .23047c-.6104 4.25789-1.4488 10.98625-2.3261 16.9375-.994 6.74189-1.9218 12.48843-2.2422 12.52344l-2.4414-1.13477c.3008.0522.8756-1.63943 1.4375-4.2793 1.7121-8.04314 3.4103-23.89649 3.6875-23.89062zm-3.1777.42187c.1524-.2244-1.7455 15.31506-3.3125 23.16407-.5353 2.68158-1.3233 4.42225-1.4726 4.33203l-1.8555-1.1211c.1613.11798.8318-1.87916 1.1582-3.26953 1.6713-8.02293 2.4259-15.05753 3.459-22.83984zm-3.1289.32618c-.846 7.91072-2.0475 16.4075-3.7715 24.15039-.2382 1.03997-.7576 1.60238-.7793 1.625l-1.9883-.99024c2.1633-6.1566 2.3638-12.04513 4.4375-24.40234zm-3.0566.48047c-1.1769 6.54066-1.787 14.10301-3.3731 20.06445-.3362 1.26354-.5237 2.68355-.9648 3.7832l-2.2383-.90234 4.6855-22.59375zm56.0703 8.21093s-1.1065 10.89939-1.4414 15.24805c-.6367 6.66399-1.5427 10.9817-4.1075 16.26563 2.1382 1.24045 4.4278 2.21274 6.7305 3.10546.9146.35459 1.8762.3599 2.7832.95508.6258.42282 1.3416.60427 2.0625.58985 2.1635-.0433 4.3602-1.84468 4.1914-4.14649-.2049-2.7944-1.8514-4.03849-4.5605-3.75781-1.4487.15012-1.411.17175-2.3867-1.58399-.8777-1.57992-3.1943-8.32581-3.209-9.34765 1.1125 1.48457 3.7123 4.24189 6.1093 4.12695 2.5746-.18835 4.7412-2.64232 2.795-6.11719-1.035-1.70422-2.876-2.037-4.7481-1.47461-2.8006-4.38168-3.3281-8.77054-4.2187-13.86328zm31.9004 1.04297-.1094 39.5293-2.252-.47656-.01-39.04883zm5.2461.3711c.8697 0 1.5781.7075 1.5781 1.58203s-.7084 1.58593-1.5781 1.58593-1.5723-.7114-1.5723-1.58593.7026-1.58203 1.5723-1.58203zm-37.0157 2.74023c.266-.15282 1.0906 7.02092 3.9727 10.26562 3.5102-1.68049 6.5401 2.26249 4.1465 4.97266-4.6729 4.04053-8.7661-4.58902-8.7676-7.35156-.026-3.0928.6484-7.88672.6484-7.88672zm38.9805.91016c.8697 0 1.5723.71126 1.5723 1.58593 0 .8745-.7026 1.58205-1.5723 1.58203-.8697 0-1.5781-.70753-1.5781-1.58203 0-.87466.7084-1.58593 1.5781-1.58593zm-4.0977.0977c.8697 0 1.5723.70754 1.5723 1.58203 0 .8747-.7026 1.58789-1.5723 1.58789-.8696 0-1.58-.71319-1.58-1.58789 0-.87449.7104-1.58203 1.58-1.58203zm2.0567 3.7168c.8697 0 1.5723.7075 1.5723 1.58203s-.7026 1.58203-1.5723 1.58203-1.5801-.7075-1.5801-1.58203.7104-1.58203 1.5801-1.58203zm4.7969 1.75391v3.77734l-8.7422 8.41602v-4.09961zm-108.5 3.7539c.2346-.0182.4742-.018.7187.002.2794.0228.5658.0719.8574.14843-.193-.0613-2.7935 1.70819-4.1425 4.31446-1.4577 2.87935-.1391 5.70857-.5723 5.71875-2.6846-.80568-2.0676-6.05403-.9785-7.54688 1.0779-1.47753 2.4746-2.50909 4.1172-2.63672zm3.5019.9082c.4144-.008.7253.14103 1.0684.47657.4325.42263.8438.56541-.2578.95703-3.0867.8099-5.2654 3.70782-4.7442 7.07422.062.81862.8274 2.98355-.5332 1.95703-3.0027-2.04306-1.3996-8.42102 2.7754-9.99805.7578-.29293 1.277-.45863 1.6914-.4668zm104.9981.37891v4.08008l-8.7422 8.39648v-4.17968zm-102.4786 1.24609c.5319-.0493.9922.0297 1.3926.20313.8934.3875.5856.44594-1.0957 1.33008-2.6781 1.40836-4.2608 4.33452-3.8554 7.56836.152 1.21314.639 1.53651.2929 1.53906-.8897-.0124-1.5789-.69758-1.8926-1.4043-1.1977-4.39349.2218-7.96208 5.1582-9.23633zm59.5313.2461c.1804-.0419.4865.81991.9473 2.28516 2.5499 8.10911 3.2235 9.66271 4.9961 9.25781 1.0088-.23058 2.0604-.27006 2.748.11133 2.2465 1.246 2.4522 5.42389-.8281 6.22265-2.5926.56753-4.2618-1.74924-5.1875-3.26367-1.6207-2.64932-3.2018-6.47117-3.3418-8.87891-.055-1.59305.2588-3.54971.5273-5.3789.033-.22611.079-.34151.1387-.35547zm-127.7832 1.18164v216.2870188s14.7234-15.1256988 21.6367-22.6308598l-7.2246-.101562v-40.957031c-2.3535-.317975-6.2736-.0065-7.8184-1.582032-.9592-1.426983 2.7537-4.231731 4.8438-3.642578 1.3937.378675 2.9746.07813 2.9746.07813v-45.638676c.071-.29501 8.0883 12.41119 12.7988 28.033207-1.4299.99979-2.8991 1.769958-3.1445 1.939454 1.8964 4.599472 3.2081 11.831879.5605 18.134765l-1.8261-1.09375c1.4744-4.051059 1.8442-9.550999-.3555-14.791015l-.5039.529296c1.8191 4.086313 2.4101 8.944652.02 14.800782 5.3713 2.187982 9.3768 5.575719 14.0078 7.865234.3308.09439.7872.533203.7872.533203-1.8026 1.010086-3.5214 2.324356-3.5118 4.09961.061 2.683183 1.4878 3.729047 4.6075 3.552734.628-.03549 1.1093.01758 1.1093.01758 1.9401 4.046327 3.6731 8.204005 5.2618 12.375 1.1055-5.30572 1.873-10.567039 4.0878-15.060547-.1427-.127047-2.6258-1.286225-3.789-1.767578-4.5357-1.876978-6.5991-3.035328-5.8985-3.314453.4872-.194712.6643-.535401.7871-1.505859.2286-1.788563.1407-3.78125.1407-3.78125l-.7617-1.636719 1.1757-.949219s.1512-.72939.2696-2.199219c.2024-2.521423.066-4.125.066-4.125l-1.1309-1.457031 1.1504-1.439453.2637-6.603516-1.5528-1.183593 1.4512-1.439454-.5176-6.021479s.1905-.5575.4414-.83399c-2.4567-25.46872-11.7742-51.13553-25.9941-68.6289v-41.83985zm71.4609.0352c1.243-.0653 1.3903.5761-.1543 1.48242-2.958 1.73507-4.4936 5.12667-3.6386 7.82031.4101 1.28802.7992 1.82214.3984 1.84961-.7533-.0648-1.337-.73216-1.6953-1.29688-1.8663-2.69414-.3154-8.36409 3.5039-9.53906.6358-.19561 1.1716-.29464 1.5859-.3164zm2.7871 1.18945c.3865.0323.8363.14914 1.4707.43945.4259.0141-.1913.41808-.9921.88281-2.8431 1.64986-4.7285 4.59405-4.2344 7.35743.3058 1.70994.8224 2.66101.4531 2.66992-.1933.005-.6274.0703-1.0371-.33008-1.5699-1.53388-1.8184-5.83488-.3105-7.96094.707-.99677 2.9043-2.81014 3.5585-2.99218.3816-.0472.7053-.0987 1.0918-.0664zm-72.4472.96875 11.7578 12.24805v132.328121l-2.4609.109375v-131.521616l-9.2911-9.88476zm75.5176.43164c.6883.0384 1.0954.44335.9023.95312-2.6004 1.08498-5.0519 3.89156-4.7949 7.73047.099 1.34657.5455 2.0791.2812 2.11914-.1808.0274-.8078-.24347-1.2226-.74609-2.4287-2.94278-.4557-7.95549 3.3613-9.67383.5465-.29728 1.0596-.40584 1.4727-.38281zm3.0761 1.58203c.8286.0361 1.4816.31241 1.4883.78516.01.36769-.076.46744-.4375.47265-2.8878-.0222-5.9576 4.01309-5.1074 8.31055.105.64636.2997 1.50342.076 1.53516-.1726.0247-.4433-.13905-.8125-.48633-2.5776-2.55134-1.1784-8.30238 2.2539-9.95899.7064-.48897 1.7104-.69425 2.539-.6582zm46.1172 2.76563c.3682.14679.8756 1.58117 1.8906 4.04687.2307.79769 2.5598 4.41319 2.1153 4.42969-3.2691-1.29494-5.3577-3.24791-4.7617-6.42383.2621-1.19471.4376-2.17962.7558-2.05273zm39.7559 3.77148c.8696 0 1.5781.7114 1.5781 1.58594 0 .87453-.7085 1.58398-1.5781 1.58398-.8698 0-1.5742-.70945-1.5742-1.58398 0-.87454.7043-1.58594 1.5742-1.58594zm-41.6114.95898c.1704.46016.1683.6383.5196 1.18946l-.8828-.42188zm-55.5878 1.54883c2.1334-.0308 2.8372.642 3.2343 3.10157.2765 1.7072.4484 1.79618 3.2852 1.71679 3.6184-.10126 3.9026.1182 4.2949 3.29297.3355 2.72598.7921 3.00732 3.9023 2.41602 2.2623-.42992 3.4602.57249 3.754 3.13281.3295 2.87295.4568 2.97772 3.666 3.0918 3.2159.11429 4.1109.68328 4.1386 2.62695.043 3.01128.4208 3.28406 4.375 3.16406 1.9194-.0582 3.884-.0237 5.0137.0937 2.3956.24904 2.3836.26116 2.6231-2.05273.3577-3.45742.8623-3.77649 5.4101-3.43946 1.8997.14078 2.034.0528 2.1641-1.40039.1627-1.81959.8331-2.94062 1.3476-2.2539.2688.35872.2711.39113 0 3.05468-.3019 2.98063-.3361 3.00383-4.2011 2.70508-2.6183-.20238-2.4918-.29818-2.7715 2.09375-.3403 2.91049-.289 3.58014-3.7188 3.61328-3.2417-.0213-5.723-.19864-9.0703-.20117-2.4437.0663-3.2412-.76797-3.2851-3.42187-.04-2.35968-.031-2.35288-3.1016-2.48242-3.702-.15634-4.6802-1.11112-4.7305-4.62696-.02-1.36902-1.1193-1.90775-3.2754-1.59961-3.3981.48546-4.0588.0176-4.4531-3.1582-.3277-2.65026-.1503-2.51402-3.2637-2.49219-3.3479.0234-4.096-.54032-4.1347-3.13281-.022-1.50451-.3877-1.95711-1.6817-2.07422-1.3831-.12518-1.9782-.83773-1.2949-1.54492.1243-.12867.7639-.20806 1.7735-.22266zm-64.2579.42578c.1472-.008.4473 1.12946.5528 1.23243.1106.10792 1.2892.41603 1.2968.57031.01.14718-1.1314.44724-1.2343.55273-.108.11058-.4161 1.28821-.5703 1.29688-.1472.008-.4453-1.13141-.5508-1.23438-.1106-.10792-1.2882-.41603-1.2969-.57031-.01-.14718 1.1295-.44528 1.2324-.55078.108-.11058.4161-1.28821.5703-1.29688zm163.3692 1.1875c.8696 0 1.5742.70761 1.5742 1.58203 0 .87454-.7046 1.58594-1.5742 1.58594-.8697 0-1.5742-.7114-1.5742-1.58594 0-.87442.7043-1.58203 1.5742-1.58203zm-4.3028.11329c.8697 0 1.5723.70749 1.5723 1.58203 0 .87453-.7026 1.58789-1.5723 1.58789-.8696 0-1.58-.71336-1.58-1.58789 0-.87454.7104-1.58203 1.58-1.58203zm-161.0019 2.0625c.1472-.008.4472 1.12945.5527 1.23242.1106.10792 1.2863.41603 1.295.57031.01.14718-1.1295.44724-1.2325.55273-.1079.11059-.416 1.28822-.5703 1.29688-.1472.008-.4472-1.13141-.5527-1.23438-.1106-.10792-1.2882-.41603-1.2969-.57031-.01-.14718 1.1314-.44528 1.2344-.55078.1079-.11058.416-1.28829.5703-1.29687zm4.2793 0c.1472-.008.4472 1.12945.5527 1.23242.1106.10792 1.2882.41603 1.2969.57031.01.14718-1.1314.44724-1.2344.55273-.1079.11059-.416 1.28822-.5703 1.29688-.1472.008-.4453-1.13141-.5508-1.23438-.1106-.10792-1.2882-.41603-1.2968-.57031-.01-.14718 1.1294-.44528 1.2324-.55078.1079-.11058.416-1.28832.5703-1.29687zm59.957 1.13867 34.2774 26.48828 14.5547-10.33203-.129 3.75976-14.5722 10.16992-34.2715-26.5625zm99.2227.75976c.8697 0 1.5742.7075 1.5742 1.58203 0 .87454-.7045 1.58204-1.5742 1.58204s-1.5742-.7075-1.5742-1.58204c0-.87453.7045-1.58203 1.5742-1.58203zm-31.3731.29688c1.5654.31142 3.1569 1.36097 4.5977 2.08984l2.9707 5.67969-3.416 2.95312 3.4668 4.04493-3.6348 4.33007 3.6445 2.57227-3.9765 6.14844-4.4981 2.08398 4.9649-7.46875-3.9121-2.63672 3.705-5.00781-3.8554-4.66211 3.8808-3.34766zm-.8691.24804 3.2598 6.36524-3.8594 3.41406 3.9551 4.84961-3.7364 5.06445 3.8789 2.74024-5.4101 7.91406-.1035-3.94531 1.9297-2.93946-2.1582-1.87304h-.01l-.01-4.64844 2.252-2.45117-1.9551-2.68359.6348-4.99219 1.6582-1.25781-1.1758-2.37305.3769-2.91602zm-129.2813 1.5293c.1472-.008.4473 1.13141.5528 1.23438.1106.10792 1.2891.41603 1.2968.57031.01.14718-1.1314.44724-1.2343.55273-.108.11058-.4161 1.28626-.5703 1.29493-.1472.008-.4453-1.12946-.5508-1.23243-.1106-.10792-1.2882-.41603-1.2969-.57031-.01-.14718 1.1295-.44724 1.2324-.55273.108-.11059.4161-1.28822.5703-1.29688zm166.1582.64844v3.44726l-8.9804 8.47852v-3.63867zm-161.207 1.26562v4.16407l-7.7558 7.39062v-4.23047zm161.207 3.33399v3.7168l-8.9804 8.5039v-3.83594zm-161.207 2.01172v3.375l-7.7558 7.61132v-3.49609zm57.5567.21484 12.1972 9.13672-.027 30.65625c-3.869-2.65585-7.6128-5.3633-12.0586-7.78711zm13.1972 9.99414 2.4219 1.90625.066 31.22461-2.2422-2.00781zm85.834.55469c.8697 0 1.5723.70749 1.5723 1.58203s-.7026 1.58789-1.5723 1.58789-1.5742-.71335-1.5742-1.58789.7044-1.58203 1.5742-1.58203zm-160.8828 1.75195c.8697 0 1.5742.7075 1.5742 1.58203 0 .87454-.7045 1.58789-1.5742 1.58789-.8704 0-1.5723-.71335-1.5723-1.58789 0-.87453.7019-1.58203 1.5723-1.58203zm78.459 1.33203 6.3789 6.60352-6.4258 6.47851-.1777-3.13476 3.6699-3.15234-3.3535-3.53711zm84.3203.76367c.8697 0 1.5742.7075 1.5742 1.58204 0 .87453-.7045 1.58203-1.5742 1.58203s-1.5781-.7075-1.5781-1.58203c0-.87454.7084-1.58202 1.5781-1.58204zm-4.2422.0156c.8697 0 1.5742.7075 1.5742 1.58203 0 .87454-.7045 1.58594-1.5742 1.58594s-1.5781-.7114-1.5781-1.58594c0-.87453.7084-1.58203 1.5781-1.58203zm-76.0918 1.57031 3.7383 2.74414-.8145.92383s-2.4528-2.7229-3.2851-3.59961zm-80.1309.29492c.8705 0 1.5743.7075 1.5743 1.58204 0 .87453-.7038 1.58203-1.5743 1.58203-.8696 0-1.5742-.7075-1.5742-1.58203 0-.87454.7046-1.58204 1.5742-1.58204zm107.9434.084c-.1776-.094 1.1901 21.5101 4.8945 33.03125l-14.5722 9.68945-.01-35.80078zm-112.1387.12891c.8704 0 1.5723.70749 1.5723 1.58203 0 .87453-.7019 1.58203-1.5723 1.58203-.8696 0-1.5742-.7075-1.5742-1.58203 0-.87454.7046-1.58203 1.5742-1.58203zm162.7481 1.95898c.8697 0 1.5742.71335 1.5742 1.58789s-.7045 1.58203-1.5742 1.58203-1.5742-.70749-1.5742-1.58203.7045-1.58789 1.5742-1.58789zm-73.9668.96484 5.9648 4.65625-.01 3.20703-6.7286-6.94726zm-86.9004.95313c.8697 0 1.5742.70749 1.5742 1.58203s-.7045 1.58203-1.5742 1.58203c-.8704 0-1.5723-.70749-1.5723-1.58203s.7019-1.58203 1.5723-1.58203zm85.4922.52734 6.7871 7.17188-6.9141 7.07812-6.7871-7.07226zm51.2304.75781-6.914 3.40821c3.3074 26.9932 11.0025 41.96073 19.0351 55.03906l-.049-33.04102c-4.714-8.10542-9.5536-16.2848-12.0723-25.40625zm28.7793.125v3.41797l-8.8515 8.61133v-3.68945zm-161.207 1.34571v3.69531l-7.7558 7.75195v-3.85156zm81.0899.5664-4.4161 4.30469 4.3789 4.49414 4.4083-4.38672zm8.3496 1.22266 1.7929 1.24805-.1347 36.40625-1.4746.71875zm-9.8926 1.70898h2.8808v2.87891h-2.8808zm81.6601.0332v3.30664l-8.8515 8.66992v-3.7832zm-130.7089.97851c15.1327-.20509 29.3494 5.83034 38.3476 13.28321 4.6896 3.87737 8.4994 8.61023 13.1387 15.50195 8.9291 14.00445 24.658 20.76642 39.3047 20.92383l1.2129 1.89844-2.4473-.082s-.247 1.76021-.2793 4.75391c-.036 3.37103-.017 3.96334.2461 4.06055 1.7736.20732 7.1235.0968 6.9668-.13086l1.0996 1.97851c-17.4612 1.8103-34.6441-4.30107-45.5195-14.11718-8.4576-7.35858-14.9547-18.52771-22.0899-24.77149-2.8854-2.51428-9.9423-6.44146-13.75-7.64844-4.3289-1.37223-7.696-1.93433-12.041-2.01172-3.4305-.0611-3.4453-.0801-3.4453-.0801l-1.4531-2.59766 2.4004.0332.1582-9.16406c-2.5432-.12397-5.0346.0159-7.4922.32227l-.8867-1.66797c2.1866-.29806 4.3674-.45508 6.5293-.48438zm-30.4981.33594v3.74805l-7.7558 7.98437v-3.92383zm88.5176 1.00195.043 3.48633-3.7442 3.40821 3.8125 4.00781-.078 2.69531c-2.4394-2.00701-4.5221-4.47769-6.7188-6.75586zm-52.6152.59375c-.6829.00033-1.1351.10597-1.17.37891-.1713 1.85463-.2807 6.22122-.3047 7.70508-.06.49765.056.96788.5508 1.02734 3.1053.37305 6.5605 1.19212 8.211 1.25.6082-.0183.6133-.66619 1.08-2.77148.1011-.45652.4244-1.67914.7149-2.71875.8806-3.15149.9921-3.20964-1.7266-3.75196-1.1805-.17722-5.3068-1.1201-7.3554-1.11914zm38.3222.0664 6.0469 6.18945-6.0625 5.90821.012-2.74414 2.9102-2.9668-2.9199-3.19531zm-69.5742.0117c14.0335 20.07915 22.2441 43.54988 24.6797 65.79297 0 0-7.4186 3.299843-11.0762 5.441404-3.9282-9.221964-2.4809-10.468964-13.6035-29.179684zm36.248 1.75 1.1758 1.24219 1.4395.0273-.5274 1.96289.9297.89453-1.3515.66797-.1094 1.75195-1.4453-.87109-1.2891 1.26953-.7031-1.51758-1.4805.4961.01-1.81446-1.3203-.83789 1.5918-.73632.1406-2.20704 1.6133.5zm-13.5292.125 1.332.6543 1.4609-.54297-.2226 1.80468 1.1289.90235-1.1426 1.05469.053 1.32617-1.3418-.45703-1.9843-3.37696zm21.4316.89648c-.4407.0323-.5586.34423-.6738.79688-.082.31972-.4477 1.53775-.8536 2.86328-1.4201 4.64184-1.847 4.42375.2676 5.12891.7285.24257 3.0174 1.017 4.459 1.68554 1.4279.66216 2.0743 1.24916 2.5332 1.24024 1.0137-.73089 3.7662-5.97566 4.2383-7.12891 0-.27804-1.3277-1.12317-2.9863-1.90234-1.4138-.66415-6.0014-2.5144-6.4239-2.61719-.2304-.0563-.4136-.0772-.5605-.0664zm1.7715 2.25391 1.5508.92773 1.1777-.51367.8574 1.60742 1.836.0742-1.002 1.7461.9434 1.3789-1.3301.0879-1.0332 1.875-1.3477-1.13086-1.1289.68164-.6504-1.16406-1.6211-.22656.7266-1.7793-.9531-1.37304 1.582-.29493zm30.582 1.87109 7.0742 7.50391-6.541 6.19336-7.3476-7.08789zm-19.5371 1.73828c-.2295-.0106-.394.10871-.5566.35352-4.6344 6.96151-4.8304 6.7257-2.9961 8.08398 1.8647 1.43388 4.0427 3.56883 5.5312 4.30274.6273.30925.7366.1171 1.3828-.44336 1.5114-1.29881 4.7358-5.04566 4.7305-5.66406-.01-.61639-4.4657-4.49199-7.1484-6.21289-.4211-.26979-.7139-.40936-.9434-.41993zm95.1445.3379c.8698 0 1.5801.7114 1.5801 1.58593 0 .87454-.7103 1.58203-1.5801 1.58203-.8696 0-1.5722-.70749-1.5722-1.58203 0-.87453.7026-1.58595 1.5722-1.58593zm-75.5625.78906-4.0039 3.86133 4.2442 4.50585 4.1093-3.89062zm-73.1093.18164v32.18554c4.5482 7.23862 7.9924 15.95722 11.4804 24.61719l6.584-2.71484c-2.5189-22.9453-9.2545-40.14502-18.0644-54.08789zm-12.2618.5332c.8697 0 1.5743.71336 1.5743 1.58789 0 .87454-.7046 1.58203-1.5743 1.58203s-1.5781-.70749-1.5781-1.58203c0-.87453.7084-1.58789 1.5781-1.58789zm66.6621.80469 1.4532 1.47265 1.6679-.14062-.094 1.64258 1.4746.7168-.9355 1.08007.5859 1.47657-1.7637-.2793-1.0078 1.38281-1.2363-1.10547-1.4746.38672-.3321-1.46484-1.4218-.52735.7636-1.49023-.1054-1.87695 1.4316.26757zm17.4043 1.15625h2.8789v2.8789h-2.8789zm74.3946.64062c.8697 0 1.5742.7075 1.5742 1.58204 0 .87442-.7045 1.58593-1.5742 1.58593s-1.5742-.71151-1.5742-1.58593c0-.87454.7045-1.58204 1.5742-1.58204zm4.6133.0156c.8697 0 1.5722.70749 1.5722 1.58203s-.7024 1.58594-1.5722 1.58594c-.8697 0-1.5743-.7114-1.5743-1.58594s.7046-1.58203 1.5743-1.58203zm-160.9551 1.64844c.8697 0 1.5742.71335 1.5742 1.58789 0 .87453-.7045 1.58203-1.5742 1.58203s-1.5742-.7075-1.5742-1.58203c0-.87454.7045-1.58789 1.5742-1.58789zm-4.3399.0664c.8697 0 1.5782.70945 1.5782 1.58399 0 .87453-.7085 1.58203-1.5782 1.58203s-1.5742-.7075-1.5742-1.58203c0-.87454.7045-1.58399 1.5742-1.58399zm95.0899.64649-.043 2.82422-3.5898 3.43945 3.4882 3.58398.014 2.0918-6.1758-5.99414zm-39.3789.47851 2.5586 1.33789-14.3711 9.18946-.877-2.66993zm107.414.95899c.8697 0 1.5723.70749 1.5723 1.58203 0 .87453-.7026 1.58398-1.5723 1.58398s-1.5742-.70945-1.5742-1.58398c0-.87454.7044-1.58203 1.5742-1.58203zm-80.2675.006 4.4589 4.48828-.5605.60937zm-4.6563.41015c-.05-.004-.1.0002-.1523.0137-.252.064-.5505.32923-1.0371.81836-1.0315 1.17793-4.8125 4.40266-4.7032 5.26563.2085.98777 1.5076 2.11084 4.7344 6.49805.4293.55272.6822.80775.9707.8125.2251.004.4692-.14261.8242-.42383.3226-.2547 1.1105-.80555 1.752-1.22461 2.3621-1.54317 4.365-2.9912 4.4531-3.20508.1822-.44199-2.1865-3.54984-5.4766-7.27734-.7071-.80128-1.0175-1.24922-1.3652-1.27735zm-76.1074 1.57031c.8697 0 1.5723.71336 1.5722 1.5879 0 .87453-.7025 1.58203-1.5722 1.58203s-1.5801-.7075-1.5801-1.58203c0-.87454.7104-1.58789 1.5801-1.5879zm165.5058.33594v3.69532l-8.6796 8.30468v-3.65625zm-88.6953.9668.8809 1.69726 1.8516-.0293-.2598 1.63281 1.291 1.08984-1.4082.8379-.1973 1.48828-1.2148-.10547-1.2637 1.38476-.9472-1.78125-1.4356.24414.1875-1.63672-1.2168-.96093 1.1973-1.66407-.1582-1.18359 1.4082.32031zm38.8438 1.32031.6211 1.73438-19.6387 12.75195-1.5605-1.18164zm-111.3555.20313v4.06836l-7.7558 7.31054v-3.89062zm81.7266.49414 6.332 6.2832-1.8574 1.83398-5.1621-7.42578zm-21.8906.16797 1.7128 1.97851-20.5351 13.25-.7832-2.40039zm101.371 1.76367v4.08594l-8.6796 8.28125v-3.95508zm-98.1836.89062-.1269 38.36719-1.6172-.7793-.066-36.72656zm.6016 1.41602.8652.75586-.705.70898zm-63.625.60351v4.35352l-7.7558 7.68945v-4.75781zm65.332.85938 5.7071 7.64844-.25.20898-6.7285-6.49609zm14.8301.0508c-.559.0683-1.4519.66651-3.4375 2.09961-3.858 2.78452-3.8399 2.37143-.2929 6.97461 2.0404 2.64963 3.0148 4.27593 3.8515 4.2168.6518-.046 1.3182-.82122 2.582-2.17188 1.2402-1.3255 2.7029-2.88212 3.0157-3.10351.9782-.69253.9304-.85946-.7715-2.78125-.5173-.5841-1.4938-1.7759-2.1699-2.65235-.6762-.87644-1.7548-1.97364-1.9688-2.19922-.2591-.27316-.4731-.42376-.8086-.38281zm-24.1855 1.36133-.1348 36.46289-9.625 6.271484c-1.1071-12.590034-1.875-21.304304-5.1094-33.175784zm32.4804.77539.061 2.66797-1.459-1.29102zm-24.7832.20312 6.5645 6.58204-6.6699 6.58593-.059-2.79297 3.7519-3.52343-3.6992-3.87891zm16.2793.33985 1.0743 1.26758 1.2675-.14844-.043 1.54297 1.2929.73828-.914 1.00391-.027 1.72851-1.8828.0703-.9121.85938-.9531-1.31836-1.6153.10351.2383-1.55273-.8593-.63086.8378-1.17578.068-1.48438 1.334.31836zm34.7539 1.4043.8555 2.35156-12.5566 8.26953-2.3867-1.22461zm-42.7382 4.64062 2.3164 3.01953-2.545-2.74609zm84.9375.42969c.8697 0 1.5781.70749 1.5781 1.58203 0 .87453-.7084 1.58203-1.5781 1.58203s-1.5743-.7075-1.5743-1.58203c0-.87454.7046-1.58203 1.5743-1.58203zm-68.5157.16601c-.5818.0457-1.2508.90419-3.2011 2.86524-2.0353 2.04643-3.291 2.62059-2.4981 3.69922 1.9288 1.66247 3.5103 2.87716 5.6016 4.46679 1.3817 1.03585 2.0927 1.52835 2.5703 1.52149.4214-.006.6638-.3971 1.0293-1.14844.1541-.31668 1.0527-2.00311 1.8808-3.30859 1.8693-2.94304 1.8701-2.79297.01-3.94532-.7912-.48889-2.6145-1.99515-4.1797-3.41797-.5431-.49362-.8599-.75982-1.209-.73242zm-17.5879.37305 7.2657 7.18555-6.6153 6.64648-7.2695-7.16211zm-74.9746 1.38477c.8697 0 1.5743.70749 1.5743 1.58203 0 .87453-.7046 1.58593-1.5743 1.58593-.8704 0-1.5722-.7114-1.5722-1.58593 0-.87454.7018-1.58203 1.5722-1.58203zm92.8633.45312.9649.93164 1.8808-.12695.3008 1.61328.8145.64258-.6329 1.06836.4629 1.42187-1.6113.11133-.9785 1.10742-1.1953-.89062-1.4043.60547-.1016-1.66211-1.2773-.63282.8047-1.17773-.4864-1.54883 1.3828-.0449zm-18.123.91406-4.0059 4.13868 4.5508 4.48828 4.2871-4.22461zm84.0761.87696c.8698 0 1.5723.70749 1.5723 1.58203 0 .87453-.7024 1.58594-1.5723 1.58593-.8696 0-1.5742-.7114-1.5742-1.58593 0-.87454.7046-1.58203 1.5742-1.58203zm4.5293.0508c.8697 0 1.5743.70749 1.5743 1.58203 0 .87453-.7046 1.58203-1.5743 1.58203s-1.5722-.7075-1.5722-1.58203c0-.87454.7025-1.58203 1.5722-1.58203zm-161.2519 1.66015c.8697 0 1.5742.70761 1.5742 1.58203 0 .87454-.7045 1.58204-1.5742 1.58204s-1.5781-.7075-1.5781-1.58204c0-.87442.7084-1.58203 1.5781-1.58203zm-4.2266.16016c.8697 0 1.5723.7075 1.5723 1.58203 0 .87454-.7026 1.58203-1.5723 1.58203s-1.5781-.70749-1.5781-1.58203c0-.87453.7084-1.58203 1.5781-1.58203zm75.6953.0391h2.8809v2.88086h-2.8809zm28.0059.89258c-.46.0575-.7125.48618-1.209 1.33984-.441.75722-1.2763 2.61601-1.8613 3.58008-1.4591 2.4065-1.4995 2.28971 1.1816 3.58789 1.5776.76431 2.533 1.07725 5.8496 2.42969.9219.37582 1.5117.63225 1.9493.625.8354-.0138.9446-1.56739 1.8496-4.50586 1.2627-4.10028 1.3517-3.72131-1.0703-4.57617-1.0787-.38038-3.1411-1.07996-4.2325-1.5957-1.3298-.62843-1.997-.94221-2.457-.88477zm59.4629 1.14063c.8697 0 1.5742.70944 1.5742 1.58398s-.7045 1.58203-1.5742 1.58203-1.5723-.70749-1.5723-1.58203.7026-1.58398 1.5723-1.58398zm-77.1758.13086 2.2266 2.04687.1289 31.208984-2.3125-1.787109zm-1.0273.10937.1152 3.19922c-1.2509 1.1186-2.7422 2.39303-3.8418 3.65625l3.8223 3.92187.01 2.45118-6.5859-6.60743zm-15.1329.041 7.2774 6.78711-7.3418 7.27734.2148-3.36524 3.8789-3.85742-4.1269-4.02929zm34.8497.67578 1.3359.9414 1.416-.51367.3926 1.0586 1.4492.70507-.5254 1.16602.7227 1.57422-1.6582.12695-.8535 1.6875-1.1622-.73242-1.3046.54687-.2618-1.41211-1.4277-.55664.4063-1.38867-.629-1.04101 1.2168-.23633zm-102.75.83203c.8696 0 1.5742.70945 1.5742 1.58398 0 .87454-.7046 1.58203-1.5742 1.58203-.8705 0-1.5743-.70749-1.5743-1.58203 0-.87453.7038-1.58398 1.5743-1.58398zm113.748 1.1914c-1.0672-.0332-.8503.50886-1.2656 1.69336-.5166 1.47967-.7969 2.79186-1.4395 4.9043-.5878 1.93468-.3184 1.99661 3.4727 2.70898 2.6212.49249 5.3415.86076 6.4648.86133.3745.00017.6001-.0322.6426-.10351.096-.16266.042-1.60794.3594-6.83985.1162-1.9175.2494-1.9255-1.3496-2.11914-1.3424-.0463-4.3456-.81953-6.3438-1.05664-.2105-.028-.3885-.0441-.541-.0488zm51.6543.20313v3.76953l-8.1348 7.71289v-3.76562zm-77.8496.21289c4.5768 3.46049 8.2502 5.52369 11.7226 7.27734l-.4687 32.408207-11.3008-8.845703zm29.1445 1 .9141 1.16602 1.3301.0449-.072 1.6582.8633.73242-1.0313.92969.1328 1.46875-1.6386-.27539-1.0352 1.20508-.707-1.16797-1.6973-.28125.2969-1.18945-.8633-1.22657 1.0625-.80078-.037-1.47851 1.3281.0469zm-112.3203.19922v3.96875l-7.7558 7.88867v-4.16406zm123.1934 1.62305 2.3886 4.70117-1.5546-.63282-1.1875.79297-.3633-1.74414-1.0469-.6914 1.0645-.73633.047-1.13281zm-51.8789 1.57812 7.0605 6.73047-7.3926 7.24023-6.8261-6.78711zm89.7109.006v4.08203l-8.1348 7.6582v-3.83984zm-161.0254 2.08594v3.59375l-7.7558 7.57226v-3.60742zm70.959.65039-4.2168 4.25976 4.2461 4.27149 4.3516-4.27149zm-1.3711 2.82031h2.8789v2.87891h-2.8789zm9.084 2.39649.057 3.12695-3.9511 3.830076 3.9707 4.140625-.2852 2.15625-6.8926-6.480469zm-15.0332.32031 6.5312 6.318357-1.0586 1.050781-5.4609-4.191408zm93.2051 4.05469c.8697 0 1.5742.7114 1.5742 1.58593 0 .874561-.7044 1.582034-1.5742 1.582034-.8697 0-1.5723-.707473-1.5723-1.582034 0-.87453.7026-1.58594 1.5723-1.58593zm-161.2266 1.69921c.8697 0 1.5742.709452 1.5742 1.583988s-.7045 1.585938-1.5742 1.585938-1.5723-.711402-1.5723-1.585938.7026-1.583988 1.5723-1.583988zm32.4277.978519-5.414 7.152344 4.4804 3.09375-4.25 4.603516 3.8125 5.02539-3.9472 3.101563 4.2715 7.042969-.2793.339843-4.086-2.164062-3.8828-6.345703 3.875-2.828125-3.5273-4.535156 3.8047-3.919922-4.1817-2.671875 3.9102-5.476563zm42.9473.265625 4.8477 5.365235-5.7481-4.267578zm-41.5625.173828.055 3.515626-1.9024 2.304687 2.1817 1.509766.01 4.839843-2.2187 2.34961 2.0332 2.064453-.3633 5.292969-1.9355 1.541015 1.5976 2.203125-.5742 3.191406c-.1207-.217724-.5081-.298628-.6953-.589843-1.2747-1.983414-3.584-5.507813-3.584-5.507813l4.0449-3.226562-3.7148-4.904297 4.6406-4.740235-4.7402-3.24414s2.9414-4.525642 5.166-6.59961zm129.7598.986329c.8697 0 1.5742.709448 1.5742 1.583984s-.7044 1.585942-1.5742 1.585937c-.8697 0-1.5743-.711401-1.5743-1.585937s.7046-1.583984 1.5743-1.583984zm-98.6035.02344c.5263-.04141 1.0464.238656 1.4374.53711 10.6826 8.508114 21.6153 16.758449 32.4454 25.09375l-.062 2.515624-28.7657-21.638671s-2.6563-2.010597-3.4179-2.496094c-1.615-1.029413-1.937-.616408-3.5489.496094-3.6343 2.170244-12.4316 8.189453-12.4316 8.189453l.07-3.117188s8.8496-6.658141 13.7481-9.419922c.1738-.09645.3495-.146353.5254-.160156zm93.9902.06055c.8697 0 1.5742.707495 1.5742 1.582031s-.7045 1.582027-1.5742 1.582032c-.8697 0-1.5723-.707496-1.5723-1.582032s.7026-1.582031 1.5723-1.582031zm-156.3867 1.375c.8697 0 1.5722.707495 1.5722 1.582031s-.7025 1.582029-1.5722 1.582032c-.8697 0-1.5743-.707496-1.5743-1.582032s.7046-1.582031 1.5743-1.582031zm-4.4844.191406c.8697 0 1.5742.713355 1.5742 1.587891s-.7045 1.582031-1.5742 1.582031-1.5723-.707495-1.5723-1.582031.7026-1.587891 1.5723-1.587891zm163.2012 2.244141c.8697 0 1.5781.713365 1.5781 1.58789 0 .874537-.7084 1.582032-1.5781 1.582032s-1.5743-.707495-1.5743-1.582032c0-.874525.7046-1.58789 1.5743-1.58789zm4.5293 3.376953v4.308594l-8.545 8.107422v-4.578125zm-161.4356 1.054687v4.00586l-7.7558 7.599609v-4.044922zm54.9688.316407c.926-.03961 2.3156.143266 2.9707.330078.3314.09453 2.4017.145062 4.8535.119141 5.9059-.06245 5.9675-.07577 5.9629 4.095703 0 1.755689.3813 2.132463 3.4726 2.039062 3.8784-.117172 3.6747-.221294 4.334 4.460938.2298 1.623014.3584 1.685073 3.5684 1.638671 3.4982-.05059 4.2938-.101492 4.0879 2.863282-.1872 2.694657.4664 3.401495 3.3847 2.71875 3.1086-.727254 3.7027.60008 4.0059 3.009765.2806 2.23186.4689 1.672966 1.9531 1.789063 1.6443.128617 1.4525 1.989954-.293 2.162109-.2983.02942-.567.0675-.8125.07617-1.7193.06072-2.2517-.755448-2.541-3.380859-.1982-1.802587-.5833-1.970464-3.4023-1.494141-2.9761.502816-3.9726-.309919-4.1856-3.408203-.1682-2.457874-.1478-2.437772-3.5332-2.460938-3.3321-.0228-3.6892-.361395-4.0722-3.794921-.2846-2.551029-.1898-2.479865-3.4668-2.435547-3.63.04909-3.956-.221018-4.2012-3.449219-.1993-2.616621-.37-2.785231-2.6621-2.595703-2.2459.185844-6.3894.207008-7.1641.03711-1.9314-.423601-2.0103-.343704-2.4258 2.275391-.5469 3.448312-1.2264 3.879238-5.4414 3.453125-2.0723-.209508-2.312-.167216-2.6054 1.666015-.3922 2.444838-.8799 3.160547-.8809 1.042969 0-5.349218.368-5.598185 3.918-4.646484 2.6666.7149 2.7091.165887 2.9883-2.416016.2454-2.275684.6282-3.208216 1.4609-3.572265.1616-.0707.4179-.109847.7266-.123046zm106.4668 3.953125v3.935547l-8.545 8.074218v-4.074218zm-100.5293.482422s13.0935 10.194586 19.4218 15.117187l-3.0332.830078-16.3711-12.283203-15.4961 10.427734.094-3.804687zm-60.9063.458984v3.378906l-7.7558 7.896485v-3.838277zm157.1367 9.988281c.1472-.0083.4473 1.129458.5528 1.232422.1105.107927 1.2882.416035 1.2968.570313.01.147183-1.1314.447237-1.2343.552734-.108.110582-.4161 1.288212-.5703 1.296875-.1472.0083-.4473-1.131411-.5528-1.234375-.1106-.107927-1.2862-.416042-1.2949-.570312-.01-.147184 1.1295-.445285 1.2324-.550782.1079-.110582.4161-1.288212.5703-1.296875zm-155.8007 2.09375 2.5371.08789v39.695312h-2.5371zm-5.5176.05273c.8703 0 1.5742.709448 1.5742 1.583984s-.7039 1.585933-1.5742 1.585938c-.8697 0-1.5723-.711402-1.5723-1.585938s.7026-1.583984 1.5723-1.583984zm159.3828 1.216796c.1472-.0083.4453 1.129458.5508 1.232422.1105.107927 1.2882.416036 1.2968.570313.01.147183-1.1294.447237-1.2324.552734-.1079.110582-.416 1.288213-.5703 1.296875-.1472.0083-.4472-1.131411-.5527-1.234375-.1106-.107926-1.2882-.416035-1.2969-.570312-.01-.147184 1.1314-.447238 1.2344-.552735.1079-.110581.416-1.286259.5703-1.294922zm4.2793 0c.1472-.0083.4472 1.129458.5527 1.232422.1106.107927 1.2882.416036 1.2969.570313.01.147183-1.1314.447237-1.2344.552734-.1079.110582-.416 1.288213-.5703 1.296875-.1472.0083-.4453-1.131411-.5508-1.234375-.1106-.107926-1.2882-.416035-1.2969-.570312-.01-.147184 1.1295-.447238 1.2325-.552735.1079-.110581.416-1.286259.5703-1.294922zm-79.5039 2.451172c4.2778-.06804 7.2713 5.411826 4.1972 9.580078-2.7767 3.765037-7.1241 3.716197-8.4433-.09375-1.0902-3.148425 2.413-7.100662 5.209-5.873046 1.9428.853701 1.4465 4.373117-.7364 5.201172-.9043.343059-1.669-.810754-1.2226-1.845704.3514-.8148.3891-1.324567-.088-.978515-1.9737 1.399062-.4869 4.733104 1.9629 3.486328 3.2682-1.663348 2.7179-6.552222-.5742-6.765625-4.1666-.41134-7.3811 4.748109-9.4395 14.546875-2.258 10.966289-1.6967 20.784478-3.8613 29.394531l-1.918.0332c.2602-5.254146 1.3547-8.927989 1.6895-15.140625.4145-7.588019 1.7107-17.035423 5.1054-24.871094 1.1434-2.639062 3.2568-5.116346 6.2207-6.285156.6497-.256171 1.2874-.378952 1.8985-.388672zm-81.9512.53711c.8697 0 1.5723.707495 1.5723 1.582031s-.7026 1.587891-1.5723 1.587891-1.5742-.713355-1.5742-1.587891.7045-1.582031 1.5742-1.582031zm-4.4336.0918c.8697 0 1.5742.709448 1.5742 1.583984s-.7045 1.582031-1.5742 1.582031-1.5723-.707495-1.5723-1.582031.7026-1.583984 1.5723-1.583984zm33.9629.876953c1.7625.03624 3.4424 1.662697 5.0234 4.873047 2.4851 5.045928 3.1664 8.793269 1.9649 10.8125-.05.08396-.1091.124157-.1797.11914-.376-.02709-1.0462-1.366192-2.0977-4.167969-1.0137-2.701567-2.6506-6.108007-2.998-6.236328-.107-.03953-.5683.122969-1.0234.363282-3.4517 1.821524-5.8812-3.347107-2.4786-5.269532.6052-.34178 1.2016-.506221 1.7891-.49414zm129.582.01563c.1472-.0083.4473 1.131411.5528 1.234375.1105.107926 1.2882.416035 1.2968.570312.01.147184-1.1314.447238-1.2343.552735-.108.110581-.4161 1.286264-.5703 1.294921-.1472.0083-.4473-1.129457-.5528-1.232421-.1106-.107927-1.2862-.416036-1.2949-.570313-.01-.147183 1.1295-.447237 1.2324-.552734.1079-.110582.4161-1.288213.5703-1.296875zm-70.5761 1.646484c.4034.08934 1.1864.90464 1.7363 1.990235 1.2235 2.415244-1.0332 7.086025-4.1133 8.511718-.6451.298593-1.3587.435597-1.9746.449219-1.355.02997-2.248-.525762-.9512-1.214844 4.126-2.19229 5.86-5.340044 5.0703-9.21289-.062-.303507-.024-.467147.084-.515625.04-.01818.091-.02063.1485-.0078zm-53.4004.851563c.6659.05465 1.8618.558011 2.3437 1.078125.9928 1.071797 1.3088 3.468774.6387 4.839843-.1967.399872-.3392.630347-.4942.619141-.9151-2.222949-1.8581-4.398458-2.9316-6.425781.058-.09733.2214-.129547.4434-.111328zm-37.1368.447265c.8704 0 1.5743.711402 1.5743 1.585938s-.7039 1.583984-1.5743 1.583984c-.8685 0-1.5722-.709448-1.5722-1.583984s.7037-1.585938 1.5722-1.585938zm93.752.25c.2996-.05599.7485.364313 1.3496 1.263672 2.0716 3.09931-2.0822 9.804632-5.4707 9.955078-.4161.01848-.8201-.0618-1.1992-.259765-.8935-.465173-.763-.808349.6074-1.617188 1.4128-.833642 1.9691-1.356288 2.7813-2.591797 1.2665-1.926627 1.4807-2.668002 1.4824-5.15039 0-1.011485.1496-1.543619.4492-1.59961zm2.8359 1.822266c.1059-.03428.2626.04932.4883.222656 3.0241 2.32197-.2175 10.423711-4.3144 10.78125-.1139.0099-.2231.01703-.3242.01953-1.534.03753-1.7468-.741085-.375-1.705078 2.6173-1.838122 4.3663-5.075971 4.3242-8.019531-.012-.854933.025-1.241706.2011-1.298827zm2.5411.755859c.167.02539.4569.288992.9394.791016 2.0717 2.155497.6111 8.006361-3.4043 10.195312-.5455.288712-1.0753.408781-1.5.404297-.9344-.0099-1.355-.612333-.2637-1.302734 2.6633-1.683333 4.2657-4.895856 4.1094-8.248047-.094-1.265371-.1593-1.882168.1192-1.839844zm2.7363 1.341797c.2153.01911.5851.214889 1.1914.652344 1.7042 1.42237 1.3634 5.118051-.4453 7.654297-1.1147 1.565102-3.4245 2.959993-4.8067 2.976562-.2562.0031-.4791-.03706-.6621-.128906-.7272-.364949-.4598-.417641.8731-1.373047 2.3649-1.694967 3.534-4.187381 3.8086-6.970703.1321-1.338995-.6051-2.867877.041-2.810547zm-23.5703.222656c.02-.0058.032.01363.035.05664.2496 1.126282.9579 2.038785 1.5 2.929688-2.2575 6.175317-3.1685 11.794638-3.748 17.085937-.6771 6.182388-.8683 11.91674-1.7188 17.570313l-2.1894.06641c.1743-.81426.206-1.681789.3554-2.677735.8633-5.752714 1.3749-14.151142 2.2598-20.732421 1.1706-8.706036 3.2085-14.211734 3.5059-14.298829zm-74.3184.123047v3.945313l-7.7558 7.765625v-3.853516zm101.0293 1.355469c.08-.0075.171.0099.2402.01367.5682.09475.9178.697316 1.0821 1.207031 1.8857 3.786733-1.6007 9.536761-5.3008 9.677734-.3828.01459-.7636-.03652-1.1426-.15625-.9258-.292445-.5856-.313973.9746-1.355468 2.9747-1.985603 3.88-3.930486 4.0117-7.90625.038-.598633-.086-1.09455-.035-1.345703.021-.09522.09-.127277.1699-.134766zm2.9414 2.212891c.134.01171.3804.230172.8262.636718 3.0362 4.271458-1.3384 9.463142-4.8594 9.4375-1.5721-.02063-2.3268-.48817-1.2851-.904296 3.4533-1.379649 4.9878-3.577651 5.1777-7.419922.01-1.214117-.083-1.769517.1406-1.75zm-27.3008.15625 1.7813 1.083984c-2.9503 9.735368-3.7341 22.265572-5.0195 32.628906l-1.8457.07813c.072-1.861383.8064-10.457597 1.6835-17.984375.9889-8.486277 3.0125-15.80664 3.4004-15.80664zm-76.6699 1.113281v3.273437l-7.7558 8.136719v-3.384765zm79.5567.488281 1.7402.605469c-1.1638-.366237-4.0302 22.390565-4.543 31.232422l-2.0879.205078c.3096-4.45075 1.0576-11.446622 1.8946-17.755859 1.0119-7.62791 2.3359-14.387694 2.9961-14.28711zm2.7089 1.285156c.3156.01362.8343.461935 1.9063 1.060547-1.8635-.264987-3.3589 20.932783-4.4219 29.316407l-1.9219.09766c.7486-12.311319 2.5427-23.472692 3.6036-28.263672.3279-1.444534.4363-2.069305.7089-2.189453.038-.01665.08-.02343.125-.02148zm-54.9179.619141c-2.2608.139594-4.4753 2.379946-3.4082 5.306641.6838 1.875836 2.4198 2.155008 4.6211 1.78125 0 0 .9488.677626 2.0644 4.076172 1.3208 4.023503 3.3926 8.164062 3.3926 8.164062.1311-5.04711 1.3115-10.301466-.8945-14.429688-1.63-2.999329-2.8798-4.100143-4.3164-4.673828-.324-.129382-.6646-.202229-1.0079-.224609-.1501-.0098-.3004-.0093-.4511 0zm.3437.410156c3.2658.196335 6.4065 6.009804 6.0528 12.210938-.1115 1.953502-.4317 3.482422-.4317 3.482422-1.4613-3.045878-1.7702-5.337693-3.1875-8.097657-.6203-1.204722-1.1758-2.238281-1.1758-2.238281-4.6281 2.188027-6.4094-3.322803-2.6562-5.082031.4618-.216486.9319-.303439 1.3984-.275391zm57.3379.392578 1.9531.914063c-.5346-.175672-1.9243 5.663921-2.3945 12.269531-.4094 5.750779-1.4409 12.006551-1.7461 15.472656l-2.1289.257813c1.3632-9.320519 1.493-20.211369 4.3164-28.914063zm2.9063 1.435547 1.9941 1.017578c-1.0468-.316856-2.8735 18.957233-3.9844 25.802735l-2.0117.316406c.7768-3.291196.777-8.142008 1.3594-12.1875.721-5.00893 1.4903-15.18258 2.6426-14.949219zm3.0097 1.394532 1.8985 1.011718c-.7394 3.082399-2.6167 13.562948-3.6563 23.914063l-2.0254.277343c.9749-7.525327 2.7397-25.071972 3.7832-25.203124zm2.8809 1.550781 2.0781.943359s-1.4414 7.073906-2.125 12.042969c-.6747 4.904814-.7795 5.604861-.9941 6.882812-.4744 2.818601-.6055 2.923827-.6055 2.923829l-1.7324.289062c.839-8.272129 1.6251-16.649601 3.3789-23.082031zm-97.8848 3.638672c.8703 0 1.5742.713354 1.5742 1.58789s-.7039 1.582031-1.5742 1.582031c-.8696 0-1.5722-.707495-1.5722-1.582031s.7026-1.58789 1.5722-1.58789zm2.0723 3.732421c.8697 0 1.5801.713355 1.5801 1.587891s-.7104 1.582031-1.5801 1.582031-1.5723-.707495-1.5723-1.582031.7026-1.587887 1.5723-1.587891zm-4.3184.06836c.8697 0 1.5723.707495 1.5723 1.582031s-.7026 1.582031-1.5723 1.582031-1.5781-.707495-1.5781-1.582031.7084-1.582031 1.5781-1.582031zm2.3281 3.68164c.8703 0 1.5743.711402 1.5743 1.585938s-.704 1.582031-1.5743 1.582031c-.8685 0-1.5722-.707495-1.5722-1.582031s.7037-1.585937 1.5722-1.585938zm-3.7792 5.074219h18.0136l-18.0136 19.080078v-3.296875l11.6816-13.023437h-11.6816zm0 4.236328h8.8457l-8.8457 9.246094zm23.6386.730469c-1.0788.02673-2.1273.250552-3.1054.707031-.4139.173493-.7376.392942-.7403.611329 2.275 2.084883 3.4711 5.656753 4.2461 8.58789 1.7382 4.618997 3.0293 10.1921556 7.0235 12.6484376l-2.7579 5.5234375h86.7813l-14.4453-25.4199221c-16.4484 3.214281-39.6312 4.883064-59.4746-.208984 0 0-3.4131 6.373008-4.2696 8.076172 0 0-.5007-1.563433-1.0351-2.650391-2.3244-4.403121-7.5479-7.990818-12.2227-7.875zm-.1797.482422c.253-.01036.5115-.006.7735.01172 4.5415.307492 10.2838 4.716719 11.8965 8.820312-.2493.48812-1.3516 2.539063-1.3516 2.539063-.5751-1.12888-.1437-2.2441-.5215-3.257813-.093-.432013-1.0351 2.919922-1.0351 2.919922s-.9103-1.487458-1.0215-4.349609c-.017-.441284-1.1836 1.919922-1.1836 1.919922-1.4671-1.985815-1.3848-5.429688-1.3848-5.429688-1.6533 2.017603-.6219 3.173401-3.1758-1.96875-.2949.534802-.1507 1.101547-.5371.951172-1.1222-.43674-2.6996-1.227103-3.2734-1.068359.7489.943677 2.2007 1.441487 2.5996 2.693359 0 0-1.1515-.09754-1.2266-.04102 1.3057.713789 2.5591 1.329624 3.5391 2.701172-.2918.107955-1.473-.09446-1.4219.03125 1.7671 1.60477 4.4191 2.901398.584 2.539063 2.4928 1.763103 5.2713 2.980867.9414 2.849609 3.0886 1.466903 3.9211 2.372031 3.3457 2.621094-.3241.140312-1.2484-.418541-2.7207.05469 2.482 1.017651 3.505 1.4831976 3.6035 1.8183598.1194.4062518-1.059.6295195-1.8672 1.5097656 0 0 .9991-.2291191 1.4356.2363281 0 0-.4844 1.405891-.8574 2.2167969-3.1603-2.8830766-4.4035-6.9647764-5.2227-9.5917974-.4116-1.359206-.832-2.691297-.9316-2.96289-1.5145-4.126621-2.1359-5.489562-3.125-6.861328-.1634-.226542-.2132-.200505.025-.394532.6409-.315077 1.3543-.47673 2.1132-.507812zm76.4922 3.982422 12.4961 22.1191405h-2.6152l-9.8672-17.6562505-14.6563 1.46875 4.0508 16.1875005h-3.873l-4.0059-15.7675785-22.6836.121094c-.7343 5.2820584-2.1582 15.6464845-2.1582 15.6464845h-4.1894l2.791-16.0410155-13.3984-1.691406-7.7422 17.7324215h-3.6348l11.166-21.8867185c21.5361 3.36822 32.9269 3.787358 58.3203-.232422zm-56.7597 6.423828 9.2812 1.248047-2.5332 14.4472655h-13.1191zm55.0527.236328 8.3516 15.4589845h-14.3028l-4.1074-14.5234375zm-18.6035 1.867188 3 13.5917965h-23.086l1.3223-13.4453125z" stroke-width=".165" transform="matrix(-6.07743 0 0 -6.04382 7359.69 -351.303)"/></g><g stroke-width="1.06667"><path d="m1565.1926 300.14672c10.4261-.22648 15.1013-11.96512 7.3796-21.08084-1.1199-1.3296-1.2354-2.0927.8156-.81552 5.1987 3.47653 15.1671 1.19106 15.6776-9.43713.6307-13.09536-17.6671-16.86853-21.1026-2.94361-.1814 1.4692-1.3753 1.43571-1.0875-.64976.3132-5.66013 2.0809-10.95046 4.5106-16.10937-4.0951 0-8.6716 0-12.3949 0 2.4295 5.15891 4.1972 10.44924 4.5105 16.10937.2879 2.08547-.9061 2.11896-1.0875.64976-3.4356-13.92492-21.7332-10.15175-21.1026 2.94361.5103 10.62819 10.4788 12.91366 15.6777 9.43713 2.051-1.27718 1.9354-.51408.8155.81552-7.7217 9.11572-3.0465 20.85436 7.3796 21.08084 0 0 0-.00011.011 0z"/><path d="m1455.2504 38.138185c10.4261.226346 15.1013 11.965014 7.3796 21.080854-1.1199 1.3296-1.2354 2.092587.8156.81536 5.1987-3.476374 15.1671-1.19104 15.6777 9.43712.6305 13.095467-17.6671 16.868587-21.1027 2.94368-.1814-1.46912-1.3754-1.435626-1.0875.649814.3132 5.66016 2.0809 10.950507 4.5106 16.109227-4.0951 0-8.6716 0-12.3949 0 2.4295-5.15872 4.1972-10.449067 4.5105-16.109227.2879-2.08544-.9061-2.118934-1.0875-.649814-3.4356 13.924907-21.7332 10.151787-21.1026-2.94368.5103-10.62816 10.4789-12.913494 15.6777-9.43712 2.051 1.277227 1.9353.51424.8156-.81536-7.7218-9.11584-3.0466-20.854508 7.3794-21.080854 0-.000107 0 0 .011 0z"/></g></g><g stroke-width="1.06258" transform="matrix(1.00448 0 0 1.00321 -1626.73736336 430.62217883)"><path d="m1838.2431-150.84723c4.1703-.0943 6.0406-4.98545 2.9518-8.78367-.4479-.55402-.4941-.87196.3263-.3398 2.0796 1.44854 6.0669.49628 6.271-3.93213.2523-5.45642-7.0668-7.02856-8.441-1.22651-.072.61216-.5502.59819-.4349-.27074.1253-2.35841.8323-4.56269 1.804-6.71223-1.6524 0-3.305 0-4.9576 0 .9719 2.14954 1.6788 4.35382 1.8042 6.71223.1152.86893-.3624.8829-.435.27074-1.3742-5.80205-8.6933-4.22991-8.4411 1.22651.2042 4.42841 4.1916 5.38067 6.2711 3.93213.8204-.53216.7743-.21422.3262.3398-3.0886 3.79822-1.2185 8.68932 2.9517 8.78367z"/><path d="m1637.7578-376.1133c-4.1705.0943-6.0405 4.98545-2.952 8.78367.4482.55402.4943.87196-.3261.3398-2.0796-1.44854-6.0669-.49627-6.2711 3.93213-.2522 5.45642 7.0669 7.02856 8.441 1.22652.072-.61217.5503-.5982.435.27073-.1253 2.35841-.8322 4.56269-1.8042 6.71223h4.9578c-.9718-2.14954-1.6789-4.35382-1.8042-6.71223-.1152-.86893.3625-.8829.4349-.27073 1.3742 5.80204 8.6934 4.2299 8.4411-1.22652-.2041-4.4284-4.1916-5.38067-6.271-3.93213-.8205.53216-.7742.21422-.3263-.3398 3.0888-3.79822 1.2185-8.68932-2.9518-8.78367-.0009-.00002 0 .00002 0 0z"/><path d="m1637.6444-414.53457v3.67273h3.5621s.086 3.54048.1173 11.05019c.028 7.29255.1762 10.90957-.2881 12.9868-1.2478 4.78652-8.1753 4.81297-9.5514 1.37138-.8-2.00205-.5871-3.55858-.624-5.57455h-3.8296s.022 1.01497.028 2.25683c.022 5.38239 1.8021 7.95663 5.9676 8.97157 4.2829 1.15836 9.2907-.6084 11.0711-4.27276 1.0607-2.08836.9393-2.23177.9652-14.85937.016-8.42442.1433-11.93009.1433-11.93009h3.2795v-3.67273h-10.8404z"/><path d="m1838.3534-112.42594v-3.6728h-3.562s-.086-3.54043-.1174-11.0502c-.028-7.29254-.1761-10.90952.2881-12.9867 1.2479-4.78656 8.1753-4.81303 9.5515-1.37138.8 2.002.5871 3.5585.6239 5.57454h3.8297s-.022-1.01499-.028-2.25687c-.022-5.38241-1.8022-7.95665-5.9676-8.97153-4.2829-1.15842-9.2907.60839-11.0711 4.27269-1.0608 2.08844-.9393 2.23177-.9652 14.85941-.016 8.42438-.1433 11.93004-.1433 11.93004h-3.2795v3.6728h10.8403z"/></g></svg>