<svg height="88.000046mm" viewBox="0 0 238.11073 332.5986" width="63.00013mm" xmlns="http://www.w3.org/2000/svg"><g transform="matrix(1.07145 0 0 1.07009 -2478.38052 1164.653456)"><rect fill="#fff" height="310.81366" rx="10.62995" ry="10.629899" width="222.23224" x="2313.1089" y="-1088.3696"/><path d="m2475.7563-1055.3647c-9.7745.2122-14.1574 11.2172-6.9184 19.7633 1.0499 1.2465 1.1582 1.9618-.7646.7645-4.8738-3.2592-14.2192-1.1166-14.6978 8.8473-.5911 12.2769 16.5629 15.8142 19.7838 2.7596.17-1.3773 1.2895-1.3459 1.0195.6092-.2937 5.3064-1.9509 10.266-4.2287 15.1025h11.6203c-2.2777-4.8365-3.935-9.7961-4.2287-15.1025-.2699-1.9551.8495-1.9865 1.0195-.6092 3.2209 13.0546 20.3749 9.5173 19.7838-2.7596-.4785-9.9639-9.824-12.1065-14.6979-8.8473-1.9227 1.1973-1.8144.482-.7645-.7645 7.239-8.5461 2.8561-19.5511-6.9183-19.7633 0-.0001 0 0-.01 0z"/><path d="m2372.6855-1055.3647c-9.7745.2122-14.1574 11.2172-6.9184 19.7633 1.0499 1.2465 1.1582 1.9618-.7646.7645-4.8738-3.2592-14.2191-1.1166-14.6978 8.8473-.591 12.2769 16.5629 15.8142 19.7837 2.7596.1701-1.3773 1.2895-1.3459 1.0196.6092-.2937 5.3064-1.9509 10.266-4.2287 15.1025h11.6202c-2.2776-4.8365-3.9349-9.7961-4.2286-15.1025-.2699-1.9551.8495-1.9865 1.0195-.6092 3.2209 13.0546 20.3749 9.5173 19.7838-2.7596-.4785-9.9639-9.824-12.1065-14.6979-8.8473-1.9228 1.1973-1.8144.482-.7645-.7645 7.239-8.5461 2.8561-19.5511-6.9183-19.7633 0-.0001 0 0-.01 0z"/><path d="m2475.7563-809.73169c-9.7745-.21225-14.1574-11.21726-6.9184-19.76328 1.0499-1.24653 1.1582-1.96187-.7646-.76452-4.8738 3.25919-14.2191 1.11662-14.6978-8.84728-.591-12.27695 16.5629-15.81427 19.7838-2.75967.17 1.37736 1.2895 1.34593 1.0195-.60916-.2937-5.30642-1.9509-10.26606-4.2287-15.10253h11.6203c-2.2777 4.83647-3.935 9.79611-4.2287 15.10253-.2699 1.95509.8495 1.98652 1.0195.60916 3.2209-13.0546 20.3749-9.51728 19.7838 2.75967-.4785 9.9639-9.824 12.10647-14.6979 8.84728-1.9227-1.19735-1.8144-.48201-.7645.76452 7.239 8.54602 2.8561 19.55102-6.9183 19.76328 0 .00006 0-.00005-.01 0z"/><path d="m2372.6855-809.73169c-9.7745-.21225-14.1574-11.21726-6.9184-19.76328 1.0499-1.24653 1.1582-1.96187-.7646-.76452-4.8738 3.25919-14.2191 1.11662-14.6978-8.84728-.591-12.27695 16.5629-15.81427 19.7837-2.75967.1701 1.37736 1.2895 1.34593 1.0196-.60916-.2937-5.30642-1.9509-10.26606-4.2287-15.10253h11.6202c-2.2776 4.83647-3.9349 9.79611-4.2286 15.10253-.2699 1.95509.8495 1.98652 1.0195.60916 3.2209-13.0546 20.3749-9.51728 19.7838 2.75967-.4785 9.9639-9.824 12.10647-14.6979 8.84728-1.9228-1.19735-1.8144-.48201-.7645.76452 7.239 8.54602 2.8561 19.55102-6.9183 19.76328 0 .00006 0-.00005-.01 0z"/><path d="m2424.2211-1005.9179c-9.7745.2122-14.1573 11.21724-6.9184 19.76325 1.0499 1.24653 1.1583 1.96188-.7646.76453-4.8737-3.25919-14.2191-1.11663-14.6977 8.84727-.5911 12.27694 16.5628 15.81426 19.7836 2.75966.1701-1.37736 1.2895-1.34593 1.0196.60917-.2937 5.30641-1.9509 10.26605-4.2287 15.10253h11.6202c-2.2777-4.83648-3.9349-9.79612-4.2286-15.10253-.2699-1.9551.8495-1.98653 1.0195-.60917 3.2209 13.0546 20.3749 9.51728 19.7837-2.75966-.4784-9.9639-9.8239-12.10646-14.6978-8.84727-1.9228 1.19735-1.8144.482-.7645-.76453 7.239-8.54601 2.856-19.55105-6.9183-19.76325 0-.0001 0 0-.01 0z"/><path d="m2475.7563-956.47143c-9.7745.21226-14.1574 11.21727-6.9184 19.76328 1.0499 1.24653 1.1582 1.96188-.7646.76453-4.8738-3.25919-14.2192-1.11663-14.6978 8.84728-.591 12.27694 16.5629 15.81426 19.7838 2.75966.17-1.37736 1.2894-1.34593 1.0195.60917-.2937 5.30641-1.9509 10.26605-4.2287 15.10253h11.6203c-2.2777-4.83648-3.935-9.79612-4.2287-15.10253-.2699-1.9551.8495-1.98653 1.0195-.60917 3.2209 13.0546 20.3749 9.51728 19.7838-2.75966-.4785-9.96391-9.824-12.10647-14.6979-8.84728-1.9227 1.19735-1.8144.482-.7645-.76453 7.239-8.54601 2.8561-19.55101-6.9183-19.76328 0-.00006 0 .00005-.01 0z"/><path d="m2372.6855-956.47143c-9.7745.21226-14.1574 11.21727-6.9184 19.76328 1.0499 1.24653 1.1582 1.96188-.7646.76453-4.8738-3.25919-14.2191-1.11663-14.6977 8.84728-.5911 12.27694 16.5628 15.81426 19.7836 2.75966.1701-1.37736 1.2895-1.34593 1.0196.60917-.2937 5.30641-1.9509 10.26605-4.2287 15.10253h11.6202c-2.2776-4.83648-3.9349-9.79612-4.2286-15.10253-.2699-1.9551.8495-1.98653 1.0195-.60917 3.2209 13.0546 20.3749 9.51728 19.7838-2.75966-.4785-9.96391-9.824-12.10647-14.6979-8.84728-1.9228 1.19735-1.8144.482-.7645-.76453 7.239-8.54601 2.8561-19.55101-6.9183-19.76328 0-.00006 0 .00005-.01 0z"/><path d="m2424.2211-859.17835c-9.7744-.21225-14.1574-11.21725-6.9183-19.76327 1.0499-1.24653 1.1582-1.96187-.7646-.76452-4.8739 3.25919-14.2193 1.11662-14.6979-8.84728-.5911-12.27696 16.563-15.81428 19.7837-2.75967.1702 1.37736 1.2895 1.34593 1.0196-.60916-.2937-5.30642-1.9508-10.26607-4.2286-15.10254h11.6201c-2.2777 4.83647-3.9349 9.79612-4.2286 15.10254-.2698 1.95509.8495 1.98652 1.0195.60916 3.2209-13.05461 20.3749-9.51729 19.7837 2.75967-.4784 9.9639-9.8239 12.10647-14.6978 8.84728-1.9228-1.19735-1.8144-.48201-.7645.76452 7.239 8.54602 2.8561 19.55101-6.9182 19.76327 0 .00006 0-.00005-.01 0z"/><path d="m2518.203-827.36917c3.9097-.0884 5.663-4.67386 2.7674-8.23469-.4201-.5194-.4634-.81746.3058-.31856 1.9495 1.358 5.6877.46526 5.8791-3.68637.2365-5.1154-6.6252-6.58928-7.9135-1.14986-.068.57391-.5158.56081-.4078-.25382.1175-2.211.7803-4.27752 1.6914-6.29272-1.5492 0-3.0986 0-4.6478 0 .9111 2.0152 1.5739 4.08172 1.6914 6.29272.108.81463-.3398.82773-.4078.25382-1.2883-5.43942-8.1499-3.96554-7.9135 1.14986.1914 4.15163 3.9296 5.04437 5.8791 3.68637.7692-.4989.7259-.20084.3059.31856-2.8956 3.56083-1.1424 8.14624 2.7673 8.23469z"/><path d="m2330.248-1038.5561c-3.9098.088-5.663 4.6739-2.7674 8.2347.42.5194.4632.8174-.3058.3185-1.9497-1.358-5.6877-.4652-5.8792 3.6864-.2364 5.1154 6.6252 6.5893 7.9135 1.1499.068-.5739.5159-.5608.4078.2538-.1175 2.211-.7803 4.2775-1.6914 6.2927h4.6479c-.9111-2.0152-1.574-4.0817-1.6915-6.2927-.1079-.8146.3398-.8277.4078-.2538 1.2883 5.4394 8.15 3.9655 7.9135-1.1499-.1914-4.1516-3.9295-5.0444-5.8791-3.6864-.7691.4989-.7258.2009-.3059-.3185 2.8957-3.5608 1.1424-8.1462-2.7672-8.2347z"/><path d="m2319.5761-1051.3169c.1561-4.4159 1.751-6.0723 4.8907-8.3828-2.5049-1.8091-3.5608-4.4759-3.3458-6.7458.5158-5.4967 4.755-8.2444 9.3808-8.1269 4.6295.1227 8.614 3.7971 8.925 7.7914.2701 3.4721-.7603 5.1482-3.2204 6.9743 2.9196 2.4684 4.7845 4.0896 4.7154 8.4389-.069 4.3493-3.7644 9.5249-10.2051 9.6828-6.4406.1579-11.3006-5.216-11.1406-9.6319zm17.9795.016c.2751-3.9982-3.255-6.6949-7.2395-6.7341-3.8795-.042-7.3495 3.2737-7.3495 6.8634 0 3.8546 4.5144 5.9496 7.4301 5.9587 3.5443.016 6.9194-2.6459 7.1589-6.088zm-1.2749-14.3023c.076-3.3638-3.0246-5.7773-6.2244-5.6807-2.8453.087-5.8545 2.2595-5.8596 5.0737 0 3.5231 3.4252 5.2826 6.3499 5.3505 2.6546.06 5.6739-2.1995 5.7341-4.7435z"/><path d="m2507.5282-814.60835c.1561 4.41593 1.7509 6.07232 4.8907 8.3828-2.5049 1.8091-3.5609 4.47584-3.3458 6.74586.5158 5.49666 4.755 8.24434 9.3807 8.12682 4.6296-.12271 8.614-3.79712 8.925-7.7914.2701-3.47216-.7603-5.14818-3.2203-6.97432 2.9196-2.46828 4.7844-4.08948 4.7153-8.43882-.069-4.34934-3.7643-9.52494-10.205-9.68283-6.4407-.15799-11.3007 5.21606-11.1406 9.63189zm17.9794-.0159c.2752 3.99817-3.2549 6.69502-7.2394 6.73419-3.8796.0419-7.3495-3.27379-7.3495-6.86337 0-3.85463 4.5144-5.94961 7.4301-5.95878 3.5442-.0159 6.9194 2.64591 7.1588 6.08796zm-1.2749 14.30241c.076 3.3637-3.0245 5.77726-6.2244 5.68067-2.8452-.0877-5.8544-2.25945-5.8595-5.07372 0-3.52309 3.4251-5.28265 6.3498-5.35053 2.6546-.0598 5.674 2.19944 5.7341 4.74358z"/></g></svg>