<svg height="88.000046mm" viewBox="0 0 238.11073 332.5986" width="63.00013mm" xmlns="http://www.w3.org/2000/svg"><g transform="matrix(1.07145 0 0 1.07009 -1912.172686 1164.653456)"><rect fill="#fff" height="310.81366" rx="10.62995" ry="10.629899" width="222.23224" x="1784.6588" y="-1088.3696"/><path d="m1947.3062-1055.3647c-9.7745.2122-14.1574 11.2172-6.9184 19.7632 1.0499 1.2466 1.1582 1.9619-.7646.7646-4.8738-3.2592-14.2192-1.1167-14.6978 8.8472-.5911 12.277 16.5629 15.8143 19.7837 2.7597.1701-1.3773 1.2896-1.3459 1.0196.6092-.2937 5.3064-1.9509 10.266-4.2287 15.1025h11.6202c-2.2776-4.8365-3.9349-9.7961-4.2286-15.1025-.2699-1.9551.8495-1.9865 1.0195-.6092 3.2209 13.0546 20.3749 9.5173 19.7838-2.7597-.4785-9.9639-9.824-12.1064-14.6979-8.8472-1.9227 1.1973-1.8144.482-.7645-.7646 7.239-8.546 2.8561-19.551-6.9183-19.7632 0-.0001 0 0-.01 0z"/><path d="m1844.2354-1055.3647c-9.7745.2122-14.1574 11.2172-6.9184 19.7632 1.0499 1.2466 1.1582 1.9619-.7646.7646-4.8738-3.2592-14.2192-1.1167-14.6977 8.8472-.5912 12.277 16.5628 15.8143 19.7836 2.7597.1701-1.3773 1.2895-1.3459 1.0196.6092-.2937 5.3064-1.9509 10.266-4.2287 15.1025h11.6202c-2.2777-4.8365-3.9349-9.7961-4.2286-15.1025-.2699-1.9551.8495-1.9865 1.0195-.6092 3.2209 13.0546 20.3749 9.5173 19.7837-2.7597-.4784-9.9639-9.8239-12.1064-14.6978-8.8472-1.9228 1.1973-1.8144.482-.7645-.7646 7.239-8.546 2.8561-19.551-6.9183-19.7632 0-.0001 0 0-.01 0z"/><path d="m1947.3062-809.7317c-9.7745-.21226-14.1574-11.21726-6.9184-19.76328 1.0499-1.24653 1.1582-1.96187-.7646-.76452-4.8738 3.25919-14.2191 1.11662-14.6978-8.84728-.591-12.27695 16.5629-15.81427 19.7837-2.75967.1701 1.37736 1.2896 1.34593 1.0196-.60916-.2937-5.30642-1.9509-10.26606-4.2287-15.10253h11.6202c-2.2776 4.83647-3.9349 9.79611-4.2286 15.10253-.2699 1.95509.8495 1.98652 1.0195.60916 3.2209-13.0546 20.3749-9.51728 19.7838 2.75967-.4785 9.9639-9.824 12.10647-14.6979 8.84728-1.9227-1.19735-1.8144-.48201-.7645.76452 7.239 8.54602 2.8561 19.55101-6.9183 19.76328 0 .00006 0-.00005-.01 0z"/><path d="m1844.2354-809.7317c-9.7745-.21226-14.1574-11.21726-6.9184-19.76328 1.0499-1.24653 1.1582-1.96187-.7646-.76452-4.8738 3.25919-14.2192 1.11662-14.6977-8.84728-.5912-12.27695 16.5628-15.81427 19.7836-2.75967.1701 1.37736 1.2895 1.34593 1.0196-.60916-.2937-5.30642-1.9509-10.26606-4.2287-15.10253h11.6202c-2.2777 4.83647-3.9349 9.79611-4.2286 15.10253-.2699 1.95509.8495 1.98652 1.0195.60916 3.2209-13.0546 20.3749-9.51728 19.7837 2.75967-.4784 9.9639-9.8239 12.10647-14.6978 8.84728-1.9228-1.19735-1.8144-.48201-.7645.76452 7.239 8.54602 2.8561 19.55101-6.9183 19.76328 0 .00006 0-.00005-.01 0z"/><path d="m1947.3062-956.47144c-9.7745.21226-14.1574 11.21726-6.9184 19.76328 1.0499 1.24653 1.1582 1.96188-.7646.76453-4.8738-3.25919-14.2192-1.11663-14.6978 8.84728-.591 12.27694 16.5629 15.81426 19.7837 2.75966.1701-1.37736 1.2895-1.34593 1.0196.60917-.2937 5.30641-1.9509 10.26605-4.2287 15.10252h11.6202c-2.2776-4.83647-3.9349-9.79611-4.2286-15.10252-.2699-1.9551.8495-1.98653 1.0195-.60917 3.2209 13.0546 20.3749 9.51728 19.7838-2.75966-.4785-9.96391-9.824-12.10647-14.6979-8.84728-1.9227 1.19735-1.8144.482-.7645-.76453 7.239-8.54602 2.8561-19.55101-6.9183-19.76328 0-.00006 0 .00005-.01 0z"/><path d="m1844.2354-956.47144c-9.7745.21226-14.1574 11.21726-6.9184 19.76328 1.0499 1.24653 1.1582 1.96188-.7646.76453-4.8738-3.25919-14.2192-1.11663-14.6977 8.84728-.5912 12.27694 16.5628 15.81426 19.7836 2.75966.1701-1.37736 1.2895-1.34593 1.0196.60917-.2937 5.30641-1.9509 10.26605-4.2287 15.10252h11.6202c-2.2777-4.83647-3.9349-9.79611-4.2286-15.10252-.2699-1.9551.8495-1.98653 1.0195-.60917 3.2209 13.0546 20.3749 9.51728 19.7837-2.75966-.4784-9.96391-9.8239-12.10647-14.6978-8.84728-1.9228 1.19735-1.8144.482-.7645-.76453 7.239-8.54602 2.8561-19.55101-6.9183-19.76328 0-.00006 0 .00005-.01 0z"/><path d="m1989.7529-827.36918c3.9097-.0884 5.663-4.67386 2.7673-8.23469-.42-.5194-.4633-.81746.3059-.31856 1.9495 1.358 5.6877.46525 5.8791-3.68637.2365-5.1154-6.6252-6.58928-7.9135-1.14986-.068.5739-.5158.56081-.4078-.25382.1175-2.211.7803-4.27752 1.6914-6.29272-1.5492 0-3.0986 0-4.6478 0 .9111 2.0152 1.5739 4.08172 1.6914 6.29272.108.81463-.3398.82772-.4078.25382-1.2883-5.43942-8.1499-3.96554-7.9135 1.14986.1914 4.15162 3.9296 5.04437 5.8791 3.68637.7692-.4989.7259-.20084.3059.31856-2.8957 3.56083-1.1424 8.14623 2.7673 8.23469.001.00002 0-.00002 0 0z"/><path d="m1801.7979-1038.5561c-3.9098.088-5.6631 4.6738-2.7674 8.2347.42.5194.4633.8174-.3059.3185-1.9495-1.358-5.6877-.4652-5.8791 3.6864-.2364 5.1154 6.6252 6.5893 7.9135 1.1499.068-.5739.5158-.5608.4078.2538-.1175 2.211-.7803 4.2775-1.6914 6.2927h4.6478c-.9111-2.0152-1.5739-4.0817-1.6914-6.2927-.108-.8146.3398-.8277.4078-.2538 1.2883 5.4394 8.15 3.9655 7.9135-1.1499-.1914-4.1516-3.9296-5.0444-5.8791-3.6864-.7692.4989-.7259.2009-.3059-.3185 2.8957-3.5609 1.1424-8.1463-2.7672-8.2347-.001 0 0 0 0 0z"/><path d="m1792.1502-1051.8017c-.4045-2.7685-.3943-9.9256-.064-12.0428 1.0201-6.4861 3.4942-9.4543 7.6386-10.4229 4.0255-.9437 9.6803.1071 10.9206 5.528l-3.365.065c-1.8201-3.6653-6.4254-2.6863-9.0198-1.0912-2.0696 1.27-3.0054 6.5735-2.6047 6.8998 0 0 3.9141-2.903 7.0001-2.6889 6.5942.6879 9.3141 6.4143 9.0837 11.8209-.2099 6.5043-2.2694 11.706-9.2591 12.0519-6.6455-.2572-9.6905-3.8846-10.3304-10.1201zm16.3896-1.7178c.036-4.5124-2.0095-7.8945-5.8838-8.2652-3.8706-.3733-7.7758 3.4095-7.5057 8.0094.2701 4.6195 2.0556 8.5054 6.7505 8.4845 5.0493-.02 6.6147-5.0163 6.639-8.2287z"/><path d="m1999.3976-814.12389c.4045 2.76861.3942 9.92565.064 12.04285-1.0201 6.48609-3.4942 9.45426-7.6386 10.42286-4.0255.94377-9.6803-.10706-10.9206-5.52796l3.365-.0648c1.8201 3.66524 6.4253 2.68628 9.0198 1.0912 2.0696-1.27002 3.0053-6.5735 2.6047-6.89986 0 0-3.9141 2.90299-7.0001 2.68897-6.5942-.68789-9.3141-6.41431-9.0837-11.82086.2099-6.50443 2.2693-11.70604 9.2591-12.05193 6.6455.25717 9.6905 3.88463 10.3304 10.12003zm-16.3896 1.71779c-.036 4.51251 2.0095 7.89456 5.8838 8.26527 3.8706.3733 7.7757-3.40946 7.5057-8.0094-.2701-4.61947-2.0556-8.5054-6.7505-8.48447-5.0494.0199-6.6147 5.0163-6.639 8.2286z"/></g></svg>