<svg height="88.000046mm" viewBox="0 0 238.11073 332.5986" width="63.00013mm" xmlns="http://www.w3.org/2000/svg"><g transform="matrix(1.07145 0 0 1.07009 -1345.96472 1164.653326)"><rect fill="#fff" height="310.81366" rx="10.62995" ry="10.629899" width="222.23224" x="1256.2086" y="-1088.3695"/><path d="m1418.856-1055.3647c-9.7745.2122-14.1574 11.2172-6.9184 19.7632 1.0499 1.2466 1.1583 1.9619-.7645.7646-4.8739-3.2592-14.2193-1.1167-14.6978 8.8473-.5912 12.2769 16.5628 15.8142 19.7837 2.7596.17-1.3773 1.2894-1.3459 1.0195.6092-.2937 5.3064-1.9508 10.266-4.2286 15.1025h11.6202c-2.2777-4.8365-3.935-9.7961-4.2287-15.1025-.2699-1.9551.8495-1.9865 1.0196-.6092 3.2208 13.0546 20.3748 9.5173 19.7837-2.7596-.4785-9.964-9.824-12.1065-14.6978-8.8473-1.9228 1.1973-1.8145.482-.7646-.7646 7.239-8.546 2.8561-19.551-6.9183-19.7632 0-.0001 0 0-.01 0z"/><path d="m1315.7852-1055.3647c-9.7745.2122-14.1574 11.2172-6.9184 19.7632 1.0499 1.2466 1.1582 1.9619-.7645.7646-4.8739-3.2592-14.2193-1.1167-14.6979 8.8473-.5911 12.2769 16.5629 15.8142 19.7838 2.7596.17-1.3773 1.2894-1.3459 1.0195.6092-.2937 5.3064-1.9509 10.266-4.2286 15.1025h11.6202c-2.2777-4.8365-3.935-9.7961-4.2287-15.1025-.2699-1.9551.8495-1.9865 1.0196-.6092 3.2208 13.0546 20.3748 9.5173 19.7837-2.7596-.4785-9.964-9.824-12.1065-14.6978-8.8473-1.9228 1.1973-1.8145.482-.7646-.7646 7.239-8.546 2.8561-19.551-6.9183-19.7632 0-.0001 0 0-.01 0z"/><path d="m1418.856-809.73169c-9.7745-.21226-14.1574-11.21727-6.9184-19.76328 1.0499-1.24653 1.1583-1.96188-.7645-.76453-4.8739 3.25919-14.2193 1.11663-14.6978-8.84728-.5912-12.27695 16.5628-15.81426 19.7837-2.75967.17 1.37736 1.2894 1.34594 1.0195-.60916-.2937-5.30641-1.9508-10.26606-4.2286-15.10253h11.6202c-2.2777 4.83647-3.935 9.79612-4.2287 15.10253-.2699 1.9551.8495 1.98652 1.0196.60916 3.2208-13.05459 20.3748-9.51728 19.7837 2.75967-.4785 9.96391-9.824 12.10647-14.6978 8.84728-1.9228-1.19735-1.8145-.482-.7646.76453 7.239 8.54601 2.8561 19.55101-6.9183 19.76328 0 .00006 0-.00005-.01 0z"/><path d="m1315.7852-809.73169c-9.7745-.21226-14.1574-11.21727-6.9184-19.76328 1.0499-1.24653 1.1582-1.96188-.7645-.76453-4.8739 3.25919-14.2193 1.11663-14.6979-8.84728-.5911-12.27695 16.5629-15.81426 19.7838-2.75967.17 1.37736 1.2894 1.34594 1.0195-.60916-.2937-5.30641-1.9509-10.26606-4.2286-15.10253h11.6202c-2.2777 4.83647-3.935 9.79612-4.2287 15.10253-.2699 1.9551.8495 1.98652 1.0196.60916 3.2208-13.05459 20.3748-9.51728 19.7837 2.75967-.4785 9.96391-9.824 12.10647-14.6978 8.84728-1.9228-1.19735-1.8145-.482-.7646.76453 7.239 8.54601 2.8561 19.55101-6.9183 19.76328 0 .00006 0-.00005-.01 0z"/><path d="m1461.3026-827.36918c3.9098-.0884 5.663-4.67386 2.7674-8.23469-.42-.51939-.4633-.81746.3058-.31856 1.9496 1.358 5.6877.46526 5.8792-3.68637.2364-5.1154-6.6252-6.58928-7.9136-1.14986-.068.57391-.5158.56081-.4077-.25382.1174-2.211.7803-4.27752 1.6914-6.29271-1.5493 0-3.0986 0-4.6479 0 .9111 2.01519 1.574 4.08171 1.6914 6.29271.108.81463-.3397.82773-.4077.25382-1.2884-5.43942-8.15-3.96554-7.9136 1.14986.1915 4.15163 3.9296 5.04437 5.8792 3.68637.7691-.4989.7258-.20083.3058.31856-2.8956 3.56083-1.1424 8.14624 2.7673 8.23469.001.00002 0-.00002 0 0z"/><path d="m1273.3477-1038.5561c-3.9098.088-5.6631 4.6738-2.7674 8.2347.42.5194.4633.8174-.3059.3185-1.9495-1.358-5.6877-.4652-5.8791 3.6864-.2364 5.1154 6.6252 6.5893 7.9135 1.1499.068-.5739.5158-.5608.4078.2538-.1175 2.211-.7803 4.2775-1.6914 6.2927h4.6478c-.9111-2.0152-1.5739-4.0817-1.6914-6.2927-.108-.8146.3398-.8277.4078-.2538 1.2883 5.4394 8.15 3.9655 7.9135-1.1499-.1914-4.1516-3.9296-5.0444-5.8791-3.6864-.7692.4989-.7259.2009-.3059-.3185 2.8957-3.5609 1.1424-8.1463-2.7673-8.2347-.001 0 0 0 0 0z"/><path d="m1273.5781-1041.6855v-2.9054h2.6187v-4.7926h-13.099v-3.3817l14.1742-21.8108 2.3154.012v21.7991h4.0101v3.3817h-4.0101l-.076 4.7927h2.195v2.9092h-8.1288zm2.6187-24.9055-8.9992 13.8271h8.9992z"/><path d="m1461.0693-824.23969v2.90538h-2.6188v4.79262h13.099v3.38165l-14.1741 21.81091-2.3155-.012v-21.79915h-4.01v-3.38165h4.01l.076-4.79262h-2.1951v-2.90926h8.1289zm-2.6188 24.90548 8.9993-13.82713h-8.9993z"/></g></svg>