<svg height="88.000046mm" viewBox="0 0 238.11075 332.5986" width="63.000134mm" xmlns="http://www.w3.org/2000/svg"><g transform="matrix(1.07145 0 0 1.07009 -496.6529 1164.653326)"><rect fill="#fff" height="310.81366" rx="10.629951" ry="10.629898" width="222.23225" x="463.53342" y="-1088.3695"/><path d="m574.6454-956.47145c-9.77448.21226-14.15742 11.21727-6.91838 19.76329 1.04991 1.24653 1.15822 1.96187-.76457.76452-4.87385-3.25919-14.21926-1.11662-14.69781 8.84728-.59115 12.27695 16.56285 15.81427 19.78371 2.75967.17004-1.37736 1.28941-1.34593 1.01952.60916-.29367 5.30641-1.95083 10.26606-4.22862 15.10253h11.62019c-2.27768-4.83647-3.93495-9.79612-4.22863-15.10253-.26989-1.95509.84949-1.98652 1.01953-.60916 3.22086 13.0546 20.37486 9.51728 19.78371-2.75967-.47845-9.9639-9.82396-12.10647-14.69781-8.84728-1.92278 1.19735-1.81447.48201-.76457-.76452 7.23905-8.54602 2.8561-19.55102-6.91829-19.76329 0-.00006 0 .00005-.01 0z"/><path d="m668.62737-827.36918c3.90978-.0884 5.66302-4.67387 2.7674-8.2347-.42002-.51939-.46333-.81746.30583-.31856 1.94956 1.358 5.6877.46526 5.87914-3.68637.23644-5.11539-6.6252-6.58927-7.91353-1.14986-.0677.57391-.51578.56081-.40777-.25381.11748-2.21101.78031-4.27753 1.69142-6.29272-1.54925 0-3.09861 0-4.64787 0 .91112 2.01519 1.57395 4.08171 1.69142 6.29272.10802.81462-.33977.82772-.40777.25381-1.28832-5.43941-8.14997-3.96553-7.91353 1.14986.19144 4.15163 3.92959 5.04437 5.87915 3.68637.76915-.4989.72585-.20083.30583.31856-2.89562 3.56083-1.14238 8.14624 2.76729 8.2347.001.00002 0-.00002 0 0z"/><path d="m470.62543-1041.6816v-2.8127h2.68028l5.70981-30.0817h3.24983l6.2897 30.0817h2.1644v2.8127h-7.37513v-2.8127h1.99038l-.79484-4.6099h-7.44035l-.57473 4.6099h1.99028v2.8127zm13.27957-10.7064-3.2345-16.1007-3.02962 16.1007z"/><path d="m658.57747-824.24369v2.81266h2.68028l5.70981 30.08178h3.24983l6.28971-30.08178h2.1644v-2.81266h-7.37514v2.81266h1.99038l-.79484 4.60989h-7.44035l-.57472-4.60989h1.99027v-2.81266zm13.27958 10.70638-3.23451 16.10071-3.02962-16.10071z"/><path d="m480.67243-1038.5561c-3.90977.088-5.66301 4.6738-2.76739 8.2347.42001.5194.46332.8174-.30583.3185-1.94956-1.358-5.6877-.4652-5.87914 3.6864-.23644 5.1154 6.62519 6.5893 7.91352 1.1499.0677-.5739.51579-.5608.40777.2538-.11747 2.211-.7803 4.2775-1.69142 6.2927h4.64787c-.91112-2.0152-1.57395-4.0817-1.69142-6.2927-.10801-.8146.33978-.8277.40777-.2538 1.28833 5.4394 8.14997 3.9655 7.91353-1.1499-.19144-4.1516-3.92958-5.0444-5.87915-3.6864-.76915.4989-.72584.2009-.30582-.3185 2.89562-3.5609 1.14238-8.1463-2.7673-8.2347-.001 0 0 0 0 0z"/></g></svg>