<svg height="88.000046mm" viewBox="0 0 238.11073 332.5986" width="63.00013mm" xmlns="http://www.w3.org/2000/svg"><g transform="matrix(1.07145 0 0 1.07009 -2761.4845 1164.653456)"><rect fill="#fff" height="310.81366" rx="10.62995" ry="10.629899" width="222.23224" x="2577.334" y="-1088.3696"/><path d="m2739.9814-1055.3647c-9.7745.2122-14.1575 11.2172-6.9184 19.7632 1.0499 1.2466 1.1582 1.9619-.7646.7646-4.8738-3.2592-14.2192-1.1167-14.6978 8.8472-.5911 12.277 16.5629 15.8143 19.7837 2.7597.1701-1.3773 1.2896-1.3459 1.0196.6092-.2937 5.3064-1.9509 10.266-4.2287 15.1025h11.6202c-2.2777-4.8365-3.9349-9.7961-4.2286-15.1025-.2699-1.9551.8495-1.9865 1.0195-.6092 3.2209 13.0546 20.3749 9.5173 19.7837-2.7597-.4784-9.9639-9.8239-12.1064-14.6978-8.8472-1.9228 1.1973-1.8144.482-.7646-.7646 7.2391-8.546 2.8561-19.551-6.9182-19.7632 0-.0001 0 0-.01 0z"/><path d="m2636.9106-1055.3647c-9.7745.2122-14.1575 11.2172-6.9184 19.7632 1.0499 1.2466 1.1582 1.9619-.7646.7646-4.8738-3.2592-14.2191-1.1167-14.6978 8.8472-.5911 12.277 16.5629 15.8143 19.7837 2.7597.1701-1.3773 1.2894-1.3459 1.0196.6092-.2937 5.3064-1.9509 10.266-4.2287 15.1025h11.6202c-2.2777-4.8365-3.9349-9.7961-4.2286-15.1025-.2699-1.9551.8495-1.9865 1.0195-.6092 3.2209 13.0546 20.3749 9.5173 19.7837-2.7597-.4784-9.9639-9.8239-12.1064-14.6978-8.8472-1.9228 1.1973-1.8145.482-.7646-.7646 7.2391-8.546 2.8561-19.551-6.9183-19.7632 0-.0001 0 0-.01 0z"/><path d="m2739.9814-809.7317c-9.7745-.21226-14.1575-11.21726-6.9184-19.76328 1.0499-1.24653 1.1582-1.96187-.7646-.76452-4.8738 3.25919-14.2192 1.11662-14.6978-8.84728-.591-12.27695 16.5629-15.81427 19.7837-2.75967.1701 1.37736 1.2896 1.34593 1.0196-.60916-.2937-5.30642-1.9509-10.26606-4.2287-15.10253h11.6202c-2.2777 4.83647-3.9349 9.79611-4.2286 15.10253-.2699 1.95509.8495 1.98652 1.0195.60916 3.2209-13.0546 20.3749-9.51728 19.7837 2.75967-.4784 9.9639-9.8239 12.10647-14.6978 8.84728-1.9228-1.19735-1.8144-.48201-.7646.76452 7.2391 8.54602 2.8561 19.55101-6.9182 19.76328 0 .00006 0-.00005-.01 0z"/><path d="m2636.9106-809.7317c-9.7745-.21226-14.1575-11.21726-6.9184-19.76328 1.0499-1.24653 1.1582-1.96187-.7646-.76452-4.8738 3.25919-14.2191 1.11662-14.6978-8.84728-.5911-12.27695 16.5629-15.81427 19.7837-2.75967.1701 1.37736 1.2894 1.34593 1.0196-.60916-.2937-5.30642-1.9509-10.26606-4.2287-15.10253h11.6202c-2.2777 4.83647-3.9349 9.79611-4.2286 15.10253-.2699 1.95509.8495 1.98652 1.0195.60916 3.2209-13.0546 20.3749-9.51728 19.7837 2.75967-.4784 9.9639-9.8239 12.10647-14.6978 8.84728-1.9228-1.19735-1.8145-.48201-.7646.76452 7.2391 8.54602 2.8561 19.55101-6.9183 19.76328 0 .00006 0-.00005-.01 0z"/><path d="m2688.446-956.47144c-9.7745.21226-14.1574 11.21726-6.9184 19.76328 1.05 1.24653 1.1583 1.96188-.7646.76453-4.8737-3.25919-14.2192-1.11663-14.6977 8.84728-.5911 12.27694 16.5628 15.81426 19.7836 2.75966.1701-1.37736 1.2894-1.34593 1.0196.60917-.2937 5.30641-1.9508 10.26605-4.2286 15.10252h11.6201c-2.2777-4.83647-3.9349-9.79611-4.2286-15.10252-.2699-1.9551.8495-1.98653 1.0195-.60917 3.2209 13.0546 20.3749 9.51728 19.7837-2.75966-.4784-9.96391-9.8239-12.10647-14.6978-8.84728-1.9228 1.19735-1.8145.482-.7646-.76453 7.2391-8.54602 2.8561-19.55101-6.9182-19.76328 0-.00006 0 .00005-.01 0z"/><path d="m2782.428-827.36918c3.9097-.0884 5.6631-4.67386 2.7674-8.23469-.42-.5194-.4633-.81746.3059-.31856 1.9495 1.358 5.6877.46525 5.8791-3.68637.2364-5.1154-6.6253-6.58928-7.9135-1.14986-.068.5739-.5158.56081-.4079-.25382.1176-2.211.7804-4.27752 1.6914-6.29272-1.5492 0-3.0985 0-4.6477 0 .9111 2.0152 1.5739 4.08172 1.6914 6.29272.108.81463-.3398.82772-.4079.25382-1.2882-5.43942-8.1499-3.96554-7.9134 1.14986.1914 4.15162 3.9295 5.04437 5.8791 3.68637.7692-.4989.7259-.20084.3059.31856-2.8957 3.56083-1.1424 8.14623 2.7672 8.23469z"/><path d="m2636.9106-989.43588c-9.7744.21226-14.1574 11.21726-6.9184 19.76328 1.0499 1.24653 1.1583 1.96188-.7645.76453-4.8738-3.25919-14.2192-1.11663-14.6978 8.84728-.5912 12.27694 16.5629 15.81426 19.7837 2.75966.1701-1.37736 1.2893-1.34593 1.0196.60917-.2937 5.30641-1.9509 10.26605-4.2287 15.10252h11.6201c-2.2777-4.83647-3.9349-9.79611-4.2286-15.10252-.2699-1.9551.8495-1.98653 1.0195-.60917 3.2209 13.0546 20.3749 9.51728 19.7837-2.75966-.4784-9.96391-9.8239-12.10647-14.6978-8.84728-1.9228 1.19735-1.8145.482-.7646-.76453 7.2391-8.54602 2.8561-19.55101-6.9183-19.76328 0-.00006 0 .00005-.01 0z"/><path d="m2636.9106-875.66057c-9.7745-.21225-14.1575-11.21727-6.9184-19.76329 1.0499-1.24653 1.1582-1.96187-.7646-.76452-4.8738 3.25919-14.2191 1.11662-14.6978-8.84728-.5911-12.27695 16.5629-15.81427 19.7837-2.75967.1701 1.37736 1.2894 1.34593 1.0196-.60916-.2937-5.30642-1.9509-10.26606-4.2287-15.10253h11.6202c-2.2777 4.83647-3.9349 9.79611-4.2286 15.10253-.2699 1.95509.8495 1.98652 1.0195.60916 3.2209-13.0546 20.3749-9.51728 19.7837 2.75967-.4784 9.9639-9.8239 12.10647-14.6978 8.84728-1.9228-1.19735-1.8145-.48201-.7646.76452 7.2391 8.54602 2.8561 19.55103-6.9183 19.76329 0 .00006 0-.00005-.01 0z"/><path d="m2739.9814-989.43588c-9.7745.21226-14.1575 11.21726-6.9184 19.76328 1.0499 1.24653 1.1582 1.96188-.7646.76453-4.8738-3.25919-14.2192-1.11663-14.6978 8.84728-.591 12.27694 16.5629 15.81426 19.7837 2.75966.1701-1.37736 1.2895-1.34593 1.0196.60917-.2937 5.30641-1.9509 10.26605-4.2287 15.10252h11.6202c-2.2777-4.83647-3.9349-9.79611-4.2286-15.10252-.2699-1.9551.8495-1.98653 1.0195-.60917 3.2209 13.0546 20.3749 9.51728 19.7837-2.75966-.4784-9.96391-9.8239-12.10647-14.6978-8.84728-1.9228 1.19735-1.8144.482-.7646-.76453 7.2391-8.54602 2.8561-19.55101-6.9182-19.76328 0-.00006 0 .00005-.01 0z"/><path d="m2739.9814-875.66057c-9.7745-.21225-14.1575-11.21727-6.9184-19.76329 1.0499-1.24653 1.1582-1.96187-.7646-.76452-4.8738 3.25919-14.2192 1.11662-14.6978-8.84728-.591-12.27695 16.5629-15.81427 19.7837-2.75967.1701 1.37736 1.2895 1.34593 1.0196-.60916-.2937-5.30642-1.9509-10.26606-4.2287-15.10253h11.6202c-2.2777 4.83647-3.9349 9.79611-4.2286 15.10253-.2699 1.95509.8495 1.98652 1.0195.60916 3.2209-13.0546 20.3749-9.51728 19.7837 2.75967-.4784 9.9639-9.8239 12.10647-14.6978 8.84728-1.9228-1.19735-1.8144-.48201-.7646.76452 7.2391 8.54602 2.8561 19.55103-6.9182 19.76329 0 .00006 0-.00005-.01 0z"/><path d="m2594.4731-1038.5561c-3.9098.088-5.663 4.6738-2.7674 8.2347.42.5194.4632.8174-.3058.3185-1.9497-1.358-5.6877-.4652-5.8792 3.6864-.2364 5.1154 6.6252 6.5893 7.9135 1.1499.068-.5739.5158-.5608.4078.2538-.1175 2.211-.7803 4.2775-1.6914 6.2927h4.6479c-.9111-2.0152-1.574-4.0817-1.6915-6.2927-.108-.8146.3397-.8277.4078-.2538 1.2883 5.4394 8.15 3.9655 7.9135-1.1499-.1914-4.1516-3.9295-5.0444-5.8791-3.6864-.7691.4989-.7258.2009-.3059-.3185 2.8957-3.5609 1.1424-8.1463-2.7672-8.2347z"/><path d="m2585.2959-1048.0227 3.0054-.9541c1.1353 3.0333 3.4251 3.9313 5.8493 3.7368 4.3493-.3472 5.7944-5.2156 6.1195-9.5189-1.6947 1.7999-4.2405 2.7135-6.41 2.6209-6.9348-.372-8.71-5.9296-8.774-11.747-.1895-4.905 1.8354-8.4578 5.3092-10.0893 1.8405-.8262 6.0541-.8262 7.9049.1527 4.2494 2.245 5.825 6.1228 5.5396 15.382 0 7.6172-1.6153 16.4887-9.7698 16.6819-4.7089.6526-8.289-3.0176-8.7741-6.265zm11.805-8.3469c1.4144-.8966 2.2105-1.7385 2.8454-2.998.5196-1.0351.7-1.5754.5503-3.716-.3853-5.5223-3.2753-8.6575-7.4697-8.0362-2.3398.3524-3.6197 1.6629-4.3544 4.0997-1.3555 4.5069.3648 9.7787 3.5851 10.9925 1.4489.5508 3.6888.3929 4.8433-.342z"/><path d="m2791.6022-817.90261-3.0053.95414c-1.1353-3.03327-3.4252-3.93128-5.8494-3.73681-4.3493.34719-5.7943 5.21567-6.1195 9.51896 1.6947-1.79993 4.2405-2.7136 6.41-2.62089 6.9348.372 8.7101 5.92957 8.7741 11.7469.1894 4.90496-1.8355 8.45776-5.3092 10.08933-1.8406.82615-6.0542.82615-7.905-.15271-4.2495-2.245-5.825-6.12276-5.5396-15.38194 0-7.61726 1.6153-16.48879 9.7698-16.68197 4.7089-.65261 8.289 3.01761 8.7741 6.26499zm-11.805 8.34692c-1.4143.89662-2.2105 1.73852-2.8453 2.99808-.5197 1.03498-.7002 1.57534-.5504 3.71587.3853 5.52238 3.2754 8.65752 7.4698 8.03622 2.3398-.35237 3.6196-1.66287 4.3543-4.09965 1.3556-4.50694-.3647-9.77872-3.5851-10.99252-1.4489-.55084-3.6888-.39284-4.8433.342z"/></g></svg>