<svg height="88.000046mm" viewBox="0 0 238.11073 332.5986" width="63.00013mm" xmlns="http://www.w3.org/2000/svg"><g transform="matrix(1.07145 0 0 1.07009 -3044.5885 1164.653326)"><rect fill="#fff" height="310.81366" rx="10.62995" ry="10.629899" width="222.23224" x="2841.5591" y="-1088.3695"/><path d="m3004.2066-1055.3648c-9.7745.2123-14.1574 11.2173-6.9184 19.7633 1.0499 1.2466 1.1582 1.9619-.7646.7646-4.8738-3.2592-14.2192-1.1167-14.6978 8.8472-.5911 12.277 16.5629 15.8143 19.7837 2.7597.1701-1.3774 1.2895-1.3459 1.0196.6092-.2937 5.3064-1.9509 10.266-4.2287 15.1025h11.6202c-2.2777-4.8365-3.9349-9.7961-4.2286-15.1025-.2699-1.9551.8495-1.9866 1.0195-.6092 3.2209 13.0546 20.3749 9.5173 19.7837-2.7597-.4784-9.9639-9.8239-12.1064-14.6978-8.8472-1.9228 1.1973-1.8144.482-.7645-.7646 7.239-8.546 2.8561-19.551-6.9183-19.7633 0 0 0 .0001-.01 0z"/><path d="m2901.1358-1055.3648c-9.7745.2123-14.1575 11.2173-6.9184 19.7633 1.0499 1.2466 1.1582 1.9619-.7646.7646-4.8738-3.2592-14.2192-1.1167-14.6978 8.8472-.5911 12.277 16.5629 15.8143 19.7837 2.7597.1701-1.3774 1.2894-1.3459 1.0196.6092-.2937 5.3064-1.9509 10.266-4.2287 15.1025h11.6202c-2.2777-4.8365-3.9349-9.7961-4.2286-15.1025-.2699-1.9551.8495-1.9866 1.0195-.6092 3.2209 13.0546 20.3749 9.5173 19.7837-2.7597-.4784-9.9639-9.8239-12.1064-14.6978-8.8472-1.9228 1.1973-1.8145.482-.7646-.7646 7.2391-8.546 2.8561-19.551-6.9182-19.7633 0 0 0 .0001-.01 0z"/><path d="m3004.2066-809.7317c-9.7745-.21226-14.1574-11.21727-6.9184-19.76328 1.0499-1.24653 1.1582-1.96188-.7646-.76453-4.8738 3.25919-14.2192 1.11663-14.6978-8.84728-.5911-12.27695 16.5629-15.81426 19.7837-2.75967.1701 1.37736 1.2895 1.34594 1.0196-.60916-.2937-5.30641-1.9509-10.26606-4.2287-15.10253h11.6202c-2.2777 4.83647-3.9349 9.79612-4.2286 15.10253-.2699 1.9551.8495 1.98652 1.0195.60916 3.2209-13.05459 20.3749-9.51728 19.7837 2.75967-.4784 9.96391-9.8239 12.10647-14.6978 8.84728-1.9228-1.19735-1.8144-.482-.7645.76453 7.239 8.54601 2.8561 19.55101-6.9183 19.76328 0 .00006 0-.00005-.01 0z"/><path d="m2901.1358-809.7317c-9.7745-.21226-14.1575-11.21727-6.9184-19.76328 1.0499-1.24653 1.1582-1.96188-.7646-.76453-4.8738 3.25919-14.2192 1.11663-14.6978-8.84728-.5911-12.27695 16.5629-15.81426 19.7837-2.75967.1701 1.37736 1.2894 1.34594 1.0196-.60916-.2937-5.30641-1.9509-10.26606-4.2287-15.10253h11.6202c-2.2777 4.83647-3.9349 9.79612-4.2286 15.10253-.2699 1.9551.8495 1.98652 1.0195.60916 3.2209-13.05459 20.3749-9.51728 19.7837 2.75967-.4784 9.96391-9.8239 12.10647-14.6978 8.84728-1.9228-1.19735-1.8145-.482-.7646.76453 7.2391 8.54601 2.8561 19.55101-6.9182 19.76328 0 .00006 0-.00005-.01 0z"/><path d="m2952.6711-1022.4001c-9.7745.2123-14.1573 11.2173-6.9184 19.7633 1.0499 1.2465 1.1582 1.9619-.7645.7645-4.8739-3.2592-14.2193-1.1166-14.6979 8.84731-.5911 12.27694 16.5629 15.81426 19.7838 2.75966.17-1.37736 1.2894-1.34593 1.0195.60917-.2937 5.30641-1.9509 10.26605-4.2286 15.10252h11.6202c-2.2777-4.83647-3.935-9.79611-4.2287-15.10252-.2699-1.9551.8495-1.98653 1.0195-.60917 3.2209 13.0546 20.3749 9.51728 19.7838-2.75966-.4785-9.96391-9.824-12.10651-14.6978-8.84731-1.9228 1.1974-1.8145.482-.7646-.7645 7.239-8.546 2.8561-19.551-6.9183-19.7633 0 0 0 .0001-.01 0z"/><path d="m2952.6712-842.69613c-9.7745-.21226-14.1575-11.21726-6.9184-19.76327 1.0499-1.24653 1.1582-1.96188-.7646-.76453-4.8738 3.25919-14.2192 1.11663-14.6978-8.84728-.5911-12.27695 16.5629-15.81427 19.7837-2.75967.1701 1.37736 1.2895 1.34594 1.0196-.60916-.2937-5.30642-1.9509-10.26607-4.2287-15.10254h11.6202c-2.2777 4.83647-3.9349 9.79612-4.2286 15.10254-.2699 1.9551.8495 1.98652 1.0195.60916 3.2209-13.0546 20.3749-9.51728 19.7837 2.75967-.4784 9.96391-9.8239 12.10647-14.6978 8.84728-1.9228-1.19735-1.8144-.482-.7646.76453 7.2391 8.54601 2.8562 19.551-6.9182 19.76327 0 .00006 0-.00005-.01 0z"/><path d="m3046.6532-827.36919c3.9097-.0884 5.663-4.67386 2.7673-8.23469-.42-.51939-.4633-.81746.3059-.31856 1.9495 1.358 5.6877.46526 5.8791-3.68637.2365-5.1154-6.6252-6.58928-7.9135-1.14986-.068.57391-.5158.56081-.4078-.25382.1175-2.211.7803-4.27752 1.6914-6.29271-1.5492 0-3.0986 0-4.6478 0 .9111 2.01519 1.5739 4.08171 1.6914 6.29271.108.81463-.3398.82773-.4078.25382-1.2883-5.43942-8.1499-3.96554-7.9135 1.14986.1914 4.15163 3.9296 5.04437 5.8791 3.68637.7692-.4989.7259-.20083.3059.31856-2.8957 3.56083-1.1424 8.14624 2.7673 8.23469.001.00002 0-.00002 0 0z"/><path d="m2901.1358-989.43589c-9.7745.21226-14.1574 11.21727-6.9184 19.76328 1.0499 1.24653 1.1582 1.96188-.7646.76453-4.8738-3.25919-14.2192-1.11663-14.6978 8.84728-.5911 12.27695 16.5629 15.81426 19.7837 2.75967.1701-1.37736 1.2894-1.34594 1.0196.60916-.2937 5.30641-1.9509 10.26606-4.2287 15.10253h11.6202c-2.2777-4.83647-3.9349-9.79612-4.2286-15.10253-.2699-1.9551.8495-1.98652 1.0195-.60916 3.2209 13.05459 20.3749 9.51728 19.7837-2.75967-.4784-9.96391-9.8239-12.10647-14.6978-8.84728-1.9228 1.19735-1.8145.482-.7646-.76453 7.2391-8.54601 2.8561-19.55101-6.9182-19.76328 0-.00006 0 .00005-.01 0z"/><path d="m2901.1358-875.66057c-9.7745-.21226-14.1575-11.21728-6.9184-19.76329 1.0499-1.24653 1.1582-1.96188-.7646-.76453-4.8738 3.25919-14.2192 1.11663-14.6978-8.84728-.5911-12.27694 16.5629-15.81426 19.7837-2.75966.1701 1.37736 1.2894 1.34593 1.0196-.60917-.2937-5.30641-1.9509-10.26606-4.2287-15.10253h11.6202c-2.2777 4.83647-3.9349 9.79612-4.2286 15.10253-.2699 1.9551.8495 1.98653 1.0195.60917 3.2209-13.0546 20.3749-9.51728 19.7837 2.75966-.4784 9.96391-9.8239 12.10647-14.6978 8.84728-1.9228-1.19735-1.8145-.482-.7646.76453 7.2391 8.54601 2.8561 19.55102-6.9182 19.76329 0 .00006 0-.00005-.01 0z"/><path d="m3004.2066-989.43589c-9.7745.21226-14.1574 11.21727-6.9184 19.76328 1.0499 1.24653 1.1582 1.96188-.7646.76453-4.8738-3.25919-14.2192-1.11663-14.6978 8.84728-.5911 12.27695 16.5629 15.81426 19.7837 2.75967.1701-1.37736 1.2895-1.34594 1.0196.60916-.2937 5.30641-1.9509 10.26606-4.2287 15.10253h11.6202c-2.2777-4.83647-3.9349-9.79612-4.2286-15.10253-.2699-1.9551.8495-1.98652 1.0195-.60916 3.2209 13.05459 20.3749 9.51728 19.7837-2.75967-.4784-9.96391-9.8239-12.10647-14.6978-8.84728-1.9228 1.19735-1.8144.482-.7645-.76453 7.239-8.54601 2.8561-19.55101-6.9183-19.76328 0-.00006 0 .00005-.01 0z"/><path d="m3004.2066-875.66057c-9.7745-.21226-14.1574-11.21728-6.9184-19.76329 1.0499-1.24653 1.1582-1.96188-.7646-.76453-4.8738 3.25919-14.2192 1.11663-14.6978-8.84728-.5911-12.27694 16.5629-15.81426 19.7837-2.75966.1701 1.37736 1.2895 1.34593 1.0196-.60917-.2937-5.30641-1.9509-10.26606-4.2287-15.10253h11.6202c-2.2777 4.83647-3.9349 9.79612-4.2286 15.10253-.2699 1.9551.8495 1.98653 1.0195.60917 3.2209-13.0546 20.3749-9.51728 19.7837 2.75966-.4784 9.96391-9.8239 12.10647-14.6978 8.84728-1.9228-1.19735-1.8144-.482-.7645.76453 7.239 8.54601 2.8561 19.55102-6.9183 19.76329 0 .00006 0-.00005-.01 0z"/><path d="m2858.6982-1038.5561c-3.9098.088-5.663 4.6738-2.7674 8.2347.42.5194.4633.8174-.3058.3185-1.9496-1.358-5.6877-.4652-5.8791 3.6864-.2365 5.1154 6.6251 6.5893 7.9135 1.1499.068-.5739.5158-.5608.4077.2538-.1174 2.211-.7803 4.2775-1.6914 6.2927h4.6479c-.9111-2.0152-1.574-4.0817-1.6914-6.2927-.108-.8146.3397-.8277.4077-.2538 1.2884 5.4394 8.15 3.9655 7.9136-1.1499-.1915-4.1516-3.9296-5.0444-5.8792-3.6864-.7691.4989-.7258.2009-.3058-.3185 2.8956-3.5609 1.1424-8.1463-2.7673-8.2347-.001 0 0 0 0 0z"/><path d="m2848.7242-1041.6816v-32.8938h3.1846v32.8938z"/><path d="m2861.3484-1074.576c-3.0656 0-5.5295 2.8036-5.5295 6.2859v20.3233c0 3.4823 2.4652 6.2846 5.5295 6.2846h1.7893c3.0655 0 5.5345-2.8023 5.5345-6.2846v-20.3233c0-3.4823-2.4703-6.2859-5.5345-6.2859zm.9253 3.1103c1.8099 0 3.2652 1.39 3.2652 3.1286v20.5922c0 1.7385-1.4553 3.1416-3.2652 3.1416-1.8098 0-3.2702-1.4031-3.2702-3.1416v-20.5922c0-1.7373 1.4604-3.1286 3.2702-3.1286z"/><path d="m3056.6243-824.24369v32.8938h-3.1845v-32.8938z"/><path d="m3044.0002-791.34925c3.0655 0 5.5294-2.80358 5.5294-6.28587v-20.32334c0-3.4823-2.4652-6.28458-5.5294-6.28458h-1.7894c-3.0655 0-5.5345 2.80228-5.5345 6.28458v20.32334c0 3.48229 2.4703 6.28587 5.5345 6.28587zm-.9254-3.1103c-1.8099 0-3.2652-1.39004-3.2652-3.12859v-20.59222c0-1.73854 1.4553-3.14163 3.2652-3.14163 1.8098 0 3.2703 1.40309 3.2703 3.14163v20.59222c0 1.73724-1.4605 3.12859-3.2703 3.12859z"/></g></svg>