<svg height="88.000275mm" viewBox="0 0 238.11099 332.59947" width="63.000198mm" xmlns="http://www.w3.org/2000/svg"><rect fill="#fff" height="332.5994820368" rx="11.38947239199" ry="11.3749795467" width="238.1109840945" x="-.000040547" y=".00000971691"/><g fill="#c8102e" stroke-width="1.06667"><path d="m18.365243511 74.63841362786c-2.304967203-3.80651536199-4.730041448-7.50626132366-7.760450918-10.66669679999 3.03040947-3.16033094267 5.455483715-6.860074771 7.760450918-10.6667 2.304967203 3.806625229 4.729934781 7.50636905733 7.760450918 10.6667-3.030516137 3.16043547633-5.455483715 6.860181438-7.760450918 10.66669679999z"/><path d="m174.273250722 86.0748248332c-5.531963954-9.135815216-11.352035475-18.015096297-18.62512487-25.60008 7.273089395-7.584877036 13.093160916-16.464158117 18.62512487-25.60008 5.531963954 9.135921883 11.351928808 18.015202964 18.625018203 25.60008-7.273089395 7.584983703-13.093054249 16.464264784-18.625018203 25.60008z"/><path d="m219.746672826 279.29467131c-2.304967203-3.806518562-4.730041448-7.506263457-7.760450918-10.6667 3.03040947-3.160329876 5.455483715-6.860074771 7.760450918-10.6667 2.304967203 3.806625229 4.729934781 7.506370124 7.760450918 10.6667-3.030516137 3.160436543-5.455483715 6.860181438-7.760450918 10.6667z"/><path d="m63.837918946 86.0748248332c-5.531963954-9.135815216-11.352035475-18.015096297-18.62512487-25.60008 7.273089395-7.584877036 13.093160916-16.464158117 18.62512487-25.60008 5.531963954 9.135921883 11.351928808 18.015202964 18.625018203 25.60008-7.273089395 7.584983703-13.093054249 16.464264784-18.625018203 25.60008z"/><path d="m174.273250722 156.6323679915c-5.531963954-9.135815216-11.352035475-18.015096297-18.62512487-25.60008 7.273089395-7.584877036 13.093160916-16.464158117 18.62512487-25.60008213334 5.531963954 9.13592401634 11.351928808 18.01520509734 18.625018203 25.60008213334-7.273089395 7.584983703-13.093054249 16.464264784-18.625018203 25.60008z"/><path d="m63.837918946 156.6323679915c-5.531963954-9.135815216-11.352035475-18.015096297-18.62512487-25.60008 7.273089395-7.584877036 13.093160916-16.464158117 18.62512487-25.60007786666 5.531963954 9.13591974966 11.351928808 18.01520083066 18.625018203 25.60007786666-7.273089395 7.584983703-13.093054249 16.464264784-18.625018203 25.60008z"/><path d="m119.055584834 191.8998488687c-5.531963954-9.135815216-11.352035475-18.015096297-18.62512487-25.60008 7.273089395-7.584877036 13.093160916-16.464158117 18.62512487-25.60008 5.531963954 9.135921883 11.351928808 18.015202964 18.625018203 25.60008-7.273089395 7.584983703-13.093054249 16.464264784-18.625018203 25.60008z"/><path d="m63.837918946 297.7302915878c-5.531963954-9.135815216-11.352035475-18.015096297-18.62512487-25.60008 7.273089395-7.584877036 13.093160916-16.464158117 18.62512487-25.60008 5.531963954 9.135921883 11.351928808 18.015202964 18.625018203 25.60008-7.273089395 7.584983703-13.093054249 16.464264784-18.625018203 25.60008z"/><path d="m174.273250722 297.7376942776c-5.531963954-9.135815216-11.352035475-18.015096297-18.62512487-25.60008 7.273089395-7.584877036 13.093160916-16.464158117 18.62512487-25.60008 5.531963954 9.135921883 11.351928808 18.015202964 18.625018203 25.60008-7.273089395 7.584983703-13.093054249 16.464264784-18.625018203 25.60008z"/><path d="m174.273250722 227.1733990982c-5.531963954-9.135815216-11.352035475-18.015096297-18.62512487-25.60008 7.273089395-7.584877036 13.093160916-16.464158117 18.62512487-25.60008 5.531963954 9.135921883 11.351928808 18.015202964 18.625018203 25.60008-7.273089395 7.584983703-13.093054249 16.464264784-18.625018203 25.60008z"/><path d="m63.837918946 227.1390843243c-5.531963954-9.135815216-11.352035475-18.015096297-18.62512487-25.60008 7.273089395-7.584877036 13.093160916-16.464158117 18.62512487-25.60008 5.531963954 9.135921883 11.351928808 18.015202964 18.625018203 25.60008-7.273089395 7.584983703-13.093054249 16.464264784-18.625018203 25.60008z"/><path d="m8.530759445 43.174786771 3.220063396-1.020909857c1.216430468 3.24587681 3.669878135 4.206839813 6.267326252 3.998732496 4.660067896-.371521161 6.208339401-5.581244108 6.556713823-10.186165165-1.815792341 1.926086019-4.543480865 2.903795741-6.867968129 2.804595431-7.430316553-.398081244-9.332402497-6.345193162-9.400989378-12.570279282-.202987301-5.248763069 1.966619479-9.050588283 5.68855111-10.796513739 1.972059496-.884056096 6.486740271-.884056096 8.469786468.163413844 4.553080895 2.402354174 6.241299504 6.551913808 5.935485215 16.460104771 0 8.151172139-1.730778742 17.644535139-10.467979379 17.851255785-5.0453491.698348849-8.881201087-3.229130091-9.400989378-6.704234284zm12.648466193-8.931867912c1.515418069-.959469665 2.368434068-1.860379147 3.048649527-3.208223359.55680174-1.107523461.750189011-1.685765268.589655176-3.976332426-.41280129-5.909458467-3.5093443-9.264348951-8.003438344-8.59949354-2.506994501.377067845-3.878305453 1.779418894-4.665507913 4.387000376-1.452377872 4.822841738.390827888 10.4640327 3.841292004 11.763023426 1.552431518.589335175 3.952332351.420374647 5.18934955-.365974477z"/><path d="m229.577956882 289.424729633-3.220063396 1.021016524c-1.216430468-3.24587681-3.669878135-4.206839813-6.267326252-3.998732496-4.660067896.371521161-6.208339401 5.581244108-6.556713823 10.186165165 1.815792341-1.926086019 4.543480865-2.903795741 6.867968129-2.804595431 7.430316553.398081244 9.332402497 6.345193162 9.400989378 12.570279282.202987301 5.248763069-1.966619479 9.050588283-5.68855111 10.796513739-1.972059496.884056096-6.486740271.884056096-8.469786468-.163413844-4.552974228-2.402354174-6.241192837-6.551913808-5.935378548-16.460104771 0-8.151172139 1.730672075-17.644535139 10.467872712-17.851255785 5.0453491-.698348849 8.881201087 3.229130091 9.400989378 6.704127617zm-12.648466193 8.931974579c-1.515418069.959469665-2.368434068 1.860379147-3.048649527 3.208223359-.55680174 1.107523461-.750082344 1.685765268-.589655176 3.976332426.41280129 5.909458467 3.5093443 9.264348951 8.003438344 8.59949354 2.506994501-.377067845 3.878305453-1.779418894 4.665507913-4.387000376 1.452377872-4.822841738-.390827888-10.464139367-3.841292004-11.763023426-1.552431518-.589441842-3.952332351-.420374647-5.18934955.365974477z"/></g></svg>