<svg height="88.000275mm" viewBox="0 0 238.11099 332.59947" width="63.000198mm" xmlns="http://www.w3.org/2000/svg"><rect fill="#fff" height="332.5994820368" rx="11.38947239199" ry="11.3749795467" width="238.1109840945" x=".000009786" y=".00000971691"/><g fill="#c8102e" stroke-width="1.06667"><path d="m18.36508051 74.63841362786c-2.304967203-3.80651536199-4.730041448-7.50626132366-7.760450918-10.66669679999 3.03040947-3.16033094267 5.455483715-6.860074771 7.760450918-10.6667 2.304967203 3.806625229 4.729934781 7.50636905733 7.760450918 10.6667-3.030516137 3.16043547633-5.455483715 6.860181438-7.760450918 10.66669679999z"/><path d="m174.273087721 86.0748248332c-5.531963954-9.135815216-11.352035475-18.015096297-18.62512487-25.60008 7.273089395-7.584877036 13.093160916-16.464158117 18.62512487-25.60008 5.531963954 9.135921883 11.351928808 18.015202964 18.625018203 25.60008-7.273089395 7.584983703-13.093054249 16.464264784-18.625018203 25.60008z"/><path d="m219.746509825 279.29467131c-2.304967203-3.806518562-4.730041448-7.506263457-7.760450918-10.6667 3.03040947-3.160329876 5.455483715-6.860074771 7.760450918-10.6667 2.304967203 3.806625229 4.729934781 7.506370124 7.760450918 10.6667-3.030516137 3.160436543-5.455483715 6.860181438-7.760450918 10.6667z"/><path d="m63.837755945 86.0748248332c-5.531963954-9.135815216-11.352035475-18.015096297-18.62512487-25.60008 7.273089395-7.584877036 13.093160916-16.464158117 18.62512487-25.60008 5.531963954 9.135921883 11.351928808 18.015202964 18.625018203 25.60008-7.273089395 7.584983703-13.093054249 16.464264784-18.625018203 25.60008z"/><path d="m119.055421833 191.8998488687c-5.531963954-9.135815216-11.352035475-18.015096297-18.62512487-25.60008 7.273089395-7.584877036 13.093160916-16.464158117 18.62512487-25.60008 5.531963954 9.135921883 11.351928808 18.015202964 18.625018203 25.60008-7.273089395 7.584983703-13.093054249 16.464264784-18.625018203 25.60008z"/><path d="m63.837755945 297.7302915878c-5.531963954-9.135815216-11.352035475-18.015096297-18.62512487-25.60008 7.273089395-7.584877036 13.093160916-16.464158117 18.62512487-25.60008 5.531963954 9.135921883 11.351928808 18.015202964 18.625018203 25.60008-7.273089395 7.584983703-13.093054249 16.464264784-18.625018203 25.60008z"/><path d="m174.273087721 297.7376942776c-5.531963954-9.135815216-11.352035475-18.015096297-18.62512487-25.60008 7.273089395-7.584877036 13.093160916-16.464158117 18.62512487-25.60008 5.531963954 9.135921883 11.351928808 18.015202964 18.625018203 25.60008-7.273089395 7.584983703-13.093054249 16.464264784-18.625018203 25.60008z"/><path d="m7.268619167 40.847632832 3.450464116-.03306677c.658242057 2.124593306 2.114673275 4.284173388 4.092279455 4.883428594 5.587004126 1.336750844 9.181468692-1.843845762 10.365045724-5.510630554 1.435844487-4.447587232-.0320001-10.692940082-3.87841212-12.909693676-3.187103293-1.838299078-7.922584758-.287787566-10.097524888 3.644384722l-2.416434218-1.505818039 1.297284054-14.655832466h15.786182665v3.464224159h-12.792359976l-.202987301 6.10561908c2.753821939-1.969499488 6.985941831-1.948592756 9.738270432-.567041772 5.212709623 2.532487914 7.634583858 8.290265907 6.622527362 15.076207113-1.404271055 6.749567759-4.500920732 10.574219711-11.485475892 11.120354751-7.768984278.07146689-10.511819516-5.369510113-10.478859413-9.111708474z"/><path d="m230.839877825 291.752096906-3.450464116.03306677c-.658242057-2.124699973-2.114673275-4.284173388-4.092279455-4.883428594-5.587004126-1.336857511-9.181468692 1.843845762-10.365045724 5.510523887-1.435844487 4.447693899.0320001 10.692940082 3.87841212 12.909800343 3.187103293 1.838299078 7.922584758.287787566 10.097524888-3.644384722l2.416434218 1.505818039-1.297284054 14.655832466h-15.786182665v-3.464224159h12.792359976l.202987301-6.105725747c-2.753821939 1.969606155-6.985941831 1.948699423-9.738270432.567148439-5.212709623-2.532487914-7.634583858-8.290372574-6.622527362-15.076207113 1.404271055-6.749674426 4.500920732-10.574219711 11.485475892-11.120461418 7.768984278-.07146689 10.511819516 5.369510113 10.478859413 9.111708474z"/></g></svg>