<svg height="88.000275mm" viewBox="0 0 238.11099 332.59947" width="63.000198mm" xmlns="http://www.w3.org/2000/svg"><g transform="matrix(-1.06667 0 0 -1.06667 4114.1085 300.1248)"><rect fill="#fff" height="311.81104" rx="10.677597" ry="10.66401" width="223.22835" x="3633.7363" y="-30.444906"/><path d="m1985.084 848.51953v279.80077h173.3594c-.09-84.3942.061-187.88339 0-279.80077zm48.9082 2.3418c30.5836.0211 59.5372.0389 91.0547.18555-2.8143 6.71877-10.4882 18.83508-15.2969 28.56054 1.1629 2.99264-.2723 3.50134.3301 4.21094.9741 1.66332.2695 3.99587-1.7891 4.52148-8.9113.953-18.4268-1.50455-26.2851-4.52343-12.0167-4.61631-22.1487-5.86483-34.3301-4.78711 0 0-1.0012-.10974-1.4531-2.47461-4.0148-12.37101-8.4148-17.54948-12.2305-25.69336zm-46.6953.33789h45.1972s2.13 3.78527 6.586 12.50195c1.8867 3.69031 3.4809 5.25722 3.6445 8.17969-.1705 1.71629.6185 3.66468 2.0156 4.44922.4692.26345 1.2546-.0547.9922.67969-.2886.80826.5963 2.05212.8379 2.3164.2756.46756.1039.58201.1328 2.32227.029 1.68206.1166 2.38451.4746 3.65429.9049 3.20883 1.1058 4.81242.5879 6.47657-1.345 4.22062-2.7471 7.45756-4.5605 11.39258-1.0546 2.30311-.8935 3.20253 2.3418 4.875 2.4224 1.25224 2.7449 1.23914 2.4394 3.06835-.1431.85706-.2771 1.3979-.098 1.8125.1089.25255.5128.60605.748.8086.3161.27211.2196.83434-.1035 1.25195-.3173.4098-.3198.994 0 1.9707 1.0244 2.50783-1.8276 6.02281-5.0488 7.27149-.9274-3.31669-5.6281-4.47563-8.3575-2.33691-2.3819 1.86647-2.7691 4.03394-2.1369 6.92944-5.7977 3.51627-12.116 7.64835-18.3455 10.76684-.754-1.54725-1.0055-2.86841-1.4824-4.53515-.4121-1.42898-.3588-1.53731-.2051-4.31836.1388-2.51351.2141-3.09869-.3731-3.25977-3.3418-.37026-4.1037.8207-4.7441 2.99219-.2768.95947-.8106.76355-1.1406.35937-1.2717-2.3299-2.8807-4.7517-3.9375-6.4082-1.3203-2.11482-3.5446-3.16716-4.709-2.16797-.2449.82194-.4463.84754-1.9219.50977-1.7893-.40958-2.8086.6002-2.9805 1.92578-.069.52877.3138.50675-.6445 1.0293-2.377 1.77158-1.4714 4.18965-1.1152 5.64648-.031-.077-1.0153.60326-1.0371 1.9668-.1137 7.08083 5.9807 17.27911 5.8437 17.01562l-8.9023 5.36914zm139.5761 0h28.9375v5.2539l-14.2363 14.63086v10.76368c-7.635-1.92545-10.7857-10.53563-11.4043-16.5-14.1397 12.99289-13.7904 32.55458-.4297 44.82617 1.5393-6.20759 7.5653-15.45908 11.834-15.40821v38.71485l-8.4902-8.56641-17.2999.13232c2.9522-3.39109 1.3666-11.09336-.2402-15.26954-3.023-7.85708-7.3449-20.71294-7.0166-20.90184 0 0 2.4899-.64456 2.7149-2.23438.3335-2.3565-.6821-2.18098.7812-4.30859.3291-.47862.1181-1.3814-.2343-2.09961-.2323-.52653-.4534-1.31883-.02-1.93554zm29.9043 5.78516-.031 89.29882c-1.05 7.25036-.5901 14.66379-.6504 21.97852l-7.1172 3.77734-26.6875-35.22265s1.0709-1.59238 1.5684-1.875c-.5692-1.28238-2.4599 1.91433-2.6211 2.42968 9.6815 12.07688 27.6797 35.72461 27.6797 35.72461l7.4961-3.93945c.031 7.25359-.1632 14.62031-.2227 21.81055-13.0939 7.57331-20.897 19.8207-26.5078 32.3652-5.1932 1.7026-10.6438 4.1197-15.8594 6.291l7.5098 11.3516-2.9746 1.6152c-33.4059-50.88343-19.0791-86.67362 7.5918-116.46089l4.914-.084 11.4532 10.71485-.211-65.09961c4.7682-5.00346 10.0621-9.51887 14.6699-14.67578zm-27.4765 10.875c.2148.76144.6709 2.62708.7207 2.57421-7.8528 8.22732-11.551 21.71544-.1836 35.53907-.059-.0529-.2535.99767-.5684 2.17773-12.2227-12.0197-10.4108-30.85949.031-40.29101zm1.1816 3.43945c2.0399 6.06142 7.0391 9.84375 7.0391 9.84375-1.8843 4.20945-3.0066 8.60645.5176 14.1582-3.2785 2.98297-5.9959 6.25989-7.5059 10.17188-11.0177-12.87636-7.4806-26.30571-.051-34.17383zm-73.6172 7.91406c5.2043.0295 11.1824.61441 15.1153 2.13672 1.6096 12.16241 10.1391 30.20723 9.0449 34.87305-2.1828-3.31378-11.3367-2.43739-8.5801 6.82617 0 0-.7486 1.13084-2.2383 2.65234-3.8416 3.92393-4.7892 4.57297-2.9648 1.11719 1.4026-2.65678 3.1904-6.12492 3.2305-6.79688.032-.53532-.3821-.65836-.7051-.23046-.2396.31711-.5251 1.08825-.7735 1.67382-2.2894 5.3972-6.2027 10.26216-8.9003 11.4336-.6947.30169-.6602-.0204-.1797-.61328 3.174-3.97643 5.5988-7.65336 7.3222-12.45313.077-.49497-.621-.70243-.8437-.23242-2.9773 6.2826-3.8668 7.70875-7.5254 12.13477-1.4381 1.7398-2.7767 2.61853-3.8457 2.52343-.9246-.0822-.6503-.23632.2051-1.15429.6532-.70123 1.618-1.67555 3.1796-3.6543 2.754-3.48953 5.5237-9.16807 4.504-8.8711-.1758-.47274-1.0447 1.03625-1.7793 2.47657-2.0128 3.40271-4.1494 7.89879-8.9297 10.85547-.9984.41602-2.0905.65513-3.0547.66601-1.3177.003-.5492-.38994 2.3262-2.39844 2.8069-1.96073 7.4334-8.16045 7.9707-10.46093.2439-1.04466-.4131-1.12596-1.1543.30859-3.4082 6.5962-9.8555 12.62333-15.7579 12.35547-2.8916-.13119-4.4537-.91715-2.0605-1.26172 6.5615-.81085 11.4655-4.57849 15.7578-12.08789 0-.16839-.3885-.15975-.8379.12891-3.9288 4.83655-8.732 11.43055-16.5078 10.91211-5.6089-.34018-6.739-7.57277-2.0449-9.78711 4.0746-1.92208 7.7426 3.31575 4.3125 6.00586-.6488.55675-1.7002.23345-1.7002.23345s.3673.0333 1.0399-.51237c2.4906-2.02054-.3378-5.98226-3.3182-4.48476-1.6694.70439-2.3446 3.11122-.8731 4.92774 3.2731 4.04078 10.3234.96784 15.2364-5.56055.515-.68694.9599-2.17814.5253-2.01758-.7625.31639-1.2232.91821-1.6718 1.59571-1.7538 2.44852-3.0999 3.67771-5.4746 4.99414-.8752.48512-1.8413.68018-1.8413.68018.5699-.41678.7713-1.38298.8861-2.29737 0 0 .4868-.48804.9239-.77149 3.0461-1.97528 4.8497-4.81242 4.9238-6.56835.054-1.28203-.8779-2.95725.1329-3.30079 1.7134-.81502 6.387-.14995 7.6484 1.47266.9073 1.16699 1.2594.49041.5781-1.40625-.4499-1.25259-.4305-1.95984-1.1094-1.83203-.8586.45757-1.4478.35031-3.1132-.56641-.8028-.44185-2.2267-.85327-3.0938-1.05468-1.5808-.36716-1.9118-.21343-1.8769-.90235.011-.21115-.06-.80397-.014-1.17773.2565-2.07486-1.4652-2.78078-3.8106-4.14453-1.3705-.7969-.8283-1.6182.7578-5.56641.8245-1.78607 1.5275-4.18819 2.545-6.00195.9508-2.0377 1.0327-4.26781.4199-6.81055-1.1375-4.71893-1.9553-7.11781.072-7.54297 1.9569-.29811 4.7993-.48058 7.9218-.46289zm80.9317 2.27344c1.8709 1.01459 2.7043 1.1078 3.7773 1.48437v10.60938c-1.4369.25534-2.5985.85723-3.3945 1.16601-3.6299-4.49681-2.1742-11.07126-.3789-13.25976zm-64.461.125 1.8301.55078c1.8385 11.74332 7.3822 22.68348 9.1676 33.47851 1.875 8.25525-7.8732 12.85248-11.1406 5.73443-.8641-1.88247.1365-4.28262 2.3359-5.4043 3.5664-1.81876 7.4063 3.01996 4.5918 5.6836-2.1332 2.01873-5.2885.52342-4.6016-2.06055.4431-1.68214 2.9764-1.78975 3.3946-.0918.1145.5651.3958 1.1292.5976.81836 1.3116-3.10136-3.0967-4.55376-4.9277-1.66797-1.0858 2.31301.981 5.2928 4.0234 4.72657 4.1716-.77635 4.5567-6.80195 2.8738-13.03329-2.9008-10.74122-7.5662-20.36398-8.1457-28.73429zm3.17 1.01953 1.9062.68945c2.0655 9.3474 5.5253 19.00111 7.791 27.24024 1.5272 5.59098 3.236 11.99806-2.7949 14.72265l-1.7344-.0351s.518-.28085 1.7539-1.60743c6.8377-6.29137-4.2552-24.05326-6.8144-40.22656-.028-.17332-.1074-.7832-.1074-.7832zm-20.0625.57617c-3.0668-.0741-6.0229.85933-5.7891 2.19727.1627.93053.8425 1.15304 3.2227.84961 5.2418-1.02567 10.2864 1.13213 14.1152 3.53125 1.0319.65453 1.5617 1.06527 1.7851 1.07617.1739.008.2655-.22335.051-.49414-2.921-3.6876-8.4607-7.02068-13.3847-7.16016zm23.5175.49414 1.9532.79297c1.7745 9.84839 6.1538 20.06034 8.2636 28.91797 1.2407 5.20108.8878 8.48775-1.9785 11.32031-.7183.55867-.9004.61914-.9004.61914h-1.729c4.3672-3.70822 3.3963-9.18063 1.7793-14.74609-2.9829-10.26634-7.8902-26.8541-7.3882-26.9043zm3.3809 1.34375 1.7578.75781c1.81 8.50404 2.26 8.69847 6.627 22.31641 1.3135 4.09599 2.526 7.69975 2.2851 11.11524-.055 1.94567-1.7406 5.79799-3.5176 6.10546l-1.0839.0117c4.1696-4.76757 2.3201-11.29127.5019-16.73242-3.3092-10.11905-4.915-15.45843-6.5703-23.57422zm3.1543 1.14258 2.1523.77344c2.1661 8.67938 4.8769 17.115 7.1707 24.04687.9244 2.79349 1.7444 5.71482 1.6594 8.16407-.437 3.27055-.991 4.15426-2.9258 6.09179l-1.6757.0254s2.0883-3.64845 2.2792-5.67968c.3744-3.98305-.89-7.27693-2.3144-11.77344-3.4805-10.98682-5.2528-14.51702-6.3462-21.64844zm3.4766 1.22461 1.8261.54687c2.4059 7.61813 4.5711 15.4029 6.9532 21.98829 1.2473 3.56906 1.8528 6.34852 1.7675 8.71484-.2634 3.26487-1.1905 4.6277-2.6113 6.44531l-1.6152.0156c1.2839-1.7276 2.1224-4.32401 2.1621-6.17774.039-2.71511-.8198-5.36465-1.6401-8.18554-2.6612-9.15105-5.3689-15.2237-6.8423-23.34766zm-35.4727.89062c-.453.0989-.8175.34813-.7305.81836.054.29302.5563.54673 1.0996.40235 4.9809-1.511 9.3015 1.85174 13.1895 3.83008.1934.14869.4256.21817.584.21093.2037-.01.2869-.14778.029-.41601-4.9778-2.88526-8.2508-6.02346-14.1716-4.84571zm38.6895-.0293 1.9472.39062c2.4163 7.44984 4.8851 15.38753 7.3985 22.23047 1.5305 4.16702 2.133 11.2947-1.2989 14.37891l-1.8457-.0527c1.334-1.68396 2.1158-4.30691 2.1875-6.64062.071-2.76021-.5751-5.47273-1.5644-8.2832-2.8922-8.21621-5.0725-15.28029-6.8242-22.02344zm3.4707.63867 1.8261.24609c1.3877 7.78818 4.9905 15.12561 7.0703 21.69922 1.0742 3.077 1.8197 6.86054 1.4356 9.75196-.2709 2.03965-2.302 4.71592-2.6777 4.75585-.012.002-.023-.00071-.031-.004l-1.2324-.0117c.046-.0274 1.8398-3.90045 1.9687-6.25.1463-2.66335-.4942-5.56451-1.3711-8.42773-2.6504-7.85841-5.3243-14.92456-6.9882-21.75977zm-45.004.15625c-.3116.11712-.1279.94007.4356 2.08203.4728.95813.886 1.18738.6543 1.91602-.5286 1.66154.2256 1.99147 1.2129.51953.7398-1.15236.8234-1.12548 1.5234.35547.9279 1.84943.4915 2.70296-.916 1.49804-1.0666-.91314-1.339-.23495-1.7539.48828-.5456.9508-.4624 1.80466.5117 1.73047.5603-.0426 1.0835.21595 1.5235.69922.8625.94734 2.5152 2.13552 4.0996 2.41406.5169.01.3489-.49126-.8692-1.34765-2.9039-1.98873-3.1506-2.34747-.3359-2.30078.7134.0424 1.8298-.46702 2.4629-.67969 3.6736-1.23395 3.8518-1.13567 5.6094-.7207.5858.13759 1.1807.38405 1.4375.14843.3969-.36423.8414-.60538.3418-1.14843-.3643-.39594-1.0411-.69847-1.8653-1.17383-4.2657-2.46058-4.6547-3.04986-9.6699-3.18164-.5743-.0151-.8678.28518-1.2051.28906-.819.01-1.2485-.19251-2.0762-.95313-.5683-.52225-.9341-.70503-1.1211-.63476zm55.7911.0898c1.9366 6.83522 4.5245 13.74104 6.75 20.03321 1.6906 5.19279 4.2778 12.89125-.5059 16.20507l-1.2813-.0312c2.3328-3.14022 2.6471-5.84226 1.8203-9.75976-2.7423-11.84998-7.9506-18.66802-8.5234-26.32813zm-8.0625.0879 2.1425.11329c1.4513 8.05241 5.6429 13.89655 7.961 23.72265 1.1659 4.27154 1.9227 9.20731-2.1621 12.21289h-1.2285s1.9286-3.39715 2.0507-5.39062c.2196-3.58528-1.1613-7.45448-2.4179-11.66602-1.9347-6.48433-5.205-12.69292-6.3457-18.99219zm3.0937.11329 1.9121.0254c2.116 9.50467 6.5166 16.29048 8.8145 26.76171.8178 4.35956.117 7.05574-2.5918 9.14258l-1.3242-.0371s.1985-.36093.705-1.23437c2.4163-4.40509 1.0921-8.47297-.1198-13.03883-2.2645-8.53106-6.4143-15.29691-7.3958-21.61937zm-42.8867 4.0039c-.3224.84678-.5993 2.01961-1.7227 2.40039-.2275.0772-.3843-.0993-.3632-.16992-.011-.60908.4054-1.85444.7461-2.50781.1089-.29098.2969-.32726.5585-.38086.8159-.0671.9779-.0333.7813.6582zm1.8295.0209c.5648.2676 1.0756 1.05925.7076 1.32285-.4918.27519-1.3421.62466-2.1523.63867-.3559.0264-.3692-.1221-.2266-.44726.2406-.52016.6863-.99114.9804-1.43016.203-.30299.6062-.12422.6909-.0841zm-7.8549 8.68613c-.4528.0332-.4647.44796.5137 1.04883 1.3419.82422.6805 2.99103-.9453 2.9668-.7108-.0107-1.1953-.32267-3.002-1.66406-1.4871-1.10411-2.8871-1.19104-3.2051.30468-.1897.89242.1063 1.2882 1.0528 1.05469.4186-.10335.6645.1439 1.2324.54102 1.2225.71463 2.4219 1.76405 3.7578 1.46093 3.1637-.87742 3.8221-4.02014 1.7695-5.3164-.4718-.29802-.9021-.4164-1.1738-.39649zm7.4824 4.60742c-.1893.26159.023.66123.711.76172 1.989.65766 2.7005 3.01502.9043 4.00391-.9808.51766-2.5482.18426-4.4375-1.22461-3.3757-2.51728-7.5125-2.67566-6.9727-.12891.131.61785.3947.70202 2.8672 1.04102 2.0081.27533 2.9135.91518 3.7891 1.39062 1.3797.74931 2.5955 1.05991 3.625 1.0293 4.7312-.27174 4.2768-6.08051 1.3457-7.06445-.6655-.2498-1.2569-.0328-1.8321.1914zm-61.2754 16.74219c1.0047-.0242 1.4647.77486 1.9532 1.45703 1.8265 2.55563 3.1402 5.0877 5.0039 7.99024l-.25 2.71289s-.4884-.10694-.7617.0254c-.5365.25964-.8544 1.10734-1.1602 2.23437-.4901.9799-3.3835 3.21045-4.4902 4.40821-.2045.13541-.3746.35888-.377.49414.011.43881 1.2533.14396 2.0742-.80469 1.2062-1.07824 1.722-.70773 1.6836.66992.1186 1.70136 1.1493.84939 1.2012-.8125.1326-1.31279.5856-2.11306 1.498-2.84765 1.722-1.38637 1.4356-1.036 1.3555-2.96094-.1395-3.35705 1.1466-6.11687 1.9883-4.28711.2989.64986.6484 1.38695 1.4004 1.41992.5325.0234.7967.5486 1.0898 1.84766.4358 2.10162 1.0439 3.45493 1.5996 5.39062l-15.9882 9.11719c-2.7852-3.25226-4.7991-8.67297-5.8379-12.20508-.5129-1.75941-.575-3.76777-.1172-4.04687.452-.27568.6614.0191.5761 1.07031-.071.87577-.095 1.55464.2774 1.54492 1.0808-.28104 1.1224 1.36839 1.0117 1.75586-.074.25891-.2069.44128-.2656.58203-.2665.63893.4293.55188 1.1504.56055.6378-.0155.8018.3739.7715.98242.018.67505.9071.54352 1.4121.0312.4616-.46818.3637-1.01867-.2618-1.4043-.8983-.55385-1.7473-1.91649-3.8398-6.61132-1.2148-2.72563-.854-4.66012.5938-4.63868 1.0039.03 2.1738 2.7995 3.1191 4.83985.2442.52709-.3691 1.11652-.584 1.40039-.5556.73397-.4707.96633.3535.97851.7716.0114 1.0993-.0581 1.5645.90039.1752.36078.3019.91151.2402 1.26172-.3977 1.05699.4203 1.31249 1.2129.90625.9989-.41929.9901-1.31665-.5332-2.78515-.9811-1.62081-.7243-1.50791.2051-2.59961.1943-.38537.078-.62297-.3321-.62891-1.1786.36228-2.4619-1.77565-2.1113-2.50781.3611-.31475 1.3472-1.45354.3926-1.23438-1.9405.53126-3.1214-2.33059-1.9785-3.30078 1.7048-.86103 2.1086-.59248 4.7344 4.68945.8153 1.64022 1.7973 3.40352 1.9179 3.58399.1207.1805.1732.66429.168 1.05469-.1144.95565.2911 1.1726 1.1152.79297.6191-.14922 1.1787-.66203.3946-1.14844-.9154-1.59025-1.2394-1.84468-.7364-2.24805 1.1449-.91796.6474-.88179-.6347-1.13867-.6277-.18999-.9464-.51571-1.1192-.90625-.6625-1.4979-1.8368-3.61055-1.9531-4.04102-.3883-1.09873.3134-1.59245 1.2734-1.54492zm73.3262.72656c2.0587.87527 3.8853 1.70414 5.5274 2.4961-5.0926 10.06998-11.0695 13.6951-21.5762 18.16406l.9765 4.49805c11.1906-4.19743 18.3116-9.22239 23.9278-18.98633 6.8143.0974 34.4164.29405 34.4453.20703-11.2588 12.89182-20.1351 32.33569-21.1055 47.49609-.2381 2.95293.172 1.53292-1.125 2.41407l-2.039 2.44726-1.6016-2.41015s-1.1577-1.48622-1.8906-.24805c-2.0532 21.14123.1192 45.24933 10.2363 62.05273-1.7949.1194-3.5835.1685-5.3027-.8554-3.957-9.023-6.2887-20.1696-7.3008-28.5254-1.281-10.576-1.1015-22.50523.2031-32.63482l-.6738-.0937c-1.972 13.16465-1.3041 27.16612.5058 39.40432.929 6.3843 3.9201 16.3709 5.9766 20.9804.5682 1.2737 1.0096 1.6024.4707 1.7911-12.3288 1.0445-17.9948 5.1859-22.4238 11.7988-1.8236-1.1621-4.0558-2.5929-6.6367-3.3106 5.5484-10.0625 14.4723-15.4543 21.9394-17.5605-.2541-1.2879-.4342-2.571-1.6719-3.3613.043.1946.589 2.4814.4688 2.9511-10.2868 2.6448-19.3407 12.7915-21.6563 18.0235l-45.2089.4941c33.5135-32.3711 34.8495-77.93013 7.5058-116.11717l3.1445-1.84961c21.07 31.77903 20.855 62.39808 14.5352 82.90238-4.4808 14.5378-12.5208 25.643-18.6309 31.9902 0 0 24.5115.3392 36.711-.1133 1.7723-2.7301 3.4202-4.9599 5.8027-7.5371 0 0-6.1992 6.0279-6.039 7.0742-11.3061.01-22.9652.6636-34.2559-.1289 13.2125-15.9218 19.7256-32.3594 20.8555-47.82225.042-2.01123.1637-.88563.8242-1.625l2.0859-3.25976 1.6719 3.38672c1.1364.36962 3.3716-.22592 4.3203.11914 4.6484-20.8811-.049-46.09047-6.166-62.53711 3.3305-1.05825 6.9951-.0623 11.0273-2.10938.2538-.29157.713-.69795 1.2325-.98242 5.02-1.83623 10.9101-8.72095 10.9101-8.62305zm-34.7148.22071c.9827 0 1.7793.80156 1.7793 1.79101 0 .98946-.7966 1.79297-1.7793 1.79297s-1.7793-.80351-1.7793-1.79297c0-.98945.7966-1.79101 1.7793-1.79101zm41.5664 2.0332h44.6054c-17.1371 18.56648-24.9889 34.2503-26.2246 55.4668-1.1767 20.20565 3.9286 38.66025 19.4336 60.86335l-3.2051 2.1347c-26.4876-40.3355-25.3035-83.17495 4.2579-115.64844l-37.4004.0566c-4.7607 9.45888-12.6902 15.22397-22.8379 18.77539l-.8848-2.97071c11.6625-3.76991 17.5629-10.01917 22.2559-18.67773zm-68.0977 2.49219c.5136.22554.2212 2.95264-.4746 2.95508-.7624.002-1.7544-2.309-1.1601-2.76954.535-.41459 1.0997-.42045 1.6347-.18554zm21.6172 1.21094c.4587.81944 1.0761 1.26707 1.6406 1.83789-.9159-.0666-1.995-.52795-2.8339-.98243.568-.34226.8155-.43665 1.1933-.85546zm2.4648 4.03515 5.5215 2.12695-.9922 5.97657-5.5722-2.23438zm13.5333 2.26953c7.4349 19.24233 9.0562 42.94699 6.1503 61.57422l-1.9375-.0723c3.1782-31.56391-3.0675-47.53496-8.5937-61.42383 0 0 .013-.55675.1992-.72071 1.4872-.55318 3.0324-.50981 4.1817.64262zm-25.1504-.74609c36.725 51.55569 13.3153 95.64283-8.0879 116.25783l-4.3809.2363c3.6095-3.2896 6.5082-6.6985 9.5547-10.332-9.0159-12.4841-19.0356-26.0176-27.4609-36.8301 0 0-2.9162 1.7385-2.9043 1.9551.011.1141.2339.6904.2871.5625.1251-.3003 2.3613-1.5605 2.3613-1.5605l26.6641 35.2343s-1.446 1.7426-1.8926 2.2911c-2.0719.6858-7.8365 7.8745-8.1192 7.7265-4.5169-3.4841-18.138-18.2536-23.3847-22.7812l-.066-40.99421c.5429-1.64024 15.0647-7.9608 25.3222-31.54296 5.158-2.91016 10.8731-4.47508 16.1875-7.00586 0 0-1.352-2.14192-2.0136-2.72852.8119 1.76644.9553 2.10192-.8848 2.85547l-38.3828 15.75391.072-3.18165c3.8484-2.99781 29.3008-21.53697 37.1289-25.91601zm-22.0307 1.1747c-1.3196.88145-4.1854 3.92844-4.3248 4.2003-.3349.65299.012.78776.1389.63286 1.5699-1.19467 3.0174-2.53489 4.7285-3.5625.6416-.38157 1.3919-1.36714 1.3965-1.63086-.2571-.35079-1.3601-.0265-1.9391.3602zm38.6732 6.62999 4.9707 2.25-1.2734 5.91992-4.8379-2.35156zm3.8711 9.34375 4.3653 3.10937-2.0606 4.7832-4.1347-2.82031zm-12.7715 2.97656c-4.4999 11.27623-8.1948 18.82109-16.9804 30.82617 5.4084 7.13031 20.9123 27.69966 21.4648 27.48636l.01-.01c6.6851-20.92251 4.6777-40.90676-4.4942-58.30273zm-20.8808.91601c.051.0106-3.3583 7.36026-9.1895 14.8418-5.1924 6.662-14.3341 14.17272-14.3613 14.11133l-.2402-3.8457.9414 1.40625 1.7285-1.33399-1.207-1.61133-1.5078 1.1836-.094-1.54883c9.5796-6.97089 13.7128-14.97812 17.5996-20.98437l1.7285-.73633 1.9668.6289.9629-1.71484zm-5.3125 2.4043-.8379 1.6836 1.9414 1.0039 1.0137-1.76562zm-2.2852.18946c-4.4492 7.63349-9.6966 14.71766-17.0625 20.34179l-.082-13.67383zm1.0176 2.3125-1.0137 1.7871 1.9121 1.07618 1.0137-1.76563zm42.6602.60742 4.0351 3.09375-1.9687 4.38672-4.0391-2.64063zm58.8281.33984c-6.9431 20.9406-4.3651 40.5664 3.7891 58.7149 4.8395-10.338 9.6021-21.0009 17.3125-29.0567zm-102.9668 1.5957-1.0938 1.77149 1.8399 1.13672 1.0996-1.71289zm29.4648 1.0293c4.2308 13.34882 6.1401 26.46653 2.1114 40.7188l-15.1836-19.72856c5.0793-6.08701 9.2989-13.25962 13.0722-20.99024zm-31.1816 1.58203-1.2031 1.71289 1.8418 1.19922 1.1855-1.65625zm-1.7656 2.45508-1.2617 1.60156 1.7128 1.32813 1.2618-1.59571zm49.9316 1.70898 3.3652 3.24805-2.5 4.3086-3.2324-3.4629zm-52.0058.84961-1.3614 1.51368 1.6465 1.43554 1.3613-1.51367zm110.416.62891 15.0507 19.14453c-5.5144 6.89233-9.1749 13.41966-12.7597 19.77546-6.0266-14.50623-5.4956-27.58508-2.291-38.91999zm-112.4922 1.66797-1.416 1.45703 1.5488 1.49805 1.416-1.45703zm-2.1992 2.30469-1.5079 1.36523 1.4063 1.49805 1.5078-1.35352zm38.1113.74804-6.9883 9.53321 7.9238 9.79296c.493 0 .9215-12.98593-.9355-19.32617zm-40.4063 1.32227-1.5605 1.29297 1.3457 1.55859 1.5645-1.29101zm59.2325.91601 2.9687 3.4961-2.5859 3.5-2.7207-3.33594zm60.0586 2.20899c-.8571 5.54304-1.0496 11.97705 1.0175 20.35552l6.9493-10.11529zm-18.2579 2.08008 2.4454 3.89648-2.7207 3.52734-2.5821-3.72265zm-41.4804 4.09179 2.5371 3.22461-2.6797 3.33985-2.3359-3.16016zm41.3847 4.02735 2.709 3.06836-2.75 3.74218-2.8535-3.35742zm63.9493.0469c.028 1.0236.03 1.20865.029 1.69822l-.7286.51808.7227 1.2207c-.01.62348-.015 1.10251-.023 2.60011-5.6196 4.52939-11.39 8.54489-17.9805 21.36909l-2.0035.9711.119-.3564-1.8388-.8764-.9404 1.8297.641.2481c-1.011.5808-1.0197.4658-2.9935 1.4437 0 0 1.4859-3.4749 2.5722-5.5175 5.1945-9.0876 11.9225-18.13594 22.4239-25.1485zm-1.6407 2.90821-1.6406 1.19336 1.1856 1.65234 1.6425-1.19336zm-2.709 2.02734-1.5703 1.28711 1.2735 1.58594 1.5742-1.28711zm-2.3671 1.96094-1.4942 1.38091 1.3711 1.5039 1.4922-1.3809zm7.2187.11914.291 12.62887-17.3828 7.3614c3.823-8.6064 9.5605-15.2278 17.0918-19.99027zm-64.5547.82812 3.461 3.18755-2.2032 4.2988-3.4101-3.2578zm54.8867 1.35545-1.4003 1.4727 1.4609 1.4101 1.4023-1.4726zm-2.3007 2.4707-1.3086 1.5489 1.539 1.3183 1.3086-1.5488zm-2.086 2.5078-1.248 1.6114 1.5957 1.2558 1.248-1.6113zm-49.0527 2.2442 3.9004 3.248-2.3555 4.3965-3.8047-3.6347zm47.1855.1953-1.1386 1.6895 1.6718 1.1464 1.1387-1.6836zm-1.6816 2.5234-1.0625 1.7344 1.7227 1.0703 1.0625-1.7344zm17.3223 1.709v3.0469s-28.7035 10.7178-39.0285 16.6331c0 0-.251-.3735-1.577-2.3929 13.6569-5.4448 27.9472-12.6358 40.6055-17.2871zm-18.8965.8028-1.0117 1.7656 1.7519 1.0195 1.0137-1.7656zm-1.5196 2.7597-1.0117 1.7656 1.7539 1.0196 1.0118-1.7656zm-40.4921.668 4.2285 2.9297-1.9492 5.0722-4.1973-3.08zm60.6171 4.8496v104.0195h-46.123l-10.6094-19.3769c.3127-1.5084-.1563-2.5724-.6739-3.5156-.2811-.4613-.4891-1.092-.5527-1.6739-.1052-.9584-.1052-.9597-1.4981-2.2246-.2926-.2657-.3486-.429-.2402-.7051.4611-1.1731.1911-3.5718-.7207-6.4355-1.1517-3.6168-1.4491-3.5688.6953-8.4063.4474-1.0104.9889-2.3597 1.5703-3.5996 2.6479-5.4755 3.0558-6.9601-1.4883-9.8789-1.2794-.8217-1.6554-1.535-1.3359-3.1719.2514-1.2877.3041-2.1098-.3106-2.8359-.3984-.4707-.76-.549-.6601-.9121.068-.2471.3649-1.3181.2656-2.2187-.2674-2.4268 2.5303-5.9739 5.0566-7.254.1826-.092.5554-.2114.5554-.2114s.1929.4585.3861.7993c2.6316 4.6404 9.1822 2.7596 9.6171-2.7754.1149-1.4635-.085-2.0325-.085-2.0325 7.9854-4.7929 12.974-8.0617 18.6616-11.3499 2.48 4.3462 1.605 8.2004 1.0874 11.9625.05.6539.6043.7714 1.4414.7813 1.4174.017 3.4569-1.4303 3.9004-2.7793.3771-1.1469.6189-1.8899.9609-1.8848.3438.01.5113.4677 1.3653 2.1211 1.7765 3.4402 2.0518 3.8769 3.7129 5.875 1.3247 1.5937 2.4535 1.8044 3.7519.6172.9026-.8254.8743-.1084 1.6426.3086 1.3263.9089 3.3199.096 3.3691-1.1836.041-1.0734.049-1.8804 1.1289-1.9512 1.2024-.079 1.7253-1.6418 1.3868-3.8711-.1782-1.1732-.2138-1.3612.1425-1.791 1.1628-1.4025 1.3155-2.3718.6758-4.3301-1.8235-5.5818-4.4664-9.3403-6.9492-14.416 0 0 6.1291-3.6044 9.873-5.6992zm-57.791 4.3457 5.1543 2.9043-1.4883 5.5547-5.1074-2.6563zm53.8985 15.8047c1.0986 2.4021.025 3.9914-1.3946 2.0547-.5515-.7528-.2695-1.2328 0-2.6875.05-.2632-.1943-.1621-.6504-.2364-.7179.078-1.0634-.5688-1.0371-1.664.4533-1.5692-.1739-.7209-.4707-.6426-.5681-.01-.6934-.3522-1.0117-1.0039-.1988-.9189-.6014-.6533-1.1875-.047-.4842.5012-.4845.4901.4922 1.6641 1.687 1.8405 4.0253 5.9954 4.6309 8.5254.1671.6979.1069 1.2536-.02 1.625-.7622 1.7281-1.8233 1.7359-2.9804-.6778-.197-.4107-.5848-1.0729-.8594-1.4726-.445-.6478-.7202-1.2041-.7051-2.2344.3422-.8633.3974-.8819.1016-1-.7338-.292-2.0371-1.6259-2.0957-2.8203-.06-1.2133-.2647-1.8586-1.2129-1.1387-1.0811.8209-.6203 1.1526.4453 2.2051 1.1169 1.3384 1.1841 2.4969.5215 3.4629-.1084.3242-.063.4169.3476.377 1.2971-.1264 2.5578 1.5274 1.6563 2.7851-.415.7369-.3655.9269.2207.9473.3055.011.81-.049 1.0586.092.3833.7238 1.1839 1.7363 1.1758 2.5644-.3771 1.161-.962 1.6315-1.5801 1.627h-.01c-.7013-.012-1.4446-.6312-1.9765-1.5352-1.2325-2.0945-2.7317-5.6156-3.6875-7.5566-.241-.4894-.2496-.9258-.2344-1.1582-.075-1.138-.4543-1.5671-1.125-1.0547-.6596.5039-1.5757 1.347-.502 1.4824 1.0795.819 1.6822 2.0216 1.0137 2.7539-.492.5391-.3005.8882.096.9102 1.5127.022 3.7677 4.5533 2.7051 5.5293-1.4338 1.3169-3.0206-.3127-6.3965-7.0567-1.4875-2.9782-1.5565-6.2376-.2812-4.623.4334.4068.3452.1945.8535-1.0879.382-.9641.6957-1.4198 2.1523-2.8301 1.7738-1.7174 2.8489-3.0755 2.8887-3.373.076-.5688-.9583-.037-1.7129.9531-1.6856 1.6578-1.7476 2.0999-1.7324-.098.014-1.9875.1153-2.3513-.2403-2.3379-.5542.021-.8506 1.5931-1.1093 3.4903-.3091 1.7088-1.1904 2.5709-2.6582 3.5215-.4029.2609-.4096.4419-.3321 1.1953.271 2.4139-1.0922 6.9138-1.7129 5.8008-.087-.2505-.3579-.8362-.5019-1.2461-.1161-.6353-.5127-1.3524-1.1192-1.4004-.7538-.568-.7524-.8751-1.0136-2.9551-.2378-1.4238-.8135-2.7308-1.1133-4.1387 0 0 9.985-6.2542 15.2039-9.2498 2.9361 4.3129 5.1951 9.531 7.1011 13.7598zm-164.959-11.9336 13.539 13.4004s.2653 17.2894.252 24.3574c-.014 7.068-.116 14.1348-.088 15.4492.029 1.3144-.071 6.9067-.1133 12.6485-.089 12.0289 1.0044 10.5437-1.2168 12.8515l-12.2246 11.5098zm114.8144 5.0098 6.543 3.0371-1.2207 6.3886-6.248-2.9707zm41.9024 1.4551c-1.6122 2.1437-3.8211 3.0564-5.1778 5.0058-.2107.3605.011.5084.3321.5039.2818 0 .999-.3231 1.9687-1.209 1.7903-1.6355 4.1488-4.3226 4.1563-4.834-.4505-.2547-.9728.1257-1.2793.5333zm-50.2617 6.3183c1.877.054 1.2131.4744-.4961 1.5801-3.6589 2.3668-8.7938 9.1712-9.6231 11.5781-.1959.5688.024.8948.3848.8555 3.0104-4.8493 6.9858-10.1856 11.6094-12.418 2.4916-1.2033 5.6345-1.4404 7.1797-.6797 1.1322.5575.8487.7499-1.1602.8809-4.8344.48-10.4997 5.0496-13.3047 9.8847-1.642 2.6771-.4886 2.0627 1.3867-.5195 3.201-4.4075 9.5552-8.6328 13.4961-8.2988 3.9857.2375 6.2799 3.3461 5.7676 6.0117-.3099 1.6127-1.4468 3.2575-3.6758 3.7285-3.8172.8067-6.316-5.2814-2.8223-6.4297.8936-.2936 1.9028.09 1.9028.09-3.6668.7628-1.9177 4.806.056 4.8924 1.3562.059 2.9696-.7299 3.0371-2.8769-.04-1.6003-1.3481-3.1658-3.9726-3.2031-3.1116-.044-7.886 2.211-10.7832 6.3633-2.056 3.1734-.1636 2.1018 1.3691-.016 1.3524-1.8683 5.5671-4.4825 5.9-4.3867-.106.6383-.3164 1.1304-.1484 2.1524-.067-.3719-6.5715 4.2184-6.1813 7.6347.2498 2.4798-.1099 3.2379-2.6738 3.207-1.9167-.023-4.3525-.7004-5.0605-1.5859-.7302-.876-1.5477-1.1506-1.1856.3262.5876 2.3968-.1174 2.7906 1.2617 2.3359.9517-.3137 1.7958.4565 2.75 1.1387 1.0498.7504 2.3782 1.071 3.9629 1.0137 1.1837-.043 1.7183.028 1.5293 1.1523-.1332.793-.2847 1.5155-.057 2.0352.3709.8451 1.8527 1.717 3.5273 2.9589 1.9773 1.4664 1.612 1.5537-2.6015 11.3321-1.7692 4.1057-1.7777 4.9471-.7168 7.9785 1.6764 4.7901 1.9401 6.71-1.2012 7.3789-1.7784.2055-3.612.3058-5.4707.3027-5.5765-.01-11.3916-.925-16.7227-2.5429-3.3628-17.1167-9.269-28.6239-9.2441-35.3262 2.4321 2.1712 6.2246 2.8151 8.7832-.6699 1.6191-2.1309-.011-5.095.8184-6.3379 1.5704-2.3175 5.6121-6.6027 6.289-6.461.4924.1031.4119.3198-1.3203 2.9961-1.8041 2.7875-3.1871 5.3144-2.5918 5.9317.2526.262.3879-.2919 1.7344-2.6465 3.1603-5.5267 5.9384-8.9441 7.039-8.5.5154.2079.2501.6664-2.0898 3.7793-2.6428 3.5156-3.3776 5.7146-3.1152 6.6875.2017.7477.6118-.4612 1.709-2.6211 1.1688-2.286 3.2819-4.833 4.9902-7.2793.5417-.8853 1.2367-1.3969 2.1269-1.8008.6598-.2878 1.7103-.7584 2.3204-.6797.3134.041.097.2259-.3321.6485-3.3712 3.4958-6.2692 7.393-7.914 11.1347-.2542.4908.1089 1.1888.5253.6739 2.5224-4.4693 6.0345-10.044 9.8477-12.5039 1.1138-.5576 2.0965-.8717 3.1606-.8806zm-92 1.9824 8.2461 7.9942 17.6738-.2305c-2.9136 4.7607-2.9793 8.5412-1.0938 13.0039 3.1779 7.2907 8.0812 23.9328 7.7051 23.877 0 0-.1398.3591-.541.4492-1.4651.3288-2.3968 1.753-1.9785 3.4648.08.5513.076.4207-.2969 1.1367-1.4381 2.471.2754 5.1543.2754 5.1543l-15.4902 26.1875h-28.6172v-4.4629l14.1172-14.3789v-10.7812c5.3946 2.0603 9.7961 9.6312 11.2773 15.3984 13.5569-10.071 14.1926-32.4081-.6074-43.7539-.1211 4.9285-4.06 14.6135-10.6699 15.332zm106.1308.8125c1.1384.1801 4.1855 1.0606 2.7559 1.7461l-1.2871.6172c-.8438-.6449-1.1574-1.504-1.4688-2.3633zm24.9824 1.6895c.06.3518.063.6946.1524.7519.5553.3571-.3731 1.3976-1.2363 1.3848-.9706 0-.813-2.4387-.3164-3.1347.7798-1.0928 1.2923.3698 1.4003.998zm-28.0136 2.3574c.943 0 1.707.771 1.707 1.7207s-.764 1.7187-1.707 1.7187c-.9432 0-1.7071-.769-1.7071-1.7187s.7639-1.7207 1.7071-1.7207zm-34.9004 5.9922c.9844 2.3193.228 5.1103-2.4278 6.0644-4.597 1.6518-7.965-4.2554-3.457-6.0742 2.3317-.9408 4.5486.7548 3.4981 2.7285-.7364 1.3837-2.809 1.2339-3.2989-.1953-.3991-1.5212-1.0601-.8037-.7773.2266.8549 3.2819 5.0428 2.5079 5.3789-.5156 0-3.7462-4.074-4.6251-6.5039-2.5215-1.8827 1.6815-2.0795 4.7189-1.6094 7.3554.6464 5.4765 3.7249 12.5794 5.9102 20.6856 1.0912 4.0476 2.6718 8.8732 3.2363 13.0351l-1.6309-.4668c-.013 0-5.0927-17.5089-8.0019-26.0566-2.2109-6.96-4.1444-15.5256 3.9414-17.3769 2.416-.5532 5.0246 1.4206 5.7422 3.1113zm-10.711-3.2891v.047h2.2383s.011.1374-.9707.875c-5.4192 4.0809-2.1854 13.0728-.1387 19.9844 3.5658 11.0383 6.753 22.3322 6.709 22.3183l-2.2441-.8711c-1.2294-7.1735-7.0251-20.8847-9.0703-31.1191-.5698-6.1512-.6613-7.9572 3.4765-11.2344zm-10.666.01 1.5352.041c-5.8597 11.0293 3.0215 22.442 6.5273 39.3418l-2.0898-.6426c-2.839-12.5294-13.7498-33.0618-5.9727-38.7402zm-2.4433.041h.6445c-2.7051 4.1121-2.1953 9.2992-.752 14.9043 1.9411 7.538 5.712 15.8307 6.9688 23.2695-.6422-.3596-1.56-.5319-2.2598-.7363-2.2006-9.4739-6.2225-18.7914-8.0527-27.6152-.6161-4.831.4366-8.4479 3.4512-9.8223zm5.5527 0h1.7637c-1.5751 2.4738-2.2245 4.6462-1.9883 7.9844.6865 11.2369 6.3786 22.143 8.4355 32.4961l-1.9433-.7207c-2.2372-12.3666-13.3286-30.8443-6.2676-39.7598zm3.8145.025h1.9277c-2.0607 2.0637-3.4354 2.6587-2.8594 9.832.912 9.2126 6.9486 20.7239 9.0664 32.1094l-2.1074-.8066s-.556-1.6553-.7559-2.6016c-2.0498-9.1576-7.6268-19.4558-8.2793-30.168-.1472-3.5104.4521-6.7826 3.0079-8.3652zm-19.5469.2324h1.2676c-2.5898 3.1072-2.4621 7.3427-1.3536 11.8965 1.832 7.5261 6.2631 16.6011 7.3672 24.1406l-1.8418-.1699c-1.8431-8.0818-5.4282-15.9378-7.7558-24.0215-.4335-1.8246-.8119-4.0548-.6602-5.6953.3183-3.4394 1.734-6.1504 2.9766-6.1504zm4.5605.029c-2.4898 3.3498-2.8444 6.8391-1.707 11.3516 2.3346 9.2621 5.8686 17.346 7.6133 25.0312l-1.7852-.334c-2.0903-7.453-5.6405-16.6915-7.7773-24.3867-1.3141-4.7324-.785-10.5609 2.1484-11.6348zm-9.6582.012c-1.7788 1.6748-2.3887 4.4945-2.1054 7.418.8004 8.2618 6.6074 19.7207 8.7109 28.5215l-2.0547.4219c-1.8029-7.7265-6.1306-19.514-7.6855-23.584-2.0686-4.1564-1.4478-10.3121 1.6621-12.7481zm2.9199.02c.2189 0-2.0843 3.5832-1.8867 6.6523-.059 1.6374.1188 3.393.5821 5.127 2.8936 8.3305 5.7444 15.8803 7.957 23.8203l-1.8613.088c-2.5469-9.8783-7.4737-18.7297-8.6719-28.0997-.2711-2.6801.1745-5.2983 2.3867-7.5625zm8.3379.01h1.8614c-2.0356 2.0936-2.9541 5.3734-2.2793 9.2481.6887 3.955 2.7189 10.2315 4.4023 15.7519 1.9516 6.3996 3.5228 11.8124 3.3438 11.8574l-2.1075-.3242c-3.9623-18.3352-12.6601-29.7297-5.2207-36.5332zm40.293 11.8906c-1.7667.043-3.4772.99-3.9004 2.4043-.5166 1.726-.099 4.877 3.3399 4.877 1.1737 0 1.9153-.8806.4453-1.1445-5.2503-.9492-1.7303-6.4298 1.9726-3.6055 3.3367 3.0328 7.8001 3.0113 7.8535.8594.011-.5416-.018-.5605-.8085-.711-1.8599-.3537-4.6358-1.2063-5.6993-1.7461-.6252-.3174-1.2836-.6132-1.4629-.6582-.5559-.2034-1.1513-.2895-1.7402-.2754zm-69.1191 4.9649c13.356 12.1982 10.8846 29.6915.6191 39.8418l-.7461-2.1777c5.6737-3.275 12.6154-21.5132-.1269-34.9043zm77.6601.7988c-2.4425.049-4.4088 2.3246-2.8789 4.7207.3852.6031 1.3383 1.1311 1.7539 1.1074.06 0 .1096-.018.1485-.041.1331-.08-.1694-.6184-.6094-1.2265-2.031-2.7591.7808-3.5764 2.7715-2.0996 1.8898 1.4796 4.8077 1.3405 4.3867-.211-.1484-.5469-.0003-.8144-1.0586-.8301-.9376-.014-1.1802-.066-2.0254-.6484-.808-.5565-1.6741-.7877-2.4883-.7715zm-78.2265 2.8985c10.0551 10.2279 7.8171 25.0557.2148 33.5703-1.9472-4.0464-4.1631-7.6287-7.1836-9.8223 1.6266-3.9097 2.3262-8.2226-.4297-14.0391 1.933-1.068 4.6189-3.9019 7.3985-9.7089zm70.0546 4.0449c-1.1158-.032-.644.7002.6543 1.2012 1.2715.4904 2.8493 1.8516 2.8438 2.2285 0 .2894-.4044.118-2.6953.7519-.994.275-2.3916.8909-2.9805 1.1641-.9725.451-1.0183.4461-2.541.4004-2.5932-.078-2.9881.011-1.1699 1.3691 3.6741 2.7448 8.5762 4.5334 11.1758 3.3945.7882-.3453.7701-.134 1.3398.1954.7445.4304 1.3522.6251 1.7539.623.767 0 .7799-.7125-.4453-1.793-.7496-.661-.6911-.4402-.6484-.8593.1822-1.79-.098-3.4286-.8282-1.586-.1951.4921-.4816 1.0475-.7675.9785-.5402-.1678-.2667-1.1681-.5274-1.6738-.4408-.8917.028-1.1098 1.0996-.834.7713.1986.8163-.2209 1.2949-.7558.838-.9366.6996-1.4962-.5898-1.2051-.2127.048-.3918-.013-.5566-.051-.4023-.093-.7704-.3496-1.7286-1.0859-1.2309-.9459-2.9746-2.2078-4.1054-2.4004-.2264-.039-.4188-.058-.5782-.062zm2.4219 5.4629c.1941-.012.4063 0 .4785.088.2394.35-.5747 2.0248-1.041 2.2597-.2595.1369-.5112-.076-.6894-.1855-.1485-.091-.061-.3346.053-.5391.2996-.5391.8281-1.5762.8281-1.5762s.177-.035.3711-.047zm-1.2754.2107-.7675 1.4277c-.1627.3031-.2348.4141-.3633.4161-.077 0-.1727-.038-.3223-.098-.6669-.2653-1.8243-.8096-1.3242-1.2305.8176-.5023 2.5206-.6724 2.7773-.5153zm-79.3105.9533c3.6156 6.3139.6345 12.5865.3945 12.2832l-3.2519-1.2187v-10.1641zm70.5547.7129c-.2382.018-.3583.1822-.2324.5117.1008.2639 1.545 1.3913 2.8222 2.1114 2.7317 1.6627 5.2711 3.0914 8.1856 3.1191.9714.01 1.9876-.1378 3.0625-.4824 1.1008-.4189.9651-1.294-.057-1.1133-.3464.061-.9591.1709-1.3652.2422-2.5084.4404-5.5995-.4695-9.3457-2.7539-.9047-.5517-1.8888-1.0824-2.1328-1.2656-.3442-.2586-.6994-.3875-.9375-.3692zm-2.0352 3.209c-.5953.067.1386 1.1756 1.9199 2.2617 4.6185 2.8161 9.2898 4.8973 13.8711 4.6956 3.3871-.1491 3.9423-.4012 3.9532-1.1425.02-1.3964-.5487-2.0165-3.6973-1.6739-2.725.2966-6.6727-.1301-9.3926-1.3086-3.1026-1.3442-3.84-1.6602-4.9551-2.2382-.8748-.4535-1.4286-.6244-1.6992-.5938zm4.4004 11.2715c5.7498.9408 12.5906.9139 18.5649.5731 1.128-.068 1.1949 2.6906 1.1949 2.6906.7935 8.3598 6.6779 15.2802 10.7519 24.3808-29.919-.8176-60.0233.066-90.164-.1699 0 0 10.9504-19.2068 14.2695-25.252.7267-1.3293.8018-2.269.4102-2.8203-.606-.8529-.5558-2.2964.123-3.1308.737-.3389.4415-.9443.1211-1.6367-.536-1.8414.8485-3.116 2.2969-3.7071 14.96-2.5478 28.5551 6.5237 42.4316 9.0723z" fill="#004c97" stroke-width="1.06258" transform="matrix(-.941705 0 0 -.940506 5696.35 1055.08)"/><path d="m3695.5168 254.85782s11.2036-21.89157 15.1802-27.63993c21.2003-2.28648 16.7112 8.53501 60.5305 8.43788l9.5255 18.91992zm-19.5978-21.80126-.3031-60.553 2.8581 2.67417.6772 60.00025-12.772 12.29796-.07-3.60272zm7.7303-6.81598c3.042-6.15734-.354-13.67654-.3535-13.67354 1.7642.43771 6.6817-8.94576 7.1185-8.675 7.5253 9.28074 8.8296 23.10934-.3649 31.6795-2.3208-5.95711-6.3702-9.33096-6.4001-9.33096zm5.6171-42.24647c5.7178-5.87627 10.2521-10.45344 14.7842-17.02925.3711-.53484-24.1241-31.82361-23.7432-32.37195 3.7787-4.19968 8.844-7.28559 12.7849-12.3568 0 0 20.0884 26.4446 20.5506 26.21218 2.0353-8.27568 3.5258-15.76811 3.1373-24.41847-1.2396-22.13181-10.6445-35.680759-10.7172-35.414263-7.9901 31.863823-42.0416 52.420853-40.589 48.939113l-.035-14.20998c.3718.71136 16.1038-9.10981 24.9237-30.124402.5085-1.211488 15.4436-6.112495 15.3381-6.297991-.6378-1.647785-7.2328-11.030175-7.2328-11.030175s2.664-1.247875 2.9599-1.243493c8.549 10.689733 15 24.772216 17.1951 38.182111 2.6633 14.44344 4.3852 41.59598-24.4152 71.25017zm86.3392-37.36592c-4.5067-14.0664-4.3837-28.62957-2.3114-38.79788 3.1619-18.424962 14.7413-31.617944 24.0286-41.677928l4.0807.136986c-6.9354 6.163618-11.3724 12.130744-13.9867 17.410686l24.0348 31.592996 13.6997-2.9776s-.4132 14.13299.012 14.13299c-10.6472 8.86273-18.299 16.88387-23.7917 29.79639-3.3667 1.25197-14.5278 6.09101-14.5278 6.09101-3.3248-4.43339 15.4017-36.49385 11.7762-35.12532-1.6524-1.37071-19.9487-26.1918-20.3058-26.14051-8.4344 25.96817-.2065 53.23901 14.6323 72.28577-1.6844 1.09736-3.2087 1.9517-3.0691 1.69435-6.356-8.86738-11.9251-19.45461-14.2713-28.4219zm-43.9078-13.01989c.9508 1.48042 5.2269-31.69182-6.0117-58.244859 1.0694-.815026 10.3409-2.598592 10.3409-2.598592l2.4954 7.950383-6.3248 2.693127 1.1676 3.726772c4.9097-2.394933 15.5426-5.930547 22.0832-16.856337 0 0 31.7805-.274289 32.457-.21732.6593.05552-6.4817 6.937398-13.2543 20.869064-3.0935 6.363514-5.5547 14.597192-6.0674 24.257412-.1013 1.90895-7.2714-8.97447-7.2714-8.97447 1.7873-9.195696 6.5667-18.248099 11.3298-27.301285 0 0-7.3081-.417797-12.4138-.267634-7.9399 8.72553-12.9184 13.324321-24.8895 17.491369 2.7415 13.80874-5.0096 15.16337 25.1315 19.53775-3.4183 17.80093-1.9048 39.1298 5.3773 59.41767-6.9772.53306-7.2753.90693-10.9052 1.89455l-2.5158-7.39788 6.8074-3.14975-1.101-4.17552c-.027.002-15.0215 4.56312-22.3661 17.71709l-32.8455.0379c12.6672-13.82218 17.8338-27.49327 20.5849-45.56752 2.6874.48465 8.1915-.84197 8.1915-.84197zm80.7785-119.333211c4.13-3.475318 12.4186-12.5253899 12.4186-12.5253899l.1081 4.6368573-9.4072 9.8380706.095 60.741197-3.1825-3.06719zm-4.3476 22.231659c-1.6942.811537-5.0708 4.803947-6.6806 9.289909-10.8983-9.791731-6.4102-27.786452-.4441-31.532486 1.731 3.929184 6.7441 9.138171 6.6281 9.028754-1.152 4.114204-2.035 8.287702.4966 13.213823zm-96.4934-40.7765483 84.0528.1482943c-4.7945 9.4933561-9.1933 17.167242-14.2893 26.513137-2.6515 3.216722-60.0506-10.387137-60.3201-9.032068z" fill="#ffcd00"/><path d="m3666.2004 242.76665-.5608-79.75592 9.5544 9.33339.5673 61.24848zm43.8401-15.45514c-1.9725-.96071-.068-3.45854-1.2294-5.47747 1.2551-4.06474 11.6857-2.11483 18.0807-.69183 15.925 4.14644 19.5216 9.51807 41.4751 7.52306.1801.30651 2.4174 6.09956 2.2679 6.70956-18.8941 3.74415-43.0041-10.20518-60.5943-8.06332zm34.053-41.29881c-1.9907-1.45046-3.859-1.71912-5.7056-2.03411 3.2402-5.73157 7.1643-10.95483 13.7181-14.2234l3.0499 7.58758c-3.8547 1.99274-7.6387 4.36507-11.0624 8.66993zm-39.8036-19.70453s-2.828 4.64906-5.4969 6.91037c-7.9348-10.69919-25.6776-33.47906-25.6776-33.47906l-7.529 3.83362s-.03-4.41.1405-4.71868c20.3355-10.5377 34.2887-30.45458 40.4332-49.104912 0 0 3.274 3.359717 2.8435 4.781046-5.4985 14.711456-14.9008 29.464786-28.7273 40.529406zm25.3623-21.70413 25.6725.0366 1.1368 8.97472c-9.8305 3.31257-17.9434 10.07966-25.5292 17.90685l-12.1769-.21331c3.9923-8.79617 9.5388-17.7194 10.8968-26.7048zm95.0475-37.81086c.8305 2.53029-.01 5.25978.3128 5.14532-30.7508 15.29354-39.5382 48.86046-39.5382 48.86046s-2.9195-4.64793-2.7862-5.36699c15.9165-35.57521 26.5653-36.63459 28.6111-40.49809l-24.208-31.505099 5.4759-7.489088 25.9649 33.977557c2.5808-1.19535 4.0519-2.1966 6.1677-3.12407zm-15.1623 46.02389c5.2145-9.43071 10.594-14.91278 15.9528-18.68445l-.2602 12.44613zm-143.7657-37.01489.1338-12.07469 15.8397-6.854978c-4.3796 9.600358-10.3247 14.745338-15.9735 18.929668zm70.5671-10.85626-.9366-8.492825c9.6156-4.217769 18.1107-9.858896 24.9686-17.579741 7.3676-.355874 12.3997.14609 12.3597.04555.013-.01491-6.5965 9.870333-11.2452 26.174236zm79.6671-89.211677 8.7522-8.8934182.276 79.5218972-8.7912-8.568042zm-76.9218 64.625924-2.7771-7.868958c4.3682-1.646144 7.6752-5.232126 10.756-8.783192 2.2621 2.57306 6.0297 3.083624 5.984 2.901051-5.4515 8.583268-10.051 11.424586-13.9629 13.751099zm-16.4091-59.592815s-1.0922-.635672-.9723-1.531321c.3615-1.160211-1.1668-3.786809-1.1674-3.786717 18.6389-5.686465 45.7803 10.315598 61.8891 6.949733-.1345 1.131221.051 2.480148-.4057 3.54662.5074 2.266877.8657 2.339859-1.3353 3.72392-11.3172 3.220232-23.2442-3.646311-34.2985-6.928938-9.0184-2.856295-16.3435-2.128557-23.7099-1.973297z" fill="#c8102e"/><path d="m2094.0859 842.27539-93.0175.17383 11.1796 21.08398c-.025.0302-.8939 3.4789.8946 3.89453.5746.13353.903.67101 1.0195 1.18555-.1457 1.46683.5152 2.09011 1.0723 2.84766 8.8424-1.25747 16.5223-.63043 22.8672.80664 14.2542 4.27773 25.6404 10.69692 38.375 8.14258 2.0571-.5256 2.9208-2.3738 2.2382-4.03711-.31-.75567-.7815-.76231-.2285-1.22461.6177-.71763.9451-2.37947.2657-2.98438-.8018-.4626-1.0065.33522-.1622-1.22656zm-1.8828.99805-7.6172 14.15625c-4.5025-.23242-4.342 4.13121-4.1445 4.23828-2.9939-2.15236-6.2126 3.19889-1.832 4.73242-3.5783 3.77047-8.8858.28649-8.5684.0156 5.1064.9742 5.3845-4.76972 2.0567-5.70704 4.5778-6.33308-7.4103-8.79115-5.211-.97656-6.0745-1.10185-4.9761 5.85678-.459 5.79297-1.0566 2.59319-9.3945.62976-9.0351-1.29687 5.6374-.60201 3.3843-5.77349.9453-5.7793 5.895-5.61948-5.9013-10.80122-5.5879-2.33008-4.7328-1.00175-5.2895 5.32404-.7402 5.74024-1.6663 2.36027-7.6174.87322-9.2676-1.82618 4.6965-.62723 4.4036-4.78227.7285-5.45312 4.6578-5.97186-6.8067-8.17873-5.6152-1.23633-4.1078-1.42205-6.3612 4.09626-1.0391 5.67383-5.4517 3.26993-11.3716-1.6038-10.7305-1.70313 6.2214.37049 4.9827-5.90709.4805-5.5664 2.8643-6.51819-8.4861-6.88116-5.6074-.1211-5.1052-.0943-4.6567 5.8638.2344 6.26172-3.0799 2.26093-6.5528 2.4591-8.7872.34375 4.655-1.23298 2.7198-6.68208-1.9628-5.17383-.4333-4.55856-4.1133-3.59082-4.1954-3.45312l-3.2949-6.1875zm32.9473 5.09961-15.2305 15.29297.1973 63.44921c-3.232-3.0615-5.9982-6.32747-9.6973-9.32812l-6.334.0508c-16.5369 16.93599-25.5941 31.42962-27.582 57.38477-1.3298 17.36398 4.3999 39.20022 19.5957 60.36132l3.7109-2.2695-7.332-11.125 15.5313-6.9317c6.1853-13.1306 13.5176-25.24746 26.9297-32.18747l.076-16.99609.2344-.35156-.1777-5.33594-6.6485 3.57031c-1.9832-2.92369-8.3581-11.40633-14.5859-19.61523-6.598-8.6966-12.8281-16.82032-12.8281-16.82032l-.4336.33204.8691-1.0625 27.6035 36.38476s4.3587-2.1498 5.6407-2.86719l-.1739-18.46289.7461.0371zm-1.7363 2.58593.098 3.4004-10.291 10.81835c-.012 21.37575.056 42.75138.127 64.12696l-2.5313-2.51953-.3457-63.19532zm-99.1993.90625c.878.10107 1.5482 1.11845.9239 2.15235-1.3897 2.30161-.3435 4.22809 3.0371 6.00781 4.7645 2.50831 12.5489-.30146 10.9472-4-1.025-1.18118-.075-2.01308 1.2774-1.9707 1.5315.0479 2.0503 1.07864 1.0684 2.18164-1.2254 1.40856-.9039 2.83628.5234 4.46289 4.2781 6.1361 12.9354 3.70295 11.789-1.67383-.5024-1.3361.927-1.87323 2.4122-1.2793.9452.37776.8053 1.84795-.2286 2.36719-1.19.12123-1.3588 1.85662-1.2168 2.9707.2067 1.62066 2.5797 3.21749 4.9278 4.06446 1.6996.61308 3.2792.74562 4.5254.63086 2.6306-.24222 4.0991-2.0408 3.666-4.73633-.2555-1.59028.1856-3.23951 2.039-2.36524 1.0145.47844.7603 1.63421-.2753 2.69922-3.6422 3.58144 3.6916 7.94001 8.1191 4.9375.7506-.62126 1.2988-.72851 1.2988-.72851-2.7765 6.95976-11.4714.44098-11.3906.15625-9.1636 5.14449-13.0313-1.95828-14.3555-3.10352-8.0112 1.78528-9.5813.90683-14.0507-3.95508-8.0219 3.94935-11.9096.59059-15.2579-1.5332-3.9284 3.69623-8.91 3.79842-11.5058 1.94336-.4861-.81774-1.1596-1.85443-1.2149-2.16406-.043-.24119.3236.0389 1.2266.68945 4.7111 3.39428 12.5304-.83347 10.4414-5.30859-.5625-1.20562-.4738-1.72342.3672-2.20703.2987-.20351.6136-.27197.9062-.23829zm-14.9902 2.39454c1.3901.0347 1.7289 2.21479.9981 2.71484-.2807-.58924-1.394-2.63777-1.2891-2.69141.102-.0179.1983-.0258.291-.0234zm114.1719 2.31054.5625 83.28907-9.2891-9.27149-.5117-64.6875zm-99.2695 3.54883c.6352.67956 1.8378 1.35755 2.9082 2.03711l-5.045-.32422c.6669-.45687 1.3207-.88038 2.1368-1.71289zm14.9746 1.53906c.8137.89011 1.5981 1.65904 2.4375 2.38086l-4.6407-1.13086zm42.3925.71289c.2137-.0599.1535.31798-.289 1.25391-.2087.45325-.407.81943-.5645.81445-.3932-.32413-.1219-1.21025.1973-1.51367.3016-.32526.528-.51873.6562-.55469zm17.1211.64844c-12.5987 12.86397-6.6005 27.93898-.1953 35.22656 1.4094-5.10599 8.1035-10.42492 8.0235-10.55078-2.8819-4.53022-2.6331-11.10228-.2715-14.52148-.014.0732-5.1726-4.23763-5.8965-6.47656-.5081-1.4373-.6157-2.41555-1.6602-3.67774zm-.2832.7207.8145 1.35547c-9.0901 10.63734-5.2375 23.70557.059 29.89258l-.9727 1.92383c-12.2329-15.28193-4.1683-29.26995.1-33.17188zm-80.6836.26954c9.8561-.11286 20.8639.63259 29.1641 3.91796 9.2986 2.77838 17.8678 8.15197 30.666 4.55274.3671.005.5588.55314.5371 1.05859-.021.49436-.2035.89162-.6133 1.20703-16.7159 4.246-25.6663-4.84829-39.0195-7.375-6.6026-1.14969-15.269-1.83834-20.9336-1.39257-3.2473.32892-3.9321.22451-3.9121-1.13868.013-.85401-.08-.83426 4.1113-.83007zm35.4864 1.5957 2.455 3.07422-5.5332-2.09766c1.276-.25365 2.1743-.61587 3.0782-.97656zm46.1875 1.01562c.074-.0169.1608.0268.3144.16993.7781.89647-1.3372.97048-.541.0195.093-.096.1528-.17253.2266-.18946zm-79.0098 1.23438c13.1367-.17173 24.2379 2.57077 32.4609 6.31836 8.2043 3.09977 15.7391 4.13726 21.6934 3.22265 3.2698-.50226 3.7512-.58197 3.7383.30274-.6328 2.75715-4.1647 2.49873-6.7383 2.51367-7.2074.0434-15.3081-2.10395-20.9219-4.63867-11.2767-5.09165-22.3136-6.5362-33.6211-5.11524-.541.0817-1.1009.006-1.5039-.42578-1.0256-1.1477-.3282-1.86641 2.2383-2.10547.8936-.0379 1.7785-.0608 2.6543-.0723zm79.5703.54492c.5249.0259 1.1488.26691 1.3965.59375.6375.84128-.1779 3.17846-1.0273 3.16602-.6531-.01-1.5811-2.9868-1.1055-3.54688.141-.16599.4214-.22842.7363-.21289zm-32.2578.48633c.9809.84891 2.0945 1.6747 3.4023 2.46875-2.5929.0264-5.1771-.25275-7.5527-.66406 1.3678-.50903 2.73-.97834 4.1504-1.80469zm30.1426.40039c.2279.007.4137.39137.6328 1.1582.4682 1.63828.4234 1.82067-.5059 2.06055-.5471.13227-1.0104.41938-1.5449.48828-.557-.006-.3785-.8351.5332-2.59375.3876-.74749.6568-1.12003.8848-1.11328zm4.6972 1.75781 2.5411 2.18946c-1.7084 4.07186-2.5542 8.41739.3222 13.95117l-2.6543 2.49609c-3.6831-7.45679-3.452-13.28174-.209-18.63672zm-3.3847 2.19141c.4875.002.8293.16343.9101.61133-.2005 1.19979-.7991 3.27255-1.457 3.12695-1.0191-.22555-2.7341-2.9531-1.2363-3.38867.663-.19283 1.2957-.35134 1.7832-.34961zm8.5859.76562-1.7246 6.15821 1.8945 6.33984.959-.28516-1.8125-6.06445 1.6465-5.87891zm-12.3828 1.07032c.6407-.0225 2.3538 1.88199 2.334 2.47265-.048.29754-1.862 1.49004-2.582 1.97461-.3482.26911-.3257.13042-.3301-.18555-.013-.90173.059-3.23123.3769-4.125.04-.0914.1097-.13351.2012-.13671zm3.4609 3.47656c.3528.0404.3171.53848.295 2.05469-.017 1.14247.051 1.88379-.25 1.91015-.2342.0205-.915-.41755-1.5801-.92773-1.6853-1.29291-1.3112-2.17908.6035-2.80469.3317-.10832.576-.1927.7559-.22266.067-.0112.1253-.0155.1757-.01zm-3.6152 2.72461c.2256.0562.5461.28746.9902.68359 1.2803 1.14191 1.5016 1.41392.3282 2.35352-.3437.2751-.8016.64741-1.0176.64843-.4752.002-.6941-.90199-.752-2.46093-.035-.9254.075-1.31831.4512-1.22461zm3.7637 2.40234c.5274-.0303.8056.55718 1.2304 2.41992.274 1.23199.4597 1.72725.1211 1.71289-.6547.0138-1.2761-.15428-1.7929-.3125-2.4761-.75792-2.5567-2.41587-.1836-3.60742.2457-.12338.4492-.20277.625-.21289zm-2.5039 4.16992c.3891.002 2.0795.43749 2.5742 1.00977-.068.57369-.6023 2.03327-1.0742 2.42578-.6186-.0484-1.4983-2.00803-1.5801-3.4082 0-.0182.024-.0277.08-.0274zm4.1347.88868c.1089-.0186.2149.0168.3125.11914.2355.46384.5118.86512.7286 1.3457.2546.5733.087.85167-.4961 1.42187-.7989.74077-1.4396.79919-2.0293.34375-.2181-.36509.7225-3.10084 1.4843-3.23046zm-1.1718 4.28124.6132.12305-.4101.79883c-.082-.24813-.5564-.9683-.2031-.92188zm-58.1524 22.45899c-4.4689 5.70563-11.8 9.43334-11.8476 9.3457l-.2461.68946s-1.3437.45912-2.5254.68554c-.3791.0726-1.156.22063-1.6719.40235-.7974.28103-1.1933.57896-2.4238.47265-2.5614-.24653-5.1321.50196-5.0782.51563 7.6264 21.17854 9.4304 40.29738 6.4512 62.50586-2.8098-.022-8.9707-.12891-8.9707-.12891-.6198 6.23984-1.4051 12.48351-3.3086 18.37501-2.4439 7.5641-5.3913 14.5959-10.1367 21.0254-2.6796 4.0379-5.0192 6.9108-7.7891 10.6953l35.168-.082c4.6543-7.8765 13.621-14.4544 20.8281-17.1954 2.453-.9278 2.8006-.7903 3.2071.3711.7261 2.0751.69 1.9862-1.2285 2.5372-9.4178 3.3456-15.2371 9.3015-20.0918 16.8906-.516.7999-.6262 1.137-.4004 1.2715 3.1524-.4993 5.0992 1.5472 7.0058 3.0488 2.0072-2.9027 5.3764-6.7328 8.0059-7.8672.7192-.033 1.8421-.6876 2.332-1.3223.6191-.802 1.1593-.6974 1.8457-.6386.8167.012 2.0592-.1691 3.7422-.9414.9537-.4377 1.3893-.5363 2.7871-.6075 1.2455.042 2.4341-.4468 3.4863-.7929 1.2213-.3601.7866-.7099.086-2.295-3.5641-9.2006-6.1182-19.9205-7.0488-28.6523-1.0449-10.01771-.7273-22.16634.664-31.44336 3.4117-.0231 5.5534.15281 9.1465.0918 2.4506-20.06188 9.1007-35.99126 22.3906-50.31836l-35.9277-.0937c-4.1162 11.0543-22.9001 19.48698-23.5176 18.86524l-.9902-4.03516s13.5126-1.94326 22.6133-19.20899c-.9308.56696-4.3191.17273-6.5567-2.16601zm.09.80664c2.3707 1.75393 3.7642 1.93737 5.2265 2.33398-4.0331 7.56584-8.7956 11.53924-13.8047 14.30079l-2.9648-7.8086c4.0969-1.67254 8.345-5.25262 11.543-8.82617zm57.5371 1.91797c-19.5447 18.86991-28.1913 35.01854-28.8731 56.32422-.784 24.50398 6.648 40.80196 19.166 58.16996l-2.6855 1.5312c-12.0074-16.0409-20.5901-37.80503-19.1543-59.27733 1.3753-24.96856 10.7763-39.35791 27.2871-56.64844zm-23.7266 4.37109 8.8145.0117-6.4414 8.375-7.793-.23633zm-25.1133.0703 23.709.0176-5.293 8.26953-14.0351.0703c-6.7842 8.28926-15.154 14.90031-26.1856 18.69336 0 0-1.3619-7.74717-1.666-8.31055 12.6002-4.79149 19.974-11.85269 23.4707-18.74024zm16.668.24415-3.2207 3.70117 2.5 3.23437 3.5234-3.2539zm-7.5352.32421-2.8906 3.7793 3.0742 2.9961 2.9649-3.15626zm-8.5078.19727-.6347 4.89453 4.3007 2.35352.5059-4.76758zm25.1035.50391-3.0742 4.75195 3.7383.16406 3.5742-4.90625zm-46.9003 2.125 2.7578 7.57031c-.7545.44935-1.5436.77745-2.375.95508l-2.3067-7.97461zm-2.8106.92968 2.2793 7.89844c-.9295.48443-1.8595.7223-2.7891 1.02539l-2.5234-8.39258zm-33.6738.29102-3.3125 1.95703-.5059-.3418-34.3418 19.89258-.018 6.04102 39.8614-16.83985c.7909.84729 1.2559 1.79278 1.9218 2.83594l-15.9726 6.83594c-4.8022 13.26927-15.6244 24.26344-25.7168 31.97656.049 13.17255.1113 40.75003.1113 40.75003l24.0176 24.084c3.0799-2.8354 5.811-5.7517 8.543-8.9161l-27.5762-36.54879 2.4453-1.60156 27.2852 36.35935c-.2294.2777-.4692.5358-.7012.8086-.4798-.6183-6.0206-7.7587-12.3965-16.0644-6.6458-8.6574-13.6871-17.9264-15.1308-20.14457l-.5899.38282c1.5233 2.34045 8.5169 11.53035 15.1641 20.18945 6.4208 8.3645 12.0782 15.6543 12.4843 16.1777-2.9025 3.351-5.9823 6.3804-9.0644 9.4063l5.4824-.08c3.8515-3.9595 31.7441-29.8301 27.0469-68.90624-2.009-16.7133-6.6447-31.17222-19.0371-48.25391zm29.3847.125c5.1312 14.72497 9.2092 35.68924 5.0606 62.6582 0 0-1.486.0267-2.1524.0117 4.2671-21.28786.3524-43.88965-6.2304-62.30273zm-29.457.43555c24.463 33.00814 28.8892 81.8368-8.4883 115.5332l-3.2011-.1465c2.7437-2.5542 5.2469-5.163 7.5683-7.8086 0 0 .2051.2657.2051.2657l.5547-.4317s-.2829-.367-.2891-.375c28.6357-33.1086 24.9161-72.72156.9219-105.38476zm98.2168.16211c.021.0278 6.2176 8.10909 12.8027 16.78906 6.1937 8.16378 12.563 16.6498 14.5235 19.52539l-.9473.50781-27.2988-35.69531zm-1.375 1.99609 26.8262 34.94141-6.7676 4.92187-25.207-33.33008zm-43.873.01-.1582 4.7207 4.2597.66015-.053-5.03515zm23.7578 1.87695 2.5449.11523-3.3496 2.30078 2.1484 2.76563 3.4395-2.25977-1.916-2.79492 5.0254.10742-3.461 5.39453c.033-.0518-7.4101-.21484-7.4101-.21484zm-1.4395.15625c-.2813-.0405-10.4188 19.22039-11.5859 27.58008l-26.4492.1289-1.0352-8.99218c8.7439-3.20134 18.1701-8.63333 26.416-18.61915 1.409.0932 12.6543-.0977 12.6543-.0977zm-27.2168 2.86914-.8437 4.40625 3.8047.82422.7519-4.38281zm42.9141 2.6914 24.8633 33.08594-2.586 1.81446-24.1718-32.17969zm-17.8555.77344 7.4688.20508-3.1953 6.29688-7.3457-.0937zm-31.1465.38477-.5429 4.51953 3.916 1.08203.584-4.75781zm33.545.0254-3.4922 2.36328 2.2441 3.15625 3.6309-2.36328zm-38.9395 2.69922-1.334 4.04101 3.7051 1.9961 1.1719-3.76172zm-34.9473.78711c1.1006 1.3659-.6517 7.56467-2.7246 3.60742-.45-.80464-1.0429-1.97461-1.0429-1.97461l1.0605-.39648c.8547 2.94197 1.6408 1.84855 1.7324-.74805.7155-.32231.7922-.37288.9746-.48828zm3.6055 1.80664 2.2149 4.15039c-13.9944 34.72375-32.8573 44.96454-44.2618 51.91009l-.037-4.86712c30.4982-15.23208 41.9197-51.194 42.084-51.19336zm-8.5879.29297c.5743 1.19011 1.557 2.42547 1.7949 3.71484.094.56346-.1884.76975-.8066 1.11914-1.6788.82771-3.546 1.3436-4.8965.62891-.4022-.66732 1.2383-4.39649 1.2383-4.39649zm90.752.80273c1.0432.0693 2.4739.68499 3.6855 1.66992 2.2666 1.84287 3.2404 4.31081 3.5078 9.16211.172 3.11859.4018 3.75312 1.3028 2.4668 1.6198-2.86863 5.4983-1.46555 5.9824 1.56445.2713 1.6042-1.1328 2.76291-1.586 1.3086-1.2021-3.02237-4.1447-2.29637-3.666.70507.3158 1.98025 2.2842 3.07337 6.1719 4.17578 4.6736 1.32529 6.0638 2.93538 6.9746 6.79493.4032 1.70831.3381 2.6028-.5586 3.49609-.4429.44146-1.0058.89063-1.0058.89063s-.624-2.59797-.8848-3.80079c-.4627-2.2096-3.5494-2.08701-3.2012.2168.2033 1.34509.2501 1.31719-.4199 1.28711-3.1866-.15716-2.633-5.21522 1.0391-4.82422.7661-.0922.867-.40814.2187-.67969-.644-.26992-3.1119-.90755-3.4922-.90625-3.9953.0137-9.759-6.1709-9.6172-11.66015.092-3.5899-1.1157-6.17222-2.3515-6.46485-.9827-.23265-2.4087.66649-2.2852 1.76563.1704 1.51642-1.053 1.04239-1.7578-.0469-1.0755-1.50495.3116-3.67606 2.8731-3.50586 1.0898-.21402-.802-.91068-2.2032-1.31835-1.2711-.0732-.1972-1.6488.039-1.92969.1796-.21003.4619-.32876.8125-.36328.1314-.013.2728-.0138.4219-.004zm-17.8399.57813 7.4903.0195-2.3985 6.33789-7.5761-.0723zm-76.9765.34179c-5.7886 16.04757-18.1674 29.79261-29.4922 36.82227l-.047-3.57422c2.391-1.76137 17.573-12.83821 25.4277-31.48438zm79.4785.10742-3.4766 2.41407 2.6758 2.65234 3.6289-2.3125zm-70.7012 2.07618c.4243-.00005.7676.34617.7676.77343s-.3433.7715-.7676.77149c-.4242.00003-.7656-.34423-.7656-.77149s.3414-.77342.7656-.77343zm6.5742.67187c7.4689 17.59041 10.2036 34.71349 4.3731 56.81049l-20.9785-27.414c6.2588-8.01593 12.5017-17.22508 16.6054-29.39649zm-9.1679 1.03906c.4026.0558.4366.50941.3183 1.59571-.2848 2.61579-2.0205 5.48893-3.0859 5.58203-.3552.0311-.8287-.66433-.9688-1.26367-.1701-.72762-1.4222-2.56212-2.2109-3.44141-.9916-1.10556-.9398-1.26072.4805-1.375 1.6915-.13584 3.3445-.46996 4.2968-.81836.5537-.20253.9284-.31279 1.17-.2793zm-18.6309.70313-18.4219 7.15625.051 14.5332c12.5647-9.14277 17.3912-20.23966 18.3711-21.68945zm16.6934.92578c-.7279.0764-2.0413.71205-2.1368 1.16797.021.27265.9201 1.85016 1.461 1.92187.9161-.14418 1.3016-2.23622 1.1426-2.95312-.046-.12661-.2242-.1622-.4668-.13672zm-18.1582.25c-5.2761 8.97466-10.444 14.522-15.5665 18.62305l-.1894-12.00782zm104.6171.006 21.795 28.87109-2.0391 2.04297-21.1621-27.34961zm-91.9941.86719c1.2987-.0233 3.4829 4.92515 2.8145 5.8164-.3343.49364-2.9163.27518-4.293.0762-1.3551-.26446-1.5562-.28985-1.0996-1.41602.6097-1.49408 1.9849-4.18967 2.332-4.4043.078-.0484.1595-.0707.2461-.0723zm75.3379.21875 7.8066.14843-1.8867 6.82227-8.0156-.0469zm3.1641.32617-3.8047 2.59375 3.0019 3.0332 3.6758-2.54297zm11.5566 3.39258 21.0508 27.57617c-8.0763 9.15564-13.5057 19.63776-16.8262 28.71686-7.7951-17.13021-9.6489-36.71776-4.2246-56.29303zm-84.9531 1.73828c.4243-.00004.7675.34422.7675.77148s-.3432.77345-.7675.77344c-.4244.00003-.7676-.34618-.7676-.77344-.0001-.42726.3432-.77149.7676-.77148zm-8.5293.99023c.2199-.0238.5544.0347.9277.19531 1.6591.71385 5.5093-.044 5.6113.32422.5743.82372-.287 3.07102-1.9101 4.62696-.7929.76-1.518 1.25428-1.9375 1.26172-.4197.007-.4973-.57651-.8086-1.58008-.506-1.66234-1.4524-3.19766-2.127-4.53516-.082-.16332.024-.26919.2442-.29297zm-1.1856 1.62891c.6511-.16627 1.4062 1.23595 2.0508 3.32226.595 1.92548.2941 2.40978-.8359 2.42579-.5789.0675-.9782.0575-1.4785.0547-2.8866-.0164-3.8507-.19672-3.0118-1.625 1.12-1.39409 1.7821-2.71845 3.0039-4.00781.088-.0903.1785-.14617.2715-.16992zm5.1074.0918c-.473-.005-1.0345.23681-1.2812.5664-.27.51647-.1549 1.50794.6113 1.91211.447.23576 1.6831-1.60994 1.3399-2.16797-.1333-.21661-.3861-.30752-.67-.31054zm72.7383.0723 7.711.17774-1.4004 8.0957zm67.0625.70703.049 3.99805c-24.569 14.08134-34.6443 30.71558-43.0723 51.80863l-2.3399-4.0352c8.5227-21.85056 21.7887-38.09161 39.7579-48.71484.01.0112.032.0458.039.0566l.5918-.38086c0-.005-.016-.0218-.019-.0273 1.628-.94546 3.2898-1.85079 4.9941-2.70508zm-140.5488 5.34571c.4243-.00002.7676.34422.7676.77148.0001.42726-.3433.77148-.7676.77148-.4243.00002-.7656-.34422-.7656-.77148s.3413-.77148.7656-.77148zm-8.5371.0176c.3094-.0462 1.039.2708 2.1172.38868 1.4495.15847 3.7573-.085 4.3281.31835.2489.32553.019 1.18407-.4453 2.15235-.6546 1.36279-1.8448 2.52372-2.7324 3.05078-2.2481 1.04545-1.7251-.28399-2.0879-1.62891-.2114-.78408-.5325-1.78264-.7774-2.49023-.6016-1.33623-.7118-1.74477-.4023-1.79102zm-1.4707 1.39649c.5807-.0553.9993.74878 1.3808 2.23437.7579 2.48189.9306 3.43464-.9648 3.21875-.527-.005-1.2728-.0251-2.1484-.20703-2.2176-.46141-2.4787-.65927-1.1465-2.22851.4939-.58169 1.2286-1.45893 1.6308-1.95118.4918-.68974.8997-1.03324 1.2481-1.0664zm150.6133.1543-.016 2.16015c-1.8115.63668-2.9645 2.15571.078 2.64258l.049 1.70117c-1.3914-.50746-2.5867-1.2584-4.0215-1.75-.9309-.31868-.6753-1.06932.2891-2.13476 1.0752-1.27813 2.1308-1.9069 3.6211-2.61914zm-145.4317.30468c-.3458-.0191-.7198.0176-.9629.10742-.7479.27634-.2381 2.10339.5 2.09961.6888-.19065 1.6791-1.47545 1.2539-1.98047-.1271-.13175-.4451-.20744-.791-.22656zm138.5899 2.5625c.4243 0 .7676.34618.7676.77344s-.3433.77148-.7676.77148c-.4244 0-.7657-.34422-.7657-.77148s.3413-.77343.7657-.77344zm-64.7793.57617c.5981.0363 1.2617.1875 1.2617.1875-.2652-.089-1.1802 11.67014-1.1074 19.05665.1384 14.06648 2.5077 27.98108 7.9902 41.92178-1.0451.6441-3.623.9727-3.623.9727-3.4601-10.5714-6.526-21.9429-6.9024-32.7305-.3366-11.74901-.5054-18.83266 1.4453-29.16008.026-.13494.176-.20525.3867-.23633.1581-.0233.3495-.0238.5489-.0117zm-17.0703.24219h8.4257v5.60156h6.0176l-.4863 6.38477h-5.5313v5.60156h-8.4257v-5.60156h-6.5918l.5117-6.38477h6.0801zm-66.5352 1.60352c.203-.0396.5187.0598.9473.28711.8325.45187 3.0364.79368 4.2285.69922 1.3565-.10729 1.3171.25913.9199 1.40625-.7037 2.0329-3.4274 4.21968-4.7129 4.2207-.4285 0-.7032-.22499-.6953-.76172.011-.68576-.479-3.65184-.7519-4.46875-.2971-.86823-.2738-1.31684.064-1.38281zm150.1055.19531c.7388-.0292 1.9921.48542 3.664 1.43945 1.4574.83143 1.7292 1.34017 1.002 1.84961-1.2327.75352-4.8426 3.6691-5.5059 3.49024-.8783-.7562-.7047-5.53572.2754-6.56446.1281-.13445.3182-.20512.5645-.21484zm-141.4551.20898c.4243 0 .7676.34423.7676.77149s-.3433.77343-.7676.77344c-.4243 0-.7676-.34618-.7676-.77344-.0001-.42726.3433-.77149.7676-.77149zm138.9824.0762c.4766.0138.6661.26548.5371.76953-.5385 2.1035-.045 5.42388-.1718 6.18945-2.0287-.6789-3.4727-1.60851-5.4688-1.84375-.6008-.0839-.7551-.19556-.4785-.72656.9065-1.74093 2.6165-3.56449 4.4219-4.16016.484-.15977.8742-.23678 1.1601-.22851zm-149.2441.68164c.6595.0167 1.1148 1.11029 1.2969 2.97461.1853 1.89818-.099 2.97943-1.6055 2.73437-.4567.01-1.0225-.0698-1.7031-.22656-2.6374-.59654-3.2252-1.20343-.9766-3.00195.8313-.66485 1.7126-1.49038 1.9687-1.80664.3781-.46674.7198-.68142 1.0196-.67383zm4.4668 1.00586c-.4155-.0142-.8145.0435-.9317.15234-.3594.33372-.1922 1.88417.1075 2.07031.7665.26268 2.3147-1.36971 1.8554-1.9414-.1842-.18068-.6158-.26704-1.0312-.28125zm143.2715.79882c-.2258.0168-.542.17014-.9532.46094-.9729.68789-.9326 1.11973.1641 1.78125.5524.47745 1.1816.53304 1.3379.25781.169-.29774.1257-.97654-.1309-2.14257-.056-.25506-.1922-.37422-.4179-.35743zm-5.7637.93946c.4243-.00001.7676.34422.7676.77148.0001.42726-.3433.77344-.7676.77344-.4243.00001-.7656-.34618-.7656-.77344s.3413-.77148.7656-.77148zm-72.9297.54492v5.58008h6.709v-5.58008zm87.7734.0137.066 3.83203c-18.4496 11.19548-26.4251 32.1673-26.4238 32.1738l-4.3008 1.6407c6.0135-14.4294 14.2297-27.01788 30.6582-37.64653zm-140.4902.83399 20.7383 27.21874-1.3008 3.4375-21.5781-28.49023zm-21.3535 1.17578c.1707.00086.437.13232.8398.36133.6862.39141 2.0811 1.03055 3.5899 1.1621 1.2362.10779 1.3265.62059.9433 1.44141-1.0918 1.81858-3.1578 2.67945-4.8086 3.25-.9024.31191-.4249-2.4376-.7871-5.00391-.078-.85369-.062-1.21238.2227-1.21093zm149.7871.23047c1.7681.14449 4.1495 1.14326 4.1367 2.01953 0 .38007-3.9769 3.76024-4.4082 3.7539-.9776-.0141-2.0602-5.1408-1.1816-5.59765.342-.17784.8637-.22395 1.4531-.17578zm-3.5859.36718c.5086-.033.7042.34338.6503 1.24024-.01.97307.4103 2.66463.9571 3.87109.4252.938.9107 1.566.4453 1.58008-.2793.009-1.1378-.36331-1.8984-.57617-1.1437-.32014-2.0454-.45827-3.0879-.47852-2.0944-.0407-2.3682-.022-1.4668-1.75586.6493-1.24903 2.1119-2.89931 3.1347-3.40234.5432-.29197.9604-.45869 1.2657-.47852zm-147.9493.0742c.5994-.0727.8014.5789.8496 2.2207.087 2.45986-.1759 3.78829-1.4824 3.81641-.5939.0129-1.6121-.35404-2.541-.80859-2.4629-1.20513-2.3963-1.48267.9414-3.86719 1.0602-.81007 1.7663-1.30477 2.2324-1.36133zm9.4336.85742c.4244-.00001.7675.34423.7676.77149 0 .42726-.3432.77344-.7676.77344-.4243.00001-.7656-.34619-.7656-.77344 0-.42727.3413-.77149.7656-.77149zm-6.125.67383c-.2566.0288-.3731.21481-.332.66406.1685 1.60983.1039 1.77856 1.5391.88672.8018-.50613 1.1285-.87028-.035-1.27148-.5176-.17852-.9152-.30814-1.1719-.2793zm143.6973.76367c-.2911-.0392-.6173.13172-.9512.51954-.9349 1.08598-.738 1.58158.6075 1.86718.5609.11913 1.0139.0807 1.3867-.002.6176-.13692.0003-.94236-.3028-1.64453-.1939-.45236-.4491-.70104-.7402-.74024zm-130.0313 2.05469c.376.0386.4883.72937.5313 1.52149.2301 4.24143 6.1572 4.89635 4.082 1.14062-.682-1.2124-.2564-1.68407.9649-1.06641 1.9281.9755 2.5668 3.2872.6972 4.35352-2.2228.89499-1.4714 1.08833 1.3692 2.05469 6.046 2.07996 8.6416 5.89523 8.959 13.16409-.1161 3.3134.3333 4.4947 1.8808 4.9473 1.417.4143 3.0211-1.3988 2.0039-2.3535-.5525-.5189-1.004-.9889-.7109-1.2754.9396-.9187 3.291.572 3.2676 2.1718-.015 1.046-.4081 1.2622-1.9629 2.4922-.4313.3412-.065.9829.5664.9922 2.3765-.7711 2.2099 2.3949.9316 2.4981-4.3744-.1208-8.9743-4.9228-8.5078-8.8809.3288-2.7894-.203-4.8588-.957-3.7168-1.6665 2.5235-6.5755.8466-6.5313-2.1836.023-1.61265 1.0931-1.87939 1.7071-.4238.9073 2.1507 3.4558 2.2052 3.832-.049.3527-2.11308-1.4249-3.66644-6.1797-5.39656-5.5717-1.31601-9.1419-6.50333-6.9453-9.23438.4556-.56648.7767-.77901 1.0019-.75586zm124.1661.0352c.4243-.00002.7656.35008.7656.77734.0001.42726-.3413.77149-.7656.77149-.4244 0-.7735-.34423-.7735-.77149s.3491-.77731.7735-.77734zm-145.9805 1.29101c1.1878.35687 1.923.86274 3.2773 1.31641.8301.2806 1.3211.48122.5879 1.36133-1.1486 1.37898-2.3813 2.24131-3.7812 3.0957l-.01-1.77539c2.2374-.99829 2.02-1.92014-.049-2.42969zm150.5977.7461c1.5931.0617 2.8266.57535 3.3847 1.15429.162-.12199-3.6818 4.50374-4.3867 4.94141-1.5938-1.38601-1.8105-3.87653-1.752-5.76562.718-.19746 1.4071-.29938 2.0508-.32813.2414-.0108.4756-.0108.7032-.002zm-4.1758.42578c.3627-.0198.4115.36102.5097 1.39258.1659 2.00446 1.1773 3.95636 1.6172 5.49609-1.4357-.11305-3.0753-.59031-4.5976-.57422-1.8123.0383-2.3439.16143-2.334-.51562-.021-1.8222 1.6715-4.4089 3.7383-5.38477.5217-.24637.8527-.40216 1.0703-.41406zm-139.8067.0117c.4244-.00001.7677.34616.7676.77343.0001.42726-.3432.77149-.7676.77149-.4242.00001-.7675-.34423-.7675-.77149 0-.42727.3432-.77343.7675-.77343zm163.1211 1.4707c-8.5231 5.72204-15.2355 13.96791-18.8867 22.12701l18.7832-7.9454zm-152.6484.10938 24.5156 32.00583-1.7812 2.6114-25.086-32.74223zm127.8789 1.01953c-.1905.0189-.3937.14166-.6074.37109-.7626.81843-.8659 1.46894-.3848 1.81836.7065.28571 1.2288.32434 2.0156.32812.7175-.0494.3387-.48334-.1933-1.74414-.2302-.54552-.5126-.80492-.8301-.77343zm23.5352.58203-.045 12.03707-16.0644 6.8106c3.2224-7.0326 9.1874-14.00633 16.1094-18.84767zm-108.5997.51953 6.711 9.53904-7.9336-.049zm-46.0527.46875 25.2734 32.89259-5.3222 7.0176-26.5098-35.00394zm126.0274 1.01172c.424-.00001.7675.34422.7675.77148.0001.42726-.3435.77149-.7675.77149-.4244.00001-.7676-.34423-.7676-.77149s.3432-.77148.7676-.77148zm3.2382 1.91797c1.6197.0179 4.1088.39051 4.4668.76171.4925.43026-1.1001 2.27625-1.9941 3.57422-.4609.54347-.9711 2.01637-1.6719 1.36527-1.2503-1.1736-2.8294-5.29149-2.0195-5.58792.2355-.0862.6788-.11927 1.2187-.11328zm-3.0898.72265c.6066.0635.9513.80074 1.1758 2.18164.1298.79841.9636 2.15571 1.6972 3.22661.8197 1.1965.4815 1.3871-1.5957.9062-1.45-.2831-3.2396.062-4.58.1289-1.3099-.093-.073-4.29242 1.8984-5.82421.5827-.45276 1.0403-.65723 1.4043-.61914zm-.6719 2.41211c-.1993.0296-.4331.18024-.7344.44336-1.1178.97627-.6471 2.03398.8809 1.98248 1.2083-.041 1.288-.2064.7148-1.51763-.2922-.66854-.5291-.95756-.8613-.90821zm-5.043 3.52734c.4244 0 .7657.3501.7657.7774 0 .4272-.3413.7734-.7657.7734-.4243 0-.7734-.3462-.7734-.7734-.0001-.4273.3491-.7774.7734-.7774zm-40.6386.5664c.049 2.8744.4182 5.7487.8437 8.6231-11.2562 4.148-19.9745 10.3475-26.3867 18.5429l-12.0859.068c3.6483-6.8321 8.6818-14.6229 11.5078-27.2129zm-35.1817.053 7.9258.1191-2.0918 6.2148-7.5664-.084zm81.7051.3925c1.1816-.01 2.6718.2804 2.5059.8282-.3955 1.0543-3.0067 5.3943-3.252 5.3906-.6955-.01-2.2724-2.439-2.7148-4.1817-.3282-1.2927.02-1.565 2.455-1.9296.2523-.07.612-.1049 1.0059-.1075zm-78.4785.3399-3.7324 2.3203 2.9961 2.8984 3.5234-2.455zm73.4121 1.4961c.4148-.022.7148.3313.8965 1.1836.1506.7066.8893 2.2023 1.8203 3.4062 1.0829 1.4006 1.072 1.434-.5098 1.5332-1.7466-.027-3.18.8182-4.5429.9844-1.851.058-.9368-4.9728 1.4668-6.6895.3306-.2556.6202-.4046.8691-.4179zm34.2031 1.6289-40.9082 17.666 5.9004 8.7519 35.0488-20.5761zm-34.4609 1.3828c-.3667-.04-.6876.2737-.9746.9433-.2799.6534-.029 1.0025.7265 1.0137 1.3654.02 1.7741-.6217.961-1.5019-.2568-.278-.4929-.431-.7129-.4551zm-78.7324 2.4141 7.8535.057-2.4395 5.7656-7.3886-.1328zm3.7207.4121-4.0899 1.9355 2.3203 2.9082 3.6934-2.1367zm77.6953 1.1894c.7859.047.9055.5443.3301 1.7871-1.1329 2.4469-1.5793 3.762-2.3301 3.7676-.584 0-1.2922-.7272-2.0918-2.1426-1.1564-2.0467-1.1189-2.18.7812-2.7695 1.2827-.3418 2.2645-.5847 2.9336-.6367.1394-.011.2647-.013.377-.01zm-7.6035 0c.4243 0 .7656.3521.7656.7793.0001.4273-.3413.7715-.7656.7715-.4244 0-.7735-.3442-.7735-.7715 0-.4272.3491-.7793.7735-.7793zm-35.2969.4531.6758 3.3497-4.1387-1.125-.875 4.1132 4.127 1.2813.8906-4.2481 1.0683 5.3047c.0001 0-14.17 3.4402-23.3476 18.1602l-23.0762-.1094 5.0723-8.0508 13.6777-.1758c8.1848-10.1603 16.9761-15.1177 25.9258-18.5zm36.8418 1.7833c.2312.044.4521.2191.7285.5195.3806.4138 2.1055 3.2461 2.1055 3.2461l-1.4727.7461c-1.788-2.8788-1.7862-1.4867-2.4629.9668l-1.7168.7871c-.2127.043.6938-5.0805 2.0274-6.0039.3186-.2206.5598-.3063.791-.2617zm-77.9551 2.9843 7.541.1133-3.1347 6.3789-7.6114-.047zm2.3672.094-3.1641 2.5429c-.067.054 2.3145 3.336 2.3145 3.336l3.4316-2.8789zm29.0977.1269-.7891 4.6504 4.1367.8633 1.0527-4.334zm-5.8086 3.502-.7832 5.2969 3.8906.8027 1.125-4.457zm-80.3262.059s.1332 62.7483.3144 93.0488l14.3106-14.7832-.055-63.6035zm1.2129 1.7285 8.5449 8.6016v66.2089l-8.5449 8.6211zm49.6269 2.0683 7.67.063-2.8028 5.1874-7.9355-.125zm2.8262.377-3.7519 1.4453 2.4277 2.9395 3.4062-1.9766zm45.0352.8066 2.7714 8.793-2.2812.4961-3.0156-8.4492zm-19.7715.8457-4.6426.1133.3379 4.6387 4.4531-.2266zm16.4414.3379 2.6074 8.5293-2.25.8848-2.9258-8.166zm-3.4375 1.7442 2.8164 7.9746c-6.903 3.2362-8.7491 6.4787-11.1953 9.123-1.5806-1.704-3.4554-2.7007-5.9238-3.0254 3.9452-6.2339 8.7636-11.1086 14.3027-14.0722zm-45.1641 2.2539 8.3281.031-5.4179 8.0508-9.1192.02zm23.3106.168-.6035 4.5195 4.1875 2.1328.5468-5.2871zm-5.1953.2773-3.0059 3.4238 3.1289 3.4805 3.1699-3.5313zm-6.3497.2422-3.3281 3.2851 2.6231 3.459 3.2109-3.3613zm-47.207 1.0703 2.4863 2.5781v62.9121l-12.5996 13.3262v-3.6602l10.1152-10.5058zm35.6875.072-3.1562 4.6992 4.6738.094 2.998-4.7207zm-21.1836 31.8515c-1.7282 3.9066-4.0405 8.8826-7.7832 10.4649 2.7861 5.5743 2.4239 11.146.4473 14.2011 2.8267 2.6494 5.7284 5.8227 7.5293 10.3868 8.9313-7.9403 10.3668-24.2496-.1934-35.0528zm.2168.7383c7.0411 7.4773 10.1242 23.2818.051 32.7891l-.6152-1.5254c7.9543-9.8017 5.4995-22.6687-.2618-29.5352zm-1.8144 4.4707c.089-.013.174-.011.2519.01.5194.1099.748.8516.2383 1.8222-.3183.9158-1.0612 1.6859-1.6816 1.6114-.7559-.099-.6243-1.8364.291-2.8614.3185-.3567.632-.5379.9004-.5781zm2.1054 1.0293c.3288-.028.7045.5093 1.3203 1.7969.6604 1.3808.9326 2.2628.4649 2.2949-1.0966-.2476-2.1252-.6421-2.8887-1.5449-.4496-.5317.1428-1.5617.7832-2.336.1059-.128.2108-.2014.3203-.2109zm-4.8535 2.3535c1.4921.6297 4.7756 12.9335.3008 17.9219l-2.3555-1.9902c1.3008-3.4077 2.1534-7.7345-.459-13.9434.2899-.019 1.9824-1.7012 2.5137-1.9883zm3.1074 1.2949c.9082.014 2.3844.5839 2.793 1.2325.4482.7114-.8515 2.8334-1.7871 3.3945-.3326.2584-.6119.1472-.709.061-.5409-.3934-1.2811-4.1161-.9551-4.5.1161-.1367.3555-.1922.6582-.1875zm-8.0918 1.1172-.9589.2871 1.8125 6.0625-1.6485 5.8809.9629.2695 1.7266-6.1582zm12.1954 1.375c.4297-.061.6752.5869.7773 2.086.06.8806.1249 1.5638-.1387 1.6015-.2049.029-.8452-.3997-1.4511-.7617-1.0535-.6293-1.0774-.9063-.17-2.0801.3998-.5171.7246-.809.9825-.8457zm-3.3848 2.8614c.8156.056 2.4954.578 2.7773 1.6269.475.8954-1.4207 2.3238-2.5312 2.3008-.2057 0-.3848-.053-.5156-.1582l-.1739-3.6719c0-.083.1715-.1162.4434-.098zm29.0156 1.455c-6.2819-.036-9.6164 1.6081-8.4219 4.5782.7652.7728.2428 1.0648-.086 1.5293-1.3299 1.3674-.588 2.3629.2227 3.8769 0 0-10.4086 18.7235-15.6075 28.0527l91.8204.2364-3.6153-6.8555.625-.4277c-.9843-1.6513-1.8215-3.5086-2.8281-5.1465l-.7246.084c-1.1875-2.2911-1.6691-3.1391-3.2227-5.8535h.7012c-.3611-1.2067-1.2876-2.009-1.3066-2.875-.011-1.0775.2666-2.1711-.3907-2.9004-.7787-.864-.8729-1.1032-.7129-1.6094.4249-1.3445-.7839-2.8326-2.0117-2.6992-8.6527 1.1644-17.4506.108-26.2851-2.5059-8.8811-2.6276-16.6328-6.6719-25.2891-7.3691-1.0132-.075-1.9698-.114-2.8672-.1192zm-1.1562.4493c11.5521-.2668 19.48 4.6971 29.2363 7.5937 9.3113 2.7645 16.095 3.632 26.5234 2.5488 1.2857.1078 1.2682.8716 1.2793 1.6211-11.1842 1.5017-21.4698.3809-32.8359-3.9453-11.0019-4.1598-23.1164-8.3111-31.0664-4.5879 0 0-.049-1.5843.8594-2.0332 0 0 .8386-.6836 3.6445-1.0722.804-.067 1.5892-.1073 2.3594-.125zm-23.9883.8378c.4277 0 .4657.8146.2558 2.4551-.1659 1.297-.3956 2.1491-.7461 2.1465-.3088 0-.7944-.7556-1.3906-1.7402-.465-.7682-.3691-1.0583.6602-1.9922.5683-.5786.964-.8701 1.2207-.8692zm-4.082 2.125c.3202-.021 2.5537 1.8797 2.33 2.8614-.4553 1.2436-2.0113.9789-2.9648.9375l.5976-3.7676c0-.019.016-.03.037-.031zm28.0898.8184c.3762-.01.7577-.01 1.1445 0 6.8082.1714 15.1564 3.0877 21.4317 5.4199 14.6722 5.4528 26.0906 5.1367 34.248 4.5137.7181.1415 1.2892 2.0282.1387 2.041-15.255.1693-12.7898 2.086-36.5039-4.92-9.2165-2.7228-16.598-6.9671-27.2539-3.1855l-.051-2.0879c1.8545-1.1987 4.2122-1.7231 6.8457-1.7832zm-25.0547 3.3828c.3945.035.3206.43-.014 1.3633-.3641 1.017-.6901 1.5149-1.0429 1.5234-.2744.01-.5631-.2836-.9004-.8632-.6486-1.1143-.563-1.3292.6953-1.7364.6197-.2005 1.025-.3081 1.2617-.2871zm-4.1836 1.0332s1.1783 1.091 1.7754 2.1621c.4025 1.0403-.8075 1.3216-1.9844 1.4219l-1.125-1.4473zm31.1719.4824c2.071-.027 4.2764.1365 6.4648 1.0118l-5 1.7089-3.4843-2.6484c.6548-.032 1.3292-.063 2.0195-.072zm-5.2344 1.0586c3.9162-.1715 6.663 2.8357 6.5508 2.9727 5.5352-3.216 10.4426-2.5373 14.5898 2.8652 1.0784-.6016 8.7996-2.0184 14.3731 4.1407 5.6238-2.8411 10.8523-1.65 15.498 1.5273 3.4331-3.2632 7.0524-3.7781 10.8125-2.2109l1.1133 2.2539c-.2809.106-1.4941-2.2619-7.3789-1.1582-1.9758.3705-5.3743 3.7139-3.4707 5.3437.8717 1.2413.8967 1.8021.127 2.5547-.7574.7414-2.0496.3583-2.4864-.3848-.3022-.5366-.1713-1.2799.3145-1.8867 2.068-2.5828-4.4281-7.0711-9.1016-6.291-3.557.5937-6.5893 2.7443-5.2812 4.3809 1.0653 1.3328.3695 2.6808-.9102 2.6718-1.3161-.01-2.3731-1.062-1.2324-2.5058 2.5376-3.2118-1.3323-6.9806-7.25-7.0586-4.1847-.055-5.5771.9824-5.3516 3.9844.1062 1.4058-.1688 1.7944-1.1406 2.0078-1.5519.3407-2.3356-1.4504-1.0488-2.8164 2.7788-2.95-.3795-7.2865-5.6348-7.5664-1.9229-.1025-2.3017-.0008-4.4473 1.2187-1.6768.9531-2.2689 2.3932-1.4472 3.5117 1.0575 1.4396-.3674 3.1597-2.0137 2.4512-1.1766-.5064-1.7565-1.4149-.4551-2.9551 1.7098-2.0234.8571-3.5725-2.3925-4.8183-2.0579-.789-3.4936-.7228-4.6836-.2129-.75.3212-1.4033.8193-2.0528 1.3886.8072-1.4036 1.5235-2.707 1.5235-2.707 1.0074-.4525 1.9732-.6616 2.8769-.7012zm18.6504 1.5625c2.2732.7181 4.4831 1.5163 6.5391 2.5078l-3.5118.7247zm-19.1133 1.2325c.2272-.01.4597-.01.6953.01 1.131.072 2.3224.4467 3.2129 1.3242-3.6493-.4922-4.9419 4.3689-.4843 5.4492-5.8767 4.3988 5.1481 10.9844 5.2793 1.8848 5.1841.9192 4.511-5.979 1.2226-6.5157 1.6822-1.8674 6.6276-1.9186 9.2129 2.0176-4.3976-2.2997-6.7771 3.6352-2.209 5.2969-5.638 4.9782 5.403 9.5677 5.1445 1.5234 4.1614 2.4832 7.0222-3.847 1.4668-4.8183.3168-1.1392 7.5912-1.148 9.4375 1.7969-5.1583-1.1852-5.3958 5.1377-.8437 5.6523-4.5692 5.8387 7.0289 8.7923 5.082.8242 4.4812 1.7845 6.1746-3.8398 1.8106-5.6465-.2423-.8952 7.0666-1.6571 9.625 1.5723-5.6178.8488-3.6507 6.331-.012 5.8926 0 0-.052.1561-.2578.6894-1.718 5.5029 7.5178 5.9641 6.2383.1289-.2048-.5371-.4297-1.2539-.4297-1.2539 2.5464.5223 4.1023-.5221 3.918-2.9277-.6341-3.1941-2.3096-2.9565-4.4531-2.3203-.8991-.946 5.1711-4.1089 8.9824-1.2852-4.6677 1.3506-2.3042 6.8588 1.6016 6.1153.1616 1.7579 2.0592 4.2224 4.5332 3.0195l2.6191 5.1855-88.6875-.01 7.5977-13.2051c4.0609.7409 5.0145-2.698 5.0761-3.1816 5.2741 1.3613 4.4642-5.5251 1.8184-5.9903-.093-.5462 1.2122-1.1648 2.8027-1.2304zm-23.9511.027c.41-.039.8123.019.6503.2285l-.7578.9473-.5918-.8242c-.1284-.1784.2892-.313.6993-.3516zm18.5781 2.8789c.5869.6606.7573 2.0639-1.0176 2.1016zm39.3574 1.0293 4.7871 1.0117-2.5098 1.2149zm14.8066 1.9453 4.8555.029-2.1426 1.6875zm15.6075 5.0137c.042-.02.1068.032.1972.1914.191.3372 1.1878 1.8445 1.1407 1.8906-.4637.039-.9244-.4433-1.1309-.8242-.2462-.4802-.3338-1.198-.2089-1.2578z" fill="#100f08" stroke-width="1.06258" transform="matrix(-.941705 0 0 -.940506 5666.21 1047.55)"/><g fill="#c8102e"><path d="m3693.815 50.25c-5.1862-8.5648-10.6424-16.8891-17.4609-24 6.8185-7.1108 12.2747-15.4351 17.4609-24 5.1862 8.5649 10.6424 16.8892 17.4609 24-6.8185 7.1109-12.2747 15.4352-17.4609 24z"/><path d="m3651.3748 39.5284c-2.1609-3.5686-4.4344-7.0371-7.2754-10 2.841-2.9628 5.1145-6.4313 7.2754-10 2.1609 3.5687 4.4343 7.0372 7.2754 10-2.8411 2.9629-5.1145 6.4314-7.2754 10z"/><path d="m3796.8858 200.6833c-5.1862 8.5649-10.6424 16.8892-17.4609 24 6.8185 7.1109 12.2747 15.4352 17.4609 24 5.1862-8.5648 10.6424-16.8891 17.4609-24-6.8185-7.1108-12.2747-15.4351-17.4609-24z"/><path d="m3839.3269 211.393c-2.1609 3.5687-4.4344 7.0372-7.2754 10 2.841 2.9629 5.1145 6.4314 7.2754 10 2.1609-3.5686 4.4343-7.0371 7.2754-10-2.8411-2.9628-5.1145-6.4313-7.2754-10z"/><path d="m3652.1723 12.75783h3.3197l-4.8767-12.185-3.726 5.1471.026 7.0379h2.6165v3.6295h-9.2211v-3.6295h3.0381v-26.20443l-3.0381.012v-3.1726h9.3561v3.28h-2.5818l-.055 12.77156 8.1669-12.87896h-2.8826v-3.1726h9.954v3.1726h-2.6266l-6.7244 10.5247 6.5842 15.67313h2.9224l.015 3.6296h-10.2356l-.031-3.6348z"/><path d="m3838.5294 238.1635h-3.3197l4.8767 12.185 3.726-5.1472-.026-7.0378h-2.6165v-3.6296h9.2211v3.6296h-3.0381v26.2044l3.0381-.012v3.1726h-9.3561v-3.28h2.5818l.055-12.7716-8.1669 12.879h2.8826v3.1726h-9.954v-3.1726h2.6266l6.7244-10.5247-6.5842-15.6731h-2.9224l-.015-3.6296h10.2356l.031 3.6348z"/></g></g></svg>