<svg height="88.000275mm" viewBox="0 0 238.11099 332.59947" width="63.000198mm" xmlns="http://www.w3.org/2000/svg"><rect fill="#fff" height="332.5994820368" rx="11.38947239199" ry="11.3749795467" width="238.1109840945" x="-.000042465" y=".00000971691"/><g fill="#c8102e" stroke-width="1.06667"><path d="m119.0554442489 86.0748248332c-5.5319746207-9.135815216-11.3519714748-18.015096297-18.6250608698-25.60008 7.273089395-7.584877036 13.0930862491-16.464158117 18.6250608698-25.60008 5.5319746207 9.135921883 11.3519714748 18.015202964 18.6250608698 25.60008-7.273089395 7.584983703-13.0930862491 16.464264784-18.6250608698 25.60008z"/><path d="m18.3651135926 74.63841362786c-2.3049885364-3.80651536199-4.7299881145-7.50626132366-7.7604402513-10.66669679999 3.0304521368-3.16033094267 5.4554517149-6.860074771 7.7604402513-10.6667 2.3049885364 3.806625229 4.7299881145 7.50636905733 7.7604402513 10.6667-3.0304521368 3.16043547633-5.4554517149 6.860181438-7.7604402513 10.66669679999z"/><path d="m219.7465429076 279.29467131c-2.3049885364-3.806518562-4.7299881145-7.506263457-7.7604402513-10.6667 3.0304521368-3.160329876 5.4554517149-6.860074771 7.7604402513-10.6667 2.3049885364 3.806625229 4.7299881145 7.506370124 7.7604402513 10.6667-3.0304521368 3.160436543-5.4554517149 6.860181438-7.7604402513 10.6667z"/><path d="m119.0554442489 297.7248835709c-5.5319746207-9.135815216-11.3519821415-18.015096297-18.6250608698-25.60008 7.2730787283-7.584877036 13.0930862491-16.464158117 18.6250608698-25.60008 5.5319746207 9.135921883 11.3519714748 18.015202964 18.6250608698 25.60008-7.273089395 7.584983703-13.0930862491 16.464264784-18.6250608698 25.60008z"/><path d="m8.3454129478 49.884994407.171520536-2.17067345c.541655026-6.707540961 1.98293953-8.970374699 10.15789841-15.972529914 3.968865736-3.394357274 5.270309803-5.069135841 5.452710373-7.012075246.519788291-4.582947655-3.535477715-6.013245458-6.176765969-6.034258857-3.423050697-.03093343-7.295916133 2.051953079-5.447270356 6.893354875l-3.841292004 1.149550259c-.772055746-4.515960779.02240007-8.752454018 3.616437968-10.63256656 4.799908333-2.451420994 10.9547009-1.490351324 14.062337278 2.371847412 2.088646527 2.591048097 2.565874685 6.176659302 1.445444517 8.982854738-3.273503563 7.168449068-14.377751597 10.322485591-15.29391446 18.616804844h12.272678352v-4.617934431h3.616437968v8.501039899l-20.036222613-.07573357z"/><path d="m229.7630648758 282.714628664-.171520536 2.17067345c-.541655026 6.707434294-1.98293953 8.970268032-10.15789841 15.972529914-3.968865736 3.394250607-5.270309803 5.069029174-5.452710373 7.012075246-.519788291 4.582947655 3.535477715 6.013245458 6.176765969 6.034258857 3.423050697.03093343 7.295916133-2.051953079 5.447270356-6.893354875l3.841292004-1.149550259c.772055746 4.515854112-.02240007 8.752454018-3.616437968 10.63256656-4.799908333 2.451420994-10.9547009 1.490351324-14.062337278-2.371847412-2.088646527-2.591048097-2.565874685-6.176659302-1.445444517-8.982854738 3.273503563-7.168449068 14.377751597-10.322485591 15.29391446-18.616804844h-12.272678352v4.617934431h-3.616437968v-8.501039899l20.036222613.07573357z"/></g></svg>