<svg height="88.000275mm" viewBox="0 0 238.11099 332.59947" width="63.000198mm" xmlns="http://www.w3.org/2000/svg"><g transform="matrix(1.06667 0 0 1.06667 -3594.1565 32.4747)"><rect fill="#fff" height="311.81104" rx="10.677597" ry="10.66401" width="223.22835" x="3369.5112" y="-30.444937"/><path d="m3509.9605-4.1526832s25.3538 36.7376112 33.9524 43.2579892c.6323.297358 11.2334-1.732539 11.2334-1.732539-5.4336-13.040072-8.9288-26.531244-5.4028-41.6564101zm14.0882 58.1018172c-17.4788 4.945536-34.925 9.596376-53.8735 1.534806l-20.6935 20.042339c-.1718.516799 24.9989 11.417513 25.4231 10.141935-12.3399 33.292266 6.8995 39.336946 19.1484 2.715517 16.0341-2.104911 35.2691-4.284705 51.1669-15.348529-13.7612-8.291158-21.1857-19.184708-21.1714-19.086068zm-105.1303 5.926571c-6.6246-4.075305-11.8026 4.312096-6.9519 8.500264-.5702 2.446546-.7636 6.087913 1.5977 7.687735 2.1697 1.374941 6.2166-.05114 6.8008-.036.042.0011.1049 4.403881-.2324 4.392525-.6275-.02112-2.9964-2.043962-4.4576-2.483123-4.9375-1.483972-11.9414-2.451255-11.8186-2.195888.206.428372-1.171 1.678632 4.3387 5.146736 2.0466 1.288233 8.5126-.162728 13.6623 1.465717 3.1375.992119 5.9561 2.574944 7.6595 1.7534 4.4922-1.230485 6.2485-7.113964 5.9407-7.070764-.15-.177733-13.5839 3.464935-12.3203 4.103941l-.041-5.108175c5.2986.584577 10.0808-3.264843 4.8735-9.864569 3.878-3.864215-1.5466-13.073868-9.0511-6.291797zm22.0746 23.363408c-13.0313 13.168517-39.6678 37.882357-39.6678 37.882357l.2851 18.44459 26.0223 23.34358c2.0615-24.7803 16.109-47.90803 29.4844-59.47779 1.2285-3.51856-13.2913-18.958136-16.124-20.192737zm92.845 4.555409c-1.9634 15.237088-3.748 36.016168-29.5339 59.113568 4.4682 7.62847 10.1557 15.39259 18.3407 19.09823.5811 1.3106 23.6578-23.93832 37.8546-35.8761l-.075-16.17023zm-116.2168 3.270943c-.054.331876-1.0059 4.334163-1.2514 4.22824.019.21788 2.6407-.97607 2.937-2.073529.2598-.962222.8609-2.266042.9002-2.450268-.591-4.120031-1.7086-1.193837-2.5858.295557zm-9.6531 10.652275c-.9368 2.2678-1.8133 6.4334-1.49 9.14461 4.6165 2.31649 5.8712-7.31977 4.6296-8.2409-.7436-.31494-2.5064-.92592-3.1396-.90371zm142.5739 44.18237c-.4281 1.92171-.3377 2.49178.5156 2.86682 1.494.65667 2.1659-.13643 3.3659-3.26608.7142-1.86273 1.3507-4.66582.7746-5.78037-2.8317-1.98058-4.3282 4.72813-4.6561 6.17963zm-80.7406 16.17012c-18.9477 3.00901-37.9076 4.86597-52.9548 16.6325 1.6956-.19899 19.9325 16.96924 20.8762 19.38406 27.8702-13.64756 54.9395-3.33882 54.9395-3.33882l20.3966-19.70601c.7859-.37318-22.1838-9.85877-26.5112-11.45748 15.6432-42.21134-9.1304-35.86757-16.7463-1.51425zm74.586-4.81938c-1.2389 1.00147-1.8621 1.9091-2.8274 3.20806l.9731 1.57736 2.4933-2.75672zm-17.849 17.7605c2.6263-1.18787 11.9488-5.71823 12.3492-4.67098l-.1974 4.53519c-1.4263-.46782-10.6311 1.05746-5.3076 10.58253-3.3526 7.56654 4.1183 11.46888 9.3518 6.46579 10.9685 3.77235 9.5002-7.22951 7.2371-9.00729 1.7837-2.77732-.4582-8.6911-1.574-8.71157 0 0 9.5714 2.16314 8.6355.45482-.4272-.77976-.9617-2.12413-3.0888-3.54782-2.4515-1.64083-6.7583-1.04527-10.2443-1.77633-3.7265-.7815-6.1259-2.11773-9.2576-2.30617-4.727.43188-9.1391 4.59161-7.9039 7.98183zm-106.6659 35.70904-13.1879 3.53326c5.5056 13.6067 7.6824 26.11542 6.1049 41.36526l38.2758.19414z" fill="#ffcd00"/><path d="m3454.2412 255.67803c-16.7941-24.02915-32.3554-46.88668-53.0158-72.07906 0 0 .017-9.73665.09-19.39379l63.4708 91.23613zm33.9993-38.79748c-.541-4.5639-1.4683-10.02531-2.8017-14.72605l11.589-10.95371c-1.2507 9.78808-3.1705 17.29769-8.7873 25.67976zm55.386-34.52446c2.5935 3.45335-1.7832 5.3704-3.4359 3.83353-3.3506-3.11579 1.5574-6.33501 3.4359-3.83353zm-114.9071-21.74737c-1.9229 1.23544 3.4557-30.1132 18.22-46.31451 8.9802 25.78644-6.8643 40.24412-18.22 46.31451zm72.8386-.11601-9.8057-2.65321 4.6168-13.74734s9.4723 2.16241 8.6872 5.01699c-2.5561 9.293-3.4983 11.38356-3.4983 11.38356zm-45.393-5.2845c2.6551-4.37605 4.671-9.20069 6.5269-14.1376l9.8229-.20516-4.936 13.6241zm59.0982-19.2916c-7.5891-15.14799 1.3514-39.124007 17.8637-45.723366-.5949 15.361656-5.3494 30.921766-17.8637 45.723366zm-51.0068-4.30407c.3341-5.38031-.2808-11.01855-1.0231-16.01541 10.4671 2.41765 21.8767 4.03585 34.5148 4.612l1.2059 14.50276c-11.2239-2.06136-22.6438-3.53355-34.6976-3.09935zm25.0701-22.09883c1.1173-4.49686 2.5493-8.89908 4.5009-13.145068l11.9592-.558374c-.062-.233803-5.1025 7.977632-6.3101 13.905032-1.9042-.20218-10.15-.20159-10.15-.20159zm-22.6743-3.58487c-3.4907-1.23485-8.2635-1.57978-10.1196-4.28596l3.6309-11.534358 10.754 3.307143zm30.1791-110.0547032 8.4278-.080642s40.4942 51.9418792 55.6714 72.1549832c-.5057 2.057475.1694 19.493469.1694 19.493469-21.4974-30.328212-64.2686-91.5678102-64.2686-91.5678102zm-78.194 73.2586442c-3.5926-3.627543 2.0152-6.50169 4.0625-3.743531 1.6551 2.229797-1.8682 5.959177-4.0625 3.743531zm45.9772-9.30137c.1307-12.036806 8.6452-26.321843 8.5569-25.956784-.099-.02352 1.2136 11.767015 2.8499 15.477237-.4415.653736-11.0041 11.233916-11.4068 10.479547z" fill="#c8102e"/><path d="m1704.3066 848.51953v279.80077h173.375v-279.80077zm2.1602 2.125h76.2793s.08 1.10008-.1016 5.85547c-.3298 9.66469-.7352 19.79008-.1035 29.64258.1062 3.40974.037 6.77659.5254 10.15039.4754 3.28672.6848 6.8313 2.2148 9.89258.6149 1.65949.636 1.53173-1.707 3.70507-1.1494 1.06615-2.1267 2.20028-2.084 2.4004.014.0666-.052.31729.125.17578.1174-.0942.9665-.93752 1.0606-1.04883.6347-.75117 1.6969.21243 5.3203 1.23828.7106.2012 1.7125.87311 2.4785 1.42969 5.4161 4.58123 13.0374 3.15277 18.7344.65429 1.6167-.70905 2.013-.7826 4.6113-1.09179 9.622-1.14501 19.9025-5.36464 19.8809-5.35156l1.2558 2.06445s.472-.0879.8086.43164c5.5343 10.49164 23.6024 22.48113 23.2813 21.92578l-11.8086 6.5625c.9062 1.12396 1.9578 2.34244 3.0762 3.60156l.1835.043.072.24805c9.5177 10.65576 25.0391 24.86133 25.0391 24.86133v26c-5.2784 4.23782-10.4856 9.09621-15.127 13.83981-1.3345 1.3259-2.2764 2.0823-1.7695 2.1074 1.2047-.1843 2.2441 1.0087 3.2246 1.836.621.6949.4722.6307-.2441 1.58-.5034.6669-.6894.8598-.6914 1.3418.018.9329.013 1.5583-.8145 2.2578-.5139.6473-.8076 1.0628-.9004 1.8301-.092.766-.087 1.2579-.6113 1.9356-.8895.1898-.9731 1.4888-.8164 2.0703.9314.9272.505 1.9314.5918 1.7207-1.7789 1.9381-3.6454 3.6178-2.4532.9082.5376-1.0089.7247-1.8457.7247-1.8457s-.8565.89-1.3047 1.3105c-.6858.6374-.9367.2636-.9571-1.7148-.088-1.4972-.717-3.5873-.9668-3.9863-.1396-.2232-.1623.1638-.098 1.6054.086 1.8963.3097 2.4465-.3555 4.3399-.8986 2.5576-1.5376 2.9202-.078 2.832 1.3827-.084 2.5512-.1 3.1562.7285.2039.2791.4669.7572 1.0254 1.0391 1.1375.6239 2.0417 1.3178 2.6739 2.0078 2.045 2.2321 1.4596 4.2262-2.4942 2.873-2.0816-.7123-.7199-1.6099 1.5176-1.4023 1.3744.1292 1.6074-.3807.418-.7461-2.2131-.4107-2.5702-.6597-4.0293 1.082-6.1282-.6087-9.5691-4.0481-11.2227-6.8496-.6915-1.1716-.8957-1.481-.414-2.1445-2.5159.8567-5.6132 5.1439-7.7696 7.1445-6.3397-3.611-14.1689-10.1229-18.6445-17.5215-2.225 4.1905-4.8399 11.8167-4.8399 11.8164l-9.9492-2.789-.1172.209 9.834 2.8437-.959 3.2949c-.104.356-1.625 4.1055-1.625 4.1055l15.3614 7.1953c-1.329 2.3342-3.6889 3.1293-4.0762 5.6602l21.2969-20.3926s2.7474 4.0901 3.7695 5.0176c.9584.8697 1.2568 1.08.1387 1.3398-5.0041.7361-8.8874 4.5409-7.5332 9.6426.2187.5676.6583.3587 1.6074-.2402 3.3225-3.0201 11.4434-5.8171 11.7207-5.1075l.033 3.2481c-8.7431.127-7.8472 6.5786-7.207 10.0391 0 .075-2.5293 2.2949-2.5293 2.2949.8941.4706 1.7694.9572 2.5957 1.5371-.7684 4.3039 2.8859 10.541 10.0625 7.3476.6204.6389 1.2064 1.282 1.8906 2.084.7343-.8535 1.5801-2.8652 1.5801-2.8652 3.5647 1.619 10.9629-2.0053 7.1797-10.3066l2.0839-1.9961-2.0019-1.2676c-.052-2.1106-.3773-3.9953-1.6328-5.834 0 0 3.3651.8608 5.8555 1.0059 1.5375.1395 2.8343.1793 2.705-.7539-.038-.2749-.2677-1.6184-.4179-2.0586-.7427-2.1745-4.5962-3.7716-8.3379-3.9825-.6103-.034-1.268-.015-1.3985-.1738-.2445-.2983.1936-.7226.5957-.6523 2.0491.3578 4.02-1.1619 4.375-3.0957.07-.3391.4891-.9608 1.0899-1.6211 1.0662-1.1717 1.151-1.1393 1.1308-2.8321-.014-1.1751.1906-1.4369.7305-2.2246.6968-1.1231 1.0203-2.5874.6699-4.1035-.1109-.4803-.564-1.1602-.1777-2.3574.6283-1.9473-.7522-3.7296-2.5625-4.7442-1.0556.7539-2.6455.1546-3.8633-.4218-.4126-.2035 1.3997-10.7678 5.1524-9.8242.6238.3798.8869 2.2156.8398 2.248.1728 0 .2652-1.0804.022-1.7988-.2544-.7528-.8358-1.47-1.9551-1.2578-.8679.1645-1.8707 1.3202-2.3242 1.9004-1.7528 2.2423-1.7718 3.675-2.3574 6.0605-.2815 1.1275-.3125 1.0612-1.8672-.1582-1.1158-.8753-1.6579-1.1547-1.2696-1.668.1745-.2306.8985-.959.8985-.959l14.2109-13.12102v131.83202l-77.4453.0001.5371-17.3263c1.4415-11.8723-1.0929-36.8036-3.0117-39.1484 1.4799-1.6689 6.0716-5.6935 5.8184-5.875l-.6094-.3614-2.4277 2.2422-5.9961-1.8222c-2.5576-1.773-5.1675-3.4137-7.875-4.1114-4.4212-1.1392-12.9358 2.4918-12.9434 2.5293-13.6034 1.0111-24.4982 6.5541-24.3457 6.5118-.5925-.5461-1.3759-2.2878-1.3965-2.2774-7.0122-9.7952-13.9061-15.2832-23.3242-21.9785l11.9297-6.6133-28.2696-29.6465-.248-24.07221 40.9492-39.29688c.2414-.67855 13.0654 9.09093 17.8399 17.04102.9154-3.8863 2.6203-7.41463 4.041-11.23047.1487-.34903 8.1488 2.96678 10.5215 3.10742.3548.021.6406-.35351.6406-.35351l-10.5567-3.44532 2.1583-6.20703s.7513-1.68513-.098-1.96484c-4.8121-1.56234-9.3274-4.31771-13.9297-6.66406 0 0 2.1493-2.39778 2.1816-2.50391.031-.0999.9011-1.38834.6934-1.83203-2.3412 2.27994-21.4473 20.06641-21.4473 20.06641-.5434-3.05237-1.3965-4.12046-3.2539-6.00391 1.0121-.0488 2.5963-1.05325 3.5118-1.72266 2.7999-2.04745 4.3237-5.69947 3.957-7.83398-2.6879.85821-5.1158 1.86312-8.4824 2.47656-1.8917.34468-3.6853 1.2031-4.7735 2.12305l-.1679-3.40625c.011.0388 4.5301.79672 6.625-2.25 1.8052-2.62562 1.0648-5.63171.6503-7.16406.047-.34027-.054-.3018.7247-1.02149.5747-.53127 1.4707-1.21875 1.4707-1.21875.038-.19327-2.3351-1.07614-2.7364-1.88281.6321-6.31227-4.3935-8.74854-8.6465-7.62695-.7949.24064-1.1738.3907-2.1191-.66602-.1408-.15743-1.2754-1.36133-1.2754-1.36133s-.4994 1.16037-.7558 1.66797c-.8342 1.65079-1.0633 1.15373-2.8614 1.24219-4.555.2241-6.5885 3.91543-5.5429 8.44726.2454 1.06375.1352.89911-.5606 2.24414-.3554.68694-.9355 1.56446-.9355 1.56446s.8355.46417 1.3984.7168c.8337.37413.8783.81219.875 1.64648.1164 1.83907.517 3.07078 1.5703 4.65039-3.5681.0824-6.3043-.253-9.5351-1.33008.4944 4.98684 4.157 6.84349 8.6425 7.57422 0 0-.4716.44207-.9668.63867-1.0493.30524-1.705 1.22994-1.6953 2.0586-.151.79138-.6629 1.5869-1.1328 2.00976-.6984.60666-1.271 1.46144-.9961 3.11524-.07 1.19828-.3584 1.54447-.709 2.00195-.7038.91878-.9431 1.83151-.7675 3.03906.082.5619.2563 1.7663.1406 3.00977-.1931 2.07266.5455 2.8496 1.4844 4.30859.6083.94525.4804.97033.3398 1.65625-.3378 1.64698-.6899 2.49335-1.0547 3.7461-.8162 2.80289-.8471 4.92756-.1797 5.4746 1.0058.82428 2.1441.57626 2.6739.41211 3.9684-1.22975 3.2811-5.14071 3.4902-7.76562.1133-.67486.3434-.99846.5664-.9668 1.122 1.31817 2.3085 2.07933 3.8359 2.91016-5.2816 5.39533-8.6633 8.69813-15.3398 14.58398zm77.4473 0h3.1855c-.6722 1.25669-3.1813 5.18055-3.4082 4.12891zm4.4257 0h1.8575c-1.813 4.31759-4.3508 6.92823-6.7559 9.54297l.082-2.77734c.074.17406 3.6022-3.88304 4.8164-6.76563zm3.1973 0h1.834s.053.86647-.166 1.47266c-1.3895 4.50195-10.0137 13.04808-9.7656 11.76758l-.088-2.20508c-.038.0948 6.4787-6.35716 8.1855-11.03516zm3.1445 0h2.0039c6.5552 11.43441 18.288 15.43595 21.2403 16.20703l1.7168 2.51563c-13.8338-2.7212-21.2421-11.63407-24.7207-17.14649-.2706-.42883-.2403-1.57617-.2403-1.57617zm3.4004 0h2.1172c4.3871 7.31352 12.2576 11.33845 14.9824 12.18945.7267.8041 1.5119 2.27434 1.8164 2.59961-7.3468-1.99725-15.5777-8.36002-18.916-14.78906zm3.2168 0h1.9336c2.3365 3.38418 5.9982 5.85513 8.0606 7.47461 1.109.87263 2.5724 2.65405 2.4355 3.00781-4.5928-1.45695-9.9645-6.696-12.4297-10.48242zm2.9571 0h2.5468c1.087 1.579 2.0741 2.86173 3.2168 4.47656.2129.30784.3426.67207.2891.81055-.1735.4485-.6897.1158-2.1172-1.1543-2.3416-2.08336-3.9355-4.13281-3.9355-4.13281zm3.3535 0h55.4883c-1.4104 15.49343-1.657 27.47463 6.3515 43.54297-1.4467 1.52281-12.3448 1.95475-15.7793 3.75781-.063.43285.8828 1.18164.8828 1.18164 3.593-1.67357 17.6035-3.20117 17.6035-3.20117-5.8673-10.26534-10.6962-30.13848-7.0624-45.28125h10.5156v74.76758s.1241 14.21238.4238 22.32617c-5.3842-6.9842-12.3199-16.54981-16.9824-23.79101-5.6566-7.98733-11.9534-17.358-18.4199-26.14844-1.9065-2.76954-4.6238-6.36214-6.8418-9.59766-3.4824-4.99671-6.363-8.87496-9.9746-14.2539-3.8567-5.56942-7.5545-10.62277-12.1387-17.08985-3.8858-5.50414-4.0664-6.21289-4.0664-6.21289zm-13.3809 2.19141 1.2754 2.04101c-3.093 5.11904-6.9716 9.73029-12.1445 13.36524l-.027-2.67383c5.8703-4.24319 8.4072-8.5077 10.8965-12.73242zm2.0645 2.95703c3.6876 4.98612 11.634 12.70182 24.3789 15.00781 0 0 .7236.65678 1.7793 2.09961 1.3394 1.83034 1.3604 1.90267 1.5371 4.90234.1185 5.48986 1.8954 12.94145 3.6602 17.62891-.2186 1.16537-.4221 1.75866-2.6113 4.72656-9.1224 12.36756-28.5563 24.06548-38.1309 8.09961-3.1931-5.11501-3.5045-14.92213-3.707-21.03711 0 0 .061-.4306.084-.54687.2304-1.11006.5468-.93445 2.2753-.45899 1.7522.75495 3.5773.14505 5.4317-.36132 2.1114-.85601 2.2862-.19658.25 1.71093-.7042.65967-1.5653 1.66763-1.4746 1.61914.09-.0485 1.2752-.53352 1.7988-.93359 1.6271-1.24323 2.0112-.76669 1.4082.60156-2.5579 5.80419-3.0121 6.03426.5859 7.64649.75.33607 1.261.71143 1.6817 1.08007 2.4601 2.32395 1.5765 1.07273.8887.006-1.0584-1.67002-.1017-2.5517 1.6855-1.51757 1.1939.69102 2.7622 1.24687 3.6152.98242 1.6556-.541 2.1611-2.36023 1.67-4.36328-.3931-1.1078-2.6546-3.06561-2.1328-1.01758 1.3594-.0614 2.5331 1.87547 1.3515 3.18555-.8916 1.20682-2.4815.5537-4.9199-1.06446-1.3475-1.01653-2.9834-.49639-2.9199.75391.043.83949-1.1425.64585-1.9121-.42383-.4273-.59395-.1369-2.30372.666-3.92383 5.0555-10.20188.7941-20.09342-7.961-17.30469-.9627.30669-1.832.55469-1.832.55469l-.047-3.90234c5.0269-3.51602 10.358-9.12273 12.8985-13.75zm11.9629 15.83594c-2.6215-.0857-5.0847.59224-6.8457 2.47851-1.32 1.59945-.8534 3.02355 2.0449 1.58985 2.3601-1.16747 2.6875-1.30514 5.2597-1.39844 3.6507-.13243 6.9279 1.03265 10.9825 3.52929 2.6873 1.65474 3.079 1.78094 2.3496.74415-1.4923-2.86655-8.0239-6.75483-13.791-6.94336zm-21.3145 2.77148c.6977-.00082 1.4577.0356 2.0703.18555 2.5337.64063 4.9665 2.31976 4.543 3.01562-.1523.25032-.3005.29787-.6231.12891-1.8535-.91898-4.807-2.42135-9.0781-.58789-.4708.20211-.7327-.11182-.7305-.68164 0-1.10611 1.8589-1.98922 3.8184-2.06055zm22.959 1.4707c-1.8976-.0215-3.908.61961-6.1699 1.94922-1.5103.78777-2.0282 1.20754-2.67.85547-1.5327-.84096-1.2097-.18143-.2578 1.51172.6718 1.19477.6662 1.43971.5664 2.17188-.1083.79568-.093.82707.6778 1.67773 1.4414 1.90118 2.8752 3.73546 5.0332 5.17773.6728.4497 1.5727.96081 1.6406.96289.2148.007.1326-.16652-.2519-.54296-2.7638-2.66846-4.9432-5.05884-2.129-4.04297 3.277 1.07244 6.3937-.2645 8.9493-1.13672 1.0418-.32253 2.1367-.59392 2.4082-.59375 2.3603.002 2.9176-.98473 1.4082-2.48828-3.1912-3.59188-6.0424-5.46617-9.2051-5.50196zm.027.67969c1.9958.0274 4.1197.76505 5.918 2.3457 1.0557.97853 1.6114 1.51077 1.5059 1.76563-.1132.27345-.9253-.18914-2.2871-.91797-2.7398-1.46614-5.8455-1.81231-9.7266-.6875-3.0131.87326-2.1233-.5128 1.2344-1.81641 1.0081-.4666 2.158-.70589 3.3554-.68945zm-22.2168.36719c2.3016-.037 4.6979.72019 6.3008 2.10742 1.1183.96777.3017 1.1939-1.5156.43945-2.749-1.14119-5.0667-1.32354-7.3223-.26367-.7079.33269-1.5247.72867-1.748.70703-.3771-.25613-.5375-1.00044-.211-1.52734.9068-.89312 2.706-1.43409 4.4961-1.46289zm37.9336.79297c.1689.007.4243.27533.8028.80859.6885.97013.7132 1.44986.1425 3.14844-.6968 2.07399-.9751 1.7372-1.1503-1.15625-.1137-1.8773-.1174-2.81476.205-2.80078zm2.2832 3.12695c.2626-.0374.5685.42601 1.0586 1.38672.3422.67049.2616.87123-.8066 4.00977-.4471 1.31354-.8676 2.36009-.8789 2.36914-.3288.2599-.2873.23694-.4278.0566-.7618-.9769-.7064-2.88261-.051-5.16602.4969-1.73054.7676-2.60817 1.1054-2.65625zm-20.7402.23633c.083-.007.5937.10547.5937.10547-.053 4.64876 3.5299 3.71216 4.004.41015 0 0 .8825-.0912 1.0175.12891.4245.69136-.5609 2.68128-2.0351 3.33203-1.0759.482-2.5386.36378-3.4121-.44336-.2444-.45479-.9838-2.1821-.8457-2.89844.172-.41828.4289-.61321.6777-.63476zm-16.3516.52539c.285.0186.4041.14714.4512.52734.1829 1.53456-1.3471 3.20231-3.3301 3.29297-1.9189.21542-2.9555-1.27734-2.8965-2.73437 0-1.10757.9551-1.24659 1.0606-.3711.3044 2.52805 2.4565 2.67331 3.4394 1.27735.3719-.54707.287-1.89459.9317-1.97852.1353-.0132.2487-.0199.3437-.0137zm14.2188.0176c.037-.002.071-.002.1074 0 .3515.018.6073.11371.7461.54101l.7676 2.36133c-.5647.67745-2.7112-.69435-2.707-1.72461 0-.71143.5368-1.1505 1.0859-1.17773zm9.0019.50976c.1527-.006.3573.0511.6582.1543 1.9795.63417 2.0329.94248.3399 1.55469-2.0191.7301-2.1498.82399-1.6758-.58985.2644-.7887.3416-1.1052.6777-1.11914zm-20.9824.22266c1.4674.0912 1.5913 1.33782.3008 1.75391-1.9217.85119-2.5707.79485-1.8262-.46094.4038-.8895.7654-1.27597 1.5254-1.29297zm-9.1797.44922c.1748-.001.3754.0661.5899.22656.2205.66825.5936 1.18208.8886 1.87305-.3014.30016-1.0205.29629-1.4785-.0684-.9183-.73084-.7618-2.02164 0-2.03125zm46.1348 1.43945c.5698.004 1.1505.90882 1.3398 1.58399-1.991 2.56729-1.6776 7.36134-2.1406 8.80859-.4012 1.17765-.531.16144-1.6387-2.88867-.447-1.23115 1.8051-7.35224 2.3262-7.48828.037-.01.076-.0159.1133-.0156zm2.0371 2.63086c.4432.2539 1.044.83832 1.1504 1.75586.062.53248-.2 1.23936-.3691 1.93945-.4022 1.66456-.9471 4.80936-1.1426 7.71485-.083 1.23652-.078 2.3494-.1328 2.45703-.5993 1.17822-1.8621-1.99169-1.7539-4.51563.3924-2.01506.6122-9.07471 2.248-9.35156zm1.8359 2.85547c.2192-.063.5254.14355.9766.76758.2813.39233.4583.69294.5449 1.03125.1507.58793.024 1.28972-.3203 2.78711-.9134 3.9688-.7795 8.24722-.1836 12.63867.1253.9239-.5136.46033-1.4804-1.13086-.5362-.88231-.8805-2.0917-1.045-3.51953-.3368-3.12163.3128-7.35309.8653-10.69141.1528-.92339.2774-1.7778.6425-1.88281zm2.4922 3.18359 1.5996 1.9336s-.6838 4.44911-.6796 6.82226c-.1115.8889.7946 10.5561 1.0898 11.33789-.9825-1.10473-1.4423-1.7544-2.5195-3.14257-.1225.0201-1.0541-9.52337-.4102-13.17383.3894-2.20794.9199-3.77735.9199-3.77735zm2.5098 3.84375c.2684-.01.6082.29426 1.0371.89844.387.5451.5767.99292.5977 1.67188.015.49488-.2288.87713-.2364 1.75976-.046 5.25824.6618 10.21939 1.5528 15.00391.3143 1.71174-.2972 1.01468-1.3086-.0684-.9272-.99175-.9444-1.36974-1.4395-2.7793-.099-.28128-1.0844-9.97792-1.0762-10.71094.035-3.01322.1207-4.69102.4668-5.41406.113-.23613.2453-.35544.4063-.36133zm-10.6699.40821c1.5671 3.41209 2.9773 6.90317 4.8574 10.1582 0 0-1.86.96051-2.3477.62305-.786-2.15162-3.623-7.91154-3.6718-8.93164.05-.3351 1.1621-1.84961 1.1621-1.84961zm-29.5137 2.83203c-.239.0314-.4622.153-.6602.4082-.5615.6617-1.2303.38587-2.5839-.21094-.6939-.21379-.5859.0719-1.7325.66993-.8892.46372-1.202.47575-1.791.4707-.777-.007-1.0563-.28084-1.0586.26758 0 .30334-.047 1.67612-.2304 2.38476-.2498.96451-.4674 1.38928-.3301 1.55664.3951.3633.7275.14177 1.5605-.66601 1.382-1.33993 2.314-.95533 3.8535-.45703 1.751.5667 2.1135.77468 3.7149.21289 2.2687-.7959 3.6337-.79618 4.5371-.21875 1.5569.99516 2.0281.93574 1.3867-1.78516-.2067-.87716-.2223-2.23712-.3496-2.47266-.1443-.26685-.5388.49363-.9531.77344-.7919.53487-1.2027.52638-2.9883-.0606-.7932-.26097-1.6579-.96741-2.375-.87304zm27.582.46875c.1672-.0326.3345.0472.4746.29492.6909 1.63424 3.4411 7.09491 3.3575 7.70508-.5358.4828-1.2527.83416-1.6778.40234-1.3749-2.51821-1.787-3.87683-2.9043-6.70312-.25-.50671.2487-1.60145.75-1.69922zm15.2442.0937c.1948-.0272.6016.3788.9043.78515.9417 1.26449.9975 1.42037 1.0273 2.77539.1081 4.91324.7242 10.69674 2.1035 15.15625.2715.87771.7865 1.94494.7305 2.08985-.4625.67664-2.6087-1.13495-3.2559-3.89063-.8927-3.49922-1.4153-7.15078-1.6992-9.52734-.3594-4.18014-.356-7.17063.1895-7.38867zm-16.9395 2.21093c.1655-.0171.3176.11528.4414.49805.7923 1.53348 1.789 4.18 2.461 5.76758.3063.68931-1.259 1.23246-1.6192.99805-.6258-.46898-.9232-1.78893-1.334-2.58008-1.3075-2.86922-1.5409-2.92847-.8164-3.82227.2789-.3883.5914-.83287.8672-.86133zm20.043 2.25782c.115.00007.2646.11373.4531.35742.8265.98056 1.3875 1.72845 1.6035 2.45508.1569.52734.032.92338.088 1.8789.1478 2.50298.8029 5.91826 2.6582 12.91016.181.68189.4252 1.48961.3946 1.70898-.1794 1.28369-2.0535-.79783-2.5997-2.94726-.6332-2.43988-1.7884-5.5543-2.1289-8.43555-.7009-4.57336-1.0899-7.92813-.4687-7.92773zm-22.2676.23242c.4498.0857.6894.89123 1.0137 1.61719 1.5599 3.65352 1.6833 3.6464.7012 3.93554-1.0382.30565-1.101.20652-2.3204-2.28125-.8898-1.81539-1.0666-2.04488-.3183-2.69922.2856-.33781.5203-.51054.7168-.5625.074-.0195.1428-.0218.207-.01zm-20.7109.74609c-.1777.004-.6993.40066-1.2246.60938-1.2888.51195-3.5779.54677-4.9727.125-2.4718-.996-1.7761.29692.4102 1.08398 1.6967.57288 5.0574.12965 5.5781-.93164.3205-.33964.4373-.89137.209-.88672zm18.4004 1.79493c.1487-.0267.2855.006.3925.125 1.3924 2.16011 1.8115 3.02334 1.5762 3.1914-.2227.22336-1.3261.64092-1.7793.41797-.5692-.27993-1.0645-1.61436-1.3144-2.66016.1308-.38308.6787-.99403 1.125-1.07421zm-34.4864 1.03515c.6224.002 2.2405 2.1861 1.9121 2.58008-.091.20247-.6974.01-2.1152-.38477-.4734-.17474-1.5436-.31495-1.2051-1.0039.1685-.313 1.1605-1.1924 1.4082-1.19141zm32.2305.71485c.054-.008.1041-.003.1484.0176.2125.19036.8975 1.86706 1.0059 2.26172-.1392.37337-1.1891.45929-1.6348.43164-.3838-.80085-.483-1.18281-.5898-1.71289.1268-.27846.693-.94435 1.0703-.99804zm30.1231.17382h.01c.2221.008.6069.39738 1.1777 1.2168 1.079 1.54844.9328 1.4361 1.7071 5.13477.8789 4.19459 1.9303 7.18223 2.9922 11.46679.015.71102-.2737.52196-1.0606.041-1.2853-.78566-1.7065-1.65788-2.1113-3.93164-.6908-3.75577-2.1513-7.23101-2.7109-11.66797-.2944-1.4611-.3191-2.26408 0-2.25977zm-32.3829 1.49805c.7589-.0259.6568 1.14788.4395 1.33789-.5545.48489-2.0833.33987-2.3457.36719-.5871-.9241 1.4116-1.67379 1.9062-1.70508zm36.2403 3.99219c.2232.0309.8223.87945 1.9433 2.46094 1.0771 1.51949.8417 1.27055 1.4864 3.77148.9119 3.45589 2.4205 5.9485 3.3046 9.12891 0 .36369-.4381.31681-.8574.14453-.8163-.34336-1.5451-.9222-2.2363-1.49024-.4731-.51259-.4704-1.16422-1.8672-5.98633-.5041-1.73981-.6342-2.1927-1.2637-4.83593-.5263-2.21032-.7628-3.22837-.5097-3.19336zm-116.7852 10.32431c3.6624 6.76501 2.3059 9.76418-5.5722 10.70117-.5688-.0802-.031 3.46598-.047 5.05078 3.9473-2.26643 8.7201-2.79592 13.1191-4.21875-1.1977 3.84952-3.3005 8.21277-9.6679 7.54102-6.8068-5.16234-14.4897-2.06046-19.8047-4.15626-2.891-1.08107-3.9949-4.30467-4.0293-4.85742 3.4669.34861 7.3807 1.09357 10.7402.84961-3.6697-2.83754-2.5973-6.76304-2.0801-8.55859-4.3685-5.26068-.7116-11.53931 5.5293-10.12695.6446.1469 1.916.77539 1.916.77539 7.1228-6.21965 12.9825.88508 9.8966 7zm121.7266-3.29111c.249-.0238.7994.62903 1.9023 2.17774 3.2715 4.59397 6.1035 8.86698 6.0606 9.10742-.1414.79129-3.5499-.59516-4.4102-1.72852-.9799-1.29106-3.7365-7.93798-3.7324-8.99414 0-.35253.05-.55004.1797-.5625zm-133.2363 19.67575c1.7017.25088 2.1779.39668 2.1601 1.06446.1456.56697-4.1295.64133-4.709.2207-.4629-.33593.1328-1.0715.5899-1.24805.67-.18657 1.3042-.0999 1.959-.0371zm117.4335.8223c-23.5754 11.47834-33.1658 41.36734-21.1816 64.31054l-1.6582 1.2032c-11.8205-24.40284-3.0276-50.55365 16.1777-63.75984.7778-.55476 2.4971-.98359 3.2969-1.51562 0 0-7.8342 1.7947-10.4863 2.83594-.5379-.0184-2.1184.54065-3.8164 2.38867-1.4842 1.38039-6.125 7.80388-5.9766 8.02734l-12.332.49805.012.45703 12.1035-.28125c-12.4631 20.59737-9.4024 40.19651-1.707 53.91218l.2793.2597c4.1529-2.2966 8.4104-6.6002 11.3027-10.4043-6.9953-22.68483.5169-40.50207 20.125-50.66797.019-.30859-.043-.90669-.1074-1.42578l-1.3711-1.32617c-21.7793 9.68703-30.4973 33.63515-21.6269 55.41802l-1.4649 1.6015c-11.1011-22.46674.6942-50.51023 21.375-58.68359l-.8555-.82812c-22.4339 10.56537-32.1883 37.32574-21.1679 60.14651l-1.3907 1.2344c-12.5351-24.98162.6036-52.96445 21.2696-62.62896zm-121.1484.0215s-.1569 1.33367.3125 1.78906c.2157.95171-.1289.84733-.9355.6543-1.9857-.47517-.4369.65898 1.1875 1.57422 1.6001.90157 1.3847.87131-.012 1.75977-.9383.59727-.841.82211-.7148 1.27539.1871.6728.3161.2242.7051-.13477.8168-.75369 1.4694-.94231 2.1953-.93945 1.0901.004 1.2008.88118 1.0078 1.56445-.4335 1.43403-1.9053 1.35655-3.1113 1-1.973-.58326-5.1945-4.01725-5.1446-6.03906-.137-1.81141 2.3313-2.58665 4.5098-2.50391zm7.6914.0547c.3902-.008.8875.28376 1.1757.38672.7645.2821 1.7268.66073 2.7852 1.10547 1.4624.46641 2.9447 1.22574 3.9004 1.86523 2.9099 1.94722 2.7315 5.84162 2.5215 6.22852l-15.0352 14.30273s-.8487-.41656-1.6484-.82617c-2.5279-1.29469-3.1354-1.97837-1.7324-2.69531.6805-.34779.9006-1.09488.998-1.82617.1305-.97986.079-.81336.6621-1.25977 1.016-.77692 1.0653-1.0972 1.0703-2.38867 0-.85486.091-1.24829.4004-1.78516.7563-1.4692.4312-2.59324 1.0352-4.07031.831-.82608 1.2234-3.0572 1.957-2.43164.7241.75945.4475 1.79632.4883 2.33789.1344-.13388.7383-.42062.8633-.44922.3149-.0721.63.036.7109.53125-.1095 1.40034-.025 2.88638.2246 4.2168 1.1165 3.86721.9568 3.32355.5156.11328-.2376-1.72892-.2608-3.16091.4375-4.7793.6599-1.15422.6947-1.38097-.7363-1.94922-.5318-.21116-1.4377-.58257-1.625-.95117-.2292-.45116-.9105-1.06376-1.7988-1.27344-2.1599-.50986-3.4174-2.60494-3.1055-2.91601.2043-.20389 1.0747.0624 1.625.082 1.9719.0704 2.39-.0302 3.2637-.7832.4652-.40101.6747-.759 1.0449-.78516zm103.5195 2.70508c-20.1985 16.4026-23.7385 42.93539-13.6621 63.41016l-1.7441 1.375c-12.6632-24.01678-4.157-49.9253 11.4004-64.09376zm-116.6113 1.95508c.3565-.0335.746.49043 2.1641 2.01171.9551 1.02466 1.9496 1.91582 2.4726 2.21485 1.1865.57024.9291.33159-.061 1.27344-1.0107 1.16372-.4521 2.122-1.6602 1.53906-3.1427-1.48079-5.3505-5.84386-3.3066-6.89453.1542-.0793.2719-.13336.3906-.14453zm-1.5625 4.58789c.076-.006.16.005.2422.0254.3876.095.8565.82578 1.3613 1.33593 1.397 1.4118 2.0457 2.03949 3.1621 2.53516 1.0973.48715 1.1277.6049.3555 1.46484-.281.31276-.4497.68915-.5156.89844-.066.2093-.082.47411-.3184.51953-1.2234.23574-5.2893-2.23941-5.4492-3.94726.1314-1.59736.5333-2.78376 1.1621-2.83203zm8.6172.47461c.7054-.0182 1.1192.61171 1.1152 1.63476 0 .70869-.4009.99715-1.2089 1.30078-1.727.64902-2.7915-.59136-1.584-1.96094.5075-.57558 1.1951-.96218 1.6777-.9746zm-1.0547 4.16406c1.3028.005 1.6798 1.10737.7246 2.05859-.8972.89351-2.7069.89843-2.7031-.082 0-.76913 1.1494-1.97983 1.9785-1.97656zm-8.0781 1.31836c.8815.26149 3.0272 1.81372 3.9707 1.99609.05.52315-.5782.66647.3125 1.65039.4044.44668.4395.75144.088.93946-1.0761.57555-4.8049-1.24402-5.0547-3.11719-.1213-.91463.1821-1.43592.6836-1.46875zm4.8652 2.24218c1.2826.0537 2.7328.0919 2.5801.70704-.1106.44603-.5691 1.62473-1.1562 1.40429-.2854-.10714-.5635-.39305-.7618-.58398-.6844-.65892-.8652-1.53585-.6621-1.52735zm-3.9863 3.0625c.7856-.38818 3.2868.39837 3.5313 1.01563 1.0183 2.57186-.3217 8.1618-2.6563 8.71875-.8955.21364-1.9373.54016-2.625-1.0625-.096-.01 1.4209-8.51418 1.75-8.67188zm53.3242 1.48829c-.5507.40114-.621.45811-.834.77929 3.7362 3.39531 17.3098 38.8616-10.9765 64.7012l-6.0039 1.8066c27.1581-21.4045 22.6407-51.79314 15.3125-64.90233-.7752.15903-1.0781.86158-1.1993 1.02735 8.2769 12.78377 11.3706 48.87468-21.1933 66.32228.011.012.1469.1493.1484.1523.033.065.2099.2388.3535.3653.057-.4693 14.6911-4.0369 13.6582-4.127 13.6404-12.1027 25.5182-40.96703 10.7344-66.12499zm-4.9082 4.40234c-.6753.71215-.7397.6093-.9726 1.03711 11.7527 23.15996.8408 51.64094-20.8497 62.40234.3916.4022.4937.5083.8008.8262 24.8772-13.5178 31.896-42.17834 21.0215-64.26565zm-1.9219 1.97266c-.5157.34063-.5853.33899-.8671.88671 9.7625 19.77778 2.1093 47.22118-21.0684 58.48238.1941.1983.5007.5175.8789.9043 27.0167-14.5766 29.5201-42.29242 21.0566-60.27339zm-2.2421 2.36132c-.9174 1.22399-2.7637 2.93941-2.7637 2.93941 2.9171 2.22256 9.8445 34.92336-19.5039 49.40236-.014 1.0494-.8828 1.9702 1.0586 3.2325 21.2544-9.6646 30.5021-35.35375 21.209-55.57432zm106.625 40.42387c.7825.055 1.4847.2935 2.2109.3886 2.64.3435 4.3537 2.2761 3.1738 3.4512-.3876.386-.9293.1643-2.6445-.6777-.7881-.387-.9151-.7506-1.0781-1.6231-.1955-1.0463-.4032-1.1514-.668-.3398-.2676.8201-.5558 1.3286-1.457 1.1211-2.5313-.5906-1.5757-2.34.4629-2.3203zm-1.7735 3.3437c1.3302.068 1.2253.9835.2969 1.8262-.8726.6633-1.4707.791-1.9629.293-.8624-.8724.3358-2.1868 1.666-2.1192zm3.2344.5859c.8384 0 1.9074.3839 3.1777 1.4434 1.5164 1.2648 1.8631 4.3274.4707 4.8574-.583.2219-.6748 0-1.9179-1.1816-.8382-.7995-1.7474-1.5216-2.6426-1.9492-1.8277-.8731-2.061-1.2042-.8262-1.7989.2602-.1337.5961-.448.75-.6953.3172-.5099.4147-.6731.9883-.6758zm-4.5274 2.9493c1.2847.093 1.4528 1.6193.3106 2.1816-.3299.268-1.3968-.1266-1.4551.1699.079.5201-.444.301-.5449.1133-.1769-.2207-.2177-.5355-.2168-.7891.02-.8438.9711-1.7853 1.9062-1.6757zm2.3633 1.123c.05 0 .1115-.0004.1895.01.2425.01.5669.1548 1.0742.4277 3.0809 1.689 4.5877 4.3374 3.5449 5.832-.6838.9803-1.7979.6051-2.6465-.7851-.4778-.7831-1.7472-1.7847-3.1875-2.5176-1.6495-.8394-1.6836-.9601-.4921-1.5332.4887-.2352.8547-.5672 1.0937-.9902.208-.3681.2728-.4339.4238-.4395zm-3.1367 3.4336c.5794.03 1.1417.2355 1.2969.8106.2031.7524-1.235 1.1968-2.3985 1.2168-.5923.011-1.2771.1261-1.455-.2911-.1669-.3913.4062-1.1124.6445-1.289.4718-.3318.8669-.3613 1.3418-.4239.1822-.022.3772-.033.5703-.023zm2.7871 1.4121c.5904.1274 1.2107 1.1538 1.5254 1.4688 2.3276 2.3291 2.0612 3.5906.5488 4.539-1.032.6473-2.6876.8077-3.2304.2715-.8773-.7694-.8547-1.6503.1152-1.9336.9045-.1942.5658-.5581-.2793-.7734-3.0182-.8597-4.8722-2.4679-1.5918-2.1192.9415.1002 1.8533-.6342 2.3457-1.2207.178-.2168.3696-.2748.5664-.2324zm-157.1992 2.3653 67.7891 97.1406h-54.7774c1.9289-15.4503-1.943-32.5969-7.0644-43.7852 5.5738-.9489 10.8846-2.4291 16.1992-3.8984l-1.0801-1.4043c-6.3413 2.5434-12.1913 3.4742-17.6992 4.1055 7.3113 12.4905 9.9208 29.7089 7.7285 44.9824h-10.4414v-75.4141zm142.6387 3.2949c4.6928 1.4501 9.1616 3.7274 13.5097 3.373 2.3945.014 4.8434.4023 7.1641 1.6524 1.5662.7414 2.3809 3.5234 2.3809 3.5234-2.4571 1.2901-10.1055-1.0254-10.1055-1.0254 4.8536 3.1274 3.1425 8.9 2.1035 9.6094 6.7021 8.5-3.7173 12.8507-7.0234 9.7949-4.8943 4.8814-13.2911.7919-10.0567-7.2539 0 0-6.1477-11.7854 5.9746-10.998 0 0 .2093-4.7628-.1328-4.9805-4.066-.3308-8.9461 3.1757-13.0039 5.3398-1.2169-6.3383 4.8205-8.0621 9.1895-9.0351zm-130.4981 11.1621c.9592-.038 3.3507 1.656 3.6426 2.9297.059.2608.6805 1.8272 1.377 3.2832.014.2688 2.3687 4.538 1.3339 4.166-2.0588-2.8078-5.7368-7.5883-6.6621-9.918 0-.3103.04-.4503.3086-.4609zm5.0039 2.6933c.5353.027 1.9693 1.1944 2.334 1.5762.1287.7054.8418 2.5504 1.4043 3.7656 1.4661 3.1675 3.7348 8.1333 3.2735 9.5469-.1524.4667-.1529.6928-.2116.6638-1.0479-1.2246-2.0459-2.9852-3.0245-4.2668-.055-.1067.02-.1735-.2327-1.1431-1.0113-4.6063-2.6453-7.0253-3.707-9.7168-.095-.3159-.014-.4347.164-.4258zm3.6407 2.2793c.1974.1392 2.8899 2.0399 3.1621 2.3125.9545 3.4063 4.7688 14.3178 3.7812 16.2676-.344-.2703-1.7981-2.029-2-2.9355-.4399-5.2181-2.0898-8.9723-3.8594-12.8614-.4978-1.1723-.8883-2.3437-1.0839-2.7832zm5.0625 3.8321c.8523.4175 1.7346 1.373 2.2343 2.2265.334.5793.5059 1.2607.8203 2.6953.9757 4.4522 2.8371 8.9659 2 13.7168-.522.7106-1.658-.8994-1.8203-2.4863-.5379-5.2613-1.0005-7.7832-2.8437-13.9707-.3576-1.2003-.6282-2.1401-.3906-2.1816zm4.3242 4.082c.182.01.5554.3473 1.1777.9336 1.2104 1.1404 1.3815 1.5595 1.3887 3.4512.039 2.7805.9624 5.9562 1.1054 8.7636.083 1.6196.3766 5.81.127 6.0586-.3523.4877-1.9136-1.288-1.793-4.0097.1991-3.2717.036-5.7343-1.3535-11.3946-.6421-2.616-.9658-3.7342-.6875-3.7988h.035zm3.7285 3.9375c.4486.054 1.5483 1.6265 2.0449 3.0645.456 1.3331.3065 3.026.6387 4.4628.7459 4.9238.6999 9.8567.5019 11.3477-.099.7426-.5755.4407-1.2285-.2676-.9495-1.03-.8178-1.0525-.8066-3.9121.011-2.4507-.5318-8.5058-.7813-9.7363-.4612-2.2758-.6531-4.4475-.5449-4.8203.03-.1045.092-.1487.1758-.1387zm42.4785.4688c.6519 0 1.3042.041 1.957.1191 4.8929.7821 8.8037 4.1349 11.045 9.6543 2.1636 5.6124 2.6973 13.2703 3.0332 20.3105-.023 1.6843-.7151 1.2596-2.5274.2129-1.9801-.9708-2.4008-.6904-5.291-.025-1.8034.4145-1.6407-.8171 1.3262-2.8593 1.0102-.6616 2.1851-1.5457 1.7988-1.6778-.1958-.067-1.0986.177-1.752.7071-2.9107 2.3613-3.7007 2.9366-2.8613.6406.2121-.5802.8862-2.1901 1.168-2.961 1.0545-2.8848-.1614-4.1191-3.7422-5.9453-.8961-.457-1.4841-1.2208-.5898.375.7312 1.3051-.7821 2.3591-2.6543.8321-1.3013-1.0614-3.9157-.3538-4.7598.9707-.8176 1.2827-.3791 3.6757 1.2324 4.4511 1.4201.614 1.9497.1708.5762-.7851-1.7665-1.2294-1.4233-3.3028.5605-3.2949.4899 0 1.3555.5504 3.543 1.7441 1.5653.8501 2.6798.4901 2.6816-.7793 0-.8495.4862-.7802 1.5157-.2695 1.3865.6877 1.2343 1.3114.5019 3.2344-.4941 1.3427-.7405 2.8698-1.1933 4.2734-1.1679 4.7246-1.3233 10.0744-.031 11.7422 3.4348 4.4358 7.0817 3.9664 10.2051 1.0351l-.1328 4.8575c-3.1848 2.5658-6.9061 4.3149-12.6504 13.8261-2.0031-2.5259-10.5981-12.8509-24.3809-15.1836l-3.1015-4.2597c.053-.2642-2.3171-15.8413-3.8672-21.1446 0 0 1.7049-2.6 3.2539-4.5156 5.8014-7.1745 15.358-15.3205 25.1367-15.2851zm-14.9297 3.461c.4822.03.4706.5842-1.0879 1.0801-.5302.1687-.7023-.8918-.414-1.0938.5121-.06 1.066-.012 1.5019.014zm-3.4844.2636c.2431-.014.429-.01.5899.2011.742.9543 1.0433 1.5317.3672 2.0547-.8961.7508-1.7117.5613-2.209-.8652-.3197-1.0159.4346-1.3353 1.2519-1.3906zm-20.8632.021c.6882.4921 1.5281 1.8164 2.3496 3.0235.4668 2.7647.4469 5.6353.6484 8.5469.2123 3.0626-.073 5.6246-.5195 6.5488-.4557 1.1057-1.3801.3411-1.6094-1.1719-.055-.3636.2477-4.119.248-6.1816 0-3.5476-.9048-7.9267-1.1171-10.7657zm18.1438.9312c.683.4768 1.3516 1.9575 1.6335 2.866-.051.2806-.2969.5176-.834.9531-.5323.4897-.7006.4584-1.2949-.4824-.932-1.4616-1.3683-2.4233-1.1855-2.9277.5896-.5485 1.1493-.7801 1.6809-.409zm32.5359.073c1.3354.1136 2.6553.7268 3.955 1.0351l-1.9843 1.9238c-.5897-.9862-1.2605-1.9727-1.9707-2.9589zm-36.7872.7636c.392-.043.9896-.024 1.2442.2403.7324.9571 2.0095 3.4605 1.9414 4.3906-.1869.3167-.4763.5983-.7832.7754-.2438.066-.4646-.3607-1.291-1.8282-1.4369-2.551-1.8572-3.2714-1.1114-3.5781zm-1.6543.8296c.8039.6968 2.6633 4.5806 2.7715 5.5839-.022.3008-.1094.5612-.2871.7637-1.2056 1.3013-.9005 1.0933-2.6953-2.6152-1.5155-3.0499-1.9162-3.352-.9141-3.6953.3996-.1601.8172-.3039 1.125-.037zm-2.8808.9966c.5261-.01.6736.8758 1.6992 2.8867 1.7169 3.8025 2.3615 4.33 1.9727 4.7363-.479.6063-.7599 1.0337-1.2149.2969-1.0353-1.6899-2.0614-3.8455-3.0254-5.7383-.7718-1.4129-.8415-1.5859-.3457-1.9316.2844-.1982.7083-.2469.9141-.25zm32.4961.9355c-.7954-.01-1.5214.06-1.8496.1446-.645.1821-3.2395 1.0051-1.6504 1.1543.3211.03 1.1352-.1733 1.707-.2129 1.6062-.1113 4.9459.1917 4.8262-.1172-.1905-.7239-1.7076-.9534-3.0332-.9688zm-33.9121 2.0313c2.5044 4.6988 3.7989 6.4551 3.3652 7.2031-.3567.4515-.9083 1.0196-1.2344.8848-.5248-.217-1.2245-1.7653-2.9707-5.2715-1.8048-3.6235-1.9923-3.8948-1.0644-4.3652 1.1812-.654 1.4327.6639 1.9043 1.5488zm-4.1328-.9492c.3385-.035.684.7894.8652 1.0879 1.1217 1.8296.9738 1.5876.9609 7.5429-.011 3.7061-.4819 6.0706-1.0996 6.9825-.3234.4775-.8946.1963-1.1777-.7383-.1295-.4276.2394-1.0618.3086-1.7383.4365-4.4596.1324-8.9162.1426-13.1367zm29.2832.7773c-.1199 0-.2058.037-.2344.1113-.1145.2962.1207.762.7461 1.6583.5222.7484.3945 1.3527.3906 2.3593-.011 1.4237.097 1.5275 1.0762.8086.868-.6372.9374-.6781 2.4863.377.9188.6258 2.0763.6967 2.8262.01.5282-.4871.712-.267 1.4199-.082.7702.4296.9893.4949 2.6426-.3105 1.1161-.4956 1.1604-.5675 1.8242-.2168 1.1678 1.0331 1.3414.6594 1.1836-.6914 0-.4715.139-1.3516.2773-1.9239.5811-2.4028-.3595-2.4296-1.6035-.8984-.4818.593-1.5554.8495-2.5703.3711-1.4534-.6853-3.7231-.4081-5.4004-.125-1.9843.3349-2.902-.2138-3.6992-.8965-.3388-.2902-1.0055-.5566-1.3652-.5469zm-26.0997 5.1406c.2485-.054.6296.685 1.1876 2.25.7198 2.0199-.5378 9.0415-1.295 10.1914-.4005.6036-.6576.9735-1.4804-.1445-.3273-.4913-.072-.6488.2519-2.0293.4938-2.1007.9094-5.4991.9356-7.0801.011-2.0517.1189-3.1265.4003-3.1875zm2.5293 6.8106c.1789.013.3881.4185.6739 1.2187.4046 1.0994.2077 3.2178-.3242 4.8399-.3081.9448-.6001 1.9518-1.125 2.7969-.1789.474-1.0953.3091-1.3477-.7422-.1598-.6653.3917-1.4922.6582-2.5508.2679-1.0634.5731-2.4151.7246-3.0957.2795-1.6616.4789-2.4852.7402-2.4668zm19.5782 3.1113c-.022 0-.043.0002-.057.01 0-.01-.014.011-.02.016-.041.042 1.9084 2.1752 2.4316 2.7715.2736.2324 2.6253 3.1001 1.1641 2.4414-3.6867-1.5338-8.0018-.7825-10.6582 1.7891-.3328.3221-.6085-.01-1.6152-.082-2.0635-.1543-2.8136.667-1.5586 1.6875.1921.1563.5924.226.7734.4766.1661.2299.1167.6427.2031.7578 3.9899 5.3164 11.3803 6.3515 16.0196 2.8789.5836-.4369.9111-.5902 1.455-.4277 1.0792.3224 1.176-.5859.2227-1.8535-.4158-.5528-.9291-1.1896-.6309-1.3731.5893-.5087.88-1.3409-.1445-1.6523-.7063-.2147-1.4976-1.0028-1.8945-2.1035-.4635-1.2858-5.0069-5.2364-5.6953-5.3301zm-18.1289 2.3047c.1967-.027.3092.2507.334.3008.537 1.0884.4533 5.0663-.3692 6.4062-.4925.5909-1.6183-.5088-1.4492-1.6367.1286-.8575 1.0688-4.7053 1.2598-4.9238.084-.096.159-.1376.2246-.1465zm17.6972 3.2324c.7279-.01 1.7236.3209 2.5157 1.0391.4282.3883 1.1787 2.0695.8671 2.7285-.087.335-.9868.3164-1.0683.07-.4943-3.3936-3.2351-3.8867-4.1055-.7187 0 0-.5647.4822-.6367-.4453.1951-1.7987 1.0381-2.6599 2.4277-2.6739zm22.0703.2871c.8711-.016 1.7004.4236 2.127 1.3575.2974.6511.331 1.1985.2129 1.4843-.088.2135-.3809.1211-.3809.1211-1.3912-3.8296-3.2848-2.0592-3.9707.059 0 0-.7156.2229-.8047-.01-.089-.229-.035-.6597.25-1.2559.5435-1.1382 1.5792-1.7413 2.5664-1.7598zm-18.6113.2461c.4926-.027 1.3363.3736 1.9668 1.0118.6406.648.7031 1.0353.1856 1.5156-.311.2891-1.4167.5747-1.6309.072l-.9297-2.1816c-.088-.2076.1843-.4058.4082-.418zm-6.7031.1016c.5515 0 .6669.1282-.1992 2.1504-.1851.4322-2.4056-.1953-1.9825-1.0293.6355-.6638 1.63-1.1221 2.1817-1.1211zm22.7324.2852c-.1986.072-1.0371 2.2031-1.0371 2.2031-.7928-.096-1.7426.016-1.9141-.6348-.1619-.615.1584-.9903 1.2754-1.4199.6501-.2939 1.6209-.3483 1.6758-.1484zm6.0257.4221c.8332.3313 1.0373 1.0256.9297 1.3946-.082.2792-.5037.3122-.7598.066-.2967-.2853-.5902-.8446-.6328-1.2012-.049-.4083.342-.3075.4629-.2594zm-41.9144 1.9704c.2585.4886.7252 3.2568.1797 3.1856-.5293-.1371-.7763-.9733-.8691-1.7246-.019-.1549.4528-1.4428.6894-1.461zm9.2579 1.4766c.2449-.035.8625.1832 1.7793.7031 3.0166 1.4629 6.1095 1.6698 9.3945.9336 1.8945-.4934 2.3788-.7834 2.6465-.457.4546.5542-.2641 1.1092-2.9395 2.0117-2.9337.9898-5.9777.8232-9.9805-2.0117-1.0756-.7618-1.2153-1.1346-.9003-1.1797zm33.2226.5586c.1033.017.189.08.2559.2051.4965.9299-1.1716 1.9116-2.0508 2.0605-2.3693.4012-4.6526.1942-6.5098-.9082-1.2664-.9463-.7425-1.6225.668-.8926 1.5168.7849 4.6032.9293 6.2402.1367.6154-.2979 1.0867-.6539 1.3965-.6015zm-37.2051 1.9394c-.1683.038.1152.4658.7032 1.1055 4.1269 4.6493 13.9734 7.1707 19.5078 2.3789 1.7333-1.6327 1.4682-2.3669-1.2657-1.0625-4.5416 1.1295-10.4692 2.1921-17.3476-1.4824-.9512-.6981-1.4493-.9726-1.5977-.9395zm28.2813.049c.024-.01.1102 0 .1462.01.2519.02.6915.257 1.678.6981 1.7235.7706 4.6869.4565 5.6152.094 2.1764-.8499 2.64.22.5645 1.3711-2.3125 1.4052-5.5045.8554-7.3672-.9551-.5767-.5188-.8899-1.163-.6367-1.2148zm-27.2298 8.3144c8.1271.7454 20.8334 9.2822 25.6158 19.0061h-3.1497c-4.8047-7.6524-12.1978-14.2532-20.9707-16.551-.3469-.2681-1.6814-2.1159-1.4954-2.4551zm35.7366 1.8255v2.6452c-1.3619 1.1204-6.5835 5.5994-10.2861 12.0996-.2635-.3413-.6389-1.1102-1.1251-1.655 3.907-6.8769 7.8448-10.8118 11.4112-13.0898zm-32.5542 2.0593c1.8645-.1286 13.9971 6.8534 18.082 15.1213h-2.1479c-4.5953-6.0066-9.7031-10.3673-14.2363-11.9397-1.1023-1.1669-2.3982-3.1306-1.6978-3.1816zm32.5542 1.9614v3.5425c-2.9024 2.8361-5.0398 6.1311-6.7007 9.6174h-2.2519c.066.042-.4238-.559-.672-1.4393 2.4552-4.309 5.2121-8.0969 9.6246-11.7206zm-29.3823 2.896c1.088 0 9.7377 6.3889 10.9595 10.2639h-2.1817c-1.8407-2.6121-4.5737-5.5672-7.084-7.0627-1.0286-1.2797-2.2709-2.8591-1.8071-3.1153 0-.059.041-.086.1133-.086zm29.3823 2.3164c.023.016.01.053 0 .1152v2.9141c-1.2629 1.4683-2.5021 2.7059-3.8873 4.9182h-1.8575c1.5871-3.4391 5.3883-8.1744 5.7448-7.9475zm-25.0674 4.1719c.023 0 .053-.0003.09.012.6727.178 3.1293 2.9746 3.0508 3.7636h-1.1055c-.6206-.7865-1.3565-2.0798-1.793-2.8847-.2391-.4456-.4032-.8605-.2422-.8906zm25.0674.6601v3.1155h-2.5886c-.2009-.037 1.6205-2.6171 2.5886-3.2717z" fill="#004c97" stroke-width="1.06258" transform="matrix(.941705 0 0 .940506 1794.54 -804.155)"/><path d="m1805.8203 842.13672c-9.4453.001-18.8185.0547-28.1465.15039l69.4512 98.91211.059-21.97266-22.2871-28.87109c5.0723-1.5702 11.2657-2.65369 16.1426-3.08985-6.2637-13.93759-9.3964-27.02855-6.6368-44.96874-9.6176-.11101-19.1367-.16149-28.582-.16016zm27.4258.61914c-.5438 6.3334-1.2583 13.39643-.1133 21.24023-3.6143-1.3247-4.463.93964-5.0625 1.17774-.68-1.5219-3.2004-4.15525-6.0527-1.06055-1.4829 1.6089-.7625 4.6351 2.6797 6-3.9416.3037-5.99-3.07705-6.6817-6.56445-2.1305-1.3687-4.3688-2.72209-4.582-7.52149l1.0918.18164c-.3632 3.3486 3.1042 5.05524 5.1328 3.45704 1.3116-1.0086 1.4509-2.56638.9336-4.98438 1.0534-.2164 3.5215-1.25169 2.8691-4.43359-.9006-4.3928-5.3954-3.87728-7.4492-.98828-1.7071-2.121-4.8366-2.51636-6.0918.77734-.6992 1.8348.8948 3.89652 2.7051 4.29492-4.0202.7738-6.0467-4.79094-6.2715-8.55664l-1.666-2.9668c10.8684-.063 15.6213-.0517 28.5586-.0527zm-54.4414.10937 8.0664.01 58.8711 76.46484.123 19.03711zm20.3945.01 1.2852.0176c1.0076 6.7303 4.8652 11.60145 11.4609 13.97265.3424 5.4986 2.983 12.96859 13.0059 15.49219-.2954 6.2087 3.6792 12.14233 7.9336 14.98633 0-.0002-1.1493.28489-2.0469.37109-5.7197-4.5522-7.6953-14.02148-7.6953-14.02148-1.8168-.6539-11.1003-4.06444-13.0352-16.52344-4.1618-.7766-10.7025-7.52747-10.9082-14.29297zm-5.1875.0176h4.5215c.4615 5.4218 3.7827 11.99102 11.1055 15.07422 1.721 8.7962 5.222 12.75074 12.9804 16.37304 1.1754 5.1239 4.2581 11.50908 7.4551 13.58204l-1.7832.39453zm22.0762 8.29492c1.0218 0 1.8496.83182 1.8496 1.85742 0 1.0255-.8278 1.85352-1.8496 1.85352-1.0217 0-1.8516-.82802-1.8516-1.85352 0-1.0256.8299-1.85742 1.8516-1.85742zm-62.3711 10.13672c.1069.2683-25.2748 21.82034-22.8047 62.36914l-.7363.82422.2031.28906c-.8383.9549-1.6478 1.72114-2.5625 2.65234 5.2636 3.3671 14.438 7.04377 14.4668 6.94727l-1.7539 4.07617 10.9668 3.55469-1.4707 3.87695s-7.6291-2.53975-10.791-3.59765c-1.56 3.4716-2.503 7.139-3.6387 10.75-.107.2911-.3568.14983-.7461-.41407-5.6962-9.7511-17.3944-16.78704-17-16.08984l-41.4902 39.51367-.2832 24.41788 28.7148 29.7032s-8.3104 4.1048-12.2422 6.7969c3.0575 2.5045 6.5175 4.4323 9.5567 6.8008 6.2873 4.4505 10.5303 10.9946 14.6054 15.4258 19.218-9.5641 38.5739-9.0328 55.2891-3.2266-1.9475 2.0567-4.1215 3.8382-6.1289 6.0684 4.8586 12.7959 3.3033 38.2094 3.0586 38.9004 10.1152-10.3719 25.1615-32.6133 23.1543-63.9277l4.2578-4.2832c-.078-.2196-10.6461-5.8982-15.0508-7.1348l1.2168-3.8927-10.5508-3.3086 1.1778-3.0897 10.5078 3.0547c1.9898-4.903 4.0976-11.7715 4.0976-11.7715 4.1964 6.3017 8.8226 12.0332 18.3438 17.8652l41.2519-39.61527-.2656-25.47266-28.0879-28.19141 11.6914-6.11523c-1.1232-.9094-2.7528-1.77054-3.9082-2.68164-.083-.065.2333-.26227.1504-.32617-.2934-.2265-.5095-.41029-.8086-.61915-.067-.047-.2772.25774-.3437.21094-3.9671-2.7924-7.9358-5.53996-11.0586-8.88086-.079-.084.04-.43142-.039-.51562-1.6229-1.7403-3.24-3.35937-4.8906-5.07227-.7655-.7755-2.0295-2.61714-2.0293-2.61719l-.072-.60742-1.7734-2.24023c-5.7115 3.3815-30.0636 11.868-53.627 2.4707l4.4786-4.49414c-1.192-2.8869-1.9662-6.10769-2.2735-8.74609-1.2323-10.5814-.7597-29.63672-.7597-29.63672zm74.2793 5.99219c1.0781 0 1.9531.87873 1.9531 1.96093s-.875 1.96094-1.9531 1.96094c-1.0783 0-1.9492-.87874-1.9492-1.96094s.8709-1.96093 1.9492-1.96093zm6.1094 2.33203c.9942 4.8736 3.1828 11.9503 5.3613 16.7207l-2.5957.28906c-2.1131-1.3779-4.3457-3.38833-4.5801-6.24023-5.7138.044-7.3878-8.95275-5.3008-7.87305-.2661 3.073 1.9308 4.28392 4.086 3.98242 1.8553-.2596 3.4597-2.82947 1.2519-5.66796.9812-.38336 1.4609-.67344 1.7774-1.21094zm-80.9727 14.41211c.3784 6.2326 1.5947 10.77797 2.7324 15.48633l-11.289 10.69335c.8805-9.7595 3.7382-18.48248 8.5566-26.17968zm54.1465 20.52929 1.4316 2.0625c-16.3153 9.6167-44.1618 10.29786-61.1269 2.18946l2.2519-2.15235c14.9179 6.7614 39.208 7.26439 57.4434-2.09961zm-105.9648 3.20899c-1.6435-.0195-3.5425.60928-5.5528 2.14648-7.4846-3.4225-12.3868 4.57806-7.7578 9.87696-.6852 3.814-1.2012 4.52551 1.6582 8.38671-3.0375.388-6.8753-.41026-10.1367-.91406.5511 5.648 8.6104 6.9627 11.9648 6.3418 3.6217-.7878 7.0367 1.01103 7.1856 1.05273 2.1294.5967 3.4528 1.6258 5.5527 2.1211 3.9522.4717 8.5117-2.673 9.2129-8.1836-2.3674.6077-4.9673 1.46391-7.2734 1.97071-2.2586.5563-3.9616 1.10573-5.6817 2.45703l-.1445-4.66602c11.7252.56 6.6229-10.62877 5.959-11.10937 2.1783-4.41436-.4408-9.42293-4.9844-9.48047zm106.5742.35156 2.5488 6.15625-6.7754 2.30664-1.7324-6.02734zm-107.0625.18555c3.9854.039 7.5483 4.25165 3.7207 8.96875 7.4196 6.5683-2.0876 13.6065-6.6153 8.7207-6.0276 5.5405-12.4319-.24755-9.0644-6.28125-6.4282-5.774 1.5006-13.5173 6.916-8.5293 1.3302-2.0521 3.2315-2.8965 5.043-2.8789zm46.2695 2.2539c.9539 0 1.7266.77668 1.7266 1.73438 0 .9575-.7727 1.73437-1.7266 1.73437-.9542 0-1.7285-.77687-1.7285-1.73437 0-.9577.7743-1.73438 1.7285-1.73438zm-44.0234.10938c-.037-.016-.079-.0117-.1231.0195-1.632 1.1515-2.5767 2.88399-4.0371 4.27539-1.9495-.6403-3.3851-.20632-4.6699.60938-1.9612-1.037-2.4909-1.83459-4.4297-2.77149-.6307-.3048-.6616.41236-.4746.60156 1.3931 1.4098 2.6953 1.99804 4.2812 3.21094-.1515 1.4685.087 2.66184.6407 3.77344-1.0906 2.0745-2.1236 2.65906-3.0625 4.88476-.1434.3399.1687.53248.416.32618 1.639-1.3677 2.4216-2.6477 3.7793-4.4336 2.0859.725 2.8173.28496 4.125-.18164 1.2934.9948 2.3195 1.9618 3.9668 2.9043.5149.2946.5413-.47358.5234-.48828-1.2221-1.0038-2.5826-1.98874-3.7617-3.18164.7086-2.6524-.011-3.52637-.5566-4.38477 1.0122-1.4555 2.3391-2.7146 3.5839-4.7832-.018-.11535-.091-.33287-.2011-.38086zm47.9199.39648 6.1035 1.9043-1.3457 6.36914-6.5039-2.10547zm44.1621 1.56446 1.7012 6.21289-6.3477 1.69336-1.041-6.59571zm4.457.10351c.9544 0 1.7266.77482 1.7266 1.73242s-.7722 1.73438-1.7266 1.73438c-.954 0-1.7285-.77678-1.7285-1.73438s.7745-1.73242 1.7285-1.73242zm14.4317.22071 5.3359 4.76953-5.9238 3.00195-2.8516-6.21289zm-50.3223 1.3789 6.2012.73242-.252 6.6875-7.1152-.95508zm-21.5098.0703 6.9004 3.03907-2.4863 6.97656-7.0664-3.04492zm17.7852.54102c2.5427.3995 1.8586 3.41205 0 3.46875-.9542 0-1.7285-.77678-1.7285-1.73438s.7743-1.73437 1.7285-1.73437zm22.3047.0117.8496 6.6914-6.4375.39258-.1387-6.80078zm-85.2481.57226c1.3841 0 2.5098 1.12087 2.5098 2.50977 0 1.389-1.1257 2.51758-2.5098 2.51758-1.3836 0-2.5-1.12858-2.5-2.51758 0-1.3889 1.1164-2.50977 2.5-2.50977zm89.6758.18946c.954 0 1.7266.77677 1.7266 1.73437s-.7726 1.73242-1.7266 1.73242c-.9543 0-1.7285-.77482-1.7285-1.73242s.7742-1.73437 1.7285-1.73437zm-13.3867.5625c.954 0 1.7285.77677 1.7285 1.73437s-.7745 1.73242-1.7285 1.73242c-.9544 0-1.7285-.77482-1.7285-1.73242s.7741-1.73437 1.7285-1.73437zm30.3164.42773 2.5078 6.87891-7.0332 2.27539-1.9902-7.06446zm-106.5644.0469c-.7314-.00004-1.3243.59278-1.3243 1.32422 0 .73137.5929 1.32425 1.3243 1.32421.7307-.00001 1.3242-.59288 1.3242-1.32421 0-.7314-.5935-1.32421-1.3242-1.32422zm111.498.13867c.954 0 1.7285.77677 1.7285 1.73437s-.7745 1.73438-1.7285 1.73438c-.9542 0-1.7266-.77678-1.7266-1.73438s.7724-1.73437 1.7266-1.73437zm12.1621 1.95117 4.541 3.22461-2.25 1.25977c-.5902-1.41796-1.6303-3.09898-2.291-4.48438zm-64.9629.625 6.709 1.45898-1.0254 7.05469-7.3203-1.46484zm-19.9551.38672 3.5625 1.68164-2.3496 5.87891-5.7617-3.08204zm15.9278.38086c.9542 0 1.7265.77677 1.7265 1.73437s-.7723 1.73438-1.7265 1.73438c-.954 0-1.7266-.77678-1.7266-1.73438s.7726-1.73437 1.7266-1.73437zm38.748.38672 1.1973 7.05468-7.5664 1.06836-.4688-7.19336zm28.334.13476c.9541 0 1.7246.77678 1.7246 1.73438s-.7705 1.73437-1.7246 1.73437-1.7285-.77677-1.7285-1.73437.7744-1.73438 1.7285-1.73438zm-5.3672.0527 2.502 6.21679-7.4024 3.10743-2.1914-6.22266zm-18.8789.44726c.9543 0 1.7266.77678 1.7266 1.73438s-.7723 1.73437-1.7266 1.73437c-.954 0-1.7285-.77677-1.7285-1.73437s.7745-1.73438 1.7285-1.73438zm-25 .70703 7.082.12891-.082 7.13281-7.7578-.21679zm56.6582.4961 2.7852 1.9414c-28.6769 18.5097-68.9606 20.80299-100.3985 2.58399 0 0 1.2869-1.28381 2.0176-2.03711 28.3405 17.0244 69.7134 14.63432 95.5957-2.48828zm-60.5.80469c.9542 0 1.7266.77677 1.7266 1.73437s-.7724 1.73443-1.7266 1.73437c-.954 0-1.7285-.77677-1.7285-1.73437s.7745-1.73437 1.7285-1.73437zm14.543.39257c.954 0 1.7285.77678 1.7285 1.73438s-.7745 1.73437-1.7285 1.73437c-.9541 0-1.7266-.77677-1.7266-1.73437s.7725-1.73438 1.7266-1.73438zm-33.7383.95508 7.3965 2.14649-1.2598 5.86132-8.1133-2.34179zm-4.8965.041c.9543 0 1.7285.77677 1.7285 1.73437s-.7742 1.73242-1.7285 1.73242c-.954 0-1.7246-.77482-1.7246-1.73242s.7706-1.73437 1.7246-1.73437zm57.4629 1.24804 1.7676 6.58008-8.1797 1.75391-.9863-6.4707zm4.6973.95508c.9542 0 1.7285.77678 1.7285 1.73438s-.7743 1.73437-1.7285 1.73437c-.9539 0-1.7266-.77677-1.7266-1.73437s.7727-1.73438 1.7266-1.73438zm-106.8653 1.02149-.018 4.61328c-1.3564-1.1224-2.8886-2.31594-4.457-3.52344 1.5999.085 3.0867-.35884 4.4726-1.08984zm-16.8359.11328c.3732 0 1.2463.30408 2.2871.30078 3.3307-.011 9.5505 1.03193 11.3906 2.54883.6133.5038 1.5317.94997 2.0313 1.76367 0 .388-.5478.39964-1.3516-.10156-1.542-.9614-4.1071-1.81908-7.541-2.29688-.6205-.086-.6998-.061-.7012.23242 0 .3625.5725.5732 2.3809.8711 2.3404.3855 2.8388.61726 3.3574.75976 1.39.382.5011.8922-.9297 1.0293-5.8393.549-10.21-1.97302-11.0898-4.85352-.071-.189 0-.2522.166-.2539zm81.3457.10351 7.3457.95508-.334 6.17188-8.041-.92383zm-63.293.21875c.2672.0199.5181.12361.8184.31836 1.3708.8892.4 4.07797-.2988 4.98047-.4524.5068-1.5115.23819-1.5059-.47461.1599-.6402-.066-3.69016.072-4.63476.3637-.1455.6468-.20939.914-.18946zm85.9551.5918.3789 6.36328-8.0156.36524.062-6.24805zm-27.041.42773c.9539 0 1.7246.77678 1.7246 1.73438s-.7707 1.73437-1.7246 1.73437c-.9543 0-1.7305-.77677-1.7305-1.73437s.7762-1.73438 1.7305-1.73438zm-44.6621.0879c.2959 4.66916-6.8488 7.8376-9.5215 6.4043-1.1835-.6347-.6923-1.02605 1.6543-1.50195 3.0365-.8068 5.039-1.59281 5.041-2.16211 0-.3493-.4614-.30575-1.6992.15625-1.9058.6425-3.8855.91788-5.7051 1.73828-1.3603.6199-1.8895.83754-2.1953.46484-.6407-.7813 2.3809-2.75334 5.5156-3.27734 2.3519-.3932 4.7238-1.65221 6.9102-1.82227zm76.123.58399c.9542 0 1.7266.77677 1.7266 1.73437s-.7724 1.73243-1.7266 1.73243c-.9543 0-1.7265-.77483-1.7265-1.73243s.7722-1.73437 1.7265-1.73437zm-16.0664 1.26953c.9543 0 1.7305.77678 1.7305 1.73438s-.7762 1.73242-1.7305 1.73242c-.9541 0-1.7265-.77482-1.7265-1.73242s.7724-1.73438 1.7265-1.73438zm38.4922 2.94531c11.5613 11.0497 24.2341 23.77088 34.6875 34.23438-.015 5.4749-.047 16.42578-.047 16.42578l-39.916 38.0781c-7.2279-4.4291-13.3462-9.9663-18.9804-19.8007.6352-.5503 1.4382-1.0292 1.9199-1.6309l-2.3262 1.3789c-7.3631-11.82051-10.4851-35.37236 2.0215-54.25196l-12.6367.46484 2.0605-4.31836 13.7578-.75391 5.5625-5.99023s1.764-.32772 3.2246-.66601c1.4491-.33576 4.4055-1.18508 6.5743-1.88868 2.1686-.7037 4.0145-1.28155 4.0976-1.28125zm-93.3164 3.06055s11.8799 6.48214 18.4766 19.46094c-21.3237 18.4115-29.3581 39.85041-31.1719 62.16607-11.606-10.8961-17.4727-16.9225-27.959-27.50396l.3789-15.79102zm44.8516 2.05859c-3.0738 6.5962-5.7192 13.82341-8.0879 21.56641l-3.3047-.98047s2.1383-.8987 3.0898-1.4668l-1.7148-2.77539 3.2539-1.34179-1.9258-2.35352 3.3008-1.91992-1.6504-2.07813 3.0254-1.51757-1.8789-2.16797 3.1719-1.77539-1.6543-2.07422zm1.0117.0176s.426.0819.9258.18164c.12-.046-.596 1.72882-.5196 1.79102 1.1548.2385 1.2222.17274 1.5684.27734l.8789-1.82617 1.4453.27344c-2.914 6.6015-6.0313 13.82428-7.8203 21.64258l-1.7012-.35547s.4966-1.64964.4981-1.86914c-.1998-.042-1.1581-.44611-1.4551-.56641-.1019.2579-.709 2.16602-.709 2.16602l-1.3457-.0352c2.2046-8.5366 6.0465-18.00369 8.2344-21.67969zm5.5371.25391 3.0176 2.50781-3.4219 1.33594 1.7715 2.36914-3.6289 1.31641 2.082 2.46093-3.5918 1.33203 2.1426 2.97657-3.7383 1.26367 2.3594 2.61719-3.3711 1.58398 2.0195 2.00781s-2.1029.69537-2.2246.72656c-.3384.087-1.7539-.26171-1.7539-.26171 2.1319-7.6184 4.7652-15.34103 8.3379-22.23633zm-73.4199 1.26953c-.8333.5428-.3568 1.72437-1.4024 2.73437-.1668.181-.1786.59794-.2441.96094-.05.2755-.8789 3.57031-.8789 3.57031s.2103-.25123.541-1.30273c.2822-.8973.5268-2.60057.6797-2.88477.7706-.2363.8884-2.75956 1.6699-2.41406.4514.1996.3641.61248.1094 1.58008-.5562 1.9336-.7749 2.74859.1797 1.42969 1.4259-1.7229 1.5672-3.27812-.039-3.60742-.1694-.033-.5169-.0615-.6152-.0645zm21.5625.7168-37.2969 35.15234-.1152 13.11719 12.9824 13.20705 9.2129 8.9629c3.3442-20.07507 11.0154-39.22576 29.9043-55.79886-2.8943-4.6713-7.8519-10.55642-14.6875-14.64062zm100.541.36132c-21.9156 10.3386-26.9584 31.54163-20.1719 50.73633 10.4439-13.4823 18.6441-26.14853 20.1719-50.73633zm-78 1.07422 9.9512 3.21485-3.7481 12.82812-8.9609-2.73047-.916-2.26953zm76.8965.33399c-.9524 17.1552-7.3958 33.91129-18.6094 47.05859-5.6699-14.0403-2.261-36.48899 18.6094-47.05859zm-53.6055.0937-.625 1.5957 1.3789.39063.584-1.6211zm-1.375 3.76758-.5664 1.61914 1.4121.48047.5293-1.64649zm58.709.29492c-3.0676 23.7962-15.8734 45.44973-29.4043 56.48445 4.3119 7.0206 9.3814 11.5347 14.5332 15.3047l38.1133-36.64853-.1465-12.22461zm-101.7617.73633c1.3116-.086 1.6852 3.17157 1.0371 5.58007-.234.87-.3164 1.3125-.3164 1.3125s.4389-.40862 1.5976-1.04492c7.4892-3.7494 5.0756 1.95175 1.5469 4.06055-.7886.4215-1.5996.92187-1.5996.92187s.7467.17097 1.5586.32227c4.5452.948 3.5782 3.61842-1.1621 3.20312-.7009-.061-1.5252-.1975-1.5254-.1582 0 .039.2852 1.04144.6133 1.8711 1.598 4.04019-1.383 4.3557-3.3438 1.7871-.273-.3576-.8906-1.3457-.8906-1.3457s-.1945.7488-.3125 1.4707c-1.694 6.3321-5.8725 6.1705-4.3125-.2539.1952-.664.4317-1.85352.4316-1.85352 0 0-.9382.571-1.9609 1.0293-5.4127 2.4258-6.2919-.07-1.375-3.7207 1.399-1.0387 1.875-1.44727 1.875-1.44727-.8708-.067-1.6758-.20031-2.3848-.37891-3.9223-.9881-4.9664-3.34292 1.3184-3.23242.9283.019 1.8711.082 1.8711.082s-.3092-1.35364-.6367-2.37304c-1.5161-4.7201 1.5415-5.28114 4.1191-1.05274.5484.8992.7031.9043.7031.9043.3486-2.452 1.5147-5.53219 3.1485-5.68359zm68.4472.88476c-2.618 4.6427-4.9016 9.25701-5.9902 14.07031l-10.1836-.17578c.7046-4.2678 2.5051-8.70794 4.6543-13.40234 4.1454-.1137 7.8834-.29339 11.5195-.49219zm-26.8886 2.05664-.586 1.70899 1.4766.45507.5371-1.66406zm-76.1582 3.20508c-1.0911 2.8459-1.4571 6.01419-2.0625 8.55469-.2555 1.4726.0005 2.08681.8847 2.41601 1.2513.4686 3.0566-.17059 4.0664-1.62109.5694-.818.9857-2.50704 1.0723-5.49023l.098-2.65821c-1.5479-.2887-2.6054-.70387-4.0567-1.20117zm74.7812.37109-.4883 1.56836 1.4258.53125.543-1.58398zm65.9473.58789c1.7305.043 2.0541.19986 3.623 1.13086l3.0293 3.12696c-.7937.7629-1.2929 1.83579-1.2929 3.02539 0 2.3134 1.8711 4.1914 4.1757 4.1914 1.142 0 2.9317-1.21093 2.9317-1.21093l4.7969 4.99023c-3.0174 1.1696-5.2465-1.10551-6.8711-3.16211-.1602 2.0428-1.6608 8.58539-4.7305 9.11719-2.3505-.3935.043-9.76298.068-9.54688-1.6159 1.7148-9.4911 3.5397-8.9395 1.625 1.0959-3.8034 6.9869-5.26898 7.7617-5.92968-3.1311-1.8905-7.0993-7.13383-4.5566-7.35743zm-140.3477.125c.9974.07 1.6814.19031 2.3594.47461.3157.085.3302.34856.3652.59766.011 1.1232.2853 4.41947-.7519 4.45313-1.1521-.024-2.2335.22338-2.9922.80468-.6101.4674-.8111.1315-.6465-1.0664.1595-1.1607.7329-3.60029.9805-4.58789.039-.4074.3638-.69419.6855-.67579zm31.1172.043c-2.3047 0-4.1738 1.87596-4.1738 4.18946 0 2.3134 1.8691 4.1914 4.1738 4.1914 2.3049 0 4.1758-1.878 4.1758-4.1914 0-2.3135-1.8709-4.18946-4.1758-4.18946zm0 1.46485c1.4982 0 2.7168 1.22081 2.7168 2.72461 0 1.5037-1.2186 2.7207-2.7168 2.7207-1.498 0-2.7129-1.217-2.7129-2.7207 0-1.5038 1.2149-2.72461 2.7129-2.72461zm21.541.0508c9.5684 16.5785 8.4604 39.33497-2.8203 55.88871l12.127-.8516-1.5938 3.1152-12.9297 1.2656c-1.9755 1.815-3.7736 3.8888-5.7168 5.8301l-.019.6875c-4.4326 1.0331-8.8686 2.2211-13.3867 3.8555-2.3849-2.3504-6.8712-7.0499-6.8418-7.168l.289-1.5195c30.7501-15.7472 21.7548-47.32888 19.5899-49.92578 3.6637-4.1646 7.6909-8.09173 11.3027-11.17773zm-21.5859 1.94922a.71304387.71304387 0 0 0 -.7129.71289.71304387.71304387 0 0 0 .7129.71484.71304387.71304387 0 0 0 .7129-.71484.71304387.71304387 0 0 0 -.7129-.71289zm106.9277 1.06445c1.2455 0 2.252 1.01547 2.252 2.26563 0 1.25019-1.0065 2.26562-2.252 2.26562s-2.2558-1.01543-2.2558-2.26562c0-1.25016 1.0103-2.26563 2.2558-2.26563zm10.0254.60937 1.4258 1.47266a.71304387.71304387 0 0 0 -.2539.54492.71304387.71304387 0 0 0 .7129.71289.71304387.71304387 0 0 0 .5293-.23632l1.3652 1.41211c-.4905.48589-1.1644.79101-1.9082.79101-1.4981 0-2.7148-1.217-2.7148-2.7207 0-.7757.3248-1.48011.8437-1.97657zm-129.7832.48633c1.2455 0 2.25 1.00957 2.25 2.25977 0 1.2501-1.0045 2.26562-2.25 2.26562-1.2453 0-2.2578-1.01552-2.2578-2.26562 0-1.2502 1.0125-2.25977 2.2578-2.25977zm-17.3867.875c.2185-.013.4234.0102.6035.0742 1.0562.3546.8099 1.3454-.5547 2.2168-.8829.5638-1.692.68683-2.4687.26953-1.2877-.692.8902-2.47205 2.4199-2.56055zm18.0371 5.61524-13.5879 13.19531c.855-2.1925.8866-4.37816.9512-6.56836 4.0887.423 5.801-1.65951 5.2031-5.94531 2.641.1582 5.3776-.12174 7.4336-.68164zm21.7715 1.50781c6.3004 18.032.8293 37.11429-18.877 48.16599.8113-17.279 8.0357-33.79809 18.877-48.16599zm17.9492 1.57812c10.8142 2.84136 23.1234 4.16669 35.9043 4.17579.096 4.8814.3296 10.04424 1.3262 15.02734-10.8874-2.8586-23.0459-4.18782-36.3301-3.95313.5512-5.15939-.3318-11.01274-.9004-15.25zm80.1914 2.66797-11.5176 13.51563.4844-7.37891c3.8786.4956 5.2588-1.55853 4.6875-5.61523 2.1158.2628 4.23-.10949 6.3457-.52149zm-111.9023.74805-.9102 5.39844c-2.2983.062-4.5535.8823-4.5234 6.0332l-6.8692-.084zm126.7363.99609c1.2455 0 2.2539 1.01553 2.2539 2.26563 0 1.2502-1.0084 2.26562-2.2539 2.26562s-2.2559-1.01542-2.2559-2.26562c0-1.2501 1.0104-2.26563 2.2559-2.26563zm-137.1836.6875c1.2455 0 2.2578 1.01553 2.2578 2.26563 0 1.2502-1.0123 2.25976-2.2578 2.25976s-2.2539-1.00956-2.2539-2.25976c0-1.2501 1.0084-2.26563 2.2539-2.26563zm132.1543 2.32206-1.2051 8.17383c-3.1375-.2768-5.7548.20789-4.9492 5.74805-2.6548-.26056-6.3421.36978-8.8125.58398zm-11.2461 1.48047c1.2454 0 2.2559 1.01542 2.2559 2.26562 0 1.2501-1.0105 2.25977-2.2559 2.25977-1.2455 0-2.2578-1.00967-2.2578-2.25977 0-1.2502 1.0123-2.26562 2.2578-2.26562zm-137.4414 1.75391c1.2454 0 2.2578 1.01542 2.2578 2.26562 0 1.2501-1.0124 2.25977-2.2578 2.25977-1.2455 0-2.25-1.00967-2.25-2.25977 0-1.2502 1.0045-2.26563 2.25-2.26562zm7.4805 2.67968c2.8805.6489 1.5506 7.38791.9023 9.22071-.049.05 8.0339-4.25252 8.5156-2.35352.316 3.807-6.6933 6.46094-6.6933 6.46094s4.7235 4.11981 4.8574 6.70901c.012 1.6752-1.975 1.3653-4.5547-.7578-1.1026-1.0872-1.9542-1.9025-2.7129-2.6582.8861-.76878 1.4434-1.90677 1.4434-3.17387 0-2.3134-1.8671-4.18949-4.1719-4.18945-1.2729 0-2.4139.5723-3.1797 1.4746-.5982-.5784-1.2759-1.25213-2.1855-2.11523-1.4902-1.3986-2.5354-2.51017-2.3848-3.01367 1.9661-1.3895 5.8775 2.34389 6.2266 2.68359-.293-.7277 1.8691-7.90001 3.9375-8.28711zm118.5488 5.76367c2.1243 0 1.1011 4.36909.4453 6.49219 0 0 1.155-.90618 1.666-1.14648 3.7288-1.7528 5.1182.2314 3.2383 2.5332-.9033 1.184-2.1342 1.44741-3.1348 2.44136 2.5365.1695 4.6126.5996 6 2.8125-1.0696 1.9602-4.5631 1.4302-7.2988.754 1.6022 1.9033 2.3214 6.9193.3418 6.9765-1.9999-.5366-2.9758-2.7685-3.7578-4.3711-.642 1.7863-1.2636 3.6976-2.6934 5.0254-1.4177 1.3167-2.1452.2249-2.0722-2.0058.029-.8873.6777-3.5352.6777-3.5352-8.3993 2.8462-7.7719-1.0047-1.2168-4.377-4.0376-1.93232-6.4928-3.67226.375-4.06636-.1818-.1651-1.3793-3.85601-.098-4.72071 1.1924-.8034 3.7334 1.95595 3.8554 2.08985.7629-2.6224 1.6085-4.90085 3.6719-4.90235zm-120.9551 4.92774c1.4982 0 2.7168 1.22101 2.7168 2.72461 0 .8645-.4049 1.63296-1.0312 2.13086-.6706-.67122-.9797-.97858-1.4629-1.46485a.71304387.71304387 0 0 0 .2851-.57031.71304387.71304387 0 0 0 -.7129-.71289.71304387.71304387 0 0 0 -.5683.28516c-.3969-.39762-.9394-.94625-1.3555-1.35547.4973-.6316 1.2655-1.03711 2.1289-1.03711zm150.2949.16797c-1.4628.1338-2.3721 1.43606-3.0488 2.57226-.1372.2303-.3921.31279-.4863.61719-.6062 1.95871-1.1349 4.30361-1.459 7.22461.9268.3824 3.0169 1.0286 3.9414.6816.2602-.1093.1797-.7854.2676-1.0078.5497-1.487 4.0575-10.33206.7851-10.08786zm-.4238.45508c.3807-.038.7221.13932.9414.67382.3667.8938-.8123 1.86538-2.3379 1.85938-.9073 0-1.2027.12358-.7988-.66602.3306-.6602 1.3579-1.78428 2.1953-1.86718zm-19.5254.043c1.2455 0 2.2578 1.01563 2.2578 2.26563 0 1.2501-1.0125 2.25976-2.2578 2.25977-1.2455 0-2.2539-1.00967-2.2539-2.25977 0-1.2502 1.0084-2.26563 2.2539-2.26563zm-118.9687.16016c1.2455 0 2.2578 1.00957 2.2578 2.25977 0 1.2501-1.0123 2.26555-2.2578 2.26555-1.2454 0-2.252-1.01555-2.252-2.26555 0-1.2502 1.0066-2.25977 2.252-2.25977zm106.6972.91797c-2.3047 0-4.1738 1.87581-4.1738 4.18945 0 2.3135 1.8691 4.1914 4.1738 4.1914 2.3048 0 4.1758-1.8779 4.1758-4.1914 0-2.31364-1.871-4.18945-4.1758-4.18945zm-55.791.5625c-1.0976 4.82805-2.7866 9.44315-4.9199 14.00975-4.0244.2435-8.3728.4328-11.2422.8418 4.7785-8.4005 4.8933-10.3761 6.6621-14.82616zm6.916.68164c1.1302.134 2.3678.30578 3.4844.52148-2.054 7.25733-4.7684 14.70733-8.2754 21.87883l-2.125-.33-1.0039-1.2481 3.3711-1.3515-2.6289-2.6954 4.3555-1.3203-2.6797-2.6523 4.3027-1.0781-2.3027-2.8086 3.8613-1.5118-2.4531-3.1777 4.1133-1.1367zm48.875.2207c1.4982 0 2.7149 1.22067 2.7149 2.72461 0 1.5038-1.2167 2.7207-2.7149 2.7207-1.4981 0-2.7109-1.2169-2.7109-2.7207 0-1.50394 1.2128-2.72461 2.7109-2.72461zm-44.6191.41407 1.4375.23242-.4453 1.54292 1.6367.3496.5293-1.66596s1.3131.12126 1.4531.22656c-1.7124 7.0059-7.7662 21.6696-7.8437 21.5918l-1.5586-.2325.4121-1.4804-1.4512-.2071s-.4988 1.0503-.6992 1.5918l-1.5469-.1289c3.7489-8.5871 6.3012-15.1782 8.0762-21.82024zm76.2012.55664c1.1497-.01 1.0811.5892.248 2.7656-.7831 2.0446-1.0768 2.8641-1.457 3.1289-.9062.6455-2.8594.1056-2.7012-.836.5135-3.0549.697-4.35855 1.4824-4.77335.8185-.1618 1.6158-.28155 2.4278-.28515zm-70.4317.2539 3.7422.72656-3.1289 1.86914 1.9883 2.332-3.8457 1.6465 2.334 2.4238-3.7129 1.5234 2.2578 2.668-3.8516 1.6309 2.6231 2.2812-4.3301 1.3711 1.6406 2.5293-1.6289.9141-2.0117-.3145c3.3367-7.8132 5.4826-14.2404 7.9238-21.6015zm38.8633.7734a.71304387.71304387 0 0 0 -.7129.7148.71304387.71304387 0 0 0 .7129.7129.71304387.71304387 0 0 0 .7129-.7129.71304387.71304387 0 0 0 -.7129-.7148zm-29.666 1.0938 7.3301 2.0019 1.4648 2.627-3.4375 11.6582-9.7695-2.8809zm-14.5703 1.125-.6973 1.914 1.6133.336.6211-1.9708zm-1.418 4.3964-.6992 1.9141 1.5156.3008.7168-1.9356zm-1.4297 3.8653-.7148 1.9043 1.4746.3047.7051-1.9102zm68.877 3.5039c0 .0002-.7481.544-.9453.7851.1631.437.637 1.1101.5664 1.5508-.065.3314-.4312.5987-.9844 1.1895-1.3801 1.6126-1.8678 1.4355-1.0664-.2852.2636-.5409.3828-1.041.3828-1.041-.3192.4485-.5592.9792-.7754 1.4004-.4554.8799-.8828 1.7109-.8828 1.7109.8791.3046 1.4656.9614 2.0332 1.3867 0 0 .2868-.7812.4863-1.5273.2784-1.0406.8282-1.4684 1.502-1.8262.4249-.2262.832-.6367.832-.6367-.7414-.759-.8287-1.8446-1.1484-2.707zm-70.4043.4707-.7559 2.0273 1.4707.3614.8164-2.0704zm-82.9453 5.0976c-.1341 8.0756.1312 13.3925-.1504 22.1016l21.7832 28.3359-3.3965 1.1446s-.039.3945-.2227.4453c-4.6547 1.2849-12.2031 2.5644-12.2031 2.5644 5.6153 12.87 9.2582 28.9631 6.7461 45.0391l56.375-.1484zm71.998 1.6621c16.3902.133 32.6429 4.2762 47.2324 12.0235l-1.9433 1.9551c-28.6711-15.5754-68.1588-15.5144-96.9746 3.3437l-2.3477-1.7285c16.7083-10.7447 35.4577-15.7445 54.0332-15.5938zm-70.9453 1.17 66.3555 95.6797-7.793.1132-58.5039-76.8222zm142.4043 1.7304c-7.0022 1.2876-10.4228 4.1631-9.8711 8.8907.1252 1.8892 2.2871-.1058 2.2871-.1094.0002-.0001 3.7948-3.0933 11.1875-4.5508l-.2422 4.3398c-9.129-.034-8.6316 7.2436-6.0058 11.0274-.9192 1.7496-2.9302 7.858 3.6914 10.1816 3.3029.6603 6.8011-2.0327 6.6933-2.1718 6.0926 2.8924 13.1638-1.9575 7.6504-10.3575 2.073-3.6634.6119-6.3824-1.3672-8.7207 2.7481.3799 5.4445 1.2234 9.2637 1.2285.011-3.9519-3.2539-5.7169-10.0547-6.2539-4.8167.6821-13.2324-3.5379-13.2324-3.5039zm-73.457.4434h.9824l-.3184 6.75-7.4101.3418-.4805-6.7246c2.5515-.1767 4.9211-.3632 7.2266-.3711zm8.8789.1797 7.9492.9707-1.2051 6.3105-7.3203-.789zm64.4336.076c.6577.075.4492.8384-.4512 1.0156-1.4289.2807-5.0955 2.4227-5.0977 2.9785 0 .3584.18.3075 1.5215-.4121 1.9087-.9576 3.7573-1.6021 5.7383-2.4258 1.2318-.5578 1.8442-.1717 1.4004.8828-.2935.6973-.4124.7506-3.2676 1.6602-3.0643.8689-4.4875 2.0572-7.1074 3.4843-1.6876.8771-2.0299.8792-2.0254-.3007.1952-4.8837 5.7986-6.4646 9.2891-6.8828zm-68.7559.8164c.9936 0 1.7969.8092 1.7969 1.8066 0 .9976-.8033 1.8066-1.7969 1.8066-.9938 0-1.8008-.809-1.8008-1.8066 0-.9974.807-1.8066 1.8008-1.8066zm-19.666.4804.5918 6.125-7.2852 1.8789-1.666-6.3261c2.787-.6853 5.5724-1.1675 8.3594-1.6778zm93.8457.4649c1.9969.3051 1.8374 4.8953.8164 5.6914-1.5717 1.1361-2.5373-1.239-1.8359-4.3906.1975-.9477.5632-1.2791 1.0195-1.3008zm-89.7129.248c.9937 0 1.7988.8075 1.7988 1.8047 0 .9978-.8051 1.8066-1.7988 1.8066-.9936 0-1.7988-.8088-1.7988-1.8066 0-.9972.8052-1.8047 1.7988-1.8047zm35.5879.5254 8.2344 2.2559-2.0137 6.3984-7.7285-2.1836zm-4.4844.125c.9939 0 1.8008.8071 1.8008 1.8047 0 .9974-.8069 1.8066-1.8008 1.8066-.9936 0-1.7988-.8092-1.7988-1.8066 0-.9976.8052-1.8047 1.7988-1.8047zm67.3731.5352c3.5481.037 8.2277 1.8244 8.2363 4.5781-.072.7824-7.4328-.2567-10.832-1.6309-1.2061-.4874-2.6764-1.9703-2.6739-2.5898 0-.3683.7205-.3434 1.0137.016.4783.5837 2.173 1.1932 6.0664 2.1777 2.9906.7561 3.2893.7856 3.291.3301-.4762-.8718-4.852-1.414-7.0234-2.1269-1.7832-.5914 1.1976-.7187 1.9219-.7539zm-6.2637 1.4257c.8949.4214 1.2151 1.2591 1.709 1.7012-.6139.292-.8872.588-1.8809.6621.018-.659-.1589-1.4454.1719-2.3633zm-107.8574.4942c.9936 0 1.8027.8092 1.8027 1.8066 0 .9975-.8091 1.8067-1.8027 1.8067-.9937 0-1.7969-.8092-1.7969-1.8067 0-.9974.8032-1.8066 1.7969-1.8066zm-4.8418.5117 1.9433 6.2539-6.9609 3.0391-2.4668-6.1973c2.4063-1.2698 5.0375-2.1918 7.4844-3.0957zm32.1875 1.0215s5.5465.01 7.4609.029l-.4492 7.0586-6.918.055zm-7.4082.3867.3867 7.0488-6.6641.8985-1.3164-7.0899zm42.125.061c.9936 0 1.8027.8093 1.8027 1.8066 0 .9976-.8091 1.8047-1.8027 1.8047-.9937 0-1.7969-.8071-1.7969-1.8047 0-.9973.8032-1.8066 1.7969-1.8066zm48.2109.164c4.0569.018 7.9248 4.7028 3.916 9.6094 6.5751 5.0777-.5748 13.6128-6.3867 8.6387-8.3104 8.1932-12.9547-2.9323-9.5156-5.8828-5.0789-8.3769 1.1621-13.6703 7.5996-9.9747 1.1853-1.6879 2.7992-2.3974 4.3867-2.3906zm-67.9082.2012 7.3086 1.6308-1.4707 6.9727-7.1406-1.4551zm24.1914.1719 6.6836 3.332-5.1816 5.0059-3.8516-1.9239zm-42.8496.789c.9938 0 1.7988.8093 1.7988 1.8067 0 .9975-.805 1.8047-1.7988 1.8047s-1.8008-.8072-1.8008-1.8047c0-.9974.807-1.8067 1.8008-1.8067zm14.4414.2266c.9938 0 1.8007.8092 1.8008 1.8066 0 .9976-.807 1.8067-1.8008 1.8067-2.6483-.4162-1.9358-3.5542 0-3.6133zm-33.2871 1.0176 1.6289 6.9707-6.7715 2.2968-2.4199-6.791zm4.6504.4941c.9937 0 1.7988.8091 1.7988 1.8066 0 .9979-.8051 1.8067-1.7988 1.8067s-1.7988-.8088-1.7988-1.8067c0-.9975.8051-1.8066 1.7988-1.8066zm102.7363.6113c-.1816 0-.4037.094-.5879.3282-.9703 1.235-2.0668 2.4733-3.1015 3.6601-1.6845-.6971-3.3177-.4202-4.4102.332-1.4666-1.1644-2.6387-2.2811-4.2832-3.2519-.2527-.1492-.5416.035-.3906.2559 1.031 1.5113 2.5993 2.3658 3.8789 3.8398-.4979 1.6147-.4924 2.8787.459 4.2363-.705 1.1917-2.1472 2.677-3.0313 4.3496-.3321.6283.3891.5427.4375.5059 1.4279-1.0853 2.1213-2.5331 3.6992-3.8301 1.6829.4558 2.6146.8683 4.2969-.5254 1.5904.7352 2.5096 1.8539 4.291 2.8946.5853.3419.7633-.4012.5039-.6641-1.49-1.5103-2.49-2.1158-4.0527-3.3926.3559-.5866.6087-2.6693-.6094-4.0957 1.1176-1.394 1.6292-1.9452 3.1153-3.9726.2803-.3825.088-.6648-.2149-.67zm-54.7285.6075 6.5957 2.7812-2.3594 6.9199-6.3711-2.6113zm-72.5762.4648c.9939 0 1.8008.8074 1.8008 1.8047 0 .9977-.8069 1.8066-1.8008 1.8066-.9935 0-1.7988-.8089-1.7988-1.8066 0-.9973.8052-1.8047 1.7988-1.8047zm67.4766.1856c.9937 0 1.7988.8072 1.7988 1.8046 0 .9975-.8051 1.8067-1.7988 1.8067-.9938 0-1.8008-.8092-1.8008-1.8067 0-.9974.807-1.8046 1.8008-1.8046zm-72.084.4941 2.1602 5.3672-4.9102-3.6739zm54.1309 1.3828 6.5703.7793-1.0391 6.2852-5.666-.5157zm-7.1719.018-.064 6.459-6.2421.2695-.5293-6.4512zm-32.1113 1.1758c.9935 0 1.7988.8067 1.7988 1.8047 0 .9975-.8053 1.8066-1.7988 1.8066-.9939 0-1.7988-.8091-1.7989-1.8066 0-.998.805-1.8047 1.7989-1.8047zm-4.9766.1289 2.5391 6.4922-3.9375 1.9082-5.2793-5.0137zm23.4922.082 1.0156 6.1797-6.5078 1.6133-1.5801-6.2852zm93.0254.062c1.4166 0 2.5644 1.1524 2.5644 2.5742 0 1.4221-1.1478 2.5762-2.5644 2.5762s-2.5664-1.1541-2.5664-2.5762c0-1.4218 1.1498-2.5742 2.5664-2.5742zm-76.1563.1953c.9938 0 1.8008.8092 1.8008 1.8067s-.807 1.8066-1.8008 1.8066c-.9937 0-1.7988-.8091-1.7988-1.8066s.8051-1.8067 1.7988-1.8067zm17.7266.666 6.9414 2.2559-2.334 5.5781-5.9941-1.6308zm-30.7578.2324c.9937 0 1.7988.8092 1.7988 1.8067s-.8051 1.8047-1.7988 1.8047-1.7969-.8072-1.7969-1.8047.8032-1.8061 1.7969-1.8067zm89.1738.127c-.7314 0-1.3242.5929-1.3242 1.3242 0 .7314.5928 1.3242 1.3242 1.3242.7313.0001 1.3242-.5928 1.3242-1.3242 0-.7313-.5929-1.3242-1.3242-1.3242zm-62.7832.5391c.9936 0 1.7969.8073 1.7969 1.8047 0 .9976-.8033 1.8066-1.7969 1.8066-.9939 0-1.8008-.809-1.8008-1.8066 0-.9974.8069-1.8047 1.8008-1.8047zm-44.0703 2.1152 2.3906 5.5215-6.5293 2.834-2.8437-5.6309zm4.6289.3301c.9936 0 1.7969.8094 1.7969 1.8066 0 .9978-.8033 1.8067-1.7969 1.8067-.9939 0-1.8027-.8089-1.8027-1.8067 0-.9972.8088-1.8066 1.8027-1.8066zm24.0527 1.666c10.719-.022 20.3963 2.2276 28.1641 5.4551l-2.3125 2.1777c-25.1946-8.6902-41.6738-4.7757-58.5703 2.6621l-1.7051-2.1152c11.9427-5.8639 23.705-8.1574 34.4238-8.1797zm28.502.068c.9938 0 1.7988.8092 1.7988 1.8066 0 .9975-.805 1.8047-1.7988 1.8047-.9937 0-1.7969-.8072-1.7969-1.8047 0-.9974.8032-1.8066 1.7969-1.8066zm-65.6563 3.9492v.01c1.4457.086 1.5841 2.7923.9102 2.0117l-1.6094-1.8789c.2614-.1124.4927-.1567.6992-.1445zm67.3516 1.1328c-.053 2.0532-1.9872 15.8145-8.5254 25.2754-.3969-4.7853-1.5504-10.5056-2.8359-14.3242 0 0 7.0349-6.5259 11.3613-10.9512zm-83.6387 20.8535 34.0235 46.0508-3.5723-.025c-1.4318-8.6516-6.4173-13.122-12.207-15.4883-.4648-7.2804-4.9722-13.866-12.3477-16.1816-.4802-4.8684-2.6691-9.657-8.1582-13.6895zm-3.3769 1.0586c6.513 5.0054 6.8324 6.2206 8.6992 13.9394 9.3124 3.1503 11.6514 10.1045 12.2539 16.0059 6.1325 2.4122 11.1582 7.5706 12.0332 14.9961l-1.8711.01c-1.335-8.4246-6.6177-11.7853-12.2031-13.3594.4348-11.8934-8.7785-15.6036-11.9961-16.1621.189-8.5665-5.3329-12.1017-8.8965-14.9766.695-.178 1.3621-.3065 1.9805-.4531zm-5.4395 1.2266c2.783.9129 4.8937 4.8042 4.6797 6.5957 3.6708.4643 7.5262 4.0264 6.6797 7.7363-.2715.1572-.7005.1897-1.125-.2363.9838-7.1973-9.7189-3.6351-5.4414 1.5722l-1.9141 1.2539c-1.5381-7.2029-3.4309-11.2833-5.4863-16.4863.7497-.1987 2.6074-.4355 2.6074-.4355zm8.8633 15.0898c.9507 0 1.7168.7743 1.7168 1.7285 0 .9544-.7661 1.7285-1.7168 1.7285s-1.7207-.7741-1.7207-1.7285c0-.9542.77-1.7285 1.7207-1.7285zm4.4102.832c2.4865-.1708 4.899 4.4535 4.7812 6.9375 4.0874 1.1606 5.41 5.3132 5.2754 6.8242l-.8965-.019c-1.437-6.5802-8.9063-3.0013-5.7871 2.2461-3.9942 1.4817-3.6799 5.1814-2.5039 6.6445 1.6233 2.0196 5.76 1.958 7.0215-1.1503 3.8833 5.0419 9.2424-.617 4.5156-5.3165 3.8711 1.4312 4.492 6.6378 3.9102 8.2637 1.7968.6152 3.8664 3.4773 3.5898 3.461l-29.0039.01s1.402-11.7479-.09-20.6152c1.9299.466 3.2249.9329 5.4453-1.6836 3.5934 2.9864 6.1747.7322 5.9883-1.8477-.2761-1.8044-1.2038-2.6993-2.7442-3.6523.1657-.056.3323-.09.4981-.1016zm8.0156 15.2129c.9796 0 1.7734.7981 1.7734 1.7813s-.7938 1.7812-1.7734 1.7812c-.9795 0-1.7715-.798-1.7715-1.7812s.792-1.7813 1.7715-1.7813z" transform="matrix(.941705 0 0 .940506 1822.16 -796.631)"/><g fill="#c8102e"><path d="m3387.1498 39.5284c-2.1609-3.5686-4.4344-7.0371-7.2754-10 2.841-2.9628 5.1145-6.4313 7.2754-10 2.1609 3.5687 4.4343 7.0372 7.2754 10-2.8411 2.9629-5.1145 6.4314-7.2754 10z"/><path d="m3575.1018 231.393c-2.1609-3.5686-4.4344-7.0371-7.2754-10 2.841-2.9628 5.1145-6.4313 7.2754-10 2.1609 3.5687 4.4343 7.0372 7.2754 10-2.8411 2.9629-5.1145 6.4314-7.2754 10z"/><path d="m3429.59 50.25c-5.1862-8.5648-10.6425-16.8891-17.4609-24 6.8184-7.1108 12.2747-15.4351 17.4609-24 5.1862 8.5649 10.6424 16.8892 17.4609 24-6.8185 7.1109-12.2747 15.4352-17.4609 24z"/><path d="m3532.6609 248.6833c-5.1862-8.5648-10.6425-16.8891-17.461-24 6.8185-7.1108 12.2748-15.4351 17.461-24 5.1862 8.5649 10.6424 16.8892 17.4609 24-6.8185 7.1109-12.2747 15.4352-17.4609 24z"/><path d="m3379.8812 5.473h-2.7578v-3.7595h2.7578s.021-2.0258.1003-5.5994c.171-7.6173.3612-8.7998 2.5662-10.8963 4.3546-4.1432 11.647-.7673 11.5608 5.4632-.126 8.7933-.035 17.1766-.2918 18.3643-.4565 2.0913-.5027 2.2091-.3163 2.5915.3818.7674 3.6758 1.1 3.6758.8852v3.7033c-2.5161.1951-3.5614-.041-5.5747-1.4785-1.2561 1.2126-5.0823 2.4305-8.1255.9979-2.3143-1.0895-4.068-3.9036-3.5948-10.2717zm9.3212 6.5632c-1.3667-1.9747-3.6668-4.6697-5.8306-5.6269-.135 2.2707.061 4.1747.8589 5.1987 1.2702 1.6303 3.3235 2.0035 4.9717.4282zm1.134-21.7192c-1.0144-2.873-3.6205-3.8473-5.5246-2.0494-1.1905 1.1184-1.3808 2.2956-1.4065 8.6898-.015 3.9442-.015 5.602-.015 5.602 3.7067 1.2021 7.1716 5.5234 7.142 5.4671l.09-11.9281c.072-1.9354-.024-3.8735-.2854-5.7814z"/><path d="m3582.3704 245.4482h2.7578v3.7596h-2.7578s-.021 2.0258-.1003 5.5994c-.171 7.6173-.3612 8.7998-2.5662 10.8963-4.3546 4.1432-11.647.7673-11.5608-5.4632.126-8.7933.035-17.1766.2918-18.3644.4565-2.0912.5027-2.2091.3163-2.5914-.3818-.7674-3.6758-1.1-3.6758-.8852v-3.7033c2.5161-.1951 3.5614.041 5.5747 1.4784 1.2561-1.2126 5.0823-2.4304 8.1255-.9978 2.3143 1.0895 4.068 3.9036 3.5948 10.2716zm-9.3212-6.5631c1.3667 1.9747 3.6668 4.6696 5.8306 5.6268.135-2.2706-.061-4.1746-.8589-5.1986-1.2702-1.6303-3.3235-2.0035-4.9717-.4282zm-1.134 21.7192c1.0144 2.873 3.6205 3.8473 5.5246 2.0493 1.1905-1.1183 1.3808-2.2955 1.4065-8.6897.015-3.9442.015-5.6021.015-5.6021-3.7067-1.2021-7.1716-5.5234-7.142-5.4671l-.09 11.9282c-.072 1.9354.024 3.8735.2854 5.7814z"/></g></g></svg>