<svg height="88.000275mm" viewBox="0 0 238.11099 332.59947" width="63.000198mm" xmlns="http://www.w3.org/2000/svg"><rect fill="#fff" height="332.5994820368" rx="11.38947239199" ry="11.3749795467" width="238.1109840945" x="-.000037964" y=".00000971691"/><g fill="#c8102e" stroke-width="1.06667"><path d="m18.365352761 74.638458428c-2.304967203-3.806518562-4.730041448-7.506263457-7.760450918-10.6667 3.03040947-3.160329876 5.455483715-6.860074771 7.760450918-10.6667 2.304860536 3.806625229 4.729934781 7.506370124 7.760450918 10.6667-3.030516137 3.160436543-5.455590382 6.860181438-7.760450918 10.6667z"/><path d="m174.273253305 86.0748675c-5.531963954-9.135815216-11.352035475-18.015096297-18.625018203-25.60008 7.272982728-7.584877036 13.093160916-16.464158117 18.625018203-25.60008 5.531963954 9.135921883 11.352035475 18.015202964 18.625018203 25.60008-7.272982728 7.584983703-13.093054249 16.464264784-18.625018203 25.60008z"/><path d="m219.746782076 279.29467131c-2.304967203-3.806518562-4.730041448-7.506263457-7.760450918-10.6667 3.03040947-3.160329876 5.455483715-6.860074771 7.760450918-10.6667 2.304860536 3.806625229 4.729828114 7.506370124 7.760450918 10.6667-3.030622804 3.160436543-5.455590382 6.860181438-7.760450918 10.6667z"/><path d="m63.837921529 86.0748675c-5.531963954-9.135815216-11.352035475-18.015096297-18.625018203-25.60008 7.272982728-7.584877036 13.093160916-16.464158117 18.625018203-25.60008 5.531963954 9.135921883 11.352035475 18.015202964 18.625018203 25.60008-7.272982728 7.584983703-13.093054249 16.464264784-18.625018203 25.60008z"/><path d="m119.055587417 138.970072797c-5.531963954-9.135815216-11.352035475-18.015096297-18.625018203-25.60008 7.272982728-7.584877036 13.093054249-16.464158117 18.625018203-25.60008 5.531963954 9.135921883 11.352035475 18.015202964 18.625018203 25.60008-7.272982728 7.584983703-13.093054249 16.464264784-18.625018203 25.60008z"/><path d="m63.837921529 191.865384761c-5.531963954-9.135815216-11.352035475-18.015096297-18.625018203-25.60008 7.272982728-7.584877036 13.093160916-16.464158117 18.625018203-25.60008 5.531963954 9.135921883 11.352035475 18.015202964 18.625018203 25.60008-7.272982728 7.584983703-13.093054249 16.464264784-18.625018203 25.60008z"/><path d="m174.273253305 191.881918146c-5.531963954-9.135815216-11.352035475-18.015096297-18.625018203-25.60008 7.272982728-7.584877036 13.093160916-16.464158117 18.625018203-25.60008 5.531963954 9.135921883 11.352035475 18.015202964 18.625018203 25.60008-7.272982728 7.584983703-13.093054249 16.464264784-18.625018203 25.60008z"/><path d="m63.837921529 297.730248921c-5.531963954-9.135815216-11.352035475-18.015096297-18.625018203-25.60008 7.272982728-7.584877036 13.093160916-16.464158117 18.625018203-25.60008 5.531963954 9.135921883 11.352035475 18.015202964 18.625018203 25.60008-7.272982728 7.584983703-13.093054249 16.464264784-18.625018203 25.60008z"/><path d="m174.273253305 297.737715611c-5.531963954-9.135815216-11.352035475-18.015096297-18.625018203-25.60008 7.272982728-7.584877036 13.093160916-16.464158117 18.625018203-25.60008 5.531963954 9.135921883 11.352035475 18.015202964 18.625018203 25.60008-7.272982728 7.584983703-13.093054249 16.464264784-18.625018203 25.60008z"/><path d="m119.055587417 244.797816841c-5.531963954-9.135815216-11.352035475-18.015096297-18.625018203-25.60008 7.272982728-7.584877036 13.093160916-16.464158117 18.625018203-25.60008 5.531963954 9.135921883 11.352035475 18.015202964 18.625018203 25.60008-7.272982728 7.584983703-13.093054249 16.464264784-18.625018203 25.60008z"/><path d="m6.929370357 39.649869089c.167253856-4.725454767 1.876059196-6.498046973 5.240123042-8.970374699-2.683848387-1.935899383-3.815265256-4.789668301-3.584864536-7.218689225.552641727-5.881938381 5.094735921-8.822214236 10.051018076-8.69656051 4.960335501.131307077 9.229468842 4.063372698 9.56269655 8.337626055.289387571 3.715531611-.814615879 5.509030549-3.450464116 7.463063322 3.128223109 2.641394921 5.126309353 4.376227009 5.052282455 9.03042822-.07360023 4.654201211-4.033292604 10.192458518-10.934220836 10.361525713-6.900821565.168960528-12.108091171-5.581670776-11.936570635-10.307018876zm19.2640602.01706672c.294827588-4.278520037-3.487477565-7.164289055-7.756717573-7.206209186-4.156706323-.04480014-7.874584608 3.503264281-7.874584608 7.344449618 0 4.12481289 4.836921782 6.366633229 7.960984878 6.376446593 3.797451867.01706672 7.413783168-2.831368848 7.670317303-6.514687025zm-1.365977602-15.304901161c.08106692-3.599477915-3.240650127-6.182205986-6.669140841-6.078845663-3.04854286.09386696-6.272766269 2.417820889-6.278206286 5.4293503 0 3.770038448 3.669878135 5.652924332 6.803541261 5.725564559 2.844275555.0640002 6.079378998-2.353607355 6.143805866-5.076069196z"/><path d="m208.310799672 292.949967316c.167253856 4.725454767 1.876059196 6.497940306 5.240123042 8.970374699-2.683848387 1.935899383-3.815265256 4.789561634-3.584864536 7.218689225.552641727 5.881938381 5.094735921 8.822214236 10.051018076 8.696453843 4.960335501-.131307077 9.229468842-4.063266031 9.56269655-8.337519388.289387571-3.715531611-.814615879-5.509030549-3.450464116-7.463169989 3.128223109-2.641288254 5.126309353-4.376120342 5.052282455-9.030321553-.07360023-4.654201211-4.033292604-10.192565185-10.934220836-10.361525713-6.900821565-.169067195-12.108091171 5.581670776-11.936570635 10.307018876zm19.2640602-.01706672c.294827588 4.27841337-3.487477565 7.164289055-7.756717573 7.206209186-4.156706323.04480014-7.874584608-3.503264281-7.874584608-7.344449618 0-4.12481289 4.836921782-6.366633229 7.960984878-6.376446593 3.797451867-.01706672 7.413783168 2.831368848 7.670317303 6.514687025zm-1.365977602 15.304901161c.08106692 3.599477915-3.240650127 6.182205986-6.669140841 6.078845663-3.04854286-.09386696-6.272766269-2.417820889-6.278206286-5.4293503 0-3.770038448 3.669878135-5.652924332 6.803541261-5.725564559 2.844275555-.0640002 6.079378998 2.353607355 6.143805866 5.076069196z"/></g></svg>