<svg height="88.000275mm" viewBox="0 0 238.11099 332.59947" width="63.000198mm" xmlns="http://www.w3.org/2000/svg"><rect fill="#fff" height="332.5994820368" rx="11.38947239199" ry="11.3749795467" width="238.1109840945" x=".000025702" y=".00000971691"/><g fill="#c8102e" stroke-width="1.06667"><path d="m18.365096426 74.63841362786c-2.304967203-3.80651536199-4.729934781-7.50626132366-7.760450918-10.66669679999 3.030516137-3.16033094267 5.455483715-6.860074771 7.760450918-10.6667 2.304967203 3.806625229 4.730041448 7.50636905733 7.760450918 10.6667-3.03040947 3.16043547633-5.455483715 6.860181438-7.760450918 10.66669679999z"/><path d="m174.273103637 86.0748248332c-5.531963954-9.135815216-11.351928808-18.015096297-18.625018203-25.60008 7.273089395-7.584877036 13.093054249-16.464158117 18.625018203-25.60008 5.531963954 9.135921883 11.352035475 18.015202964 18.62512487 25.60008-7.273089395 7.584983703-13.093160916 16.464264784-18.62512487 25.60008z"/><path d="m219.746525741 279.29467131c-2.304967203-3.806518562-4.729934781-7.506263457-7.760450918-10.6667 3.030516137-3.160329876 5.455483715-6.860074771 7.760450918-10.6667 2.304967203 3.806625229 4.730041448 7.506370124 7.760450918 10.6667-3.03040947 3.160436543-5.455483715 6.860181438-7.760450918 10.6667z"/><path d="m63.837771861 86.0748248332c-5.531963954-9.135815216-11.351928808-18.015096297-18.625018203-25.60008 7.273089395-7.584877036 13.093054249-16.464158117 18.625018203-25.60008 5.531963954 9.135921883 11.352035475 18.015202964 18.62512487 25.60008-7.273089395 7.584983703-13.093160916 16.464264784-18.62512487 25.60008z"/><path d="m63.837771861 297.7302915878c-5.531963954-9.135815216-11.351928808-18.015096297-18.625018203-25.60008 7.273089395-7.584877036 13.093054249-16.464158117 18.625018203-25.60008 5.531963954 9.135921883 11.352035475 18.015202964 18.62512487 25.60008-7.273089395 7.584983703-13.093160916 16.464264784-18.62512487 25.60008z"/><path d="m174.273103637 297.7376942776c-5.531963954-9.135815216-11.351928808-18.015096297-18.625018203-25.60008 7.273089395-7.584877036 13.093054249-16.464158117 18.625018203-25.60008 5.531963954 9.135921883 11.352035475 18.015202964 18.62512487 25.60008-7.273089395 7.584983703-13.093160916 16.464264784-18.62512487 25.60008z"/><path d="m18.610430526 49.956034629v-3.108916382h2.805875435v-5.12854936h-14.034923859v-3.618784642l15.186927459-23.339592936 2.480861086.01280004v23.32700623h4.29654676v3.618784642h-4.29654676l-.08106692 5.12854936h2.351900683v3.113183062h-8.709680551zm2.805875435-26.651069951-9.642270132 14.796206238h9.642270132z"/><path d="m219.498098298 282.643481775v3.109023049h-2.805875435v5.12854936h14.034923859v3.618677975l-15.186927459 23.339699603-2.480861086-.01280004v-23.327112897h-4.29654676v-3.618677975h4.29654676l.08106692-5.12854936h-2.351900683v-3.113183062h8.709680551zm-2.805875435 26.651176618 9.642270132-14.796312905h-9.642270132z"/></g></svg>