<svg height="88.000275mm" viewBox="0 0 238.11099 332.59947" width="63.000198mm" xmlns="http://www.w3.org/2000/svg"><rect fill="#fff" height="332.5994820368" rx="11.38947239199" ry="11.3749795467" width="238.1109840945" x=".000004952" y=".00000971691"/><g fill="#c8102e" stroke-width="1.06667"><path d="m119.055523666 86.0748248332c-5.531963954-9.135815216-11.352035475-18.015096297-18.62512487-25.60008 7.273089395-7.584877036 13.093160916-16.464158117 18.62512487-25.60008 5.531963954 9.135921883 11.351928808 18.015202964 18.625018203 25.60008-7.273089395 7.584983703-13.093054249 16.464264784-18.625018203 25.60008z"/><path d="m18.365182343 74.63841362786c-2.304967203-3.80651536199-4.730041448-7.50626132366-7.760450918-10.66669679999 3.03040947-3.16033094267 5.455483715-6.860074771 7.760450918-10.6667 2.304967203 3.806625229 4.729934781 7.50636905733 7.760450918 10.6667-3.030516137 3.16043547633-5.455483715 6.860181438-7.760450918 10.66669679999z"/><path d="m219.746611658 279.29467131c-2.304967203-3.806518562-4.730041448-7.506263457-7.760450918-10.6667 3.03040947-3.160329876 5.455483715-6.860074771 7.760450918-10.6667 2.304967203 3.806625229 4.729934781 7.506370124 7.760450918 10.6667-3.030516137 3.160436543-5.455483715 6.860181438-7.760450918 10.6667z"/><path d="m119.055523666 191.8998488687c-5.531963954-9.135815216-11.352035475-18.015096297-18.62512487-25.60008 7.273089395-7.584877036 13.093160916-16.464158117 18.62512487-25.60008 5.531963954 9.135921883 11.351928808 18.015202964 18.625018203 25.60008-7.273089395 7.584983703-13.093054249 16.464264784-18.625018203 25.60008z"/><path d="m119.055523666 297.7248835709c-5.531963954-9.135815216-11.352035475-18.015096297-18.62512487-25.60008 7.273089395-7.584877036 13.093160916-16.464158117 18.62512487-25.60008 5.531963954 9.135921883 11.351928808 18.015202964 18.625018203 25.60008-7.273089395 7.584983703-13.093054249 16.464264784-18.625018203 25.60008z"/><path d="m6.9394826378 42.244543864 2.7099391352-1.993072895c2.351900683 3.829665301 4.982202236 6.352126517 9.00589481 5.919165164 6.036925532-.414827963 8.538373349-6.743274406 7.275329402-11.511609307-1.221870485-4.277986702-6.220712773-6.361833214-10.195018526-4.08107942-.938029598.540481689-1.843099093.981869735-2.020059646.981869735-.416854636 0-1.360430918-1.877125866-1.231470515-2.449820989 2.667315002-3.895372173 9.144455243-10.719606832 9.144455243-10.719606832h-10.119604957v4.570040948h-3.8837028032v-8.200025625h19.7782591402v2.782195361s-5.299109893 5.496017175-7.050368699 8.505839914c4.313080145.15786716 7.789571009 2.891209035 9.037574909 7.212502539.728215609 2.275313777.401814589 7.479383373-.551361723 9.722377049-1.592111642 3.738998351-5.940925232 6.772607831-9.916510989 6.94722171-6.674687525.448321401-10.2155625902-4.227853212-11.9833547812-7.685997352z"/><path d="m231.169047353 290.355185874-2.709981802 1.993072895c-2.351900683-3.829771968-4.982202236-6.352233184-9.00589481-5.919165164-6.036925532.414827963-8.538373349 6.743167739-7.275329402 11.51150264 1.221870485 4.278093369 6.220712773 6.361939881 10.195018526 4.081186087.938029598-.540588356 1.843099093-.981869735 2.020059646-.981869735.416854636 0 1.360430918 1.877125866 1.231470515 2.449714322-2.667315002 3.89547884-9.144455243 10.719713499-9.144455243 10.719713499h10.119604957v-4.570040948h3.88374547v8.200025625h-19.778301807v-2.782195361s5.299109893-5.496017175 7.050368699-8.505946581c-4.313080145-.157760493-7.789571009-2.891102368-9.037574909-7.212502539-.728215609-2.27520711-.401814589-7.479276706.551361723-9.722377049 1.592111642-3.738891684 5.940925232-6.772607831 9.916510989-6.947115043 6.674687525-.448321401 10.215605257 4.227746545 11.983397448 7.685997352z"/></g></svg>