<svg height="88.000275mm" viewBox="0 0 238.11099 332.59947" width="63.000198mm" xmlns="http://www.w3.org/2000/svg"><rect fill="#fff" height="332.5994820368" rx="11.38947239199" ry="11.3749795467" width="238.1109840945" x="-.000045381" y=".00000971691"/><g fill="#c8102e" stroke-width="1.06667"><path d="m18.365238677 74.63841362786c-2.304967203-3.80651536199-4.730041448-7.50626132366-7.760450918-10.66669679999 3.03040947-3.16033094267 5.455483715-6.860074771 7.760450918-10.6667 2.304967203 3.806625229 4.729934781 7.50636905733 7.760450918 10.6667-3.030516137 3.16043547633-5.455483715 6.860181438-7.760450918 10.66669679999z"/><path d="m174.273245888 86.0748248332c-5.531963954-9.135815216-11.352035475-18.015096297-18.62512487-25.60008 7.273089395-7.584877036 13.093160916-16.464158117 18.62512487-25.60008 5.531963954 9.135921883 11.351928808 18.015202964 18.625018203 25.60008-7.273089395 7.584983703-13.093054249 16.464264784-18.625018203 25.60008z"/><path d="m219.746667992 279.29467131c-2.304967203-3.806518562-4.730041448-7.506263457-7.760450918-10.6667 3.03040947-3.160329876 5.455483715-6.860074771 7.760450918-10.6667 2.304967203 3.806625229 4.729934781 7.506370124 7.760450918 10.6667-3.030516137 3.160436543-5.455483715 6.860181438-7.760450918 10.6667z"/><path d="m63.837914112 86.0748248332c-5.531963954-9.135815216-11.352035475-18.015096297-18.62512487-25.60008 7.273089395-7.584877036 13.093160916-16.464158117 18.62512487-25.60008 5.531963954 9.135921883 11.351928808 18.015202964 18.625018203 25.60008-7.273089395 7.584983703-13.093054249 16.464264784-18.625018203 25.60008z"/><path d="m119.05558 138.9700941304c-5.531963954-9.135815216-11.352035475-18.0151069637-18.62512487-25.60008 7.273089395-7.58488130268 13.093160916-16.46416238368 18.62512487-25.60008320001 5.531963954 9.13592081633 11.351928808 18.01520189733 18.625018203 25.60008320001-7.273089395 7.5849730363-13.093054249 16.464264784-18.625018203 25.60008z"/><path d="m63.837914112 191.8653527609c-5.531963954-9.135815216-11.352035475-18.015096297-18.62512487-25.60008 7.273089395-7.584877036 13.093160916-16.464158117 18.62512487-25.60008 5.531963954 9.135921883 11.351928808 18.015202964 18.625018203 25.60008-7.273089395 7.584983703-13.093054249 16.464264784-18.625018203 25.60008z"/><path d="m174.273245888 191.8819608128c-5.531963954-9.135815216-11.352035475-18.015096297-18.62512487-25.60008 7.273089395-7.584877036 13.093160916-16.464158117 18.62512487-25.60008 5.531963954 9.135921883 11.351928808 18.015202964 18.625018203 25.60008-7.273089395 7.584983703-13.093054249 16.464264784-18.625018203 25.60008z"/><path d="m63.837914112 297.7302915878c-5.531963954-9.135815216-11.352035475-18.015096297-18.62512487-25.60008 7.273089395-7.584877036 13.093160916-16.464158117 18.62512487-25.60008 5.531963954 9.135921883 11.351928808 18.015202964 18.625018203 25.60008-7.273089395 7.584983703-13.093054249 16.464264784-18.625018203 25.60008z"/><path d="m174.273245888 297.7376942776c-5.531963954-9.135815216-11.352035475-18.015096297-18.62512487-25.60008 7.273089395-7.584877036 13.093160916-16.464158117 18.62512487-25.60008 5.531963954 9.135921883 11.351928808 18.015202964 18.625018203 25.60008-7.273089395 7.584983703-13.093054249 16.464264784-18.625018203 25.60008z"/><path d="m12.952741763 49.956567964c2.314993901-12.238224911 4.779321602-21.425880289 11.249635155-31.397111449h-13.151721099v4.292066746h-3.491637578v-8.091225285h19.236646781l2.372594081 3.799158539c-6.872128142 7.501783443-13.161427796 31.751885891-12.047824316 31.397111449z"/><path d="m225.155964896 282.643055107c-2.314993901 12.238118244-4.779321602 21.425880289-11.249635155 31.397111449h13.151721099v-4.292173413h3.491637578v8.091331952h-19.236646781l-2.372594081-3.799158539c6.872128142-7.501783443 13.161427796-31.751885891 12.047824316-31.397111449z"/></g></svg>