<?xml version="1.0" encoding="UTF-8" standalone="no"?>
<svg
   width="63.000198mm"
   height="88.000275mm"
   viewBox="0 0 238.11099 332.59947"
   version="1.1"
   id="svg8"
   xmlns="http://www.w3.org/2000/svg"
   xmlns:svg="http://www.w3.org/2000/svg"
   xmlns:rdf="http://www.w3.org/1999/02/22-rdf-syntax-ns#"
   xmlns:cc="http://creativecommons.org/ns#"
   xmlns:dc="http://purl.org/dc/elements/1.1/">
  <title
     id="title8745">Vector Playing Cards</title>
  <defs
     id="defs2" />
  <metadata
     id="metadata5">
    <rdf:RDF>
      <cc:Work
         rdf:about="">
        <dc:format>image/svg+xml</dc:format>
        <dc:type
           rdf:resource="http://purl.org/dc/dcmitype/StillImage" />
        <dc:title>Vector Playing Cards</dc:title>
        <dc:creator>
          <cc:Agent>
            <dc:title>Chris Aguilar</dc:title>
          </cc:Agent>
        </dc:creator>
        <dc:rights>
          <cc:Agent>
            <dc:title>Copyright 2011, 017</dc:title>
          </cc:Agent>
        </dc:rights>
        <dc:publisher>
          <cc:Agent>
            <dc:title>Chris Aguilar</dc:title>
          </cc:Agent>
        </dc:publisher>
        <dc:description>Vector Playing Cards</dc:description>
        <dc:contributor>
          <cc:Agent>
            <dc:title>Chris Aguilar</dc:title>
          </cc:Agent>
        </dc:contributor>
        <cc:license
           rdf:resource="https://opensource.org/licenses/lgpl-3.0.html" />
      </cc:Work>
    </rdf:RDF>
  </metadata>
  <g
     id="layer1"
     transform="translate(-23.950765,-1075.6353)">
    <g
       transform="matrix(1.06667,0,0,1.06667,-1879.16,1108.11)"
       id="DIAMOND-6">
      <rect
         ry="10.66401"
         rx="10.677597"
         style="display:inline;opacity:1;fill:#ffffff;fill-opacity:1;stroke:#808080;stroke-width:1.00057;stroke-miterlimit:4;stroke-dasharray:none;stroke-opacity:0.75"
         id="rect6758-6"
         width="223.22835"
         height="311.81104"
         x="1784.1608"
         y="-30.444927" />
      <path
         style="display:inline;opacity:1;fill:#c8102e;fill-opacity:1"
         d="m 1801.378,39.528358 c -2.1609,-3.568597 -4.4344,-7.037098 -7.2754,-9.999997 2.841,-2.962801 5.1145,-6.4313 7.2754,-10 2.1609,3.5687 4.4343,7.037199 7.2754,10 -2.8411,2.962899 -5.1145,6.4314 -7.2754,9.999997 z"
         id="path6790-5" />
      <path
         style="display:inline;opacity:1;fill:#c8102e;fill-opacity:1"
         d="m 1947.5413,50.24996 c -5.1862,-8.5648 -10.6425,-16.8891 -17.461,-24 6.8185,-7.1108 12.2748,-15.4351 17.461,-24 5.1862,8.5649 10.6424,16.8892 17.4609,24 -6.8185,7.1109 -12.2747,15.4352 -17.4609,24 z"
         id="path6792-5" />
      <path
         id="path6794-1"
         d="m 1990.1725,231.393 c -2.1609,-3.5686 -4.4344,-7.0371 -7.2754,-10 2.841,-2.9628 5.1145,-6.4313 7.2754,-10 2.1609,3.5687 4.4343,7.0372 7.2754,10 -2.8411,2.9629 -5.1145,6.4314 -7.2754,10 z"
         style="display:inline;opacity:1;fill:#c8102e;fill-opacity:1" />
      <path
         style="display:inline;opacity:1;fill:#c8102e;fill-opacity:1"
         d="m 1844.0085,50.24996 c -5.1862,-8.5648 -10.6425,-16.8891 -17.461,-24 6.8185,-7.1108 12.2748,-15.4351 17.461,-24 5.1862,8.5649 10.6424,16.8892 17.4609,24 -6.8185,7.1109 -12.2747,15.4352 -17.4609,24 z"
         id="path6796-2" />
      <path
         style="display:inline;opacity:1;fill:#c8102e;fill-opacity:1"
         d="m 1844.0085,149.42827 c -5.1862,-8.5648 -10.6425,-16.8891 -17.461,-24 6.8185,-7.1108 12.2748,-15.4351 17.461,-24 5.1862,8.5649 10.6424,16.8892 17.4609,24 -6.8185,7.1109 -12.2747,15.4352 -17.4609,24 z"
         id="path6806-6" />
      <path
         style="display:inline;opacity:1;fill:#c8102e;fill-opacity:1"
         d="m 1947.5413,149.44384 c -5.1862,-8.5648 -10.6425,-16.8891 -17.461,-24 6.8185,-7.1108 12.2748,-15.4351 17.461,-24 5.1862,8.5649 10.6424,16.8892 17.4609,24 -6.8185,7.1109 -12.2747,15.4352 -17.4609,24 z"
         id="path6808-6" />
      <path
         id="path6812-0"
         d="m 1844.0085,248.67634 c -5.1862,-8.5648 -10.6425,-16.8891 -17.461,-24 6.8185,-7.1108 12.2748,-15.4351 17.461,-24 5.1862,8.5649 10.6424,16.8892 17.4609,24 -6.8185,7.1109 -12.2747,15.4352 -17.4609,24 z"
         style="display:inline;opacity:1;fill:#c8102e;fill-opacity:1" />
      <path
         id="path6814-4"
         d="m 1947.5413,248.68328 c -5.1862,-8.5648 -10.6425,-16.8891 -17.461,-24 6.8185,-7.1108 12.2748,-15.4351 17.461,-24 5.1862,8.5649 10.6424,16.8892 17.4609,24 -6.8185,7.1109 -12.2747,15.4352 -17.4609,24 z"
         style="display:inline;opacity:1;fill:#c8102e;fill-opacity:1" />
      <path
         d="m 1791.6856,6.24 c -0.4063,-2.7774 -0.396,-9.9574 -0.064,-12.0814 1.0247,-6.5069 3.5099,-9.4846 7.6729,-10.4563 4.0435,-0.9468 9.7237,0.1074 10.9695,5.5457 l -3.3801,0.066 c -1.8282,-3.677 -6.4541,-2.6949 -9.0602,-1.0947 -2.0789,1.2741 -3.0188,6.5946 -2.6164,6.922 0,0 3.9317,-2.9123 7.0315,-2.6976 6.6238,0.6901 9.3559,6.4349 9.1244,11.8588 -0.2108,6.5252 -2.2795,11.7436 -9.3006,12.0906 -6.6753,-0.258 -9.7339,-3.8971 -10.3767,-10.1525 v 0 z m 16.4631,-1.7233 c 0.036,-4.5269 -2.0185,-7.9198 -5.9102,-8.2917 -3.8879,-0.3745 -7.8106,3.4204 -7.5393,8.0351 0.2713,4.6343 2.0648,8.5327 6.7807,8.5117 5.072,-0.02 6.6444,-5.0324 6.6688,-8.2551 z"
         id="path23-5-3-5-5"
         style="opacity:1;fill:#c8102e;fill-opacity:1" />
      <path
         d="m 1999.862,244.6807 c 0.4063,2.7775 0.396,9.9575 0.064,12.0815 -1.0247,6.5069 -3.5099,9.4846 -7.6729,10.4563 -4.0435,0.9468 -9.7237,-0.1074 -10.9695,-5.5457 l 3.3801,-0.065 c 1.8282,3.677 6.4541,2.6949 9.0602,1.0947 2.0789,-1.2741 3.0188,-6.5946 2.6164,-6.922 0,0 -3.9317,2.9123 -7.0315,2.6976 -6.6238,-0.6901 -9.3559,-6.4349 -9.1244,-11.8588 0.2108,-6.5252 2.2795,-11.7435 9.3006,-12.0905 6.6753,0.258 9.7339,3.8971 10.3767,10.1524 v 0 z m -16.4631,1.7233 c -0.036,4.527 2.0185,7.9199 5.9102,8.2918 3.8879,0.3745 7.8106,-3.4204 7.5393,-8.0351 -0.2713,-4.6342 -2.0648,-8.5326 -6.7807,-8.5116 -5.072,0.02 -6.6444,5.0324 -6.6688,8.2549 z"
         id="path23-6-5-6-6"
         style="opacity:1;fill:#c8102e;fill-opacity:1" />
    </g>
  </g>
</svg>
