<svg height="88.000275mm" viewBox="0 0 238.11099 332.59947" width="63.000198mm" xmlns="http://www.w3.org/2000/svg"><rect fill="#fff" height="332.5994820368" rx="11.38947239199" ry="11.3749795467" width="238.1109840945" x=".0000061178" y=".00000971691"/><g fill="#c8102e" stroke-width="1.06667"><path d="m18.365247509 74.638351761c-2.30507387-3.806518562-4.730041448-7.506263457-7.760450918-10.6667 3.03040947-3.160329876 5.455377048-6.860074771 7.760450918-10.6667 2.304967203 3.806625229 4.729934781 7.506370124 7.760344251 10.6667-3.03040947 3.160436543-5.455377048 6.860181438-7.760344251 10.6667z"/><path d="m219.7467301575 279.294564643c-2.30507387-3.806518562-4.730041448-7.506263457-7.760450918-10.6667 3.03040947-3.160329876 5.455377048-6.860074771 7.760450918-10.6667 2.304967203 3.806625229 4.729934781 7.506370124 7.760344251 10.6667-3.03040947 3.160436543-5.455377048 6.860181438-7.760344251 10.6667z"/><path d="m119.055482165 191.899838202c-5.531963954-9.135815216-11.351928808-18.015096297-18.625018203-25.60008 7.273089395-7.584877036 13.093054249-16.464158117 18.625018203-25.60008 5.532070621 9.135921883 11.352035475 18.015202964 18.62512487 25.60008-7.273089395 7.584983703-13.093054249 16.464264784-18.62512487 25.60008z"/><path d="m7.5987178637 49.960407976v-3.009822739h2.871795641l6.117779118-32.190287261h3.482037548l6.739114393 32.190287261h2.319047247v3.009822739h-7.902104694v-3.009822739h2.132593331l-.851629328-4.933028749h-7.971971579l-.615788591 4.933028749h2.132486664v3.009822739zm14.228417797-11.456782469-3.46561083-17.229280508-3.246090144 17.229280508z"/><path d="m208.9801791788 282.639108428v3.009822739h2.871795641l6.117779118 32.190287261h3.482037548l6.739114393-32.190287261h2.319047247v-3.009822739h-7.902104694v3.009822739h2.132593331l-.851629328 4.932922082h-7.971971579l-.615788591-4.932922082h2.132486664v-3.009822739zm14.228417797 11.456782469-3.46561083 17.229280508-3.246090144-17.229280508z"/></g></svg>