<svg height="88.000275mm" viewBox="0 0 238.11099 332.59947" width="63.000198mm" xmlns="http://www.w3.org/2000/svg"><g transform="matrix(1.06667 0 0 1.06667 -3030.4767 32.4752)"><rect fill="#fff" height="311.81104" rx="10.677597" ry="10.66401" width="223.22835" x="2841.06304" y="-30.44543"/><g fill="#c8102e"><path d="m2858.2785 39.5284c-2.1609-3.5686-4.4344-7.0371-7.2754-10 2.841-2.9628 5.1145-6.4313 7.2754-10 2.1609 3.5687 4.4343 7.0372 7.2754 10-2.8411 2.9629-5.1145 6.4314-7.2754 10z"/><path d="m3004.4418 50.25c-5.1863-8.5648-10.6425-16.8891-17.461-24 6.8185-7.1108 12.2748-15.4351 17.461-24 5.1862 8.5649 10.6424 16.8892 17.4609 24-6.8185 7.1109-12.2747 15.4352-17.4609 24z"/><path d="m3047.073 231.393c-2.1609-3.5686-4.4344-7.0371-7.2754-10 2.841-2.9628 5.1145-6.4313 7.2754-10 2.1609 3.5687 4.4343 7.0372 7.2754 10-2.8411 2.9629-5.1145 6.4314-7.2754 10z"/><path d="m2900.909 50.25c-5.1862-8.5648-10.6425-16.8891-17.461-24 6.8185-7.1108 12.2748-15.4351 17.461-24 5.1862 8.5649 10.6424 16.8892 17.4609 24-6.8185 7.1109-12.2747 15.4352-17.4609 24z"/><path d="m3004.4418 116.3975c-5.1863-8.5648-10.6425-16.8891-17.461-24 6.8185-7.1108 12.2748-15.4351 17.461-24.0001 5.1862 8.565 10.6424 16.8893 17.4609 24.0001-6.8185 7.1109-12.2747 15.4352-17.4609 24z"/><path d="m2900.909 116.3975c-5.1862-8.5648-10.6425-16.8891-17.461-24 6.8185-7.1108 12.2748-15.4351 17.461-24 5.1862 8.5649 10.6424 16.8892 17.4609 24-6.8185 7.1109-12.2747 15.4352-17.4609 24z"/><path d="m2952.6754 83.3202c-5.1863-8.5648-10.6425-16.8891-17.461-24 6.8185-7.1108 12.2747-15.4351 17.461-24 5.1862 8.5649 10.6424 16.8892 17.4609 24-6.8185 7.1109-12.2747 15.4352-17.4609 24z"/><path d="m2900.909 248.6763c-5.1862-8.5648-10.6425-16.8891-17.461-24 6.8185-7.1108 12.2748-15.4351 17.461-24 5.1862 8.5649 10.6424 16.8892 17.4609 24-6.8185 7.1109-12.2747 15.4352-17.4609 24z"/><path d="m3004.4418 248.6833c-5.1863-8.5648-10.6425-16.8891-17.461-24 6.8185-7.1108 12.2748-15.4351 17.461-24 5.1862 8.5649 10.6424 16.8892 17.4609 24-6.8185 7.1109-12.2747 15.4352-17.4609 24z"/><path d="m3004.4418 182.5295c-5.1863-8.5648-10.6425-16.8891-17.461-24 6.8185-7.1108 12.2748-15.4351 17.461-24 5.1862 8.5649 10.6424 16.8892 17.4609 24-6.8185 7.1109-12.2747 15.4352-17.4609 24z"/><path d="m2900.909 182.4973c-5.1862-8.5648-10.6425-16.8891-17.461-24 6.8185-7.1108 12.2748-15.4351 17.461-24 5.1862 8.5649 10.6424 16.8892 17.4609 24-6.8185 7.1109-12.2747 15.4352-17.4609 24z"/><path d="m2952.6754 215.6011c-5.1863-8.5648-10.6425-16.8891-17.461-24 6.8185-7.1108 12.2748-15.4351 17.461-24 5.1862 8.5649 10.6424 16.8892 17.4609 24-6.8185 7.1109-12.2747 15.4352-17.4609 24z"/><g transform="matrix(1 0 0 .99998 1809.68 -538.726)"><path d="m1038.5828 555.12975v-33h3.1988v33z"/><path d="m1051.2635 522.1291c-3.0793 0-5.5542 2.81264-5.5542 6.30617v20.38896c0 3.49354 2.4762 6.30487 5.5542 6.30487h1.7974c3.0792 0 5.5593-2.81133 5.5593-6.30487v-20.38896c0-3.49353-2.4814-6.30617-5.5593-6.30617zm.9295 3.12035c1.818 0 3.2798 1.39453 3.2798 3.13868v20.65871c0 1.74415-1.4618 3.15177-3.2798 3.15177-1.8179 0-3.2849-1.40762-3.2849-3.15177v-20.65871c0-1.74284 1.467-3.13868 3.2849-3.13868z"/></g><g transform="matrix(-1 0 0 -.99998 4095.67 789.647)"><path d="m1038.5828 555.12975v-33h3.1988v33z"/><path d="m1051.2635 522.1291c-3.0793 0-5.5542 2.81264-5.5542 6.30617v20.38896c0 3.49354 2.4762 6.30487 5.5542 6.30487h1.7974c3.0792 0 5.5593-2.81133 5.5593-6.30487v-20.38896c0-3.49353-2.4814-6.30617-5.5593-6.30617zm.9295 3.12035c1.818 0 3.2798 1.39453 3.2798 3.13868v20.65871c0 1.74415-1.4618 3.15177-3.2798 3.15177-1.8179 0-3.2849-1.40762-3.2849-3.15177v-20.65871c0-1.74284 1.467-3.13868 3.2849-3.13868z"/></g></g></g></svg>