<svg height="88.000275mm" viewBox="0 0 238.11099 332.59947" width="63.000198mm" xmlns="http://www.w3.org/2000/svg"><rect fill="#fff" height="332.5994820368" rx="11.38947239199" ry="11.3749795467" width="238.1109840945" x=".000035536" y=".00000971691"/><g fill="#c8102e" stroke-width="1.06667"><path d="m18.36510626 74.63841362786c-2.304967203-3.80651536199-4.730041448-7.50626132366-7.760450918-10.66669679999 3.03040947-3.16033094267 5.455483715-6.860074771 7.760450918-10.6667 2.304967203 3.806625229 4.729934781 7.50636905733 7.760450918 10.6667-3.030516137 3.16043547633-5.455483715 6.860181438-7.760450918 10.66669679999z"/><path d="m174.273113471 86.0748248332c-5.531963954-9.135815216-11.352035475-18.015096297-18.62512487-25.60008 7.273089395-7.584877036 13.093160916-16.464158117 18.62512487-25.60008 5.531963954 9.135921883 11.351928808 18.015202964 18.625018203 25.60008-7.273089395 7.584983703-13.093054249 16.464264784-18.625018203 25.60008z"/><path d="m219.746535575 279.29467131c-2.304967203-3.806518562-4.730041448-7.506263457-7.760450918-10.6667 3.03040947-3.160329876 5.455483715-6.860074771 7.760450918-10.6667 2.304967203 3.806625229 4.729934781 7.506370124 7.760450918 10.6667-3.030516137 3.160436543-5.455483715 6.860181438-7.760450918 10.6667z"/><path d="m63.837781695 86.0748248332c-5.531963954-9.135815216-11.352035475-18.015096297-18.62512487-25.60008 7.273089395-7.584877036 13.093160916-16.464158117 18.62512487-25.60008 5.531963954 9.135921883 11.351928808 18.015202964 18.625018203 25.60008-7.273089395 7.584983703-13.093054249 16.464264784-18.625018203 25.60008z"/><path d="m63.837781695 191.8653527609c-5.531963954-9.135815216-11.352035475-18.015096297-18.62512487-25.60008 7.273089395-7.584877036 13.093160916-16.464158117 18.62512487-25.60008 5.531963954 9.135921883 11.351928808 18.015202964 18.625018203 25.60008-7.273089395 7.584983703-13.093054249 16.464264784-18.625018203 25.60008z"/><path d="m174.273113471 191.8819608128c-5.531963954-9.135815216-11.352035475-18.015096297-18.62512487-25.60008 7.273089395-7.584877036 13.093160916-16.464158117 18.62512487-25.60008 5.531963954 9.135921883 11.351928808 18.015202964 18.625018203 25.60008-7.273089395 7.584983703-13.093054249 16.464264784-18.625018203 25.60008z"/><path d="m63.837781695 297.7302915878c-5.531963954-9.135815216-11.352035475-18.015096297-18.62512487-25.60008 7.273089395-7.584877036 13.093160916-16.464158117 18.62512487-25.60008 5.531963954 9.135921883 11.351928808 18.015202964 18.625018203 25.60008-7.273089395 7.584983703-13.093054249 16.464264784-18.625018203 25.60008z"/><path d="m174.273113471 297.7376942776c-5.531963954-9.135815216-11.352035475-18.015096297-18.62512487-25.60008 7.273089395-7.584877036 13.093160916-16.464158117 18.62512487-25.60008 5.531963954 9.135921883 11.351928808 18.015202964 18.625018203 25.60008-7.273089395 7.584983703-13.093054249 16.464264784-18.625018203 25.60008z"/><path d="m8.026513952 39.1307208c-.433388021-2.962569258-.42240132-10.621259858-.06826688-12.886866938 1.093016749-6.940715023 3.743905033-10.116938282 8.184452243-11.153421521 4.313080145-1.009923156 10.371979079.114560358 11.700836565 5.915431819l-3.605451267.07040022c-1.950086094-3.92214559-6.884394847-2.874568983-9.664243534-1.167683649-2.217500263 1.359044247-3.220063396 7.034261982-2.790835388 7.38348974 0 0 4.193826439-3.106463041 7.500290105-2.877448992 7.065408746.736108967 9.979657853 6.863914783 9.732723748 12.649426196-.224854036 6.960235084-2.431474265 12.526545812-9.920671002 12.896680302-7.120342251-.27520086-10.382859113-4.156919657-11.068514589-10.829367175zm17.560694877-1.838192411c.03840012-4.828708423-2.153073395-8.447813066-6.304233034-8.844507639-4.147106293-.399467915-8.331332702 3.648438068-8.041945131 8.570800117.289387571 4.943268781 2.202460216 9.101575109 7.232769269 9.079175039 5.41015024-.0213334 7.087382148-5.367910108 7.113408896-8.805467517z"/><path d="m230.08203454 293.468262269c.433388021 2.962675925.42240132 10.621366525.06826688 12.886973605-1.093016749 6.940715023-3.743905033 10.116938282-8.184452243 11.153421521-4.313080145 1.009923156-10.371979079-.114560358-11.700836565-5.915431819l3.605451267-.06933355c1.950086094 3.92214559 6.884394847 2.874568983 9.664243534 1.167683649 2.217500263-1.359044247 3.220063396-7.034261982 2.790835388-7.38348974 0 0-4.193826439 3.106463041-7.500290105 2.877448992-7.065408746-.736108967-9.979657853-6.863914783-9.732723748-12.649426196.224854036-6.960235084 2.431474265-12.526439145 9.920671002-12.896573635 7.120342251.27520086 10.382859113 4.156919657 11.068514589 10.829260508zm-17.560694877 1.838192411c-.03840012 4.82881509 2.153073395 8.447919733 6.304233034 8.844614306 4.147106293.399467915 8.331332702-3.648438068 8.041945131-8.570800117-.289387571-4.943162114-2.202460216-9.101468442-7.232769269-9.079068372-5.41015024.0213334-7.087382148 5.367910108-7.113408896 8.805254183z"/></g></svg>