<svg height="88.000275mm" viewBox="0 0 238.11099 332.59947" width="63.000198mm" xmlns="http://www.w3.org/2000/svg"><g><rect fill="#fff" height="332.5994820368" rx="11.38944039189" ry="11.37500301344" width="238.1109840945" x="-.0000096232" y="-.0000053481"/><g fill="#c8102e"><path d="m18.35745361036 74.6425745759s-2.373020749-3.4024426326-5.57409528566-7.402796467c-2.141553359-2.6770110323-3.853558709-5.5757187574-4.01281254-8.0725052265-.182507237-2.8521475796 1.54560483-5.7135218547 4.674254607-5.8522102881 3.12683430466-.1385924331 4.39595827066 2.1991322056 4.91265321866 4.1265088953.516694948-1.9273766897 1.785925581-4.2651013284 4.912655352-4.1265088953 3.128649777.1386884334 4.856868511 3.0000627085 4.674254607 5.8522102881-.159147164 2.4967864691-1.871259181 5.3954941942-4.012705873 8.0725052265-3.201183337 4.0003538344-5.574204086 7.402796467-5.574204086 7.402796467z" stroke-width="1.06667"/><path d="m219.73887865868 257.96543119137c0 .00320001-2.373020749 3.4024426326-5.574097419 7.402796467-2.141553359 2.6770110323-3.853558709 5.5757187574-4.01281254 8.0725052265-.182507237 2.8521475796 1.54560483 5.7135218547 4.674254607 5.8522102881 3.126836438.1385924331 4.395960404-2.1991322056 4.912655352-4.1265088953.516694948 1.9273766897 1.785925581 4.2651013284 4.912655352 4.1265088953 3.12864551032-.1386884334 4.85686424432-3.0000627085 4.67425034032-5.8522102881-.159147164-2.4967864691-1.871259181-5.3954941942-4.01270160632-8.0725052265-3.201183337-4.0003538344-5.572177413-7.400023125-5.574204086-7.402796467z" stroke-width="1.06667"/><path d="m119.05098641 138.9919596671s-4.977402221-8.1658601849-11.691663203-17.7667328542c-4.49174737-6.4248307442-8.082798592-13.3817271511-8.416666302-19.3740232103-.38293453-6.8451520577 3.241823464-13.7124481846 9.804190638-14.0452812247 6.558420495-.3326410395 9.220508814 5.2779151601 10.304138867 9.9036149487 1.08373672-4.6256997886 3.745825039-10.2362559882 10.304245534-9.9036149487 6.562367174.3328330401 10.187125168 7.200129167 9.804190638 14.0452812247-.33386771 5.9922960592-3.924918932 12.9491924661-8.416666302 19.3740232103-6.714260982 9.6008726693-11.69176987 17.7667328542-11.69176987 17.7667328542z" stroke-width="1.06667"/><path d="m63.83007357852 86.0789836479s-4.977402221-8.1658601849-11.691663203-17.7667328542c-4.49174737-6.4248307442-8.082798592-13.3817271511-8.416666302-19.3740232103-.38293453-6.8451520577 3.241823464-13.7124481846 9.804190638-14.0452812247 6.558420495-.3326410395 9.220508814 5.2779151601 10.304138867 9.9036149487 1.08373672-4.6256997886 3.745825039-10.2362559882 10.304245534-9.9036149487 6.562367174.3328330401 10.187125168 7.200129167 9.804190638 14.0452812247-.33386771 5.9922960592-3.924918932 12.9491924661-8.416666302 19.3740232103-6.714260982 9.6008726693-11.69176987 17.7667328542-11.69176987 17.7667328542z" stroke-width="1.06667"/><path d="m174.26540322118 191.90400875007s-4.977402221-8.1658601849-11.691663203-17.7667328542c-4.49174737-6.4248307442-8.082798592-13.3817271511-8.416666302-19.3740232103-.38293453-6.8451520577 3.241823464-13.7124481846 9.804190638-14.0452812247 6.558420495-.3326410395 9.220508814 5.2779151601 10.304138867 9.9036149487 1.08373672-4.6256997886 3.745825039-10.2362559882 10.304245534-9.9036149487 6.562367174.3328330401 10.187125168 7.200129167 9.804190638 14.0452812247-.33386771 5.9922960592-3.924918932 12.9491924661-8.416666302 19.3740232103-6.714260982 9.6008726693-11.69176987 17.7667328542-11.69176987 17.7667328542z" stroke-width="1.06667"/><path d="m174.26540322118 86.0789836479s-4.977402221-8.1658601849-11.691663203-17.7667328542c-4.49174737-6.4248307442-8.082798592-13.3817271511-8.416666302-19.3740232103-.38293453-6.8451520577 3.241823464-13.7124481846 9.804190638-14.0452812247 6.558420495-.3326410395 9.220508814 5.2779151601 10.304138867 9.9036149487 1.08373672-4.6256997886 3.745825039-10.2362559882 10.304245534-9.9036149487 6.562367174.3328330401 10.187125168 7.200129167 9.804190638 14.0452812247-.33386771 5.9922960592-3.924918932 12.9491924661-8.416666302 19.3740232103-6.714260982 9.6008726693-11.69176987 17.7667328542-11.69176987 17.7667328542z" stroke-width="1.06667"/><path d="m63.83007357852 191.90400875007s-4.977402221-8.1658601849-11.691663203-17.7667221875c-4.49174737-6.4248307442-8.082798592-13.3817271511-8.416666302-19.3740232103-.38293453-6.8451520577 3.241823464-13.7124481846 9.804190638-14.0452812247 6.558420495-.3326410395 9.220508814 5.2779151601 10.304138867 9.9036149487 1.08373672-4.6256997886 3.745825039-10.2362559882 10.304245534-9.9036149487 6.562367174.3328330401 10.187125168 7.200129167 9.804190638 14.0452812247-.33386771 5.9922960592-3.924918932 12.9491924661-8.416666302 19.3740232103-6.714260982 9.6008620026-11.69176987 17.7667221875-11.69176987 17.7667221875z" stroke-width="1.06667"/><path d="m119.05098641 193.6169410363s-4.977295554 8.1658601849-11.691663203 17.7667435209c-4.491640703 6.4248307442-8.082798592 13.3817271511-8.416559635 19.3740125436-.38293453 6.8451520577 3.241716797 13.7124481846 9.804083971 14.0452812247 6.558527162.3326410395 9.220615481-5.2779151601 10.304138867-9.9036149487 1.083843387 4.6256997886 3.745825039 10.2362559882 10.304352201 9.9036149487 6.562367174-.3328330401 10.187018501-7.200129167 9.804083971-14.0452812247-.333761043-5.9922853925-3.924812265-12.9491817994-8.416559635-19.3740125436-6.714260982-9.600883336-11.691876537-17.7667435209-11.691876537-17.7667435209z" stroke-width="1.06667"/><path d="m174.26540322118 246.52888345227s-4.977402221 8.1658601849-11.691663203 17.7667328542c-4.49174737 6.4248307442-8.082798592 13.3817271511-8.416666302 19.3740232103-.38293453 6.8451520577 3.241823464 13.7124481846 9.804190638 14.0452812247 6.558420495.3326410395 9.220508814-5.2779151601 10.304138867-9.9036149487 1.08373672 4.6256997886 3.745825039 10.2362559882 10.304245534 9.9036149487 6.562367174-.3328330401 10.187125168-7.200129167 9.804190638-14.0452812247-.33386771-5.9922960592-3.924918932-12.9491924661-8.416666302-19.3740232103-6.714260982-9.6008726693-11.69176987-17.7667328542-11.69176987-17.7667328542z"/><path d="m63.83007357852 246.52888345227s-4.977402221 8.1658601849-11.691663203 17.7667328542c-4.49174737 6.4248307442-8.082798592 13.3817271511-8.416666302 19.3740232103-.38293453 6.8451520577 3.241823464 13.7124481846 9.804190638 14.0452812247 6.558420495.3326410395 9.220508814-5.2779151601 10.304138867-9.9036149487 1.08373672 4.6256997886 3.745825039 10.2362559882 10.304245534 9.9036149487 6.562367174-.3328330401 10.187125168-7.200129167 9.804190638-14.0452812247-.33386771-5.9922960592-3.924918932-12.9491924661-8.416666302-19.3740232103-6.714260982-9.6008726693-11.69176987-17.7667328542-11.69176987-17.7667328542z"/><path d="m6.924876017 39.654550572c.167253856-4.725454767 1.876059196-6.497940306 5.240123042-8.970374699-2.683848387-1.935899383-3.815265256-4.789668301-3.584864536-7.218689225.552641727-5.881938381 5.094735921-8.822214236 10.051018076-8.69656051 4.960335501.131307077 9.229468842 4.063372698 9.56269655 8.337626055.289387571 3.715531611-.814615879 5.509030549-3.450464116 7.463169989 3.128223109 2.641288254 5.126309353 4.376120342 5.052282455 9.030321553-.07360023 4.654201211-4.033292604 10.192565185-10.934220836 10.361525713-6.900821565.168960528-12.108091171-5.581670776-11.936570635-10.307018876zm19.2640602.01706672c.294827588-4.27841337-3.487477565-7.164289055-7.756717573-7.206209186-4.156706323-.04480014-7.874584608 3.503264281-7.874584608 7.344449618 0 4.12481289 4.836921782 6.366633229 7.960984878 6.376446593 3.797451867.01706672 7.413783168-2.831368848 7.670317303-6.514687025zm-1.365977602-15.304901161c.08106692-3.599477915-3.240650127-6.182205986-6.669140841-6.078845663-3.04854286.09386696-6.272766269 2.417820889-6.278206286 5.4293503 0 3.770038448 3.669878135 5.652924332 6.803541261 5.725564559 2.844275555.0640002 6.079378998-2.353607355 6.143805866-5.076069196z" stroke-width="1.06667"/><path d="m208.306305332 292.9545954655c.167253856 4.725454767 1.876059196 6.497940306 5.240123042 8.970374699-2.683848387 1.935899383-3.815265256 4.789561634-3.584864536 7.218689225.552641727 5.881938381 5.094735921 8.822214236 10.051018076 8.696453843 4.960335501-.131307077 9.229468842-4.063266031 9.56269655-8.337519388.289387571-3.715531611-.814615879-5.509030549-3.450464116-7.463169989 3.128223109-2.641288254 5.126309353-4.376120342 5.052282455-9.030321553-.07360023-4.654201211-4.033292604-10.192565185-10.934220836-10.361525713-6.900821565-.169067195-12.108091171 5.581670776-11.936570635 10.307018876zm19.2640602-.01706672c.294827588 4.27841337-3.487477565 7.164289055-7.756717573 7.206209186-4.156706323.04480014-7.874584608-3.503264281-7.874584608-7.344449618 0-4.12481289 4.836921782-6.366633229 7.960984878-6.376446593 3.797451867-.01706672 7.413783168 2.831368848 7.670317303 6.514687025zm-1.365977602 15.304901161c.08106692 3.599477915-3.240650127 6.182205986-6.669140841 6.078845663-3.04854286-.09386696-6.272766269-2.417820889-6.278206286-5.4293503 0-3.770038448 3.669878135-5.652924332 6.803541261-5.725564559 2.844275555-.0640002 6.079378998 2.353607355 6.143805866 5.076069196z" stroke-width="1.06667"/></g></g></svg>