<svg height="88.000275mm" viewBox="0 0 238.11099 332.59947" width="63.000198mm" xmlns="http://www.w3.org/2000/svg"><g><rect fill="#fff" height="332.5994820368" rx="11.38944039189" ry="11.37500301344" width="238.1109840945" x="-.0000046232" y="-.0000053481"/><g fill="#c8102e"><path d="m18.36812531036 74.6425745759s-2.373020749-3.4024426326-5.57409528566-7.402796467c-2.141553359-2.6770110323-3.853558709-5.5757187574-4.01281254-8.0725052265-.182507237-2.8521475796 1.54560483-5.7135218547 4.674254607-5.8522102881 3.12683430466-.1385924331 4.39595827066 2.1991322056 4.91265321866 4.1265088953.516694948-1.9273766897 1.785925581-4.2651013284 4.912655352-4.1265088953 3.128649777.1386884334 4.856868511 3.0000627085 4.674254607 5.8522102881-.159147164 2.4967864691-1.871259181 5.3954941942-4.012705873 8.0725052265-3.201183337 4.0003538344-5.574204086 7.402796467-5.574204086 7.402796467z" stroke-width="1.06667"/><path d="m219.74955035868 257.96543119137s-2.373020749 3.4024426326-5.574097419 7.402796467c-2.141553359 2.6770110323-3.853558709 5.5757187574-4.01281254 8.0725052265-.182507237 2.8521475796 1.54560483 5.7135218547 4.674254607 5.8522102881 3.126836438.1385924331 4.395960404-2.1991322056 4.912655352-4.1265088953.516694948 1.9273766897 1.785925581 4.2651013284 4.912655352 4.1265088953 3.12864551032-.1386884334 4.85686424432-3.0000627085 4.67425034032-5.8522102881-.159147164-2.4967864691-1.871259181-5.3954941942-4.01270160632-8.0725052265-3.201183337-4.0003538344-5.574204086-7.402796467-5.574204086-7.402796467z" stroke-width="1.06667"/><path d="m63.84074527852 86.0789836479s-4.977402221-8.1658601849-11.691663203-17.7667328542c-4.49174737-6.4248307442-8.082798592-13.3817271511-8.416666302-19.3740232103-.38293453-6.8451520577 3.241823464-13.7124481846 9.804190638-14.0452812247 6.558420495-.3326410395 9.220508814 5.2779151601 10.304138867 9.9036149487 1.08373672-4.6256997886 3.745825039-10.2362559882 10.304245534-9.9036149487 6.562367174.3328330401 10.187125168 7.200129167 9.804190638 14.0452812247-.33386771 5.9922960592-3.924918932 12.9491924661-8.416666302 19.3740232103-6.714260982 9.6008726693-11.69176987 17.7667328542-11.69176987 17.7667328542z" stroke-width="1.06667"/><path d="m174.27607492118 191.90400875007s-4.977402221-8.1658601849-11.691663203-17.7667328542c-4.49174737-6.4248307442-8.082798592-13.3817271511-8.416666302-19.3740232103-.38293453-6.8451520577 3.241823464-13.7124481846 9.804190638-14.0452812247 6.558420495-.3326410395 9.220508814 5.2779151601 10.304138867 9.9036149487 1.08373672-4.6256997886 3.745825039-10.2362559882 10.304245534-9.9036149487 6.562367174.3328330401 10.187125168 7.200129167 9.804190638 14.0452812247-.33386771 5.9922960592-3.924918932 12.9491924661-8.416666302 19.3740232103-6.714260982 9.6008726693-11.69176987 17.7667328542-11.69176987 17.7667328542z" stroke-width="1.06667"/><path d="m174.27607492118 86.0789836479s-4.977402221-8.1658601849-11.691663203-17.7667328542c-4.49174737-6.4248307442-8.082798592-13.3817271511-8.416666302-19.3740232103-.38293453-6.8451520577 3.241823464-13.7124481846 9.804190638-14.0452812247 6.558420495-.3326410395 9.220508814 5.2779151601 10.304138867 9.9036149487 1.08373672-4.6256997886 3.745825039-10.2362559882 10.304245534-9.9036149487 6.562367174.3328330401 10.187125168 7.200129167 9.804190638 14.0452812247-.33386771 5.9922960592-3.924918932 12.9491924661-8.416666302 19.3740232103-6.714260982 9.6008726693-11.69176987 17.7667328542-11.69176987 17.7667328542z" stroke-width="1.06667"/><path d="m63.84074527852 191.90400875007s-4.977402221-8.1658601849-11.691663203-17.7667221875c-4.49174737-6.4248307442-8.082798592-13.3817271511-8.416666302-19.3740232103-.38293453-6.8451520577 3.241823464-13.7124481846 9.804190638-14.0452812247 6.558420495-.3326410395 9.220508814 5.2779151601 10.304138867 9.9036149487 1.08373672-4.6256997886 3.745825039-10.2362559882 10.304245534-9.9036149487 6.562367174.3328330401 10.187125168 7.200129167 9.804190638 14.0452812247-.33386771 5.9922960592-3.924918932 12.9491924661-8.416666302 19.3740232103-6.714260982 9.6008620026-11.69176987 17.7667221875-11.69176987 17.7667221875z" stroke-width="1.06667"/><path d="m174.27607492118 246.52888345227s-4.977402221 8.1658601849-11.691663203 17.7667328542c-4.49174737 6.4248307442-8.082798592 13.3817271511-8.416666302 19.3740232103-.38293453 6.8451520577 3.241823464 13.7124481846 9.804190638 14.0452812247 6.558420495.3326410395 9.220508814-5.2779151601 10.304138867-9.9036149487 1.08373672 4.6256997886 3.745825039 10.2362559882 10.304245534 9.9036149487 6.562367174-.3328330401 10.187125168-7.200129167 9.804190638-14.0452812247-.33386771-5.9922960592-3.924918932-12.9491924661-8.416666302-19.3740232103-6.714260982-9.6008726693-11.69176987-17.7667328542-11.69176987-17.7667328542z" stroke-width="1.06667"/><path d="m63.84074527852 246.52888345227s-4.977402221 8.1658601849-11.691663203 17.7667328542c-4.49174737 6.4248307442-8.082798592 13.3817271511-8.416666302 19.3740232103-.38293453 6.8451520577 3.241823464 13.7124481846 9.804190638 14.0452812247 6.558420495.3326410395 9.220508814-5.2779151601 10.304138867-9.9036149487 1.08373672 4.6256997886 3.745825039 10.2362559882 10.304245534 9.9036149487 6.562367174-.3328330401 10.187125168-7.200129167 9.804190638-14.0452812247-.33386771-5.9922960592-3.924918932-12.9491924661-8.416666302-19.3740232103-6.714260982-9.6008726693-11.69176987-17.7667328542-11.69176987-17.7667328542z"/><path d="m8.030377805 39.136042285c-.433388021-2.962675925-.42240132-10.621366525-.06826688-12.886973605 1.093016749-6.940715023 3.743905033-10.116938282 8.184452243-11.153421521 4.313080145-1.009923156 10.371979079.114560358 11.700836565 5.915431819l-3.605451267.06933355c-1.950086094-3.92214559-6.884394847-2.874568983-9.664243534-1.167683649-2.217500263 1.359044247-3.220063396 7.034261982-2.790835388 7.38348974 0 0 4.193826439-3.106463041 7.500290105-2.877448992 7.065408746.736108967 9.979657853 6.863914783 9.732723748 12.649426196-.224854036 6.960341751-2.431474265 12.526545812-9.920671002 12.896680302-7.120342251-.27520086-10.382859113-4.156919657-11.068514589-10.829367175zm17.560694877-1.838192411c.03840012-4.82881509-2.153073395-8.447919733-6.304233034-8.844614306-4.147106293-.399467915-8.331332702 3.648438068-8.041945131 8.570800117.289387571 4.943268781 2.202460216 9.101575109 7.232769269 9.079175039 5.41015024-.0213334 7.087382148-5.367910108 7.113408896-8.80536085z" stroke-width="1.06667"/><path d="m230.08600506 293.4730184189c.433388021 2.962675925.422294653 10.621366525.06826688 12.886973605-1.093016749 6.940715023-3.743905033 10.116938282-8.18455891 11.153421521-4.313080145 1.009923156-10.371979079-.114560358-11.700836565-5.915431819l3.605451267-.06933355c1.950192761 3.92214559 6.884501514 2.874568983 9.664350201 1.167683649 2.217500263-1.359044247 3.219956729-7.034261982 2.790728721-7.38348974 0 0-4.193826439 3.106463041-7.500290105 2.877448992-7.065302079-.736108967-9.979657853-6.863914783-9.732723748-12.649426196.224854036-6.960341751 2.431474265-12.526545812 9.920671002-12.896680302 7.120448918.27520086 10.382859113 4.156919657 11.068621256 10.829367175zm-17.560801544 1.838192411c-.03840012 4.82881509 2.153073395 8.447919733 6.304339701 8.844614306 4.146999626.399467915 8.331226035-3.648438068 8.041838464-8.570800117-.289280904-4.943268781-2.202353549-9.101575109-7.232662602-9.079175039-5.41015024.0213334-7.087382148 5.367910108-7.113515563 8.80536085z" stroke-width="1.06667"/></g></g></svg>