<svg height="88.000275mm" viewBox="0 0 238.11099 332.59947" width="63.000198mm" xmlns="http://www.w3.org/2000/svg"><g><rect fill="#fff" height="332.5994820368" rx="11.38944039189" ry="11.37500301344" width="238.1109840945" x="-.0000068232" y="-.0000053481"/><g fill="#c8102e" stroke-width="1.06667"><path d="m63.84074307852 156.62899718267s-4.977402221-8.1658601849-11.691663203-17.7667328542c-4.49174737-6.4248307442-8.082798592-13.3817271511-8.416666302-19.3740232103-.38293453-6.84515312437 3.241823464-13.71244925127 9.804190638-14.04528229137 6.558420495-.3326410395 9.220508814 5.2779151601 10.304138867 9.9036149487 1.08373672-4.6256997886 3.745825039-10.2362559882 10.304245534-9.9036149487 6.562367174.3328330401 10.187125168 7.200129167 9.804190638 14.04528229137-.33386771 5.9922960592-3.924918932 12.9491924661-8.416666302 19.3740232103-6.714260982 9.6008726693-11.69176987 17.7667328542-11.69176987 17.7667328542z"/><path d="m18.36812311036 74.6425745759c0-.00320001-2.373020749-3.4024426326-5.57409528566-7.402796467-2.141553359-2.6770110323-3.853558709-5.5757187574-4.01281254-8.0725052265-.182507237-2.8521475796 1.54560483-5.7135218547 4.674254607-5.8522102881 3.12683430466-.1385924331 4.39595827066 2.1991322056 4.91265321866 4.1265088953.516694948-1.9273766897 1.785925581-4.2651013284 4.912655352-4.1265088953 3.128649777.1386884334 4.856868511 3.0000627085 4.674254607 5.8522102881-.159147164 2.4967864691-1.871259181 5.3954941942-4.012705873 8.0725052265-3.201183337 4.0003538344-5.572177413 7.400023125-5.574204086 7.402796467z"/><path d="m219.74954815868 257.96543119137s-2.373020749 3.4024426326-5.574097419 7.402796467c-2.141553359 2.6770110323-3.853558709 5.5757187574-4.01281254 8.0725052265-.182507237 2.8521475796 1.54560483 5.7135218547 4.674254607 5.8522102881 3.126836438.1385924331 4.395960404-2.1991322056 4.912655352-4.1265088953.516694948 1.9273766897 1.785925581 4.2651013284 4.912655352 4.1265088953 3.12864551032-.1386884334 4.85686424432-3.0000627085 4.67425034032-5.8522102881-.159147164-2.4967864691-1.871259181-5.3954941942-4.01270160632-8.0725052265-3.201183337-4.0003538344-5.574204086-7.402796467-5.574204086-7.402796467z"/><path d="m63.84074307852 86.0789836479s-4.977402221-8.1658601849-11.691663203-17.7667328542c-4.49174737-6.4248307442-8.082798592-13.3817271511-8.416666302-19.3740232103-.38293453-6.8451520577 3.241823464-13.7124481846 9.804190638-14.0452812247 6.558420495-.3326410395 9.220508814 5.2779151601 10.304138867 9.9036149487 1.08373672-4.6256997886 3.745825039-10.2362559882 10.304245534-9.9036149487 6.562367174.3328330401 10.187125168 7.200129167 9.804190638 14.0452812247-.33386771 5.9922960592-3.924918932 12.9491924661-8.416666302 19.3740232103-6.714260982 9.6008726693-11.69176987 17.7667328542-11.69176987 17.7667328542z"/><path d="m174.27607272118 156.62899718267s-4.977402221-8.1658601849-11.691663203-17.7667328542c-4.49174737-6.4248307442-8.082798592-13.3817271511-8.416666302-19.3740232103-.38293453-6.84515312437 3.241823464-13.71244925127 9.804190638-14.04528229137 6.558420495-.3326410395 9.220508814 5.2779151601 10.304138867 9.9036149487 1.08373672-4.6256997886 3.745825039-10.2362559882 10.304245534-9.9036149487 6.562367174.3328330401 10.187125168 7.200129167 9.804190638 14.04528229137-.33386771 5.9922960592-3.924918932 12.9491924661-8.416666302 19.3740232103-6.714260982 9.6008726693-11.69176987 17.7667328542-11.69176987 17.7667328542z"/><path d="m174.27607272118 86.0789836479s-4.977402221-8.1658601849-11.691663203-17.7667328542c-4.49174737-6.4248307442-8.082798592-13.3817271511-8.416666302-19.3740232103-.38293453-6.8451520577 3.241823464-13.7124481846 9.804190638-14.0452812247 6.558420495-.3326410395 9.220508814 5.2779151601 10.304138867 9.9036149487 1.08373672-4.6256997886 3.745825039-10.2362559882 10.304245534-9.9036149487 6.562367174.3328330401 10.187125168 7.200129167 9.804190638 14.0452812247-.33386771 5.9922960592-3.924918932 12.9491924661-8.416666302 19.3740232103-6.714260982 9.6008726693-11.69176987 17.7667328542-11.69176987 17.7667328542z"/><path d="m119.05839616648 191.90400875007s-4.977402221-8.1658601849-11.691663203-17.7667328542c-4.49174523666-6.4248307442-8.08279645866-13.3817271511-8.41666416866-19.3740232103-.38293453-6.8451520577 3.241823464-13.7124481846 9.80418850466-14.0452812247 6.558420495-.3326410395 9.220508814 5.2779151601 10.304138867 9.9036149487 1.08373677333-4.6256997886 3.745825039-10.2362559882 10.304245534-9.9036149487 6.562367174.3328330401 10.187125168 7.200129167 9.804190638 14.0452812247-.33386771 5.9922960592-3.924918932 12.9491924661-8.416666302 19.3740232103-6.714260982 9.6008726693-11.69176987 17.7667328542-11.69176987 17.7667328542z"/><path d="m174.27607272118 175.97886031747s-4.977402221 8.1658601849-11.691663203 17.7667328542c-4.49174737 6.4248307442-8.082798592 13.3817271511-8.416666302 19.3740232103-.38293453 6.84515248437 3.241823464 13.71244861127 9.804190638 14.04528165137 6.558420495.3326410395 9.220508814-5.2779151601 10.304138867-9.9036149487 1.08373672 4.6256997886 3.745825039 10.2362559882 10.304245534 9.9036149487 6.562367174-.3328330401 10.187125168-7.200129167 9.804190638-14.04528165137-.33386771-5.9922960592-3.924918932-12.9491924661-8.416666302-19.3740232103-6.714260982-9.6008726693-11.69176987-17.7667328542-11.69176987-17.7667328542z"/><path d="m63.84074307852 175.97886031747s-4.977402221 8.1658601849-11.691663203 17.7667328542c-4.49174737 6.4248307442-8.082798592 13.3817271511-8.416666302 19.3740232103-.38293453 6.84515248437 3.241823464 13.71244861127 9.804190638 14.04528165137 6.558420495.3326410395 9.220508814-5.2779151601 10.304138867-9.9036149487 1.08373672 4.6256997886 3.745825039 10.2362559882 10.304245534 9.9036149487 6.562367174-.3328330401 10.187125168-7.200129167 9.804190638-14.04528165137-.33386771-5.9922960592-3.924918932-12.9491924661-8.416666302-19.3740232103-6.714260982-9.6008726693-11.69176987-17.7667328542-11.69176987-17.7667328542z"/><path d="m174.27607272118 246.52888345227s-4.977402221 8.1658601849-11.691663203 17.7667328542c-4.49174737 6.4248307442-8.082798592 13.3817271511-8.416666302 19.3740232103-.38293453 6.8451520577 3.241823464 13.7124481846 9.804190638 14.0452812247 6.558420495.3326410395 9.220508814-5.2779151601 10.304138867-9.9036149487 1.08373672 4.6256997886 3.745825039 10.2362559882 10.304245534 9.9036149487 6.562367174-.3328330401 10.187125168-7.200129167 9.804190638-14.0452812247-.33386771-5.9922960592-3.924918932-12.9491924661-8.416666302-19.3740232103-6.714260982-9.6008726693-11.69176987-17.7667328542-11.69176987-17.7667328542z"/><path d="m63.84074307852 246.52888345227s-4.977402221 8.1658601849-11.691663203 17.7667328542c-4.49174737 6.4248307442-8.082798592 13.3817271511-8.416666302 19.3740232103-.38293453 6.8451520577 3.241823464 13.7124481846 9.804190638 14.0452812247 6.558420495.3326410395 9.220508814-5.2779151601 10.304138867-9.9036149487 1.08373672 4.6256997886 3.745825039 10.2362559882 10.304245534 9.9036149487 6.562367174-.3328330401 10.187125168-7.200129167 9.804190638-14.0452812247-.33386771-5.9922960592-3.924918932-12.9491924661-8.416666302-19.3740232103-6.714260982-9.6008726693-11.69176987-17.7667328542-11.69176987-17.7667328542z"/><path d="m8.532883842 43.179574921 3.220063396-1.021016524c1.216430468 3.24587681 3.669878135 4.206839813 6.267326252 3.998732496 4.660067896-.371521161 6.208339401-5.581244108 6.556713823-10.186165165-1.815792341 1.926086019-4.543480865 2.903795741-6.867968129 2.804595431-7.430316553-.398081244-9.332402497-6.345193162-9.400989378-12.570279282-.202987301-5.248763069 1.966619479-9.050588283 5.68855111-10.796513739 1.972059496-.884056096 6.486740271-.884056096 8.469786468.163413844 4.553080895 2.402354174 6.241299504 6.551913808 5.935485215 16.460104771 0 8.151172139-1.730778742 17.644535139-10.467979379 17.851255785-5.0453491.698348849-8.881201087-3.229130091-9.400989378-6.704127617zm12.648466193-8.931974579c1.515418069-.959469665 2.368434068-1.860379147 3.048649527-3.208223359.55680174-1.107523461.750189011-1.685765268.589655176-3.976332426-.41280129-5.909458467-3.5093443-9.264348951-8.003438344-8.59949354-2.506994501.377067845-3.878305453 1.779418894-4.665507913 4.387000376-1.452377872 4.822841738.390827888 10.464139367 3.841292004 11.763023426 1.552431518.589441842 3.952332351.420374647 5.18934955-.365974477z"/><path d="m229.580081279 289.4294431161-3.220063396 1.021016524c-1.216430468-3.24587681-3.669878135-4.206839813-6.267326252-3.998732496-4.660067896.371521161-6.208339401 5.581244108-6.556713823 10.186165165 1.815792341-1.926086019 4.543480865-2.903795741 6.867968129-2.804595431 7.430316553.398081244 9.332402497 6.345193162 9.400989378 12.570279282.202987301 5.248763069-1.966619479 9.050588283-5.68855111 10.796513739-1.972059496.884056096-6.486740271.884056096-8.469786468-.163413844-4.552974228-2.402354174-6.241192837-6.551913808-5.935378548-16.460104771 0-8.151172139 1.730672075-17.644535139 10.467872712-17.851255785 5.0453491-.698348849 8.881201087 3.229130091 9.400989378 6.704127617zm-12.648466193 8.931974579c-1.515418069.959469665-2.368434068 1.860379147-3.048649527 3.208223359-.55680174 1.107523461-.750082344 1.685765268-.589655176 3.976332426.41280129 5.909458467 3.5093443 9.264348951 8.003438344 8.59949354 2.506994501-.377067845 3.878305453-1.779418894 4.665507913-4.387000376 1.452377872-4.822841738-.390827888-10.464139367-3.841292004-11.763023426-1.552431518-.589441842-3.952332351-.420374647-5.18934955.365974477z"/></g></g></svg>