<svg height="88.000275mm" viewBox="0 0 238.11099 332.59947" width="63.000198mm" xmlns="http://www.w3.org/2000/svg"><g><rect fill="#fff" height="332.5994820368" rx="11.38944039189" ry="11.37500301344" width="238.1109840945" x="-.0000009232" y="-.0000053481"/><g fill="#c8102e" stroke-width="1.06667"><path d="m18.36812901036 74.6425745759c0-.00320001-2.373020749-3.4024426326-5.57409528566-7.402796467-2.141553359-2.6770110323-3.853558709-5.5757187574-4.01281254-8.0725052265-.182507237-2.8521475796 1.54560483-5.7135218547 4.674254607-5.8522102881 3.12683430466-.1385924331 4.39595827066 2.1991322056 4.91265321866 4.1265088953.516694948-1.9273766897 1.785925581-4.2651013284 4.912655352-4.1265088953 3.128649777.1386884334 4.856868511 3.0000627085 4.674254607 5.8522102881-.159147164 2.4967864691-1.871259181 5.3954941942-4.012705873 8.0725052265-3.201183337 4.0003538344-5.572177413 7.400023125-5.574204086 7.402796467z"/><path d="m219.74955405868 257.96543119137c0 .00320001-2.373020749 3.4024426326-5.574097419 7.402796467-2.141553359 2.6770110323-3.853558709 5.5757187574-4.01281254 8.0725052265-.182507237 2.8521475796 1.54560483 5.7135218547 4.674254607 5.8522102881 3.126836438.1385924331 4.395960404-2.1991322056 4.912655352-4.1265088953.516694948 1.9273766897 1.785925581 4.2651013284 4.912655352 4.1265088953 3.12864551032-.1386884334 4.85686424432-3.0000627085 4.67425034032-5.8522102881-.159147164-2.4967864691-1.871259181-5.3954941942-4.01270160632-8.0725052265-3.201183337-4.0003538344-5.572177413-7.400023125-5.574204086-7.402796467z"/><path d="m63.84074897852 86.0789836479c0-.00640002-4.977402221-8.1658601849-11.691663203-17.7667328542-4.49174737-6.4248307442-8.082798592-13.3817271511-8.416666302-19.3740232103-.38293453-6.8451520577 3.241823464-13.7124481846 9.804190638-14.0452812247 6.558420495-.3326410395 9.220508814 5.2779151601 10.304138867 9.9036149487 1.08373672-4.6256997886 3.745825039-10.2362559882 10.304245534-9.9036149487 6.562367174.3328330401 10.187125168 7.200129167 9.804190638 14.0452812247-.33386771 5.9922960592-3.924918932 12.9491924661-8.416666302 19.3740232103-6.714260982 9.6008726693-11.68750319 17.7600768334-11.69176987 17.7667328542z"/><path d="m174.27607862118 86.0789836479c0-.00640002-4.977402221-8.1658601849-11.691663203-17.7667328542-4.49174737-6.4248307442-8.082798592-13.3817271511-8.416666302-19.3740232103-.38293453-6.8451520577 3.241823464-13.7124481846 9.804190638-14.0452812247 6.558420495-.3326410395 9.220508814 5.2779151601 10.304138867 9.9036149487 1.08373672-4.6256997886 3.745825039-10.2362559882 10.304245534-9.9036149487 6.562367174.3328330401 10.187125168 7.200129167 9.804190638 14.0452812247-.33386771 5.9922960592-3.924918932 12.9491924661-8.416666302 19.3740232103-6.714260982 9.6008726693-11.68750319 17.7600768334-11.69176987 17.7667328542z"/><path d="m174.27607862118 246.52888345227c0 .00640002-4.977402221 8.1658601849-11.691663203 17.7667328542-4.49174737 6.4248307442-8.082798592 13.3817271511-8.416666302 19.3740232103-.38293453 6.8451520577 3.241823464 13.7124481846 9.804190638 14.0452812247 6.558420495.3326410395 9.220508814-5.2779151601 10.304138867-9.9036149487 1.08373672 4.6256997886 3.745825039 10.2362559882 10.304245534 9.9036149487 6.562367174-.3328330401 10.187125168-7.200129167 9.804190638-14.0452812247-.33386771-5.9922960592-3.924918932-12.9491924661-8.416666302-19.3740232103-6.714260982-9.6008726693-11.68750319-17.7600768334-11.69176987-17.7667328542z"/><path d="m63.84074897852 246.52888345227c0 .00640002-4.977402221 8.1658601849-11.691663203 17.7667328542-4.49174737 6.4248307442-8.082798592 13.3817271511-8.416666302 19.3740232103-.38293453 6.8451520577 3.241823464 13.7124481846 9.804190638 14.0452812247 6.558420495.3326410395 9.220508814-5.2779151601 10.304138867-9.9036149487 1.08373672 4.6256997886 3.745825039 10.2362559882 10.304245534 9.9036149487 6.562367174-.3328330401 10.187125168-7.200129167 9.804190638-14.0452812247-.33386771-5.9922960592-3.924918932-12.9491924661-8.416666302-19.3740232103-6.714260982-9.6008726693-11.68750319-17.7600768334-11.69176987-17.7667328542z"/><path d="m18.611854572 49.960929446v-3.109129716h2.805875435v-5.12854936h-14.034923859v-3.618784642l15.186927459-23.339486269 2.480861086.01280004v23.32700623h4.29654676v3.618677975h-4.29654676l-.08106692 5.12854936h2.351900683v3.113183062h-8.709680551zm2.805875435-26.651283285-9.642270132 14.796312905h9.642270132z"/><path d="m219.499522344 282.6481739247v3.109023049h-2.805875435v5.12854936h14.034923859v3.618677975l-15.186927459 23.339699603-2.480861086-.01280004v-23.327112897h-4.29654676v-3.618677975h4.29654676l.08106692-5.12854936h-2.351900683v-3.113183062h8.709680551zm-2.805875435 26.651176618 9.642270132-14.796312905h-9.642270132z"/></g></g></svg>