<?xml version="1.0" encoding="UTF-8" standalone="no"?>
<svg
   width="63.000198mm"
   height="88.000275mm"
   viewBox="0 0 238.11099 332.59947"
   version="1.1"
   id="svg8"
   xmlns="http://www.w3.org/2000/svg"
   xmlns:svg="http://www.w3.org/2000/svg"
   xmlns:rdf="http://www.w3.org/1999/02/22-rdf-syntax-ns#"
   xmlns:cc="http://creativecommons.org/ns#"
   xmlns:dc="http://purl.org/dc/elements/1.1/">
  <title
     id="title8745">Vector Playing Cards</title>
  <defs
     id="defs2" />
  <metadata
     id="metadata5">
    <rdf:RDF>
      <cc:Work
         rdf:about="">
        <dc:format>image/svg+xml</dc:format>
        <dc:type
           rdf:resource="http://purl.org/dc/dcmitype/StillImage" />
        <dc:title>Vector Playing Cards</dc:title>
        <dc:creator>
          <cc:Agent>
            <dc:title>Chris Aguilar</dc:title>
          </cc:Agent>
        </dc:creator>
        <dc:rights>
          <cc:Agent>
            <dc:title>Copyright 2011, 017</dc:title>
          </cc:Agent>
        </dc:rights>
        <dc:publisher>
          <cc:Agent>
            <dc:title>Chris Aguilar</dc:title>
          </cc:Agent>
        </dc:publisher>
        <dc:description>Vector Playing Cards</dc:description>
        <dc:contributor>
          <cc:Agent>
            <dc:title>Chris Aguilar</dc:title>
          </cc:Agent>
        </dc:contributor>
        <cc:license
           rdf:resource="https://opensource.org/licenses/lgpl-3.0.html" />
      </cc:Work>
    </rdf:RDF>
  </metadata>
  <g
     id="layer1"
     transform="translate(1128.4967,-360.4284)">
    <g
       transform="matrix(1.06667,0,0,1.06667,-1902.08,1495.37)"
       id="HEART-2"
       style="display:inline">
      <g
         style="display:inline;opacity:1"
         id="g9732-9-3"
         transform="translate(464.799,-1434.28)">
        <rect
           ry="10.664032"
           rx="10.677567"
           style="display:inline;opacity:1;fill:#ffffff;fill-opacity:1;stroke:#808080;stroke-width:1.00057;stroke-miterlimit:4;stroke-dasharray:none;stroke-opacity:0.75"
           id="rect9734-4-5"
           width="223.22835"
           height="311.81104"
           x="260.43304"
           y="370.27557" />
      </g>
      <g
         transform="translate(725.232,-1064)"
         style="display:inline;opacity:1"
         id="g9752-8-0" />
      <g
         style="display:inline;opacity:1"
         id="g9758-0-6"
         transform="translate(751.824,-1083.91)" />
      <path
         transform="translate(837.846,-853.906)"
         style="display:inline;opacity:1;fill:#c8102e;fill-opacity:1"
         d="m -95.396892,-140.12123 c 0,0 -2.2247,-3.18978 -5.225698,-6.9401 -2.0077,-2.50969 -3.6127,-5.22722 -3.762,-7.56795 -0.1711,-2.67388 1.449,-5.35641 4.3821,-5.48643 2.931398,-0.12993 4.121198,2.06168 4.605598,3.86859 0.4844,-1.80691 1.6743,-3.99852 4.6056,-3.86859 2.9331,0.13002 4.5533,2.81255 4.3821,5.48643 -0.1492,2.34073 -1.7543,5.05826 -3.7619,7.56795 -3.0011,3.75032 -5.2258,6.9401 -5.2258,6.9401 z"
         id="path9766-0-8" />
      <path
         transform="translate(837.846,-853.906)"
         style="display:inline;opacity:1;fill:#c8102e;fill-opacity:1;stroke:none;stroke-opacity:1"
         d="m 93.397604,31.743411 c 0,0 -2.2247,3.18978 -5.2257,6.9401 -2.0077,2.50969 -3.6127,5.22722 -3.762,7.56795 -0.1711,2.67388 1.449,5.35641 4.3821,5.48643 2.9314,0.12993 4.1212,-2.06168 4.6056,-3.86859 0.4844,1.80691 1.6743,3.99852 4.6056,3.86859 2.933096,-0.13002 4.553296,-2.81255 4.382096,-5.48643 -0.1492,-2.34073 -1.7543,-5.05826 -3.761896,-7.56795 -3.0011,-3.75032 -5.2258,-6.9401 -5.2258,-6.9401 z"
         id="path9768-3-3" />
      <path
         transform="translate(837.846,-853.906)"
         style="display:inline;opacity:1;fill:#c8102e;fill-opacity:1"
         d="m -1.000046,-129.39963 c 0,0 -4.6663,-7.65547 -10.9609,-16.65626 -4.211,-6.02326 -7.5776,-12.54533 -7.8906,-18.16309 -0.359,-6.41731 3.0392,-12.85538 9.1914,-13.16741 6.1485,-0.31185 8.6442,4.94803 9.6601,9.28461 1.01600005,-4.33658 3.5117,-9.59646 9.6602,-9.28461 6.1522,0.31203 9.5504,6.7501 9.1914,13.16741 -0.313,5.61776 -3.6796,12.13983 -7.8906,18.16309 -6.2946,9.00079 -10.961,16.65626 -10.961,16.65626 z"
         id="path9772-1-7" />
      <path
         transform="translate(837.846,-853.906)"
         style="display:inline;opacity:1;fill:#c8102e;fill-opacity:1;stroke:none;stroke-opacity:1"
         d="m -1.000046,21.021681 c 0,0 -4.6663,7.65547 -10.9609,16.65626 -4.210997,6.02326 -7.577597,12.54533 -7.890597,18.16309 -0.359,6.41731 3.0392,12.85538 9.191397,13.16741 6.1485,0.31185 8.6442,-4.94803 9.6601,-9.28461 1.01600005,4.33658 3.5117,9.59646 9.6602,9.28461 6.1522,-0.31203 9.5504,-6.7501 9.1914,-13.16741 -0.313,-5.61776 -3.6796,-12.13983 -7.8906,-18.16309 -6.2946,-9.00079 -10.961,-16.65626 -10.961,-16.65626 z"
         id="path9786-2-1" />
      <path
         d="m 733.0559,-1017.233 0.1608,-2.035 c 0.5078,-6.2883 1.859,-8.4097 9.523,-14.9742 3.7208,-3.1822 4.9409,-4.7523 5.1119,-6.5738 0.4873,-4.2965 -3.3145,-5.6374 -5.7907,-5.6571 -3.2091,-0.029 -6.8399,1.9237 -5.1068,6.4625 l -3.6012,1.0777 c -0.7238,-4.2337 0.021,-8.2054 3.3904,-9.968 4.4999,-2.2982 10.27,-1.3972 13.1834,2.2236 1.9581,2.4292 2.4055,5.7906 1.3551,8.4214 -3.0689,6.7204 -13.4791,9.6773 -14.338,17.4532 h 11.5056 v -4.3293 h 3.3904 v 7.9697 l -18.7839,-0.071 z"
         id="path15-34-0-0-4"
         style="opacity:1;fill:#c8102e;fill-opacity:1;stroke-width:1;stroke-miterlimit:4;stroke-dasharray:none" />
      <path
         d="m 940.63431,-798.95588 -0.1608,2.035 c -0.5078,6.2882 -1.859,8.4096 -9.523,14.9742 -3.7208,3.1821 -4.9409,4.7522 -5.1119,6.5738 -0.4873,4.2965 3.3145,5.6374 5.7907,5.6571 3.2091,0.029 6.8399,-1.9237 5.1068,-6.4625 l 3.6012,-1.0777 c 0.7238,4.2336 -0.021,8.2054 -3.3904,9.968 -4.4999,2.2982 -10.27,1.3972 -13.1834,-2.2236 -1.9581,-2.4291 -2.4055,-5.7906 -1.3551,-8.4214 3.0689,-6.7204 13.4791,-9.6773 14.338,-17.4532 h -11.5056 v 4.3293 h -3.3904 v -7.9697 l 18.7839,0.071 z"
         id="path15-5-4-5-2-7"
         style="opacity:1;fill:#c8102e;fill-opacity:1" />
    </g>
  </g>
</svg>
