<svg height="88.000275mm" viewBox="0 0 238.11099 332.59947" width="63.000198mm" xmlns="http://www.w3.org/2000/svg"><g><rect fill="#fff" height="332.5994820368" rx="11.38944039189" ry="11.37500301344" width="238.1109840945" x=".0000072868" y="-.0000053481"/><g fill="#c8102e" stroke-width="1.06667"><path d="m18.36493721036 74.6425745759s-2.373020749-3.4024426326-5.57409528566-7.402796467c-2.141553359-2.6770110323-3.853558709-5.5757187574-4.01281254-8.0725052265-.182507237-2.8521475796 1.54560483-5.7135218547 4.674254607-5.8522102881 3.12683430466-.1385924331 4.39595827066 2.1991322056 4.91265321866 4.1265088953.516694948-1.9273766897 1.785925581-4.2651013284 4.912655352-4.1265088953 3.128649777.1386884334 4.856868511 3.0000627085 4.674254607 5.8522102881-.159147164 2.4967864691-1.871259181 5.3954941942-4.012705873 8.0725052265-3.201183337 4.0003538344-5.574204086 7.402796467-5.574204086 7.402796467z"/><path d="m219.74636225868 257.96543119137s-2.373020749 3.4024426326-5.574097419 7.402796467c-2.141553359 2.6770110323-3.853558709 5.5757187574-4.01281254 8.0725052265-.182507237 2.8521475796 1.54560483 5.7135218547 4.674254607 5.8522102881 3.126836438.1385924331 4.395960404-2.1991322056 4.912655352-4.1265088953.516694948 1.9273766897 1.785925581 4.2651013284 4.912655352 4.1265088953 3.12864551032-.1386884334 4.85686424432-3.0000627085 4.67425034032-5.8522102881-.159147164-2.4967864691-1.871259181-5.3954941942-4.01270160632-8.0725052265-3.201183337-4.0003538344-5.574204086-7.402796467-5.574204086-7.402796467z"/><path d="m119.05521026648 191.90400875007s-4.977402221-8.1658601849-11.691663203-17.7667328542c-4.49174523666-6.4248307442-8.08279645866-13.3817271511-8.41666416866-19.3740232103-.38293453-6.8451520577 3.241823464-13.7124481846 9.80418850466-14.0452812247 6.558420495-.3326410395 9.220508814 5.2779151601 10.304138867 9.9036149487 1.08373677333-4.6256997886 3.745825039-10.2362559882 10.304245534-9.9036149487 6.562367174.3328330401 10.187125168 7.200129167 9.804190638 14.0452812247-.33386771 5.9922960592-3.924918932 12.9491924661-8.416666302 19.3740232103-6.714260982 9.6008726693-11.69176987 17.7667328542-11.69176987 17.7667328542z"/><path d="m7.5985056987 49.965089459v-3.009822739h2.871795641l6.117779118-32.190287261h3.482037548l6.739114393 32.190287261h2.319047247v3.009822739h-7.902104694v-3.009822739h2.132593331l-.851629328-4.933028749h-7.971971579l-.615788591 4.933028749h2.132486664v3.009822739zm14.228417797-11.456782469-3.46561083-17.229280508-3.246090144 17.229280508z"/><path d="m208.9799456804 282.6439072447v3.009822739h2.871795641l6.117779118 32.190287261h3.482037548l6.739114393-32.190287261h2.319047247v-3.009822739h-7.902104694v3.009822739h2.132593331l-.851629328 4.932922082h-7.971971579l-.615788591-4.932922082h2.132486664v-3.009822739zm14.228417797 11.456782469-3.46561083 17.229280508-3.246090144-17.229280508z"/></g></g></svg>