<svg height="88.000046mm" viewBox="0 0 238.11073 332.5986" width="63.00013mm" xmlns="http://www.w3.org/2000/svg"><g transform="matrix(1.07145 0 0 1.07009 -3610.7964 787.11736)"><rect fill="#fff" height="310.81366" rx="10.62995" ry="10.629899" width="222.23224" x="3370.0093" y="-735.56183"/><g fill="#c8102e"><path d="m3387.1498-665.8124s-2.2148-3.17958-5.2024-6.9179c-1.9987-2.50166-3.5966-5.2105-3.7452-7.54374-.1703-2.66533 1.4425-5.33928 4.3625-5.46888 2.9184-.12952 4.1029 2.05508 4.5851 3.85621.4822-1.80113 1.6668-3.98573 4.585-3.85621 2.9201.1296 4.533 2.80355 4.3626 5.46888-.1485 2.33324-1.7465 5.04208-3.7451 7.54374-2.9877 3.73832-5.2025 6.9179-5.2025 6.9179z"/><path d="m3575.1018-494.4975s-2.2147 3.17958-5.2023 6.91791c-1.9988 2.50166-3.5966 5.2105-3.7453 7.54374-.1703 2.66533 1.4426 5.33927 4.3626 5.46888 2.9183.12951 4.1028-2.05509 4.585-3.85622.4823 1.80113 1.6669 3.98573 4.5851 3.85622 2.92-.12961 4.533-2.80355 4.3625-5.46888-.1485-2.33324-1.7464-5.04208-3.7451-7.54374-2.9877-3.73833-5.2025-6.91791-5.2025-6.91791z"/><path d="m3379.9123-699.75887h-2.7455v-3.74748h2.7455s.021-2.01932.1-5.58149c.1702-7.59293.3596-8.77165 2.5548-10.86145 4.3351-4.12994 11.595-.76484 11.5092 5.44573-.1255 8.76517-.035 17.12166-.2905 18.30556-.4545 2.08461-.5005 2.20213-.3149 2.58321.3801.76494 3.6594 1.09648 3.6594.88237v3.69145c-2.5049.19448-3.5455-.0409-5.5498-1.47367-1.2505 1.20872-5.0597 2.42263-8.0893.99461-2.304-1.08602-4.0498-3.89111-3.5787-10.23884zm9.2796 6.5422c-1.3606-1.96838-3.6505-4.65466-5.8046-5.6089-.1344 2.26344.061 4.16135.8551 5.18207 1.2645 1.62509 3.3086 1.99709 4.9495.42683zm1.1289-21.64973c-1.0099-2.86381-3.6043-3.83499-5.4999-2.04284-1.1852 1.11482-1.3747 2.28826-1.4003 8.662-.015 3.93159-.015 5.58408-.015 5.58408 3.6902 1.19826 7.1396 5.50584 7.1101 5.44972l.09-11.89005c.072-1.92921-.024-3.86111-.2841-5.76291z"/><path d="m3582.3365-460.55119h2.7456v3.74757h-2.7456s-.021 2.01932-.1 5.58149c-.1701 7.59293-.3595 8.77165-2.5547 10.86145-4.3351 4.12994-11.595.76484-11.5092-5.44573.1255-8.76517.035-17.12166.2905-18.30566.4545-2.08451.5005-2.20203.3148-2.58311-.3801-.76494-3.6594-1.09648-3.6594-.88237v-3.69145c2.505-.19448 3.5456.0409 5.5499 1.47367 1.2505-1.20872 5.0597-2.42263 8.0893-.99461 2.304 1.08602 4.0498 3.89111 3.5786 10.23875zm-9.2795-6.54211c1.3606 1.96838 3.6505 4.65466 5.8045 5.6088.1345-2.26334-.061-4.16125-.855-5.18197-1.2645-1.62509-3.3086-1.99709-4.9495-.42683zm-1.1289 21.64973c1.0099 2.86381 3.6043 3.83499 5.4999 2.04274 1.1851-1.11472 1.3747-2.28816 1.4003-8.6619.015-3.93159.015-5.58418.015-5.58418-3.6902-1.19826-7.1396-5.50574-7.1102-5.44962l-.09 11.89005c-.072 1.92921.024 3.86111.2841 5.76291z"/></g><path d="m1703.918 97.539062v280.699218h174.1523v-280.699218zm2.7812 2.263672h71.752l-.2403 17.994146s-.096.46161-.2324.62304c1.4008.82213 1.66 12.01393 1.1445 15.76367.2368 1.15544.1524 3.30469.1524 3.30469-4.3187 5.95667-6.6065 11.61112-8.5293 18.53516-.7439.29716-1.8389.91081-2.6133 1.12109l-.2207.94336c1.6947-.93738 6.5-2.4668 6.5-2.4668 21.4063 10.50838 37.1352 7.93601 53.9707.12891-2.2637 10.51774 2.4079 24.3686 16.8086 24.34375.4659-.14604-3.1072-8.17954-3.9687-8.66797-4.6383-2.02296-6.5474-6.77705-6.0528-12.22851l-.7695-1.30079c-1.5812 6.62271 2.2245 13.34776 7.4492 14.99024l1.4043 3.08789c-9.4691-2.86005-13.5016-11.78934-10.3496-20.61719-1.6448-7.36644-3.8549-8.34437-5.1152-10.31836-8.2347-3.16317-9.7665-10.84229-8.3262-17.04883.1616-1.17703-2.6545-5.50676-2.582-5.45117-2.8235 6.15815-4.0035 13.94365 2.455 21.83399-4.1782 5.57457-9.5651 9.98559-15.5879 13.75195-8.8021 4.62508-15.4058 1.50795-19.6582-8.73438-2.5531-6.14958-3.4678-12.2802-3.455-18.70117.015-3.97524.058-4.09554 1.5371-3.42187 1.3894.63292 4.4036.72347 6.2031-.21094 1.0485-.54446 1.6278-.71562 1.7383-.51562.148.2677-.5443 1.19903-2.0723 2.78125-.7262.75192-1.5781 1.8789-1.5781 1.8789s1.2173-.17533 2.8457-1.80078c.5946-.59353 1.6934-1.93555 1.6934-1.93555s-.2807 1.55308-.5254 2.37891c-.094.317-.3927 1.65644-.6661 2.97266-.2733 1.31621-.6475 2.86233-.83 3.4375-.7241 2.28287-.528 3.34193 1.6465 4.39648 1.1464.55603 3.1071 2.44727 3.0898 2.44727 0 0-.4685-2.07489-.2949-2.74219.2085-.80254 1.1558-.2338 2.1211.23047 2.1332 1.02612 3.3745 1.05432 4.5195.0918 1.5799-1.32819 1.1267-4.31173-.8262-5.08984-1.4326-.57083-1.682-.0412-.2519.96289 2.1456 1.50662-.2735 3.83434-2.0957 2.39063-1.4253-1.12929-3.9016-1.25492-4.1778-.31446-.2612.88917-.531.72712-1.5175.14649-1.5335-.90241-1.5447-1.06003-.2598-6.03906 2.4331-9.4278 2.1938-12.88964-1.0313-15.75391-2.3871-2.12014-6.3307-3.10423-10.4218-.74805v-3.21094c6.005-2.41637 10.3737-6.52722 13.8965-13.218746h.6875c3.5073 7.647016 9.1777 13.252866 19.8437 17.281246.9274.52163-1.6935-5.99075-2.2656-5.33203-5.6594-2.20704-10.706-6.59862-13.4824-11.949216h1.5429c1.6257 2.365386 4.9201 6.794126 10.7852 9.775386.2726-1.40999-3.7699-7.79805-4.6797-9.775386h49.1621c-1.5601 12.056886-3.7567 24.956986 4.8887 48.439456-4.0549-2.14392-20.3133 2.42365-17.4512 3.32617 1.4366-1.66951 11.7966-4.13413 19.4629-2.3125-.6342-.55129-11.6912-26.44066-5.2598-49.453126h18.7227v109.130846c-.069-.62782-1.5822-1.29738-1.4375-1.70507.1419-1.01304-.014-2.90949-.7188-3.70704-.2971-.33609-.7812-.86372-.9726-1.24804-.4811-.96588-1.2746-1.96684-1.9082-2.23633-.3149-.13394-.6788-.20811-.7266-.42773-.044-.20404-.1487-.87673-.2832-1.4961-.3367-1.55095-.6363-1.5036.3438-3.04687 3.6286-6.28086 5.6466-11.70588 3.582-18.91016-3.2821 3.31159-5.6594 7.40437-7.8926 10.42773-.4978-4.31983-.4257-7.5798-.498-11.04296 1.7526-.50331 2.8137-1.44277 3.5683-3.84571 0 0 1.8786 1.48082 3.0293 1.26953l-.7578-2.79101c5.0253-1.55276 5.7126-8.15696-.2226-9.55274l.5351-3.47656c-.956.39728-2.9238 1.04297-2.9238 1.04297-2.9813-5.77979-8.1677-3.45903-9.3789.27344l-2.3164-.99219c.2512 1.18304.5503 2.38231.3379 3.56641-4.863 2.18032-3.6615 8.14757.2207 8.92968l-.3399 2.78711 2.9219-.94922c.426 1.30968.2085 2.06691 2.543 3.54102-.058 5.84203-.1509 9.49513.031 14.68555-3.0435-3.13797-5.9809-5.31664-11.1289-6.91602 0 0-.047 1.25681.252 3.16797.098.6305.08.53826-.2149.53711-.6692-.0155-3.8183-5.07422-3.8183-5.07422-5.183 10.95103-13.2977 28.59853-23.8516 39.04297-5.7413 5.6818-8.6496 11.9189-10.1387 17.28516 0 0-2.1949.0366-4.164-.42579 2.5909-12.38257 8.4375-37.5625 8.4375-37.5625s4.1113-1.17661 6.5156-1.43554l-.025-.97461-5.6602 1.32617.2715-2.1582 5.3418-1.05664-.014-.51172-5.6542.76367.9218-3.5918s-12.6921 1.87601-17.2383 1.73828c.2878 13.97005-.8078 25.57531-.2187 40.63086l-6.2051-3.78515c-.5519-10.48201-.7168-36.95899-.7168-36.95899l-17.1328-2.70898.5684 4.1582c-14.2036-5.66867-28.4534-10.88449-38.9453-21.9668 6.4589-4.99142 17.2402-9.9414 17.2402-9.9414l-.3555-.79492c-26.5048 13.7589-36.1207 23.31843-49.4375 35.17773zm72.8008 0h2.1582c-.4738.981486-1.1649 1.830116-2.2187 2.435546zm3.7129 0h2.3203c-1.8091 2.899276-3.7312 4.769136-6.0527 6.142576l.041-2.27148c1.3423-1.18385 2.6234-2.52152 3.6914-3.871096zm3.8379 0h2.1426c-2.9082 4.498466-5.8917 7.631086-9.7129 9.542966v-1.83789c2.3603-1.8483 5.7064-4.67687 7.5703-7.705076zm3.2715 0h1.7324c-2.979 5.714726-7.1338 9.774036-12.5742 11.968746v-1.37304c5.9588-3.19754 8.5666-6.87889 10.8418-10.595706zm4.7363 0h2.0801c2.8553 5.713616 8.789 11.232476 15.3027 13.601566l.9941 2.3164c-8.5865-3.10412-14.2738-7.74563-18.3769-15.917966zm6.0234 0h1.4864c1.5624 2.193206 3.455 4.087646 5.6679 5.568356l1.3496 2.62696c-2.9866-2.02327-6.3207-4.59217-8.5039-8.195316zm2.711 0h1.6601l2.1992 3.890626c-1.4651-.82902-2.5741-2.62673-3.8593-3.890626zm-1.9063 14.947266c-2.2772-.0107-4.3494.62219-5.8496 1.85352-1.5846 1.30066-.4181 2.7182 1.8613 1.65234 3.8827-1.81539 8.3431-.99783 13.1582 1.65625 4.0542 2.23457 2.6337-.0933-1.1484-2.58008-2.5927-1.7271-5.4406-2.57013-8.0215-2.58203zm-18.3105 2.92773c3.2663.026 7.0085 1.48295 7.0996 3.41211-2.1662-1.82464-6.5199-2.71025-10.6973-.83593-.3197-.0683-.3662-1.21421-.1758-1.63282.8996-.66853 2.2888-.9552 3.7735-.94336zm19.7812 1.24415c-2.0655-.00052-3.9548.54313-4.8281 1.71289-.4461.5545-.5647.61361-1.0566.53125-.9609-.16086-.9072.39963.1894 1.93164.532.74317.4455 1.58808-.2656 2.5957-.8165 1.1569-.6501 1.18684 1.7734 2.375.8718.42739 1.663.93846 2.4317 1.4707 1.3836.94067 2.335 1.84773 3.9277 2.24805-.7347-.94038-2.2422-1.99674-3.5195-3.06445-1.2877-.84399-2.1895-1.85938-2.1895-1.85938s1.5204.36623 2.0508.49805c1.7765.38663 3.5322.6017 5.0234.29883 1.0696-.21518 2.4617-.92849 3.6075-1.92578.2928-.13576.583.009 1.2929.0371 2.716.10614 2.1151-.69747-1.7851-2.83984-3.8592-2.1198-6.8848-2.50604-9.3536-1.3418-1.0451.49288-1.6439.61609-1.4921.30469.1583-.3247.4489-.70294.9179-.97656 3.9898-2.40406 7.1958-.41039 10.7129 1.39453 1.5095.90571 2.0957.85156 2.0957.85156-2.5445-2.63213-6.1125-4.21018-9.5332-4.24218zm-18.0996 1.12109c2.0014.0452 3.7126.80032 5.3438 1.66211.6752.26628.3727 1.04372-.2442.79883-3.6844-1.66574-4.4245-2.47726-8.8164-.93555-1.451.50937-2.0248.0579-.2441-.71094 1.4549-.61299 2.7601-.84155 3.9609-.81445zm2.8184 3.62109c-.998 5.10411-6.0442 3.5321-5.4746.0273l.9277.004c.072 3.08257 3.1414 3.06205 3.666.0312zm29.3457.0117 1.3593 2.92578c-2.9718 7.36972 1.0618 17.294 9.836 19.67188-.2077.0755 1.1662 2.28045 1.1387 2.46679-16.472-3.67082-15.2057-19.48229-12.334-25.06445zm-15.6016.19141.4609.0254c1.4228 3.5575 3.4885 1.51224 3.8907.01l1.0508.0273c-.3209 3.68461-5.8716 4.3096-5.4024-.0625zm-12.6973.10351c.6667-.0783.8933.92759.7071 1.11328-.051.0513-1.2708 1.24508-1.4199.54297-.2182-1.02707.4358-1.60597.7128-1.65625zm-7.6835.10157c.057.00033.113.004.1738.0117.4133.31731.57 1.26497.3535 1.75391-.2447.25573-1.2343-.0931-1.4258-.47461-.2941-.55762.053-1.29466.8985-1.28906zm26.7148.34179c.3251.013 1.2198.40197 1.1328.83594-.022.11026-1.266 1.03352-1.5469.88281-.54-.28985.207-1.61683.3125-1.69922.018-.0145.056-.0213.1016-.0195zm-7.2773.16016c.011-.002.016-.002.02 0 .096.0717.8913.56875.2148 1.49023-.047.0637-.9484-.25843-.9629-.36523-.074-.53594.6046-1.0871.7286-1.125zm19.9589 6.46289c-.2008 4.23608.8964 8.3477 5.4903 10.98828l-.9883-1.81641c-1.1776-.94468-3.6461-3.64037-3.3379-6.8496zm-41.2539 7.57227.5176 2.7871c-2.528 4.22961-4.446 8.38559-6.0371 13.24414l-2.3887.87696c1.8966-6.12747 3.649-10.98101 7.9082-16.9082zm1.0059 4.33984.6758 2.39453c-1.2413 2.30336-2.5671 4.90539-3.3672 7.93359l-2.6406.98047c1.1879-4.01245 2.926-7.90946 5.332-11.30859zm8.3711.99219c-.04.00033-.079.002-.1192.0137-.028.47239-.021 1.77891.078 3.92969.019.40796.4156.23505 1.5371-.3418.9777-.50297.8764-.58304 1.8242-.26367 2.6246.90499 3.8184.51211 4.8437.24609 1.5638-.4057 2.2022-.24097 3.1114.30664.5.30119 1.1832.52472 1.3183.57422.7201.26374.4449-.0558-.047-2.01367-.5531-2.20187-.315-2.44457-1.1914-1.8711-.1926.12596-.7489.43701-1.0528.47266-.7635.0896-2.0385-.85231-2.7988-.55273-1.8417.72558-1.8251.53344-3.5352.11132-.8549-.211-1.6736.31342-2.416.46094-.4242.0533-.9619-1.07658-1.5527-1.07226zm31.3301 1.14062c3.1115 2.87372 6.3092 3.85564 9.7793 4.94336-.4183 1.42908-1.2549 3.03662-1.6446 4.9043-18.059 9.61202-36.2076 9.3108-53.3261.58398l8.8828-3.41797c4.8532 8.46397 11.0757 10.72431 18.0703 7.95508 7.8162-3.66115 13.6028-8.75447 18.2383-14.96875zm-38.5899 1.69141.7696 2.07617-1.1426 3.12695-2.1797.88867c.4173-2.13093 1.2224-3.88281 2.5527-6.09179zm16.3223 2.40625c-.5405.0261-1.3567.39191-3.2188.40234-1.0082.005-1.7984-.0853-2.1894-.006-.8112.16546.1369.53193 1.9531 1.05469 1.8161.5204 4.0347-.26495 4.3106-1.05859.067-.19394-.1715-.42565-.8555-.39258zm-15.0449 1.02148.4765 1.05274-.8144.29492zm48.0156.59375 1.3476 3.0918c-2.3357 5.0903-3.8873 19.04224 11.7071 23.38281l.6816 1.99805c-10.6137.20873-21.2489-13.3764-13.7363-28.47266zm-35.709 1.05274c-1.5239-.0153-3.1192.3661-4.1465 1.1875-.9287.73984.206 1.20727 1.4141.61523 1.5646-.76678 4.1776-.70503 5.7109.26172 1.1726.80484 1.7844.66342 1-.5625-.6157-.96214-2.2516-1.48463-3.9785-1.50195zm67.793 3.54882c3.0044-.0112 6.38 3.51586 3.3008 6.875 9.8749-4.1964 10.0968 8.54383 1.3203 6.85547.4631 5.47389-3.4266 5.99024-3.4512 5.99024.2238 4.619.7773 14.0664.7773 14.0664s3.8955-8.32551 8.0371-11.18945c1.3356 6.66391-2.2815 13.84264-4.9882 17.86719-1.6778 2.42169-5.6488 1.15189-5.2891 2.78906.079.36151.7229 1.00992 1.3672 1.625.4127.39399.84.64159 1.8047.60938 1.6946-.0566 2.3559-.40275 1.3437 1.08007-.8009 1.17357-3.6163 1.41703-3.9336 2.02735-.7379 1.41979-.2327 1.10582-1.4941 2.35351-.9653 1.06502-.6313.52186-.1914 1.39844.6902 1.131.4035 3.38934-.2813 4.91016-.5578 1.23885-.4961 2.12109-.4961 2.12109.011.10325 1.5688-1.61924 2.0391-3.60937.3913-1.65574.8492-2.4856.8457-1.5586 0 1.16958.1983 2.75888 1.2461 3.36524.8287.47959.9486.9589.8106 1.54882-.1429.60975.5038 1.14823 1.1425 1.65821.1501.1507.6535.34798.5996.66992-.1704 1.01772.2399 2.2153.9766 2.41016.3282.16375 2.4202-.0153 2.7656-1.20118-.034-.37799-.0004-1.93352-.8359-2.02343-.5884-.27272-.5276-.43598.3633-.97071 1.3328-.79998 2.3009-1.37524 2.959-1.49804.881-.12046 1.7265-1.08399 1.7265-1.08399l.1699 63.95508c-7.9043 8.14649-16.569 16.25342-27.9941 24.22266-6.6392-5.57132-13.8941-11.2111-21.5957-15.4336l-2.6602-1.58398.9532-1.22852-4.6172-6.13281 5.1972-4.21094 1.3164 1.67774-2.4589 2.40429 3.6894 4.10938 8.2949-8.14453-5.4648-5.26563 2.8457-5.36328 1.8184.89844-1.3731 3.40234 4.1563 2.64649 5.2031-10.40625-6.5977-3.02344 1.6719-6.99024 2.0352.2168-.6758 5.0332 5.1406 1.02735 2.0918-11.86719-7.5469-1.35742.6426-6.76758 2.1055.0273-.3067 3.74219 5.3301.76367 1.0059-10.34375-7.3985-1.23437.9551-7.98438 1.6914.24219-.3281 4.92383 5.4277.93359c.5967-3.33949 1.0831-7.53292 1.9688-10.80859l-6.9922-2.62109 2.4766-6.70508 1.5722.55273-1.373 3.63282 5.1621 2.20898 4.3515-8.64453-6.0781-4.33203c1.3621-2.27554 2.7205-4.4379 4.668-6.28125l1.1953 1.04687-2.0762 3.35156 4.1524 3.08594 2.6113-3.13672c.8708.45793 2.3613 1.68555 2.3613 1.68555l.1719-.63477c-2.0915-1.18728-11.0282-7.84085-11.0059-13.07812 5.3437 1.01116 8.0651 4.11991 11.7364 7.70508-.3188-5.64574-.7746-11.3812-.5274-17.09571-2.0995-1.46497-2.8972-3.35526-2.6621-5.73828-6.9199 1.37389-8.5659-7.97106-.3613-7.98828-.48-4.50771 1.4033-6.17199 3.459-6.17969zm-124.5176 18.45704c10.7798 9.13816 17.659 15.28556 39.5996 22.16796l.543 3.27344c-12.6161-2.93291-26.3789-8.87087-42.7403-23.63086zm-3.2441 2.10937c6.8254 6.41638 13.8229 11.3051 20.9043 15.4043l2.4863 1.50586-1.2813 1.32226 4.166 6.04883-5.3613 4.4043-1.2754-1.28125 2.7969-2.76172-3.9824-3.94336-8.1133 8.26953 5.5605 4.96484-3.2246 4.99219-1.1679-.53125 1.7129-3.48047-5.168-2.83789-5.7774 10.68946 7.3555 3.37109-1.6601 6.56055-1.7168-.0879.5781-5.14063-5.5293-.98633-1.8613 12.01172 7.1152 1.125-.1699 6.91602-1.8965-.0312.1328-3.90625-5.6172-.26367-.5019 10.08007 6.914.9043-.6875 8.18164-1.7011-.43945.1894-5.31055-5.2695-.52148-1.8145 11.29297 7.1094 2.04492-2.5117 7.03906-1.543-.85156 1.0098-3.63282c-1.2965-.56933-4.9414-2.0957-4.9414-2.0957l-4.6426 8.76953 6.0215 4.12891-3.959 7.60547-1.2617-1.3418 2.6425-4.49805-5.0019-3.16406-2.6621 3.76758c-1.2097-1.05814-3.5729-2.37559-4.4024-3.35938-.8864-.81275-1.5602-.93693-2.7011-.66601-.9004.21377-1.7671.37759-1.5684.0566.098-.15794 1.8068-1.31701 4.418-2.98438.7302-.46628 1.3058-.87216 1.2969-1.28906-.011-.31115.3966-.80429.9238-1.125.5834-.35492.4514-.68731.3574-1.05469-.5046-1.9725-.1852-5.04713.8008-7.11718.66-1.38571.8666-1.63504.4355-1.63672-1.271.16395-2.8206 4.80121-3.1172 6.10742-.099-.10368-.2381-1.32654-.3281-1.79688-.1625-.84953-.2814-1.37704-.959-1.53906-.81-.19372-.5521-.58401-.6347-1.19726-.1339-.99477-.6005-1.62453-1.4453-1.97657-.8134-.33889-.9028-.4758-.8672-1.29101 0-.64042-.6652-1.72312-1.1582-2.06836l-2.8184 1c-.2219.74958.072 1.72265.5371 2.07617 1.4168 1.34233-.6562 1.36015-2.0762 2.23438-.3836.25011-.8417.79495-1.1523.61523-3.0853-1.07945-.9202-48.76711-1.502-62.97852 7.5543-7.87625 29.5665-24.30273 29.5665-24.30273zm114.1757 11.50586 1.0879 1.21289c-7.649 8.71195-12.3964 18.85606-13.8359 28.64258-1.6264 8.77235-1.3781 17.57578-2.8301 25.99023-1.4791 12.2093-4.8847 18.70582-12.2871 25.63282-3.2534 3.04447-13.3744 8.79387-13.6504 8.73828l-2.3984-.59766c20.7536-10.69795 25.9416-18.07673 28.1875-43.40039.4391-31.7716 14.7901-44.07883 15.7265-46.21875zm2.0391 2.12695h.01l1.1113 1.07813-6.0586 8.61523 5.9726 4.23828-2.3691 5.57032-1.8086-.67774 1.2852-3.79883-5.0235-2.13086-4.0586 11.06641 7.1563 2.27148-1.1797 7.21094-1.4453-.39258v-4.91406l-5.3106-1.08984-1.5429 12.36328 7.8222 1.09375-.5742 6.38086-1.8515-.12891-.07-3.79883-5.4296-.28906-1.2403 10.71485 7.7051 1.3164-1.3945 7.61328-1.6407-.39258.3692-5.02148-5.166-.6875-2.9883 10.2832 6.4883 3.29297-3.1934 6.5918-1.3691-.96094 1.7695-3.89648-5.0488-2.50977-4.875 8.50781 5.289 5.23829-5.166 5.45117-1.1543-1.48633 2.666-2.89063-3.9824-3.96875-8.2832 6.63282 4.2285 5.60937-.498.70703-4.3672-1.76367-2.0918-2.7832-2.5 1.10547-1.9746-.75977c12.2346-6.45981 20.1956-13.95014 23.4824-25.24609 1.805-6.24567 2.3422-13.06109 2.9277-19.92969.8565-9.18554 1.8272-19.24779 4.9297-26.81445 2.8138-6.7346 6.2339-11.48134 10.4473-16.6211zm-65.8359 4.25782 8.4004 4.46093-.1231 2.96289-7.7656-3.91796zm2.3613.084 5.9883.82617.025 2.42969zm-26.9863.0762 3.4941 1.58594 2.9629 3.44141 2.2207-1.46485 2.4082.90821c-7.6124 3.93936-14.3665 8.65262-19.627 16.78515-5.8619 9.06254-6.5136 20.9292-7.2636 32.38086-2.2222 19.74355-6.1659 29.79089-14.6797 40.23828l-.9902-1.14062 5.3925-9.37696-6.3457-4.1289 2.8906-5.32227 1.461.50586-1.1328 3.17383 5.25 2.78711 4.0234-11.34375-7.4023-2.32422 1.2402-7.09766 1.8613.16602-.4922 5.08398 5.2891.8418 1.5176-11.99609-7.1289-1.09961.1582-6.33789 1.748.16992-.012 3.85547 5.6231.30469.4375-10.94336-6.9922-.7793.8613-7.72656 1.957.20117-.4511 4.63476 5.3828.77539 2.5527-10.0039-6.9922-3.17969 3.7735-6.75586 1.6972.7832-1.7344 3.74219 4.8497 2.38086 5.0859-7.82617-5.4043-5.22266 5.3066-5.59179 1.3028 1.28711-2.8809 3.33398 3.9922 3.7168 7.9043-6.67969-3.8594-5.84375zm50.2793.37305-.2461 2.80273-8.4219 4.81446v-2.7461zm45.2011.0977 1.7285 1.19921-1.2148 1.57227-1.625-1.0332zm-48.7422.39648-5.0449 2.93164v-2.91602zm59.334 2.71289c.4875-.0402.8634.0903 1.0352.27734.3345.36423.1735 1.13258-.334 1.49024-.7462.52605-2.7917.49122-2.9941-.0508-.2378-.63611.782-1.33806 1.7714-1.61524.1839-.0554.359-.0882.5215-.10156zm-80.3554 1.17969 7.2363 3.93359-.025 2.77149-6.9649-3.85547zm23.5781.0879-.4258 3.61328-7.4531 3.97851-.061-3.13281zm-36.0762.0664 2.9688.75977c-10.9874 4.9359-21.8477 12.0938-26.0723 24.58398-1.3184 3.73812-2.2078 7.89854-2.7871 13.22461-.2723 5.61747-.6466 11.17826-1.2559 15.83008-1.2557 9.58692-3.0538 22.0357-14.9375 36.42188l-.8926-1.08985c17.9799-19.94681 13.6987-47.16785 17.8184-62.32031 4.0093-12.61084 9.9731-19.61965 25.1582-27.41016zm95.8125 2.47657c.1203-.0004.2482.0114.3906.0332 1.2539.19183.9784 2.53549-.9101 4.08789-1.0505.86352-1.5376.74126-2.3125.0508-.228-.3083-.8884-.52712-1.3731-.46875-1.1524-.004 1.1379-2.3792 3.1524-3.39648.4021-.20303.6918-.30545 1.0527-.30664zm-82.4648 2.01953 6.455 3.33398.061 2.7461-5.9707-3.26172zm21.8789.37109-.3496 3.01953-6.7207 3.52149.037-2.78321zm62.8847 1.12696c.2233-.0208.3966.0644.5586.24609.9163 1.02741-.8249 4.14046-2.7988 5.07422-.7579.35847-1.2245.29945-1.8555-.24805-.3064-.26599-.7594-.61482-1.0195-.58789-1.13.11711-.5072-1.15784.4043-1.23242.2516-.0206 1.8329-1.2127 3.0293-2.21485.8019-.67174 1.3096-1.00243 1.6816-1.0371zm-6.8281 1.21289c1.4265-.0348 1.9451 1.15976.2559 1.68164-1.2028.37158-1.8743.1074-1.8711-.70703.2529-.83659.9809-.93297 1.6152-.97461zm-77.0488 1.61523 5.7265 2.89062.025 2.9629-5.2597-2.76172zm20.4883.4082-.3985 2.80274-6.1679 3.18945.017-2.31836zm64.6347 1.17578c.3899.0243.505.46145.502 1.23829 0 1.28649-.8521 2.47557-2.1231 3.05664-.9304.42541-1.5853.39125-2.0488-.10938-.211-.22794-.5051-.41195-.6562-.41797-1.9919-.0795-1.6724-.5961.2343-1.39844.6716-.28257 1.9906-1.20125 2.6153-1.65039.703-.50555 1.1734-.73768 1.4765-.71875zm-7.3105.91407c.9769.004 1.8372.69845 1.2969 1.14648-.4202.34838-1.9962.51632-2.3067.20117-.5901-.59881-.065-1.35186 1.0098-1.34765zm-76.8633 1.99218 4.8789 2.64844-.025 2.81836-4.6582-2.6543zm18.7207.2168-.1133 2.88477-5.6035 2.7832-.035-2.75195zm60.2793 1.19727c.9477.0689.8295.99321.062 1.4414-.5716.39988-1.3132.18892-1.6152-.27929-.6813-1.30346.8667-1.14628 1.5527-1.16211zm1.1035 2.71093c.3481-.0308.6702.0357.7871.24805.2339.42475.083.89173-.2285 1.07227-.4155.17645-1.4935-.008-1.6601-.32422-.1369-.25992-.1064-.39775.1582-.66211.2205-.17659.5953-.30321.9433-.33399zm-79.3965.30469 4.168 2.29102-.025 2.76758-3.8301-2.24024zm17.3301.0723-.2051 2.66211-4.8476 2.42187.066-2.59765zm-50.7676 1.67773c1.0395.0122 1.8421.70853 1.2305 1.89844-1.6038 1.85894-2.731 2.54309-4.4082 3.73633-1.4898 1.0385-.9729-1.12848.8867-4.32422.533-.91592 1.4826-1.32002 2.291-1.31055zm50.3985 2.37305-.3828 2.93164-4.3379 2.23047v-2.82422zm-16.3047.27344 3.5058 1.75.051 2.85547-3.1816-1.6836zm42.1504.2832c.1209.016.2372.0652.3418.15234-.061 1.33724-.2017 2.18451-.2696 3.33008-.1946.43799-1.2183-2.10187-1.1074-2.78515.2668-.48838.6725-.74543 1.0352-.69727zm-73.7364.4707c1.4181-.0262 2.443.94875 1.9629 2.39453-.5529 1.39589-3.7533 2.27415-5.1972 3.23633-.9446.47171-1.1743-.0393-.8828-.86133.1347-.38015.2397-.67831-.4805-.78515-1.7484-.25941-.6835-1.1146 2.5215-3.27735.7022-.47381 1.4316-.69508 2.0761-.70703zm70.3184.91407c.5029-.005 1.1234.29036 1.7637.99023 1.1012 1.2039 1.8972 3.73926 1.2969 4.39844-.4602-.0516-.6887.6315-.7129.9082-.069.79848-1.5176-.65859-2.8868-2.95703-1.1028-1.85147-.5672-3.3276.5391-3.33984zm-59.0566.42773c4.3223-.0298 12.5757.87036 24 8.06836 1.4569.91933 2.9145 1.93345 4.5625 2.75195 4.334 2.35338 7.91 3.94809 13.4961 4.9961l-.1582 2.91015c.9196 3.25886 1.1633 7.88825 1.7519 10.11328l1.3125 2.70313s-6.8568-.0582-9.9746-.67578c-5.0219-.82237-14.187-5.10864-18.6172-8.48047-4.6017-3.39898-11.5533-6.22346-17.5117-7.31836l-.082-2.50391s-.5919-8.57274-1.0664-9.74609l-1.0957-2.70899c.269.10883 1.4181-.0958 3.3828-.10937zm36.0605 1.87891-.332 2.875-3.8047 1.79687v-2.463zm19.2383.11328c1.4785.0997 3.877 2.86197 5.0293 5.17187.055.31285-.1365.49341-.4414.45508-.7252-.13205-.9923-.39481-1.1953.51172-.05.2245.08.63006-.168.55664-1.2914-.38159-4.9847-4.13275-4.7578-5.33203.1703-.90071.6257-1.22241 1.2519-1.34766.09-.0179.1827-.0223.2813-.0156zm-34.1543.20703 2.7734 1.48633.1231 2.83398-2.4668-1.06836zm-29.75.72461c.6454.0296 1.2007.34003 1.5977 1.11328.6523 1.60332-.5029 2.56872-3.9317 3.29297-2.9789.71293-2.9184.75805-2.5019-.35547.2762-.73878-.6439-.82174-1.1582-1.01758-.8692-.33098-.1568-.43312 2.3437-1.6875 1.2507-.6647 2.5747-1.39507 3.6504-1.3457zm-10.0527.76562c5.0521 4.69754 3.9594 14.81621-2.6309 17.43164l.3184-2.62109s6.2977-4.18699 1.6601-12.81055c.2088-.66912.4297-1.33543.6524-2zm70.8515 1.77149c1.7101.006 6.5074 4.39222 4.4629 4.54883-.2401.0183-.1574.33175-.1582.53124 0 .19949-.012.57917-.066.72266-.1475.3827-.7069.30659-1.5684-.20703-2.1836-1.30194-2.6785-1.71603-3.4335-2.43555-1.4861-1.41579-1.0638-3.16729.7636-3.16015zm-16.9004.7539-.031 2.36524-3.4199 1.66601.021-2.13672zm-42.6855 1.74024c1.8757.31972 2.7261 2.30531.6523 3.40039-.9189.48526-3.9443.14583-5.3515.0215-1.5885-.14042-.6509-.61443-.5645-.75781.218-.36129.3866-.41735-.4414-.91406-.6581-.6971-1.0336-.86827.6113-1.08399 1.7499-.10839 3.4433-.72343 5.0938-.66601zm69.3984.52148c.1673-.005.1508.27852.082 1.01172l-.1133 1.57813c-1.048.16842-6.2553 6.68691-2.0254 14.26757l-.3535 1.34766c-.1626.66608-.2153.76386-.7636.35156-3.1702-2.20603-4.1979-13.4373 2.3691-18.08203.4264-.28424.6706-.46772.8027-.47461zm-12.3613 1.31641c.612.011 1.362.18467 2.2207.57812 2.0003.91656 3.3288 1.65698 3.6387 2.14649.1913.30224-.1081.55485-.5117.67187-.4884.14157-.5486.34732-.4161.92383 0 .33493.083.70413-.3339.72656-.7716.0415-2.4943-.50441-4.2383-1.44922-2.9446-1.59512-2.5453-3.63709-.3594-3.59765zm-14.957.0351v2.875l-2.8086-1.30468zm-47.0879 2.47266c1.1159.12385 2.1517.26097 3.332.33594 3.2013-.0559 4.5338 2.20124 1.8867 3.32812-1.2322.52457-3.1979-.36519-5.5781-1-.9516-.27185-1.2801-.57495-.6504-.79101.5866-.20123.6371-.60901.2715-1.15039-.089-.5423.083-.74026.7383-.72266zm74.3945 0c-.4534 4.4523-.8243 7.92141-1.4922 12.2793-.4873-.1934-3.9415-8.40418 1.4922-12.2793zm-13.4727 2.13281c1.0419.0191 2.8011.42114 4.5118 1.09766 1.4949.55426 1.6831.70283.6504 1.14648-.6015.28127-.5659.57638-.3633.91993.2151.365 1.0268.75669-.025.79882-1.0058.0761-3.6485-.0742-4.4551-.21679-2.4126-.4264-3.0699-2.61549-1.0918-3.63282.1594-.0819.4261-.11963.7734-.11328zm-61.9882 1.125c.223-.00049.6329.11975 1.375.35547 4.3324 1.37638 6.0884 3.04493 3.9668 4.66211-.6154.46911-1.5707.26906-3.3731-.74414-1.843-1.03608-2.768-1.60471-3.1113-1.97266-.3407-.36511-.1549-.78294.3691-.74804.7191.0479.6103-.31529.5528-.92383-.041-.4262-.066-.62822.2207-.62891zm19.623 2.63672 2.1934.98633-2.4903 1.24414zm-21.5195.50391c.087-.007.2089.022.3789.0996.4228.19601 1.0636.62183 1.9434 1.27148 1.8646 1.37698 2.9521 2.32365 2.9882 3.1582.018.41243-.2832.94595-.7539 1.19727-1.1263.60129-2.2033.10897-4.6386-2.40039-.787-.81093-1.3131-1.24507-1.5528-1.60547-.2794-.42018-.074-.81558.3887-.64453 1.7295.78619.6358-1.02699 1.2461-1.07617zm66.3945.61523c.5483-.002 1.1023.01 1.6914.0332 1.0813-.0338 1.0661.52117.7617.72265-.5066.45502-.3628.91443.1485 1.16016.3509.16867.2073.52508-.2168.76953-.2477.14277-.6257.29622-1.1426.45898-2.9932.94244-5.1997.66233-5.7773-.74218-.5711-1.38914.2912-2.16464 2.875-2.35157.5695-.0337 1.1118-.0489 1.6601-.0508zm-41.6191.41992 5.7402 3.26172.9492 36.32813c20.7972 2.10209 36.2836 6.68974 53.5293 22.91406-5.5676 3.03378-8.1785 4.55286-13.5879 7.46875l-.7832 1.13477c13.7169-6.45234 34.4979-19.86545 49.5547-34.69141v96.33594h-71.664c-.017-5.66853.012-11.33745.041-17.00586-.8512-4.8713-.1699-10.43917-.9688-15.14453l-.3086-4.52735c4.4418-5.20168 6.8425-11.76048 8.961-18.46289 0 0 2.1373-.83384 3.1777-1.20312l.3594-1.31641c-2.0659 1.06209-6.8067 2.84375-6.8067 2.84375-15.1406-8.62742-36.6542-8.97123-53.5156-.11328-.349.24786-.664.25195-.664.25195 3.1143-8.32531-1.468-20.92107-16.75-23.57226l.1796.86133c16.2402 1.84239 20.0508 19.12464 13.7989 27.15234.3073.5701.5898 1.10217.8593 1.48633 1.07-1.66027 1.8075-3.54223 2.5215-5.44141 7.8418-4.48953 17.6759-6.8247 27.4024-6.85351 9.1369-.0271 18.1813 1.98276 25.375 6.14648-2.4449 1.36882-10.2481 3.27734-10.2481 3.27734-4.3846-4.95436-6.6188-9.90732-14.5469-7.375-8.3031 2.15847-15.7802 9.3942-19.9882 14.19532-4.2194-2.52933-6.5036-3.1461-10.2442-3.35547.1853.47495.4915.98512.5703 1.25586 13.7848.004 18.5611 15.56085 12.2481 24.18554.016-.0673.5137 1.00586.5137 1.00586 3.9521-5.25285 5.0035-15.23201-2-22.24609 5.1774-5.8128 15.1165-15.11674 23.7129-14.57227 3.1287.19818 6.2169 4.01246 8.2734 7.05664 4.3546 6.44594 5.4726 15.44678 5.7812 20.58008.076 1.34499.2554 2.32158.2578 3.0293.011 2.0549-.3846 1.80958-1.7031 1.4668-1.6549-.43026-3.9241-.4482-5.6015.0664-.963.29543-1.527.42577-1.7442.33399-.3905-.16512.341-1.04691 1.8828-2.97071 1.4154-1.76592 1.2911-2.49414 1.291-2.49414 0 0-1.0509.63759-1.8359 1.85352-1.0789 1.67148-1.6266 2.26847-1.7422 1.88086-.1379-.46252.341-2.32698 1.2715-5.4375 1.1121-3.71726.9998-3.97707-2.0293-6.28711-1.193-.74568-2.2504-1.38822-2.8633-2.53906 0 0-.1811 1.32123.2227 2.11523.4997.98268-.5591 1.43126-2.4199.41797-4.3794-2.44277-7.2291 2.50351-3.3203 4.64648.9213.50512 1.4355.0914.7226-.57226-2.4049-2.23897-.7323-4.1256 2.5215-2.14258 1.8807 1.1462 2.5957.7786 3.2246-.65625.3483-.58479 3.2687 1.5207 3.2656 2.33789 0 .53616-.3405 2.25313-.6718 3.40234-.9352 3.24364-1.1889 4.25057-1.5938 6.35352-.7344 3.81347-.7156 5.76736.07 7.44336 1.7623 3.75559 6.1986 5.52699 10.0469 4.01562.5592-.21964 1.6309-.40234 1.6308-.40234l.045 2.75586c-7.5877 2.89352-13.0697 11.92614-12.8203 12.23438l-2.7051.006c-3.5923-7.18148-9.9146-12.58913-17.9473-15.57812-.1672.033.8507 3.49309 2.1934 4.7793 3.8161 1.95307 8.8659 5.41628 11.6523 10.79297l-1.918.0312c-2.3375-3.58807-5.3642-6.01114-8.2363-8.125.214-.10357 2.1981 6.58289 3.25 8.5586l-49.4668.86719c3.3756-13.29925 4.0248-28.05656-3.8847-47.40039 6.5577.40526 12.3748-1.0121 17.705-3.35547l-.4824-1.37891c-6.0732 2.91961-12.7363 3.49461-19.4062 2.80859 5.0599 9.4328 9.488 29.02227 5.1777 48.03321h-18.7441v-105.07244c-.013-.0174.5613 1.68335 1.2695 2.58789.57.57589.9551 1.4375 1.1172 2.06055.2072.79692.427.84436 1.5586 1.69727.5428.40918.8563.76919.8554.98046-.032.23535-.038.96324.3282 1.41016.9969 1.21384.8213 1.99329.072 2.77734-3.481 3.64642-5.6624 11.3089-3.9023 19.39258 4.1283-2.79818 8.3811-10.11685 8.5156-10.1289l.3984 9.99414c-.3669-.0821-2.8858 1.42166-2.916 3.38672-1.1412.34162-2.5346-.23106-3.6914-.57422l.834 2.94336c-4.2368 1.70163-4.4649 7.53861.4453 9.20507 0 0-.4466 2.28193-.832 3.50782l3.1875-.49024c1.852 5.56942 8.9621 3.78771 8.9277-.0976 0 0 2.1635.81769 2.9844 1.18164l-.7031-3.82813c4.3472-.0586 6.5408-7.93675.1914-9.30469.024-1.06092.4118-1.36482.8555-2.60156l-3.2657.20703c-.599-1.96099-2.7928-3.56462-2.875-3.34961l-.4511-14.30273c2.4688 2.16798 4.8988 4.3918 8.1718 6.11719 1.8735.98761 2.7018 1.22472 2.9551.60742.2061-1.75983-.2813-3.21851-.8652-5.00391.9601.16957 4.1965 4.60722 4.4609 6.68164 11.8082-7.50466 22.9805-16.9707 22.9805-16.9707l5.7363-.99609-.498 2.61132-5.2071.98633-.023.90625 5.8711-1.21094-.4199 3.45704s11.3187-2.05467 17.0449-2.09961c0 0 .1383-28.82501.1172-31.9668-.022-3.395 0-7.45313 0-7.45313zm-.7949.54102-.025 2.16406-3.1075 1.50196.3379-2.19532zm-26.4043.67578c.2725.0164.7199.43951 1.3691 1.24024 2.9963 3.69565 3.3993 4.40813 2.418 5.38867-1.163 1.16205-2.7935.0377-4.5508-3.20117-.2363-.43549-.525-.99423-.6973-1.19727-.6445-.75966-.3616-.99698.4551-.93359.4475.0348.6602-.12368.6719-.58789.013-.49.122-.7218.334-.70899zm71.5332 1.87891c1.351.0947.7585.52915.5332.8164-.368.4689-.4944.74932.2968 1.10547.131.0642.422.42533.1582.58203-.6251.42548-3.4168 1.70715-4.4277 2.04493-1.964.6563-3.1727-.9545-2.0195-2.55469.4833-.67066 3.8049-2.11017 5.459-1.99414zm-74.5547.29101c.6299.004 1.2987 1.60986 1.4531 1.8418 1.9909 2.98986 2.2399 4.38737.9277 5.25977-.8303.63625-2.5996-.27765-3.0039-2.20899-.3094-1.47882-.452-3.02611.025-4.2539.1811-.46489.3877-.64004.5977-.63868zm29.4101.60352.016 2.33789-3.7774 1.91016.3477-2.57618zm7.6992.0918 3.5528 2.31836.2051 1.99218-3.6719-2.0332zm39.629 2.30273c.094.001.1431.0434.1425.1543 0 .27506-.071 1.253.461 1.34179 1.0448.17459.8072.50391-.1075 1.29688-.9908.88313-1.895 1.93-3.0898 2.57422-3.08 1.14669-4.0303-2.10052-1.1328-3.83399 1.2053-.72112 2.426-1.28413 3.7266-1.5332zm-39.5313 1.20313 4.1152 2.4414.1446 2.45703-4.0918-2.0957zm-7.9414.22656.016 2.13672-4.0195 2.31836.334-2.39063zm49.5117 1.89453c.2659-.01.3301.25602.3281.75781-.065 1.45347-2.4363 6.80501-4.3261 4.0625-.5194-1.02104.011-2.07875 1.666-3.33984 1.3141-1.00002 1.9903-1.46856 2.332-1.48047zm-80.2148.28711c.3252.47779.822 1.08709 1.0468 1.375-.051.41031-.7.58826-1.2421.73633 0 .0596.048-1.3803.1953-2.11133zm30.7539 1.23437-.025 2.7168-4.7656 2.61133.5117-3.01953zm7.8847.38282 4.7207 2.53515.5547 2.99805-5.2343-2.73047zm-7.8945 3.6914v2.73438l-5.3555 2.76757.3633-2.69921zm7.9863.23633 5.2793 3.02539.6934 2.84961-5.8945-3.06641zm-74.8379.0879c.8656-.0117 1.1752.91677.5215 1.50781-.4316.40426-1.6556.32236-1.7636 0-.5527-.5371.2074-1.49384 1.2421-1.50781zm1.4903 2.91016c.1506-.0119.308-.007.4765.0117.6399.0722 1.0126 1.06685.6309 1.58398-.7045.95485-2.5624.29438-2.291-.91211.3523-.45533.7318-.64785 1.1836-.68359zm65.2695.90039v2.44531l-5.8281 3.09766.3691-2.73633zm8.2422.33984 6.0137 3.25195.4609 2.74024-6.4648-3.38477zm-76.2441.0723c.2902-.0162.5218.0647.6464.2832.1116.19532.2447.69539.6622.93945.7786.45528.8586.55075-.6211 1.20313-.6233.27475-1.8476 1.11431-2.2754 1.40429-1.309.88717-1.8415.58984-1.9375-.45898-.1211-1.32227 2.2678-3.30102 3.5254-3.37109zm4.5117 2.00195c.3032-.0175.5988.0408.8105.18164.5004.33294.5257.99984.045 1.33594-1.1009.7087-2.8226-.26242-1.9062-1.10938.2576-.23803.6609-.38568 1.0508-.4082zm63.4804 1.32812.031 3.17383-6.5 3.45313.4297-3.2207zm-66.6953.3711c.4262-.0242.8341.0755 1.1895.33984.3852.49452.8485.63992 1.1172.65039 1.1151.0434.7598.45449-.4102.99219-1.6126.74112-2.7435 1.68075-3.9043 2.76563-1.2073 1.1285-1.2948 1.3707-1.6914.9082-1.4753-1.72037 1.3987-5.52523 3.6992-5.65625zm75.045.0352 6.8125 3.7539.5839 3.16797-7.3964-4.14453zm-70.5684 2.23632c.2755-.006.535.0595.7383.22657.484.39785.204 1.16569-.4668 1.51171-.5708.29436-1.5106.16916-1.7793-.10351-.6437-.65324.5236-1.61153 1.5078-1.63477zm-3.291 1.59375c.4146-.0403.7902.49254 1.1269 1.06836.1177.1439.5839.0811.918.084 1.275.0107 1.4527.55344.2148 1.24414-.3618.20191-1.5481 1.11559-2.3417 1.79492-2.1389 2.05674-3.299 1.57475-3.0254-.53125.2617-2.01375 1.9993-3.55239 3.1074-3.66016zm73.8594.19727 7.5156 4.15039.7324 3.41211-8.248-4.47656zm-8.293.0625-.031 3.14258-7.0742 3.76758.5488-3.18946zm8.4062 4 8.4161 5.13086.3086 3.33984-8.7247-5.05859zm-8.4121.55664.016 3.08203-7.8223 3.99414.3945-2.91015zm-63.5 2.03906c.1999-.004.3875.0257.543.0977.9161.42465.6751 1.16013-.7031 1.91601-1.406.7711-1.8858.63679-2.1875-.22851-.2539-.72838 1.2681-1.7591 2.3476-1.78516zm87.8848.41797c14.6348 3.37313 28.9627 10.66876 42.873 23.4043l-2.9062 2.06836s-12.1913-13.99855-39.2813-22.20508zm-15.8867 1.4668 4.0605 2.41015.01.61328-4.0684-.33398zm-69.1641.0254c.3077.0165.5779.19657 2.0293.89258 5.8262 4.23572 8.1605 6.79003 9.6074 11.43359.867 2.78264.8492 2.66867-2 1.15625-2.6803-1.43261-6.3537-3.81208-8.7246-6.88672-.3928 7.23458.4473 16.22852.4473 16.22852 3.6392 1.80591 2.4612 6.50863 2.4512 6.48047 9.3653-2.57379 7.3125 9.87153.3339 7.1875 1.6636 9.33687-8.9527 8.57714-7.8652.57421-8.4504-.32893-6.9563-9.60429.059-8.32226-.7298-2.86147.2766-4.79888 2.8633-6.02734l-.3945-12.22266s-6.8887 9.95303-8.0391 9.79687c-.6756-.0917-1.6907-1.23516.021-9.96289.8918-4.54398 5.6764-10.07729 8.3554-10.25586.4738-.0316.6709-.0822.8555-.0723zm6.7363.0918 1.2344.85351-1.2265 2.3125-1.5098-1.13086zm53.8887.5996-.041 1.83204-3.793.22656zm-40.2226 20.78125c-.024.77334.3728.99213.5586 1.15625 8.9262 1.39191 14.3858 12.38676 10.2558 20.34766.1455.501.4922.98139.7754 1.43945 4.354-6.21448 1.1131-21.4879-11.5898-22.94336zm2.0039 4.08204c.5436 1.21004.5765 1.32794.9316 1.64648 3.1486 1.1736 6.526 6.21163 5.7129 11.39063.1467.27538.5446 1.03346.748 1.46484 1.3621-4.05632-.3517-12.0554-7.3925-14.50195zm69.6621 16.32812c-1.8195 5.92814-4.1699 11.76556-8.1563 16.9082l-.4922-2.57031c3.7484-5.79527 5.5253-11.06371 6.3262-13.37305zm-3.5371 1.53711c.2338.37674-3.6332 9.65759-5.5411 11.3457l-.748-2.39453c1.5563-2.3677 3.86-8.07686 3.793-8.13086zm-23.5899.0117c-.1204.0111-.1632.11641-.164.34961 0 .85202.8794 1.52379 2.4863 1.89062 2.1712.49563 5.2128-.2616 5.2168-1.29687 0-.59769-.4201-.64002-1.6641-.0606-1.5598.72672-2.9368.58314-4.9726-.50195-.4667-.24879-.7477-.39505-.9024-.38086zm19.5449 1.39258c-.6037 2.24855-1.5296 4.16733-2.6738 5.88476l-.5449-1.35742c.7916-1.2879 1.3146-2.76051 1.9844-4.19141zm-2.4765.8164c-.293.78198-.6146 1.68732-1.2852 2.38477l-.8711-1.85938zm-13.832 1.72461c-1.3848.0267-2.8421.50171-2.9688 1.28907-.061.37711.5053.23228 3.2422-.10352 1.4443-.1772 2.1332.68382 3.457.59375.6742-.0804.044-.7072-.166-.88867-.7356-.63031-2.1798-.91735-3.5644-.89063zm-6.1934 1.71289c-.1476.0303.017.4085.5684 1.37305.2986.52232.3718 1.58527.4296 2.24414-.071 1.64055-.066 1.58961.7383.64063.5065-.50599 1.4911-.39369 3.0508.0312 1.005.27381 1.246.37199 1.9434-.0684.8089-.51061.9988-.25411 1.6953-.11329.6724.136 1.2822-.13467 2.0195-.33984.8997-.25044 1.0722-.19245 1.8555 0 1.1968.57063 1.0233.51903 1.123-1.52344.1003-2.01091-.011-2.15236-1.164-1.47461-1.1195.65651-1.8895.95239-3.6075.34961-1.8721-.65683-2.1368-.49051-3.4648-.0879-1.6053.48672-2.3364.65402-3.6152-.13281-.8416-.5178-1.4049-.93274-1.5723-.89844zm-26.1582 3.03516.7168 1.17578c6.4715 2.33127 10.8554 7.65834 8.2676 16.63672l.6152.99219c3.2389-9.04683-.4567-16.52612-9.5996-18.80469zm2.0039 3.83008.8809 1.82226c4.8701 2.3687 4.5796 8.89142 4.3066 8.63477l.7637 1.69922c1.2182-4.22124-1.0016-10.45489-5.9512-12.15625zm19.9258 9.81836s.297.63147 2.5215 2.18164c1.9106 1.33141 3.3883 2.3198 3.2754 2.50976-.076.12705-1.2648-.16393-2.1133-.41797-2.2232-.66567-5.5014.13551-7.3399 1.43946-.4665.31561-1.2439-.0297-1.9179-.20703-.2698-.0769-.8647-.14968-1.1582-.0723-1.3903.36656-.045 1.70317 3.3574 3.4375 4.1752 2.12837 6.4347 2.32352 8.9707 1.0332 1.684-.87698 2.2889-.22715.4472.77344-6.6324 2.13191-9.1258-1.38375-13.7089-3.38867 4.3359 5.20725 12.5089 6.63794 15.6406 3.3125.1638-.0598.5454-.032.7285-.0312.8726.003.9094-.2742 0-1.72461-.5482-.87421-1.6585-1.79468-.3086-2.86523 1.0233-.81159.9495-1.19641-.2871-1.56836-.3264-.091-.2923.12513-.7832-.27344-1.6051-1.30342-3.1922-2.43395-4.4746-3.19727-.8431-.49315-1.892-.85218-2.8496-.9414zm1.7011 4.67578c1.2472.0349 2.502 1.00084 2.8946 2.74023.035.15485.067.31412.088.48047l-1.0625.0391c-.8811-3.54348-3.5326-2.36832-3.7969-.29296l-.959-.12891c.3524-1.97609 1.5889-2.87273 2.8359-2.83789zm19.4161.21094c1.13.0598 2.2622 1.08829 2.5879 2.8125l-.7071.10546c-.463-1.30483-2.558-3.05726-3.5566.12305l-.8926-.0371c.3106-2.15429 1.4383-3.06368 2.5684-3.0039zm-16.2032.85546c.2749-.009.8207.0804.9336.29493.2967.66846-.5345 1.16779-.6386.9414-.1783-.0623-.3974-1.16348-.295-1.23633zm13.3692.16793c.3247.20658-.2268 1.09842-.5156 1.42969-.2821.30449-.9094.0465-1.1719-.25391-.2299-.29681-.035-.84897.3242-1.08398.503-.32861.8316-.43003 1.3633-.0918zm6.2578.0195c.5745.16907.9423.25726 1.0254.75782 0 .33688-.3813.7031-.8242.72265-.1948.009-.9409-.54136-.8008-1.32812.1085-.31289.4234-.20422.5996-.15235zm-26.4746.041c.2006-.01.3908.0348.4863.16992.1572.2423-.1374.96688-.2051 1.06446-.035.0507-.9894.009-.9687-.0625.02-.0713-.088-.61595.1445-1.01172.1323-.0849.3424-.15026.543-.16016zm17.8027 2.50781c.089.006.2922.0495.4785.16602 2.6693 1.74988 6.103 2.52874 8.5762 1.27929.5523-.27902.9132-.26384.9121.006 0 .29525-.6136.89953-1.7539 1.24414-2.5476.76997-6.7514-.246-8.2051-1.8164-.4276-.46193-.2542-.89643-.012-.87891zm-23.3906 1.82813c-.2549-.007-.3373.14533-.2871.45508.1689 1.04266 7.3082 5.16623 10.2929 5.72265 2.451.45689 4.3546.25375 5.8536-.62305 3.6403-2.12918 2.7072-5.00981-.8555-2.83984-2.3934 1.45781-8.459.78724-12.0664-1.31055-1.6041-.93271-2.5128-1.3923-2.9375-1.40429zm23.6406.44336c.2118.004.4777.0842.7559.24804 2.9493 1.60363 5.1437 1.62239 6.9043 1.11133 1.7953-.68485 2.1608-.80125 2.3515-.64062.9177.77294-.5861 1.97681-3.3281 2.44726-2.1932.36289-3.5118.43538-6.0156-1.42969-1.4536-1.0828-1.3033-1.74832-.668-1.73632zm-22.7441 5.67187c6.2514 2.3332 13.2839 7.76571 16.4297 14.34571l-1.9473-.0156c-2.1686-3.80919-6.4597-8.64678-13.5332-12.04687-.3251-1.00391-.9974-1.84033-.9492-2.28321zm32.9101 3.02539v2.08594c-3.9031 1.98054-7.1752 5.02943-9.6425 9.23438l-2.209-.0313c2.5309-4.51168 6.3228-8.73644 11.8515-11.28906zm0 3.17969v2.56055c-2.4679 1.45692-4.5284 3.37799-5.9726 5.58008h-2.6133c2.0951-3.56619 4.9694-6.40984 8.5859-8.14063zm-28.7109 2.08984c1.8943 1.17095 4.8288 3.9486 5.9199 6.10352l-1.0039.0449c-1.024-1.31232-2.6612-2.82078-3.9941-4.00976-.4982-.59531-.7803-1.37545-.9219-2.13868zm28.7109 1.51953c.031 0 .032.0183 0 .0605v2.03516c0 .0534-1.8756 1.28535-2.6718 2.43555h-2.1211c1.4571-2.65454 4.4889-4.53664 4.7929-4.53126zm0 3.38282v1.14844l-1.334.006c.088-.12987.8266-.9471 1.334-1.15429zm-26.0097.28711c.3995.21157.707.96679.707.96679l-.3574.0371z" fill="#004c97" stroke-width="1.06667" transform="matrix(.937503 0 0 .937498 1802.06 -803.175)"/><path d="m3416.7595-494.07622c4.1182.11277 12.8094-1.43604 12.6701-1.27826 0 0 26.9646 45.11347 25.868 44.66669-.3507.55973-34.543.53939-34.543.53939-.7409.009 7.2545-16.71641-3.9951-43.92782zm12.227-31.78252c13.1389-10.96297 26.9026-11.04422 41.6818-12.55212l.3387-37.25694 5.3492 3.22374.113 34.13636c19.5091 1.47231 36.3407 8.66672 50.8008 21.25988.1811.27335-20.9205 11.63466-30.1621 14.64077-18.5098-9.65859-34.853-7.17286-50.458-.15701 2.9832-17.98537-10.9641-20.8165-15.8699-21.64673-.6149-.10407-1.3483-1.4353-1.7935-1.64795zm-16.8654 5.8148c.2302-3.83208-.018-7.66783-.3029-11.58624-.075-.89457-7.6834 11.658-8.1087 8.61338-1.0648-7.62219 2.6949-17.31355 8.5998-18.50185.5888-.8022 12.288 6.48946 11.7533 12.79015-.1742 2.05239-10.4364-6.93282-10.4788-6.39645-.2408 1.05064.3026 15.11211.6201 15.08417 2.9552 1.6741 2.3118 3.82441 2.6345 5.60659 7.9189-1.17569 7.4859 7.66868.012 7.39251.4619 10.44887-9.1754 5.72775-7.2768.16223-9.7051-.46048-4.9258-9.58886-.093-7.58264-.2914-2.30401.2744-4.7065 2.6402-5.58185zm11.6318-44.16617-21.2018-1.42722 1.054-49.39445c12.088-23.92973 44.4709-11.10226 44.4906-8.75804-18.1606 11.52883-24.2541 33.06446-24.3428 59.57971zm36.658-20.45654-.6144-5.48437c-1.5806-3.40811 41.1866 16.47753 41.6691 16.90259l1.2442 5.8525c.2471 2.57096-27.2024-10.41813-42.2989-17.27072zm77.8518-9.73137c-3.191 24.61489-3.0114 49.3811-21.1215 57.94587 13.6224 13.28231 25.0098 3.0488 42.1606-5.56068.4659-.001-.5695-52.70912-.8581-52.67279-6.7952.36131-13.5029.5156-20.181.2876zm-.1479-35.2023c-.98-1.26449 7.4294 2.25408 10.7623 7.16837-.4974-.56947-.567-17.36812-.7239-16.70012-.3695.19727-2.9641-1.67335-2.2882-5.1743-7.4393 1.65529-7.031-8.07493-.5292-7.67723-.8402-8.85294 9.9015-5.60173 7.0437.32717 9.1923-1.70471 7.6053 8.68435.6587 6.99368.5894 3.94003-1.0245 5.02875-3.2824 5.81566.1445 1.65139.7603 12.66759.7603 12.66759s6.7965-10.48425 7.284-9.58067c2.3969 2.28087-1.8899 17.32023-7.5456 17.75528-4.865.95209-13.2681-9.0871-12.1397-11.59543zm-21.9128-27.48734c-3.0673 10.64135 5.3361 22.79945 13.2751 22.76594 1.5963-.25315 4.6549.61482 3.5995 1.47557-12.5245 10.21459-41.7509 12.33526-41.7584 11.89223.3061 12.53928-.2522 25.20479-.5502 37.74045l-5.3556-3.24693c-.1717-11.4353-.452-23.13161-.7121-34.56511-18.7263-2.45958-35.5568-8.54015-48.8562-21.47374 8.8303-6.58802 19.3813-10.70342 29.5156-14.86186 12.7595 6.6718 30.5248 10.52683 50.8423.27345zm-10.5309-52.72864s24.1673.23737 35.8574.10069c-3.9321 16.24744-1.1506 30.80478 3.9273 44.784-1.3467-.31687-10.2832.41302-12.4655 1.3953-.3507.35405-27.3192-46.27999-27.3192-46.27999z" fill="#ffcd00"/><path d="m3456.0051-450.75083-26.3053-44.71212 3.9473-1.72647 27.1191 46.50329zm-46.8072-59.77881 3.8002-3.9362 3.8102 3.88662-3.9844 3.72624zm84.397-25.07519-.5347-3.19589c15.1566 3.73601 27.5609 11.57853 36.4812 20.11972l-2.1238 1.56469c.6625-.18194-21.5313-16.93816-33.8227-18.48852zm-43.5343-2.91314 4.3212-.93672-.1365 2.68718-4.1921.84084zm88.2297-2.35908-2.6185-2.12419 1.8841-2.2493 2.5443 2.01823zm-89.0156-21.66471c10.225-7.54825 10.9738-16.47456 10.9477-16.44334l3.5453.84592-8.1899 34.27179-5.6672 1.24821c-.028-6.55646-.6382-13.36817-.6359-19.92258zm42.817 19.39141c-2.2059-7.21438-6.5486-23.53344-6.5486-23.53344.1588.53289 14.1122 4.52674 19.0891 3.07193 2.1253 2.92858 4.4621 5.50208 6.9267 7.86117-5.167 5.08764-11.5821 9.33736-19.4672 12.60034zm58.4881-26.26413-2.4577-2.14387 2.2048-2.71805 2.6998 2.06992zm-32.1123-1.43366c-2.0028-3.62253-2.1419-7.71797 1.5736-11.75701zm-76.397-6.31073c-.072-3.684.4083-7.19402 1.2761-10.58218 2.1523 3.91401 2.1227 7.84534-1.2761 10.58218zm56.1968-3.37668s5.4038-25.20851 7.7442-35.08688l5.9689-1.39186-.2662 20.41543c-5.9418 4.87735-10.1127 16.49707-9.9232 16.49707zm-86.8445-4.19183-2.609-2.45304 2.5882-2.51939 2.2136 2.54586zm46.7353-9.82746c-1.8833-2.76292-4.4621-5.59586-7.1675-8.44157 4.4402-6.217 11.8104-9.81632 19.62-12.64052l5.288 23.68775c-5.9773-1.81349-12.4221-3.7779-17.7405-2.60566zm-36.6301-21.11302 1.8382-2.30129 2.4069 1.90792-1.8294 2.54546zm86.426-6.92803 3.7239-.83624.1357 2.9043-4.4618.8291zm-75.2646-18.09935 2.8393-1.77842c9.9691 9.01001 20.9787 15.22601 32.9867 18.76124l.4013 3.35791c-13.5393-4.20239-25.9266-10.03718-36.2273-20.34073zm116.4858-3.59481-3.6926-3.66543 3.3243-3.72115 3.9482 3.4346c-1.3033 1.97957-3.5799 3.95198-3.5799 3.95198zm-20.4557-17.83596-27.6352-47.46419 3.9922-.0333 27.194 45.71943z" fill="#c8102e"/><path d="m3728.9043 1568.7461-7.043.025 39.9785 80.957c-12.215-.06-19.3529-12.9962-16.2753-24.5918-24.7516 11.2799-40.0749 7.1259-54.3653-.057l-6.0957 2.3554c.4045-3.706 4.9588-17.6245 11.7695-24.1777l-.01-7.0215-.1641-3.3125-.539-6.0136c-10.133 9.6065-21.9558 24.7286-23.4356 46.2031 0 0-9.2275 4.7704-17.1016 10.0488.4371-.059 12.2667 14.567 40.6856 22.7793l-1.25-4.666c4.2259 1.1943 10.2321 2.1381 16.207 2.9004l.8008 36.6543 6.7871 4.0469.2305-40.5821c.2084.1674 10.8237-.3771 16.541-1.75l-.8047 3.9121 5.6485-1.1191v2.8535l-6.1915 1.4707-8.8164 37.9336 5.1348 1.1523c1.5033-7.6406 5.2999-13.8222 10.8008-17.6132l-.057-1.4551c3.5282-2.5487 10.861-4.575 10.9082-4.5274 2.5014-12.3019 8.3231-20.8262 14.5118-28.9355l-2.9473-4.0313 11.3027-4.1757-15.6914-26.877c6.0368-4.195 18.0078-2.6328 18.0078-2.6328-5.1308-13.9466-9.6399-28.3338-4.5722-49.4453l-43.6426.037zm42.3574.7637c-2.7769 16.165-1.8569 31.9109 4.5821 46.873 0 0-.9388.055-1.0567.031-.088-.018.1106-.8077.062-1.0176-.1281-.5621-1.054-.2974-1.8301.2285-.338.2291-.7286.4896-.9746.6133-.7975.4008-4.8418.3711-4.8418.3711 1.3195-.8995 3.1769-3.4311 2.0996-4.9082-.244-.3149-.3933-.177-.6308.248-1.1488 2.0557-1.7185 2.3786-3.2539 2.3594-2.4086-.03-4.1329-1.5325-3.9375-3.7988.1882-2.2023 3.4089-3.3649 2.9336-1.2286-.1302 1.9034 1.743 2.273 2.0898.377.1298-.7101.027-.3804.1797-1.2129 3.75-2.0034 1.681-6.0844-1.8184-5.2305-.8229.2191-.9269.2975-1.5078 0-1.0792-.5597-1.9751-.3838-2.3828.4024-.3591.6926.1865 1.2449.9883 1.248.8313 0 .9923.4083.9902.9102 0 1.1671-2.0058 1.7281-3.332 1.0469-3.501-1.7984-2.205-6.4729 1.8594-6.4571 1.2356 0 1.7522.083 1.8047-.1855.1478-.7549-1.7376-2.0612-2.8028-1.8692-.9031.1776-1.4519.4151-.9746-.7949.2932-1.2473.284-1.8138.035-2.7519-.6497-1.3397-.6338-.6529-1.0352.4336-1.3388 2.2357-3.355 2.7308-5.0937 1.5078-1.6126-1.1347-1.565-3.2897-.031-4.8262 1.0654-1.0674 2.2082-.3409 1.5684.8516-.2649.4937-.056 1.1061.4199 1.2285.962.2471 1.5598-.3222 1.5644-1.4961-.02-.6464-.1992-.7921.9571-1.457 2.9942-1.7219.756-6.4241-2.6231-4.9121-.7417.3319-.9161.6557-1.2519.5-1.4126-1.3438-3.4385.3546-2.2403 1.2539.5178.2538 1.1521.3514 1.3184.3671.2918.1676.1947.585-.2305 1.1094-1.399 1.6611-4.5764.8411-5.3261-1.5019-.8686-2.7137 1.8861-5.5658 3.998-3.9844.6243.4676 1.1651.5164 1.168-.1758 0-1.0784-1.3441-2.3153-3.0645-2.1933-1.7469.1239-1.5567.3493-.6054-1.2403.7016-1.4155.6067-2.797 0-3.6289-.4715-.6411-.9556-.7755-.9063-.098.3823 2.1036-2.0597 4.103-4.0664 3.2207-1.9286-.8683-2.8848-3.0427-1.9375-4.9297.8735-1.7409 2.9935-1.9214 2.6406-.062-.1659 1.1855.729 1.8087 1.5938 1.1093.3143-.2544.3883-.4772.4101-1.2421.025-.8518-.3185-1.1026.2266-1.6016 1.4304-.191 1.5175-3.2507 1.3008-3.377zm-33.1836.094 5.1446.018c-.011 3.5268-4.586 3.1641-5.1446-.018zm7.5781.01c.9071 0 1.6622.3092 1.6622 1.2226-.0001.9134-.7337 1.6524-1.6407 1.6524-.9072 0-1.6465-.739-1.6465-1.6524s.7181-1.2226 1.625-1.2226zm-16.0957.1191h3.6504l28.836 48.3906-3.4141 1.6719zm5.9961 1.6895c1.7473 1.0061 3.3613 1.8331 5.5528 2.0488-.6416 1.3114-1.228 2.7433-1.334 5.1934zm5.8731 9.7461c1.7791.6416 3.3228 1.6132 6.2539.6308-1.5628 1.3927-2.4474 3.059-3.1094 4.8145zm15.0019 5.8457c.8406 0 1.5235.6869 1.5235 1.5332s-.6829 1.5273-1.5235 1.5273c-.8404 0-1.5214-.681-1.5214-1.5273s.681-1.5332 1.5214-1.5332zm-9.3418 3.8203c1.2855.4764 2.633.7915 4.129.7226-.7398 1.0244-.9914 2.5835-1.0391 4.3653zm4.4141 7.6269c1.1901.5844 2.6005 1.4351 5.0996 1.1621-1.6551 2.8276-1.3014 3.6085-1.4707 4.8458zm14.4512 5.6172c.8802 0 1.5957.7191 1.5957 1.6055s-.7155 1.6055-1.5957 1.6055c-.8803 0-1.5938-.7191-1.5938-1.6055s.7135-1.6055 1.5938-1.6055zm-8.9551 3.6035c1.0901.6203 3.2417.9747 3.2656.8067-.1382-.1043-.6193 2.0914-.7031 3.4707zm5.0176 8.2442c1.5491.9199 3.2638.831 4.2715.9394-1.0776.2172-2.093.4899-3.25.9473zm18.2734 9.0488c-3.7326.2423-4.5986 3.1246-4.1562 6.0449-2.8456-.4578-6.0313 2.2581-5.1407 5.5801.8445 3.1503 3.7543 3.2614 5.7618 3.0508-.1542.7654-.5782 3.3387 2.5097 5.5156l.4121 16.3535s-1.3613-1.2571-2.25-2.1484c-3.8794-3.8912-9.7155-6.7109-9.3496-4.5176.053.3224.1779 1.1401.2715 1.8164.6171 3.7028 5.5563 7.7064 8.9238 9.7207 1.2032.6758 1.9493 1.3985 1.9493 1.3985-6.2994 6.7816-9.6861 14.0175-10.5293 21.1992-.7833 6.6725-1.418 12.6819-2.0411 18.8086-2.5705 30.7332-15.6666 38.4647-16.289 39.9687l-.2461 4.0977-3.6563-.2735-4.2129 3.67c13.8017 7.181 21.8527 15.847 21.7403 16.0117 11.0198-7.2662 20.5313-15.3389 29.5097-23.6934l-.1738-68.4277s-.7462.2742-.9394.2734c-.6816 0-.7676.306-1.0039 1.6153-.1265.7007-.5424 1.3462-.8672 1.8066-.617.8745-.3957.4316.3808.7481 1.7679.7203-.5289 3.9844-3.041 4.3828-1.8093.2868-2.82.6222-3.1269 1.0429-3.8083 3.3549-7.6032 3.8855-10.4727 2.6524-1.4117-.6066-2.9459-1.4931-3.4648-2.9727-1.1785-3.3591 1.2767-8.1986 2.7168-10.9941 2.6407-5.1264 7.0273-8.9766 7.0273-8.9766l-.7168-.7851c1.9791-.1108 4.8743-1.2258 5.7402-2.4611 4.2383-5.8991 6.3164-13.8432 4.3164-18.2734-2.9826 2.3028-5.9944 7.6802-7.7558 10.8496-.6089-4.6957-.7891-12.8926-.7891-12.8926.6312-.7025 4.2139-.3096 3.4199-6.1894 3.1529 1.4319 6.4749-.7594 6.336-3.8164-.2161-4.7603-3.8594-4.6205-6.8242-4.0196 1.4127-2.8754-1.2713-6.3411-3.9688-6.166zm-.059.4004c3.8954.1212 4.6684 4.4562 2.2813 6.9102 0 0-1.5468-1.1987-2.3672-1.8809-.7795.6165-1.0043 1.1488-1.8613 1.7832-1.0144-.7551-1.6274-2.0903-1.6368-3.377.048-2.01 2.0622-3.4829 3.584-3.4355zm-88.998.1348c15.7636 8.8707 35.5296 9.5054 53.623.4648l-.2207 1.502-1.9844 1.125 1.1231 2.0703.6211-.3008.016 1.3691c-14.9145 8.1124-39.899 9.7898-59.457-3.6816 1.0048-.6352 3.8644-1.3577 3.8644-1.3577l-.9406 1.1584 2.4473 1.5997 1.1523-1.7501-1.8476-1.3378zm1.3886 2.7207-.9023 2.0644 2.2617 1.2129.8614-2.0801zm-8.5761.2304c24.2748 15.3432 46.8716 10.7768 60.4414 4.502l.1738 1.6367c-17.5142 7.5028-40.5438 9.516-62.4648-5.3223zm57.1406.9864-2.1582.8672.8555 1.9921 2.2207-.955zm-60.041.3711c19.7265 12.8081 40.8839 15.3163 63.6855 5.9316l.8711 2.4512c-22.2071 8.9797-45.6424 7.9464-67.0527-7.3184zm15.1582.074-.8828 2.1465 2.4453.9336.7129-2.1055zm41.4844.8867-2.1387.6973.668 2.0546 2.2128-.7597zm-37.7481.584-.5273 2.1582 2.4961.707.4355-2.168zm86.4922 0c1.8514-.052 3.6523 1.4032 3.8496 3.5566.3362 3.6696-5.0664 5.4404-7.0879 2.0156l1.7813-2.1796-1.5938-1.4961c.8109-1.2913 1.94-1.8652 3.0508-1.8965zm-108.4258.1191 5.8848 4.0723-4.2754 6.6894-6.3359-4.2832zm97.1114.055c.9025-.013 1.8133.3457 2.5566 1.2383l-2.1016 2.459 2.2735 2.4355c-2.6969 2.8863-6.7197 1.1036-6.6797-2.4297.021-1.854 1.9653-3.6746 3.9512-3.7031zm4.8789.1309 3.7382 3.2636-3.4297 4.0411-3.5058-3.5625zm-45.8868.1601-2.2461.6758.5137 1.9824 2.3223-.6093zm-30.2851.625-.4141 2.1309 2.5781.5586.4356-2.1211zm26.5781.3614-2.3887.5214.4102 2.1211 2.3945-.5058zm49.8457.5-1.9687 1.9472 1.9687 2.0547 1.9844-2.0547zm-72.2871.062-.3027 2.1464 2.7031.3672.209-2.1738zm18.1934.2949-2.4297.2773.2461 2.1074 2.5215-.3203zm-14.3438.248-.031 2.2031 2.3691.1915v-2.1836zm10.4473.2051-2.3789.088.016 2.1328 2.4297-.1562-.064-2.0645zm-43.3965.022c-1.3994 0-2.5334 1.1397-2.5332 2.5488 0 1.4091 1.1338 2.5508 2.5332 2.5508 1.3993 0 2.5315-1.1417 2.5312-2.5508 0-1.4091-1.1319-2.5488-2.5312-2.5488zm39.4082.072-2.3379.019.012 2.1582 2.4082.012zm61.9785.01 1.0254 1.0332-1.0254 1.0156-1.0508-1.0156zm0 .6621c-.2077 0-.3758.162-.375.3614.0004.1985.1682.3593.375.3593s.3746-.1608.375-.3593c.0008-.1994-.1673-.3614-.375-.3614zm-101.3965.1543c.9181 0 1.6621.7475 1.6621 1.6719-.0001.9245-.744 1.6777-1.6621 1.6777-.9182 0-1.6661-.7532-1.666-1.6777 0-.9244.7478-1.6719 1.666-1.6719zm-9.0058.1231 3.3672 2.7617c-1.0716 2.0654-4.4649 6.4258-4.4649 6.4258l-6.2226-5.0215 3.2558-1.8535c-.177.3445-.2773.7321-.2773 1.1465-.0001 1.3846 1.1169 2.5039 2.4922 2.5039 1.3749 0 2.4901-1.1193 2.4902-2.5039 0-1.3282-1.0289-2.4115-2.3262-2.4981zm-1.8809 1.7754c.9221 0 1.672.755 1.6719 1.6836 0 .9285-.7498 1.6777-1.6719 1.6777s-1.6719-.7492-1.6719-1.6777c.0001-.9286.7498-1.6836 1.6719-1.6836zm114.4649.7949s.9162.3503 1.1406.6972c1.8065 2.7919-.075 6.1119-3.1016 6.0469-3.5367-.076-4.4678-4.5403-2.0351-6.3613l1.9765 1.8809zm-91.9473 1.1367 6.9726 2.6934-2.6464 7.6289-7.6211-3.1485zm-28.6543.7949c28.4411 25.8036 68.847 27.6585 98.2148 10.5293l1.7891-.035.9473.9804c-33.4567 19.9233-75.0455 15.5883-103.1231-10.0547zm78.3144 1.5371 2.2461 7.543-7.7089 2.043-1.7227-7.6387zm-81.2304.2735c8.6321 8.3759 20.8368 15.7166 35.1699 19.8789l.3535 3.0918c-15.2151-4.6009-26.7081-10.7446-37.9023-21.4102zm33.416.1191c-1.375 0-2.4902 1.1251-2.4902 2.5098 0 1.3846 1.1152 2.502 2.4902 2.5019 1.3751.0001 2.4922-1.1173 2.4922-2.5019 0-1.3847-1.1171-2.5098-2.4922-2.5098zm-12.4004.5625 7.1934 3.8301-3.584 7.2226-7.6367-4.125zm12.3691.2637c.9221 0 1.6719.7551 1.6719 1.6836s-.7497 1.6777-1.6719 1.6777c-.9222.0001-1.6699-.7492-1.6699-1.6777s.7477-1.6836 1.6699-1.6836zm11.9082 1.0273 6.9102 1.0117-.3184 7.711-8.0625-.9746c.3093-2.7144 1.4707-7.7481 1.4707-7.7481zm33.375.1914c-1.375 0-2.4902 1.1232-2.4902 2.5078 0 1.3847 1.1152 2.504 2.4902 2.5039 1.3751 0 2.4922-1.1192 2.4922-2.5039 0-1.3846-1.1171-2.5078-2.4922-2.5078zm-.031.8262c.922 0 1.6719.7531 1.6719 1.6816 0 .9286-.7498 1.6778-1.6719 1.6778-.9222 0-1.6699-.7492-1.6699-1.6778 0-.9285.7477-1.6816 1.6699-1.6816zm-56.1797.1074c-1.375 0-2.4916 1.1252-2.4922 2.5098 0 1.3846 1.1172 2.5019 2.4922 2.5019 1.3752 0 2.4897-1.1173 2.4902-2.5019 0-1.3846-1.115-2.5098-2.4902-2.5098zm44.1758.012.9883 7.7461-7.5449.377-.4454-7.7266zm54.0781.6914h1.0723c.099 6.6677.6223 14.3856 1.3887 20.0938.1154.8502.1677 1.1008.082 1.2539-.7409 1.3213-1.6017-.342-1.9375-4.1348-.093-1.0451-.21-2.5665-.3379-3.5664-.3875-3.0236-.2676-13.6465-.2676-13.6465zm-127.5293.1153c-11.3455 7.1272-30.216 24.1522-30.1035 24.5489l.076 65.4199 1.4765.072 1.2188-2.4063c-1.8876-.4759-1.3586-4.0472 2.2558-4.7637.6168-.1223 2.5012-.7608 2.9629-1.1152 2.7437-2.1062 7.2026-3.3504 10.3301-2.5195 4.5606 1.1744 5.8815 4.7098 3.3008 10.4218-2.1966 4.8618-4.6329 10.3629-9.207 12.6504 0 0 .7476.6865 1.0195.8633 8.8657-5.159 13.3432-23.6642 13.1035-35.1777.3572-11.793 2.3762-23.6273 7.1035-32.2344 7.8131-14.2251 18.1482-19.9438 18.0957-19.9961 0 0-13.9325-8.5179-21.6328-15.7656zm29.2442.014c.9226 0 1.6718.755 1.6718 1.6836 0 .9285-.7492 1.6757-1.6718 1.6757-.9221.0001-1.67-.7472-1.67-1.6757 0-.9286.7479-1.6836 1.67-1.6836zm68.9199.2675 2.6894 7.2012-7.4785 3.082-2.6953-7.5664zm-43.0176.035c-1.3751 0-2.4922 1.1251-2.4922 2.5098 0 1.3846 1.1171 2.5019 2.4922 2.5019 1.3756 0 2.4901-1.1173 2.4902-2.5019 0-1.3847-1.1146-2.5098-2.4902-2.5098zm15.2031.625c-1.3751 0-2.4916 1.1231-2.4922 2.5078 0 1.3846 1.1171 2.5039 2.4922 2.5039 1.3752 0 2.4898-1.1193 2.4903-2.5039.0001-1.3847-1.1151-2.5078-2.4903-2.5078zm-15.2343.2012c.9222 0 1.6724.755 1.6718 1.6836 0 .9285-.7496 1.6757-1.6718 1.6757-.9221.0001-1.6725-.7472-1.6719-1.6757.0001-.9286.7498-1.6836 1.6719-1.6836zm15.2031.625c.9227 0 1.6719.7531 1.6719 1.6816-.0002.9285-.7492 1.6777-1.6719 1.6777-.922 0-1.6701-.7492-1.6699-1.6777 0-.9285.7479-1.6816 1.6699-1.6816zm25.4355.8574c-1.3752 0-2.4921 1.1231-2.4922 2.5078 0 1.3846 1.117 2.5039 2.4922 2.5039 1.3756 0 2.4922-1.1193 2.4922-2.5039.0001-1.3847-1.1166-2.5078-2.4922-2.5078zm41.668.6585c1.2223 3.8552-.9982 8.8918-1.1113 9.2148-1.3585 3.8782-2.993 7.0502-3.5879 7.2344-.5061.1931-.7302.069-.7285-.4082 0-.7322 1.6715-5.7013 2.9843-8.8965.4599-1.1739.8739-2.5849.9983-3.7217-1.1383 2.0462-3.9394 7.5681-4.4651 11.1163-.2725 2.3636-.7182 2.027-1.0449-.7872-.4538-3.9064.3961-5.9131 4.7578-11.3535.6565-.9562 1.5834-1.7573 2.1973-2.3984zm-41.6992.1657c.9223 0 1.6722.7551 1.6719 1.6836-.0002.9285-.7496 1.6777-1.6719 1.6777-.922.0001-1.6706-.7492-1.6699-1.6777 0-.9285.7479-1.6836 1.6699-1.6836zm-52.8223.1289 7.4727 1.9258-1.7364 7.8926-8.4336-2.2559zm39.6387 1.8027 2.164 7.7266-8.8222 1.5176-1.375-7.836zm-36.9375.7793c-1.3754 0-2.4921 1.1232-2.4922 2.5079 0 1.3846 1.117 2.5039 2.4922 2.5039 1.3749 0 2.4902-1.1193 2.4902-2.5039.0001-1.3847-1.1153-2.5079-2.4902-2.5079zm13.1894.5 7.9903.459.072 8.0332-8.6738-.3769zm-13.2207.3262c.9223 0 1.6719.7531 1.6719 1.6817-.0001.9285-.7496 1.6777-1.6719 1.6777-.922 0-1.67-.7492-1.6699-1.6777 0-.9286.7479-1.6817 1.6699-1.6817zm33.5391.711c-1.375 0-2.4901 1.1251-2.4902 2.5097 0 1.3847 1.1152 2.5039 2.4902 2.5039 1.3751 0 2.4921-1.1192 2.4922-2.5039 0-1.3846-1.1171-2.5099-2.4922-2.5097zm-16.5664.6464c-1.3752 0-2.492 1.1232-2.4922 2.5078 0 1.3847 1.117 2.504 2.4922 2.504 1.375 0 2.49-1.1193 2.4902-2.504 0-1.3846-1.1152-2.5078-2.4902-2.5078zm16.5351.1797c.9222 0 1.6719.7551 1.6719 1.6836 0 .9286-.7495 1.6778-1.6719 1.6777-.922.0002-1.6699-.7491-1.6699-1.6777 0-.9285.7479-1.6836 1.6699-1.6836zm-16.5664.6465c.9223 0 1.6719.7531 1.6719 1.6816 0 .9286-.7495 1.6778-1.6719 1.6778-.922 0-1.6718-.7492-1.6718-1.6778 0-.9285.7498-1.6816 1.6718-1.6816zm55.0987.5109c1.9809.2506 7.6693 4.4061 9.1611 6.9574 1.279 2.3274.6175 3.2515-.8555 1.1718-2.032-2.2785-6.6093-5.8496-6.6093-5.8496s.5377.9212 2.9277 3.2676c2.3707 2.3268 4.8711 5.3599 4.8691 5.9004-.0001.3565-.4717.3106-1.1484-.1094-1.9083-1.0812-3.5376-2.5954-5.1035-4.0039-2.1157-1.8674-4.5597-6.0874-4.0935-7.1837.1407-.3309.4746-.1984.8523-.1506zm-112.1045.6082c1.5396-.045 3.2772.9409 3.3476 2.7461.05 1.2754.1357 1.3738 1.2813 1.3946 1.0924.02 4.27.3965 4.27.3965v3.5722s-1.5244-.01-3.2812-.094c-2.991-.1426-2.9774-.1458-3.3575 1.1777-.1537.5351-.3666.7971-.9628 1.1914-2.686 1.7765-5.2765-1.4459-3.6094-4.4902.5722-1.045.6064-1.4009.2109-2.0274-.8035-1.8172.2658-3.7761 2.1016-3.8672zm.6562 1.8282c-.3315 0-.6934.143-1.0254.4746-.4428.442-.4465 1.7021 0 2.4355.4212.7015.4106.8913-.082 1.3535-.8677.8146-.8912 2.4295-.045 3.0372.7716.5542 1.5895-.1784 1.5937-1.2989 0-1.2277.8575-1.2051.8575-1.2051l5.6191.1.018-.9219-4.0762-.2051c-.567 0-1.1598-.057-1.5977-.3555-.4638-.323-.9931-.8824-.4882-1.5644.707-.9552.076-1.8542-.7696-1.8477zm-12.1797 2.1113 2.6661 4.5625 3.1054.1133.2715 2.7773 3.7774 2.4473-3.8692 2.2793-.1914 2.7949-2.9297.3711-2.7226 3.4316-2.6094-3.4277-2.875.018-.041-2.8652-3.9571-2.5645 4.3301-2.4512-.045-3.2734 3.0703-.207zm94.1543 2.0742.1289 2.7559-4.3632.7793.5683-2.8067zm-27.957 2.7774 5.8789.1796-.3379 38.6876s-1.1584-.01-1.3789-.01l-.025-1.5078-1.8808.062-1.9121-1.168zm-66.1973.9804-3.4492 4.3985 4.1778 3.6738 3.6796-4.2988zm67.961.5879v1.7813h2.4648v-1.7813zm-67.8848 1.5235 2.4317 1.791-1.8516 2.4609-2.3418-2.043zm94.2012 1.0117-.076 21.1738c-8.0786 6.384-10.596 17.6215-10.5957 17.6211l-3.2871-.1953 8.3516-37.2988zm-43.791.4687c-7.2696 3.4827-14.5963 6.1204-21.8067 14.4278 2.7918 2.5301 5.7419 5.1091 8.3653 9.4199 6.0029-.9002 12.6824.1815 19.9668 3.0664zm17.4746.4746v1.8438h2.4648v-1.8438zm-84.7383.088c1.8158-.1815 2.6906 1.5502 3.0254 2.5703.1793.5633.2344 1.168.2344 1.168 5.3304-.4502 3.9713 5.7787.5742 5.9922-.3984.052.3299 1.104 1.123 1.4394 2.0189.8543 3.4697.3058 4.793-1.4707 1.0148-1.3625 1.0762-1.5585 1.0762-1.5585l3.291 1.7558s.095-.049-.4863 1.4707c-1.0576 2.765.4848 6.1576 1.6757 3.6856.6346-1.3175 2.5007-2.0684 3.793-1.5235 1.5104.637 2.034 3.3532.9746 5.0645-.3207.5173-.3315.6244-.1347 1.1035.2962.7211.4803 2.5771.1699 3.1758-.4026.7763-.8668.9516-1.7735.3183-1.2416-.8668-1.9361-1.2269-4.0957-1.832-3.7929-.7187-4.5347-2.0628-6.0429-5.2031-4.4923 1.3546-11.2142-1.48-10.3184-8.1953.4075-1.482.5197-4.3283-.2305-4.9102-1.4704-1.1405.1418-2.7866 2.3516-3.0508zm66.5762.625 5.8437 24.6426c-6.414-2.3655-12.7087-4.2123-18.2793-2.8398-2.5511-4.0992-4.7248-6.1158-7.5547-8.7793 5.5135-6.6931 12.5219-10.4386 19.9903-13.0235zm-66.1153 1.209c-.3779 0-.8042.1596-1.25.5567 0 0 .3944.3335.6094.7851.3437.7221.3479.7212-.041 2.3223-1.7817 6.4191 2.4446 10.6654 8.457 8.8105 1.4765-.4599 1.4198-.4083 1.8457 1.3379.7009 2.874 2.7191 4.3571 6.7305 4.9024.2465.033.658.1161.9844.3164 1.7648 1.1335 1.0407-.3752.5586-.961-.3446-.4581-.9727-.914-.9727-.914s.5376-.3501.7891-.4844c1.1322-.6044 1.5532-2.9704.6191-3.4785-.852-.4634-2.3027.2346-2.3066 1.1133-.011 1.6054-2.0189 1.776-3.7793.4414-2.2595-1.713-.2575-6.0292-.2442-6.0235l-1.2734-.5644c.1693.1513-2.6841 4.2315-6.1934 2.8086-2.4508-.9938-4.1777-3.8521-3.041-4.668.8282-.2233 1.8201.2355 2.4492-.252 1.2533-.9899.2431-2.7276-1.5468-2.664-.3758.013-1.2305.1816-1.2305.1816.094-.8089.2993-1.3782.1992-2.1582-.1045-.7807-.6419-1.4007-1.3633-1.4082zm84.3028 1.8731v1.5175l2.4394.018v-1.5176zm-.025 3.1269v1.5645h2.4648v-1.5645zm0 3.3711v1.5996h2.4648v-1.5996zm0 3.1445v1.6914h2.4648v-1.6914zm0 3.1524v1.5801h2.4648v-1.5801zm0 3.2168v1.5957h2.4648v-1.5957zm-80.5193 1.5586 2.4353 3.5312 2.4648.1074.098 2.4258 4.1934 3.2266-3.6661 2.6387-.2656 2.6152-2.9062.096-2.3536 3.9961-2.8964-3.5059-2.3262-.3769-.2676-3.1895-3.582-2.6992 3.3672-2.7109.2715-2.834 2.7421.2441zm136.7966 1.6875c.2243 0 .468.067.7324.2011.8711.4424 1.1471.4945 3.4102.6094 2.625.1333 3.552.3696 4.8535 1.2442.7849.5273.8316.5272 1.6719-.033 3.6857-2.4593 7.895-.2246 8.2012 4.3554.08 1.2042.2004 1.6887.6718 2.6992.3213.7002.6541 1.253.461 1.6993-.5909 1.3639-3.4297 1.4501-4.9766-.5743-.2769-.3055-.5583-.436-.9433-.4375-.7683.2875-2.735-1.2708-2.7129-1.3378-.1825 1.0839-.2743 1.9464-.4668 3.5214l-3.4395-.055s-.075-.6349-.2344-2.8497c-.1832-2.5457-.8128-3.2894-1.6211-1.914-1.3905 2.368-5.085 1.3265-5.2988-1.4922-.073-.9555-.127-1.0787-.6465-1.4805-1.7402-1.3474-1.2337-4.188.3379-4.1562zm-56.2773.1406v1.4141h2.4648v-1.4141zm56.6719 1.5117c-.6799-.085-.2938 1.2689.8359 1.9141.6411.3661.6427.365.5586 1.4883-.1524 2.0341 1.7949 3.0301 2.6601 1.3613.1501-.2889.2149-.6557.1543-.9024-.3628-1.4784 2.814-1.0762 3.5782.4532.1756.3516.3721 1.2867.4668 2.2304.09.8943.1113 1.9297.1113 1.9297h1.0156s-.011-.6167.047-1.207c.2516-2.5272 1.3609-4.125 2.8594-4.1191.6394 0 .6621.1163.2148.9492-.7568 1.4087-.027 2.4294 1.7383 2.4414 1.1198.01 1.1162.01 1.5332.8105.4576.8799.8041 1.1588 1.2305.9961.301-.1149.3062.055-.088-2.9472-.5867-4.4734-3.1711-5.6778-6.7403-3.1426-1.0099.7175-1.2327.6955-2.1289-.1758-1.3427-1.3058-2.1928-1.6045-4.8183-1.7031-1.0732-.07-2.1871-.2469-3.2285-.377zm-84.7071 1.2793c-.5838.01-1.2599.1351-1.8476.1856.6526 3.4572.9555 6.9139 1.2539 10.3711 3.0059-.5258 6.899-.035 12.0351 2.375 3.1521 1.479 7.0023 4.0066 11.0371 6.8593 4.368 3.0883 9.4885 4.9122 13.8496 5.8653 5.3106 1.1606 9.5755 1.0608 9.459.8086-.2348.039-1.9153-8.4812-1.6953-10.3028-7.3461-.6794-14.4392-3.4181-19.8613-7.1289-7.1769-4.9121-15.4734-9.1836-24.2305-9.0332zm28.0352.2891v1.4355h2.4648v-1.4355zm-80.5193.2851-4.2913 4.1075 4.2913 4.0312 3.5583-4.0312zm0 2.0762 1.9001 2.0937-1.9313 2.0958-2.3382-2.1582zm54.5037.1172c.5197 0 1.0289.3718 2.748 1.3418 1.442 1.0017 2.5938 1.6285 2.1738.059.3288-.4524 1.926 1.0184 3.8086 1.9453 2.2697 1.8312 2.2774 1.39 2.5723.4805.3042-.665.7253-.2149 2.5391 1.4765 2.3823 2.2223 2.1681 2.2248 2.6445 1.6719.5429-1.038.7246-1.0267 2.666 1.2188 2.018 2.267 2.4445 2.7515 2.875 1.7812.6643-.5023 1.007-.016 3.7461 2.5742 1.3472 1.3529 1.6651 1.143 1.918.2324.2605-.9382.3348-.726 2.6093 1.0899 2.6337 2.1232 2.8945 2.2782 3.0039 1.543.174-1.1676.9902-.7521 3.7012 1.2089 1.6429 1.1823 2.2629 1.5097 2.6133 1.2168.358-.6369-.8915-1.8613 1.7578-.707l.7285 3.8711-.9179-.2617c-.5632-.1614-1.7976-.5839-1.3321.623.2687.697-.3978.6147-2.4551-.6191-2.9471-1.7674-3.4906-2.1722-3.7109-1.8106-.389 1.3234-.3406 1.4084-2.3281-.1601-2.3131-1.7661-2.7784-2.2548-3.1016-1.6524-.043 1.3334-.6866 1.0627-2.8437-.8105-1.8236-1.6058-2.2127-2.4451-3.0293-1.2168-.2242.4269-.4502.3193-.752.098-1.0604-.7896-3.1917-3.0561-3.7949-3.7071-.4738-.52-.7436-.3516-1.1328.078-.3635.4013-.3913.2767-1.5684-.8105-2.8115-2.5965-3.334-3.2455-3.7265-2.8906-.3206.609-.014 1.436-2.1739-.2793-2.7081-1.9643-3.8845-2.8365-3.7011-1.5489-.4648.5762-.1387.6897-2.8496-.8203-2.5766-1.4351-2.9032-1.866-3.2754-1.373-.2531.7796-1.1173.5005-1.1172.4551l-.5235-3.9395.9278.012s.891-.3668 1.3008-.3672zm-20.6719.3301c-.2066.6089-1.6288 4.122-1.6465 13.0644.1703.2113 3.5223-3.2304 3.6855-6.4375.1548-3.039-2.0322-6.6353-2.039-6.6269zm46.6816.248v1.6309h2.4668v-1.6309zm-46.5058 1.293c3.1338 5.0031-.3198 9.7214-1.1797 10.0547.0001-3.7601.5487-7.2957 1.1797-10.0547zm82.25 4.2031c-5.1523 3.2693-4.3171 12.1161-1.7891 14.3828.1859 0 1.8103-9.5565 1.7891-14.3828zm-.7051 1.0879-1.3867 11.3867c-1.8013-2.0088-2.1207-7.9972 1.3867-11.3867zm32.4902 1.9219 2.7227 3.4492 2.4199.1797.5371 2.4883 3.5332 2.8964-3.5371 2.4141-.3125 2.7578-2.6309.2676-2.6035 4.125-2.5469-4.043-2.4414-.2617-.076-2.6543-3.834-2.8496 3.6601-2.2129.07-3 2.8652.014zm-96.3926 1.0801c-1.7295 8.2803-5.8603 13.946-11.6875 17.7558l.031.8359-9.8164 3.9649c-2.15 10.1013-6.0179 19.9546-14.1231 29.1992l2.2618 4.625-10.9649 3.793 15.6953 27.1055c1.0808 0-7.6049 4.1391-18.0898 3.0605 6.6354 16.3591 8.004 33.2952 4.332 48.1269l51.377-.2167-39.2637-77.586-.6426-1.2637c-.5714-1.0748 20.5856 2.3614 16.3262 23.0372-.064.463.098.5212.3555.33 4.1639-3.6017 31.8157-13.5883 53.8984-.4023l6.5625-2.7363c-3.1226 11.0071-6.6722 18.5789-12.6563 25.2148l1.0137 15.666c10.5884-8.7313 22.0784-24.7603 23.6211-46.0625 4.7682-2.3398 8.9145-4.9965 13.3574-7.5l.5899.1895 2.8769-1.7383c-9.223-10.1597-28.0541-19.8697-40.1211-22.4219l.711 3.4414c-6.6587-1.8002-11.6382-2.1904-16.8184-2.75l-.793-36.4531-6.705-3.9785-.211 40.209c-5.0138.062-16.541 2.0547-16.541 2.0547l.5176-3.4375-5.2793 1.0937-.092-3.3496 5.9668-1.7246 8.6523-36.9375zm.7227.8203 2.7578.5625-8.5664 36.2148s-4.804 1.336-5.0996 1.1504c-.3823-6.7912-.5293-20.6309-.5293-20.6309 8.4538-7.096 9.7788-12.12 11.4375-17.2968zm-58.791 2.6582c1.2909-.016 2.6793.9296 2.7676 1.7812.2211.525.406.7504.7539.7988 2.1609.3008 2.2295.8781 2.291 2.1329-.3044 2.4055 1.2948.3849 1.748-2.0039.047-.2489.021-2.0743.021-2.0743l2.6445-.023s.09 1.906.1289 2.209c.2333 1.8475 1.014 3.3447 1.5567 2.3633 1.8607-3.365 6.123-1.6485 5.4492 1.5957-.1656.7673-.1539.8156.3652 1.3984.8467.9508 1.1606 1.9574.8809 2.834-.2725.856-.8681.9851-2.1484.4687-.6018-.2427-1.3295-.329-3.2793-.3867-2.6547.03-3.6494-.2174-4.6797-1.8418-2.4546 2.1342-5.1441 1.9433-6.9414.8262-1.3391-.6909-2.1197-2.3472-2.3282-4.9297-.039-1.3722-.4216-2.3665-1.2656-2.6953-.4557-.432.052-1.2902.8301-2.0742.357-.258.7747-.3716 1.2051-.377zm154.2363.3925-3.6348 4.5625 4.3223 3.8926 4.0234-4.7656zm-84.1836.6543 5.0332 2.9024.6465 35.9355-5.6914-.1601zm-69.7754 2.1016c.2519.8446.3158 1.3704.2364 1.957-.5343 3.9379 3.9485 5.9387 7.1855 3.209.8606-.9927 1.0019-.9278 1.7227.1348.888 1.1207 2.1805 1.4859 4.8906 1.3223 1.2369-.075 2.057.5888 2.5937.1484.3881-.2833.012-1.0336-.7383-1.4707-.4589-.2674-.4758-.3099-.3847-1.2344.2297-2.331-1.6798-2.9477-3.0352-.9805-1.1194 1.6251-2.8071.5521-3.3515-2.1308-.3236-2.0645-.5825-2.0323-.8262-.2324-.2642 2.1886-3.1264 4.5617-4.2695 3.4843-.3129-.3174-.3089-.2391.012-1.3379.413-1.4102.082-1.9345-1.4453-2.3007-.2502-.06-.5392-.2706-.6368-.4649-.7587-1.1827-.7798-1.5844-1.8615-1.6979-1.1884-.1247-.2987.898-.092 1.5944zm154.3223-.7637 2.3066 2.002-2.0097 2.3906-2.4551-1.9004zm-82.9688 1.2793v1.6582.041h2.1524v-1.6992zm0 3.4219v1.6309.1562h2.1524v-1.7871zm12.9688 2.0547c2.413 9.0229 4.846 18.0385 7.2695 27.0586 2.296-.9236 15.5524-6.8503 21.8047-14.4336-.2378.019-5.6846-5.3421-7.5918-8.8203-6.253 1.0377-13.4353-.2831-21.4824-3.8047zm-12.9688 1.0742v1.6152.055h2.1524v-1.6679zm14.3262.4531c5.6989 1.7114 12.9992 4.073 19.7207 2.8711 1.7336 3.1365 4.2427 5.7165 7.0742 8.0977-5.0867 5.572-12.4426 9.8229-20.0527 13.0957zm54.0899.6504c.2865 0 .5765.1117.8554.3614.9016.8072 1.5987 1.0864 3.4414 1.3886 2.9681.4869 5.2303 2.3533 5.8731 4.8418.2698 1.0453.4182 1.1031 1.8965.7285 5.6008-1.4191 9.9185 3.2573 8.5859 9.4981-.4654 2.1792-.6068 2.4393.043 3.3027 1.4234 1.5453 1.7322 1.5665.1738 2.9278-1.4192 1.2838-4.2367.6626-4.834-1.42-.5715-1.1411-.5629-1.2281-1.5019-1.3789-3.6551-.5867-3.505-5.6765-.062-6.2656.2877-.049.5012.01.6464-.057.9775-.4451-1.0643-2.773-2.7519-2.4161-2.0702.4379-3.1028 1.775-3.918 3.8711l-3.2597-1.873c.818-1.703 1.4177-3.8986.707-5.2559-.5745-1.1446-1.2993-1.1871-1.5215-.092-.5223 2.5776-3.7048 3.3462-5.793 1.2481-1.1671-1.1726-1.3028-2.4306-.4453-4.1289.5554-1.0989.5702-1.1769.334-1.6406-.8208-1.6139.2889-3.6481 1.5313-3.6407zm-68.4161 2.0957v1.7403l2.1582-.01v-1.7305h-2.1523zm68.8164.1446c-.6625.01-.6589.6553-.047 1.4453.5442.5561.651.8118-.1016 1.291-.9436.8805-1.1501 2.2068-.498 3.2168.9783 1.5163 3.2376.6711 2.9785-1.1152-.1817-1.2535.7969-1.8138 2.3535-1.3418 2.2621.686 3.3389 3.2299 2.4492 5.7949-.1677.4835-.5 1.6113-.5 1.6113l.668.4082s.7918-1.2739 1.1015-1.6601c2.5698-3.1809 8.6457-1.5702 7.9688 2.4082-.1045 1.25-.1 1.4189-1.4512 1.0273-.8978-.4657-1.7654.5012-1.7383 1.709.045 1.088.9824 1.9598 2.2813 1.7851 1.03-.1945 1.2889-.1595 1.2148 1.2383.1056.9721.4662 1.6173 1.0977 1.9473 1.5341.6378 2.3218-.2413 1.0957-1.5332-.7429-.7827-.6978-1.9939-.2305-3.1289.5585-1.3569.2686-4.3399-.5879-6.0235-1.2338-2.4247-4.6859-3.4414-7.5761-2.2304-1.3213.7111-1.4673.8759-1.5957-.3711-.7242-3.0927-3.034-5.4295-5.9141-5.6367-1.1074-.08-2.2616-.6887-2.9688-.8418zm-68.8164 3.1601v1.6055h2.1582v-1.6055zm0 3.1387v1.7695h2.1524v-1.7695zm0 3.4531v1.7695s1.1772-.033 2.1524 0v-1.7695zm70.3086 2.8379 2.3575 3.5098 2.6093.1758.3067 2.8339 3.957 2.4825-3.4277 2.164-.027 2.7403-3.2695.2793-2.8906 3.8593-2.461-3.4062-2.4609.014-.5781-3.0411-4.3575-2.2246 4.4688-2.5644-.1231-3.1953 3.0411-.022zm-70.3086.418v1.8183h2.1524v-1.8183zm0 3.3301v1.7968h2.1524v-1.7968zm68.9864 1.3359-3.3789 4.5273 4.5527 3.7891 3.6172-4.5781zm-68.9864 1.8125v1.9668h2.1524v-1.9668zm69.334.2383 2.3477 1.8261-1.6758 2.1426-2.332-1.791zm-69.334 3.3965v1.6464h2.1524v-1.6464zm-64.0742.2109c-4.1502.019-8.0769 6.787-9.0176 9.9922-1.1116 4.106-1.2771 11.5351-.2207 11.7441 3.7203-2.6956 5.4845-7.2648 8.2793-10.6855.434 3.9552.3653 11.584.3653 11.584s-1.6533.8775-2.545 2.2617c-.6438 1.1514-.8493 2.5273-.3007 3.8086-2.0683-.6763-5.8164.086-6.0293 3.9316.1346 5.4151 6.0073 4.6538 6.0293 4.5801-.1247-.034-1.1561 5.7587 4.0547 6.373 1.8702.2205 5.1583-1.1509 4.1816-6.4199 3.2896.5465 6.1263-1.2773 6.1621-4.4648.042-2.1835-1.6049-4.0611-4.4434-4.0723-.5916 0-1.8418.2676-1.8418.2676.039-.3149 1.1379-3.705-2.6796-6.1641l-.5997-15.6758s1.3169 1.4459 1.9063 1.9922c2.537 2.3515 4.1921 3.5362 7.1191 5.0899 2.8491 1.5124 2.4989 1.1395 2.0059-1.7344-1.3461-4.3161-4.1619-7.5767-10.1152-11.6543-.7664-.5249-1.5418-.7574-2.3106-.7539zm.4102.3359.8359 22.17h-1.2363l-1.0606-22.1485zm122.1406.7325c.1098 0 .2236 0 .3398.012 2.6856.2277 3.375 3.2529 2.168 4.5957-.4772.5309-.6419.6436-.3945.9687 1.1527 1.4703.509 3.7934-.6309 4.1504-3.6238 1.1348-4.1731-.8617-4.1621-3.2109l-5.5976-.211.035-3.2832 6.1719.125c-.4653-1.4911.4254-3.0814 2.0703-3.1445zm-124.6684.035c.5813-.033-.019 1.6111-1.6367 3.9902-2.855 4.1993-4.141 7.9742-4.1567 11.9847 1.2992-4.0699 2.3024-7.3839 5.7622-12.3499.5392-.4875.6785-.1886.666 1.4395-.028 3.6671-1.7536 7.5263-5.8691 12.0429-.6861.7529-1.6008 1.5745-1.6661 1.5743-.3964 0-.3856-.8323-.3789-2.5762.027-6.9278 2.6071-13.0732 6.5098-15.7735.2528-.1749.5085-.3173.7695-.332zm4.1.3203c1.8055.5322 5.0475 3.4517 6.3829 4.9512 1.5468 1.6812 3.6203 6.3352 3.2558 7.0508-.1211.314-.3828.2644-1.2871-.2481-5.7454-3.2565-9.8596-7.2703-8.7812-8.5683.3011-.3627 1.5348.3843 3.1875 1.9297 1.1234 1.0038 2.2753 2.0223 3.3027 3.041 1.6144 1.6007 1.977 1.8374 1.0039.059-.8739-1.5977-3.3502-4.2783-6.3457-6.5547-1.2177-.9255-1.4956-1.6728-.7188-1.6582zm120.9219.9356c-.077 0-.1455.012-.1992.035-1.1305.4793-.6704 1.9559-.7793 3.0879l-6.2129-.2168-.035.8672 5.8281.3184c.1024.885-.3556 2.7965.3945 3.1191 1.6308.6833 2.5208-1.4338 1.1367-2.7051-.4932-.441-1.0268-.6367.3438-1.2597.903-.7771 1.0434-2.2949.2715-2.9688-.2136-.1865-.518-.2803-.7481-.2773zm-78.6015.2578-.3125 2.3164-3.6036.914-.092-2.4765zm42.5.8203c13.3037 3.6085 28.0934 11.8013 37.6972 21.0547l-1.9238 1.2695c-9.9788-9.2811-23.1404-16.327-35.2344-19.8262zm-22.9239.3555c21.9075-.061 41.8801 8.5165 57.9961 22.3672l-2.6347 1.6718c-14.7005-12.2365-30.9876-20.3963-52.9004-21.3691-14.3225-.6359-30.668 3.0612-46.7754 11.9844l-1.1992-2.1934c15.6447-8.5899 31.0035-12.4206 45.5136-12.4609zm-1.7226 3.3242 8.6172.2539-.5332 8.0566-7.8321-.2578zm-9.2676.5742 1.2148 7.7734-7.498 1.4082-2.127-7.7929zm27.2754 1.0273 8.5605 2.2969-2.8242 7.9219-7.5137-2.1563zm-13.711.1133c-1.3592 0-2.4608 1.1082-2.4609 2.4766 0 1.3684 1.1017 2.4785 2.4609 2.4785 1.3589.0001 2.4606-1.1101 2.461-2.4785.0001-1.3684-1.102-2.4765-2.461-2.4766zm0 .8555c.9062 0 1.6408.7241 1.6407 1.6211 0 .8971-.7345 1.6269-1.6407 1.6269-.9063 0-1.6409-.7298-1.6406-1.6269.0001-.897.7344-1.6212 1.6406-1.6211zm-16.998.018c-1.3589 0-2.4608 1.1102-2.4609 2.4785 0 1.3684 1.102 2.4766 2.4609 2.4766s2.4609-1.1082 2.4609-2.4766c.0001-1.3683-1.102-2.4785-2.4609-2.4785zm0 .8574c.906 0 1.6407.7241 1.6406 1.6211 0 .8971-.7346 1.6251-1.6406 1.625-.9059 0-1.6406-.7279-1.6406-1.625.0001-.897.7347-1.6211 1.6406-1.6211zm33.8887.9961c-1.359 0-2.4605 1.1101-2.461 2.4785 0 1.3684 1.102 2.4766 2.461 2.4766 1.3591.0001 2.459-1.1082 2.459-2.4766s-1.0998-2.4784-2.459-2.4785zm-47.7032.289 2.5372 7.5821-7.2637 2.9629-2.7227-7.4883zm47.7032.5684c.9063 0 1.6391.724 1.6386 1.6211 0 .8971-.7323 1.6249-1.6386 1.625-.9061 0-1.6405-.7279-1.6407-1.625 0-.8971.7349-1.6212 1.6407-1.6211zm14.2285 1.8164 7.7051 4.0996-3.9844 7.2461-7.1797-3.7676zm-64.5059.6563c-1.359 0-2.459 1.1081-2.459 2.4765 0 1.3683 1.1 2.4785 2.459 2.4785 1.3588 0 2.461-1.1102 2.461-2.4785 0-1.3684-1.1022-2.4765-2.461-2.4765zm29.1055.2363.3594 7.6562-6.8223.4844-1.2402-7.6074zm8.1875.4023 7.7754 1.084-1.8301 7.3711-7.0371-1.1406zm-37.293.2168c.9059 0 1.6406.724 1.6407 1.6211 0 .897-.7348 1.6271-1.6407 1.627-.9059 0-1.6386-.73-1.6386-1.627 0-.8971.7327-1.6211 1.6386-1.6211zm25.4766.9922c-1.359 0-2.461 1.1083-2.4609 2.4766 0 1.3684 1.1019 2.4785 2.4609 2.4785 1.3588 0 2.4609-1.1101 2.4609-2.4785 0-1.3683-1.1021-2.4766-2.4609-2.4766zm-12.4258.3086 2.0156 7.4492-7.5 2.1621-2.3007-7.164zm27.2246.1192c-1.359-.0001-2.4608 1.1101-2.4609 2.4785 0 1.3684 1.1019 2.4764 2.4609 2.4765 1.3589 0 2.461-1.1081 2.461-2.4765.0001-1.3684-1.1021-2.4785-2.461-2.4785zm-14.7988.4296c.9059 0 1.6406.7222 1.6406 1.6192 0 .8971-.7347 1.6269-1.6406 1.6269-.9059-.0001-1.6406-.7298-1.6406-1.6269 0-.897.7347-1.6192 1.6406-1.6192zm14.7988.4278c.906.0001 1.6407.724 1.6406 1.6211 0 .8971-.7346 1.625-1.6406 1.625-.9059 0-1.6406-.7279-1.6406-1.625.0001-.8971.7347-1.6211 1.6406-1.6211zm26.3164.016c-1.359 0-2.459 1.1083-2.459 2.4766-.0001 1.3684 1.1 2.4785 2.459 2.4785 1.3588 0 2.4609-1.1101 2.461-2.4785 0-1.3683-1.1022-2.4766-2.461-2.4766zm-13.3125.7227 7.5156 2.5859-2.998 7.0723-7.1934-2.7578zm13.3125.1347c.906 0 1.6406.7222 1.6406 1.6192-.0001.897-.7346 1.6269-1.6406 1.6269-.906-.0001-1.6407-.7299-1.6406-1.6269 0-.897.7346-1.6192 1.6406-1.6192zm-56.5293.2617c-1.3589 0-2.4584 1.1103-2.459 2.4786-.0001 1.3684 1.1001 2.4765 2.459 2.4765 1.3592.0001 2.4609-1.1081 2.461-2.4765 0-1.3683-1.1016-2.4785-2.461-2.4786zm0 .8575c.9065 0 1.6412.7241 1.6406 1.6211 0 .8971-.7341 1.625-1.6406 1.625-.906 0-1.6405-.7279-1.6406-1.625 0-.897.7347-1.6212 1.6406-1.6211zm45.5293 1.4453c-1.359-.0001-2.4608 1.1101-2.4609 2.4785 0 1.3684 1.1019 2.4765 2.4609 2.4766 1.359 0 2.461-1.1082 2.461-2.4766.0001-1.3684-1.102-2.4785-2.461-2.4785zm0 .8574c.906.0001 1.6408.724 1.6406 1.6211 0 .8971-.7346 1.625-1.6406 1.625s-1.6406-.7279-1.6406-1.625c.0001-.8971.7346-1.6211 1.6406-1.6211zm-88.0234.8613c1.9663.084 3.4421 1.8625 3.5312 3.7129.068 1.4066-1.7129 3.2481-1.7129 3.2481l-2.0742-1.9336-1.9922 1.8476c-.336.1127-1.8828-2.5362-1.4101-3.9062.6156-1.7843 1.8819-3.0444 3.6582-2.9688zm111.7265 0 5.9512 4.9043s-2.612 1.5979-3.0957 1.8828c.059-.2132.086-.4377.086-.6699 0-1.3684-1.1002-2.4783-2.459-2.4785-1.3592.0001-2.461 1.1101-2.461 2.4785-.0001 1.1734.8146 2.1596 1.9024 2.416-.6118.3537-1.4258.8106-1.4258.8106l-3.1426-2.6543zm-47.3535.2364c11.9811.1708 24.8246 3.7508 37.9317 12.8691l-2.6328 1.0879c-16.2053-10.7184-38.3745-16.5843-63.7168-5.791l-.8731-2.1153c8.8189-3.6979 18.7195-6.2014 29.291-6.0507zm36.4903 2.1582 6.3769 3.9394-4.0488 6.2617-6.2285-4.0117zm-38.1094 1.1679c12.8057.016 25.3626 3.9525 36.1836 10.9727l-2.6758 1.0117c-19.7811-12.7979-40.8651-12.115-59.7031-4.4434l-.291-1.7988c9.0114-3.9287 17.7245-5.753 26.4863-5.7422zm49.4551.9336c.9059 0 1.6386.724 1.6386 1.6211-.0001.8971-.7327 1.625-1.6386 1.625-.9061 0-1.6408-.7279-1.6407-1.625 0-.8971.7346-1.6212 1.6407-1.6211zm-118.1075 1.1797c1.0833-.01 2.1965.5227 3.0118 1.7559l-2.1993 2.2343 2.0079 2.2715s-.638.5437-1.0996.7969c-2.6324 1.4427-5.5126-.8359-5.375-3.2969.1251-2.2409 1.8488-3.7487 3.6542-3.7617zm107.6797.043c-1.3589 0-2.4608 1.1102-2.4609 2.4785 0 1.3684 1.102 2.4766 2.4609 2.4766 1.359 0 2.461-1.1082 2.461-2.4766.0001-1.3683-1.102-2.4785-2.461-2.4785zm-95.7636.1015c1.9578.015 3.478 1.5286 3.666 3.2696.1498 1.3888-.5675 2.722-2.1133 3.666-2.0973 1.2809-4.5344-.7922-4.4922-.9199l1.7676-1.7598-2.125-2.1914c-.062-.041 1.403-2.0791 3.2969-2.0645zm-6.125.4258 3.625 3.6387-3.836 3.5977-3.5508-3.5918zm95.5742 9.6836-2.0352.9395-2.7734-1.6836-.8203 1.5859 1.5429.9844-1.6035.6055c-18.4819-10.4555-39.3662-7.425-53.248-.4864 0 0 .1216-1.0762.1289-1.0761l1.5098-.7774-.5625-1.9238-.8106.2363-.062-2.1308c8.6717-3.9318 17.1671-5.7498 27.4089-5.6452s22.0874 3.3779 31.325 9.3717zm6.3144-9.3538c.9062 0 1.6408.7241 1.6407 1.6211 0 .8971-.7345 1.625-1.6407 1.625-.9059-.0001-1.6406-.7279-1.6406-1.625.0001-.897.7347-1.6211 1.6406-1.6211zm-101.9648 1.3008-1.9336 1.9355 1.9219 2.0645 1.8769-1.9981zm60.4961.4277-2.5313.1152.1328 2.0801 2.4707-.062zm1.7285.012.045 2.0801 2.2969-.012-.012-2.0527zm4.0742.035-.1133 2.0703 2.2813.1035.1641-2.0586zm-9.8418.2637-2.5937.2851.2871 2.0899 2.4551-.2891zm14.0918.031-.1855 2.1367 2.3437.2696.3164-2.045zm-70.539.01 1.1269 1.209-1.1211 1.125-1.1953-1.1778zm52.0742.6367-2.5.3965.2656 2.1523 2.4395-.4843zm22.6933 0-.416 1.9922 2.3281.5625.3789-2.0352zm-74.7734.1934c-.2076 0-.3757.162-.375.3613.0003.1986.1681.3594.375.3594s.3747-.1608.375-.3594c.0007-.1993-.1674-.3613-.375-.3613zm47.9805.6777-2.1016.5625.4551 2.0957 2.2207-.5469zm30.7851.082-.4394 2.0235 2.373.6503.4766-1.9394zm-34.2558 1.0078-2.1993.7832.5684 1.9414 2.2363-.7578zm38.3418.2207-.7325 1.9473 2.0547.8301.9082-1.7656zm-80.3516 1.045c2.1896 1.949 2.1552 6.51-1.7207 7.2714-3.3853.665-6.4813-4.4389-2.9004-7.1152l2.1113 2.1231zm38.3809.096-2.086.8632.8594 1.9258 1.9805-.9101zm45.7382.4707-.8047 1.7851 2.2715 1.0078.7832-1.7187zm-64.7714 11.4589 28.6543 49.0411-4.5313-.088-27.7324-47.3887zm-4.7032 1.8672 1.584 2.4805c-3.1031-2.4876-7.6633-.3949-7.4707 2.7402.1518 1.4 1.3268 2.2505 1.332.9024-.141-1.4088 1.8425-2.6364 3.2813-2.5703 2.6557.035 4.2779 3.4704 2.4453 5.1816-1.2055 1.1178-2.8371 1.0675-2.2871-.4648.086-.5286.044-.7213-.2051-.9492-.7619-.7001-2.1666.2115-1.8242 1.2128.2251.6581.2911.8209-.4922 1.3633-3.0381 2.1486-.9211 6.3841 2.7578 4.4551.7524-.2729 1.0568-.314 1.3985-.1816 1.531.593 2.5745-.7444 1.123-1.4395-.8433-.404-.864-1.0951-.051-1.6426 1.737-1.1685 4.4427.658 4.4336 2.9942-.011 1.6532-2.1736 2.8767-4.25 2.3965-1.2342-.2853-1.381.5562-.25 1.4296 2.1917 1.6924 5.4731.288 6.4531-2.7578.3082-.9581.2637-1.1582.2637-1.1582l2.9238 4.8614s-.9071-.4313-1.455-.5997c-2.7527-.8459-5.8382.9511-5.8477 3.4063 0 1.157.6738 1.6054 1.0547.6973.8863-2.1127 2.8141-2.9357 4.793-2.045 1.8305.8236 2.6683 2.6921 1.9531 4.3575-.7489 1.7439-3.2616 2.258-2.9785.6093.1357-.7857-.3393-1.2659-1.1778-1.1875-.3173.03-.7247.9582-.6152 1.4043.1024.4174.028.5173-1.0469 1.3614-2.554 2.0055-.5888 5.2805 2.5996 4.332.5359-.1594.7355-.1465 1.2149.086 1.1533.5593 2.3632.2128 2.3672-.6797 0-.6134-.2726-.8487-.9942-.8515-1.093 0-.8568-1.2504.3535-1.8594 3.0342-1.5264 6.1327 2.328 4.2852 5.332-.7937 1.2906-1.2946 1.4234-4.1309 1.1094-.4574-.051-.6647.2658-.3925.6406.839 1.1978 3.3369 1.5771 4.791.9141 1.5693-.7154 2.5241-2.5218 2.6347-4.4473l3.2071 5.6387c-2.4939-2.6252-6.7973-1.6229-7.4883 2.1367 0 .9532.861 1.4494 1.1602.666 1.2967-3.3933 6.2251-2.3514 6.2109 1.3125 0 .5897-.1175.9229-.4922 1.4395-.9051 1.7573-3.216 2.1902-2.7969.6133.1864-.4879-.1842-1.0164-.8203-1.1699-.6262-.1513-1.0253.3761-1.0098 1.3359.012.7188.016.9375.016.9375-1.1534.49-1.8881 1.4487-2.1446 2.8672l-22.4453.051c2.6691-15.6649 2.0417-29.8103-3.0605-43.1875-.4405-1.1602-1.0742-2.8477-1.0742-2.8477l3.9609.1055c.9557.8343 4.5676.5106 5.9785-.7793zm3.8106 6.1524 2.3183 4.1933c-.9594-.5535-1.9365-.9216-3.4297-1.0488.7792-1.164.8416-2.2068 1.1114-3.1445zm-6.0938 4.457c.8446 0 1.5274.6867 1.5274 1.5371s-.6828 1.5391-1.5274 1.5391c-.8445 0-1.5332-.6887-1.5332-1.5391s.6887-1.5371 1.5332-1.5371zm15.9824 12.5254 2.2325 4.002c-1.0861-.4659-2.0037-.9222-3.7012-.9668.6175-.7267 1.1518-1.9453 1.4687-3.0352zm-6.4375 4.2852c.8008 0 1.4493.6546 1.4493 1.4609 0 .8064-.6485 1.4551-1.4493 1.4551-.8007 0-1.4472-.6487-1.4472-1.4551 0-.8063.6465-1.4609 1.4472-1.4609zm16.1758 12.4726 3.295 5.8887c-1.2964-.7476-2.6923-1.6957-4.4434-1.5137.8332-1.7929 1.2891-2.7709 1.1484-4.375zm-6.1816 5.3203c.914-.083 1.8115.7367 1.7949 2.0254l-3.5351.012c.3092-1.3618 1.0293-1.9724 1.7402-2.0371zm5.1406.5254c1.202.062 2.239.4759 2.8887 1.5313l-4.4473.012s.029-1.5491 1.5586-1.543z" stroke-width="1.06667" transform="matrix(.937503 0 0 .937498 4.97386 -2181.09)"/><path d="m3429.5901-655.12512s-4.6455-7.63092-10.912-16.60293c-4.1922-6.00403-7.5438-12.50517-7.8554-18.105-.3574-6.39677 3.0256-12.81428 9.1504-13.12528 6.121-.3109 8.6056 4.93217 9.617 9.2549 1.0114-4.32273 3.496-9.5658 9.6171-9.2549 6.1247.311 9.5077 6.72851 9.1503 13.12528-.3116 5.59983-3.6631 12.10097-7.8554 18.105-6.2665 8.97201-10.912 16.60293-10.912 16.60293z" fill="#c8102e"/><path d="m3532.6609-505.18493s-4.6455 7.63098-10.912 16.60298c-4.1922 6.004-7.5438 12.5052-7.8554 18.105-.3574 6.39677 3.0256 12.81425 9.1504 13.12528 6.121.31085 8.6056-4.93221 9.617-9.25491 1.0114 4.3227 3.496 9.56576 9.6171 9.25491 6.1247-.31103 9.5077-6.72851 9.1503-13.12528-.3116-5.5998-3.6631-12.101-7.8553-18.105-6.2666-8.972-10.9121-16.60298-10.9121-16.60298z" fill="#c8102e"/></g></svg>