<svg height="88.000046mm" viewBox="0 0 238.11073 332.5986" width="63.00013mm" xmlns="http://www.w3.org/2000/svg"><g transform="matrix(1.07145 0 0 1.07009 -3327.6925 787.11736)"><rect fill="#fff" height="310.81366" rx="10.62995" ry="10.629899" width="222.23224" x="3105.7842" y="-735.56183"/><g fill="#c8102e"><path d="m3122.9247-665.8124s-2.2148-3.17958-5.2024-6.9179c-1.9987-2.50166-3.5966-5.2105-3.7452-7.54374-.1703-2.66533 1.4425-5.33928 4.3625-5.46888 2.9184-.12952 4.1029 2.05508 4.5851 3.85621.4822-1.80113 1.6668-3.98573 4.585-3.85621 2.9201.1296 4.533 2.80355 4.3626 5.46888-.1485 2.33324-1.7465 5.04208-3.7451 7.54374-2.9877 3.73832-5.2025 6.9179-5.2025 6.9179z"/><path d="m3310.8767-494.4975s-2.2147 3.17958-5.2023 6.91791c-1.9988 2.50166-3.5966 5.2105-3.7453 7.54374-.1703 2.66533 1.4426 5.33927 4.3626 5.46888 2.9183.12951 4.1028-2.05509 4.585-3.85622.4823 1.80113 1.6669 3.98573 4.5851 3.85622 2.92-.12961 4.533-2.80355 4.3625-5.46888-.1485-2.33324-1.7464-5.04208-3.7451-7.54374-2.9877-3.73833-5.2025-6.91791-5.2025-6.91791z"/><path d="m3122.817-721.76843v3.44315h3.3394s.081 3.31925.11 10.35956c.026 6.83676.1652 10.22778-.2701 12.17513-1.1698 4.4874-7.6643 4.51222-8.9545 1.28568-.75-1.87688-.5504-3.3361-.5849-5.22613h-3.5903s.021.95154.026 2.11581c.021 5.046 1.6896 7.45936 5.5947 8.41081 4.0152 1.08601 8.71-.57037 10.3791-4.00565.9945-1.95792.8806-2.09229.9049-13.9307.015-7.89785.1344-11.18451.1344-11.18451h3.0745v-3.44315h-10.1628z"/><path d="m3310.9831-438.54153v-3.44325h-3.3395s-.081-3.31915-.11-10.35956c-.026-6.83676-.1651-10.22768.2701-12.17503 1.1699-4.4874 7.6643-4.51222 8.9545-1.28567.75 1.87687.5504 3.33609.5849 5.22612h3.5904s-.021-.95154-.026-2.11581c-.021-5.046-1.6896-7.45936-5.5947-8.41081-4.0152-1.08601-8.71.57037-10.3791 4.00565-.9945 1.95792-.8806 2.09229-.9049 13.9307-.015 7.89785-.1344 11.18441-.1344 11.18441h-3.0745v3.44325h10.1629z"/></g><g transform="matrix(.15427454544 .00091316959 -.00091040537 .1547429623 3160.58577533774 -621.8906510096)"><path d="m2152.5-307.07479-74.2812 48.41854-1.0313 56.46875c-44.05-21.13838-63.1968-55.75515-70.1312-96.31098-12.4613 15.71611-13.6543 95.63011-13.6543 95.63011-11.3198 5.87434-11.7937 12.97241-19.027 19.86837 7.1076 11.73264 27.2188 31.70525 27.2188 31.70525-.1414-.3535-9.2208 82.612998 1.7618 85.916404 10.0418-35.358964 23.4048-66.213004 72.6132-98.559154 0 0 .745 131.7159-2.4063 258.96875-20.8189-14.329074-64.8392-40.070723-93.2813-66.40625 36.8792-47.559265-.7201-109.550925-55.75-68.375-46.5592-54.97166-39.0999-139.13626-59.9681-195.92215 0 0-117.5314-32.50522-168.0006-29.8591 42.3886 110.45632 34.162 245.065085-153.4375 270.28125-89.8856 41.104233-193.7327 86.924364-294.6572 172.52237-18.5943 127.45185-84.3307 190.2041-130.749 224.91513.3336 51.64879-.3448 102.77568 1.7808 154.90625-.045.31636 42.3679-27.84141 49.0312-22.65625 35.4395 230.35262 165.2291 276.02371 152.25 282.40625-2.0916 1.02861-42.5312 42.59375-42.5312 42.59375l-158.4062-104.34375c-5.4292 159.26848-2.2827 321.67845 0 481.21875 27.9679-15.8091 79.375-53.625 79.375-53.625l.7812-54.1875c-.2376-5.1489 72.0348 45.1402 72.2089 105.0466 5.6272 3.8273 17.9574-86.2066 6.7286-95.9528l29.625-30.5626-31.9063-30.7187s8.0977-50.9842-8.4393-80.35387c-10.716 67.23297-66.5294 88.19757-66.5294 88.19757s-1.0866-245.75364-2.5313-245.9687l99.5626 63.03125c-53.9163 73.42763 40.9845 97.26088 52.0937 61.53125 61.2295 57.0584 37.6585 125.2736 64.4375 206.2188l173.75 31.875c-71.6069-132.852 6.0962-284.22879 146.7188-273.4063 26.3413-10.97257 50.1874-26.8125 50.1874-26.8125s-17.485-28.57713-39.5624-55.09375l-300.9684-4.96875 140.2996-263.04902-92.2763-2.96935c64.0746-110.76113 68.4776-107.88677 48.6701-226.36552l89.2297 1.79157c3.2612-36.70968-39.8622-176.58708-100.7043-268.06393l338.2812 3.03125-190.4375 265.59375 102.2813 2.9375c-61.2929 110.29198-72.758 107.91426-51.25 223.15625l-90.75 1.79522c15.6454 135.56319 116.3486 279.53033 151.75 323.64228 58.5232-13.87234 167.7937-97.49592 235.5995-149.48909 8.7879-90.97078 40.1111-168.41236 122.0021-226.18309l.2502-149.75968s-46.7393 30.17334-46.7268 28.08811c.1905-32.41469-16.7075-99.8876-47.875-160.03125-33.4441-64.53678-88.3463-122.99011-100.9753-126.65089 29.0413-43.937155 41.4328-47.873736 41.0175-48.570304l158.1765 101.439944zm-800.3793 322.027418c-59.9882 15.33894-141.3527 1.363841-158.2769 54.266122-3.9477 11.961484 4.7027 16.369176 11.0624 19.5 36.1144-44.83594 128.9837 17.09066 147.2145-73.766122zm-199.8748 179.898412c-13.9582 1.77328-9.2449 30.53327-4.5991 34.05799 9.7129-2.14126 12.5005-35.0618 4.5991-34.05799zm509.0979 240.08646-46.7813.21875-.2813 54.90625 47.0866-.0287zm459.5312 273.34375c-1.0272 5.45533-5.2676 29.0468 6.1495 24.78165 13.4721-10.37188 1.1964-57.1228-6.1495-24.78165zm-44.0368 137.83823c-5.5246-8.05049-22.615 11.96136-36.6391 12.71171-62.3278 3.33483-108.2463-5.00386-116.0116 60.20006 35.9446-22.94712 86.3066-12.48597 118.75-19.90625 23.4544-7.78394 50.3596-29.02153 33.9007-53.00552z" fill="#ffcd00" transform="matrix(.99998259 -.0059011 .0059011 .99998259 -1273.462717 -185.546131)"/><path d="m1423.1406 97.539062v280.699218h174.1524v-280.699218zm51.043 2.283204 87.7168.283204c-2.6731 7.64836-9.7327 12.85863-13.3965 20.43359-.8519 1.19619-.8106 2.12377-.416 3.40821.7388 2.40471 1.6307 6.39925 1.9726 8.83593.5665 5.35854 1.1246 12.0392 4.0411 17.9336.3936 1.36256 3.0243 4.62517 3.6543 4.6289 3.8283-5.36668 13.7424-2.09253 10.8847 7.17578-1.108 3.59372-2.9244 3.55174-2.1386 4.22852l15.7695 10.78906s.4536-42.46009.033-42.44726c-8.2514 4.93583-8.5975 7.81392-12.0137 15.63476-2.1423-2.9458.3198-10.17077-.062-14.05468l-4.7597-5.22266c-.021-.014 3.7304-4.11133 3.7304-4.11133s1.2697-15.37164 1.6563-15.16016c.7523 5.3794 5.8947 14.00399 11.83 15.92969l.1368-9.43359 12.5664-8.05664-.461 77.91601-1.2422 1.33203v3.3711s-9.3435-6.10435-9.5644-6.53906c-.1029-.99892-2.6062-3.0275-3.2715-2.00977l-2.8105-2.03125c.416-.10972-2.8949-4.7905-3.3575-3.33984-.098.30608.01 1.30273.01 1.30273l-2.7442-2.04687s-.2678-.63845-.3574-.89844c-.2347-.68094-.7877-1.39959-1.2168-1.96094-1.0321-1.2257-2.037-1.2905-1.3262.55859l-1.6758-1.09179-1.0019 1.26562 3.1289 2.00196v2.33593l-3.8711-2.86132c-1.0543.004-1.1745.14766-.959 1.08203l4.8301 3.0332v2.55859c-2.0026-1.26412-6.0156-3.91992-6.0156-3.91992l-.4922.67578c11.9933 10.55293 21.8872 28.59883 23.7793 46.95117 3.005-1.49613 7.6898-5.95926 7.1699-3.28125 0 .63662.7949 1.30274.7949 1.30274l.8047 40.00195c-7.9337 7.15825-12.3494 12.84117-21.6074 19.84571-12.5122 10.01399-30.2755 20.5298-47.1817 28.23046-4.815.28331-9.0862-1.03856-17.5664 5.09766-9.5735 6.0276-12.5491 16.64078-10.8652 28.18164.8693 4.17311 2.4711 10.01345 3.1055 10.73633.1846.21039.6194-.1918.6855-.19141.066.00039-.1269-.29101-.1269-.29101-.8845-1.94781-4.5009-11.49288-3.5664-18.63282.3398-2.47781.4176-6.03436 3.1601-6.82226 1.0758-.30905 1.9833.13533 2.5059.88672 1.0297 1.32858.3396 2.89652-.3028 4.21484 3.5301-1.48216 1.6665-8.16886-3.3398-6.55078 0 0 .2343-.6741.418-.97656 2.5123-5.33897 9.137-12.52437 17.3945-14.5918 2.7139-.67947 5.8817-.92884 8.7969-.33008 1.4572.29932 1.4246.92945 1.334 3.08203-.091 2.16882.7124 2.66109 1.58 3.61914 1.7789 1.96415-3.2704 2.62247-6.1152.92579-.6865-.40944-1.0937-.58399-1.0937-.58399s.2074.50644.7207 1.49024c.8075 1.54784 1.4007 2.85662 2.0898 2.51562.9045-.6419.1891-1.12782 2.6621-.3457.8577.23847 2.135.54668 2.6602.65429 1.1344.23248 1.1003.58766.8203 1.47657-.7684 2.44257-.1165 3.13747 3.5469 5.27734 3.091 1.63831 2.8314 1.68107.5683 6.72656-1.183 2.63356-2.4943 5.7437-3.7734 8.61328-.5158 1.16496-.3414 1.83384.4199 3.10743.7392 1.23655 1.2724 5.06077 1.0859 5.35937 4.4342 5.59976 8.08 12.33375 12.7481 19.14453l-87.4883-.51758s8.9265-13.47257 13.4922-19.7539c.848-.73073.9584-1.69008.6269-2.65235-.081-.23557-2.6438-17.7742-2.6777-17.81836-1.0136-5.18718-2.3327-11.02436-7.2773-14.5957-1.8802 2.13038-6.6297 3.43285-9.2227.67188-.8177-.87069-1.6718-2.0192-1.8301-3.83594-.3481-2.46504.5477-5.61706.7598-5.94531.3416-.52862 1.1184-1.00726 1.1055-1.38282-.025-.73804-1.3752-1.38841-3.3125-2.42578-4.1222-2.27348-12.2051-7.87109-12.2051-7.87109s-.2721 29.29595-.033 40.94922c7.8652-3.31798 11.5176-14.35352 11.5176-14.35352 1.9977 2.50565.5077 10.10164.6425 12.65235 1.7201 2.0924 3.3176 2.72525 4.9512 4.98047-.8725 2.1489-2.5625 3.53404-4.2988 4.95898.8703 4.4992 1.2118 9.36154-.7266 14.42969-2.9947-8.9035-5.281-11.78605-12.0722-16.02539.2494 3.44318-.3064 6.14043-.053 9.16211l-13.2168 9.17187-1.0996-80.74414 27.1113 18.60352.3731-.70704-25.9883-18.20117v-2.74609l2.5254 1.56836s.2519 1.9173.9687 2.38672c.6226.40765 2.4629.0269 2.2305-.0605l4.2149 2.875c-.5278 1.05882 2.8117 5.48212 3.3769 2.3418l3.2852 2.09179c.3868.93969.2853 2.52508 2.1406 3.46875.6994.25107 1.5828.11056 1.2324-.89257l2.4688 1.46679c.4533 1.6946 2.9641 5.09328 3.4179 3.55469.053-.17928-.072-1.19141-.072-1.19141l1.7382 1.26368s1.7539-.41657.961-1.21289l-2.9336-1.875.029-2.08594 3.7891 2.62695s.9086-.68626.7871-1.17773l-4.5918-3.16602.1-2.04687c1.8826.99241 3.8228 2.28 5.7656 3.57421.01.005.3227-.60844.3301-.60351-13.6413-11.12436-21.8777-29.72593-24.4024-45.78906-2.2042 1.28886-5.9255 3.52919-8.2187 3.88671l.031-43.00781c7.6243-8.28643 15.294-14.73549 24.9493-21.91015 13.4554-10.90079 28.498-18.20656 40.7382-24.06641 2.1205-.69894 4.1126-1.80142 6.3223-1.98047 3.2286-.15116 3.9798-.13683 9.459-2.43164 14.3053-6.99483 23.6552-17.71308 13.4746-42.08789.4329 1.64376 2.8255 8.26823 3.3926 14.18945.4682 4.88915-.4834 9.221-1.2676 10.38672-1.8027 2.21949-4.421 1.97596-4.3438-1.1582.022-.88693.7051-2.43945.7051-2.43945-2.5372-.27645-4.1617 8.48633 2.9571 6.05468-3.2384 8.62-16.9764 16.29567-23.1407 16.75586-3.2093.48597-4.7377-.35128-4.8476-2.71093-.062-1.31926-.7798-3.97401-1.4942-4.77149-1.7352-1.93707 2.9802-2.69796 5.8008-.91601.9158.57856 1.1502.44109.6504-.38086-.1898-.31223-.8021-1.15009-.8242-1.55664-.052-.95398-.083-1.26843-1.3809-.8418-.7709.25343-1.2172-.1263-1.8164-.39844-.5275-.23957-1.4611-.45168-2.6328-.55273-2.1912-.18898-2.0815.52716-1.6914-1.78711.3901-2.31428-.092-2.68656-2.7461-4.39063-4.2975-2.62925-4.0675-1.88409.2402-10.3789 2.9383-5.79435 3.0679-6.37504 1.9102-9.1875-.942-2.28851-1.7682-4.41677.6582-4.73047-5.0644-1.64968-9.8854-14.48208-15.4414-19.082034zm-48.5996.181644h47.3125c4.1486 5.64936 14.2187 19.79297 14.2187 19.79297-.025-.058-.2018 2.19577.8653 4.0957.8169 1.45458.6781 3.12713-.67 5.66406-.8906 1.67774-1.9469 4.18431-3.0644 6.51953-2.4538 4.01593-2.4205 5.11637-.7461 6.33789 1.5147 1.07797 4.4549 2.43334 5.3184 3.23438.5587.51832-.074 1.89207-.2461 2.85547-.1316.51623-.4912 1.79815.051 2.39648.8354.92217 1.0104 1.19603.6153 2.19727-.2412.61127.9831 1.38433 1.1855 1.79101.8044 1.11714 1.0465 1.98292 1.211 2.64649.1686.68051.059 1.26757.059 1.26757-4.3597-1.78912-12.1345-.40352-10.4981 8.58789-13.6254 6.78594-24.6122 14.29359-31.5058 19.19532-2.2715-7.52369-6.1752-9.24446-9.9766-9.78516-.1909-.27777.1476-.78739.6562-1.32812 1.7085-1.74528 5.7389-2.11706 8.4747-1.98633 9.1757.0543 12.4221-1.59342 14.8203-7.57227.8229-2.05169.5058-4.68945.5058-4.68945s-.6877.89792-1.0683 1.23633c-2.245 1.99594-6.2706 2.41843-9.4922 2.47461-5.6246-.0153-8.5596.57335-10.3301 1.40625-3.5662 1.67766-6.2975 4.14599-6.6934 6.40625-.143.81691-.253.81699-1.9199.64843-1.7926-.18126-2.7797.90346-3.0762 2.69532-.1325.80081.1084.86192-1.1503 1.30078-1.8173.63359-2.4466 2.49503-1.7735 4.40039.2612.73945.2258.88734-.5898 1.44922-1.2761.87913-1.5275 2.00435-1.0528 3.38281.1921.55785.3293.70311-.1406 1.36719-1.2048 1.70268.2266 4.39715 1.8809 5.03711-.8661 5.54738-.4734 5.82391-.4629 6.46093.1004.62816.6886.89405 1.3242.87305 1.8659-.0862 1.5833-1.57065 1.8945-3.08789l2.2012 2.61328-8.1367 7.76953zm138.8105 0h30.0938v10.03515l-12.4805 8.02149v8.49609c-8.9357-5.73916-9.4858-12.01819-10.4355-16.34766-12.632 13.49823-9.2365 33.56942-.2305 42.87891-.3016-.38898 1.6187-12.90399 10.666-17.19531v40.11523l-14.6933-9.96875c6.6311-7.46933-1.3602-19.58276-9.8907-11.53711-6.3596-6.35812-5.7533-19.8037-8.7832-30.72461-.3312-1.23053.1004-2.33864 1.8301-4.69336 4.6078-6.28067 9.2653-13.16144 13.9238-19.08007zm5.0703 14.46679s-.8274 2.34618-.541 12.75l-4.5136 3.61524c.3165-10.25339 5.0546-16.36524 5.0546-16.36524zm-78.5957 7.16992c-1.387-.0677.1539 2.06091 1.3067 2.57227 5.7923.40551 9.4605-.59538 15.4394 4.78711 1.6864 1.19455 1.5791-.0882-.084-1.82227-2.9888-3.11653-7.6873-5.2587-12.4023-5.27929-1.3851-.006-3.5294-.11771-3.9414-.21289-.1195-.0252-.2259-.0404-.3184-.0449zm1.6309 5.29102c-.4299-.002-1.2648-.68825-1.3047-.61914-.058 1.11511 1.6115 3.41643 2.0352 3.99219.036.30789-.02.87384-.025 1.77539-.1636.38788-2.5649.38614-1.7168 1.45508.2773.3495 1.2955.24483 2.1621.34375 1.5429.21202 4.8676 3.30552 7.1621 3.70507.6693.11655 1.3242.0566 1.3242.0566-1.6482-.72388-3.3527-1.4508-4.7715-2.69921-1.0715-1.02651 1.3523-1.00621 2.0996-1.13086.9747-.11583 2.1613-.60162 2.6543-.83203 1.4052-.6566.8877-.81295 2.3477-.29493.8286.29401 1.6723.74896 2.1074.83594 2.0331.40641 1.3374-1.09391-1.8574-2.62109-.4544-.2172-1.2146-.92293-1.8457-1.33594-2.5392-1.66159-4.1684-2.27165-6.1563-2.15039-1.2152.0741-1.9179.0371-1.9179.0371 1.3954-.66052 2.7903-.83027 4.5176-.625 2.9624.55284 5.8957 3.01687 8.6386 4.72656-3.8985-5.20741-11.6467-7.55042-15.4535-4.61909zm5.5059 3.0957c.2557.0456.4457.25539.4433.65625 0 .26527-1.1511 1.93008-1.4941 2.14844-.597.37999-.5632-.45271-.1797-1.80664.1971-.69588.8043-1.07401 1.2305-.99805zm1.498.49219c1.9069.27765 3.0762 1.53408 1.5801 2.08985-.8196.30443-2.984.67147-2.9688.34765.02-.43487.9524-2.50102 1.3887-2.4375zm64.957 1.08594 5.2676 5.10742c-.2912 1.30366-.7831 6.2793-.8262 11.19336-2.5218-3.80759-4.5171-8.6719-4.4414-16.30078zm-71.6152 6.10547c-.3155.013-.7793.22851-.7793.22851s.3488.25564.8945.55274c3.2274 1.75695 1.8671 5.01257-1.6797 2.74804-2.4759-1.58082-4.3484-1.9138-4.6835-.0762-.1388.76101-.099 1.40393 1.0664 1.08985.462-.12451 1.7172.51053 2.7558.89062 1.3682.50084 4.1116 1.68147 5.2422-1.33008.446-1.87752-1.1355-4.17306-2.8164-4.10351zm9.4844 5.52734c-.5139-.0194-1.1797.2461-1.1797.2461 0-.00001.6427.27822 1.1348.35351 3.5128.53746 3.2932 6.45202-4.5567 2.32227-2.608-1.37205-3.9746-.87433-5.3828.32226-1.0764.96394-.4767 1.5487 1.2891 1.36524 2.2429-.21455 3.8407.70223 5.9648 1.30664 6.5438 1.59325 8.2474-5.70726 2.7305-5.91602zm-14.7422 15.9707c1.7075.0182 3.6258.78346 5.4805 2.59375l-.9746.56641c-1.5367-.50746-2.428-.9154-3.9161-1.44726.3831 1.15829.3438 1.89843.3438 1.89843s-1.7091-.60629-3.3535-.83203c.577 1.15724 1.0078 2.29688 1.0078 2.29688s-1.0981-.022-2.5762-.0352l.8906 1.45508-2.205 1.05664c-1.1924-4.01767 1.5461-7.59286 5.3027-7.55274zm-24.7656 4.81446c.3538 3.75815-2.8517 8.82364-14.0332 8.72265-4.3352-.0947-6.7325.0187-10.0157 3.55664l-2-1.62695c.6228-2.40899 1.6698-6.61919 10.5938-8.61719 5.1723-.78355 10.0209.67122 15.4551-2.03515zm-28.2539 10.48633c.3888.008.8227.12781 1.2832.39257 2.0128 1.26477 2.3221 2.27472.3027 3.36328-1.15.61991-1.3961.73989-2.4551-.2246-1.6437-1.49709-.816-3.56551.8692-3.53125zm58.582.60937c4.2269 7.61936 14.34 26.03998 16.4512 44.14063l1.9043-.0566 31.332-43.38476zm-53.3828 2.8125c1.1009.004 2.3534.27148 3.4668.8457 1.0509.58633 2.0899 1.58459 2.9453 2.75196 1.1493 1.56857 1.9692 3.44211 2.0488 5.03711.021.42454.055.73595-.1562 1.08789-1.2555 1.2616-4.361 3.79747-5.9317 4.83203-1.7287-1.48077-2.5774-5.00994.012-7.85156 1.2265-.94799 1.6156-1.34089-.4824-1.23243-1.5468.08-1.6711.153-1.584-.84765.2085-2.39277-.3235-1.54012-1.2519-.0742-.6588 1.04013-2.2369 1.58867-2.832 1.58789-.82-.001-.7228-.61652.053-1.07227 1.1404-.67025 1.2364-1.78639.8262-3.11914-.3603-1.2325 1.0519-1.95265 2.8867-1.94531zm-8.2305.67578c1.8377-.13164 3.1592 1.42428 1.4922 2.56055-1.3365.91099-1.1787 1.63785.2109 2.80664.7281.61239 1.1758.93801 1.1114 1.10351-.262 1.04337-2.9004-1.76048-4.3555-2.73242-1.0616-1.16099-1.0564-2.9656.7305-3.57226.2764-.0938.548-.14721.8105-.16602zm140.5781 1.68555 3.4981 2.40625v1.98242l-3.4981-2.04492zm-136.5156.3418c1.0081-.0968.7735 1.51985-.5898 2.21679-.7955.40664-1.4125.1477-1.4082-.57226 0-.37019.8446-1.18856 1.4882-1.49024.1951-.0914.3658-.14047.5098-.15429zm-5.8984 3.28125c1.6883.13736 3.9335 1.93677 3.5859 2.70703-.1591.35259-1.1703 1.24074-.9961 1.79297.2871.90974-.4059.91035-1.8515-.0527-2.3961-1.5963-3.0117-2.76293-2.1231-3.92969.3224-.4233.822-.56336 1.3848-.51757zm142.3554.008 3.5567 2.48633v2.38086l-3.6133-2.4043zm6.252.57617 3.5312 2.20508.2793 2.39258-3.75-2.26758zm-10.6309.35547c1.1613.60605 2.1322.83109 2.9629 2.32031.4437.36033.916.67969.916.67969l.8711-.0937 3.5 2.27344s.094.91039.7149 1.8164c.5967.87068 1.9004 1.42969 1.9004 1.42969.2792-.056.2082-.87713.1172-1.375l4.289 2.92187c.024.0161.75 2.45118.75 2.45118l2.5098 1.53711s-.2153-1.46638-.293-1.98047l3.7266 2.52734s.1228.32938.666 1.63281c.7191 1.94636 2.6306 3.22837 2.6855 1.45899l.6914.002v2.76953l-19.5527-13.08594c0 .00001-1.2068-1.08251-2.418-2.65429-1.3143-1.7058-4.0371-4.63086-4.0371-4.63086zm-131.1875.33789c1.2484-.0642 1.4659.14326.8203.7832-.6633.65759-2.022.29054-1.9043-.51172.053-.36224.2953-.23089 1.084-.27148zm2.8594.002c.4033-.0545.7516.41348.584 1.14063-.67 1.99593-.5024 5.06067 1.3125 6.82812l-5.8555 5.19141c-.4404.22019-1.0568.0213-1.7265-.52149-1.9724-1.59835-2.7044-3.09358-.9961-2.99609 1.1054.0631 2.5127-1.0438 2.1132-2.35156-.2406-.78799-.085-1.33197.7715-1.55274.8477-.35975 1.4587-1.67962 1.1778-2.69336-.2296-.73229-.1187-.95515.4101-.88867.5606.0705 1.1467-.47232 1.5235-1.4375.1816-.46525.4435-.68608.6855-.71875zm-4.7988 2.31836c.3344.0215.7006.21314 1.0508.65625.7353 1.46522-1.2115 2.15997-1.9825 1.48047-.7967-.74232-.072-2.20128.9317-2.13672zm143.8398.60156 3.8203 2.52149.4551 2.61914-4.125-2.44141zm-149.8008.5c.3316-.0269.7066.0729 1.084.34766.3063.22298 1.1457.89597 1.6192 1.18359 1.0094.61318 1.1663 1.08406.2832 1.13672-.4036.0241-.988.67196-.9297 1.15235-.4961.47191-1.8815-.24094-2.8203-1.44141-.8412-1.07557-.2309-2.29829.7636-2.37891zm156.2618.1211 3.8828 2.58594.332 2.53515-3.9082-2.33008zm-152.0567 3.30859c.097.004.1931.0276.2852.0762.7888.38893 1.0781.98608.3242 1.38086-.6542.39478-1.063.35726-1.4746-.0605-.5403-.46029.1826-1.42335.8652-1.39649zm152.3125.7168 4.2988 2.91211.086 2.27734-3.8555-2.14062zm-155.0156.6875c1.7282 1.08692 1.0727 6.21844-.1016 6.20117-1.7307-1.32927-1.5535-4.89061.1016-6.20117zm161.8262.11328 1.7675 1.13867v2.29492l-1.6777-.99633zm-16.7422.56055 18.5097 12.34961v2.25l-16.4316-11.14258zm17 3.38867 1.5097.91016v2.43359l-1.4003-.95508zm-13.2383 2.84375 14.748 9.90039v2.51562l-12.8613-8.62109zm2.8926 6.06055 11.8554 7.7539v2.58789l-10.414-6.91797zm1.9219 5.0371 9.9335 6.54493v2.46875l-8.8789-6.00782zm1.58 4.68165 8.3535 5.6582v.87109l-1.0371.73047-6.7402-4.41601zm.9317 4.20312 5.459 3.61914-1.7129 1.17774-3.2207-2.53125zm-90.002 1.35742c.1024 1.1679-.3005 3.91932.3106 4.95508l1.7343-2.77539h2.1329c-.9639 2.24597-3.4083 7.27734-3.4083 7.27734h8.6407s2.1961-4.76878 3.5722-6.90039l2.0293-.006-3.205 6.90625h8.1464l3.6465-6.98632h2.6094l-3.2969 6.98632h5.9258l1.1914-2.7539h-2.7012l3.0664-6.70313h-8.75l-3.4726 6.70313h-2.0371l3.5039-6.70313h-8.5996l-3.5684 6.70313h-2.5996l3.2734-6.70313zm90.8399 2.65625 2.0078 1.38282-1.6504.97265c-.1024-.79245-.1608-1.57905-.3574-2.35547zm-91.4707 20.86524-1.504 2.5625h3.0352c-.9946 2.2885-3.166 6.60351-3.166 6.60351h8.3555l3.6406-6.60351h2.9062l-3.3144 6.60351h7.6445l3.6426-6.60351h2.6309l-3.2266 6.60351h8.1601l-.4121-5.95312-1.6875 3.27148h-1.9238l2.8887-6.48437h-8.2149l-3.3047 6.48437h-2.0351l3.0898-6.48437h-8.8339l-3.3282 6.48437h-2.4062l3.0332-6.48437zm-63.4063 5.20312.127.94336-1.086-.43164zm-2.1543 1.17774 2.6758 1.67382.3672 2.10743-4.5469-2.96485zm-2.7168 1.38476 6.168 4.19922.539 2.49414-8.6816-5.63086zm-1.9746 2.5332 9.2285 6.45899.9258 2.73633s-7.7878-5.05932-10.1543-7.18555zm84.3359 1.09571-31.0918 43.625 49.1817.45703c-8.1461-13.32729-14.3911-28.02862-18.0899-44.08203zm-84.3359 2.40234 10.7598 7.53516 1.498 3.05273-12.2578-8.26953zm0 3.72266s8.8679 6.70795 13.1719 8.875c.5011.96932 2.1406 3.95508 2.1406 3.95508l-15.3125-10.61133zm0 3.73242 16.0664 11.10156 3.0293 4.3418-19.0957-13.00977zm169.1094 2.28711v107.18164h-45.9922c-4.4515-6.57073-8.659-12.86239-13.5449-20.13672-.8832-1.22248-.8043-2.81466-1.4864-4.14648-.5502-.86902-.6981-2.73332 0-3.86133 1.8795-4.07477 4.0163-7.82413 5.3184-12.17969.5745-1.92173-3.3162-3.31813-5.2988-4.5957-1.5401-1.0233-1.5026-1.56487-.9336-3.71485.5281-1.52812.5794-2.26907-.3887-2.78906-.5447-.29257-.5587-.26501-.416-1.04492.1445-.78982-.035-1.33577-.9941-2.16016-.152-.13062-.9319-.94526-1.2832-1.91992-.2115-.59406-.3554-2.04132.7656-1.93945 6.3973 2.50338 11.0521-1.32191 9.6718-8.0586 0 0 21.3915-12.30547 31.0567-20.04296 1.2861 5.77982 4.5537 10.34998 10.3984 10.5625-2.7961 3.07368-7.2377 3.00271-11.1914 2.93554-9.1905-.15612-13.0079 3.80925-13.5918 12.375 2.4941-3.61627 8.099-4.03035 13.6114-3.8125 5.2902.20908 12.6362-1.56522 14.4414-8.625 2.5507.9451 4.4161.94916 5.4101-2.33203.1865-.4368.505-.94293.7969-1.05664 2.2799-.88809 2.5238-2.63451 1.873-4.68555-.1729-.59162-.1593-.76001.6348-1.86718.5473-.76308.6927-2.40371.1953-3.56836-.2115-.49536-.2167-1.0855-.1523-1.83399.1174-1.36606-.1933-2.39256-1.0879-3.60156-.7342-.99225-.7884-1.01541-.3906-2.73242.4862-2.09866.6329-4.67716.1523-5.07227-.6859-.56383-2.7585-.73293-2.8242-.084-.2091.25274-.1426 2.29456-.211 2.39062-.4369-.41483-2.4554-1.79005-2.4082-1.7832zm-169.1094 1.32812c6.3677 4.23011 13.0046 9.48298 20.6621 14.17969l2.5977 3.125-2.4082-.29297c-.052-.006-1.3796-.17388-2.1328-2.09765-.5938-1.51652-2.915-3.22525-3.8262-1.97657l-2.3086-1.40625s-.3818-.62361-.6719-1.21093c-1.1968-2.42307-3.8213-4.4623-3.8301-2.98047 0 .19468-.037.89258-.037.89258l-2.4531-1.35938s-.3642-.8646-.5312-1.25195c-.6709-1.55608-2.7759-3.49882-3.0098-2.8086-.1246.36774-.2793 1.00391-.2793 1.00391l-1.7715-.92187zm0 4.3418 2.3711 1.55078.1074 2.08008-2.4785-1.42187zm160.3047 2.91797c1.8303.89477 3.3035 2.44533 3.207 3.36328-.057.54632-.4523.71501-1.1426.82227-1.6863.26204-1.7739.81552-1.7558 2.10156.015 1.06528.01.97315-.9121 1.58398-1.1504.76417-1.411.90341-1.2774 2.64063.089 1.15079.013 1.06992-.623 1.27539-1.4892.29008-1.6218.64532-1.8516 1.62109-.1746 1.04489-.8424 1.17117-.6855.30274.6854-1.99136 1.3353-4.65512-1.1582-8.15625 0 0 4.0005-3.8556 6.1992-5.55469zm4.8055-.8367c2.5026 1.36686.6087 6.3405-.2096 6.27486-1.3381-1.48891-.5774-4.71007.2096-6.27486zm-159.3914 1.85818 3.5351 2.34375-.014 2.11524-3.5937-2.39063zm-5.7188.0527 2.3223 1.625-.035 2.03515-2.2871-1.2207zm5.6152 3.80664 3.8282 2.52539-.01 2.21875-3.8711-2.49414zm157.2344.45508c1.0464-.0367 1.7629.97604 1.0313 1.77734-.1833.20072-.4117.21357-.791.20703-1.6989-.029-2.223-1.40787-.7051-1.90039.1597-.0518.3153-.0787.4648-.084zm-150.1855.28125 3.6718 2.55078.01 2.08984-3.6582-2.35547zm140.5508.58203c1.7017 2.6303 2.2715 4.26334.3554 7.77734-.7091.92025-.7768 1.08602-.051 1.20703.8587.14311 1.8168 1.19753 1.6817 1.60743 0 .49123.3528.24339 1.5508-.76563 1.4529-1.3559 2.2005-1.68157 2-.79492-.485 1.6217-1.4664 1.74138-1.0469 3.47851.097 1.50754.6317 1.39937-.8067 2.03907-3.2979 1.46671-6.8189-.71985-9.0976-5.58985-.9131-1.95143-1.247-2.91329-.6699-3.90625 1.5356-1.65745 6.0453-4.93666 6.084-5.05273zm12.4472.63086c.8591.12664 1.4319 2.39427 1.332 2.97656-.1082.63093-2.7172-.93047-2.7128-1.66992 0-.56999.8436-1.38583 1.3808-1.30664zm-4.8789 2.10742c.2912.0218.6042.13962.9063.38086.7871.62859.6713 1.60799-.2657 1.95898-.9102.34096-1.4439.23757-1.7617-.54492-.4252-1.04702.2476-1.86044 1.1211-1.79492zm2.7012.64453c.2365.0265.6139.29714 1.1133.625 2.5861 1.67996 3.1986 3.08863 1.9394 4.41211-.7104.74665-.6429.67631-1.9433-.15039-2.5545-1.62382-2.9527-1.80472-2.0567-2.81055.2791-.31326.7132-.83771.6758-1.23437-.061-.6501.035-.86834.2715-.8418zm-150.8477.0957 3.5801 2.38672-.035 2.17969-3.5957-2.13867zm6.8242.72266 2.7618 1.67383v2.37109l-2.7618-1.87109zm140.8946 2.65625c.2144-.0217.9795.39067 2.1738 1.22461 3.9624 2.76691 4.9868 5.51339 2.4512 6.50977-1.0692.42015-2.3099-.8131-3.0352-1.8125-.4605-.6346.027-1.44898.4903-2.14258.5557-.8316.354-1.24027-.9434-2.39649-1.014-.90363-1.3511-1.36109-1.1367-1.38281zm-2.6328.0859c.1832-.0182.4006-.0125.6504.0195.158.0667.5757.21461.1191.75586-.094.11147-1.3667.60849-1.5117-.16211-.057-.30269.1924-.55866.7422-.61328zm-138.2618 1.33203 2.7618 1.75v2.30078l-2.7618-1.65625zm141.3848 1.26758c.3451.0512.5701.2758.5234.69336 0 .48058-.4733 1.56648-1.0214 1.95312-1.3471.95017-2.4944-.18353-1.5235-1.56836.5396-.76964 1.4464-1.16351 2.0215-1.07812zm-.3926 4.28711c.2041.0254.4131.14156.7696.32617 2.2841 1.18285 3.0438 2.79726 1.4804 4.11328-1.1493.96749-2.9255.64927-4.5586-1.08789-1.3529-1.43916-1.2199-1.49634.6797-2.61523.9633-.56739 1.2889-.77872 1.6289-.73633zm-4.3652 3.34179s.7094.2248 1.8027 1.69532c1.4039 1.88815-1.0857 3.63327-3.5625 6.37109-5.3107 3.53317-14.7375.0129-22.0722 4.32031.1741-7.04152 4.6872-10.04816 14.2343-9.71875 5.7271.77196 9.6755-2.56396 9.5977-2.66797zm-142.5938.0469 14.0645 9.71289c-.051.0158-2.067 2.11967-1.9727 5.90625.1132 4.92515 5.8102 10.29973 11.6114 5.69336 1.7152-.76213 4.3721 4.15316 5.7695 7.95703 1.8629 4.62725 1.449 13.04101 4.2031 23.1543l-15.2246 22.75195h-31.7402v-9.32422l13.289-9.51562v-7.93946c8.0633 4.03123 10.3289 11.89683 10.6875 18.55274 8.7214-10.87513 13.079-29.97261-.8847-45.66016-.4059 7.32742-2.7298 13.00391-9.8028 17.50781zm99.9571 9.10547c2.3996 6.81128-6.7152 9.84973-10.127 4.70312l1.4864-.55078s1.8138.89793 2.914 1.14844c-.383-.55603-.4883-1.57422-.4883-1.57422s2.187.46029 3.3946.40234c-.3681-.61999-.8772-1.18412-.8887-1.83203.932-.10117 2.0237.0699 3.0312-.0703-.7393-.65673-.9861-.40807-.9902-1.33594zm-19.3946 16.21484c-.4381-.009-.8607.0333-1.2578.14063-3.351.61042-3.794 4.12785-1.9922 5.95703 1.1587 1.1088 3.2285 1.07832 4.6973.21484-1.4117.0288-2.3808.21093-3.5859-.64258-2.2366-2.24204.47-5.24848 3.8164-3.43554 4.0625 2.12491 5.9788 2.58372 7.3262 1.90429 1.1526-.58125 1.3093-2.18496.1992-1.94726-2.2405.40151-6.1364-2.12805-9.2032-2.19141zm-67.9804 1.34766c3.0704 4.84468 5.1084 11.83753 4.8398 16.10937l-5.1797-4.33398c.7364-3.59695.4724-8.09653.3399-11.77539zm76.7988 4.68945c-.966-.0601-1.777.22323-2.3789.8418-1.2989 1.37148-.7729 5.54465 2.4844 4.68359 0 0-1.5812-.55522-1.9395-1.50195-.7037-1.85934 1.697-3.65351 3.9043-1.08203 1.6697 1.94511 4.3158 1.52668 4.4942-.17774.081-.77438-.2963-1.32676-1.2813-.96289-.5882.2173-1.1151-.0533-1.9746-.58398-1.2209-.75387-2.3426-1.15668-3.3086-1.2168zm-8.0664 6.38867c-1.3118.0512-.8853.3247.877.99219 2.7134 1.02783 4.5364 1.79037 3.9804 2.26953.1139-.009-4.7665-.0266-7.0879 1.51953-.4704-.0302-1.2091-.28774-1.9375-.63867-2.3585-1.13629-3.2804.0884-1.1855 1.53906 4.2901 2.97076 7.7784 4.42845 10.6406 4.12305 1.8723-.19977 2.8999-.29582 1.7813.42383-5.3942 2.30799-9.7579-1.63185-13.3731-4.04492-.6491-.4333-.9199-.56446-.9199-.56446s.3569.64014.8066 1.03125c4.0677 3.53768 8.2339 6.00614 13.8243 4.42383.9521-.3855.9875-.69492 1.3359-.5332 1.6168 1.45943 1.1217-.87217-.012-2.125-.6722-.82583-.7591-.81029-.9082-2.27149-.096-.93485-.1682-1.03382.6621-1.41992 1.8271-.84973.7401-1.00375-.3242-1.08789-.6476-.091-1.74-.86495-3.9102-2.26367-1.3006-.84452-3.1042-1.41776-4.25-1.37305zm3.2344 4.40253-1.2422 2.22265s-2.0292-.35234-2.6133-.88867c-.1821-.16722.01-.35463.3823-.53532 1.2027-.45753 2.1822-.84689 3.4732-.79866zm1.0761.46466c.2027-.0161.3798.10257.4336.44336-.063.29337-.5321 1.34422-.8437 1.75586-.2639.3486-.5404.22132-.8242.0684-.6003-.32228.1306-1.26782.6523-1.91016.1528-.19182.3794-.3413.582-.35742zm-68.3593 1.6875c.9369 4.00973-2.81 14.68053-4.1875 15.43164.074 0 .8688-7.36842-.2852-11.02148zm55.416.73828c-.1755-.0292-.075.22333.2676.75 2.7907 4.28467 6.971 7.38174 13.4101 7.72461 1.9424.10342 5.0352.29224 5.4063.41211.9096.29389.9497.5257 1.0703.15234.6901-2.13428-1.9975-3.96414-6.9785-3.25195-3.5133.50232-7.5145-1.50145-11.7891-4.85156-.7606-.59616-1.2113-.90636-1.3867-.93555z" fill="#004c97" stroke-width=".164812" transform="matrix(6.07663 -.0358594 .0357507 6.0582 -8818.91 -1119.48)"/><path d="m297.83023 1104.7238 8.14657-40.682 74.86981 3.1955s8.84437 25.4561 12.43121 36.9233zm-172.85732.034 39.32516-65.8178 56.48224 14.9677-12.67226 51.3451zm109.69692.3382 16.67052-70.1092c-32.3011-6.9114-62.75931-11.3997-98.42052-20.8004l-57.258018 91.6544-34.778697-.7192c29.722905-40.0902 83.962765-121.01763 83.962765-121.01763 125.75778 42.43423 252.32915 48.97493 379.5828 25.41413 0 0 47.29992 61.6377 64.31777 95.1135l-33.10788-1.4297-41.52923-68.623c-28.61778 3.2753-56.75946 7.2557-86.62852 8.6778l20.8139 60.5788-32.86853.1938-19.00346-60.4172c-35.84646-1.1752-65.95064 1.7993-108.93749-4.6657l-14.75719 65.8938zm236.84389-1.3724-11.57164-42.9847 40.36528-4.9549s18.92908 32.716 29.27267 47.5718zm-364.85554-397.86176c49.79185-76.65974 225.57335-322.49588 225.57335-322.49588l26.37764-.35569s-157.75481 223.25566-233.6361 335.17735zm-256.90574-117.28066 62.134909 44.18436 2.491703 346.84542-62.613032 44.62074zm253.50121-568.956694 37.8866 73.071733c-158.238912 151.706221-125.976306 328.439861-39.98128 454.128811-.0263.007-21.646862 31.2952-34.697181 58.41581-115.791997-75.38137-152.043207-272.85261-151.174464-274.97275 126.4362-114.12216 143.360636-150.32291 187.966325-310.643604zm653.44876 536.485254c7.55582-111.6705 61.72071-184.94941 122.63433-229.8893l3.79939 113.51777c-39.82151 38.67188-81.93652 78.60613-126.43372 116.37153zm-166.81907-111.45534c138.59192-130.96866 142.25388-315.82123 39.92856-450.8916132l41.20566-58.2662118c59.26544 62.6845745 117.40517 128.390567 142.89093 281.740545-87.84518 70.08503-165.15171 185.49257-185.21389 301.64776zm-192.92694-150.29231-.56932-53.18815 51.37968-.56452.31338 53.10587zm-110.19537.23458-1.0586-53.00089 51.53351.0684-.48463 53.73757zm86.67042-140.50937s173.04308-244.742774 240.32586-332.41527l14.46817 10.51018-227.83273 321.16288zm-402.732177-168.641258c.393291 95.396146-60.31072 171.347788-122.480823 221.035168l.21213-108.613441c37.38715-39.128593 78.802098-76.278981 122.268693-112.421727zm904.836737-465.690052 2.86181 423.412868-58.58194-34.805955 2.85563-355.110343zm-278.09171 26.71536c-131.97601-33.48495-252.08734-43.02941-378.13551-15.23701-16.56499-19.51985-72.31975-100.89512-72.31975-100.89512l31.90553.27993 45.57793 72.00394 85.95672-11.74837-22.4945-58.65913 35.46479-.0553 18.01167 57.55143c-.18439-.45228 69.98645.2805 109.007 4.66796 6.07358-21.44454 17.35386-64.05401 17.35386-64.05401l39.06799-.25398c-4.89844 20.47394-18.09177 69.18876-18.09177 69.18876 32.02383 4.26007 91.46376 18.99657 92.01115 19.64562 20.64799-29.5511 39.82994-59.09746 58.48876-88.63683l38.06969-.408c-11.10069 19.0643-77.75753 117.54362-79.87356 116.61011zm-24.61265-50.6108-58.29705-13.23026 14.89902-51.39494 81.37288-.52707zm-334.41296-16.58721-27.34943-47.45615 52.08386-.30736 17.49412 41.83512zm118.17579-10.39786-8.11184-37.8692 94.59163-.5582-9.43004 40.44605z" fill="#c8102e"/><path d="m1447.0859 96.597656 13.8438 20.041014c5.5498-.48361 15.1374-3.14783 31.8789-1.57812 0 0 2.366 7.16515 3.168 10.68359 2.3887 9.51867-.7714 19.18217-6.3301 24.15039-2.8212 2.52152-6.547 5.50767-10.502 7.04102-5.4794 2.2948-6.037 2.28243-9.2656 2.43359-2.1348.1-2.3515.18332-3.5195.79102-.3602.12612-.5955.5031-.916.61132-.2711.0915-.7832-.0137-.7832-.0137-17.8075 7.82813-31.7473 16.55671-42.2774 24.35157-.1226.0907-.2004.49696-.3183.59374-.862.70714-1.6563 1.24261-2.4961 1.88868-.1155.0888-.3738-.0709-.4883.0176-12.3886 9.57377-19.4073 17.33701-21.9883 19.57812l.2539 44.57617s5.6385-2.90792 8.5313-4.67969c2.0312 17.26005 10.615 34.02712 24.166 45.67188l-5.8789 8.12891-27.0899-18.70899.377 82.24805 14.4023-10.03321v-8.67578c4.2924 2.89909 8.4834 4.02833 11.5313 17.23243 2.4366-4.63823 2.2226-11.54523 1.1308-16.16016-.2112.29015 3.2375-2.74373 4.7715-5.32813l-5.3516-4.76171s1.3847-11.53266-1.1386-13.85547c-1.997 5.23465-3.5888 10.78381-11.0508 14.82226l-.094-40.06445c3.7188 2.36257 7.2378 5.02325 10.9141 7.44727l.5059-.10157 3.8047 2.61328s-.4049.81646-.7735 1.37696c-4.6216 7.03074 3.0792 15.65557 9.3438 10.46679 2.453-2.03175 7.0572 6.41723 7.9257 14.54297.8843 5.24944 1.3614 11.76479 2.7832 16.32422.44 1.33042.2665 2.07787-.6699 2.88477-4.8006 6.77499-14.4511 20.42578-14.4511 20.42578h6.9531l.5019-.79883h-5.123c4.4148-5.89177 8.6257-12.75818 13.2051-18.50977 17.0641 6.44242 45.0161 7.93166 61.8965 4.0254 3.4864 4.90391 6.8758 10.04472 10.2285 15.04101h-4.8555l.668 1.04688h6.5683l-13.834-20.42774c-9.5351 2.84511-32.7808 1.73595-32.3574 1.5 0 0-.064-.15747-.8691-2.47461-3.9911-12.92309-4.3616-24.39304 5.6504-33.66211 5.3177-4.74315 11.2596-7.87053 17.8925-7.27734 2.9657-.0581 3.0218-.21949 4.2579-.7793.6812-.30833 2.0918-.63086 2.0918-.63086l6.7207-3.73633.8867-.17773 1.9316-1.02148.4004-.47461 3.1231-1.5918.3515.0293 4.2207-2.4375.057-.3418 1.6601-1.0293.3965.41992c.4604.0385 16.5518-10.55222 23.2617-16.45507l.416.15429c7.8356-6.35962 18.4886-16.38551 21.6485-20.19336l-.1699-19.08007-.2676-.23243-.1074-21.1289h-.6114l-.027-2.60547c-3.4646 1.28696-7.2771 4.51316-7.5332 4.37891-2.2064-17.88791-10.4166-34.36326-23.834-46.4629l5.7129-7.91406 26.5293 17.9043.072-5.23047h.3301c.3256-20.0571.5039-72.04492.5039-72.04492l-.2617-.0254-.01-4.15039-13.5606 8.68359-.1914 8.77539c-6.0123-1.96979-9.8199-9.21381-11.082-15.66992-1.7517.70461-2.1914 15.80859-2.1914 15.80859-.2729-.039-4.2637 3.78711-4.2637 3.78711s3.408 3.82669 5.209 5.38672c-.3762.81233-1.1218 12.17975-.3321 13.60547.3617 1.05134 1.6127.90077 1.6192-.20508 1.8291-8.96133 10.3037-14.8428 10.7793-14.30078l-.207 41.32031-15.0547-10.58398c3.1609-3.58014 3.8273-9.61936-.1543-12.57422-3.9921-2.96259-7.902-.44998-8.8262 1.43359-4.8877-3.19493-6.5307-15.03343-7.2441-19.66796-.1781-2.25451-.7568-5.31599-1.4219-8.07813-.4167-1.73087-.9128-3.38541-.9766-4.93555-.028-.73005.057-1.04684.7188-1.96093l14.6386-20.828129-7.4726-.02539-.072.128906 5.877.01563-13.1993 18.802743c-19.8581-6.25771-40.4497-7.77224-62.4785-3.80274l-10.8808-15.351565 4.9453-.01953-.1934-.332032zm11.4844.177735.209.375 8.5527-.02539-.1289-.318359s-8.6148-.03125-8.6328-.03125zm12.6817.04492.164.453126 5.834.02148-.1777-.44336zm29.7949.160157-.059.207031 6.4297.0098.059-.205078zm-19.7071.0039.062.265625h15.5137l.057-.248047zm29.8731.140625-.061.216797 13.3907-.0098.1132-.207031zm56.5019 11.457027.041 2.82617-8.9942 5.73633c-.2251 12.09124-.5722 58.60156-.5722 58.60156l-2.1543-1.41797.4238-58.24218s7.9572-5.12848 11.2558-7.50391zm-23.6054 2.27539h.3047l.092.6543h-.5235zm.6386 1.70703.2364.88086h-1.3164l.1582-.85547zm22.7051.45899v1.8457l-7.7617 4.86328v-1.83008zm-23.9551 1.53515 2.0313.0273.4023 1.01953h-2.6191zm-49.8418.54883 1.3575.20313c3.1095 7.44314 3.9129 13.8357 4.4531 20.48633 1.2399 8.63249 3.7439 17.23843 5.4844 20.91601h-1.9903c-.2299-.0296-4.433-12.50224-5.3086-19.88086-.2347-1.46124-.1401-2.81731-.2148-4.17187-.4432-5.70563-1.223-9.99284-3.7813-17.55274zm2.5508.29883 1.7344.17969c1.2105 5.28551 2.9748 10.27215 3.6914 15.58203 1.1463 8.49314 1.76 17.17343 5.8438 25.54492h-1.6211c-2.4779-5.65954-4.0109-11.58445-4.9981-17.9668-.7718-3.6605-.7808-6.40764-1.1894-9.71679-.4971-3.97346-2.0232-9.02713-3.461-13.62305zm2.6328.24805 1.7344.25781c1.1399 5.24864 3.0952 11.02349 3.6133 15.76758 1.0553 9.66188 2.5671 18.6443 5.6055 25.0332h-1.2129c-4.6939-9.11946-4.7689-17.26069-6.084-25.80664-.7745-5.03283-2.4161-10.06602-3.6563-15.25195zm2.7637.40625 1.5313.23828c1.0643 5.22168 2.9754 11.13104 3.4199 16.42773.787 9.37539 2.4443 16.41736 5.9238 23.98633h-1.4355c-4.2006-7.37216-4.7642-16.33767-6.0723-25.50195-.7224-5.06185-2.35-10.15636-3.3672-15.15039zm65.8496.0117v2.28515l-7.7617 4.99805v-2.25586zm-63.3457.4414 1.5996.25c1.0303 5.03611 2.9461 10.41121 3.3985 15.31445.7733 8.3803 2.3111 16.83745 5.7558 24.63477h-1.4785c-3.6429-7.87346-5.2283-14.94084-5.918-23.99023-.3866-5.07393-2.3328-11.26143-3.3574-16.20899zm42.2676.0273.8418 1.53906h-4.0059l.045-1.52344zm-39.6348.4746 1.9024.3711c2.0154 8.03349 2.5429 15.63976 3.916 23.27539 1.7155 9.48749 3.5246 14.28192 5.0019 16.05078h-1.5742c-3.841-8.21405-5.2034-16.35557-6.0957-24.81641-.5264-4.99163-2.1569-9.91012-3.1504-14.88086zm2.9004.54102 1.4492.29297c1.7295 6.56565 2.5088 12.7073 3.2696 18.65039 1.3832 11.28701 5.1338 19.81616 5.9316 20.21289h-1.5996c-3.4688-4.80863-4.7535-13.0095-6.459-24.5625-.7497-5.0787-1.4956-9.85799-2.5918-14.59375zm2.334.4707 1.625.40039s1.4657 5.77717 2.5723 13.44336c.9219 6.38861 1.4063 18.96066 8.3301 26.18946 3.4564 3.60868 9.546 6.74171 13.7011 3.33593 1.775-1.51766 2.9193-3.95043 1.8516-6.55078-1.7942-4.35516-7.8696-3.60948-5.8477.95899.2263 1.09584-1.2024 1.14409-2.1972.0742-1.0448-1.14289-.7842-2.4463-.043-3.64453 1.5622-2.52556 5.7444-2.78719 8.1992-.53126 3.9223 3.85299 2.2262 10.46476-2.7402 12.56055-5.7211 2.43806-13.0961-2.59397-16.0156-7.39648-4.8303-8.36561-5.5762-16.30534-6.709-24.75196-.5758-4.56155-1.6855-9.3513-2.7266-14.08789zm2.4492.67578 1.6485.40235c.01.0223 1.8098 8.14073 2.4082 12.95117.7394 5.94507 1.5542 12.95128 4.0918 18.35938 1.578 3.36314 3.8769 6.19169 6.1992 7.83984 1.9965 1.4169 3.7855 2.31233 6.4414 1.73242 3.0668-.66966 3.1998-5.42939.2734-5.4414-1.4948-.006-.5205-1.44916.7207-1.49024 4.4097-.14589 4.5368 6.82547.3848 8.38086-4.7545 1.78109-9.8935-1.57438-13.0762-5.79102-5.5691-8.67509-5.3495-16.58855-6.5722-23.58398-.3266-3.68461-2.3961-13.18596-2.5196-13.35938zm33.3692.24219 1.0078 1.35157-5.5996-.0254.023-1.2871zm-30.9121.44922 1.5781.55078c.044 0 1.5845 6.30289 2.541 13.75196 1.1357 7.1821 1.5065 13.16011 5.2148 18.34765 1.5427 2.15808 4.4551 5.0361 6.2891 5.37891 1.1362.24625 2.3127-.005 2.6016-.8711.4731-1.41925 1.6868-.7665 1.7129.52149-.01.90104-.6648 1.83728-1.7793 2.16211-5.4506.94611-10.4377-5.91791-11.9512-9.39844-2.0497-5.06286-2.9257-10.72152-3.8145-17.76562-.3762-2.98182-2.1763-12.48802-2.3925-12.67774zm50.5722.25195-.027 2.2754-7.7344 4.89062v-2.21289zm-48.1972.44336 1.7695.48438s1.4752 5.54357 2.3555 12.39062c.8929 6.94386 2.8104 15.01095 6.3925 19.1836.3258.39984.5488.68338.6895.91797.2565.56731-.049 1.52614-.3145 1.52734-6.3822-3.33135-7.8913-16.71712-8.4394-21.24219-.8085-6.99886-2.4531-13.26172-2.4531-13.26172zm24.0742 1.23243h6.375l1.3418 1.32617-7.6465-.004zm24.123 1.6875v1.88671l-7.7617 4.93164v-1.92968zm-20.6523.7207c1.8985-.007 4.1787-.005 5.707.0215l2.8242 1.66993c.073.12254-12.8203 0-12.8203 0 .3362-.44924.6676-.89389.8731-1.66993 0 0 1.5174-.0148 3.416-.0215zm20.6523 2.27148v2.26367l-7.7617 4.87891v-2.125zm-25.5625.42774c1.2874.0277 10.0021.11392 13.4414.15039v1.16797h-15.541zm-2.3633 2.5625 15.8047.041v1.58594h-14.2168zm27.9258.30078v2.36328l-7.7617 4.82227v-2.24024zm-25.3496 2.5332s8.8191-.0198 13.2285 0l-2.5879 1.31445h-8.705zm25.3496.77344v2.22656l-7.7617 4.89453v-2.19531zm-23.4922 1.70117h7.545l-1.4707 1.4336-6.2891-.0879zm23.4922 1.5625v2.38867l-7.7617 4.75586v-2.06836zm-23.7949.87305h5.3496l-.9531 1.22656h-4.541zm-46.7051.70117c.6069 6.50883 3.0147 13.1236 5.168 19.27539h-1.7109c.085.1159-3.3533-7.67055-4.504-14.96875.1832-.21214 1.1373-4.17108 1.0469-4.30664zm46.3653 1.54688h3.9961l-.8692 1.61914-3.2558-.006zm24.1347.36718v2.08789l-7.7617 4.78711v-1.90234zm-24.2636 2.11328h2.6484l-.625 1.45704h-2.0527zm24.2636 1.125v2.22852l-7.7617 4.82812v-2.15039zm-72.2265.40039c.7794 5.10159 4.2208 13.35015 4.4726 13.72266h-1.4668c-.1751.52699-4.0547-11.33984-4.0547-11.33984s.3099-.78194 1.0489-2.38282zm47.9375 1.00391h1.5703l-.2676.89063-1.2715.0312zm.1406 1.96875h.8164l-.1953.80078h-.5098zm24.1484.041v1.80078l-7.7617 4.92578v-1.70508zm-74.0195.19921c1.1774 3.50751 2.336 7.08927 3.7305 10.50977h-1.7383c-1.2463-2.88523-2.3501-6.6841-3.0625-9.07422zm-1.75 2.3379 2.8887 8.17187h-1.6407c-.9622-2.04989-1.7714-4.40044-2.5664-6.70117 0 0 .589-.76257 1.3184-1.4707zm75.7695.50781v2.13476l-7.7617 4.81651v-1.83984zm-77.7246 1.53515c.9007 1.92862 1.3588 4.1114 2.3301 6.12891h-2.0274c-.7296-1.82052-1.3593-5.13867-1.3593-5.13867zm-1.8594 1.5879c.3786 1.51695.6965 2.97404 1.293 4.54101h-1.8906c-.5566-1.24251-.6035-3.55078-.6035-3.55078zm79.584.30078v2.23437l-7.7617 4.67969v-2.07422zm-81.4961 1.23632c.07 1.13575.2705 2.00077.4707 3.00391h-1.7089c-.1341-.58818-.2043-1.32564-.1895-2.0625zm-2.3144 1.5254s.1194 1.48882.1347 1.47851h-2.6875c.918-.46691 2.5528-1.47852 2.5528-1.47851zm83.8105.83984v1.78516l-7.7617 4.85351v-1.81055zm-92.2734 2.82617 46.6328.0664c.5644.71719 1.0052 1.43515 1.9687 2.15234-17.7524.11815-35.3269.36678-57.4609 0l2.4453-1.27344c1.9346-.33963 4.2695-.19614 6.4141-.94531zm92.2734.26367v1.96485l-7.7617 4.71484v-1.9043zm-131.2226 1.88672c-3.7495 1.66663-7.2486 2.07581-9.8633 1.86328-5.6307-.45769-14.2463 1.90393-15.9785 7.33008-.5439 1.91619-.5508 1.96951.4824 2.94531.5132.48418 1.0122.85105 1.1074.81446.9057-.80611 2.1058-2.30353 3.3926-2.74024 5.0298-1.82398 9.5796-.34486 14.2012-1.61719 3.7218-1.02463 7.0723-4.06731 6.6582-8.5957zm-.1602.49024c-.6316 7.50435-8.7356 8.48318-12.2949 8.26953-7.218-.43328-10.0617 1.72863-11.2051 3.07031-.3766.35968-.5971.27289-.5371-.0547.8378-4.15495 7.5322-4.31157 10.9023-4.26562 8.2584.37755 10.3511-3.6152 10.1172-3.6543-.6263.28184-1.0897.52987-1.7246.83203-.2732.11411-.2155-.0539-.9297-.46875-.011.0543-.826 1.91209-1.8808.15039.027.088-.7513 1.56494-2.1914.18555.01.14855-.8712 1.41358-2.2793.11914-1.3244 1.13732-1.9544.51021-2.5235-.28906-.4172.25133-1.6436 1.91297-2.666.125-1.0904.69588-1.5463 1.45137-2.4844.99609-2.1884.39305-4.0818 2.64358-4.8535 4.70703-.2408.70889-.7281.82191-.7871.043-.2593-2.15254 3.2744-5.8839 6.8203-6.91406 2.7573-.80103 4.6367-1.37868 10.6973-1.14649 3.4462.13202 7.8203-1.70507 7.8203-1.70507zm88.4688.56836 2.1855 1.48632-38.041 52.76368h-3.3574zm-61.0215.0352h4.3242v7.17188h-3.7285l-1.3321-1.98633c.3447.20333.7435.32226 1.1719.32226 1.2799 0 2.3184-1.0407 2.3184-2.32422 0-1.2835-1.0385-2.32031-2.3184-2.32031-1.2798 0-2.3183 1.03681-2.3183 2.32031 0 .1141.01.22428.025.33399l-1.3926-2.07227s.5907-.35472 2.0039-.98632c.3655-.16338 1.2461-.45898 1.2461-.45899zm13.3301 0h7.3261v7.17188h-7.3261zm16.0527 0h7.5859v7.17188h-7.5859zm16.3789 0h7.5801v7.17188h-7.5801zm58.0605.17188.1133 2.23632-7.7617 4.73243v-2.21289zm-54.5468.74023c-1.3542 0-2.459 1.09875-2.459 2.45703 0 1.35829 1.1048 2.45899 2.459 2.45899 1.3541 0 2.4531-1.1007 2.4531-2.45899 0-1.35828-1.099-2.45703-2.4531-2.45703zm-32.2657.12891c-1.3541 0-2.4511 1.09874-2.4511 2.45703 0 1.35828 1.097 2.45898 2.4511 2.45898 1.3542 0 2.4532-1.1007 2.4532-2.45898 0-1.35829-1.099-2.45703-2.4532-2.45703zm15.9844.0488c-1.3541 0-2.4531 1.09484-2.4531 2.45312s1.099 2.46289 2.4531 2.46289c1.3542 0 2.4531-1.10461 2.4531-2.46289s-1.0989-2.45314-2.4531-2.45312zm-24.2578.32421c1.1367 0 2.0566.92298 2.0566 2.0625s-.9199 2.0625-2.0566 2.0625c-1.1363 0-2.0566-.92298-2.0566-2.0625s.9203-2.0625 2.0566-2.0625zm48.7402.0723c.4886 0 .9329.18677 1.2696.49023l-2.2403 3.05274c-.5549-.33305-.9257-.93895-.9257-1.63477 0-1.05324.8464-1.9082 1.8964-1.9082zm-16.2246.008c1.1361 0 2.0586.92298 2.0586 2.0625s-.9225 2.06447-2.0586 2.06445c-1.136.00002-2.0566-.92493-2.0566-2.06445s.9206-2.0625 2.0566-2.0625zm-15.9765.002c1.1366 0 2.0566.92494 2.0566 2.06446s-.92 2.0625-2.0566 2.0625c-1.1363 0-2.0567-.92298-2.0567-2.0625s.9204-2.06444 2.0567-2.06446zm-24.8399.1504c.8472 0 1.5332.6876 1.5332 1.5371 0 .84952-.686 1.54297-1.5332 1.54297-.8471 0-1.5371-.69345-1.5371-1.54297 0-.8495.69-1.5371 1.5371-1.5371zm-4.7051.082v.002c13.0693 16.69369 20.0147 34.04042 23.0704 52.48438h-2.1914c-3.6321-20.0603-11.8074-37.79273-22.8946-51.67774zm53.545.0156c.8963 0 1.625.72599 1.625 1.625 0 .899-.7287 1.63086-1.625 1.63086s-1.625-.73186-1.625-1.63086c0-.89901.7287-1.625 1.625-1.625zm-32.2657.12891c.8963 0 1.627.72599 1.627 1.625s-.7307 1.63086-1.627 1.63086c-.8962 0-1.623-.73185-1.623-1.63086s.7268-1.625 1.623-1.625zm15.9844.0449c.8963 0 1.6231.72599 1.6231 1.625s-.7268 1.63086-1.6231 1.63086-1.6269-.73185-1.6269-1.63086.7306-1.625 1.6269-1.625zm40.668 1.16797c.8614 6.6071-.8401 10.87084-5.8633 11.5625-6.405.88192-7.2376 1.36611-7.2734 7.44922-.042 7.21017-1.1037 9.29328-6.1953 9.86328-5.7281.6412-7.0588 1.322-6.545 8.46484.3749 5.21198-1.6734 7.42886-6.0839 8.39649-3.4488.7566-6.436 1.90643-7.7149 5.39258h-3.1523c.8188-5.49031 6.3208-8.06227 9.8476-8.24415 3.802-.90451 4.5963-2.18312 3.9805-8.86718-.4637-5.03225 1.3773-6.56085 7.2715-7.71094 4.7122-.93164 5.8659-2.28877 5.6093-6.1543-.55-8.28834 0-9.53493 4.6915-10.54297 2.3928-.56853 6.2898-.82294 7.7753-2.65625 1.6898-2.0853 1.2589-3.86019 1.1055-6.42187zm30.2734.2207v2.16797l-7.7617 4.80078v-2.10937zm-114.0586 1.28321c-1.6596 7.18596 4.0474 8.74826 7.5196 9.96093 4.0392 1.41074 5.0211 3.45578 4.5625 10.59571-.3469 5.40093.2454 6.59459 3.7324 8.44921 5.3336 2.76016 6.7676 6.68308 4.3984 12.42579-1.4606 3.54054-.6946 5.10297.2305 8.19336h-2.5859c-.1889.0592-2.3735-4.44929-.5098-8.66211 2.2082-4.99169 2.1453-7.49801-2.7774-9.74415-3.8087-1.73789-4.9779-3.37685-5.2148-6.95312-.1-1.50591-.088-2.25576.2637-5.5293.4431-4.12728-1.024-5.90202-7.1075-8.16992-2.7107-1.01057-4.5529-3.36337-5.1074-7.09375-.1554-1.04422-.016-2.24805-.016-2.24805zm90.9825.77929 23.1367 15.44141-.1602 3.43359-24.5449-16.44922zm-14.9082.3418c1.1191 0 2.0273.90894 2.0273 2.03125 0 1.12232-.9082 2.0332-2.0273 2.0332-1.1195 0-2.025-.91088-2.0254-2.0332 0-1.12231.9059-2.03125 2.0254-2.03125zm-72.7852.88672c1.0158 0 1.834.82308 1.834 1.84179s-.8182 1.84571-1.834 1.84571c-1.0161 0-1.8413-.827-1.8418-1.84571 0-1.01871.8257-1.84179 1.8418-1.84179zm110.7012.21679-.076 2.06836-7.6172 4.72461v-2.06836zm-110.7578.58399-.4883.8457-.4883.84571h.9766.9765l-.4883-.84571zm8.2968.77148h52.836l-1.3536 1.82813h-50.164zm-18.2754.0899c6.9962 9.14663 13.8726 18.72972 19.1758 36.48828l-2.2617.87304c-4.3781-14.29395-11.1123-26.32944-19.0527-36.15039zm120.8047 1.6289v2.26563l-5.8359 3.5625-1.7188-1.12305zm-123.8984.24414 1.0332 1.36133c-2.0961 1.86753-6.0282 3.73603-6.5176 6.15821-.5168 2.55793 1.7784 4.93553 4.0723 4.77539 2.9438-.20554 5.1933-2.28455 7.7558-3.88868l.8887 1.31446s-4.4393 3.33249-7.0449 4.09179c-5.7156 1.6656-9.9816-5.60168-5.7578-9.91601.6456-.65943 2.0077-1.54428 3.0937-2.24805 1.114-.72185 2.4766-1.64844 2.4766-1.64844zm23.5254.90039 48.5664.28907-31.0156 42.89258h-1.377c-2.4043-15.90393-8.3677-30.24896-16.1738-43.18165zm-21.1778 1.80274 2.8379 3.97656s-1.8493 1.77309-4.9043 3.44922c-2.45 1.34392-5.0999-1.0987-3.5586-3.30078 1.5825-2.18678 5.625-4.125 5.625-4.125zm121.5508.40625v2.07422l-3.3633 2.0664-1.5371-.98437zm-121.7832 1.59375c-1.408.0191-3.6104 1.53491-4.4609 2.92383-.3269.56809-.21 1.04598.092 1.43554.4593.59286 1.0022.55875 2.6172-.30468 3.2978-1.76274 3.9155-2.80839 2.4629-3.8418-.2007-.14276-.4421-.2078-.711-.21289zm-.074.81641c.1695-.013.3422.0164.5078.0605.596.15878.395.94553-.2012 1.11328-.1309-.20766-1.1208-.23545-1.0546.77344-.2407.5716-.2314.52852-.9571.60938-.4811-.11675-.8006.21659-.8945.42773-.5003.26844-1.1139.18407-1.2285-.11914-.1107-.29382.3006-1.14073.6484-1.13867.1673.0134.4651-.23651.7715-.44336-.011-.55186.6368-.63319.8242-.63086.1834.0386.8016.0469 1.0996-.45899.1487-.12521.3149-.18038.4844-.19335zm121.8574.53124v3.19727l-2.4375-1.5625zm-134.7558.4004c8.8445 10.47586 15.2153 21.6257 19.2695 37.05664l-1.7734 1.22851c-2.6796-10.81878-6.805-22.25149-19.0118-37.11328zm103.4824.17578c4.0042 3.4114 20.4156 18.90564 23.543 46.40429l-2.1954 1.34961c-1.7633-14.51397-7.4551-31.15406-22.7656-45.90234zm-7.9121.95508c1.1189-.00002 2.0253.90894 2.0254 2.03124 0 1.12231-.9065 2.03124-2.0254 2.03126-1.1192 0-2.0274-.90895-2.0274-2.03126 0-1.1223.9082-2.03124 2.0274-2.03124zm-98.0332.79296s1.8584 1.91669 1.8554 2.37305c-.01.90317-.7224 1.41557-4.9941 2.97656-.7211.2635-3.875.99414-3.875.99414l.074-1.56836c1.6101-.58226 5.7419-1.58867 6.0586-2.50976.1547-.36214-.6139-1.2793-.4512-1.2793zm29.4687.39063c1.0161 0 1.836.82895 1.836 1.84765 0 1.01872-.8199 1.84571-1.836 1.84571-1.0156 0-1.8418-.82699-1.8418-1.84571 0-1.0187.8262-1.84765 1.8418-1.84765zm74.4473.52734c13.3699 13.09962 20.728 29.28681 22.4473 46.00196-15.5703 12.70183-26.1485 28.67045-30.3516 48.64648-2.0768-3.47284-3.8448-7.46614-5.7656-11.36914 20.7765-18.31293 25.1493-51.29162 7.1797-74.41016zm-74.3926.28516-.4883.8457-.4883.84571h.9766.9766l-.4883-.84571zm-7.375 2.21289.9356 1.45508c-1.6919 1.5942-6.8354 3.03823-7.2969 6.52539-.2548 2.52106 1.5225 5.18092 4.0293 4.77148 2.8853-.47124 4.6872-1.64443 7.2578-3.12109l.7305 1.51953s-2.0466 1.67092-5.9903 3.12109c-3.7088 1.3638-7.2145-.95936-7.873-5.25586-.4796-3.12336.8789-4.79816 6.289-7.87695.6087-.32314 1.918-1.13867 1.918-1.13867zm63.707.68945c1.1193 0 2.025.91284 2.0254 2.03516 0 1.1223-.9061 2.03125-2.0254 2.03125-1.1191 0-2.0273-.90895-2.0273-2.03125 0-1.12232.9082-2.03516 2.0273-2.03516zm-82.623.0801 1.2226 1.15625s-.5258.77824-3.541 2.59766c-2.7103 1.63563-2.9902 1.37005-1.6406 2.51367 2.5159 2.13173 6.0052 6.85252 5.9863 8.07226-.018 1.17485-1.0663 2.25808-3.0781 3.16602-1.1014.49712-5.4612 2.05612-6.1016 2.16797-1.2726.1396-1.6307.65184-.3574 1.8125 2.1625 2.48805 4.0074 7.81176 3.2656 9.43555-.8358 1.82884-1.8382 2.13797-9.8476 2.50585-.9126.0419-1.3481-.21637-.8536.95508.3598.85111.7374 2.02051 1.4512 5.63282.6363 3.2215.5283 4.66997-.7187 5.33398-.7168.38136-6.2887.24638-8.5899-.20703-2.6338-.51907-2.9185-.55392-2.4922 1.16601.5524 2.37539.8949 8.74217-.8965 9.97071-.7455.48673-1.5475.3685-4.8183-.73633-2.0862-.70473-3.8945-1.51367-3.8945-1.51367l.037-1.97266c1.7005.70211 6.3617 2.71968 7.6875 2.08203 1.5725-2.25926-.6109-10.18219-1.4453-11.8789-1.0071-2.02612.045-2.46735 2.3652-1.21094 1.2175.86042 11.7055 5.00577 11.1094 1.29492-.6395-3.52131-1.7781-7.52796-3.9903-10.04492-2.0459-2.32783-1.0271-3.28023 1.25-2.25977 4.0297 1.80587 12.3542 1.36427 11.9395-.50781-.5486-3.04447-3.3042-7.17131-7.0781-10.37109-1.0494-.88976-1.0895-1.27126.1484-1.49024 3.525-.28165 13.6135-1.31986 12.2031-3.69531-1.2099-1.94442-2.8267-4.09652-4.2031-5.25391-2.2602-1.9005-4.5403-2.72398-5.5508-3.11914l.064-1.45703c4.5943-.38273 6.9824-1.76809 10.3652-4.14453zm-11.1211 1.43359c-1.6474 17.32228-8.8728 31.59396-23.7852 41.54883l-.082-1.9414c13.1103-9.87741 19.4033-23.91585 21.1094-37.5zm12.6621.81836 1.2246 1.10352s-.3151.47905-2.0801 1.89453c-1.3733 1.05989-.8939.64101.041 1.90234.8325 1.0011 2.3125 3.01368 2.3125 3.01368l-.4395 2.67578c-1.552-2.2171-2.8412-3.82977-5.1445-6.19922-1.1701-1.20953-1.1023-1.24279.5683-2.11524 1.2519-.69429 2.2711-1.53724 3.5176-2.27539zm19.0449.22461c.011-.003 2.4717 4.37657 2.4688 4.76953-2.8919 1.80914-6.558 4.80502-8.4121 1.47071-.5677-1.07046-.2067-2.46755 1.2597-3.43164 1.956-1.42862 4.5009-2.76496 4.6836-2.8086zm14.4317 1.5c1.0156 0 1.8354.82114 1.8359 1.83985 0 1.01871-.8203 1.84765-1.8359 1.84765-1.0157 0-1.8418-.82894-1.8418-1.84765s.8261-1.83985 1.8418-1.83985zm-14.8731.15235c-1.7516.4634-3.4694 2.03345-4.4336 2.72461-.3511.25171-.073 1.51473.2637 1.94921.4328.55782 1.2307.4655 2.1856-.0664.4002-.22295 1.1246-.58784 1.6054-.81055 1.3466-.62366 1.9083-1.08741 1.8594-1.60742-.2158-.69954-.7657-2.24012-1.4805-2.18945zm-35.248.67187c.3781 1.94406-.791 5.35882-1.4531 7.28321-3.9222 5.14604-9.6103 7.77737-15.0176 9.57421-1.2015.40011-2.8164.19727-2.8164.19727 7.4823-7.7203 13.8993-13.38054 19.2871-17.05469zm50.1191.0645-.4883.84571-.4882.8457h.9765.9766l-.4883-.8457zm-14.6816.12305c.2774.0501.4522.49396.5976.97461-.844.4578-1.3119.0696-1.2031.71094 0 0 .083.99807-1.1523 1.02148-.3014-.13217-.8261-.10754-1.0801.15039-.8638.35861-1.619-.40106-.6797-.83203.2543-.11655.8821-.31511 1.0547-.70312.089-.48094.4875-.86454.9219-.59766.2312.0166.7468.0532.914-.31445.2575-.32906.4605-.44021.627-.41016zm-50.7735.8125c-.1493.0122-.2934.0397-.4394.0625-.3641.3425-.9424 5.70591-.5645 6.0918.5253.5363 1.9736.68354 2.1114.0449.454-2.10427.3436-3.67481.5605-5.44922-.7252-.69494-1.22-.78656-1.668-.75zm.5606.57422c.7953.3287.4075 3.17549 0 4.49023-.2121.798-.8265.6176-1.0586-.11718-.2412-.76371-.04-2.93308.416-3.82227.2432-.41904.4603-.5928.6465-.55078zm34.6426.0156 1.2793 1.59375c-2.7129 25.8453-21.1161 48.20502-40.7676 57.07031l-.059-1.71485c22.481-11.84341 36.0106-31.55991 39.5469-56.94921zm88.9414.10742 2.4355 3.36133-3.4902.10937zm-104.5254 1.09375c1.2058 0 7.6077 3.95307 6.7519 5.92187-.681 1.56682-6.0392 1.69222-8.4961 1.47266l.3692-1.50781s.7484.26013 3.6035-.043c2.9983-.20085 2.778-1.2346-.6582-3.41602-1.4789-.92836-1.8203-1.15625-1.8203-1.15625zm17.7441 2.11914c1.9839 3.35423 3.8626 7.13458 5.627 11.36914-24.2081 22.91302-22.3298 54.11702-7.0664 74.59765l-6.5762 8.90235c-13.1509-12.58582-20.3119-28.06815-22.7305-44.51367 19.1958-13.85284 28.2147-34.52599 30.7461-50.35547zm89.8965 1.01562 1.4453 2.77149-3.4707-.0586zm-14.9902 1.38867c1.1191 0 2.0273.90894 2.0273 2.03126 0 1.12229-.9082 2.02734-2.0273 2.02734-1.1193 0-2.027-.90505-2.0274-2.02734 0-1.12232.9081-2.03124 2.0274-2.03126zm-56.3262.54688.6895 1.57422c.032.19729-4.8585 1.79173-6.4864 3.76562-3.3629 4.07767.729 7.64269 4.2696 6.56055 1.9342-.59119 3.3536-1.39808 5.2714-2.37891l.3399 1.01954c-2.5406 1.37666-4.6701 2.94607-7.4531 3.0039-4.7827.0994-7.4863-6.30036-3.3731-9.76367 2.0969-1.76557 4.3125-2.53347 6.7422-3.78125zm63.3105.97656c15.7892 22.84289 4.9795 47.87293-5.2148 56.72852l-.2734-2.6875c17.1652-19.61189 11.1938-42.51631 4.041-52.69727zm10.1602 1.02539 1.2402 2.82227-3.666-.38867zm-63.6406.92188c1.0156 0 1.8398.82894 1.8398 1.84765s-.8242 1.8418-1.8398 1.8418-1.8375-.82309-1.8379-1.8418c0-1.01871.8223-1.84765 1.8379-1.84765zm51.5976.36133c13.8389 20.16543 6.1201 52.3221-20.2773 62.11718l-.1328-2.25586c26.915-11.28653 29.5587-41.33302 18.7441-58.2871zm-59.9882.12304 1.748 4.73633c-2.1999 1.47821-3.6862 1.98584-5.5273 2.33008-2.6055.48717-4.113-2.82397-1.9649-4.21289 1.8909-1.22264 3.5365-2.1111 5.7442-2.85352zm-44.8829.0176c.3254-.0154-.018.79146-.8535 2.82031-1.8405 4.47039-1.9648 4.56586-6.5996 5.30274-2.4119.38348-4.2096.47961-5.9238.31445-2.5864-.24927-3.6934-.98252-2.0176-1.33594 4.8596-1.07136 10.2326-3.59673 13.7266-6.04101.9104-.65515 1.4453-1.05001 1.6679-1.06055zm53.2891.38086-.4883.8457-.4902.84571h.9785.9766l-.4883-.84571zm34.6699.16992c1.2566 0 2.2789 1.02276 2.2793 2.28321 0 1.26043-1.0227 2.28125-2.2793 2.28125s-2.2734-1.02082-2.2734-2.28125c0-1.26045 1.0168-2.28321 2.2734-2.28321zm-68.4843.63086-.504 1.75781s-2.8077 1.4877-4.1367 2.04883c-1.0162.41251-1.0876.50327-.7617 1.44727.6572 1.88581 1.9258 4.22461 1.9258 4.22461l-1.1738 2.66601c-.7162-2.39755-1.4703-4.931-2.7871-7.16406-1.2485-1.74711-1.4824-1.96268.4609-2.32812 2.5097-.84715 4.7727-1.4613 6.9766-2.65235zm24.7617.57227c-1.3735.0602-4.2434 1.21691-4.5274 2.32422-.161.62556.017 1.50074.5449 1.69726 1.428.53168 4.2949-.64647 5.0508-1.72265.2354-.33198-.1223-1.0197-.375-1.44922-.1928-.32809-.1552-.87319-.6933-.84961zm-.016.92383c.051-.003.1043.004.1582.0195.2328-.0204 1.0801 1.05346.129.96289-.3277-.0312-.6257.0931-.8946.37304-.033.51633-.7713.71092-1.1269.53516-.2646-.13078-.6361.13875-.6739.29883-.5339.3861-1.2087.36817-1.2949.0937-.1809-.19248.3568-.98226.8262-.95313.101.006.4346-.21972.7461-.49023.1493-.5394.7162-.44639 1.0742-.41797.3969.003.6984-.40372 1.0566-.42187zm74.4317.10156 1.0156 2.82617-3.6289-.32422zm-16.8047.62109c1.2185.34674 1.8948 1.49007 1.2227 2.63477-.7508.95926-1.4426.96899-2.5372.91797.8965 1.06455 1.293 2.5376.42 3.50195-1.3271 1.35722-3.8871-.72368-3.6973-.91406zm-98.5332 1.03516s5.5832 4.82444 5.623 6.98633c.016.82396-.2476 1.09028-.9043 1.30859-2.1936.72936-8.2988-1.14453-8.2988-1.14453l.7852-1.49414c.961.26578 5.6909 1.49286 6.0976.88867.4223-.6273-3.9514-4.90734-3.9609-4.91211zm27.7129 2.01562.6699 2.33399-2.2832-.57032zm89.168.41797.5957 3.22461-3.6563-.85547zm-69.7012.0508.5449 1.89258c-24.2542 11.28083-31.3376 37.18904-18.6894 58.56836l-1.4297 1.9707c-16.9306-27.51698.2185-55.44646 19.5742-62.43164zm-55.1582 1.90235c.397.0182.5862.1795.498.55468 0 .38734-2.4508 3.5232-3.2441 4.22852-1.72.69687-8.3567-2.0843-9.3477-4.23633-.1953-.63027.4601-.35455 1.9297-.0547 3.5397 1.01247 7.1379-.13006 9.6992-.46484.1759-.023.3325-.0334.4649-.0273zm64.5469.041c1.0158 0 1.8378.82308 1.8378 1.8418 0 1.01871-.822 1.8457-1.8378 1.8457-1.0161 0-1.8379-.82699-1.8379-1.8457 0-1.01872.8218-1.8418 1.8379-1.8418zm-31.2403.0391.3281 2.8711-2.8164-.16406zm31.1992.86915-.4882.84765-.4883.8457h.9765.9766l-.4883-.8457zm-76.3613 1.36328c1.8461 1.66413 4.5594 3.03934 6.9649 3.51953 1.4977.33087 1.0645.48523-.3243 1.92383-1.2991 1.3615-1.193 1.53405-2.5156.86132-2.2069-1.12251-4.6085-3.67312-4.5117-5.06054.04-.57762.1407-1.24697.3867-1.24414zm137.7656.31054.4571 3.0625-3.4571-1.19921zm-96.039 1.10352 1.1269 2.74414-3.0664-.0879zm75.875.6543c1.4449-.0668 2.0066 1.0538 2.0156 1.96679 0 .38358-.094 1.0293-.094 1.0293 1.8025-1.15057 4.1963-.20482 4.125 1.6543-.1003 2.62104-1.3784 2.64642-3.4667 2.29882 1.1432 1.90152-.2143 3.73201-2.3633 3.03126-1.9594-.63892-1.5798-2.71121-.6641-3.93946-4.6219.75594-5.8577 7.35067-.5195 9.31055-1.0732-1.66585-1.3417-3.65593.9863-3.99024 2.1622-.31049 3.0788 1.33369 2.1445 3.3125 2.0312-.7082 3.9456.46083 3.334 2.44532-.7385 2.39644-2.8636 2.23119-4.1172.77148.8998 2.17228-1.1811 3.73614-2.7519 2.89453-2.4767-1.32693-1.2515-3.69429.4082-4.32422-6.3776-.65892-7.8595 8.18751-3.1582 9.44922-1.2072-.75904-1.3415-4.24087 1.414-3.76367 2.7061.54604 2.0599 3.06627.3243 4.21289 2.0952-.44868 4.0583 1.38768 2.7832 3.24414-1.5033 2.18856-3.578.62796-4.3477-.86133.2421 1.99733-1.0224 3.27066-2.6523 2.52149-2.7978-1.28594-.7323-4.50693 1.455-4.30078-4.4377-2.62993-10.4701 2.88774-6.916 7.45508-.1383-2.07471.8933-3.77795 2.3145-3.54297 1.2509.14139 2.3442 1.57157 1.9922 2.69531-.3275.95828-1.4175 1.69304-2.5586 1.92383 3.3934.3776 3.6836 2.7859 2.2773 3.97265-2.3877 2.01501-3.4969-.31181-4.0508-1.67187-.4855 3.38067-4.4598 2.23164-4.5976-.21094-.1353-2.67653 2.9444-2.62118 3.5137-2.4707.072-.0926-2.8281-2.64169-5.4473-2.98828v-.96094c10.3272-6.49598 14.3395-18.31634 11.0625-29.06836l.6211-.7168c1.6836 1.29031 3.3739 4.05596 6.4883 3.04102 0 0-.7255-.5091-1.084-.86328-1.6033-1.58474-.7006-3.45356 1.5293-3.55664zm-68.043 1.96093 1.0703 1.57422c-15.6593 18.4008-12.8058 39.45322-3.8008 53.39063l-1.3105 1.58984c-7.9699-10.24842-14.4775-35.09564 4.041-56.55469zm-49.6309.22852c1.2936.74905 2.1583 1.87941 3.3653 2.86719.9322.75793.9197.89282.1484 1.61328-1.7339 1.67734-2.709-.75131-3.2695-1.74414-.6865-1.32969-.7565-2.68611-.2442-2.73633zm60.8926.0762c1.0993.0234 2.1013.9772 2.084 2.23828-.021.40973.01.73828.01.73828s.3381-.41831.6113-.92187c1.3371-2.24242 4.2131-.95191 3.7403 1.62305-.2218 1.2076-2.2504 1.67899-2.8027 1.33398.5258 1.43905 1.9499 1.77766 3.6835 2.40039.6064.11622 1.8106.41211 1.8106.41211v.97461c-9.3929 5.93534-14.8339 15.99853-11.3906 29.76172l-1.0391 1.41015c-1.8951-4.57146-3.623-4.47116-6.7383-4.65039 0 0 .7749.54794 1.2207 1.07618.9444 1.11973.5243 3.07214-.7832 3.27539-3.0286.47075-3.0587-1.68328-2.6582-3.14258 0 0-.5414.45599-.8066.6289-1.2015.78339-2.6977-.0285-2.8379-1.58203-.1316-1.46206.365-2.40817 1.8652-2.58984.5035-.061 1.2813.0664 1.2813.0664s-.2988-.57345-.4629-.89649c-.718-1.41295.8582-2.62132 2.3047-2.3164 2.283.55201 2.1016 2.52749.7793 4.08007 3.5411.26691 5.3997-2.05586 5.1386-4.36133-.3185-2.81242-1.6108-4.33213-4.3964-4.82226 0 0 .4502.70668.6425 1.04883.713 1.26824-.3118 2.82723-1.8105 2.81836-1.5367-.01-2.5199-1.42407-1.9277-2.81836.1442-.33967.7206-.76557.6328-.80469-.061-.0269-.8524.21984-1.0704.25391-1.8463.28869-3.0317-1.34007-2.2578-2.9668.5482-1.15225 2.1971-1.46354 3.3946-.89844.1902.07.4208.33823.457.2793.035-.0571-.1214-.43474-.1699-.70117-.3794-1.49015.3337-2.28725 1.9433-2.1836 2.2531.1451 3.0919 1.98788 1.5782 3.64844-.3907.42853-.9883 1.0625-.9883 1.0625.075.32657 3.2108.56413 4.8144-1.11914 1.856-1.94807 2.1503-6.01339.2852-7.33984-.3078-.21891-.9258-.6543-.9258-.6543.8881 1.78662-.7473 3.8413-2.1894 3.45703-2.8843-.69776-2.635-3.06433-.7383-3.8125 0 0-1.9226-.72168-2.4766-1.49805-.7833-1.09764-.5195-2.10926.4199-2.88086 1.1838-.95404 2.864-.3283 3.6758.84961.4902-1.49823 1.1831-2.51078 3.2266-1.69531 1.4288.68414 1.4152 2.5955-.1582 3.63672-.5042.33364-1.4004.64453-1.4004.64453s1.3522.77445 2.998.79297c3.1751.0357 5.6887-3.7188 4.4082-6.58789-.2599-.58242-.9101-1.33399-.9101-1.33399s-.07 1.00353-.2676 1.38868c-.7334 1.43062-2.4208 1.45491-3.418.55273-.9063-.82004-.6403-1.91647.062-2.66406.5333-.56726 1.0151-.67976 1.7598-1.02735-.8459-.2866-1.7881-.49354-2.1992-1.37109-.3821-.83656-.1131-1.8663.9004-2.50391.3538-.22195.7312-.31638 1.0976-.30859zm77.7559.38672.2168 3.24414-3.6055-1.38672zm-99.3438.19141 1.2969 2.94922-3.3476-.0137zm69.9551.004c3.1465 11.66433-1.8082 20.68415-10.2031 27.24219v-1.86914c6.562-5.59165 11.0727-12.18233 8.9023-23.92383zm-96.4629.0391s4.8607 6.3149 3.8906 8.45118c-1.2873 2.03797-8.9543-2.35083-8.8535-2.58203l.9629-.92579c1.2172.49542 5.0068 2.59119 5.8457 2.25977.2932-1.9081-1.9435-4.37921-2.7851-6.02344zm57.8926.53321h36.9082l-1.1035 1.77734h-2.875l-5.7031 10.45313h-26.5254zm-41.4238.49609-1.2754 2.31446c-1.1947.3676-4.7995.43191-5.0899.67187.4352 1.18616.9141 4.67187.9141 4.67187l-1.4219 1.82227c-.3789-2.24173-1.0114-5.07598-1.5703-7.1543-.478-1.76281-.3432-1.37508 3.4004-1.66601 1.6777-.0951 3.4052-.30817 5.043-.66016zm7.5703 2.78906 1.5176 2.70313-3.0762.0312zm-36.959.18164c.1676-.0687 1.1196 1.0019 1.2832 1.31055-.07.70278-1.1566 1.08673-1.3242.83594-.068-.10117-.089-1.6782.019-2.11523 0-.0168.01-.0267.022-.0313zm139.2246.0371-.031 3.38282-3.6563-1.625zm29.0293.76368-.051 2.1914c-13.2589 6.49521-33.1592 24.1056-38.8008 55.38477l-1.0332-1.54883c5.638-29.8648 25.0966-47.42389 39.8848-56.02734zm-133.3711 3.01562 1.6485 2.49219-2.9766.32617zm104.4141.95703-.293 2.9961-3.5996-2.00196zm-69.1465.62305c.014.71105-.043 1.22363 0 1.93359-8.1701 5.30506-10.9309 13.6533-9.5703 24.16016l-1.1309 1.67773c-2.6587-9.52653.1431-21.26535 10.7012-27.77148zm-67 .41016s3.1122 7.02909 1.8828 8.68554c-1.196.97783-3.9535-.64935-5.207-1.3125l-.035-1.68164s.9554.49159 1.918.87695c1.9775.8794 1.9818-.16731.8984-3.10351-.3809-1.03246-.7578-2.22852-.7578-2.22852zm161.6074.20898c.833.48988 3.5313 1.28711 3.5313 1.28711l-.029 1.99219-5.5606-2zm-131.8144 2.16992 2.1289 2.23438-2.9668.68164zm129.1464.25195c.2005-.0145.4094-.009.627.0176 1.8842.002 5.5156 1.53711 5.5156 1.53711l-.022 2.21094c-1.845-.53582-3.9887-1.56522-5.9394-1.85352-1.5409-.21354-1.4506.65267-1.459 2.83594-.011 2.95806.7306 5.62982 2.1406 8.58789 1.1678 2.44992.5576 3.10547-1.3496 2.01172-3.4327-2.36289-10.7471-4.14615-11.873-2.77148-1.158 1.41388 1.123 8.45394 3.7597 11.8125 1.0711 1.3644.9475 1.45636.4473 1.98828-.4053.43054-.8692.58395-2.0254.21484-3.803-1.21397-9.3071-1.48725-10.8926-.45898-1.5737 1.0209 2.5227 8.07192 5.961 10.34765 2.23 1.59572 1.7999 2.3895-1.8047 2.47071-5.8859.0278-10.4151 1.34341-10.1641 2.95508.4267 2.73934 4.2381 6.49617 8.6133 8.49023 2.6778 1.09706 1.5592 1.53398-.2207 2.16797-2.9768 1.00829-5.8378 2.62256-8.6387 4.13086l-1.3457-1.72656s2.8181-1.79889 5.8828-3.5254c.7185-.40477.6801-.55266-.3261-1.39843-3.2646-2.74541-5.6597-5.80684-6.1602-7.86914-.4868-2.00416.5107-3.27176 3.4766-4.40235 1.8322-.6985 2.508-.90169 4.125-1.26562 2.3301-.52437 2.3691-.59775 1.373-2.39453-.4467-.80579-1.1785-2.13732-1.625-2.95703-3.472-5.95533-1.6408-8.1043 6.418-8.22657 1.9789-.10436 2.3566-.11022 2.248-.79492-.4288-2.80556-1.6674-6.02696-1.4922-8.4043.369-3.58501 4.0458-4.45124 10.5059-2.83398 1.4958.37448 1.6007.29744 1.3379-.91406-1.1722-5.11726-.1005-9.76548 2.9062-9.98243zm-23.082.39844-.5644 3.47656-3.4414-2.29492zm-128.6621.82227 9.4902.62305-1.5078 1.77343-5.7344-.10742-.2148 4.91016-1.8574 1.82226zm61.4961.375h7.75v8.28515h-7.75zm9.3086 0h7.2695v8.28515h-7.2695zm8.7051 0h7.7246v8.28515h-7.7246zm68.0879.66015c-.1839 2.1301.2619 5.98121.4414 7.63477-.1263.49226-.4664.42256-2.5078-.041-1.4156-.47471-5.3399-.61523-5.3399-.61523l1.6445-1.74805c1.3443.16039 2.4051.14791 3.7969.32227-.019-1.39488.039-4.05859.039-4.0586zm-126.2403 1.64063 2.1817 2.20117-2.793.7168zm106.5489.7168-.8672 3.54492-3.1602-2.84961zm25.5488.0977c1.5791-.0372 2.8994.49988 4.3574 1.78516l.014 1.80859-3.1055-1.40234c-.035 2.06245 1.7852 5.78906 1.7852 5.78906l-1.584 1.3418c-1.278-2.09481-2.0598-4.62212-2.1328-6.98242.016-.85421-.1012-2.29989.666-2.33985zm-133.1621 3.57617 2.5937 1.54493-2.875 1.16601zm106.6211.79297-1.2696 3.64649-2.7715-3.15625zm-137.4493 1.16211 7.3477 2.61914-1.5996 1.08203-5.8106-1.83984zm71.7579.96289h26.3671l.5762 12.92188-36.957-.30469 1.2871-1.82617 2.4004-.0215zm-41.4219 1.00586 2.7461 1.94532-2.8555 1.26367zm138.1797 1.14063.01 2.11328c-8.9224 6.61174-18.6827 17.89436-20.3242 38.04297l-2.293 2.05468c1.1747-19.67333 9.3417-33.11399 22.6114-42.21093zm-32.5508.0781-1.2969 3.2793-2.5664-3.05273zm10.6309.60352c-.055 1.95025 1.5195 8.0039 1.5195 8.0039-2.4325.12013-4.7922-.15918-7.418.58008l1.2363-2.21289s1.1438-.12089 2.1446-.32031c2.0681-.41222 1.8531-.16095 1.373-1.96484-.4514-1.69616-.4765-2.04883-.4765-2.04883s1.4725-2.04775 1.6211-2.03711zm6.8124.41211c2.425.0195 6.0648 2.20123 7.6973 3.44531l-.8594.96289c-.2423.0811-3.6453-1.74681-6.3203-2.17578.8758 1.73743 1.2914 3.03395 3.2305 5.78711l-1.25 1.5625c-.3765-.0839-5.2249-7.59136-3.9414-9.21289.3905-.26384.8838-.37363 1.4433-.36914zm-143.1953 1.67968v.002c3.1925 19.39878 10.8231 32.71832 22.8594 44.70508l-1.2246 1.60351c-14.1492-12.98859-21.8731-29.51758-23.8926-45.0625zm19.9102.81641 2.6035 1.42383-2.6738 1.5625zm138.3574.0566-.016 2.84571-1.6309-1.64844c.4399-.39891.9741-.79836 1.6465-1.19727zm-34.3008.58203-1.7734 3.26758-2.3164-3.0957zm31.7774 1.40821c2.3597.32909 3.1169 5.05817 2.332 5.97851-.3646-.57556-3.6121-2.60135-5.0859-3.45117-.094-.24991 2.2821-2.38021 2.7539-2.52734zm-37.9356 2.42773 3.7774.35938-2.0059 3.125zm-97.8613.002 2.9434 1.43946-2.6719 1.88672zm132.8066 1.38868c.4901.003 1.0412.20981 1.7286.59375 2.6593 1.48562 4.0555 3.11237 3.9082 4.55859-.068.66414-.4386.79928-.8692.31641-.7757-.86999-3.3919-2.00273-5.6465-2.44532-1.7084-.33537-1.866-.48291-1.3535-1.27539.7768-1.20208 1.4166-1.75315 2.2324-1.74804zm-45.4863 1.37109c4.0894 15.53066 11.4458 27.62535 20.4707 37.46289l-2.039 1.45508c-6.8528-7.88568-14.3901-17.11222-20.545-37.06445zm-48.1855.77344h3.0508c.01-.003.019 0 .019 0 .4381.0149-1.2987 6.8483-7.3008 7.30468-3.7997.63257-4.2277 1.27275-4.2852 7.20508-.078 8.04135-1.3727 9.92306-7.9257 10.41992-4.3395.32905-4.9103 1.21564-4.1758 7.46485.6989 5.94791-1.542 8.982-7.0703 8.97656-4.7884.39779-6.7666 2.63618-6.7617 7.08594 0 1.80275.029 2.23828.029 2.23828l-3.0937.24219s.01-2.92732.2402-4.35157c.9433-5.75691 3.4041-8.06281 8.584-8.03711 4.0047-.3056 4.6267-.95766 4.4883-7.04687-.155-6.19363-.2364-6.1514 1.375-7.77344 1.0373-1.04437 2.2213-1.5142 4.3242-1.71289 6.5495-.61882 7.065-1.05632 7.0488-7.79297-.6075-5.59666.9362-9.0229 4.4805-9.30468 7.0527-.53618 6.9727-4.91797 6.9727-4.91797zm10.1406 0h3.3281l-38.3281 54.37304-2.0195-1.52734zm4.6504 0c3.6008 13.11541 6.4347 26.21053 17.7578 43.36718l-48.0332-.3164zm1.2324 0h1.7129c4.2069 22.75417 17.5147 44.2854 24.8184 52.15039l-1.4239.75781c-10.646-13.26273-20.3223-28.74916-25.1074-52.9082zm9.2988 0h2.7305c.2797-.12996 1.4088 6.95642-.2734 10.08008-1.5121 4.22772-.7716 6.60998 2.5175 8.15039 5.648 2.64499 7.0722 5.2858 6.3555 11.78125-.5016 4.54787.8707 6.74583 5.127 8.20703 5.077 1.74298 7.2962 4.48089 7.2695 8.96875 0 .68897-.2598 1.47656-.2598 1.47656l-2.834 1.66992s.034-.60934.1426-1.33984c.7385-4.97535-.2005-6.3257-6.0566-8.67188-5.5309-2.21585-6.9023-4.77872-5.961-11.16797.3076-2.08389-.1163-4.18913-.9765-5.77539-1.4475-2.58569-4.647-2.56072-6.9473-4.92187-1.9005-2.02196-2.1138-4.84679-.4941-9.68164 1.2256-3.67947 1.199-5.40673-.3399-8.77539zm31.0274.0566 3.7773.57422-2.2109 2.82617zm-95.0059.98633 3.2598.90234-2.4531 2.55469zm129.4043.67773c1.1188-.0305 3.2817.36161 5.0528 1.24609 4.0624 2.0296 4.8003 3.6942 1.2402 2.79688-2.0077-.50604-4.8934-.39187-7.6778.29883-2.9426.72988-2.8805.76253-1.8671-1.02149 1.2832-2.25908 1.6165-3.27566 3.2519-3.32031zm-14.6523.84961c2.4637-.0376 4.9469.66872 7.2812 1.54687l-.7402 1.27344c-1.6144-.26835-3.3124-1.06065-5.7715-.86523 1.0082 1.93522 2.2032 2.93389 3.8066 4.64062l-.5976 1.28125c-.1437.17298-4.6838-3.62649-5.5938-6.17968-.4109-1.15306-.038-1.65495 1.6153-1.69727zm-53.3907.29492c1.2166 0 2.2012.989 2.2012 2.20899 0 1.21998-.9846 2.21289-2.2012 2.21289-1.2165 0-2.2009-.99291-2.2011-2.21289 0-1.21999.9846-2.20899 2.2011-2.20899zm45.5977.0664s3.5876 7.11886 3.3594 7.39062c-2.224.98318-4.6519 1.4912-7.0957 2.38477l.4687-2.07031s.8144-.0556 3.5469-1.09961c1.3085-.49994-1.4277-4.15039-1.4277-4.15039zm-14.5781.53125 3.7187.66992-2.4804 2.78516zm-69.541.0273c.88-.0701 2.2382 1.63976 2.2343 1.64258l-4.5078 6.24609c-2.145-.43274-1.6873-3.69171.2774-3.79101.4538.003 1.2832.0801 1.2832.0801s-.605-.32977-.9532-.79297c-1.3169-1.59501-.07-3.24643 1.6661-3.38477zm37.4804.94922.4883.8457.4883.84571.4883-.84571.4883-.8457h-.9766zm21.8164.5957c5.2352.0437 5.3013 6.48774 4.2989 8.61914-.7288 1.46259-1.8382 2.27456-5.1895 3.79297-2.9045 1.31599-3.2285 1.22656-3.2285 1.22656l-.6934-1.55273s1.6907-.7488 3.5118-1.48633c3.7649-1.52477 4.6799-2.69065 4.2675-5.42187-.5838-3.86708-3.5628-4.46666-9.3242-1.875-.6686.30068-1.5117.60156-1.5117.60156l-.3945-.7793c.092-.0768 4.6143-2.45325 7.1484-3.04297.3962-.0571.7662-.0849 1.1152-.082zm-80.9746.70117 2.9629.98047-2.1601 2.12891zm131.9532.83008c2.6176-.007 4.7737.43686 4.7675 1.37305 0 .44424-.1041.48164-2.455.80859-3.5726.49683-9.5434 3.55596-12.9024 6.39454-1.9893 1.68109-1.4749 1.29059-.6367-1.14649.8333-2.42426 2.0784-5.31823 2.7519-5.75977 1.683-1.10312 5.508-1.66168 8.4747-1.66992zm-42.8008.33594 2.5176.55274-1.6387 1.59374zm-8.4434 1.37305c2.0438.10372 2.6763 2.13903 1.7539 3.41406-1.5099 2.08717-6.9181 3.78516-6.9179 3.78516l-1.836-4.94141s4.211-2.39939 7-2.25781zm-8.5176.59765c5.8283 16.53703 12.9605 27.2789 20.5078 36.17969l-1.8242 1.14453c-8.0163-9.51217-15.3954-20.65842-20.7109-37.0664zm64.3672.44922c.2773-.002.4417.0852.3809.36328-.1481.67752-10.4882 10.66066-16.4824 15.73438-2.7311 2.31177-2.6377 2.29137-2.8711 2.00586-.1468-1.71767 1.016-7.84863 1.7207-8.91797 4.0033-4.25152 10.1671-7.76764 16.1894-9.01172.3933-.0812.7852-.1719 1.0625-.17383zm-56.2832.13867c-.7061.02-1.7645.44938-3.1777.9961-2.0552.79519-2.2317 1.75439-1.3106 2.94336.4019.51867.8158.40605 2.7911-.37891 2.0166-.80157 2.8863-1.15866 3.0078-1.8789.1762-1.05003-.4024-1.70731-1.3106-1.68165zm.1074.5625c.7108-.006.6964.45226.7774.75391.083.31041-.4665.63175-.9473.62891-.1702-.00099-.5859.0944-.8476.36523-.2593.37677-.4273.73947-.8946.65039-.2723-.0519-.7741-.0701-.9707.10156-.9206.80382-1.8377.13904-1.4121-.66796.1075-.20331.4811-.30648.7832-.30469.2616.001.8587-.0603.9453-.38281.1037-.38499.6919-.49124 1.1016-.47852.4457.0599.8043-.16485.9199-.35156.1657-.14863.3594-.31284.5449-.31446zm-47.3242.12305c1.2166 0 2.2051.989 2.2051 2.20899 0 1.21998-.9885 2.21289-2.2051 2.21289-1.2165 0-2.2007-.99291-2.2012-2.21289 0-1.21999.9847-2.20899 2.2012-2.20899zm-31.8594.0469 3.336.45507-2.1016 2.70313zm66.6211 1.70312c1.2163 0 2.2012.98901 2.2012 2.20899s-.9849 2.20898-2.2012 2.20898c-1.2162 0-2.2031-.989-2.2031-2.20898s.9869-2.20899 2.2031-2.20899zm-1.0234 1.51758.4883.8457.4883.84571.4882-.84571.4883-.8457h-.9765zm-64.1074.97852 3.6211.23242-2.0742 2.77929zm19.1152.53124c1.2165 0 2.2008.98706 2.2012 2.20704 0 1.21998-.9847 2.20898-2.2012 2.20898-1.2166 0-2.2012-.989-2.2012-2.20898s.9846-2.20702 2.2012-2.20704zm90.4473 1.37696c1.5097-.0244 3.2617.1289 3.2617.1289l-.4258 1.69922c-1.8403.17632-4.2026-.33622-6.1777.49219.7336 1.20298 5.0307 2.90387 5.5058 3.32813.045.17877-.3554 1.79882-.3554 1.79882.1154.41357-7.2728-3.00723-7.5176-5.89453.01-.97923 3.1925-1.5122 5.709-1.55273zm-25.4102 1.76562c4.1984.0388 6.272 5.91634 4.6406 8.51953-2.0507 2.83619-4.3037 4.04321-7.4023 5.59571l-1.0996-1.70508c5.2394-2.24254 8.9435-5.45819 6.6328-8.80078-2.6614-3.67256-6.5283-.34842-10.7637 1.20312l-.75-1.36328c.1966.11266 5.8995-3.32905 8.7422-3.44922zm13.5254.21875c2.0048 3.89014 5.4345 6.83107 6.3711 7.53711 0 0-3.4168 2.20034-5.457 3.60156l-1.1973-1.41406 2.9297-2.52148-3.2988-4.61719zm-95.4863.39453 3.2969.006-1.4102 2.97852zm127.6504.54493c-.3717 1.92147-.4288 3.96064-.586 6.20507.7231.66195 1.3715.9934 1.9395.95508.6376-2.01843 1.0953-4.31174.791-6.67187-.603-.47237-1.3956-.41836-2.1445-.48828zm1.1543.63476c.2392.0289.4614.35915.5019.9336.092 1.2984.052 2.88794-.3789 3.96289-.3076.69554-1.0089.43363-1.0332-.51172-.033-1.27884.091-2.36922.3008-3.51758.1141-.62519.3702-.89604.6094-.86719zm-47.0938 1.69727c2.1645.16184 2.9976 1.97777 2.1992 3.28125-1.9558 2.50608-3.9563 2.9605-6.5214 4.41015l-2.5606-4.80078s4.9856-2.82301 6.8828-2.89062zm-.061 1.07226c-1.4391-.0721-2.3358.8697-3.5391 1.46094-1.4736.72406-1.9512 1.84441-.9512 2.85938 1.1023 1.23247 5.1482-1.56962 5.586-2.41602.605-1.16964-.035-1.85112-1.0957-1.9043zm-78.9473.20313 3.2266.0351-1.7442 2.47071zm78.8301.30273c.1354.006.2856.0745.4746.21875.3781.28844.4388 1.07318-.334 1.27149-.3917.10053-1.0666.10371-1.082.62695-.011.39029-.6065.53597-.9453.48047-.3463-.0567-.9319-.0859-1.045.34961-.2966.59296-.5202.6035-.9355.18945-.4457-.45168-.2355-1.02359.6348-1.11914.3712-.0407.6926-.31154.8261-.59766-.02-.37043.2391-.58493.6485-.5.578-.006.9572-.22265 1.3691-.76367.1317-.10563.2533-.162.3887-.15625zm-18.4531.26758c1.2162 0 2.2011.9851 2.2011 2.20508 0 1.21999-.9849 2.21289-2.2011 2.21289-1.2163 0-2.2012-.9929-2.2012-2.21289 0-1.21998.9849-2.20508 2.2012-2.20508zm-.9102 1.5625.4883.8457.4883.84571.4883-.84571.4882-.8457h-.9765zm-46.0996 2.49805c1.2166 0 2.207.9929 2.207 2.21289 0 1.21998-.9904 2.20703-2.207 2.20703-1.2165 0-2.2009-.98705-2.2012-2.20703 0-1.21999.9847-2.21289 2.2012-2.21289zm92.3965 1.64843-.033.22266.018 1.53906c.056.0748-3.0787 1.73895-5.1192 2.66602-.6609.3622-.2317 1.18111-.1914 1.90625l-1.0019.70312s-1.5097-1.14579-1.6875-1.7832c-.4977-2.01325 5.5757-4.64563 8.0156-5.25391zm-145.0723.3125 25.2149 17.29493-1.7227 2.52148-23.418-15.97265zm126.8438.4375c3.1601.85448 5.4382 4.70721 4.9199 7.72657-1.869 3.51728-4.0706 4.60103-7.2149 6.52734l-1.1894-1.4707c3.8411-1.88454 8.3439-5.06931 5.8906-9.00195-2.698-3.69935-6.9257.27263-10.9707 2.11914l-1.1211-1.52735c3.1459-1.34197 6.3198-4.30579 9.6856-4.37305zm-17.8555 1.25977c1.2163 0 2.2049.98901 2.2051 2.20899 0 1.21997-.9888 2.21289-2.2051 2.21289s-2.2031-.99292-2.2031-2.21289c0-1.21998.9868-2.20899 2.2031-2.20899zm-68.3086.61914c1.2163 0 2.2012.989 2.2012 2.20899 0 1.21997-.9849 2.20507-2.2012 2.20507s-2.2012-.9851-2.2012-2.20507c0-1.21999.9849-2.20899 2.2012-2.20899zm67.3711.93164.4883.84571.4883.8457.4882-.8457.4883-.84571h-.9765zm18.082 1.03516c.6774-.0205 1.3098.1374 1.836.55469 2.6494 2.66249-3.1441 6.09851-5.4102 7.3496l-3.1738-4.39453s3.8126-3.42088 6.748-3.50976zm.018.95117c-1.4912-.0838-3.8001 1.66334-4.6055 2.63086-.5097.70854-.2795 1.41171.6875 2.32031.8193.48961 5.3194-2.66588 5.2266-3.45703-.1221-1.04044-.6308-1.45604-1.3086-1.49414zm-125.9687.13672.7031.47266-.7031.55664zm125.9863.39648c.2246.0203.4206.1466.5859.3711.3125.38217.1239 1.03069-.539 1.14453-.3342.0573-.8283.14892-.9883.64453-.1333.32658-.5879.6033-1.0371.5918-.5191-.11985-.7924.19463-.8203.42382-.2555.43766-.8902.50888-1.2754.0977-.3003-.32051.2392-1.24013.5937-1.22656.063.0299.452.11672.9238-.51563.095-.45977.6269-.74107 1.0137-.72461.3928.13439.624-.30155.7813-.54296.2828-.19777.5371-.284.7617-.26368zm-124.3106.70508 1.0118.6875-2.6875 1.91211v-1.54101zm1.9629 1.28906 1.3789.92383-5.0175 3.60547v-1.95508zm2.5723 1.64649 1.4551.96484-7.666 5.19531v-2.0039zm2.7617 1.40429v1.66993l-8.9726 6.2832v-1.69336zm1.0137 1.20118 1.9316 1.32422.4864 56.63671-12.0918 8.33204.01-2.47657 10.1524-7.35937zm145.8496 1.53125c-2.7108 3.10515-6.3497 3.31305-9.5215 3.22851-8.5462.11978-13.8505.57906-14.9492 10.80078 3.4818-2.61047 7.1727-2.94954 11.4473-2.82617 5.4135-.007 7.8482-.36351 10.0488-1.46484 3.5346-1.769 5.7708-4.93612 5.3437-7.15821-.4194-.4798-1.5175-2.46145-2.3691-2.58007zm-146.8633.49609v1.95898l-8.9726 6.0293v-1.99023zm102.4668.17969c1.2165 0 2.2051.98901 2.2051 2.20898 0 1.21999-.9886 2.20703-2.2051 2.20703s-2.201-.98704-2.2012-2.20703c0-1.21997.9847-2.20898 2.2012-2.20898zm44.7578.32031c.4853-.0323.551.62372-.4511 1.60938-1.8971 1.86578-3.8646 2.7798-10.0997 2.66796-6.588-.11817-9.1565.92259-10.8613 3.86524-.4955.85527-.4846 1.18976.2324.54297.602-.71759 1.9706-2.10045 2.5371-.79102 1.1188-.73462 2.0866-1.85378 2.6719-.43945.3246-.0723 2.2219-1.98088 2.6719-.29102.9069-1.01743 1.6856-1.33401 2.1113.10938 1.2899-.61334 1.9744-1.77715 2.7071-.17188 1.039-.74601 1.8258-1.67607 2.4316-.25586.8862-.26163 1.7906-1.89293 2.3027-.59375.095.0318 3.298-1.90051 4.2051-3.8125.7437-1.68638 1.4277-.56624.582 1.15625-2.1714 4.2187-5.8859 5.75834-14.4101 5.77149-5.1746.005-7.3144.51442-8.9395 1.46484-2.6102 1.52664-1.2038-2.31695.625-4.64844 2.3048-2.93814 4.9325-3.80608 12.1309-3.54296 3.9349.0231 6.45-.52187 7.5137-1.38282.9022-.73025 1.5537-1.22542 2.039-1.25781zm-103.3379.0586c15.8552.49434 49.5274 0 49.5274 0l1.7969 2.18946h-52.9434zm-13.6093.83594c1.2162 0 2.205.99292 2.205 2.21289 0 1.21999-.9888 2.20899-2.205 2.20899-1.2166 0-2.2012-.989-2.2012-2.20899 0-1.21997.9846-2.21289 2.2012-2.21289zm71.2636.4043.4883.8457.4883.84571.4883-.84571.4883-.8457h-.9766zm-101.541 1.23242v1.99219l-8.9726 6.14258v-2.03711zm43.3867.95508h6.9629v7.37109h-6.9629zm15.6036 0h7.4921v7.37109h-7.4921zm16.6777.23828h7.2285v7.13281h-7.2285zm15.664.14258 4.8125.16601s2.6725 3.40987 3.8008 4.98243l-3.5586 1.83007-5.0547.0117zm-44.5976.5c-1.3542 0-2.4512 1.09876-2.4512 2.45703 0 1.35828 1.097 2.45898 2.4512 2.45898s2.4531-1.1007 2.4531-2.45898c0-1.35827-1.0989-2.45703-2.4531-2.45703zm16.0117.24414c-1.3544 0-2.4531 1.09679-2.4531 2.45508 0 1.35828 1.0987 2.46093 2.4531 2.46093 1.3547 0 2.4531-1.10265 2.4531-2.46093 0-1.35829-1.0984-2.45508-2.4531-2.45508zm16.375.0644c-1.3544 0-2.4551 1.09484-2.4551 2.45313 0 1.35828 1.1007 2.46289 2.4551 2.46289 1.3547 0 2.4531-1.10461 2.4531-2.46289 0-1.35829-1.0984-2.45313-2.4531-2.45313zm-24.4394.30078c1.0876 0 1.9668.88393 1.9668 1.97461 0 1.09069-.8792 1.97655-1.9668 1.97657-1.0879 0-1.9668-.88588-1.9668-1.97657 0-1.09068.8789-1.97461 1.9668-1.97461zm-14.6407.19727c.4835.34576.8008.9059.8008 1.54687 0 1.05325-.8523 1.90821-1.9023 1.90821-.3699 0-.7158-.10579-1.0078-.28907zm6.6934.0254c.8963 0 1.6269.726 1.6269 1.625 0 .89901-.7306 1.62891-1.6269 1.62891s-1.6231-.7299-1.6231-1.62891c0-.899.7268-1.625 1.6231-1.625zm48.6855.0664c-1.3544 0-2.4531 1.0968-2.4531 2.45507 0 1.35829 1.0987 2.46094 2.4531 2.46094 1.3548 0 2.4532-1.10265 2.4532-2.46094 0-1.35827-1.0984-2.45507-2.4532-2.45507zm-24.5078.01c1.0876 0 1.9668.88589 1.9668 1.97656 0 1.09068-.8792 1.97266-1.9668 1.97266-1.0879 0-1.9707-.88198-1.9707-1.97266 0-1.09067.8828-1.97656 1.9707-1.97656zm-8.166.16602c.8968 0 1.625.72599 1.625 1.625s-.7282 1.6289-1.625 1.6289c-.8965 0-1.625-.72989-1.625-1.6289s.7285-1.625 1.625-1.625zm-62.7461.0293v1.98243l-8.9726 6.28711v-1.94727zm79.1211.0332c.8969 0 1.6231.726 1.6231 1.625 0 .89901-.7262 1.63086-1.6231 1.63086-.8965 0-1.6269-.73185-1.6269-1.63086 0-.899.7304-1.625 1.6269-1.625zm8.0039.0586c1.0874 0 1.9707.88392 1.9707 1.97461 0 1.09068-.8833 1.97461-1.9707 1.97461s-1.9629-.88393-1.9629-1.97461c0-1.09069.8755-1.97461 1.9629-1.97461zm8.2949.53516c.8969 0 1.625.72405 1.625 1.62304 0 .89901-.7281 1.63086-1.625 1.63086-.8965 0-1.625-.73185-1.625-1.63086 0-.89899.7285-1.62304 1.625-1.62304zm-69.7949 1.70703c4.1796-.0491 8.7017 2.07916 11.252 5.61133 3.8599 5.17643 6.44 11.7772 7.6113 20.4414.5801 4.29163 2.5746 17.17832 3.707 20.22266l-1.5566-.30078c-.2106.1-2.2125-8.10456-3.4727-18.94141-.4667-4.01354-1.3154-9.19337-3.6386-13.92187-2.6526-5.39872-7.1598-11.12174-13.168-11.57618-3.504-.26503-6.7925 1.93846-7.1465 5.04102-.5045 2.45078.9273 4.73333 2.8066 5.49805 1.8459.75109 4.0517.19057 4.2989-2.33203.043-.41463 0-.8315-.1524-1.2168.8545-.13922 1.5048.24791 1.8516.9707.1808.0227.01 3.65788-2.8438 4.37305-3.4403 1.12958-7.4118-2.28487-7.7207-5.76563-.2353-2.93212 1.9893-6.55535 4.793-7.53711 1.0651-.37294 2.2086-.55265 3.3789-.5664zm-25.625 1.1289v2.02149l-8.9726 6.21094v-2.03711zm25.8223 1.28321c5.0198-.14321 9.9052 5.47086 11.9746 9.16797 2.1598 3.85873 3.8699 9.98731 4.459 15.7539 1.0019 9.80794 2.8762 17.82861 3.2715 18.19336l-1.3692-.30078c-.2861.19244-2.1716-8.66269-3.3203-18.51953-.6442-5.52836-2.6902-11.00728-5.123-15.23047-2.2452-3.89751-5.2724-6.80976-8.8555-7.23242-2.246-.22626-4.5568.42354-5.0098 2.79492-.24 1.39315.487 2.7618 2.1348 2.88086.3883.0281.7597.0582.8281.0703.8722.15587-.4974 1.57511-1.3984 1.44922-3.218-.44969-4.7005-4.76067-2.1641-7.05469 1.4839-1.34206 3.0356-1.92881 4.5723-1.97265zm10.7461 1.72656h56.3672s.049 1.29915-3.459 1.13281c-2.9832-.14145-4.9109.22683-6.8887.86328h-44.2852zm-36.5684.36719v1.8789l-8.9726 6.29883v-2.07422zm26.1973.79687c1.0829-.0148 2.1861.26502 3.0176.74805 6.982 4.05596 9.6491 14.12328 10.5683 20.46094 1.2544 9.38676 2.7021 18.10738 3.1055 18.32226l-1.5234-.34375c-.2032.007-1.8672-8.13158-2.9043-17.25-.8386-7.37175-3.3533-14.77595-8.3379-17.89062-3.1991-2.18321-3.8262-2.40159-5.3067-1.12696-1.2773 1.09969-2.5755-.55672-1.5058-1.90429.738-.692 1.8038-1.00083 2.8867-1.01563zm-26.1973 2.54297v1.54102l-8.9726 6.26757v-1.82617zm39.7735.23242h1.248c0-.005 0 .002 0 0 .1154-.10675 4.8513 7.76259 6.3477 20.47071.7879 6.6913 3.0427 18.10077 3.4043 18.19336l-1.6407-.17383c-1.6776-6.72897-2.6055-13.09752-3.5019-18.83789-1.0142-6.49409-1.8273-12.12339-5.8613-19.65235zm2.3281 0h1.4668c2.5071 4.78789 5.1729 12.1217 6.0937 19.57617.7953 6.4386 1.5991 12.98748 3.8965 19.80665l-1.5723-.4336c-1.9731-5.53527-2.673-12.22549-3.7343-19.1582-1.1733-7.66363-3.0136-14.21152-6.1504-19.79102zm2.6914 0h1.3457c3.5242 7.72526 4.9885 12.24852 6.0742 19.71875 1.373 9.44719 2.6901 17.96981 4.1484 20.18946l-1.6445-.10743c-2.2699-6.80899-3.294-13.61234-4.0996-20.42187-.8724-7.37372-2.9835-13.61232-5.8242-19.37891zm2.5234 0h1.3008c-.0002-.009 0 .003.01 0 .1384-.20705 4.8895 9.23896 5.9902 19.71875.7323 6.97249 2.3583 13.87289 4.5918 20.53516l-1.5156-.0352c-1.7521-2.03186-3.064-11.66118-4.5098-20.65039-1.4756-9.17462-3.5555-14.74496-5.8633-19.56836zm2.6582 0h1.1739c2.5643 6.66158 4.2327 9.72487 5.4042 17.92383.9095 6.36339 2.1927 14.32201 5.1153 22.75195l-1.4824-.0645c-2.1659-5.81889-3.8244-13.61153-4.584-21.09766-1.0318-10.16808-5.5845-19.57333-5.627-19.51367zm2.252 0h1.6015c2.7572 5.6017 5.048 12.42371 5.8555 20.21289.4436 4.22387 1.2179 10.70898 4.3809 20.71094l-1.2793-.082c-2.5907-6.70794-4.1476-14.60311-5.0762-21.48828-.9366-6.94493-2.5903-12.66023-5.4824-19.35352zm2.5566 0h1.9492c3.3482 7.79395 5.0686 16.11944 5.5391 18.88477 0 0 .4619 2.44513.4922 3.24805-.1127 6.81076 1.0625 11.67052 3.5898 18.99414l-1.1562-.084c-2.9338-8.51129-3.7226-14.55575-4.4727-20.33203-.6208-7.26132-2.9775-14.78111-5.9414-20.71094zm3.0098 0h1.4922c1.9952 4.99568 3.5395 10.20868 4.9238 15.0293-.1792 1.04821-.9751 3.58164-1.0313 4.72852-.076-3.91136-2.4345-13.42061-5.3847-19.75782zm2.3555 0h1.9316c1.4602 3.93603 2.8807 7.69419 3.8848 11.47852l-1.0254 2.41797c-1.4182-5.24162-3.2031-9.76159-4.791-13.89649zm2.8164 0h1.5429l3.0528 8.85938-.9981 1.75195c-.9034-2.92536-2.0116-6.55505-3.5976-10.61133zm2.4589 0h1.5899c.6411 1.85581 2.3476 6.64453 2.3476 6.64453l-1.0664 1.42188s-2.2252-6.19871-2.8711-8.06641zm2.4629 0h1.4082c.4241 1.20623 1.7832 4.84961 1.7832 4.84961l-.9746 1.05274zm2.4317 0h1.6523l1.1446 3.10352-1.2129 1.0293s-1.2592-2.96166-1.584-4.13282zm2.6953 0h1.2461l.6582 1.71289-1.0176.7793zm2.2422 0h2.3808c-.7002.4141-1.4249.95624-1.9492 1.31446zm-45.7071 2.25977c5.8372 3.08666 7.447 12.33092 8.0801 17.41406 1.1047 8.86924 2.343 16.08566 2.6055 16.2793l-1.2949-.20703s-.9568-4.55835-1.6192-8.89453c-.5514-3.60727-.9779-6.62718-1.1269-8.00977-.093-.86365-.237-1.86881-.3184-2.23242-.8151-3.64328-1.079-4.47762-2.1308-6.69531-1.5094-2.92348-2.4193-4.04973-4.6446-6.17774zm-29.5488.47266v1.74414l-8.9726 6.35546v-1.99218zm0 3.05859v2.00781l-8.9726 5.93555v-1.77735zm0 3.41992v1.86328l-8.9726 6.27149v-1.92383zm14.9863 1.88281h.7911l.055 1.22852h-1.2207zm-14.9863 1.61133v1.99024l-8.9726 5.9414v-1.85742zm14.0606.75781h1.8964l-.021 1.38868h-2.4375zm-1.1016 2.19141h3.1152v1.35742h-3.8613zm-12.959.2832v2.08985l-8.9726 5.98437v-2.09961zm11.3711 2.17383h4.5606l-.027 1.13867h-5.4453zm-11.3711 1.21094v2.04297l-8.9726 5.76172v-1.83789zm9.4668 1.0332h6.2637l-.1543 1.10938h-7.1426zm-9.4668 2.16016v1.96289l-8.9726 5.86328v-1.88867zm7.1172.12695h8.2441l1.7364 1.39258h-12.8301c.9371-.43115 2.1033-.87356 2.8496-1.39258zm-2.6992 2.77149h14.1699l1.3203 1.09375h-15.4902zm-4.418.44921v2.08399l-8.9726 5.89453v-1.90234zm4.418 1.83008 15.9258.0723-1.3438 1.26367h-14.582v-1.26367zm-4.418 1.58008v1.90625l-8.9726 6.10938v-2.19141zm4.2461.99414h13.5781l-1.5937 1.51758h-9.3809zm-4.2461 2.35742v1.82227l-8.9726 6.44726v-2.04296zm8.2188.23243h7.9707l.2324 1.09179h-6.9375zm2.205 2.21289h6.2032c.096.46264.1091.9143.205 1.37695h-5.2753zm-10.4238.9707v1.69141l-8.9726 6.2832v-1.87305zm12.3574 1.38672h4.6094l.019 1.45898h-3.5996zm1.4297 2.34179h3.1485l-.1055 1.42774h-2.4727zm.8828 2.48633h2.0078l-.1699 1.08789h-1.5527zm.6036 2.54883h.9785l-.166.83594h-.5zm19.8515 14.12305-.4687.60156h14.0273l.1543-.60156zm18.086 0-.2481.81445h6.3301l.1758-.81445zm10.3398.16015-.1934.76758h16.1817l-.2676-.76758zm19.3633 0 .3281.93164h5.4473l-.3614-.93164zm18.7871 0-9.5567.004.3438 1.04297h9.8848z" stroke-width="1.06221" transform="matrix(6.07663 -.0358594 .0357507 6.0582 -8656.77 -1104.28)"/></g><path d="m3165.3648-655.12508s-4.6455-7.63092-10.912-16.60292c-4.1922-6.00404-7.5438-12.50518-7.8554-18.10501-.3574-6.39677 3.0257-12.81428 9.1504-13.12528 6.1211-.3109 8.6057 4.93217 9.617 9.2549 1.0115-4.32273 3.4961-9.5658 9.6171-9.2549 6.1248.311 9.5078 6.72851 9.1504 13.12528-.3116 5.59983-3.6632 12.10097-7.8554 18.10501-6.2665 8.972-10.9121 16.60292-10.9121 16.60292z" fill="#c8102e"/><path d="m3268.4356-505.18489s-4.6454 7.63098-10.912 16.60298c-4.1922 6.004-7.5437 12.5052-7.8553 18.105-.3574 6.39677 3.0256 12.81425 9.1503 13.12528 6.1211.31085 8.6057-4.93221 9.617-9.25491 1.0115 4.3227 3.4961 9.56576 9.6171 9.25491 6.1248-.31103 9.5078-6.72851 9.1504-13.12528-.3116-5.5998-3.6632-12.101-7.8554-18.105-6.2665-8.972-10.9121-16.60298-10.9121-16.60298z" fill="#c8102e"/></g></svg>