<svg height="88.000275mm" viewBox="0 0 238.11099 332.59947" width="63.000198mm" xmlns="http://www.w3.org/2000/svg"><g><rect fill="#fff" height="332.5994820368" rx="11.38944039189" ry="11.37500301344" width="238.1109840945" x="-.0000070732" y="-.0000053481"/><g fill="#c8102e"><path d="m18.36278951036 74.6425745759s-2.373020749-3.4024426326-5.57409528566-7.402796467c-2.141553359-2.6770110323-3.853558709-5.5757187574-4.01281254-8.0725052265-.182507237-2.8521475796 1.54560483-5.7135218547 4.674254607-5.8522102881 3.12683430466-.1385924331 4.39595827066 2.1991322056 4.91265321866 4.1265088953.516694948-1.9273766897 1.785925581-4.2651013284 4.912655352-4.1265088953 3.128649777.1386884334 4.856868511 3.0000627085 4.674254607 5.8522102881-.159147164 2.4967864691-1.871259181 5.3954941942-4.012705873 8.0725052265-3.201183337 4.0003538344-5.574204086 7.402796467-5.574204086 7.402796467z" stroke-width="1.06667"/><path d="m219.74421455868 257.96543119137s-2.373020749 3.4024426326-5.574097419 7.402796467c-2.141553359 2.6770110323-3.853558709 5.5757187574-4.01281254 8.0725052265-.182507237 2.8521475796 1.54560483 5.7135218547 4.674254607 5.8522102881 3.126836438.1385924331 4.395960404-2.1991322056 4.912655352-4.1265088953.516694948 1.9273766897 1.785925581 4.2651013284 4.912655352 4.1265088953 3.12864551032-.1386884334 4.85686424432-3.0000627085 4.67425034032-5.8522102881-.159147164-2.4967864691-1.871259181-5.3954941942-4.01270160632-8.0725052265-3.201183337-4.0003538344-5.574204086-7.402796467-5.574204086-7.402796467z"/><path d="m119.05307323318 86.0789836479s-4.977402221-8.1658601849-11.691663203-17.7667328542c-4.49174737-6.4248307442-8.082798592-13.3817271511-8.416666302-19.3740232103-.38293453-6.8451520577 3.241823464-13.7124481846 9.804190638-14.0452812247 6.558420495-.3326410395 9.220508814 5.2779151601 10.304138867 9.9036149487 1.08373677333-4.6256997886 3.745825039-10.2362559882 10.304245534-9.9036149487 6.562367174.3328330401 10.187125168 7.200129167 9.804190638 14.0452812247-.33386771 5.9922960592-3.924918932 12.9491924661-8.416666302 19.3740232103-6.714260982 9.6008726693-11.69176987 17.7667328542-11.69176987 17.7667328542z" stroke-width="1.06667"/><path d="m119.05306256648 191.90400875007s-4.977402221-8.1658601849-11.691663203-17.7667328542c-4.49174523666-6.4248307442-8.08279645866-13.3817271511-8.41666416866-19.3740232103-.38293453-6.8451520577 3.241823464-13.7124481846 9.80418850466-14.0452812247 6.558420495-.3326410395 9.220508814 5.2779151601 10.304138867 9.9036149487 1.08373677333-4.6256997886 3.745825039-10.2362559882 10.304245534-9.9036149487 6.562367174.3328330401 10.187125168 7.200129167 9.804190638 14.0452812247-.33386771 5.9922960592-3.924918932 12.9491924661-8.416666302 19.3740232103-6.714260982 9.6008726693-11.69176987 17.7667328542-11.69176987 17.7667328542z" stroke-width="1.06667"/><path d="m119.05307323318 246.52888345227s-4.977402221 8.1658601849-11.691663203 17.7667328542c-4.49174416999 6.4248307442-8.08279539199 13.3817271511-8.41666310199 19.3740232103-.38293453 6.8451520577 3.241823464 13.7124481846 9.80418743799 14.0452812247 6.558420495.3326410395 9.220508814-5.2779151601 10.304138867-9.9036149487 1.08373677333 4.6256997886 3.745825039 10.2362559882 10.304245534 9.9036149487 6.562367174-.3328330401 10.187125168-7.200129167 9.804190638-14.0452812247-.33386771-5.9922960592-3.924918932-12.9491924661-8.416666302-19.3740232103-6.714260982-9.6008726693-11.69176987-17.7667328542-11.69176987-17.7667328542z" stroke-width="1.06667"/><path d="m6.93970528 42.249225347 2.709981802-1.993072895c2.351900683 3.829771968 4.982202236 6.352126517 9.00589481 5.919165164 6.036925532-.414827963 8.538373349-6.743167739 7.275329402-11.51150264-1.221870485-4.278093369-6.220712773-6.361939881-10.195018526-4.081186087-.938029598.540588356-1.843099093.981869735-2.020059646.981869735-.416854636 0-1.360430918-1.877125866-1.231470515-2.449714322 2.667315002-3.89547884 9.144455243-10.719713499 9.144455243-10.719713499h-10.119604957v4.570040948h-3.88374547v-8.200025625h19.778301807v2.782195361s-5.299109893 5.496017175-7.050368699 8.505839914c4.313080145.15786716 7.789571009 2.891209035 9.037574909 7.212609206.728215609 2.27520711.401814589 7.479276706-.551361723 9.722377049-1.592111642 3.738891684-5.940925232 6.772607831-9.916510989 6.947115043-6.674687525.448321401-10.215605257-4.227746545-11.983397448-7.685997352z" stroke-width="1.06667"/><path d="m231.169312662 290.3598780237-2.709981802 1.993072895c-2.351900683-3.829771968-4.982202236-6.352233184-9.00589481-5.919165164-6.036925532.414827963-8.538373349 6.743167739-7.275329402 11.51150264 1.221870485 4.278093369 6.220712773 6.361939881 10.195018526 4.081186087.938029598-.540588356 1.843099093-.981869735 2.020059646-.981869735.416854636 0 1.360430918 1.877125866 1.231470515 2.449714322-2.667315002 3.89547884-9.144455243 10.719713499-9.144455243 10.719713499h10.119604957v-4.570040948h3.88374547v8.200025625h-19.778301807v-2.782195361s5.299109893-5.496017175 7.050368699-8.505946581c-4.313080145-.157760493-7.789571009-2.891102368-9.037574909-7.212502539-.728215609-2.27520711-.401814589-7.479276706.551361723-9.722377049 1.592111642-3.738891684 5.940925232-6.772607831 9.916510989-6.947115043 6.674687525-.448321401 10.215605257 4.227746545 11.983397448 7.685997352z" stroke-width="1.06667"/></g></g></svg>