<svg height="88.000275mm" viewBox="0 0 238.11099 332.59947" width="63.000198mm" xmlns="http://www.w3.org/2000/svg"><g><rect fill="#fff" height="332.5994820368" rx="11.38944039189" ry="11.37500301344" width="238.1109840945" x="-.0000398932" y="-.0000053481"/><g fill="#c8102e"><path d="m18.36489003036 74.6425745759s-2.373020749-3.4024426326-5.57409528566-7.402796467c-2.141553359-2.6770110323-3.853558709-5.5757187574-4.01281254-8.0725052265-.182507237-2.8521475796 1.54560483-5.7135218547 4.674254607-5.8522102881 3.12683430466-.1385924331 4.39595827066 2.1991322056 4.91265321866 4.1265088953.516694948-1.9273766897 1.785925581-4.2651013284 4.912655352-4.1265088953 3.128649777.1386884334 4.856868511 3.0000627085 4.674254607 5.8522102881-.159147164 2.4967864691-1.871259181 5.3954941942-4.012705873 8.0725052265-3.201183337 4.0003538344-5.574204086 7.402796467-5.574204086 7.402796467z" stroke-width="1.06667"/><path d="m219.74631507868 257.96543119137s-2.373020749 3.4024426326-5.574097419 7.402796467c-2.141553359 2.6770110323-3.853558709 5.5757187574-4.01281254 8.0725052265-.182507237 2.8521475796 1.54560483 5.7135218547 4.674254607 5.8522102881 3.126836438.1385924331 4.395960404-2.1991322056 4.912655352-4.1265088953.516694948 1.9273766897 1.785925581 4.2651013284 4.912655352 4.1265088953 3.12864551032-.1386884334 4.85686424432-3.0000627085 4.67425034032-5.8522102881-.159147164-2.4967864691-1.871259181-5.3954941942-4.01270160632-8.0725052265-3.201183337-4.0003538344-5.574204086-7.402796467-5.574204086-7.402796467z"/><path d="m119.05517375318 86.0789836479s-4.977402221-8.1658601849-11.691663203-17.7667328542c-4.49174737-6.4248307442-8.082798592-13.3817271511-8.416666302-19.3740232103-.38293453-6.8451520577 3.241823464-13.7124481846 9.804190638-14.0452812247 6.558420495-.3326410395 9.220508814 5.2779151601 10.304138867 9.9036149487 1.08373677333-4.6256997886 3.745825039-10.2362559882 10.304245534-9.9036149487 6.562367174.3328330401 10.187125168 7.200129167 9.804190638 14.0452812247-.33386771 5.9922960592-3.924918932 12.9491924661-8.416666302 19.3740232103-6.714260982 9.6008726693-11.69176987 17.7667328542-11.69176987 17.7667328542z" stroke-width="1.06667"/><path d="m119.05517375318 246.52888345227s-4.977402221 8.1658601849-11.691663203 17.7667328542c-4.49174416999 6.4248307442-8.08279539199 13.3817271511-8.41666310199 19.3740232103-.38293453 6.8451520577 3.241823464 13.7124481846 9.80418743799 14.0452812247 6.558420495.3326410395 9.220508814-5.2779151601 10.304138867-9.9036149487 1.08373677333 4.6256997886 3.745825039 10.2362559882 10.304245534 9.9036149487 6.562367174-.3328330401 10.187125168-7.200129167 9.804190638-14.0452812247-.33386771-5.9922960592-3.924918932-12.9491924661-8.416666302-19.3740232103-6.714260982-9.6008726693-11.69176987-17.7667328542-11.69176987-17.7667328542z"/><path d="m8.345436853 49.88967589.171520536-2.17067345c.541655026-6.707540961 1.98293953-8.970374699 10.15789841-15.972529914 3.968865736-3.394357274 5.270309803-5.069135841 5.452710373-7.012075246.519788291-4.582947655-3.535477715-6.013245458-6.176765969-6.034258857-3.423050697-.03093343-7.295916133 2.051953079-5.447270356 6.893354875l-3.841292004 1.149550259c-.772055746-4.515960779.02240007-8.752454018 3.616437968-10.63256656 4.799908333-2.451420994 10.9547009-1.490351324 14.062337278 2.371847412 2.088646527 2.591154764 2.565874685 6.176659302 1.445444517 8.982854738-3.273503563 7.168449068-14.377751597 10.322485591-15.29391446 18.616804844h12.272678352v-4.617934431h3.616437968v8.501039899l-20.036222613-.07573357z" stroke-width="1.06667"/><path d="m229.7630994477 282.7193314804-.171520536 2.17067345c-.541655026 6.707434294-1.98293953 8.970268032-10.15789841 15.972529914-3.968865736 3.394250607-5.270309803 5.069029174-5.452710373 7.012075246-.519788291 4.582947655 3.535477715 6.013245458 6.176765969 6.034258857 3.423050697.03093343 7.295916133-2.051953079 5.447270356-6.893354875l3.841292004-1.149550259c.772055746 4.515854112-.02240007 8.752454018-3.616437968 10.63256656-4.799908333 2.451420994-10.9547009 1.490351324-14.062337278-2.371847412-2.088646527-2.591048097-2.565874685-6.176659302-1.445444517-8.982854738 3.273503563-7.168449068 14.377751597-10.322485591 15.29391446-18.616804844h-12.272678352v4.617934431h-3.616437968v-8.501039899l20.036222613.07573357z" stroke-width="1.06667"/></g></g></svg>