<svg height="88.000275mm" viewBox="0 0 238.11099 332.59947" width="63.000198mm" xmlns="http://www.w3.org/2000/svg"><g transform="matrix(1.06667 0 0 1.06667 -3212.8133 1134.9416)"><rect fill="#fff" height="311.81104" rx="10.677567" ry="10.664032" width="223.22835" x="3012.00304" y="-1064.00443"/><g fill="#c8102e"><path d="m3071.853556-917.165199s-4.6663-7.65547-10.9609-16.65626c-4.211-6.02326-7.5776-12.54533-7.8906-18.16309-.359-6.417311 3.0392-12.855381 9.1914-13.167411 6.1485-.31185 8.6442 4.94803 9.6601 9.28461 1.016-4.33658 3.5117-9.59646 9.6602-9.28461 6.1522.31203 9.5504 6.7501 9.1914 13.167411-.313 5.61776-3.6796 12.13983-7.8906 18.16309-6.2946 9.00079-10.961 16.65626-10.961 16.65626z"/><path d="m3029.223108-994.02723s-2.2247-3.18978-5.225698-6.9401c-2.0077-2.50969-3.6127-5.22722-3.762-7.56795-.1711-2.67388 1.449-5.35641 4.3821-5.48643 2.931398-.12993 4.121198 2.06168 4.605598 3.86859.4844-1.80691 1.6743-3.99852 4.6056-3.86859 2.9331.13002 4.5533 2.81255 4.3821 5.48643-.1492 2.34073-1.7543 5.05826-3.7619 7.56795-3.0011 3.75032-5.2258 6.9401-5.2258 6.9401z"/><path d="m3218.017604-822.162589s-2.2247 3.18978-5.2257 6.9401c-2.0077 2.50969-3.6127 5.22722-3.762 7.56795-.1711 2.67388 1.449 5.35641 4.3821 5.48643 2.9314.12993 4.1212-2.06168 4.6056-3.86859.4844 1.80691 1.6743 3.99852 4.6056 3.86859 2.933096-.13002 4.553296-2.81255 4.382096-5.48643-.1492-2.34073-1.7543-5.05826-3.761896-7.56795-3.0011-3.75032-5.2258-6.9401-5.2258-6.9401z"/><path d="m3123.619949-940.6652s-4.6663-7.655471-10.9609-16.65626c-4.211-6.02326-7.5776-12.54533-7.8906-18.16309-.359-6.41731 3.0392-12.85538 9.1914-13.16741 6.1485-.31185 8.6442 4.94803 9.6601 9.28461 1.01600005-4.33658 3.5117-9.59646 9.6602-9.28461 6.1522.31203 9.5504 6.7501 9.1914 13.16741-.313 5.61776-3.6796 12.13983-7.8906 18.16309-6.2946 9.000789-10.961 16.65626-10.961 16.65626z"/><path d="m3071.853556-983.30563s-4.6663-7.65547-10.9609-16.65626c-4.211-6.02326-7.5776-12.54533-7.8906-18.16309-.359-6.41731 3.0392-12.85538 9.1914-13.16741 6.1485-.31185 8.6442 4.94803 9.6601 9.28461 1.016-4.33658 3.5117-9.59646 9.6602-9.28461 6.1522.31203 9.5504 6.7501 9.1914 13.16741-.313 5.61776-3.6796 12.13983-7.8906 18.16309-6.2946 9.00079-10.961 16.65626-10.961 16.65626z"/><path d="m3175.386354-917.165199s-4.6663-7.65547-10.9609-16.65626c-4.211-6.02326-7.5776-12.54533-7.8906-18.16309-.359-6.417311 3.0392-12.855381 9.1914-13.167411 6.1485-.31185 8.6442 4.94803 9.6601 9.28461 1.016-4.33658 3.5117-9.59646 9.6602-9.28461 6.1522.31203 9.5504 6.7501 9.1914 13.167411-.313 5.61776-3.6796 12.13983-7.8906 18.16309-6.2946 9.00079-10.961 16.65626-10.961 16.65626z"/><path d="m3175.386354-983.30563s-4.6663-7.65547-10.9609-16.65626c-4.211-6.02326-7.5776-12.54533-7.8906-18.16309-.359-6.41731 3.0392-12.85538 9.1914-13.16741 6.1485-.31185 8.6442 4.94803 9.6601 9.28461 1.016-4.33658 3.5117-9.59646 9.6602-9.28461 6.1522.31203 9.5504 6.7501 9.1914 13.16741-.313 5.61776-3.6796 12.13983-7.8906 18.16309-6.2946 9.00079-10.961 16.65626-10.961 16.65626z"/><path d="m3123.61995-875.52476s-4.6663 7.65547-10.9609 16.6562704c-4.211 6.0232596-7.5776 12.5453296-7.8906 18.1630796-.359 6.41731 3.0392 12.85538 9.1914 13.16741 6.1485.31185 8.6442-4.94803 9.6601-9.28461 1.01600005 4.33658 3.5117 9.59646 9.6602 9.28461 6.1522-.31203 9.5504-6.7501 9.1914-13.16741-.313-5.61775-3.6796-12.13982-7.8906-18.1630796-6.2946-9.0008004-10.961-16.6562704-10.961-16.6562704z"/><path d="m3175.386354-899.024759s-4.6663 7.65547-10.9609 16.65626c-4.211 6.02326-7.5776 12.54533-7.8906 18.16309-.359 6.4173104 3.0392 12.8553804 9.1914 13.1674104 6.1485.31185 8.6442-4.94803 9.6601-9.28461 1.016 4.33658 3.5117 9.59646 9.6602 9.28461 6.1522-.31203 9.5504-6.7501 9.1914-13.1674104-.313-5.61776-3.6796-12.13983-7.8906-18.16309-6.2946-9.00079-10.961-16.65626-10.961-16.65626z"/><path d="m3071.853556-899.024759s-4.6663 7.65547-10.9609 16.65626c-4.211 6.02326-7.5776 12.54533-7.8906 18.16309-.359 6.4173104 3.0392 12.8553804 9.1914 13.1674104 6.1485.31185 8.6442-4.94803 9.6601-9.28461 1.016 4.33658 3.5117 9.59646 9.6602 9.28461 6.1522-.31203 9.5504-6.7501 9.1914-13.1674104-.313-5.61776-3.6796-12.13983-7.8906-18.16309-6.2946-9.00079-10.961-16.65626-10.961-16.65626z"/><path d="m3175.386354-832.884319s-4.6663 7.65547-10.9609 16.65626c-4.211 6.02326-7.5776 12.54533-7.8906 18.16309-.359 6.41731 3.0392 12.85538 9.1914 13.16741 6.1485.31185 8.6442-4.94803 9.6601-9.28461 1.016 4.33658 3.5117 9.59646 9.6602 9.28461 6.1522-.31203 9.5504-6.7501 9.1914-13.16741-.313-5.61776-3.6796-12.13983-7.8906-18.16309-6.2946-9.00079-10.961-16.65626-10.961-16.65626z"/><path d="m3071.853556-832.884319s-4.6663 7.65547-10.9609 16.65626c-4.211 6.02326-7.5776 12.54533-7.8906 18.16309-.359 6.41731 3.0392 12.85538 9.1914 13.16741 6.1485.31185 8.6442-4.94803 9.6601-9.28461 1.016 4.33658 3.5117 9.59646 9.6602 9.28461 6.1522-.31203 9.5504-6.7501 9.1914-13.16741-.313-5.61776-3.6796-12.13983-7.8906-18.16309-6.2946-9.00079-10.961-16.65626-10.961-16.65626z"/><g stroke-width="1.00002" transform="matrix(1 0 0 .99998 1980.62 -1572.28)"><path d="m1038.5828 555.12975v-33h3.1988v33z"/><path d="m1051.2635 522.1291c-3.0793 0-5.5542 2.81264-5.5542 6.30617v20.38896c0 3.49354 2.4762 6.30487 5.5542 6.30487h1.7974c3.0792 0 5.5593-2.81133 5.5593-6.30487v-20.38896c0-3.49353-2.4814-6.30617-5.5593-6.30617zm.9295 3.12035c1.818 0 3.2798 1.39453 3.2798 3.13868v20.65871c0 1.74415-1.4618 3.15177-3.2798 3.15177-1.8179 0-3.2849-1.40762-3.2849-3.15177v-20.65871c0-1.74284 1.467-3.13868 3.2849-3.13868z"/></g><g transform="matrix(-1 0 0 -.99998 4261.31 -244.237)"><path d="m1033.27513 554.80055v-33h3.1988v33z"/><path d="m1045.95583 521.7999c-3.0793 0-5.5542 2.81264-5.5542 6.30617v20.38896c0 3.49354 2.4762 6.30487 5.5542 6.30487h1.7974c3.0792 0 5.5593-2.81133 5.5593-6.30487v-20.38896c0-3.49353-2.4814-6.30617-5.5593-6.30617zm.9295 3.12035c1.818 0 3.2798 1.39453 3.2798 3.13868v20.65871c0 1.74415-1.4618 3.15177-3.2798 3.15177-1.8179 0-3.2849-1.40762-3.2849-3.15177v-20.65871c0-1.74284 1.467-3.13868 3.2849-3.13868z"/></g></g></g></svg>