<svg height="88.000275mm" viewBox="0 0 238.11099 332.59947" width="63.000198mm" xmlns="http://www.w3.org/2000/svg"><g><rect fill="#fff" height="332.5994820368" rx="11.38944039189" ry="11.37500301344" width="238.1109840945" x="-.0000014232" y="-.0000053481"/><g fill="#c8102e" stroke-width="1.06667"><path d="m18.35746181036 74.6425745759s-2.373020749-3.4024426326-5.57409528566-7.402796467c-2.141553359-2.6770110323-3.853558709-5.5757187574-4.01281254-8.0725052265-.182507237-2.8521475796 1.54560483-5.7135218547 4.674254607-5.8522102881 3.12683430466-.1385924331 4.39595827066 2.1991322056 4.91265321866 4.1265088953.516694948-1.9273766897 1.785925581-4.2651013284 4.912655352-4.1265088953 3.128649777.1386884334 4.856868511 3.0000627085 4.674254607 5.8522102881-.159147164 2.4967864691-1.871259181 5.3954941942-4.012705873 8.0725052265-3.201183337 4.0003538344-5.574204086 7.402796467-5.574204086 7.402796467z"/><path d="m219.73888685868 257.96543119137s-2.373020749 3.4024426326-5.574097419 7.402796467c-2.141553359 2.6770110323-3.853558709 5.5757187574-4.01281254 8.0725052265-.182507237 2.8521475796 1.54560483 5.7135218547 4.674254607 5.8522102881 3.126836438.1385924331 4.395960404-2.1991322056 4.912655352-4.1265088953.516694948 1.9273766897 1.785925581 4.2651013284 4.912655352 4.1265088953 3.12864551032-.1386884334 4.85686424432-3.0000627085 4.67425034032-5.8522102881-.159147164-2.4967864691-1.871259181-5.3954941942-4.01270160632-8.0725052265-3.201183337-4.0003538344-5.574204086-7.402796467-5.574204086-7.402796467z"/><path d="m63.83008177852 86.0789836479s-4.977402221-8.1658601849-11.691663203-17.7667328542c-4.49174737-6.4248307442-8.082798592-13.3817271511-8.416666302-19.3740232103-.38293453-6.8451520577 3.241823464-13.7124481846 9.804190638-14.0452812247 6.558420495-.3326410395 9.220508814 5.2779151601 10.304138867 9.9036149487 1.08373672-4.6256997886 3.745825039-10.2362559882 10.304245534-9.9036149487 6.562367174.3328330401 10.187125168 7.200129167 9.804190638 14.0452812247-.33386771 5.9922960592-3.924918932 12.9491924661-8.416666302 19.3740232103-6.714260982 9.6008726693-11.69176987 17.7667328542-11.69176987 17.7667328542z"/><path d="m174.26541142118 86.0789836479s-4.977402221-8.1658601849-11.691663203-17.7667328542c-4.49174737-6.4248307442-8.082798592-13.3817271511-8.416666302-19.3740232103-.38293453-6.8451520577 3.241823464-13.7124481846 9.804190638-14.0452812247 6.558420495-.3326410395 9.220508814 5.2779151601 10.304138867 9.9036149487 1.08373672-4.6256997886 3.745825039-10.2362559882 10.304245534-9.9036149487 6.562367174.3328330401 10.187125168 7.200129167 9.804190638 14.0452812247-.33386771 5.9922960592-3.924918932 12.9491924661-8.416666302 19.3740232103-6.714260982 9.6008726693-11.69176987 17.7667328542-11.69176987 17.7667328542z"/><path d="m119.04773486648 191.90400875007s-4.977402221-8.1658601849-11.691663203-17.7667328542c-4.49174523666-6.4248307442-8.08279645866-13.3817271511-8.41666416866-19.3740232103-.38293453-6.8451520577 3.241823464-13.7124481846 9.80418850466-14.0452812247 6.558420495-.3326410395 9.220508814 5.2779151601 10.304138867 9.9036149487 1.08373677333-4.6256997886 3.745825039-10.2362559882 10.304245534-9.9036149487 6.562367174.3328330401 10.187125168 7.200129167 9.804190638 14.0452812247-.33386771 5.9922960592-3.924918932 12.9491924661-8.416666302 19.3740232103-6.714260982 9.6008726693-11.69176987 17.7667328542-11.69176987 17.7667328542z"/><path d="m174.26541142118 246.52888345227s-4.977402221 8.1658601849-11.691663203 17.7667328542c-4.49174737 6.4248307442-8.082798592 13.3817271511-8.416666302 19.3740232103-.38293453 6.8451520577 3.241823464 13.7124481846 9.804190638 14.0452812247 6.558420495.3326410395 9.220508814-5.2779151601 10.304138867-9.9036149487 1.08373672 4.6256997886 3.745825039 10.2362559882 10.304245534 9.9036149487 6.562367174-.3328330401 10.187125168-7.200129167 9.804190638-14.0452812247-.33386771-5.9922960592-3.924918932-12.9491924661-8.416666302-19.3740232103-6.714260982-9.6008726693-11.69176987-17.7667328542-11.69176987-17.7667328542z"/><path d="m63.83008177852 246.52888345227s-4.977402221 8.1658601849-11.691663203 17.7667328542c-4.49174737 6.4248307442-8.082798592 13.3817271511-8.416666302 19.3740232103-.38293453 6.8451520577 3.241823464 13.7124481846 9.804190638 14.0452812247 6.558420495.3326410395 9.220508814-5.2779151601 10.304138867-9.9036149487 1.08373672 4.6256997886 3.745825039 10.2362559882 10.304245534 9.9036149487 6.562367174-.3328330401 10.187125168-7.200129167 9.804190638-14.0452812247-.33386771-5.9922960592-3.924918932-12.9491924661-8.416666302-19.3740232103-6.714260982-9.6008726693-11.69176987-17.7667328542-11.69176987-17.7667328542z"/><path d="m7.265898616 40.852207648 3.450464116-.03306677c.658242057 2.124699973 2.114673275 4.284173388 4.092279455 4.883428594 5.587004126 1.336857511 9.181468692-1.843845762 10.365045724-5.510523887 1.435844487-4.447693899-.0320001-10.693046749-3.87841212-12.909800343-3.187103293-1.838299078-7.922584758-.287787566-10.097524888 3.644384722l-2.416434218-1.505818039 1.297284054-14.655832466h15.786182665v3.464224159h-12.792359976l-.202987301 6.10561908c2.753821939-1.969499488 6.985941831-1.948592756 9.738270432-.567041772 5.212709623 2.532487914 7.634583858 8.290265907 6.622527362 15.076207113-1.404271055 6.749674426-4.500920732 10.574219711-11.485475892 11.120461418-7.768984278.07146689-10.511819516-5.369510113-10.478859413-9.111708474z"/><path d="m230.837157274 291.7568210558-3.450464116.03306677c-.658242057-2.124699973-2.114673275-4.284173388-4.092279455-4.883428594-5.587004126-1.336857511-9.181468692 1.843845762-10.365045724 5.510523887-1.435844487 4.447693899.0320001 10.692940082 3.87841212 12.909800343 3.187103293 1.838299078 7.922584758.287787566 10.097524888-3.644384722l2.416434218 1.505818039-1.297284054 14.655832466h-15.786182665v-3.464224159h12.792359976l.202987301-6.105725747c-2.753821939 1.969606155-6.985941831 1.948699423-9.738270432.567148439-5.212709623-2.532487914-7.634583858-8.290372574-6.622527362-15.076207113 1.404271055-6.749674426 4.500920732-10.574219711 11.485475892-11.120461418 7.768984278-.07146689 10.511819516 5.369510113 10.478859413 9.111708474z"/></g></g></svg>