<svg height="88.000275mm" viewBox="0 0 238.11099 332.59947" width="63.000198mm" xmlns="http://www.w3.org/2000/svg"><g><rect fill="#fff" height="332.5994820368" rx="11.38944039189" ry="11.37500301344" width="238.1109840945" x=".000033084" y=".000005306"/><g stroke-width="1.06667"><path d="m63.83788591 34.8746422889c-9.84109742 14.0343051904-20.370943659 22.1105437619-20.545877539 33.0596553111-.05866685 3.545504413 1.858245807 9.5716779114 7.862531237 10.7251321826 3.89547884.7448876611 9.258802267-2.4079861916 9.370802617-8.8133822084-.01706672-1.2752573185 1.350297553-1.2421158816 1.337497513.5053029124-.18346724 5.0525171224-1.782832238 10.9350315052-4.470840638 15.7234518023h12.89177362c-2.6880084-4.7884202971-4.287373398-10.6709346799-4.470840638-15.7234518023-.01280004-1.747418794 1.354564233-1.7805602309 1.337497513-.5053029124.11200035 6.4053960168 5.475323777 9.5582698695 9.370802617 8.8133822084 6.00428543-1.1534542712 7.921198087-7.1796277696 7.862531237-10.7251321826-.17493388-10.9491115492-10.704780119-19.0253501207-20.545877539-33.0596553111z"/><path d="m18.365210475 53.3049932169c-4.597987702 5.8476342738-9.517683076 9.212722123-9.599389998 13.7748590463-.02773342 1.4772846165.868162713 3.9881937964 3.673504813 4.4688032983 1.820059021.3103689699 4.325880185-1.0033311354 4.378253682-3.6722461424-.0106667-.5313616605.630828638-.517548284.624855286.2105393246-.0853336 2.1052225788-.832962603 4.5562702383-2.088859861 6.5514444732h6.023272156c-1.255897258-1.9951742349-2.00320626-4.4462218944-2.088859861-6.5514444732-.0106667-.7280876086.632855311-.7419009851.624855286-.2105393246.05226683 2.668915007 2.558194661 3.9826151123 4.378253682 3.6722461424 2.8053421-.4806095019 3.700918232-2.9915186818 3.673504813-4.4688032983-.08213359-4.5621369233-5.001508963-7.9272247725-9.599389998-13.7748590463z"/><path d="m219.74663979 279.2946487657c-4.597987702-5.8476342738-9.517683076-9.212722123-9.599389998-13.7748590463-.02773342-1.4772846165.868162713-3.9881937964 3.673504813-4.4688032983 1.820059021-.3103689699 4.325880185 1.0033311354 4.378253682 3.6722461424-.0106667.5313616605.630828638.517548284.624855286-.2105393246-.0853336-2.1052225788-.832962603-4.5562702383-2.088859861-6.5514444732h6.023272156c-1.255897258 1.9951742349-2.00320626 4.4462218944-2.088859861 6.5514444732-.0106667.7280876086.632855311.7419009851.624855286.2105393246.05226683-2.668915007 2.558194661-3.9826151123 4.378253682-3.6722461424 2.8053421.4806095019 3.700918232 2.9915186818 3.673504813 4.4688032983-.08213359 4.5621369233-5.001508963 7.9272247725-9.599389998 13.7748590463z"/><path d="m174.273217686 34.8746422889c-9.84109742 14.0343051904-20.370943659 22.1105437619-20.545877539 33.0596553111-.05866685 3.545504413 1.858245807 9.5716779114 7.862531237 10.7251321826 3.89547884.7448876611 9.258802267-2.4079861916 9.370802617-8.8133822084-.01706672-1.2752573185 1.350297553-1.2421158816 1.337497513.5053029124-.18346724 5.0525171224-1.782832238 10.9350315052-4.470840638 15.7234518023h12.89177362c-2.6880084-4.7884202971-4.287373398-10.6709346799-4.470840638-15.7234518023-.01280004-1.747418794 1.354564233-1.7805602309 1.337497513-.5053029124.11200035 6.4053960168 5.475323777 9.5582698695 9.370802617 8.8133822084 6.00428543-1.1534542712 7.921198087-7.1796277696 7.862531237-10.7251321826-.17493388-10.9491115492-10.704780119-19.0253501207-20.545877539-33.0596553111z"/><path d="m63.83788591 297.7248610266c-9.84109742-14.0343051904-20.370943659-22.1105437619-20.545877539-33.0596553111-.05866685-3.545504413 1.858245807-9.5716779114 7.862531237-10.7251321826 3.89547884-.7448876611 9.258802267 2.4079861916 9.370802617 8.8133822084-.01706672 1.2752573185 1.350297553 1.2421158816 1.337497513-.5053029124-.18346724-5.0525171224-1.782832238-10.9350315052-4.470840638-15.7234518023h12.89177362c-2.6880084 4.7884202971-4.287373398 10.6709346799-4.470840638 15.7234518023-.01280004 1.747418794 1.354564233 1.7805602309 1.337497513.5053029124.11200035-6.4053960168 5.475323777-9.5582698695 9.370802617-8.8133822084 6.00428543 1.1534542712 7.921198087 7.1796277696 7.862531237 10.7251321826-.17493388 10.9491115492-10.704780119 19.0253501207-20.545877539 33.0596553111z"/><path d="m174.273217686 297.7248610266c-9.84109742-14.0343051904-20.370943659-22.1105437619-20.545877539-33.0596553111-.05866685-3.545504413 1.858245807-9.5716779114 7.862531237-10.7251321826 3.89547884-.7448876611 9.258802267 2.4079861916 9.370802617 8.8133822084-.01706672 1.2752573185 1.350297553 1.2421158816 1.337497513-.5053029124-.18346724-5.0525171224-1.782832238-10.9350315052-4.470840638-15.7234518023h12.89177362c-2.6880084 4.7884202971-4.287373398 10.6709346799-4.470840638 15.7234518023-.01280004 1.747418794 1.354564233 1.7805602309 1.337497513.5053029124.11200035-6.4053960168 5.475323777-9.5582698695 9.370802617-8.8133822084 6.00428543 1.1534542712 7.921198087 7.1796277696 7.862531237 10.7251321826-.17493388 10.9491115492-10.704780119 19.0253501207-20.545877539 33.0596553111z"/><path d="m18.610544575 49.9560654182v-3.108916382h2.805875435v-5.12854936h-14.034923859v-3.618784642l15.186927459-23.339592936 2.480861086.01280004v23.32700623h4.29654676v3.618784642h-4.29654676l-.08106692 5.12854936h2.351900683v3.113183062h-8.709680551zm2.805875435-26.651069951-9.642270132 14.796206238h9.642270132z"/><path d="m219.499705685 282.6435765644v3.108916382h-2.805875435v5.12854936h14.034923859v3.618784642l-15.186927459 23.339592936-2.480861086-.01280004v-23.32700623h-4.29654676v-3.618784642h4.29654676l.08106692-5.12854936h-2.351900683v-3.113183062h8.709680551zm-2.805875435 26.651069951 9.642270132-14.796206238h-9.642270132z"/></g></g></svg>