<svg height="88.000046mm" viewBox="0 0 238.11073 332.5986" width="63.00013mm" xmlns="http://www.w3.org/2000/svg"><g transform="matrix(1.07145 0 0 1.07009 -3893.9004 409.58126)"><rect fill="#fff" height="310.81366" rx="10.62995" ry="10.629899" width="222.23224" x="3634.2344" y="-382.75403"/><path d="m3651.3749-332.94062c-4.2914 5.46461-8.883 8.60928-8.9592 12.87259-.026 1.38052.8102 3.72696 3.4285 4.17609 1.6987.29004 4.0374-.93762 4.0863-3.43171-.01-.49656.5887-.48365.5832.19675-.08 1.96732-.7774 4.25782-1.9496 6.12231h5.6216c-1.1721-1.86449-1.8696-4.15499-1.9496-6.12231-.01-.6804.5907-.69331.5832-.19675.049 2.49409 2.3876 3.72175 4.0863 3.43171 2.6183-.44913 3.4541-2.79557 3.4285-4.17609-.077-4.26331-4.6679-7.40798-8.9592-12.87259z"/><path d="m3839.327-121.75366c-4.2914-5.4646-8.883-8.60927-8.9593-12.87258-.026-1.38052.8103-3.72696 3.4285-4.17609 1.6987-.29004 4.0374.93761 4.0863 3.43171-.01.49655.5888.48364.5832-.19675-.08-1.96733-.7774-4.25783-1.9495-6.12232h5.6216c-1.1722 1.86449-1.8697 4.15499-1.9496 6.12232-.01.68039.5906.6933.5832.19675.049-2.4941 2.3876-3.72175 4.0863-3.43171 2.6182.44913 3.4541 2.79557 3.4285 4.17609-.077 4.26331-4.668 7.40798-8.9592 12.87258z"/><path d="m3652.1674-339.68957h3.3048l-4.8549-12.14592-3.7094 5.13063.026 7.01529h2.6048v3.61799h-9.1799v-3.61799h3.0245v-26.12058l-3.0245.012v-3.16235h9.3143v3.26941h-2.5702l-.055 12.73075 8.1305-12.83781h-2.8698v-3.16235h9.9096v3.16235h-2.6149l-6.6944 10.49104 6.5548 15.62306h2.9094l.015 3.61799h-10.1899l-.031-3.62317z"/><path d="m3838.5314-115.00471h-3.3049l4.855 12.14593 3.7093-5.13064-.026-7.01529h-2.6049v-3.61799h9.1801v3.61799h-3.0247v26.120585l3.0247-.01196v3.162352h-9.3144v-3.269409h2.5703l.055-12.730748-8.1305 12.837805h2.8698v3.162352h-9.9096v-3.162352h2.6149l6.6943-10.491035-6.5548-15.62307h-2.9093l-.015-3.61799h10.19l.031 3.62318z"/><path d="m3663.7165-358.92498h163.2681v263.15556l-163.2681-.000001zm115.8832 261.47937c-6.0709-11.07093-15.6684-29.10502-15.9521-29.2484-3.549 1.90052-39.7297 6.77203-57.1328 2.0546-5.9517 8.99259-11.7959 17.89843-16.9779 26.812084zm-55.5674-33.11347c-.9098.0348-1.9254.57843-1.7381.0928.1083-.28074.3654-3.11979.4777-4.13514.2722-.45179.6555.73252.6118 1.83221-.025.63107.2765.18048 2.337.28921 2.2287.11761 4.0547.53766 4.8109.70208 2.6358.57313 7.7351.16167 9.9202-1.43643 1.1829-.86509 1.6304.0691.4109.9976-5.5069 4.19282-9.873 2.59407-14.6572 1.89149-.951-.20237-1.3095-.26682-2.1732-.23382zm2.3415-3.97822c-.3424-.22393-.5674-.24721-1.0055-.0417-1.69.79266-1.248-.34439-.031-1.48954.556-.52301.54-.78952.1177-1.33913-.2137-.27822-.5705-.31251-.4856-.72961.3657-1.79691 2.8767-4.51496 5.6831-5.72942 1.1675-.5052 1.3522.0472-.1241.91889-2.2703 1.34048-3.0046 2.48432-1.7204 2.01888 2.4897-.90239 4.7609-.26546 7.9465 1.33103.9101.45612 1.327.54528 2.1013.46227.5722-.47679 1.0846.0966 1.4393.39601.2228.17992.2704.26625.5241.20641 1.8131-.42775.7266.7329-1.7512 2.54913-4.4376 3.15073-9.2787 4.63643-12.6947 1.4468zm6.8277.77484c1.8136-.54877 4.0257-1.69558 5.3822-2.89159 1.6489-1.45375.7163-1.23267-1.1784-.31638-2.7423 1.3262-4.6624 1.70946-7.7474 1.63828-2.5822-.0596-2.5012-.16442-2.5952.15861-.3303 1.13412 3.2233 2.29334 6.1388 1.41108zm-5.0102-4.42966c.1473-.48846.26-1.13949.1282-1.35111-.2388-.3833-.7522-.10013-1.405.72779-.4044.513-.3488.58256.047.98721.1989.13543.3514.23658.4712.30594.5511.23604.6397-.27735.759-.66983zm1.1288.66951c.7944-2.71387 2.5721-2.66114 3.8406-.064l.8945.005c-1.839-5.05287-5.3997-2.494-5.5187.0195.4192.13976.7836.0395.7836.0395zm6.6423-.45713c.8394-.4698.7162-.78948-.3531-1.34316-.7599-.39344-1.1621-.47291-1.3002-.21899.01.55993.033 1.36091.3556 1.80482.3348.20432.7959.003 1.2977-.24267zm-11.7667-7.72921c-.1537-.255-.1266-.7214.4573-.99275 3.6006-1.67323.977-5.20455-1.8027-2.55597-.8815.72609-2.1926 1.06333-3.2051.63092-.9524-.41644-.9701-1.58488.2949-1.83417.4151-.0818 1.4803-.3089 1.8734-.58282 4.8325-2.59537 7.3991 3.04772 3.9703 4.92588-.7048.41292-1.4525.64351-1.5881.40891zm-13.538-5.1242c-1.9614-.89161-2.23-3.98837-.3919-5.19429 1.17-.8027 2.3663-1.02152 5.589.57861 2.2763 1.13027 3.5793-.0868 3.5205 1.22853-.036.7997-.083 1.60622-1.4066 1.7989-2.1511.31318-3.6196-2.61579-6.3825-2.33964-1.9935.19923-1.741 2.59211-.3006 3.07834 1.9196.64795.7557 1.41597-.6279.84955zm35.9108.46504c-.265-.00073-.3679-.70584-.2223-1.05788.9669-2.33825 1.882-4.1872 2.7705-6.37273.7088-1.74133 1.1843-2.48984 1.5024-2.48782.3249.002.4756.25686-.068 1.32899-.738 1.94229-3.3211 7.42161-3.7419 8.43133-.064.15475-.1446.15838-.2407.15811zm-15.9515-.61957c-.8675-.6201-.7212-1.53982.2661-.84332 1.2687.89506 3.3486-.74304 2.9244-2.28883-.5125-1.86786-2.9859-2.32044-5.0566-.64744-3.2667 2.63935-6.8507 2.77335-6.8506.71048.01-.58994-.076-.72384 1.283-.81586 1.5805-.10698 3.3632-.83355 4.2492-1.37549 3.974-2.43052 8.2016-.75254 7.3261 3.30261-.395 1.91285-2.7312 2.8393-4.1416 1.95785zm-14.5709-5.9851c-.3224-.01-.9121.31616-1.0811.18949-.3308-.24805-.2829-.96729-.555-1.73776-.4828-1.36736-.012-.93998.8377-.57049 1.154.44769 2.2474.36124 3.2207.0222 1.0038-.34975 2.3211-.26984 4.4294.006 1.696.22213 2.6487.15752 4.1882-.28405 1.6706-.52517 1.2284-.33634.9497.698-.1812.67845-.4099 1.58836-.6222 1.80698-1.1549-.64948-2.0319-.39783-2.791.0439-1.2473.55122-2.1315.6464-3.1528.33932-.9608-.54894-1.5311-.50376-2.303-.0299-1.3298.64651-1.9199-.42233-3.1206-.48401zm24.913-2.84229c.234-.41266.5741-.98077.8938-1.61805 2.5811-5.14592 2.7573-6.57689.9354-8.31067-2.4484-2.32992-4.5351-1.31912-6.8808 3.33306-.5694 1.12929-.9099 1.97789-1.1399 2.3264-.2652.4017-.5749.0921-.7277-.0643-.2892-.29599 2.3139-5.23468 3.3342-6.31264 2.6704-2.82109 7.6325-.56428 7.3166 3.27317-.1591 1.9328-.5252 2.99184-2.2859 6.53532-.4358.87708-.8141 1.62036-1.0448 1.97825-.826.55539-.6372-.71875-.4009-1.14052zm-24.3292-.20476c.4076-1.83286 6.2605-2.68093 7.8029-.27755.1507.23479.062.22529-.5996.0429-2.9759-.98726-3.5662-.9333-6.4173.19781-.4287.16591-.7336.23425-.786.0369zm22.332-.34807c0-.17215.2177-.84955.5483-1.50534 1.9515-3.87177 2.4896-4.80569 1.8943-5.52991-1.1598-1.41088-2.7176-.18471-4.1492 3.85856-.5351 1.51135-.8998 1.18896-1.1607.95044-.5-.45693 1.7133-5.16126 2.7804-5.86261 2.4193-1.54454 4.3236.2431 3.2545 3.40249-.8342 1.4265-1.5231 3.62111-2.302 4.77572-.3698.5179-.8684.36461-.8656-.0893zm-8.7518-6.28878c-.1177-.19521.1107-.45777.9489-2.26085 1.1523-2.4787 1.5097-3.39787 1.0415-4.81301-.8345-2.52204-3.9803-3.14019-5.8914-1.48513-.6252.534-1.0493 1.27348-1.344 1.93731-.6905 1.53715-1.266 3.52509-1.6752 3.94213-.3576.36207-.8569.43563-.8242-.1959.4542-1.33832.6687-2.37605 1.7428-4.33757 2.6776-5.84142 10.3957-3.13663 8.5892 3.01232-.6716 2.23219-1.4442 3.92282-1.9011 4.47183-.2542.30542-.676.0401-.6865-.27113zm-1.7912-1.073c0-.19213.2905-.74.5979-1.50325 1.3052-3.24141 1.3138-4.23486-.5888-4.27654-1.1378.1469-1.3068.61521-2.3059 3.17259-.3245.83064-.5034 1.42229-.6962 1.67572-.2069.272-.5952.11064-.7545-.0524-.408-.41756 1.3733-4.61146 2.3149-5.40209 2.1654-1.89224 4.9706.79467 3.6566 3.20675-.616 1.6863-1.1467 2.83029-1.5081 3.35166-.3196.46111-.7195.3961-.7159-.17239zm-46.0932-37.79162-6.5769-.45333c1.1653 7.06751 1.2245 14.84736.047 20.36443-1.0065 4.71704-1.018 8.1916-.7176 12.28122.3495 4.75834 2.3545 8.79303 2.8592 13.84402.3656 3.65968-.4403 7.4792-1.1601 11.11777-1.203 6.08052-.955 6.71555-.7779 13.85062.1641 6.6154-.4498 6.37824-.8275 5.99177-.057-.0585-.11-1.22834-.1014-2.61963.01-1.39128-.077-4.79395-.1558-7.15599-.1576-4.7187.3644-8.88882.7427-10.60494.7698-3.49276 1.6349-7.07095 1.1021-10.93651-1.0826-4.87907-2.6085-9.75161-3.1438-14.45433-.66-5.79875.9625-11.61689 1.4989-15.82833.518-4.06626-.031-11.10081-1.0908-14.02846-.1826-.97386-1.0484-2.2438-1.0484-2.2438-1.0282-.12787-2.4466-.20257-3.378-.27445-.078 27.92472-.0008 55.86073.021 83.78908l6.1329 5.72255 6.3015-6.02426zm.4427 32.03335s9.3578 5.41785 19.6757 10.74224c-.9825-6.09188 2.1336-7.01033 5.0592-7.71735-.7009-11.76847 10.0205-9.35432 11.6633.87074l1.0563.004c1.8578-5.09791 3.695-8.61619 7.9247-9.45587 3.2779-.65073 6.511 1.43711 7.3306 6.35446-.1444-.34569 10.8692-6.50091 11.1727 6.50344 5.0015-3.12258 8.5704-.42511 10.013 3.53995 2.1118-3.23629 7.3972-3.37862 9.0871-3.61385-.092-.73405 6.1473-1.94525 8.9404-.98087 3.411-.44634 4.8279 2.31502 6.5201 3.08961 3.5528-1.00596 13.054-4.36535 12.2472-6.08916.093.0594.5016.59184 1.1175.84021.2206.0889 2.2377-1.12632 2.2377-1.12632-13.6736-15.84377-24.863-46.92064-17.436-75.5377-1.0607-.94368.9632-.16498.4886-.0365 0 0-2.6058 12.74655-2.294 18.24995 30.624 14.66489 26.8572 45.56203 19.0235 55.75212l1.2415 1.6635c.5494.37017 24.1192-13.45343 23.3417-14.02086l4.4599-2.23325-.7228-60.40807-17.6387-1.35652s.1881-.50731.4112-.63887c.1613-3.68766-.1665-9.14231.01-13.70793.069-13.04707.1992-17.48383.031-17.84471-5.4405-3.60297-13.5525-8.87154-20.3794-11.42635.2801.0805-.1112 5.40645-.3189 5.71031-6.3875 2.04995-3.4227 4.67004-5.7833 7.48415-1.5858 1.75302-5.2976 2.08676-7.0895-.0164-2.1415-2.08417-3.1456-6.86541-3.1456-6.86541-3.3789 3.63412-2.6851 8.02441-7.21 9.67733-7.2731 3.62869-9.5823-7.21986-9.1593-6.96841-2.7874 2.70219-10.6077 4.89999-11.4527-6.51087-3.516 3.25602-7.4577 1.63965-9.1298-2.36693-2.1463.0763-4.5532 1.76794-6.7258 2.68211-2.0159.89751-4.5949 1.42466-6.5093 1.38465-2.3943.29117-4.3663.28014-6.5241-.36614-1.0135.33092-3.2992-.65909-4.0046-2.07712-1.0789-1.27522-2.0196-1.34961-3.0453-1.11942-3.494 1.85107-7.2405 2.29808-11.365 4.23593-.2576.17993.3623.51882.1538.4523-.088-.028-2.1666 1.02633-2.1666 1.02633 20.8927 27.62714 22.0295 55.52057 17.6502 75.29044-.1717.68509-.2665 1.18257.185 1.72169-.6626-.11477-.6733.0803-.7971-.34685.4369-5.96746 2.2503-8.56252 2.2027-18.13487-7.4953-4.09791-15.9808-10.11684-19.6129-17.5483-8.0061-12.5331-5.3647-27.4878.6321-39.33687l-1.4917-1.55815c-17.5115 8.82434-27.8507 18.33937-27.8507 18.33937l.075 59.27621 17.9955 2.08729zm-8.6815-39.58282c-.5769-.64157-2.0464-.75412-2.6589-.26636-.1413.11991-.4432.74843-.5325.72539-.4203-.37867-.8494-.40458-1.4881-1.07279l.8652-1.31537c.6848-1.04103 1.6724-1.41038 3.3358-1.80152.5905-.13886 1.4815-.26588 1.7964-.4003 1.25-.54337 1.6854-1.71949.4193-1.1925-.9247.25541-2.2167.17089-2.3883-.67947-.1409-.69871-.7325-.97257-1.3924-.89058-1.2191.2947-2.3327.93516-3.4121 1.57964-.4787.29015-1.3864.94747-1.3864.94747-.1431.22577-.6713-1.42131-.179-1.90256.6116.0745 1.1378.0803 1.7341-.15868 1.4878-.59627 2.9201-1.3158 4.4215-1.89312.9563-.37756 1.044-.3456.792-1.02824-.1242-.25162-.2343-1.08798-.07-1.52577.175-.46522.1554-.69924-.1415-.89825-.6756-.45279-2.2959-.031-4.5749 1.06994-.6939.3359-1.1515.47039-1.5903.8267.283-.72547.1182-.85924.1108-1.61877.9304.11738 1.7677-.25419 2.5103-.6478.6127-.32227 1.2997-.64035 2.9833-.85672.4599-.0591.2507-1.75203-.2731-2.2427-.4953-.46393-1.5364-.47394-2.7955-.0992-1.125.25986-2.5234.52284-3.297 1.73803.7434-2.05319.1875-1.25146 1.8033-2.52616.7803-.0168 2.5012-.38818 2.9062-.47824.6868-.15272.7969-1.77375-.2013-2.46817-.6249-.54858 2.2707-.56287 2.2149-.39557-.037.0954-.064.78825.1576.96494 1.2471.37739 1.236 1.40315 1.3453 1.83521 1.4322 2.36453 2.1371.88116 3.1229.0665-.2077 5.14948 1.5825 5.7353 1.8193 6.06126-2.4591 4.61386-.6045 4.72716 1.701 5.7885 0 0-.8764.35764-1.4596.32152-.9174-.0568-2.6735 1.03723-3.4413 1.68188-.4235.35561-.4365.059-2.1302.01-1.5956-.0466-1.7128.0731-2.4404.39732-1.4355.63956-1.4281 1.2436-.026 1.00582 1.4938-.25409 2.9574.65859 3.1292 1.90116.1184.23507.013.25486-.011.24109-.3112-.0589-1.0147.059-1.004-.0906.011-.14968-.0003-.31717-.2756-.71245zm2.18-6.24026c.4052-.26009.4748-1.00102.1222-1.30055-.3209-.2726-1.6843-.12693-2.0697.22114-.8709.68972.7208 1.84329 1.9475 1.07941zm.873-3.09997c.5012-.3933.5625-1.33868.1282-1.8877-.7363-.93092-2.6608-.37366-2.765.80067-.111 1.25044 1.5887 1.90961 2.6368 1.08703zm-.6262-4.25295c.091-1.02694-.9201-1.67733-1.8497-1.19033-1.1578.60659-.4547 1.8851.9954 1.80992.8033-.0417.8033-.0417.8543-.61959zm-3.3891-4.16677c-.5408.26678-.5681.90684-.056 1.31908 2.0313 1.12823 1.4128-1.89337.056-1.31908zm141.8621 6.13813c-.8917-3.30592-3.3499-.0283-3.3533.0174-.087-3.38794.5501-4.89581-1.9747-6.05307 2.5338-3.86185 2.0054-4.39437-.6812-5.87608.2476.0216 3.5664-.72678 4.1344-2.63426.126.0892 5.2087 1.34889 5.8428-1.44201-1.5335.70312-4.5501.80809-4.5844-2.19309.2854-.0863 1.0004.0617.9406.15737-.4012 1.92476 3.0837 2.40087 3.6537.8806 0 0 1.1705.78929 1.6854.91117.057.0387-1.5848 2.33051-3.0826 2.67623-2.7001.89941-3.6313 1.14197-3.6346 1.68186-.0008.20972.4407.2431 1.2429.40827 1.6767.11621 1.6416.47871 1.8615 1.03768.1946.49436.3838.59331.943.54319 1.9152-.64036 2.8731-.97667 4.2078-2.31971.1623-.0318.3511 1.41173.4544 1.46121.016-.23017-1.3552.17168-3.4605 1.41119-1.7184 1.01168-2.391 1.15867-2.6094 1.4319-.1621.20267.2553.84087.2993 1.53389.037.58269-.3525.86534-.066 1.04722.3308.21008.8432.17172 1.5165-.004 1.4855-.36033 2.579-.94795 3.914-1.77824-.2839.54036.1918 1.91142.1918 1.91142s-.6591-.46645-1.2014-.22449c-1.2357.60763-2.46 1.18733-3.9969 1.50814-.2125.18128-.177.61763-.181 1.25814 0 .44955-.1304.86421.1504.99992 2.1039.25742 3.3621-.24176 4.8712-1.18707l-.3632 1.89566c-.4866-.5516-1.8826-.14532-2.8172.22537-.4716.14926-.6127.44754-.7324.8613-.2087.70769.2379 1.19488.7529 1.42732.3429.1548.871.0914.871.0914-1.5484.98034-1.5682 1.29177-3.3525.56571-.611-.66554-1.2095-1.36795-1.4423-2.23112zm2.5344.00075c-.4017-.46711-1.1015-.73487-1.5088-.55044-.363.19398-.2326.59963-.1168.90949.3066.8582 2.4342.58121 1.6256-.35905zm-1.4132-2.36314c.5677-.74891-.057-1.75607-1.1056-1.76272-.729-.005-1.1176.45228-1.1098 1.02631.015 1.08736 1.7414 1.36177 2.2154.73641zm-1.1653-2.85347c1.0515-.28796 1.3742-1.31366.6473-2.0575-.5166-.52878-2.1391-.59455-2.5727-.11638-1.1075 1.22136.1336 2.6646 1.9254 2.17388zm.8745-3.75323c.6174-.31773.7366-.84726.191-1.44927-.9904-.84808-2.7187-.18656-2.1603 1.04994.2735.60563 1.2168.78656 1.9693.39933zm-126.5681-28.48731c.9287-.34011 1.5992-1.06535 2.5767-1.62176.6593-.36227.4607-.30463-.383-.801-.6636-.30695-1.9934-1.66204-2.1177-1.33884-.3013.57769-.2583 3.73528-.076 3.7616zm23.5776 30.74705c.1259-1.35679-.1166-.96037-.8463-.51712-.5399.35048-1.4058.8829-1.7454 1.05336-1.339.67201-1.1788.70723.706 1.61996 1.2662.57061 1.6331.63989 1.7435.40275.1312-.84206.1227-1.76032.1422-2.55895zm-1.9343-.84848c1.2796-.81137 1.7042-1.22962 1.7662-2.14057.01-1.04759-.1147-1.42857-1.0274-.70335-3.1141 2.47447-6.3197-2.38062-3.469-5.07778.5814-.55001 1.3197-1.41085 1.3262-1.62935.047-1.56446-1.7033-.0453-3.1333 2.10289-1.5831 1.95306-2.5695 4.39729-1.1803 6.74389 1.1111 1.71723 3.5845 2.05693 5.7176.70427zm-7.0758-3.15966c-.056-.76584.158-1.62132.2572-1.87596.3493-.89617.3347-1.00758-1.2521-.26162-.6327.21019-1.3882.38066-1.6789.37882-1.296-.008-.9725.40197.8849 1.96014 1.8668 1.56603 1.929 1.70765 1.7889-.20138zm4.4139-7.49995c.1979-.47145-.2135-.65274-.607-.56388-.031.007-.7108.51707-1.5092 1.1495-2.4203 1.91726-4.1954 2.14116-5.396.6806-1.2175-1.48109-.7086-3.23764 2.0125-5.24871 1.2006-.8873 1.4887-.94745.9114-1.33502-.4392-.29483-.4657-.24987-2.1914.92559-3.4778 2.36883-4.5192 3.9865-4.1705 6.34392.071.96814.5755 1.47524 1.0633 1.85193 3.316 2.95611 7.916-1.11962 9.8869-3.80393zm3.5101 1.3985-.2094-3.26174c-7.2707-6.43904-10.0915-15.02879-8.1104-23.95332l-1.9104-3.6406c-1.6628 3.86355-2.389 9.75532-.5801 15.75827 1.5355 5.09577 4.6097 11.26762 10.8107 15.09739zm-14.8926-1.90013c1.1236-2.17025 1.1583-1.93588-1.012-1.95462-2.477-.0214-2.2002-.32497-.8042 1.80345 1.1211 1.70928.9325 1.85827 1.8162.15117zm1.488-2.97427c1.4269-.46073 1.1011-.35491 2.9948-1.59399 2.1734-1.42214 2.2644-2.19985.082-1.10396-2.8016 1.40707-5.262 1.04735-6.1751-.78902-.8137-1.63669.885-3.67758 3.6821-4.47599.9557-.27282 1.4593-.50327 1.4619-.9244.01-1.28357-4.7534.42891-6.7153 2.36711-3.7871 3.74139-.4731 8.18074 4.6692 6.52025zm-6.1228-5.82529c.1278-.19519.4679-.66296.7821-1.14786 1.3411-1.56803.2136-1.09939-.9771-1.52798-.6289-.23382-1.2738-.46584-1.6429-.40955-.7124.10864.2398 1.49269.469 2.38599.6409 1.98961.5673 1.92863 1.3689.6994zm5.0697-3.58548c2.4008-.23617 2.6456-.46963 2.6487-.97012 0-.49631-.2936-.40134-1.4987-.23298-3.1913.44584-5.3046-.37113-5.7608-2.08248-.471-1.76718 1.6905-3.43975 4.571-3.34095 1.5602.0535 2.5992-.489 1.649-1.01069-.4946-.27161-4.7916-.213-5.7633.0717-2.8554.83654-4.0188 2.43409-3.7584 4.64582.395 2.73119 1.8775 3.51412 5.4913 3.32021.6925-.0371 1.575-.31727 2.4212-.40051zm1.8575-8.8964c0-.42607-.6828-.4881-2.9481-.82641-3.0173-.45061-4.3654-3.25954-2.5466-4.94957.6894-.64066 2.3323-.91555 3.2475-.74781 1.9893.36462 3.2055.77617 3.2244.0971 0-.60565-.5733-.64903-4.3075-1.44249-5.6417-1.20032-8.7389 4.37092-4.228 7.09564 1.7136 1.03509 7.553 1.62369 7.5583.77352zm1.3988-7.97135c0-.2134-.1819-.37746-.6092-.54561-2.6412-.72175-6.291-4.26645-3.6233-6.33581 1.2065-1.28101-.964-2.79318-2.6935-1.34771-1.7969 1.50182-1.6459 3.85965.4236 5.72613 1.9054 1.7186 6.4962 3.50542 6.5024 2.503zm-9.1412-.33305c1.9609-.92546 3.3694-.39288 1.8688-1.6701-.8424-.78521-1.5613-3.0176-2.1468-1.1241-.4481 1.12852-.7774 3.11905-.7895 3.3149.1315.13455.1017-.0963 1.0675-.5207zm66.1692-10.48037c.3212-1.41683 1.6467-4.75585 1.9072-4.96361.9859-.78621.8504.2599-.054 2.07706-.8247 1.85489-1.4676 3.34644-1.2123 4.45017.3633 1.57106.995 2.77013 2.6188 3.16878 1.1415.28022 2.217-.19824 2.9458-.71604.9637-.68459 1.8748-2.44078 2.9639-4.87247.3479-.68379.8152-2.78439 1.3953-1.50264.2796.66338-2.0443 5.07564-2.9129 6.19378-3.8053 4.66415-8.8387.14948-7.6518-3.83503zm16.6553 4.19994c1.088 1.04848 2.9269 1.57595 4.1273 1.20013 2.9459-1.04419 4.2843-3.84385 3.1691-8.34453-.5645-2.52295-1.0475-4.09205-1.5359-4.404-.2374-.15164-.497.131-.7278.48215-.2059.31339.1089.75381.4431 1.94124 1.4077 5.00138 1.0396 7.26286-.6785 8.21873-2.4925 1.3868-4.6281-.2103-5.3515-3.77865-.1159-.5514-.4573-1.67576-.4573-1.67576-.1909-.49614-1.7347-.3863-1.1735 1.27488.1689 1.28489 1.3462 4.35057 2.185 5.08581zm12.6368-13.09921c-.039-1.75957-3.718-9.39468-3.9686-8.58432 0 0-.016 1.7845.1283 2.48663.055.26496.2453.51058.4027.79292 3.1972 5.73469 2.7035 9.77616-.069 10.66146-.9444.43112-1.1497.85561-.7274 1.30034.8544.93447 2.9971-.91351 3.4142-1.58446 1.049-1.50494.9031-4.25039.8196-5.07257zm-53.5405-1.29796c5.6342-7.30034 9.9709-23.96393 10.7114-34.50966-.1971-.21409-1.4399-.10169-1.8572.11263-.1999.26189-.066.84256-.1375 1.59926-1.1215 8.71845-3.1921 16.66108-6.2628 24.74631-1.3432 3.5123-2.5902 5.82459-4.2081 8.26732-.2824.42642-.6418.86565-.7833 1.11354-.409.59397-.1081.98207.3657.73089.8415-.47901 1.5672-1.39887 2.1718-2.06029zm-4.1087 2.1213c6.2216-9.33826 9.6472-19.4121 11.9858-36.21874-.5189-.14059-1.4877-.0534-1.8235.20749-.2057.313-.069.93934-.2586 2.3878-.4918 3.74552-1.2282 7.50605-2.4709 12.42921-3.2807 10.89669-6.2956 16.99723-10.2557 22.33486-.32.44899-.605.74081-.5764.93127.042.27936.4262.25654 1.0557-.13912.8224-.65044 1.7628-1.21817 2.3433-1.93277zm-5.8557 2.82819c1.8801-1.07411 5.1912-5.74699 7.5308-10.77987 2.6245-5.94144 4.8212-12.65261 6.2593-18.46489.624-2.547 1.5115-8.90786 1.3846-9.32662-.1192-.30921-1.9646.0587-1.7333.26027 0 0-1.8258 10.22476-3.7905 15.86084-3.6472 10.46311-6.8013 17.56204-10.1958 20.97493-.445.4474-1.3212 1.3226-1.3212 1.3226s.018.39042.3016.44996c.6771.1259 1.128-.0714 1.5645-.29722zm-2.8781-.41696c4.243-2.38995 9.2127-13.5522 13.2694-27.56763.6941-2.39787 1.9625-10.42586 1.9625-10.42586s-1.6906.0633-2.0169.4212c-.328.4851-.2754 1.72019-.749 4.65365-1.8242 8.86523-4.5758 16.95164-8.7113 24.94377-1.7888 3.54139-4.7608 6.87656-6.6369 7.82634-1.0491.53106-1.3559 1.11632-.5879 1.1585 1.2937.0466 1.4088.31933 2.3485-.18912zm58.1434 124.83335c-3.1817-.0114-5.8847 3.0645-8.2926 6.93039-5.1222 7.92088-8.5651 21.15827-9.4032 28.19287l1.9324-.36752c-.2899.13424 3.6125-18.72435 9.5578-26.79935 3.214-5.09472 3.0787-5.17178 4.883-5.63907 2.2812-.59083 4.1112 1.89636 2.9792 3.39474-.4095.50709-.8589.13465-.7321-.58809.4046-2.30616-2.9348-2.74974-3.8676-.48386-1.073 2.60638 1.78 4.93114 4.5678 3.90624 2.4911-.88655 3.5346-4.39605 1.7857-6.9885-.8992-.87684-2.1994-1.65523-3.4104-1.55785zm-16.7507-.32318c-3.8103 4.82167-5.6977 9.77657-8.0373 16.54127-2.3376 6.75927-4.0169 13.37045-4.7447 20.95644l2.0556-.2668c-.075-4.87708 5.2284-28.09801 12.6809-36.79646.4161-.55072.7503-1.00824.7191-1.13612-.4135-1.17407-2.1805.24006-2.6736.70167zm8.4178-1.80033c-4.9381 4.07763-8.8829 12.9854-11.4843 21.21984-2.812 8.90106-4.0736 17.0576-3.8624 17.0576l1.9621-.29074c-.1461-.5168 5.5123-31.8803 16.0125-37.59041.9105-.45762 1.1015-.9192.3338-1.11909-1.1818-.1671-2.1325.22426-2.9617.7228zm5.5291.0207c-10.783 1.43082-17.8293 34.77089-18.0647 37.53883 0 .0427-.039.25772-.039.25772l2.1468-.44592s.018-.10654.028-.15967c1.4786-8.51831 2.9192-14.49053 6.2798-22.19001 2.6199-5.70609 6.2335-13.0016 11.6335-13.70919.4387-.0575.8546.11996.701-.39498-.3289-.8176-1.943-.9217-2.6846-.89678zm-64.2636-10.49886c-3.8972 1.00977-4.024 5.7188-1.4284 11.73594.1961.45454.1608.70295.3595.87815.4437.39139.7918-.15446.8412-.51463.075-.54691-.1568-1.28293-.569-2.3521-1.6059-4.16483-1.2209-6.56435.3698-7.62585 4.0764-2.11753 5.1733 2.23043 5.7897 4.23084.151.48759.2027 1.15739.4687 1.19411.8133.11231 1.201-.17856 1.1889-.17856 0 0-1.0798-3.74468-1.7382-5.15145-1.0653-2.27633-3.5988-2.75256-5.2822-2.21645zm-28.2744 4.4457-.04 49.6336-7.4602 7.06628c-3.2019-2.76777-7.4077-7.10231-7.4077-7.10231l.1324-83.90698-2.4003-.1939c-.5874 36.04985-.011 72.82912-.039 108.949664l21.9013.000002c6.1045-9.814616 12.5245-19.465986 18.5606-29.310646.224-.55557.1981-1.38333.088-4.44161-.045-1.24288.094-2.19738-.088-2.48883-.1839-.29511-.5736-.0842-.937.0804-.3702.16763-.5906.10816-.3913-.3321.113-.24971.4786-.79771.7942-1.32021 1.0251-1.6971 1.2757-2.24067.9294-4.12256-.085-.46247-.506-.85408-.8722-1.39937-3.0726-4.57547-4.324-11.35761-2.7984-16.32496.4862-2.19596.3112-2.64079-.7391-4.35206zm96.5644-53.36801c-2.0055-1.0392-1.9668-1.01612-1.979.95033.011 1.47072.039 1.82632.5854 1.62817.7911-.40556 1.7579-.77748 2.4875-1.09011 1.3934-.48289-.3762-1.10166-1.0939-1.48839zm7.9402 5.11197c-1.5566-1.25365-.9819-1.10963-1.4225 1.71721-.2662 1.70751-.6095 1.75156 1.141 1.18686.9938-.34687 3.0369-.12826 2.1205-1.30527.01.0207-1.5336-1.33735-1.839-1.5988zm-67.3694 51.91751c-8.3442 1.00338-11.8373 9.28559-12.2104 16.1915-.2945 5.45175-.6608 11.81746-.1157 12.37524 5.4712-2.48296 7.5788.38264 8.0972-.38994.2369-.3372-1.2131-1.45554-3.0346-2.45874-.423-.23294-1.0784-.65216-1.3266-.85972-.6644-.55572 1.3262-.0778 2.584.78645 1.6046 1.10258 1.8743.87276 1.1779-2.34853-.7572-3.50187-.881-3.93101 1.7856-5.31906 1.067-.55543 1.6735-1.02702 2.4374-1.89119.6112-.69152.7676-.86009.5425.15628-.3901 1.76057-1.9412 2.52813-3.3381 3.24285-.695.35952-.9824 1.08326-.9862 1.70415 0 .63364.7171 4.05606 1.0509 5.14913.3093 1.03907.423 2.08041.662 3.1394.6267 2.74879.6669 3.28778.3502 5.28278-.1857 1.17001-.28 1.83679-.2155 2.54362.059.64244.1468 1.51636.1468 1.51636 0-.0304-1.4897-1.54477-4.757-.24646-2.3554.93598-4.2165-.0397-5.5365-.73239-.3037 1.08235-.235 2.25814-.1983 3.5004 13.5843 2.50756 25.1859 2.1711 34.954 1.13883.1585-2.41893 1.781-17.14623 7.7373-30.13983.9359-1.66866 1.8811-2.81138 2.2286-2.98725.1804-.0913.072-.26129.1121-.40442-.034-.54193-.164-1.38134-.6258-1.75324-1.1272-.90777-2.9259.26115-3.5172 2.2858-.5181 1.21284-2.8825 6.45985-3.0513 6.37149-.1392-.0882-.4672-.0952-.3485-.50024.9052-2.12681 2.1487-4.37507 2.8489-6.28419.9673-2.74865 3.0708-4.19979 4.6429-2.46641.5388.59411.7553 1.14184 1.0024 1.33071.1864.14253.4374.045.5917-.18989.5927-.90185-.7812-2.94862-2.2554-3.35985-2.1278-.59357-3.7134.97356-6.1265 6.05527-1.3933 2.93402-1.6425 3.6708-1.8631 3.44506-.049.0199-.4188.0193-.285-.54911.2873-1.22159 2.1362-4.77151 3.4754-7.02334 1.9822-3.3332 5.6626-3.6033 7.2104-.71036.2366.39433.2484.90996.5112 1.26173.4751.6201 1.2565.49689 1.4501-.52135-.2108-.67411-1.5046-3.10903-2.4033-3.53322-2.0699-1.43652-4.5821-1.15466-6.696.75128-.4795.43235-.9796 1.31103-2.3818 4.18495-2.0655 4.6084-2.1204 4.62629-2.6847 3.88357.8303-2.24185 3.0154-5.88384 3.8974-8.12028.1679-.33323.2018-.69124.1889-1.03535-.051-1.62517.2115-4.49741-3.1921-6.5383-2.9025-1.57938-6.7345.0821-8.0394 3.19094-.9994 2.38112-1.7295 4.01698-2.2332 4.35435-.7078.47405-.5756-.18628-.5055-.42616 1.0058-2.15476 2.4207-4.33214 2.6446-6.5007.1315-5.26733-4.6012-7.55426-8.3417-5.82494-3.1339 1.32843-4.643 5.45864-6.061 9.27232zm-25.5809-118.48071c4.5961-2.15801 7.7432-3.24414 12.4266-4.63886.6327-.28013.7335-.34442.062-1.68736-2.9673-5.93347 5.1747-10.66314 7.9418-4.83902.3689.77652.4545 1.20594.8181.83452 3.5-3.72423 9.0759-18.01482 10.4369-27.97521-6.1791-10.86541-17.0423-30.77882-17.0423-30.77882h-43.4126v87.09735c12.094-10.19347 20.3232-13.88096 28.7696-18.0126zm51.5497-8.59658c.3356-.69567.8716-1.7744 1.0899-2.27632.2823-.91755 1.3392-1.49134.8244.1516-.117.35462-.3185.8329-.6378 1.46889-.6257 1.13627-1.22 2.52805-1.6653 3.43699-2.4052 4.8695-2.2911 7.70696.3964 9.81974 2.0074 1.9388 6.2233 2.15758 8.467-.9727.3359-.50423.6355-1.15291.7325-1.39083.975-2.39048 1.6944-3.58577 1.879-3.82239.9981-1.27966 1.1581.30592-.3331 2.74685-1.7086 2.79702-1.7383 5.82849-.2613 7.96134 2.1891 3.16121 6.3475 3.25103 8.9574.71492h-.0001c1.357-1.6063 2.4353-3.6499 3.3034-6.26218.1925-.579.3914-1.00905.5323-1.34847.2173-.52326.5302-.71802 1.3406-.8748 5.5556-1.07473 10.2181-6.83504 10.8799-13.12432.087-.85076.3265-2.35592.414-3.24925.1744-1.7823.1777-11.01419 0-11.56502-.094-.29698-.2595-.45427-.6211-.45007-.2776.003-.6705.10163-1.2347.30508-1.8316.66043-2.6841.82777-4.4439.19216-.5813-.20998-.9835-.2816-1.2221-.2608-.7762.0677.2554 1.19262 2.5185 2.43525.9697.53246 1.736 1.25001.9502 1.19693-.2285-.0154-2.9599-1.44097-3.337-1.67453-1.2442-.77066-.9196.19965-.2786 2.7526.8608 3.42842.365 4.39104-2.3154 5.73417-.4997.25042-1.1627.77294-1.5001 1.10966-1.4202 2.12007-1.0536.55816-.3377-.57111 1.2221-1.29263.4724-1.73348-2.0334-.83764-2.8584 1.02185-4.1503.27584-4.9498-1.32927-.9041-1.81499.7967-4.14947 2.2153-4.1038.4592.0148.3766.18185-.3001.64841-.8177.56377-1.2049 1.1075-1.29 2.07046-.1733 1.96279 1.217 2.79629 3.1596 1.47977.9174-.62166 1.6395-1.05104 2.3343-1.21037.6885-.15788 1.7225.10047 1.7191.65657 0 .22916-.033.7918.016.91649.1822.62135 1.1663-.25831 1.5945-.57062 1.4631-1.10485 1.4154-1.32268 1.0158-3.1146-.6532-2.50778-.9831-4.801-1.6058-7.34332-.3327-1.3319-.3891-2.83693-.1865-4.19425.1015-.68041.3636-2.07884.4167-3.03624.053-.95739-.01-2.32539.029-2.32517 1.4528 1.12293 2.0435 1.31925 3.4612.77552 2.1938-.90808 3.5795-.81369 5.4279.0794.684.33048 1.307.56341 1.307.56341l.084-2.87895s-1.7109-.35604-4.8731-.77569c-9.519-1.26323-29.0523-1.52996-29.7796-.36894-1.2859 7.69428-3.0347 16.91955-5.0584 22.87228-.3543 1.18123-.6926 1.65703-.5119 1.69226.074.0145.4275-.44302.5919-.63455.9261-1.07937.2166 1.48403-1.1814 4.57162-.1262.27877-.23.58405-.2306.6784 0 .1864-.8791 2.33839-1.4849 3.63945-.3764.80851-.6883 1.05218-.6851.53521.4246-1.77913 1.5478-4.08 1.7096-5.66514-.9839 1.43527-2.4167 3.80526-3.5009 5.219-.1999.38085.012.4986.1866.96934.6517 1.75762 2.2297 1.91496 3.1419.3234.5086-.88749 2.0882-4.23073 2.6379-5.6942.5654-1.5052.9625-2.29893 1.1508-2.39719.3781-.19739.4508.65833-.2196 2.08215-2.0342 4.32051-2.9057 6.74215-3.9017 7.63527-.7729.69304-2.1103.64891-2.8532-.5847-1.2596-2.09146-2.3347-1.39894-1.1789.74573 1.1939 2.21556 3.9221 2.42279 5.3469.42716.4703-.65881 2.684-4.92652 3.3797-6.66174.3884-.96886.8033-1.72332.9419-1.77718.7434-.28893-.1049 1.92319-2.2392 6.35196-.6916 1.71015-1.8023 3.50469-3.3059 4.0601-3.6531.8082-4.1473-1.14331-5.4182-3.36718-.6177-.5531-1.1771.33145-.9407 1.30934.3835 1.58635 1.1771 2.26677 2.3112 3.0239 2.2863 1.5263 5.2993.42213 6.1463-.70507.8471-1.1272 1.4253-2.03526 3.3065-5.93418zm13.4342 14.65399c-.3313-.74074-.2837-1.49279-.1145-2.19423.3831-1.58107 1.017-3.11529 1.7581-4.45025 1.1998-.57313.2833 1.70723.1332 2.04595-1.4471 3.04705-1.5838 4.22608-.2335 4.57771 1.157.30129 1.7791-.41355 2.8729-3.14553.5613-1.40206.7856-2.02293.9844-2.10364.4212-.17099.6239.00071.5991.42841-.7235 1.79382-1.2894 3.68001-2.4772 5.16941-1.1627.98328-2.9142.98857-3.5225-.32783zm-10.8523-2.34125c-5.7864-2.07031-2.3117-8.43022-1.1386-10.72839.1969-.38168.9343-1.86745 1.1712-2.35545.4243-.87389.842-.53165.8384.0466 0 .16256-.6345 1.5194-1.274 2.77874-2.7994 5.52674-2.7034 7.78093.017 9.09582 2.655 1.28331 3.8444.54478 5.9616-3.67382 1.2248-3.16714 1.8287-3.21953 1.7615-2.01583 0 .44916-1.485 3.4857-2.4414 4.89697-1.3449 2.00691-2.8685 2.68067-4.8957 1.95536zm.201-2.66679c-1.0422-.65136-1.4675-2.27185-.8514-3.59807.5603-1.09383 1.9959-5.28629 2.6706-5.52244 1.0848-.0375.5059.87992-.8382 3.45807-1.5898 3.41546-1.5327 4.3286-.3056 4.85144 1.1358.48391 1.6744-.50782 3.3495-4.50258.263-.62728.6301-1.27869.8455-1.14229.2662-.0203.7287.18222-.1519 1.99231-.2089.43284-.5636 1.34065-.9554 2.18627-1.1451 2.47153-2.4442 3.10154-3.7631 2.27729zm18.8155-7.24991c-.4588-.23788-2.6086-1.09085-2.2896-1.7976.039-.0664.1641-.0143.2277.0287 1.9683 1.33131 4.4166 1.66947 6.9698-.17867.4296-.38212.7504-.12371.5107.35622-.7734 1.54852-4.2148 2.21043-5.4186 1.59137zm-6.3231-2.24536c.059-.14861.2366-.59111.3936-1.18604.2361-.89422.1809-1.55272.39-1.43864.892.4865 2.4868.49817 3.2674.0172.8557-.52729 2.5919-.68844 3.2246-.27298.904.59355 1.3641.31752 1.9977-.18095.7151-.5626.728-.32213 2.0195.13022.9538.33403 1.3286.56271 1.7338.48854.1554-.0284.4708-.38569.5712-.36748.3104.0563.3452.9449.631 1.95924.2528.89738.1087 1.1138-.6881.57608-.5923-.39969-2.2956-.58827-4.0666-.0402-1.3123.40611-1.6142.24268-2.5771.0784-2.3996-.40942-4.1313-.72562-5.9195.3195-.9552.55827-1.302.84821-.9775-.0829zm-5.9689-4.43226c-1.163-2.35433 1.5117-5.47175 3.8626-4.37102.7795.36498 1.4728 1.74763.3194 1.11327-5.3467-1.08933-4.011 6.81372 1.7305 2.63916 3.816-2.55672 6.516-2.9522 6.7406-.47839-.1065.90871-.9064.7636-1.5126.8467-1.5817.22262-2.1665.48211-3.9989 1.2746-2.7884.88698-5.5135 1.6115-7.1416-1.02432zm20.9211 1.08803c-1.3046-.33827-2.4378-.85807-3.7981-1.10696-1.3474-.23692-1.9554-.9468-1.7118-1.90207.253-.99254 1.6022-1.09722 3.6296.152 2.2479 1.3851 3.8777 1.72064 4.7 1.1985 1.6634-1.05636.7662-2.77562-.821-3.21557-1.1916-.33478-.315-.80223.966-.41675 2.0668.79074 2.1105 4.56051-.015 5.34313-.7109.26179-1.9641.19089-2.9498-.0523zm-18.2112-12.47852c1.5181-.94682 2.9843-1.79298 3.5064-2.35831.2739-.2966 1.0357-1.29227.4443-.98836-3.0956 1.87694-6.6896.31796-9.2936-.96625-1.2504-.5904-.9429-.32897-1.9031-.26438-.6513.0438-1.1742.18173-1.2907-.28795-.052-.20735-.4158-.12057-.6489-.14381-.9621-.096-.3541-1.3813 1.6671-2.7982 3.6728-2.70298 9.411-5.18381 12.4617-1.85629.6162.59861.5618.99791 1.1249.63019 1.2848-.83908 1.296.27453.2121 1.30491-.7443.70765-.4721.89985.4382 1.57334.4346.32151.078.62752-.1643 1.0956-.092.28612-.02.60018-.063.81707-.2031 1.00605-4.7419 4.56201-6.3852 5.16926-1.1303.21272-.5377-.64696-.1054-.92682zm2.3981-6.52348c-.8577 2.64309-2.4413 3.54394-3.7592.37486l-.6003.0611c-.027 2.67355 4.5127 4.34083 5.1063-.40493-.3556.003-.5511-.0338-.7468-.031zm-4.202 2.46852c-.311-.52633-.6606-1.73424-.9858-1.75174-.8848-.0377-2.1079.12305-1.8179.6761.4569.87603 3.1643 1.68577 2.8037 1.07564zm6.0646-.47133c.8158-.49568.9895-.83752.4573-1.38213-.6873-.70338-1.0459-.34431-1.2617.77892-.1854.96536-.051 1.1231.8044.60321zm-11.0597-1.85867c5.4642-2.49494 7.5364-2.81728 9.7566-2.19987.5141.14297.9697.43303 1.2571.41571 1.0629-.0641.3849-1.26571-1.5233-1.95407-2.1793-.78614-3.5614-.42876-7.7503 1.77484-2.4527 1.29031-4.4453 3.19862-1.7401 1.96339zm15.8366-3.02807c-.078-.14947-.4086-1.14191-.5025-1.50432-.094-.3624-.1788-.73632-.2808-.73816-2.5353.40874-4.7644-.0694-5.3635-.21363-3.8344-.92308-7.5392-.73587-10.3048.35715-.6755.26699-1.513.69926-1.5935.77513-.2188.20622-.5417-.0283-.5401-.28584 0-.30222 1.6993-1.65782 2.7693-2.19269 3.2543-1.62672 6.6884-1.90499 10.4594-.88091 2.4566.95023 4.0401.79652 5.6104.10273.7709-.34058.2241.50188-.02 1.61945-.1689.77426.017 1.43687.048 1.87435.097 1.05709-.023 1.58675-.2824 1.08674zm57.1012 222.947278v-87.326918c-21.7824 15.14179-31.3105 18.15194-41.5464 21.86277 3.9086 6.79725-4.7368 13.31909-8.4453 5.91531-4.4521 5.0439-10.5853 22.70966-10.8026 28.57552 0 0 11.8427 20.67377 17.621 30.973317zm-79.1628-28.626278c.3952-4.39406 1.326-11.84331 4.226-20.51275 1.2165-3.63644 2.6838-7.8097 4.7569-11.54487.8273-1.30572.8847-1.81081 0-1.34102-.555.29565-3.089 3.17859-3.4339 3.90664-3.4511 9.5902-6.1152 16.65616-7.5258 29.63534zm2.8435-.36076c.9249-10.67439 4.8174-25.08606 10.6655-34.47934.5496-.89511 1.2271-1.67153 1.2012-1.9814-.076-.91332-2.3277.6651-4.075 3.35969-1.9498 3.90207-3.9042 8.06467-5.3993 12.67354-2.1105 6.5058-3.651 12.51565-4.2514 20.67209zm5.62-.89132c.5862-6.15101 2.4786-11.7943 4.0648-17.44741 1.9398-6.9128 4.529-12.00034 7.5464-16.58144.9678-1.4693 2.1096-2.84458 3.1953-4.24569.1384-.16825.2776-.47124.2461-.59803-.6972-.12293-1.2518.0952-1.7907.39969-.7527.42528-1.8112 1.49821-2.4295 2.2938-4.2977 5.53024-6.6102 11.98653-8.7561 18.50958-2.0607 6.26444-3.5452 12.28909-3.8358 17.96156zm-38.6002-4.71493c.8643-.0682 1.4212.0962 1.6721-.13566.2489-.23012.1678-.84961.2461-1.64124.1676-1.69278-.01-1.60001-1.0545-.50633-1.7357 1.81077-4.9028 2.50886-6.7866 1.41412-.9506-.55239-1.6114-.93485-1.701-.47559-.1045.53562.04.94555.4464 1.2318 2.2822 1.04983 4.4485.32821 7.1775.1129zm-2.0401-1.29662c1.202-.40272 2.4239-1.05015 3.1111-2.03859.6558-.94337.6449-1.0781.1485-.89871-2.4432 1.21179-4.0483 1.82808-6.2318 1.49312-2.9567-.45361-3.0793-.0731-1.125 1.16142 1.2788.80779 2.3397.83163 4.0972.28276zm-4.3407-3.78266c.4582-.34051.5752-1.728.2062-1.80699-.3734-.0799-.9177.60887-1.0511 1.16962-.1494.74416.3975.93453.8449.63737zm4.5775-.0597.786-.0717c-.4019-3.47963-4.1467-3.63013-4.8378.3483l.5933.0891c.7692-3.09273 2.8797-3.06792 3.4585-.3657zm2.6097-.64538c.9724-.6221.5419-1.37116-.9364-1.66317-1.0144-.24047-.9584.59641-.4325 1.73098.229.49415.3995.47725.964.16434.1371-.076.2844-.15503.4049-.23215zm-8.96-4.17994c-.01-.38759-.1675-1.01303-.3499-1.38987-1.3201-2.72809-2.0491-5.95107-1.8992-9.95649.1074-2.87132.1429-3.75899-.4487-3.76273-.8264.40111-1.3147 5.74312-.2627 10.19137.7423 3.1385 3.0154 7.03384 2.9605 4.91772zm-.032-4.34802c-.081-1.5.2467-4.86192.084-5.59542-.2144-.96423-.7803-1.83483-1.0999-2.06678-.4959-.35988-.6198.33009-.4483 2.13227.4026 4.22834 1.0759 7.42992 1.4646 5.52993zm.4176-7.69679c.3264-.59284.199-1.22201-.5198-2.6362-2.8308-5.5698-3.1982-9.37627-.2411-10.75926.3311-.15483.5398-.18429.7603-.30755.9326-.52134.5774-1.46751-.8171-1.07687-3.8523 1.07915-4.6119 4.71564-1.3645 11.44544 1.654 3.35799 1.9106 3.82779 2.1822 3.33444zm.89-4.4883c.039-.18702-.3496-.7228-.7667-1.797-1.0889-2.80455-1.1116-3.96821.073-4.78103.3842-.22697.7803-.23826.84-.49984.093-.40703.086-1.07587-.1563-1.26968-1.6989.0121-2.484 1.01118-2.7816 1.96199-.31 3.47313 1.1419 5.88121 2.4229 8.18214.2234-.56833.3011-1.29766.3687-1.79658zm1.1102-2.29912c.9086-1.84947.047-4.24595-1.2038-3.42858-.8112.53023-.8524 1.09108-.3547 2.6309.6062 1.87549.965 2.00593 1.5585.79768zm3.3194-5.17179c.1009-.38132-.215-1.03495-.7642-2.70392-.5758-1.75007-.3124-2.94593.7844-3.29152 1.5733-.39102 2.1297 2.20273 2.4606 3.29662.1708.84419.7213 1.07726 1.2097.49013.1368-.16449.176-.30114-.057-1.22235-1.0154-4.02132-2.3434-5.30082-4.4815-4.29904-1.9823.92875-1.7222 3.00586-.2852 7.3739.1922.58436.3205 1.01797.4592 1.07869.3304-.11534.5526-.3553.674-.72251zm1.6229-1.14209c.4696-.46874.442-.25692-.096-1.93483-.613-1.91291-.9353-2.31198-1.5942-1.6544-.4046.40388-.2003.84796.2616 2.4135.5365 1.81872.6799 1.92257 1.4283 1.17573zm82.1752-6.55008c3.1284-2.17504 1.8384-6.07911-2.2791-7.52666-.4861-.1709-1.0213-.37738-1.1892-.45882-1.8917-.91726-3.3636-1.201-3.368-.48354 0 .42122.5655.63404 2.3792 1.52479 2.6829 1.31764 3.289 2.83977 1.9648 4.75921-.9544 1.38342.8334 2.96773 2.4923 2.18502zm2.8385-4.75099c.2717-1.1163.6753-2.07374.8687-2.72414.2653-1.0182-.077-.78153-.7454-.62266-1.7246.90159-2.9584.41178-2.1205 1.65161.93 1.64965 1.6984 2.92287 1.9972 1.69519zm-.2139-3.90199c2.1488-1.29708 2.6252-4.67654.6255-6.28693-.4783-.38518-1.3053-.89301-2.3078-1.20113-2.035-.6254-4.9721-.90948-6.0488-.5807-.2311.27492-.2408.70698-.01.83277.2999.11224.8415.18636 1.6239.26648 7.5703 1.30296 4.4795 6.90875-.7305 5.69698-1.6975-.37465-2.488-.19383-1.8068.20652.8091.47556 2.5516 1.10016 4.2674 1.44048 1.4676.25996 3.141.35952 4.3859-.37447zm-10.3141-.5563c2.4188-5.47056 3.6929-19.82047-10.1282-30.19351l.4572 2.87034c8.1432 7.19083 10.099 16.3483 8.412 24.74825zm12.3395-9.80802c-.865.56537-1.5886 1.15227-2.6996 1.65199-.6648.30013-.6819.37339.2217.87019.4371.24032 1.1569.68207 1.4324.98165.4782.51992 1.0421.71917 1.2533.53026-.022-.8142.254-3.50622-.2078-4.03409zm-4.0904 1.03714c2.7993-.8911 4.2973-2.24845 3.9782-4.51914-.4681-3.33093-3.2328-4.0352-8.411-2.73333-2.4908.62624-2.7133 1.80472-.349 1.19714 2.9853-.76719 5.3289.39227 5.0118 2.59427-.1851 1.89986-1.7011 3.00633-4.3627 3.00646-1.4056.00007-1.8399.12631-1.6497.63693.1291.34627 4.6287.1849 5.7824-.18233zm-4.622-7.91305c4.5761-1.58013 6.704-4.03666 5.6587-6.78894-1.2309-3.24077-5.225-3.27333-9.2379-.25705-1.8744 1.38287-1.5874 1.89475.229 1.19097 2.3548-1.08984 3.8696-1.25814 4.8338-.3917 1.7414 1.56497.5665 4.29442-2.074 5.2733-1.2791.53558-1.6898.8312-1.6922 1.21787 0 .61201.2295.46448 2.2826-.24445zm7.7195-.0507c.118-.95889-.9576-4.28509-1.4223-3.5195-.1231.20283-.5504 1.14203-1.0905 1.62961-1.5741 1.42109-1.2767.88293.2868 1.31765.8689.24161 2.0965.85813 2.226.57224zm-12.1034-7.10798c4.6266-2.70139 6.3921-6.55694 3.9948-9.1195-2.1554-2.30393-5.728-.96274-9.0464 3.22585-1.5214 1.92033-.3785 1.6791 1.6727-.1474 2.3892-2.1275 5.4283-1.10063 5.4118 1.55537-.01 1.13424-1.6001 3.04209-3.1067 3.92867-.4678.27528-.5359.69744-.3705.97176.1786.29628.5537.10528 1.4443-.41475zm8.1098-2.81798c-.2414-.72593-1.9822-3.8423-2.3559-3.73575-.3949.79912-.4237 1.85051-.8973 2.69765-.6448 1.27407-.563 1.07428 1.4915 1.06781 1.5293-.005 1.7143.21086 1.7617-.0297zm-13.5977-3.5233c3.8866-4.06376 4.2301-8.82214.588-9.91729-2.0169-.60648-5.2421.86265-5.2515 2.37983-.01.94459.1696 1.11607.987.77698 3.4347-1.28722 6.1571 2.03987 3.0019 5.86403-.7677 1.10738-.8705 1.38521-.6468 1.61411.2617.26788.4747.16758 1.3214-.71766zm41.8842-34.14982v-108.55354h-22.766l-18.0676 28.68097-.027 7.03759c-.0009.24311.4104.39415.6762.0884 1.0267-.79969.6304.0399-.5503 1.85097-1.1937 1.83098-.8285 3.33978.4771 5.29466 2.7671 4.14334 4.2096 11.74945 3.0321 15.77056-.4446 1.51814-.5436 2.13133-.2536 2.98068.3317.97109.5358 1.48994 1.4961 2.11572.8352.58636 7.7067 3.28609 18.7761 10.45686l-.054-50.60246 6.9744-6.73521 7.3679 7.10204.2581 84.26782zm-4.0093-84.27375-6.1692-5.7886-6.0985 5.70261c-.032 27.21223.1547 83.06207.1547 83.06207l6.0608.43894s.445-1.27403-.1225-4.56786c-.8515-4.94238-.7983-10.97872.5696-20.1593.8526-5.63277.01-10.51669-1.2871-15.6595-1.1222-3.42689-1.1622-6.59806-.9585-9.66403.4312-4.88808 1.7666-8.57912 1.9301-15.61201.093-4.00904-.097-7.93448.049-12.87961.06-.66279.3377-.58106.3869.10276.1855 4.47574.358 8.72731.3981 13.09794-.1331 5.68385-1.5124 11.53304-1.6639 16.73575-.1139 3.60422-.1716 4.85097 1.3388 9.2391 2.374 6.89667.8117 17.49162.7838 17.67956-1.0057 6.7877-1.7392 15.47118 1.6576 21.96716l3.2916.29614zm-42.4426 51.33453c1.8204-.84264 2.1803-2.33053 1.2004-5.91377-.1749-.63959-.3743-1.39982-.443-1.68939-.2099-.88447-.6046-.9815-1.1311-.27807-.3145.42017-.024.51789.4588 2.4882.7304 2.978.3061 3.96289-.7928 3.95592-.974-.006-1.7325-.81513-2.0108-2.74729-.095-.6598-.2338-1.10967-.3918-1.37366-.2649-.44251-.5837-.36272-.8409.12616-.3327.63264.2925 3.23838 1.1231 4.50149.901 1.27369 1.5217 1.53514 2.8281.93041zm-.4957-2.67404c.3875-.73351-.093-2.53857-.3434-3.72056-.2311-.65962-.4939-.82061-.927-.71368-.6451.1593-.6138.87034-.3802 2.04106.4755 2.38394.7328 2.68502 1.6506 2.39318zm5.5331-4.30129c2.0821-1.19615 2.2812-3.25912.8822-7.01151-.5736-1.53849-1.288-2.62134-1.6819-2.63297-.1545.97861-.2975 1.50019-.1247 1.88421 1.236 1.90434 2.1573 4.90247.3529 6.58683-1.0682.80746-.3924 1.48633.5715 1.17344zm-68.1583-1.44246c4.8964-.99654 9.2899-8.96174 12.0644-16.0147 2.5274-7.10586 5.2142-14.91314 5.6397-21.42384 0 0-1.8473.086-2.074.47068-.2092.37879-.3008 1.19579-.4969 2.35891-1.2736 5.98956-2.2856 10.53809-4.5072 16.16773-1.5422 3.90786-3.225 8.33129-7.4015 14.2729-1.3722 1.66058-2.9418 2.68996-4.9142 2.9668-.502.0705-1.3473-.0241-1.5602.1273-.3742.26625-.037.86996.9285 1.11335.9185.21003 1.4792.13228 2.3214-.0391zm67.3006-.92475c.7453-.79844.8188-1.74688-.017-3.75228-.2342-.5619-.3416-.88059-.6198-.80237-.589.16558-1.2768 1.72569-.87 3.04584.5302 1.72076.8394 2.22387 1.5069 1.50881zm-69.0051-1.25631c1.431-.19228 3.3569-1.26081 4.5527-3.13505 8.0031-12.54415 9.3635-19.55558 11.8742-31.45161 0 0-1.8088-.0628-2.1903.32202-.6858 4.81956-2.28 9.6546-3.4452 13.67322-1.9652 6.83628-7.5674 17.7721-10.6214 18.28796-1.6425.27743-3.5243-1.16093-3.2218-2.6367.1858-.90609.3091-1.2513.7501-1.47825 1.0647-.37726 1.6843.35253.5162.82907-1.3531 1.18491 1.0828 2.99685 2.5783 1.73119 2.5358-2.14623-1.1898-6.25676-4.2392-4.36762-3.3783 2.09299-2.5103 5.71783-.3858 7.44056 1.0712.86867 2.312.99079 3.832.78521zm23.9233-4.90779c2.0873-2.15767 3.6549-4.95135 4.7952-8.44406 2.4711-7.84367 4.5199-16.83515 5.2625-23.87909 0 0-1.7829-.18523-2.1796.19435-.6511 7.62872-3.7633 23.29564-8.7755 31.36139-1.0845 1.91357-.6829 2.40088.8974.76741zm46.3078-16.35161c-.1933-.10098-.1768-.0348-.259.0224-.2846.19822-.099 1.20059.5473 2.7473 1.7016 2.76641 1.9004 8.13558 1.7894 10.15352-.034.606-.096.95337.086 1.49234.1808.52826.4975 1.14237 1.0075.11298.5596-3.97539.1201-8.13713-1.3927-11.50712-.5337-1.19862-1.0554-2.36961-1.7789-3.02147zm1.3102 11.72265c.2981-1.06929-.2526-5.31127-.9357-6.80168-.2754-.60084-.7731-.64739-.7134.0354.01 1.4696-.1521 4.26482 0 5.09242.7433 1.72798 1.3224 2.8283 1.6442 1.67382zm-3.8526-17.13585-.8032.00091c.028 2.77405-2.4146 3.54507-3.3153.21357l-.723.16863c.9612 4.70196 5.3049 2.54614 4.8415-.38311zm-4.8824 2.0913c-.4173-1.23102-.2446-1.68081-1.3034-1.12739-.8088.4228-1.2935.873-.1547 1.42529 1.0133.43229 1.7221.48083 1.4581-.2979zm6.1174-.70877c.3352-.68282.2954-1.29886-.2099-1.30206-.3898-.002-.4982.31054-.6088.97305-.1975 1.18321.2922 1.40139.8187.32901zm.4248-4.60928c.3095-.0992.2216-.53858.1384-1.09713-1.3235-1.85337-4.598-1.2859-5.774-.91751-1.3582.44371-1.6985.27841-2.623-.14809-.7639-.14296-.8714.044-1.057.41147-.1635.3236-.1926.93874-.2457 2.01028-.045.90542-.013 1.3261.3 1.04321 2.785-2.7722 4.9105-3.4394 9.2613-1.30223zm-9.0142 2.50892c0 .37348.314.14063 1.1217-.36988 2.9382-1.7585 4.6405-1.50961 7.1562-.67126.5602.18669.9068-.40382.2997-.9065-2.988-2.47361-6.6681-.89675-8.5776 1.94764zm10.6477-11.39295 15.9409-26.5601-88.8105-.0656 15.0798 28.19874c12.297-2.86746 32.5382-6.52879 57.7898-1.57305z" fill="#004c97"/><path d="m3705.484-122.36777c1.8813-2.82758 11.1965 2.21015 11.6892 4.20594 5.5131-4.37312 12.2075-4.69159 17.5948.78235 5.5394-6.10156 11.469-5.68435 17.6379-2.15048-.6893-1.37822 7.8874-7.46631 13.1002-3.59752l14.0976 25.300153-90.3131.292999c5.3349-8.069632 10.0609-17.707652 16.1934-24.833442zm-39.449-131.95801c-.4904-1.36957-2.4719-15.42397 2.5546-15.77464 32.0294 19.89143 32.65 55.7396 31.9579 56.01023-.48-.14265 10.2413 10.70158 10.9977 11.74873 2.3032 3.18836-20.3937 34.19241-21.2918 32.99495l-7.3975-4.22155.1843-10.81684.156-21.82518-17.7031-1.55456.6213-4.75284c5.9376.49155 12.0309 1.61278 17.5296.33018 3.6186-6.67607 2.2365-16.63621-2.1147-20.6499-2.3018-1.41148-4.4754-.96094-6.8118-.66115-9.4786-1.5947-4.5674-17.69219-8.6825-20.82743zm158.5247 7.21998.057 3.99016c-6.2405 1.37095-17.2703-3.956-20.6095 4.62551.4142 9.26861 2.4747 13.42491 3.9131 16.22399 1.0816 2.51412 8.6706-.35425 11.3435 2.18149 7.6685 9.51293 5.8588 22.17944 5.9264 33.59249l-3.3274 1.69354c-22.9914-13.66616-40.6464-56.11816-43.0924-68.20437-.1562-7.75899 21.0931-32.69477 21.0931-32.69477.048-.0542 7.7418 4.72037 7.7418 4.72037.1858.0751-.1633 32.72587-.1621 32.57461 6.076.31502 11.9662.91283 17.1166 1.29698zm-45.588-29.8429c-26.8135 47.27627-15.8482 82.25342 3.8824 112.43601 0 0-1.7056.39173-1.8941.22273-5.3923-5.39866-12.035-2.92302-17.3627-1.78549-16.3424.31333-10.1988-4.84677-33.4899-13.02919-5.6596.51348-14.2896 3.20835-17.5532 1.026 22.7026-42.22814 19.302-69.26088-4.2008-113.52183 1.9487.57891 2.2517 2.41281 3.7106 2.86497 4.831 1.88089 11.4879 1.16764 15.4775-.58673 6.3393-2.90909 13.1132 4.90734 32.588 13.50868 1.5876.82598 3.5939-.47789 5.3468-.83555 3.5916-.73284 6.6692-2.28144 9.3491-1.37457.8597.29088 4.1463 1.07497 4.1463 1.07497zm-54.1216-55.26065c-1.1556-2.1675-12.9771-24.83452-12.9771-24.83452l87.9315.53397-13.1921 21.86809c-1.2451 1.18704-7.4421 4.49573-13.7629-2.99605-.1187 1.07648-9.3796 7.73426-17.3402-.28308-4.7908 4.38761-9.677 6.92959-17.7374 1.99046-.1791 1.3773-6.4656 7.55566-12.9218 3.72113z" fill="#ffcd00"/><path d="m3734.4708-117.88627c-8.5196-8.05115-17.3887-.78356-17.1857-.32376-3.2611-3.27559-6.199-5.03271-11.332-4.76077 0 0 .2181-1.34695.2515-1.37452 13.2519 2.44664 33.549 3.08073 57.2749-1.92738l1.2179 2.56909c-6.3631-2.28097-9.6422.79614-12.4622 4.3888-10.2125-6.42734-12.704-.78869-17.7643 1.42854zm19.8707-93.63959 6.0276-.11884c1.1352 17.69345 15.7796 44.76726 16.132 44.76726-1.02-1.42919-10.6883-.30217-10.6169-.12176-5.3161-14.31569-11.1533-28.61764-11.5427-44.52666zm-35.1532 41.97324c.079.01-1.4531-5.0112-3.0995-7.24199 6.3279-10.90749 11.5186-22.19679 14.1813-34.7506l4.3102.0387c-1.2771 17.33149-15.0199 43.65313-15.392 41.95388zm77.5382-2.32066c9.4933-17.28989 7.855-42.21115-19.0773-55.98371 0 0 .702-18.26705 2.7047-18.30889.452.14152 12.1903-.15236 12.1903-.15236 3.0752-7.61786 8.0243-16.83086 14.9392-23.05183l.1731 20.41886c-5.1177.50946-8.2387 2.15776-9.789 6.19787l-7.0909 1.59362c.521 20.51207 8.1679 39.46429 30.846 56.48652-5.4193 4.70125-23.943 14.24555-23.872 14.07799zm-113.6346-12.88749.2015-21.26271c3.4392-.75019 6.1497.25627 8.9892-5.9655 0 0 4.7651 2.28321 6.3483 3.12486-4.4539 8.04476-8.2991 16.64115-15.539 24.10335zm45.1504-37.46985.2336-10.90653h10.1535c-.862 3.6603-1.1313 7.24623.02 10.90653zm23.1644 0c.6933-3.53224 1.1885-7.15888-.2496-10.90653h10.9943l-.2591 10.90653zm-20.9085-21.41469c-1.829-21.17243-16.201-45.13636-16.4028-44.62664 1.6932.27373 4.6751 1.12075 6.3169.33606 1.9869.33302 3.7079.10595 3.8019-.0794-.2544-2.32031 11.3299 22.45052 11.5946 44.32126-.1623.16995-4.8176.11843-5.3106.0488zm25.4116.18561c1.5514-9.78086 5.5565-27.67241 15.015-42.18159 1.0752 2.57619 1.9774 5.22521 3.4525 7.633-7.1316 10.47365-11.526 22.44491-14.1924 34.66544zm-65.7412-5.27237c-4.3276-8.91205-22.3308-22.9422-21.4099-21.52453 7.4524-6.74378 15.7643-11.0267 24.0608-15.35344 0 0 1.4748 1.41324 1.2513 1.76891-5.1005 8.11526-7.5735 25.30904-2.6351 35.1631 4.7457 10.52564 13.1646 16.74775 21.7475 21.63281-.6641 6.58118-.9885 11.33777-2.5919 17.88053 0 0-5.3933-2.8632-9.8133-4.7064-.7032-12.42684-3.2509-23.54268-10.6094-34.86098zm47.6821-87.32955c6.3453 3.90527 12.0285 3.49366 17.538-1.80608 6.9166 6.33612 14.3963 3.38515 17.5573.5287 2.9249 3.32657 6.7357 5.17219 12.3083 4.07304l-1.3803 2.92492c-17.7601-3.54168-37.0697-2.15103-57.1897 1.20996 0 0-1.3015-2.55843-1.1795-2.57725 1.6324-.0999 7.2702 2.28329 12.3459-4.35329z" fill="#c8102e"/><path d="m2002.6855 468.72852 16.7129 31.43359s.489-.0901.7344-.13867c23.1654-4.5714 41.5128-5.19647 61.2188-1.69727l17.5195-29.26367c-31.883-.3663-96.1856-.33398-96.1856-.33398zm1.8633 1.33984 92.9395.10156-5.2266 8.6582c-3.1309-.9751-4.876.47491-5.3144 3.50391 0 0-.3874-.16885-1.1133-.24805-4.5804-.4999-5.1583 5.59418-.8828 6.33008 1.0916.1879 1.2773-.0312 1.2773-.0312-3.8139 3.2353-5.9809 1.05316-7.7754-.0156-.049.3778-3.4182 2.93485-6.5957-.12305 4.5505.4588 5.2594-4.14488 3.084-5.89648-.455-.4518-.9199-.80469-.9199-.80469 1.0707-.9418 1.3035-2.19365.6172-3.62695-1.3799-2.8821-5.7042-2.71566-6.3653.43164-.2573 1.2246-.2656 1.43945-.2656 1.43945-3.4925.2303-4.2022 3.5607-3.0019 5.4082.6823 1.0502 2.1826 1.27773 3.5683 1.20703-1.8676 2.6714-6.1412 1.76125-8.0449-.43945-3.0252 3.5898-6.4729 3.15342-8.1934 1.22852 1.1687-.013 1.9739-.0291 3.0469-1.03125 1.835-1.7136.9344-4.75302-1.6582-5.60352-.503-.165-.8666-.19887-.8945-.20117.018-.026.068-.19428.1797-1.10938.645-5.3-7.2187-4.77544-6.459.43946.088.6043.2519.92773.2519.92773s-.8348-.047-1.3125.17578c-4.3663 2.0329-1.3588 7.63151 2.0157 6.19141.3202-.1367 1.1919-.5687 1.3183-.5625-4.1796 5.2332-7.6891 1.52428-8.6133.95508-2.8225 4.2283-7.7252 1.34317-7.8261 1.04687.3054.086 1.2259-.10524 2.0996-.55664 2.7623-1.454 1.9805-5.19702-.1739-6.01172-.6601-.2326-1.4573-.25684-2.3535-.18554 0 0 .066-.94124-.022-1.27344-1.358-5.0959-7.6332-2.5519-6.0898 1.7539.1354.3777.5.75782.5.75782s-.8511.52238-1.2305.86718c-2.9961 2.722.055 7.21321 3.5547 5.34571.4519-.2411.8894-.74915 1.0156-.71875-1.6466 3.0385-4.1456 4.09958-7.7089 1.58398-2.1978 3.5186-5.7841 2.05772-6.795.29492 3.3502.3099 5.5262-6.17568-.914-6.38672-.5008-1.7613-.4756-4.44647-4.5586-3.98437zm45.3867 11.12891c.7376 0 1.3338.60606 1.334 1.35156 0 .7457-.5964 1.35156-1.334 1.35156s-1.3359-.60586-1.3359-1.35156c0-.7455.5983-1.35156 1.3359-1.35156zm20.7676.16015c.7814 0 1.414.6438 1.4141 1.4336 0 .7899-.6327 1.42968-1.4141 1.42968-.7816 0-1.4139-.63978-1.414-1.42968 0-.7898.6324-1.4336 1.414-1.4336zm-40.707 1.5625c.7536 0 1.3631.61532 1.3633 1.37696 0 .7616-.6097 1.38281-1.3633 1.38281s-1.3672-.62121-1.3672-1.38281c0-.76164.6136-1.37696 1.3672-1.37696zm57.7539 1.58399c.1743.01.3617.045.5605.11328l-1.1835 2.125c-1.1432-1.0125-.5967-2.29978.623-2.23828zm-75.1914.8457c2.1081.1438 1.4869 1.66823 1.1777 2.19727zm37.2051 1.00195c7.9761 9.1849 15.1289 6.46813 19.8066.36133 2.0062 5.205 6.4777 8.80287 14.1719 5.30273-.4654.83244-1.6348 2.30079-1.6348 2.30079-6.7996 1.8511-10.1733-1.38289-12.7969-4.46289-6.9177 5.804-13.4315 4.39664-18.8066-.72266-4.5877 5.8372-12.0179 7.09272-18.8945 2.32812-3.1438 4.6891-7.6537 6.58313-13.3242 4.23633 0 0-1.2029-1.9117-1.3067-2.0332.8213.6967 11.2652 5.07765 13.8145-5.45899 3.6355 6.23534 15.5551 6.56674 18.9707-1.85156zm.8008 3.77539c8.9722 8.4791 18.3866 1.14846 18.6269.63086.1408.4714 5.2633 6.65033 12.6465 4.32813l-1.2012 2.07812c-19.6219-3.1951-38.355-2.54162-60.6113 1.73438l-1.2168-2.1875c5.6924 1.7717 10.6662-.43772 12.9238-4.26172 1.3155.8634 11.4684 6.59053 18.8321-2.32227zm-23.5293 47.48243c-.2365.01-.5319.27647-1.0215.76367-1.0593 1.0539-1.3004 1.19269-2.3282 1.34179-.7752.1124-2.4111 1.06377-3.4043 1.98047-.2684.2479-.7798.4548-1.3925.5625-.5324.094-1.2656.22051-1.6289.28321-.3631.063-.7586.18-.8789.2539-.5213.3211-1.37.36957-2.3223.13867-.9184-.2227-1.0659-.21788-2.0781.0977-1.4746.4587-2.4385.4596-3.1641 0-.7254-.4593-1.8786-.62923-2.6094-.39063-1.081.35304-3.8811-1.34234-3.875-2.34374 0-.22724-1.5904-1.4311-1.9902-1.4336-1.4191-.2126-13.8878 4.76248-13.8242 5.05078 15.3106 19.1117 28.199 48.22963 18.4902 83.86133l-1.7148-.83008c1.4412-6.4768 2.0115-12.99615 2.455-19.61719-28.738-12.539-31.2126-41.69852-20.0585-60.10742l-1.8926-2.03711c-6.7591 3.6453-13.6275 5.71451-30.334 19.87891.046 21.2845.084 42.56902.076 63.85352 6.0458.6766 12.7044 1.22958 19.2714 1.80078 0 0-.084 20.49842-.2343 28.51562-.1273 6.7814.1211 6.35547.1211 6.35547l21.748 11.58789c-1.5284-6.1039 2.243-8.52704 5.4004-8.27344-1.3958-5.8845 2.0699-8.57776 6.0254-7.82226 2.6717.5103 3.606 1.99827 5.1348 6.91797.2484.7994.5898 1.86914.5898 1.86914l1.5254-.0566c1.9075-4.1407 3.1809-9.41055 7.6699-10.09375 5.8749-.8941 8.0634 3.18672 8.0606 7.26562 5.6927-5.0694 12.5117-1.14546 12.0683 6.42774 2.8643-1.8607 7.7177-3.54269 10.7754 3.63281 1.1497-.2447 1.7349-1.54001 3.3516-1.94531.6046-.1277 1.9746-.87305 1.9746-.87305l.018-.24805s1.2708-.44446 2.9746-.72656c1.4621.5515 1.0365.53268 1.8242-.44922.8776-.4544 2.3001-.7539 3.3984-.6543 1.151.1042 1.6632.18723 2.3379-.10937 1.0507-.4639 2.0322-.58156 2.6543.11914.4469.5031 1.0938.26062 1.7871.23242 1.3878-.056 3.2374.5191 3.8145 1.7793.8502.8761 2.709 1.76562 2.709 1.76562l1.5078-.35156.1719-.5625 12.3183-4.75195c-25.1182-27.7969-24.4619-64.67325-18.5449-83.33985l2.2715 1.10547c-1.2049 5.5322-2.5726 11.21364-2.3946 19.46094 22.6193 10.1926 33.8735 36.5371 20.1602 59.5332l1.4492 1.89454c5.7048-2.42014 20.0542-10.56309 25.0137-14.98829l1.0566.0879s3.0074-1.96943 4.334-3.01953l.1797-61.02539-1.0527.2793-.1875-3.56445-18.6485-1.4961c.2371-.1791.4149-.25257.4688-.60937l-.1074-33.78321c-.6926-1.0706-16.311-10.31716-22.1192-12.48046-.2325 0-.073.39502.01 1.36132.2853 3.3139-1.9282 6.26413-4.4922 6.26953-.9229 0-1.0813.39799-1.0352 2.30079.065 2.7058-.9035 4.52278-3.7226 5.55078-3.342 1.2187-5.6034-.5478-7.4629-7.4961-.4884-1.8248-1.4445-1.3682-2.3594 1.125-.4541 1.2376-1.9246 4.24062-2.8027 5.82422-.6766 1.2168-1.7449 1.757-3.1992 2.4043-1.134.5668-3.5893.46869-5.0039-.25781-2.5643-1.3169-3.5597-2.89861-4.2989-6.81641-.097-.5119-.4284-.46688-1.2597.16602-4.5279 3.4478-10.8964-.11693-10.8594-6.07813.011-1.7501-.059-1.81997-1.0762-.98047-3.0705 2.534-7.2436 1.24946-8.914-2.74414-.391-.9349-.5984-1.35203-.9024-1.34179zm-25.9844 2.11523c.2842.0686.9413.90967 1.2773 1.32617.9194 1.0277 2.1539 1.54695 3.4395 2.31055.1197-.1815 14.9924 19.99083 17.5215 47.80273l6.916.0371c-1.2899-27.0243-8.6636-40.01401-12.0469-48.34961l2.4805-.79492c5.5633 10.7728 12.3443 32.6371 12.1191 51.7793h-11.4238c-1.6129-19.173-8.9913-37.86548-19.3086-52.04688-.7182-1.0894-1.2658-1.83357-1.0723-2.04297.023-.0252.057-.0313.098-.0215zm-4.416 2.85351 1.1601 3.67383s.1382-.85734.4942-1.18164c2.2574-2.0559 4.4181.65122 3.4004 4.32422-.2324 1.1308-.6836 3.35742-.6836 3.35742s-2.2682-1.17543-3.4102-1.55273c-3.148-1.3514-4.1982-4.01586-1.793-4.31836.4026-.051 1.2305-.0879 1.2305-.0879-1.0001-.7941-3.2051-2.60938-3.2051-2.60938zm10.5683.41016v.002c.9507.5453 3.4034 1.13491 4.8125.59961 1.139-.4327 2.0066-.1957 3.1914-.0937.6792.059 2.0313-.24218 2.0313-.24218 6.7638 14.3808 11.4168 31.44412 12.1914 47.04882l-5.3203.0293c-2.0081-16.5773-8.3562-33.4171-16.4121-45.9082-.3565-.5443-.8295-1.41525-.4942-1.43555zm22.0215.34766c2.4816.0797 4.883 3.48301 5.5859 5.39648.6521 1.8906.9068 1.77644 1.7813 1.4707 2.2471-.7778 4.6398 1.71526 1.6289 2.13086-2.9557.4936-1.2691 6.33687-1.5215 6.85157-1.1976.2115-3.4492-4.75479-3.3906-6.23243.1439-3.6219-3.2226-6.6508-5.3145-5.1289-.9913.7212-.8834 1.2306-1.1894.9707-.9415-.7991-1.1312-3.00285-.029-4.25195.7848-.88995 1.622-1.2336 2.4492-1.20703zm61.3887 1.15039s.1179 4.76295-.061 5.81445c-.351 3.175-4.455 3.5097-4.6152.9707-.6705 1.0145-1.1309 2.27606-1.3984 3.41016l-2.9102-2.02148c1.105-.8017 2.1592-1.50615 2.9766-2.49805-2.1574.1652-3.3635-1.72223-1.92-3.32813 1.6028-1.8396 6.0366-2.03815 7.9278-2.34765zm-106.9903 1.50781 1.2852 1.46484c-11.4659 20.5402-7.4227 46.7966 20.252 60.5918-.1831 6.3018-.9817 12.67604-2.4707 18.58984l-10.209-5.00585c.068-23.2234-12.9437-45.36312-33.7149-59.91602 7.537-6.1202 15.8762-11.49511 24.8574-15.72461zm83.5997.17578c.4868 2.7117 3.0275 7.623 3.2109 7.3418-.027-.1612-10.5744 13.6507-15.1582 36.7539l-3.9141.0156c2.5668-15.3944 7.6892-29.91893 15.8614-44.11133zm32.5019.64453 2.084 1.27344c-10.9286 9.2474-18.1258 20.97108-23.4121 33.61328l-2.7617-1.32031c8.1957-18.3394 16.2927-26.48321 24.0898-33.56641zm2.8027 2.04883c.9328.069 1.7164.92146 2.4161 1.34766 1.0045.6119.7724.87304-1.1641 2.37304-2.2901 1.7742-2.506 1.69547-2.4863-.83593.013-1.6792.4293-2.94397 1.2343-2.88477zm-2.4043 2.60938c.6411-.1037.3293 2.88471.1641 3.85351-.2164.9973-3.1532 3.50334-4.2012 4.49414-.4199.2787-.6123.17639-.6894-.32031.033-.7865.1089-1.83264.123-2.89844 0-.3282-.065-.67243.2285-.92383 1.4394-1.7171 3.5439-4.07057 4.375-4.20507zm5.5528.8164c0 .00046-.01-.00071 0 .01.2711.1646.1907 3.60708 0 3.83398-.852.2226-3.1618-.14188-3.75-.45898-.1285-.3998 3.2009-3.40747 3.75-3.38477zm-102.4649 1.11328.795 3.375s.2294-.45376.2871-.54296c1.5825-2.44594 3.5078-1.01094 3.4765 2.38476-.011 1.0725-.9746 5.35938-.9746 5.35938s-5.9413-2.88159-6.4082-4.14649c-.4594-1.2447.1936-2.34087 1.2871-2.44141.4088-.047.8375-.081 1.3067 0l-2.5528-2.63671zm68.0079.44922 2.6953 1.00586c-5.6213 9.2411-11.4215 18.36865-15.6465 39.18555h-11.2969c1.58-12.7219 4.7823-25.22809 10.4961-37.40039.8264-.1467 2.7536-.52851 3.4707-1.09961 0 0-9.3369 21.59356-10.4238 35.47656l5.457.11914c2.9118-13.5283 8.3616-27.54981 15.2481-37.28711zm-21.3887.33594c1.518-.057 2.636 1.02155 2.5508 2.93555-.019 1.7503-.1762 2.00418-1.4024 1.30468-1.6093-.9183-2.8826-.93788-4.3242.10352-.7935.5732-1.5723 1.04687-1.5723 1.04687s.6941-3.04004 1.7598-3.99804c1.0208-.9176 2.0775-1.35828 2.9883-1.39258zm-8.8926 1.10156c1.7091.025 3.2821 1.66509 3.0977 3.39649-.1096 1.0288-.4105 1.5009-.6797 2.3789 0 0 .8838-.34757 1.3066-.54687 2.0076-.946 4.1014.80512 4.0703 2.85742.091 1.3691-1.3819 3.00914-3.1347 3.02344-.6115.01-1.2598-.18936-1.8848-.66016.4535 2.5082.5434 3.66894-1.2715 4.92774-1.5184 1.0213-4.7167-.14618-4.5371-2.95118l.1113-1.72851-1.5351.20117c-4.2918.1777-4.3675-5.161-.9043-6 1.3831-.3306 2.8847.81445 2.8847.81445-.6578-1.309-.6727-3.56106.2129-4.60156.6811-.8002 1.4869-1.12253 2.2637-1.11133zm40.5723.0625c.2345 1.9982 1.0202 4.17622.7968 6.04102-.3344 2.3833-2.3397 3.7954-3.916 2.25-.1943-.1907-.5449-.58789-.5449-.58789-.7102.9094-1.1543 3.48242-1.1543 3.48242l-2.7812-1.73438s1.9312-1.37144 2.4648-2.15234c.1487-.2174.2185-.62891.2188-.62891-1.5487.4891-2.8615-1.11143-2.4395-2.52343.8384-2.3128 5.0014-3.16829 7.3555-4.14649zm19.6523 1.38086c1.0541-.005 2.6713.34875 3.7188.46485.9795.1726.4365.73182-1.7559 2.89062-2.0135 1.9828-1.9502 1.79593-3.502 1.76953-3.624-.062-4.2581.02-2.1484-2.28125 1.1055-1.2057 2.07-2.29356 2.8633-2.69726.1844-.10333.4728-.14486.8242-.14649zm-6.7598.44141c.058-.0214.1074-.0233.1426 0 .2684.237.1411 2.0238.127 2.8789-.028 1.6252-.012 1.62607-.6856 2.47657-.8578 1.0863-1.5694 2.19473-2.4648 3.24023-.7753.8503-.751.75885-1.2149-1.28515-.4498-1.98244-.104-2.51756 2.3282-5.47266.4563-.5544 1.36-1.6882 1.7675-1.83789zm11.2735 1.47265c.05 1.1216-.011 2.44415 0 3.71875-7.478 7.3903-12.4651 15.70043-15.9199 24.86133l-2.5411-1.23437c4.8499-11.422 11.2793-20.22391 18.461-27.34571zm-64.7598 2.12891c-1.236 0-2.2363 1.01057-2.2363 2.25977.0001 1.2492 1.0003 2.26562 2.2363 2.26562 1.2361 0 2.2402-1.01642 2.2402-2.26562s-1.0041-2.25977-2.2402-2.25977zm-.016.71094c.8532 0 1.5468.70205 1.5469 1.56445 0 .8624-.6937 1.5625-1.5469 1.5625-.8533 0-1.541-.7001-1.541-1.5625s.6877-1.56455 1.541-1.56445zm-.018.84179c-.4099-.00003-.7422.33228-.7422.74219s.3323.74222.7422.74219c.4091-.001.7402-.33306.7402-.74219s-.3311-.7411-.7402-.74219zm-83.0605.11329c23.3262 15.1249 33.7848 38.57234 33.7382 58.71484l-1.3164-.59961c-1.3652-28.462-16.673-45.96136-33.2187-57.28516zm137.8847.21875c.849-.01 1.7454.11727 2.502.20117 1.9311.1041 2.1686.22723.8379 1.76953-.9831 1.1959-2.3918 3.25758-2.9258 3.42578-.406.1415-3.7944-.02-4.7617-.1543-.3169-.044.098-.37166 1.75-2.75586 1.2659-1.8274 1.3995-2.43192 2.5976-2.48632zm9.9688.83398s.3354 12.91225 0 21.18555c-5.321-.1989-8.3573 1.84108-9.6563 5.70508l-5.5273-2.79688c4.1017-10.6466 9.5626-17.99275 15.1836-24.09375zm-16.4863.10547c.3022 0 .4545.76922.541 2.01562.4442 2.353.2619 2.52223-.6075 3.91993-.8636 1.3883-2.2547 3.83611-2.4414 2.97851-.7284-2.406-.9578-3.89566-.6992-4.38086.9314-1.5192 1.9899-3.3484 3.2071-4.5332zm-133.0821.375c18.7506 11.7329 32.4666 31.76991 33.0332 55.97851 0 0-3.996-1.89534-6.4629-3.28124l-.1269-2.35157 1.3027-.043.418 2.65235 2.8633-.0937-.7598-6.61914-4.4824.42773-.9043-3.75195 1.3574-.29297.752 2.41992 2.914-.7793-1.5508-5.89843-4.5039 1.24414-1.4394-3.98242 1.4961-.54297 1.209 2.38476 2.7421-.96484-2.5878-5.91406-4.1407 1.97656-2.1035-3.85938 1.6192-.87109 1.3007 2.29492 2.5625-1.33984-3.1699-5.43946-3.9297 2.21876-1.9765-2.99219 1.2207-.86133 1.3476 1.57422 2.25-1.61133-3.4492-4.68945-3.7637 2.97656-2.7812-3.25391 1.2812-1.09961 1.9141 1.73243 2.1387-1.88672-4.0996-4.51953-3.584 3.30078-2.6699-2.3418 1.3085-1.46094 1.6641 1.28516 1.7715-2.1211-4.4629-3.71484-3.3438 3.34375-3.205-2.14062v-1.59375c1.041.406 2.1422.8784 3.1289 1.4082l1.6582-2.53906-4.7871-3.26563zm52.2188 1 .709 4.13867c.673-1.1253 1.2101-1.89984 2.666-1.46484 1.7486.72 1.7727 3.38108.291 7.45508-.2745.7548-.6133 1.4082-.6133 1.4082s-.7676-.32138-1.2773-.67578c-1.0701-.7392-2.8719-1.57712-3.793-3.04492-.9645-1.537-.9847-3.68586.7871-3.50196.352 0 1.0469.16992 1.0469.16992l-2.6602-3.42578zm-53.25 1.23437 3.2461 2.11524-.6739 1.23828-2.5722-1.17188zm81.3984.97461c.9407 1.3292-2.369 5.24595 1.9609 6.81055 0 0 .1062.90092-.7968 1.44922-2.1182 1.5568-5.1609-1.28604-4.2168-4.21094.6036-1.8707 2.3483-4.03813 3.0527-4.04883zm8.9844.12305s1.3066.96515 1.5683 1.21875c2.4105 2.3363 2.4336 5.68447.25 6.85547-1.4528.7791-3.0959.15123-3.666-.98047-.2642-.5236.1699-1.06991.7246-1.06641 1.0401.01 1.835-2.0086 1.5274-4.1289-.1219-.8402-.4043-1.89844-.4043-1.89844zm28.4453.77734v.002s.287 2.86341.6992 4.13281c1.2661 3.5595-.3501 5.72726-2.7148 4.53516-.3377-.1702-.9357-.94336-.9356-.94336l-.2343 4.08984-3.3633-.99023c.7278-1.1824 1.774-2.02292 2.5566-3.35352 0 0-.5026-.0185-.9433-.0215-2.01.07-2.7519-2.18186-.6446-4.03516 1.5699-1.3684 5.5801-3.41602 5.5801-3.41602zm17.8906.91016c1.2206-.0334 2.4909.0829 3.4805.21289-.8534 1.735-1.7611 3.23097-2.7969 4.63477-.1724.1222-.3886.20423-.7012.27343-1.2976.2598-2.7684.081-4.2519.15039-.3221-.016.3396-1.13267.709-1.82617.9056-1.7002 1.5913-2.99817 2.3691-3.35547.3834-.0493.7845-.0787 1.1914-.0898zm-6.8984 1.35742c.258-.014.4478.45237.6933 1.41797.5727 2.2532.7198 2.3091-.205 4.1582-.4666.933-1.2591 2.51387-1.586 3.16797-.8386 1.6776-.8858 1.66156-1.414.16016-1.0133-2.8804-1.1028-2.58461.5703-5.82031 1.045-2.021 1.5643-3.06379 1.9414-3.08399zm-123.041.78906 3.0175 2.44532-.8593.84179-1.668-1.24414-2.4668 2.66797 4.0547 3.73438 3.4297-3.41406 2.9414 3.10546-.8985.76758-1.7265-1.68164-2.582 2.22852 3.8535 4.60351 3.8847-2.99219 2.4356 3.22461-.9961.62891-1.5879-1.55859-2.5273 1.76953 3.1445 4.47851 3.9629-2.29492 2.25 3.74024-1.25.60742-1.2754-2.05274-2.8438 1.65625 2.6856 5.23633 4.2773-1.80469 1.7207 3.99805-1.3066.53711-1.0977-2.4043-2.8808 1.15039 1.9297 5.5 4.3398-1.25976 1.0527 4.08594-1.3379.37695-.6582-2.26367-2.7617.66992 1.1524 5.51953 4.416-.2832.5254 4.46289-1.3731.0625-.3418-2.66211-2.8125.0352c.015.9384.1231 2.85351.1231 2.85351l-1.7012-.79492c-2.5256-16.9702-11.5331-31.11404-24.9531-40.96094l-.07-2.02734 3.2676 2.0957s2.9955-2.69733 3.5117-3.38477zm127.2148 4.03907c.6548-.0173 1.3059-.0112 2.0762 0 .3534.2457-.094 1.06749-1.0137 2.83789-1.2719 2.4474-1.497 2.49884-3.8789 3.08594-2.8968.7142-2.8128.87404-1.2461-2.50196.6041-1.3018 1.4195-2.84855 1.9727-3.28125.7776-.0818 1.435-.12328 2.0898-.14062zm-133.8359.64062c13.9368 9.0869 22.7462 27.8838 23.8398 39.2793 0 0-.3776-.25628-1.1387-.60938-1.0566-.4902-1.3155-.81108-1.623-2.36328-2.7606-13.9347-10.5439-25.76117-21.0176-34.10937zm125.6797 2.32617c.6941-.2458 1.8621 4.96994 1.498 5.39454l-3.3691-1.54493s1.4725-3.76571 1.8711-3.84961zm-67.2071.19727-.066 4.43555s.5283-.63494.8008-.83594c1.0367-.7643 2.6199.29587 2.6797 1.60547.083 1.8164-.1871 2.55297-1.627 5.07617-.4458.7807-1.1191 1.77539-1.1191 1.77539s-1.7002-1.2248-3.5586-3.0957c-2.0085-2.0219-1.6248-4.72147.1328-4.73047.526 0 .995.17582 1.4551.32422-.3795-1.3069-1.791-3.84375-1.791-3.84375zm54.4746 3.32227s.9097 1.20943 1.9551 4.39453c.9981 3.0414-.5375 5.33224-2.623 4.18554-.3738-.2055-.7657-.65039-.7657-.65039-.1462 1.4744.1118 4.12714.1465 4.14844l-3.3633-.59375s1.8477-2.96562 1.9805-3.69922c0 0-.2081.16652-1.1328.16602-3.3801 0-2.6797-4.06571 1.2246-6.32031.5862-.33854 2.5781-1.63086 2.5781-1.63086zm19.3789.0508c.7313-.033.3859.68341-.4238 2.35351-.441.9102-.7383 1.41016-.7383 1.41016s-2.4264-1.05507-3.5136-1.69727c1.515-1.2781 2.4661-1.5264 4.6757-2.0664zm-47.9765.54297c2.6496.016 4.6029 2.65707 4.2109 6.41211-.673 6.4463-.2866 6.0483.4082 6.6914 1.2651 1.172-.4476 1.87677-1.9551.75977-1.0496-.7777-1.3907-1.54652-1.3418-5.10352.057-4.0886-.1631-5.12858-1.6093-4.77148-.9026.2228-1.1857.99846-1.086 3.75586.14 3.8698-.1142 4.84343-1.5683 6.08203-1.5678 1.2263-3.2582.13302-1.8262-.67578.655-.7444.7777-1.6908.5254-4.0293-.2761-1.992-1.4258-9.15579 4.2422-9.12109zm64.5801 3.24414c.6464-.0199 1.2812.006 1.9277.0156 5.0981.1933 17.9902 1.25391 17.9902 1.25391l.1114 3.84961c-.794-.1174-18.6889-1.609-21.2969-.8418 1.149.4814 1.0435 6.28766-4.0176 4.88086-4.2917-1.5596-2.2364-7.5624 3.2871-8.9043.6938-.16855 1.3517-.23403 1.9981-.2539zm-64.6016 2.27539c.2897 0 .5234 1.16663.5234 2.61523s-.2337 2.61524-.5234 2.61524-.5234-1.16664-.5234-2.61524.2337-2.61523.5234-2.61523zm37.1543.31054 11.0176 5.48828c1.5422 20.90244 8.6812 42.98687 32.998 59.72657-3.9394 2.8486-13.8222 9.84502-25.1172 14.63672l-.9238-1.00196c13.4107-23.0489 3.2794-48.41839-20.2051-59.90039.063-6.3974.8583-12.70752 2.2305-18.94922zm23.5586 2.63477c-.5384-.0003-.9749.43621-.9746.97461.0008.5376.437.97296.9746.97266.5376.0003.9738-.43506.9746-.97266.0003-.5384-.4362-.97491-.9746-.97461zm9.9551.4082c1.7121-.031 3.5214.42784 5.2343.45899h.01c2.1069-.082 2.6569.16386 2.8379 1.13086.1711.9142.8425 1.12923 1.6387.83593 1.9388-.7141 3.1216 2.76084 1.5156 4.30274-.9973.9574-.8226 1.32488 0 1.33008 2.0248.013 1.9679 2.69213-.09 4.21093-.8539.6301-.8434.91553.051 1.36133 1.4962.7463 1.1944 2.223-.705 3.4375-1.0334.6608-1.0678.82194-.2149 1.05664 2.1487.5912-.044 3.68552-2.3945 3.13672-.9643-.2252-1.8821-.014-2.8028.59375-2.5178 1.0599-2.939 1.27119-5.6562.92969-2.3863-.4425-3.4524-1.23632-4.0684-3.35352-1.3998-4.3053-2.9077-9.07644-2.9238-13.77734-.2107-2.8859 4.575-5.49442 6.8418-5.60742.2401-.0271.482-.0425.7266-.0469zm-145.4453.53125c2.5318 0 4.5839 2.07398 4.5839 4.63282 0 2.5588-2.0521 4.63476-4.5839 4.63476-2.5319 0-4.584-2.07596-4.584-4.63476 0-2.55884 2.0521-4.63282 4.584-4.63282zm50.9472 1.36328-.4121 4.04883s.6735-.53211.832-.66601c1.1925-1.0072 3.0765.1195 2.6485 1.6875-.1394 1.3819-2.4989 5.48811-3.4395 6.34961 0 0-3.7864-4.16723-4.1914-4.98243-.8999-1.812.3291-3.69963 1.9649-2.89843.2333.1141.9082.61914.9082.61914l-1.1992-3.84375zm-50.5371.14454c-1.6615-.12209-3.3024.76722-3.0547 2.57812.1384.5718 1.0022-.25187 1.8535-.79297 1.6263-.6998 2.5896-.082 3.502 1.16992.324.4004.6787.72825.8789.53125.164-2.2309-1.5182-3.36427-3.1797-3.48632zm123.3496.80859 1.6387.8457c2.2056 29.5391 16.9849 46.9062 32.5137 57.25l-1.2344.75391c-19.0569-12.3389-32.2888-34.44711-32.918-58.84961zm2.4824 1.21289s4.1133 2.12853 6.2676 3.11133l.082 2.67187-1.4395.0527-.4902-2.51368-2.9903.2168.9336 6.18164 4.8242-.59765.6739 3.73437-1.6328.3457-.8379-2.29492-2.7676.67969 1.793 6.00586 4.3496-1.41797 1.3632 3.92578-1.4609.53711-.9336-2.30273-2.8652 1.01172 2.2168 5.86132 4.5273-1.4707 1.8282 3.66797-1.3731.61523-1.3125-2.27539-2.7148 1.40235 3.1855 5.47461 4.0879-2.16602 1.9102 2.92383-1.502 1.01758-1.3633-1.79102-2.1992 1.46484 3.5215 4.86133 3.5234-2.66797 2.6348 3.07032-1.1641 1.04101-1.7969-1.84179-2.1289 1.91992 4.1954 4.65429 3.6445-3.19921 2.5898 2.43554-.7675.81446-1.7403-1.09766-2.3066 2.47656 4.4043 3.87305 3.498-3.87305 2.9649 2.20703v1.63086l-2.6485-1.35742-1.7773 2.70313 4.4258 3.38476-.029 1.33203c-25.2666-15.2347-31.9153-38.86435-33.2032-56.43945zm-51.7304.29492c1.0924-.033 2.2452 1.00408 4.1504 3.23438 5.3243 6.2335 3.9041 15.87715-3.0567 20.90625-1.0141.7328-1.4221.66709-2.6601-.40821-7.1398-6.1998-7.5525-14.49123-1.1953-21.77343 1.0989-1.2584 1.9121-1.93289 2.7617-1.95899zm25.5215.85547c1.3132 2.0341 2.9707 4.12791 3.1601 6.59961-.094 2.4428-1.7236 2.8931-3.4101 1.4707-.2136 1.2829.5096 3.7793.5097 3.7793l-3.0527-.32813s1.1979-2.11344 1.2461-3.43554c-2.1196 1.4921-3.7389-.45464-3.4512-2.02344.6061-2.6687 2.7767-4.4688 4.9981-6.0625zm-25.4278 1.59375c-.25.02-.5118.19478-.9101.51758-1.8596 1.5074-3.3199 3.38112-4.0782 5.32812-1.6008 4.1096-.556 8.74369 3.0528 12.33789 1.8334 1.8258 2.4787 1.70059 5.289-2.07421 2.3541-3.16184 2.8423-7.24723 1.3926-10.79493-.7074-1.7311-1.9895-3.41787-3.5273-4.64257-.5909-.47044-.897-.69778-1.2188-.67188zm58.7266.75977 2.3691 1.17578c3.0216 20.1443 12.8183 32.4337 23.7949 40.9082l-.021 1.86914-2.9453-2.30664-3.5274 3.72852-2.8594-2.36719 1.0723-1.05274 1.6289 1.04883 2.082-2.35937-4.0976-3.69336-3.5742 3.13281-2.9766-3.0957.9043-.76367 2.0566 1.81445 2.3028-2.06445-3.9824-4.51368-3.5626 2.73047-2.4863-3.33398 1.0821-.65039 1.3007 1.80664 2.7481-1.73047-2.9063-4.51172-4.1386 2.14648-2.1192-3.85937 1.2051-.58398 1.373 2.16796 2.5782-1.2539-2.5938-5.32617-4.2324 1.41211-1.5566-4.1875 1.2109-.44922 1.0664 2.47851 2.8633-.92969-1.9453-5.73242-4.375 1.2461-1.0821-4.21289 1.3536-.29297.7089 2.27539 3.0079-.61133-1.1036-5.45898-4.4765.57421c-.1486-.9274-.8096-3.42494-.7969-4.36914l1.3789-.11328.4336 2.4043 3.0117-.10352zm-58.5684.4375c1.6415.2275 3.6445 3.42193 4.0977 4.58203.8648 2.2938.9379 4.94976.1484 7.00976-.6459 1.6848-2.5766 4.67518-3.8027 5.51758-.9897.5415-1.8193.13992-3.2324-1.80078-2.7924-3.8357-3.3312-8.44918-1.127-11.60938 1.6836-2.4134 2.9325-3.70141 3.916-3.69921zm61.7442.99609 1.1894.56641c1.4608 11.6731 8.3052 27.69189 21.7774 37.27539v1.46875c-10.4774-7.6001-20.0955-20.70895-22.9668-39.31055zm-61.9551.79492c-4.6917 3.574-3.9404 9.16985-.3867 12.93945 3.8286-2.5608 5.182-9.47725.3867-12.93945zm-71.6035.23438c2.6465-.062 4.3229.87071 5.1289 2.72461 1.252 2.8798 1.4224 3.4266 1.6797 4.9375.1469.8636.3737 2.16898.5 2.89648 1.3741 7.8258.3642 10.77529-4.3379 11.99609-1.403.3642-3.3613.48289-4.7285.15039-.3589-.087-1.6721-.095-2.7051-.1289-2.0501-.067-2.6756-.28716-3.705-1.13086-.3712-.3042-.7299-.54764-1.1758-.61914-2.346-.3757-3.046-2.54655-1.2656-4.15235 1.014-.9146 1.1154-1.03911 1.0214-1.19531-.053-.088-.4859-.15911-.9648-.16211-2.3648-.015-2.3401-2.47347.041-4.23047 1.1319-.835 1.6413-1.62238.8926-1.42968-2.1565.5141-2.9182-2.67216-.6641-3.66016 1.2-.6782 2.0627-1.24509.9043-1.30859-.972.085-1.7642-.641-1.4668-1.4961.3603-1.0357 2.3344-1.9776 3.4727-1.625.8893.2754 1.7565.525 2.3125.1211 1.3491-.9799 1.9522-1.41908 3.1133-1.57618.6733-.091 1.379-.11362 1.9453-.11132zm78.6601.59961 10.711.21289v10.77929l-10.4004-.19726s2.2458-4.81642-.3106-10.79492zm-24.4804.25 10.5273.1289c-1.7158 4.0618-1.0746 8.23259-.4434 10.58399l-10.0839-.15821zm17.4043 1.41406c1.7552 1.0336 2.239 5.86594-.1993 7.80078-2.3207-2.41027-1.8567-6.41307.1993-7.80078zm-25.5918 3.28515 2.7929.26368-.9961 4.03906s.4502-.47869.5977-.52539c3.5871-1.7027 3.844 2.15497.1934 5.63867-.8071.7679-2.1016 1.82227-2.1016 1.82227s-1.0175-1.55344-1.8242-2.95704c-.917-1.4115-1.5397-2.92247-1.3828-3.72461.2277-1.1643 1.613-1.93385 2.4961-1.22265.4351.3502.9394.88086.9394.88086zm49.8554 2.9629s1.1724 1.21226 1.8848 2c2.4656 2.7259 2.889 5.27743 1.6387 6.05273-1.0735.4966-1.7394.15547-2.6035-.55273.1794 1.6898 1.5067 4.18405 1.4746 4.18945l-3.6817.59961s.9104-3.38536.834-4.66406c0 0-.7573.58712-1.0937.73242-2.4029.8868-3.5928-1.87265-1.6172-4.62305 1.6574-2.3075 3.164-3.73437 3.164-3.73437zm50.2793 5.10742c2.4698 0 4.4727 2.02343 4.4727 4.51953 0 2.4963-2.0029 4.51953-4.4727 4.51953s-4.4726-2.02323-4.4726-4.51953c0-2.4961 2.0028-4.51953 4.4726-4.51953zm2.2051 2.06836c-.1928.044-.3508.49196-.373 1.48046-.2227 2.02764-1.8919 2.8441-3.7168 1.9043-.7377-.3796-1.3649-.94362-1.3672-.51172 0 .2313.5916 1.44122 1.0117 1.85352 1.5468 1.4058 5.3127 1.07237 5.2266-2.20313-.041-1.5418-.4599-2.59623-.7813-2.52343zm-81.1973 1.69726c.4856-.033 1.1016.17099 1.4961.58399 1.2226.844 1.454 1.92213 1.5312 5.99023.068 3.5885.0001 3.67543.5821 4.11133 1.4343 1.0661 2.2987-.55961 1.8886-4.19531-.3948-3.5004.8548-6.04455 2.9473-6.03125 1.0297.01 1.2196.61793.4375 1.39843-.8252.8234-1.0244 1.82912-.7656 3.85352.6635 5.1873.091 7.73421-2.0664 8.78711-2.2501 1.0981-5.1452-.1627-5.6524-3.0332-.3252-1.915-.3219-4.18608-.098-6.32618.041-2.2501-.012-2.50647-.7871-3.79687-.5488-.866-.1402-1.299.4843-1.3418zm-56.58 1.68164c1.2439 0 2.5344.72679 3.3066 2.33789 1.8632 3.8879-2.1724 7.08534-5.875 7.33594-6.4273.097-14.0668-.83933-20.5176-1.70703l.1035-3.67383c5.9202.3457 12.5937.83218 19.7852 1.17188-.819-3.4156 1.1239-5.46025 3.1973-5.46485zm33.8047.75391 3.5781.79883-2.2774 3.76172c.6755-.2956 1.1433-.50096 1.8184-.25196 1.4578.5315 1.4772 2.39798.4082 4.14258-.8451 1.2668-3.224 2.77968-4.8457 3.70898-.9113-1.9774-2.9242-5.43847-2.1231-7.33007.4251-1.0044 1.6041-1.49412 2.7012-.94532.363.2195 1.0567.57813 1.0567.57813zm8.4589.10351 10.9043.12891c-1.585 11.1423-4.6858 26.02044-10.7968 38.14844l-2.5684.66992c5.3891-12.0508 8.9732-23.35213 10.6484-35.98633h-5.4511c-3.1364 13.5603-7.7768 26.12712-14.9121 37.04492l-3.17-1.04296c7.6235-12.21584 13.6655-25.8481 15.3457-38.9629zm24.8711.19532h12.1543c2.2357 22.6872 9.8206 38.17188 21.1094 53.48828 0 0-.7121.15962-1.1328-.0215-1.1704-1.4761-2.2438-2.37823-3.9981-2.83203-9.4874-13.8049-15.852-33.10514-17.3867-47.86914h-7.2285c.823 18.5435 5.9055 33.74766 12.6699 48.47266l-3.6699.68164c-5.4324-13.178-11.3879-24.64672-12.5176-51.91992zm-6.2617 1.45508c.2897 0 .5215 1.16663.5215 2.61523s-.2318 2.61523-.5215 2.61523-.5234-1.16663-.5234-2.61523.2337-2.61523.5234-2.61523zm-60.8086.28124c-.5376.00084-.9729.43701-.9726.97461.0008.5368.4358.97186.9726.97266.5376.0003.9738-.43506.9746-.97266.0003-.5385-.4361-.97491-.9746-.97461zm85.9844 1.06641c1.0001.7819 2.0818 1.54932 3.0996 2.29492 2.737 1.9408 2.6999 5.61065.039 5.59375-.2825 0-.9395-.043-.9395-.043s1.0868 2.40625 1.7715 3.62305c-1.1087.2988-3.4258.73828-3.4258.73828s.3317-2.36156.2656-4.31836c0 0-.4432.50138-.8105.67578-1.7653.7453-3.2576-.81174-3.0371-2.65234.2975-2.4838 3.0371-5.91211 3.0371-5.91211zm-81.2051.44336 5.9824 3.00195c-4.0774 9.3796-8.8781 18.16209-15.6308 24.83789l.3066-21.67578c3.6861-.1084 7.467-.14066 9.3418-6.16406zm40.9121.33984h3.6797c-1.6332 17.3041-12.9464 40.71276-15.0703 43.53516l-.6992.53125c.043-.023-1.4487-5.30573-3.1446-7.20703 6.3824-8.7006 13.0708-25.41998 15.2344-36.85938zm25.8809 0h5.5605c1.7318 13.7883 5.9487 28.68409 16.6367 46.77539 0 0-1.0705.10833-1.8984-.39257-1.8214-1.1412-3.0876.36974-4.1758.31054-1.7018-.093-1.9828-.19433-3.7383.22657-8.8197-18.8007-11.3222-33.59943-12.3847-46.91993zm-60.0567 3.09571 1.9844.94336c-4.2699 9.9813-8.2581 17.91369-18.3731 27.65039v-2.90039c7.106-6.9554 12.0214-16.12216 16.3867-25.69336zm2.8965 1.39258c1.1644.5427 2.3113 1.0858 3.3574 1.8125-1.2445 1.4848-2.6828 2.07418-4.541 2.23828-.8655.2052-.593-.67095.3457-2.58985.4225-.8642.8379-1.46093.8379-1.46093zm3.9668 2.11523 3.5957 1.78516s-.4236 1.46634-1.1816 3.12304c-1.1652 2.5474-1.3974 2.60297-1.7461.50977-.061-.3604-.4071-1.5508-.6172-2.3418-.487-1.8343-.051-3.07617-.051-3.07617zm4.3438 2.05859s1.3962.68593 1.8496.98633c-6.2287 18.8533-22.8174 34.43713-22.7285 34.07813l-2.5879-1.53711c11.0388-10.0802 19.1284-21.98535 23.4668-33.52735zm-6.584.26954c.6026.013.077.76131-.7363 2.57421-.7712 1.7755-1.0244 2.4049-1.7461 2.6875-1.0346.3785-2.5192.3912-3.8379.625-.5643.099-.3278-.33759.541-2.12109 1.0195-2.0926 1.0753-2.52654 2.6738-2.96094.9241-.1457 2.1693-.81222 3.1055-.80468zm1.2031.71874c.511.20454.8147 2.85295.9805 3.02735.6421 2.3348.6288 2.79437.1992 3.60547-.8056 1.5208-1.8583 3.29634-2.1484 3.77734-.7259 1.2018-.9324.9519-1.3633-1.9707-.2673-1.813-.5009-2.62877-.3028-3.41797.3621-.8927 1.442-2.99692 2.0528-4.22852.2186-.6568.4117-.86107.582-.79297zm12.4473.98829 3.2676 1.08398-2.5645 3.12695s1.0765-.19563 1.2012-.14453c2.571.1726 2.1433 2.75526.1523 4.31836-.8244.7633-4.8906 2.63086-4.8906 2.63086-.4355-2.3113-1.3319-3.78775-1.1172-6.16015.1509-1.27754.2638-2.4307 1.8125-2.4668.8147-.044 1.1442.79916 1.6738 1.47656zm59.2285 2.80078s1.9682 1.02796 3.793 2.44726c2.3799 1.8509 2.7869 4.02654.4082 4.86524-.2749.097-1.0566.0566-1.0567.0566.6552 1.1527 2.209 2.86719 2.209 2.86719-.7794.5512-1.8782.98278-3.0976 1.36718 0 0-.3019-2.86856-.5918-3.97656 0 0-.3152.62579-.7051.87109-2.2917 1.4411-4.0909-1.27523-2.8594-4.71093.7481-2.0861 1.9004-3.78711 1.9004-3.78711zm-25.1934.48047c5.7223-.1407 2.3702 9.33005-.4902 8.71875-.049-.086 2.3621-5.60082-.8828-6.47852-1.4886-.4027-.2058-2.25933 1.373-2.24023zm-9.3828.67187c1.7781-.011 3.0715 1.25544 1.3731 2.05274-2.6731 1.255-1.082 4.26154-1.0215 5.96484.037 1.0416-2.3808-.90814-2.8945-3.02344-.6641-2.735-.3561-4.75994 2.5429-4.99414zm-42.3261.99414c.3945 0 .6909.031.791.10938.1671.4466-.6314 1.84401-1.7969 3.63281-.62.952-.8858 1.21826-1.2656 1.44336-.9013.5121-2.1662.37998-3.2207.45508-1.5724.02-1.2967-.012.4433-2.75.7774-1.2234 1.2682-2.22552 1.7305-2.54492.093-.06 2.1349-.34201 3.3184-.34571zm1.7285 1.00195c.2084.028.3341.38321.3339.97461 0 3.4254 1.152 4.54811.3067 5.62891-1.0337 1.683-2.3545 3.52512-2.834 4.10742-.8076.9809-.7181.79557-.9297-1.76953-.1532-1.8601-.3206-3.10319-.082-3.68359.6914-1.6787 1.5136-2.48278 2.3691-4.26758.3353-.7192.6276-1.01824.836-.99024zm45.5019 2.69336c1.6624.023 2.6901 1.80682 2.6153 3.44532l-.072 1.56836c2.1475-.8324 4.8135-.0229 4.9316 2.10546.2003 3.60914-2.4309 3.19087-4.6562 3.03907.2245.085.5537 3.26301-.7696 4.47851-2.0772 2.3498-5.9518-.051-4.9785-3.49804.2021-.7161.2462-1.16602.2461-1.16602 0 0-1.3895.50558-1.8789.48438-4.2136-.1821-3.8911-6.20238.3418-5.49414.8648.1447 1.4492.35546 1.4492.35546s-.091-.37996-.2343-.91796c-.6157-2.31764.6765-4.4324 3.0058-4.4004zm84.2891 1.07227 2.2715 1.32031v2.56055l-3.2305-2.41602zm-136.1758 1.71289c.8953-.01 1.5994.063 1.4609.2793 0 .4566-1.9605 3.21095-3.1191 4.46875-.9876 1.0722-1.1276.91853-3.543.79883-.9477-.047-1.5683-.0551-1.5429-.31055 1.1129-1.4746 2.647-3.37183 3.707-4.95703.4164-.1285 1.8863-.268 3.0371-.2793zm2.0781 1.40234c.4936.1118.397 2.66483.5156 4.23243.1579 1.4685.1576 1.46589-.4648 2.34179-.7588.8236-1.5332 2.03802-2.5117 2.98242-1.4699 1.64584-1.3187 1.74021-1.2969-1.77929.017-2.7498-.1869-2.74893.3633-3.39453.3025-.3549 1.2376-1.51162 1.8535-2.41602.9353-1.3727 1.2967-1.9629 1.541-1.9668zm14.1406.28516 3.0215 1.63086-3.0273 3.09961s.758-.00026 1.0117.0469c1.9447.3817 1.7991 2.46474-.1582 4.01954-1.2018.7672-5.3301 2.28515-5.3301 2.28515-.1417-1.7517-.5087-3.36289-.4394-5.24219.029-.867.1096-1.80909.7676-2.55859.4549-.5087 1.2148-.80382 2.2812-.10742.5601.5034.8516 1.07226.8516 1.07226zm35.6641 1.05859c-1.1841 0-2.1445.96922-2.1445 2.16602 0 1.1967.9604 2.16797 2.1445 2.16797 1.1842 0 2.1445-.97127 2.1445-2.16797 0-1.1968-.9603-2.16602-2.1445-2.16602zm33.7852.50977s3.9547 1.50214 5.7363 3.15234c1.6641 1.4026.8826 3.71402-.7695 3.76172-.1201 0-.8223-.10351-.8223-.10351.5599.8603 2.4355 2.97265 2.4355 2.97265l-3.0585 1.25391s-.4889-2.37904-.8672-3.71484c-1.0658 2.4871-3.695.86859-3.8692-.68165-.424-2.2715.5314-4.49082 1.2149-6.64062zm-33.7852.19141c.8233 0 1.4902.67376 1.4902 1.50586 0 .832-.6669 1.50781-1.4902 1.50781-.8232 0-1.4902-.67581-1.4902-1.50781 0-.8321.667-1.50586 1.4902-1.50586zm-.012.77734c-.4099-.00003-.7422.33228-.7422.74219s.3323.74223.7422.74218c.4099.00005.7422-.33227.7422-.74218s-.3323-.74222-.7422-.74219zm-57.6387 2.29883c.7369.009 1.491.0466 2.2578.0801v.002c.4536.3519-.4952 1.44417-2.3281 3.38867-1.4697 1.5594-1.6868 1.34312-3.4668 1.35742-2.9865.024-3.0589.043-1.6875-1.5332 1.5021-1.7271 2.3756-2.83942 3.0703-3.19922.6979-.0838 1.4175-.10476 2.1543-.0957zm2.8965 1.56836c.4615.0364.1582 1.88655.1875 2.54687l-.086 3.12696-2.3242 2.25976c-2.6889 2.4314-2.3668 2.58465-2.3477.31055.015-1.8074 0-3.07866.3828-3.88086 1.174-1.4298 2.3974-2.69575 3.7324-4.06055.2015-.22151.3486-.31112.4551-.30273zm59.0597.73045c.6469-.055 2.2974 2.8002 2.7109 5.1914.9436 5.4607 4.1812 8.04827 6.459 5.85547.9263-1.289 1.0295.11726.9844.78906-.4779 6.9177-8.2343 4.03877-9.1172-2.83203-2.7225 1.7856-5.2631-1.82047-3.6406-1.76367 3.8374-1.2327 2.7885-4.79503 2.6035-7.24023zm-8.9844.0527c.3798 2.393-3.8901 6.49179-6.291 3.61719-1.2215-1.4624-.1078-4.4786 1.4453-2.6211 1.7169 1.284 3.3823-.20609 4.8457-.99609zm-58.125 3.19531c.7349.0376 1.5996.14531 2.1797.15821.7832.08.2231.46038-1.4707 2.02148-1.4586 1.3446-1.9504 1.94362-2.1172 1.35742-.081-.9089-.01-1.98988 0-3.27148.069-.27015.6733-.30319 1.4082-.26563zm19.377 1.67578 2.6035 1.91797-2.5801 2.4043c2.3164-.1157 2.5195 2.07973 1.6406 3.30273-.5693.8576-2.7645 1.7615-4.9609 2.1211-1.3219.2169-2.4004.375-2.4004.375s-.05-1.02808-.086-2.73828c-.076-3.4979.1598-4.87474 1.4902-5.55664.9526-.488 2.5648.27682 2.9609 1.16992.1309.2953.4747.81055.4747.81055zm-16.752.18946c.011 0 .014.00002.02.01.147.2003-.3829 5.89258-.3829 5.89258l-3.6699-2.14648s3.7164-3.68426 4.0332-3.75196zm99.8418.67187c2.6871 1.2793 4.5518 1.21684 6.5078 2.61524 1.4486 1.0357 1.1069 3.12492-.041 3.63672-.5199.1603-1.375.0723-1.375.0723.9503 1.1856 3.0293 2.6836 3.0293 2.6836l-3.3047 1.39843s-.4543-2.25422-.875-3.48242c-.602 1.8273-2.6428 1.78303-3.8047.92383-.8231-.637-1.1618-2.77235-.7695-4.62305.1035-.4885.6328-3.22461.6328-3.22461zm-17.6699 52.98047c-32.6199 7.8123-59.1135 2.98153-61.7422 2.05859l-2.0801 3.13282c-.2534.5324-.4078 2.12133-1.8164 2.55273l-2.1113 3.18945.4121.44336-1.875 1.65235.4551.55078-1.3633 2.00195-.5371-.0566-3.1543 4.8457.4824.54102-7.2461 11.45898 98 .0313c-5.6962-10.85944-11.791-21.50915-17.4238-32.40235zm-.5918 1.41016.8008 1.66601c-5.6086-1.456-10.113.75759-12.9102 4.77149-6.0259-4.5754-13.5971-3.13865-18.625 2.00195-4.6496-4.7653-12.7815-5.48335-18.666-.62305-2.4776-5.3975-11.7136-5.64929-11.8027-5.02539 0 0 .3569-.5506.4394-.8164 11.3617 2.6474 37.3218 3.72989 60.7637-1.97461zm-2.7598 2.23828c1.3035.047 2.6372.31262 4.3008.79492l1.0059 1.76367c-2.1227-1.1373-11.2013-3.73922-13.7774 5.38282-2.7109-3.70374-13.8879-9.07351-19.5566 2.34179-1.6122-3.0925-10.9985-11.99089-19.5586-.65039-3.373-7.0481-6.1923-7.63818-12.3848-6.67578 4.4008-4.2742 10.5932.1746 13.2168 3.8125 7.3852-6.1901 13.5607-4.32957 18.9551.70703 6.9612-7.6603 13.9038-5.8144 18.7871-1.9707 2.5728-3.826 5.101-5.64796 9.0117-5.50586zm3.8809 3.95703c.1882-.0107.3782-.009.5664.006.903.0719 1.8066.44818 2.7207 1.20703 0 0-.888.15026-1.1719.22656-3.8753 1.0408-3.0309 6.559.9551 6.5586.3789-.0001 1.3242-.15039 1.3242-.15039-.076 3.7359 1.0457 4.6478 4.8223 4.4375l6.4023 11.5664-94.6953-.41211 6.0117-9.7207c3.0245.3583 4.9255-1.34075 4.252-3.93555 0 0 1.8615.57463 2.3828.57813 3.4234.022 4.3114-5.28763 1.0293-6.20703-.365-.1023-1.2844-.20528-1.3965-.23828 1.5009-3.7888 5.6237-1.55254 6.8047.0195 2.6583-2.2087 5.5978-1.22008 6.8574 1.64062 0 0-.4957-.27998-.6484-.39258-3.1132-2.3015-6.0073 2.46567-2.959 4.66407.2999.2163.9336.40234.9336.40234s-.3699.30641-.709.88281c-1.5825 2.6899.9634 5.96605 4.041 5.12305 2.3623-.9347 2.3986-2.72978 2.3965-4.70508 0 0 .8143.0643 1.5449.0723 2.835.034 3.6491-3.6356 1.9141-5.3418-.9373-.9217-2.165-.85015-2.7715-.96875 3.2681-3.2431 5.4827-1.00477 7.7891.49023.3488-.01 4.0035-4.44318 8.3476-.0879-2.1083-.5581-4.2659.82457-4.2949 3.04297.042 1.4273 1.0504 2.68823 3.2344 2.78907-.2351.7166-.3916 1.25241-.4043 1.94921-.043 2.3293 1.7472 3.77753 4.0215 3.41993 1.9007-.2454 3.3057-2.44218 2.6289-4.26758-.3054-.8237-.7227-1.12305-.7227-1.12305 5.1186.6473 5.0302-5.90523 1.0508-6.30273-.9436-.094-1.6735.31858-2.625 1.19922 2.3407-4.83674 6.6215-3.86688 8.2246-1.88868 2.1987-1.6145 5.2307-3.81832 8.8574.10938-.5977-.1275-1.4396-.15868-2.1699.0371-2.8707.77-2.8835 4.45933-.6074 5.58203.6402.3158 1.4256.4989 2.2715.4668-.7572 3.1004 2.6497 5.31683 5.0605 3.83203 1.7274-1.0639 2.1816-3.57684.3125-5.86914 3.1461-.1424 3.4562-4.1064 1.6387-5.4961-1.425-1.0895-3.106-.57131-4.3223.86719-.3912-1.1377 2.7208-5.09149 7.1133-2.24219 1.3529-1.05826 2.6711-1.74528 3.9883-1.82031zm4.6582 4.30859 1.2324 2.25977c-.8196.082-1.9938-.80447-1.2324-2.25977zm-15.875 2.29496c.7697 0 1.3926.63225 1.3926 1.41015s-.6229 1.40821-1.3926 1.40821-1.3926-.63031-1.3926-1.40821.6229-1.41015 1.3926-1.41015zm-57.4785.084c.1857.7561.2678 1.51035-1.0918 1.65625zm16.0117 1.36133c.7048 0 1.2734.57676 1.2734 1.28906 0 .7124-.5686 1.29102-1.2734 1.29102-.7049 0-1.2793-.57862-1.2793-1.29102 0-.7123.5744-1.28906 1.2793-1.28906zm21.2402.40234c.7471 0 1.3516.61209 1.3516 1.36719s-.6045 1.36719-1.3516 1.36719c-.7472 0-1.3535-.61209-1.3535-1.36719s.6063-1.36719 1.3535-1.36719z" stroke-width="1.06667" transform="matrix(.937503 0 0 .937498 1833.06 -797.178)"/><path d="m3693.8152-350.16374c-9.1849 13.11501-19.0125 20.6622-19.1758 30.89416-.055 3.31327 1.7343 8.9447 7.3382 10.02264 3.6357.69607 8.6414-2.25028 8.7459-8.23617-.016-1.19168 1.2603-1.16068 1.2483.47228-.1712 4.72155-1.6639 10.21871-4.1727 14.69355h12.0321c-2.5088-4.47484-4.0015-9.972-4.1727-14.69355-.012-1.63296 1.2642-1.66396 1.2483-.47228.1045 5.98589 5.1102 8.93224 8.7459 8.23617 5.6039-1.07794 7.393-6.70937 7.3382-10.02264-.1633-10.23196-9.9909-17.77915-19.1757-30.89416z"/><path d="m3796.886-104.53065c-9.1849-13.11503-19.0125-20.66226-19.1758-30.89419-.055-3.31327 1.7343-8.94472 7.3382-10.02262 3.6357-.6961 8.6414 2.25026 8.7459 8.23609-.016 1.19173 1.2603 1.16076 1.2483-.4722-.1712-4.72157-1.6639-10.21877-4.1727-14.69354h12.0321c-2.5088 4.47477-4.0015 9.97197-4.1727 14.69354-.012 1.63296 1.2642 1.66393 1.2483.4722.1045-5.98583 5.1102-8.93219 8.7459-8.23609 5.6039 1.0779 7.393 6.70935 7.3382 10.02262-.1633 10.23193-9.9909 17.77916-19.1757 30.89419z"/></g></svg>