<svg height="88.000275mm" viewBox="0 0 238.11099 332.59947" width="63.000198mm" xmlns="http://www.w3.org/2000/svg"><g><rect fill="#fff" height="332.5994820368" rx="11.38944039189" ry="11.37500301344" width="238.1109840945" x=".0000177131" y=".000005306"/><g stroke-width="1.06667"><path d="m18.3652164375 53.3049932169c-4.597987702 5.8476342738-9.517683076 9.212722123-9.599389998 13.7748590463-.02773342 1.4772846165.868162713 3.9881937964 3.673504813 4.4688032983 1.820059021.3103689699 4.325880185-1.0033311354 4.378253682-3.6722461424-.0106667-.5313616605.630828638-.517548284.624855286.2105393246-.0853336 2.1052225788-.832962603 4.5562702383-2.088859861 6.5514444732h6.023272156c-1.255897258-1.9951742349-2.00320626-4.4462218944-2.088859861-6.5514444732-.0106667-.7280876086.632855311-.7419009851.624855286-.2105393246.05226683 2.668915007 2.558194661 3.9826151123 4.378253682 3.6722461424 2.8053421-.4806095019 3.700918232-2.9915186818 3.673504813-4.4688032983-.08213359-4.5621369233-5.001508963-7.9272247725-9.599389998-13.7748590463z"/><path d="m219.7466457525 279.2946487657c-4.597987702-5.8476342738-9.517683076-9.212722123-9.599389998-13.7748590463-.02773342-1.4772846165.868162713-3.9881937964 3.673504813-4.4688032983 1.820059021-.3103689699 4.325880185 1.0033311354 4.378253682 3.6722461424-.0106667.5313616605.630828638.517548284.624855286-.2105393246-.0853336-2.1052225788-.832962603-4.5562702383-2.088859861-6.5514444732h6.023272156c-1.255897258 1.9951742349-2.00320626 4.4462218944-2.088859861 6.5514444732-.0106667.7280876086.632855311.7419009851.624855286.2105393246.05226683-2.668915007 2.558194661-3.9826151123 4.378253682-3.6722461424 2.8053421.4806095019 3.700918232 2.9915186818 3.673504813 4.4688032983-.08213359 4.5621369233-5.001508963 7.9272247725-9.599389998 13.7748590463z"/><path d="m119.0555364271 34.8746422889c-9.84109742 14.0343051904-20.370943659 22.1105437619-20.545877539 33.0596553111-.05866685 3.545504413 1.858245807 9.5716779114 7.862531237 10.7251321826 3.89547884.7448876611 9.258802267-2.4079861916 9.370802617-8.8133822084-.01706672-1.2752573185 1.350297553-1.2421158816 1.337497513.5053029124-.18346724 5.0525171224-1.782832238 10.9350315052-4.470840638 15.7234518023h12.89177362c-2.6880084-4.7884202971-4.287373398-10.6709346799-4.470840638-15.7234518023-.01280004-1.747418794 1.354564233-1.7805602309 1.337497513-.5053029124.11200035 6.4053960168 5.475323777 9.5582698695 9.370802617 8.8133822084 6.00428543-1.1534542712 7.921198087-7.1796277696 7.862531237-10.7251321826-.17493388-10.9491115492-10.704780119-19.0253501207-20.545877539-33.0596553111z"/><path d="m119.0555364271 297.7248610266c-9.84109742-14.0343051904-20.370943659-22.1105437619-20.545877539-33.0596553111-.05866685-3.545504413 1.858245807-9.5716779114 7.862531237-10.7251321826 3.89547884-.7448876611 9.258802267 2.4079861916 9.370802617 8.8133822084-.01706672 1.2752573185 1.350297553 1.2421158816 1.337497513-.5053029124-.18346724-5.0525171224-1.782832238-10.9350315052-4.470840638-15.7234518023h12.89177362c-2.6880084 4.7884202971-4.287373398 10.6709346799-4.470840638 15.7234518023-.01280004 1.747418794 1.354564233 1.7805602309 1.337497513.5053029124.11200035-6.4053960168 5.475323777-9.5582698695 9.370802617-8.8133822084 6.00428543 1.1534542712 7.921198087 7.1796277696 7.862531237 10.7251321826-.17493388 10.9491115492-10.704780119 19.0253501207-20.545877539 33.0596553111z"/><path d="m8.3455477928 49.8849185292.171520536-2.170566783c.541655026-6.707540961 1.98293953-8.970374699 10.15789841-15.972636581 3.968865736-3.394250607 5.270309803-5.069029174 5.452710373-7.011968579.519788291-4.582947655-3.535477715-6.013352125-6.176765969-6.034258857-3.423050697-.03093343-7.295916133 2.051953079-5.447270356 6.893248208l-3.841292004 1.149550259c-.772055746-4.515854112.02240007-8.752347351 3.616437968-10.632459893 4.799908333-2.451420994 10.9547009-1.490457991 14.062337278 2.371740745 2.088646527 2.591048097 2.565874685 6.176765969 1.445444517 8.982961405-3.273503563 7.168449068-14.377751597 10.322378924-15.29391446 18.616698177h12.272678352v-4.617827764h3.616437968v8.501039899l-20.036222613-.07573357z"/><path d="m229.7631997208 282.7147234534-.171520536 2.170566783c-.541655026 6.707540961-1.98293953 8.970374699-10.15789841 15.972636581-3.968865736 3.394250607-5.270309803 5.069029174-5.452710373 7.011968579-.519788291 4.582947655 3.535477715 6.013352125 6.176765969 6.034258857 3.423050697.03093343 7.295916133-2.051953079 5.447270356-6.893248208l3.841292004-1.149550259c.772055746 4.515854112-.02240007 8.752347351-3.616437968 10.632459893-4.799908333 2.451420994-10.9547009 1.490457991-14.062337278-2.371740745-2.088646527-2.591048097-2.565874685-6.176765969-1.445444517-8.982961405 3.273503563-7.168449068 14.377751597-10.322378924 15.29391446-18.616698177h-12.272678352v4.617827764h-3.616437968v-8.501039899l20.036222613.07573357z"/></g></g></svg>