<svg height="88.000275mm" viewBox="0 0 238.11099 332.59947" width="63.000198mm" xmlns="http://www.w3.org/2000/svg"><g transform="matrix(-1.06667 0 0 -1.06667 1980.0160343 -170.23751335)"><rect fill="#fff" height="311.81104" rx="10.677567" ry="10.664032" width="223.22835" x="1633.0309" y="-471.4082"/><path d="m1692.8786-438.71333c-9.226 13.15712-19.0977 20.72857-19.2617 30.99333-.055 3.3239 1.7421 8.97342 7.3711 10.05478 3.652.69833 8.6801-2.25748 8.7851-8.26252-.016-1.19555 1.2659-1.16448 1.2539.47372-.172 4.73672-1.6714 10.25156-4.1914 14.74069h12.086c-2.52-4.48913-4.0194-10.00397-4.1914-14.74069-.012-1.6382 1.2699-1.66927 1.2539-.47372.105 6.00504 5.1331 8.96085 8.7851 8.26252 5.629-1.08136 7.4261-6.73088 7.3711-10.05478-.164-10.26476-10.0357-17.83621-19.2617-30.99333z"/><path d="m1650.2481-421.43493c-4.3106 5.48214-8.9228 8.6369-8.9994 12.91389-.026 1.38495.8139 3.73892 3.4439 4.18949 1.7063.29097 4.0555-.94062 4.1046-3.44272-.01-.49815.5914-.4852.5858.19738-.08 1.97364-.7809 4.27149-1.9583 6.14196h5.6468c-1.1774-1.87047-1.878-4.16832-1.9583-6.14196-.01-.68258.5933-.69553.5858-.19738.049 2.5021 2.3983 3.73369 4.1046 3.44272 2.63-.45057 3.4696-2.80454 3.4439-4.18949-.077-4.27699-4.6889-7.43175-8.9994-12.91389z"/><path d="m1839.0426-209.57029c-4.3106-5.48214-8.9228-8.6369-8.9994-12.91389-.026-1.38495.8139-3.73892 3.4439-4.18949 1.7063-.29097 4.0555.94062 4.1046 3.44272-.01.49815.5914.4852.5858-.19738-.08-1.97364-.7809-4.27149-1.9583-6.14196h5.6468c-1.1774 1.87047-1.878 4.16832-1.9583 6.14196-.01.68258.5933.69553.5858.19738.049-2.5021 2.3983-3.73369 4.1046-3.44272 2.63.45057 3.4696 2.80454 3.4439 4.18949-.077 4.27699-4.6889 7.43175-8.9994 12.91389z"/><path d="m1796.4114-438.71333c-9.226 13.15712-19.0977 20.72857-19.2617 30.99333-.055 3.3239 1.7421 8.97342 7.3711 10.05478 3.652.69833 8.6801-2.25748 8.7851-8.26252-.016-1.19555 1.2659-1.16448 1.2539.47372-.172 4.73672-1.6714 10.25156-4.1914 14.74069h12.086c-2.52-4.48913-4.0194-10.00397-4.1914-14.74069-.012-1.6382 1.2699-1.66927 1.2539-.47372.105 6.00504 5.1331 8.96085 8.7851 8.26252 5.629-1.08136 7.4261-6.73088 7.3711-10.05478-.164-10.26476-10.0357-17.83621-19.2617-30.99333z"/><path d="m1692.8786-192.29202c-9.226-13.15712-19.0977-20.72857-19.2617-30.99333-.055-3.3239 1.7421-8.97342 7.3711-10.05478 3.652-.69833 8.6801 2.25748 8.7851 8.26252-.016 1.19555 1.2659 1.16448 1.2539-.47372-.172-4.73672-1.6714-10.25156-4.1914-14.74069h12.086c-2.52 4.48913-4.0194 10.00397-4.1914 14.74069-.012 1.6382 1.2699 1.66927 1.2539.47372.105-6.00504 5.1331-8.96085 8.7851-8.26252 5.629 1.08136 7.4261 6.73088 7.3711 10.05478-.164 10.26476-10.0357 17.83621-19.2617 30.99333z"/><path d="m1796.4114-192.29202c-9.226-13.15712-19.0977-20.72857-19.2617-30.99333-.055-3.3239 1.7421-8.97342 7.3711-10.05478 3.652-.69833 8.6801 2.25748 8.7851 8.26252-.016 1.19555 1.2659 1.16448 1.2539-.47372-.172-4.73672-1.6714-10.25156-4.1914-14.74069h12.086c-2.52 4.48913-4.0194 10.00397-4.1914 14.74069-.012 1.6382 1.2699 1.66927 1.2539.47372.105-6.00504 5.1331-8.96085 8.7851-8.26252 5.629 1.08136 7.4261 6.73088 7.3711 10.05478-.164 10.26476-10.0357 17.83621-19.2617 30.99333z"/><path d="m1744.645-339.50268c-9.226 13.15712-19.0977 20.72857-19.2617 30.99333-.055 3.3239 1.7421 8.97342 7.3711 10.05478 3.652.69833 8.6801-2.25748 8.7851-8.26252-.016-1.19555 1.2659-1.16448 1.2539.47372-.172 4.73672-1.6714 10.25156-4.1914 14.74069h12.086c-2.52-4.48913-4.0194-10.00397-4.1914-14.74069-.012-1.6382 1.2699-1.66927 1.2539-.47372.105 6.00504 5.1331 8.96085 8.7851 8.26252 5.629-1.08136 7.4261-6.73088 7.3711-10.05478-.164-10.26476-10.0357-17.83621-19.2617-30.99333z"/><path d="m1639.8452-433.11372 3.2348-.031c.6171 1.9918 1.9825 4.0164 3.8365 4.5782 5.2378 1.2532 8.6076-1.7286 9.7172-5.1662 1.3461-4.1696-.03-10.0246-3.636-12.1029-2.9879-1.7233-7.4274-.2697-9.4664 3.4166l-2.2654-1.4117 1.2162-13.7397h14.7995v3.2477h-11.9928l-.1903 5.724c2.5817-1.8465 6.5493-1.8268 9.1296-.5317 4.8869 2.3742 7.1574 7.7722 6.2086 14.134-1.3165 6.3277-4.2196 9.9133-10.7676 10.4253-7.2834.067-9.8548-5.0339-9.8239-8.5422z"/><path d="m1849.4426-197.8915-3.2348.031c-.6171-1.9918-1.9825-4.0164-3.8365-4.5782-5.2378-1.2532-8.6076 1.7286-9.7172 5.1662-1.3461 4.1696.03 10.0246 3.636 12.1029 2.9879 1.7233 7.4274.2697 9.4664-3.4166l2.2654 1.4117-1.2162 13.7397h-14.7995v-3.2477h11.9928l.1903-5.724c-2.5817 1.8465-6.5493 1.8268-9.1296.5317-4.8869-2.3742-7.1574-7.7722-6.2086-14.134 1.3165-6.3277 4.2196-9.9133 10.7676-10.4253 7.2834-.067 9.8548 5.0339 9.8239 8.5422z"/></g></svg>