<svg height="88.000046mm" viewBox="0 0 238.11073 332.5986" width="63.00013mm" xmlns="http://www.w3.org/2000/svg"><g transform="matrix(1.07145 0 0 1.07009 -3327.6925 409.58126)"><rect fill="#fff" height="310.81366" rx="10.62995" ry="10.629899" width="222.23224" x="3105.7842" y="-382.75403"/><path d="m3122.9245-332.94062c-4.2913 5.46461-8.8829 8.60928-8.9592 12.87259-.026 1.38052.8103 3.72696 3.4285 4.17609 1.6987.29004 4.0374-.93762 4.0863-3.43171-.01-.49656.5888-.48365.5832.19675-.08 1.96732-.7774 4.25782-1.9496 6.12231h5.6216c-1.1721-1.86449-1.8696-4.15499-1.9495-6.12231-.01-.6804.5906-.69331.5832-.19675.049 2.49409 2.3876 3.72175 4.0863 3.43171 2.6182-.44913 3.4541-2.79557 3.4285-4.17609-.077-4.26331-4.668-7.40798-8.9593-12.87259z"/><path d="m3310.8766-121.75366c-4.2914-5.4646-8.883-8.60927-8.9592-12.87258-.026-1.38052.8102-3.72696 3.4285-4.17609 1.6987-.29004 4.0374.93761 4.0863 3.43171-.01.49655.5887.48364.5832-.19675-.08-1.96733-.7775-4.25783-1.9496-6.12232h5.6216c-1.1721 1.86449-1.8696 4.15499-1.9496 6.12232-.01.68039.5907.6933.5832.19675.049-2.4941 2.3876-3.72175 4.0863-3.43171 2.6183.44913 3.4541 2.79557 3.4285 4.17609-.077 4.26331-4.6679 7.40798-8.9592 12.87258z"/><path d="m3122.8167-368.96053v3.44315h3.3395s.081 3.31915.11 10.35956c.026 6.83676.1651 10.22768-.2701 12.17513-1.1699 4.4873-7.6644 4.51212-8.9545 1.28567-.75-1.87697-.5504-3.33619-.585-5.22613h-3.5903s.021.95155.026 2.11571c.021 5.04601 1.6895 7.45937 5.5946 8.41091 4.0152 1.08592 8.7101-.57037 10.3792-4.00574.9945-1.95782.8806-2.09229.9049-13.9307.015-7.89786.1344-11.18441.1344-11.18441h3.0745v-3.44315h-10.1629z"/><path d="m3310.9814-85.733744v-3.443151h-3.3394s-.081-3.319149-.11-10.359557c-.026-6.836758-.1651-10.227678.2701-12.175128 1.1698-4.4873 7.6643-4.51212 8.9544-1.28568.7501 1.87698.5506 3.3362.585 5.22613h3.5903s-.021-.95154-.026-2.11571c-.021-5.04601-1.6894-7.45936-5.5946-8.41091-4.0152-1.08591-8.71.57037-10.3791 4.00575-.9945 1.95781-.8806 2.09228-.9048 13.93069-.015 7.897861-.1345 11.184415-.1345 11.184415h-3.0744v3.443151h10.1627z"/><g transform="matrix(.155135 .00255852 -.00256389 .15481 3382.92 -262.823)"><path d="m3340.0312 1942.5801v280.6992h174.1524v-280.6992zm55.3243 1.539 78.8906.2891-12.2285 18.6953c-15.9454-5.0453-41.8162-1.7723-55.1504.7774-3.506-5.85-8.5889-13.1937-11.5117-19.7618zm-53.0332.7188h50.6484l11.8945 21.6035c.4312.6024.022 1.8456-.2363 2.5449-1.468 4.1248-2.7663 6.5153-5.7363 11.4317-2.813 4.6566-3.8226 8.9203-2.8242 11.7871.1498.3522.2802.8878.2285 1.3379-.1644 1.4295-1.3683 3.0823-3.0059 4.2148-1.1126.1782-3.4251.3217-4.7637 1.6426-1.1472 1.1321-2.0872 2.7886-1.9394 5.8164.069 1.0829.207 1.7695.207 1.7695-15.128 6.2811-25.9703 13.6405-25.6113 13.9102-.1423-.065-13.3852-6.1082-18.8613-7.6035zm134.7382 0h34.7657v99.2461l-13.127-8.6348c1.0948-.7608 1.771-1.2122 2.9219-1.9922.2047-.062.5923-.067.8437-.123 2.3249-.5173 3.9453-2.2521 3.1387-4.0508-.5476-1.2211.2013-1.1475.875-2.1426.7585-1.1202.5991-2.118.1172-3.0605-.2392-.4678-.1074-.6532.2949-1.5176 1.0649-1.318.296-3.547-1.0801-4.2676-.144-.2122.1503-.5414.2168-.8476.3881-1.786-.323-3.3537-1.8711-3.752-.7967-.205-1.0623-.343-.7812-1.0527.4988-1.2595-.1591-1.7277-1.1953-2.1367-.2742-.1083-.6582-.2871-.6582-.2871l.1347-.8243s.8112-.3757 1.4278-.6523c4.411-1.979 5.4504-7.864 2.416-13.2031-1.2006-1.978-2.3717-3.7794-3.7227-5.6621l5.8379-8.1231s-4.0658-4.8055-5.5136-7.4629c.3412-1.3117 4.4114-5.431 4.9394-9.4297.8279-6.2697-3.9422-10.2815-8.4551-9.8105-3.1306.3267-6.9828 2.325-6.6933 8.1289.09 1.8028.7955 3.6649 2.0742 5.9199.8936 1.687 2.0514 3.4714 3.1602 5.1856l-5.875 8.0156 5.9375 7.5039c-1.0387 1.8043-2.355 3.7188-3.2579 5.6426-2.1897 4.3203-2.9667 9.0627 1.5293 12.4062.7864.482 1.7286 1.2227 1.7286 1.2227l-.096.7793s-.2696.1148-.4473.1562c-8.0622.5781-13.8116 7.6611-15.7149 13.9512l-21.8867-13.9414c.798-.4097.7455-2.2248.6231-3.3711-.028-1.729-.015-1.7343.9824-3.3223.3516-.5595.4975-1.1191.2949-1.9824-.3236-.9699-.3545-.6606.2637-1.3262.2411-.2962.5309-.4425.5781-.7636.063-.4299.024-1.1815.031-2.5821.015-2.8068-.023-2.5751 1.5566-3.8086 1.9618-1.5319 2.6943-2.2525 3.0059-2.9453.4467-.9931 0-1.7428-1.1016-3.7265-1.2898-2.3898-3.1033-4.854-3.8691-7.2051-.7345-1.1874-.6242-3.2464.057-4.4551.853-1.5173 1.0908-2.4343 1.0605-5.502-.028-2.843-.2356-2.5775.4903-3.5292 5.4257-7.1665 14.0429-20.6641 14.0429-20.6641zm27.4356 12.8185c4.5662 6.3233-.1344 12.1728-3.1289 16.5879 1.8312 2.7461 3.3426 4.7121 5.205 7.5235-1.4358 3.1471-3.8598 5.6326-5.3183 8.1094 7.1546 9.6344 7.4173 18.3607-2.209 18.875-3.4193-.3666-6.5741-3.279-6.2051-7.5254.2715-4.439 2.6469-7.6809 5.1036-11.2871-2.0949-3.5982-4.1831-4.9148-5.6622-7.7618l5.2852-7.8144c-1.4533-3.6357-4.5324-6.2725-4.8884-11.0462-.5008-6.7145 5.947-9.9799 11.8181-5.6609zm-72.3535 4.8358c1.2006-.019 2.4062.0005 3.6211.078.38 3.2816-10.636 22.6284-8.3359 23.7617 8.6682 2.0716 5.7073 12.3283-.8809 11.9883-.9869-.01-1.0826.083-1.7109 2.2617-1.1961 3.1807-1.9692 5.6068-3.2539 8.5664 0 .7611-4.3056.555-7.9102.5293-1.5491 1.1914-8.1829 4.4184-11.8086-3.8379l-.1308 7.0567s49.631-.7858 58.457.3183c.1887-2.2094 4.9082 1.709 4.9082 1.709l-24.2246 38.0274 1.1328 1.1035c3.4949-4.2325 24.5781-38.1621 24.5781-38.1621l45.6055 29.3691c-.3754 4.3674.061 14.1563.061 14.1563-12.5166 6.6326-8.6923 10.0116-.074 1.9785l.1465 5.7265c-3.1214 1.6569-6.1594 7.3142-.2207 3.3692l.1485 3.2519c-3.0888 4.3749-9.128 1.1686-7.5918-3.3613-4.1705.5393-4.821-3.6857-4.6094-5.6953-5.4849-1.1926-3.5899-6.9883-3.5899-6.9883-3.1692-2.6436-3.7253-5.4132-1.1582-8.332-2.5955-1.6109-3.3253-2.6426-6.1777-3.8125 2.1868 19.4102 12.6838 29.492 23.7324 38.4765-.2931.0003-.3229 6.2513-1.0176 5.0997-15.7765-11.7632-25.919-25.2148-27.664-46.9727-.1338.3416-7.4802-5.675-8.6953-5.3555-2.546 35.233 25.5624 58.3922 37.2519 62.9571 0 0 .1651 4.9084-.035 4.9257-17.7159-7.7117-37.414-30.3438-41.209-57.2714l-10.4531 16.1523-3.9141-1.6719 16.9004-26.5742-11.4277-7.1484-18.6094 29.4238s-.4936 2.4539.8535 2.416c26.1207 2.7889 64.9671 34.1048 51.9512 85.0742-1.129-.4455-2.9246-1.3173-3.0137-1.2793 2.0413-4.3922 7.7359-32.8468-9.3984-55.832-7.8501-10.5307-20.0235-21.7386-39.5586-25.0469 1.6143 3.3243.9082 10.8633.9082 10.8633l4.5527.9199c-1.5359-1.62-2.8188-2.9555-3.4277-4.7129-.8524-2.7375.3963-4.3591 3.4336-2.7304 1.206.6753 1.5088.6484 2.6836-.2227 2.4457-1.814 5.2358.055 4.5917 3.0723-.095.4457.024.7258 1.1856.8301 2.6307.2611 5.2801 1.5633 6.9961 3.6035.8411 1.0758 1.0318.9154 1.7793.2676 1.8357-1.5909 4.8772.6138 4.334 3.0761-.3105 1.4077-.1399 1.7443.5117 2.0176 3.5877 1.505 4.4709 2.4549 5.5879 5.5899.4092 1.1484.7435 1.5263.9551 1.4609.1482-.046.7389-.2434 1.2578-.4395 2.6786-1.0121 4.2441 2.2204 2.3457 4.7539-.389.5192-.099 1.0166.5918 1.3926 2.2292 1.2137 3.7442 4.114 4.0078 7.1543.1003 1.1567.224 1.1578 1.3828 1.1094 2.9657-.124 4.3753 3.872 1.9629 5.3418-.8402.5119-.6791 1.1726-.025 1.9453 1.7291 2.0468 2.1328 3.5252 1.9805 5.8574-.2028 3.1053 0 3.0447.9882 3.4219 2.882 1.0954 2.3435 5.6911-.4824 5.6758 2.0352 4.7314-.644 10.5008-.5566 10.6074 5.4299 3.0489.5266 6.2882-1.0508 5.7188 0 0-.8037 2.1258.1094 3.2207-4.763 6.2889-11.0003 7.3335-17.9063 10.457l-.2168-22.1426c2.8725 2.3075 5.719 4.4619 8.5645 6.6074 0 0 .7178-.2165.061-.8222-1.2656-1.1674-4.4491-3.221-5.3398-4.0391-1.9224-1.4555-8.966-8.1789-10.2188-9.7715-.5612-1.0611-1.409-.4465-1.3867-.3828.8426 1.4523 1.4714 3.1452 2.5625 4.6543 2.3563 3.2591 4.6423 6.8822 4.4043 10.4648-.01 2.0062-.8049 4.0751-1.2519 5.0821-.3313 1.3757-2.5282-.2337-1.9746-1.3926.977-3.1757 1.7859-5.7768-1.7071-10.8789-1.7033-2.488-3.9101-7.0039-3.9101-7.0039l-1.4121.3398.055 28.8867c-1.1843.049-4.1871.8247-3.5683.8458 9.359-1.866 12.222 11.4984 3.1855 11.9335-1.575.1619-3.1896 3.2266-3.6738 4.6094.8484 6.4344-.7501 9.4615-4.0781 15.334-1.8551 3.7087-5.5219 8.2262-4.3965 12.3086-11.0643 2.7593-19.361 3.4652-30.5078 3.7246-.109-.174 3.742-10.9831 6.5527-16.5254 2.0773-4.0961 3.1472-6.8946 2.5645-7.7402-8.8394.4423-7.1436-12.4922 1.3144-12.0371 0 0 2.1214-7.451 4.4942-10.8125 2.2483-1.2491 6.7702.4526 9.3066-1.2227 5.976-1.8288 9.8906 5.2227 9.8906 5.2227l1.6094-6.709c-1.4019-.3183-57.2381-.8831-60.7715.7285-1.7785-.7335-4.3108-2.6746-4.3125-2.6738 0 0 20.3814-32.5982 23.3477-37.2676.2411-.3795-.5278-1.1957-.5293-1.2031-.1112-1.0602-24.1895 37.6797-24.1895 37.6797-13.5947-8.6882-30.6809-19.6807-45.8262-29.3399l-.041-14.5117c10.9994-6.9171 10.0006-9.7447-.1777-2.2051-.1421.1198-.2168-5.4492-.2168-5.4492 7.7589-6.918 1.3073-4.7527-.2246-2.3555.037-1.7246-.3646-4.0662.7422-5.0976 3.3901-3.119 7.3872-.2554 7.5879 4.3554 4.4229.8653 3.8738 4.744 5.0136 6.3028 4.5091 2.5403 2.1351 6.3947 3.254 7.7051 4.7499 2.989 1.437 7.7944.4316 7.6855.5988.402 6.5016 4.3495 7.0078 4.2051-.5123-20.7031-21.24-37.4078-23.9922-39.4297l.4863-4.4648s28.5492 18.2241 28.2989 47.4668l9.1035 5.3984c-.8088-30.0028-14.4231-50.346-37.3789-63.2285l-.3008-5.5586c19.2704 8.9506 37.1435 27.0649 41.3047 56.7558l10.6699-16.5254 3.7598 1.8165-17.1309 27.4296 10.6973 7.0215c8.2977-10.9017 15.2177-24.2706 19.4355-30.6308-.1111-.5815-.3418-1.4141-.3418-1.4141-40.7904-6.7144-63.7661-44.8592-52.8144-84.7148l2.834 1.2441c-8.5054 29.5178 5.3662 72.0051 49.7285 80.6934-.088-3.1389-.6426-10.8594-.6426-10.8594s-5.8287-1.7482-4.9707-1.0469c1.4279 1.2178 4.6352 6.4676 3.2793 8.334-.9747.1363-2.6058-.4079-4.3906-1.7129-.6733-.4923-.6913-.3875-1.4473.418-2.097 2.2339-5.1438.9548-5.1719-2.1153-.012-1.2967-.061-1.5726-1.9043-1.5859-2.7949-.02-4.0492-.4976-5.7246-2.7344-1.1884-1.5866-1.0784-1.5942-2.4765-1.1152-2.6792 1.2723-4.8187-1.3988-3.9786-3.6016.4142-1.032-.026-1.363-1.246-1.5644-2.3728-.3918-5.0557-3.3636-5.5489-5.791-.1008-.4961-.3492-.6206-1.748-.5723-2.7439.095-4.2639-1.567-3.1817-3.8926.5853-1.2577.7506-1.7639-.3457-2.6152-1.3442-1.0439-2.1024-1.7697-2.6992-3.0352-.4733-1.0036-.5437-1.6462-.8691-3.7832-.1132-.7433-.3604-.8635-1.334-.9902-2.8374-.3693-3.9572-3.2675-1.8731-5.1465.6362-.5736.6349-.56-.33-1.8066-1.8563-2.3982-2.5531-5.5274-1.7442-7.6114.219-.5642.01-1.2554-.6562-1.4199-2.5875-.643-2.633-3.5069-.1563-5.1152.7191-.467.7566-.7766.2129-1.7188-.9525-1.6504-.906-5.9727.016-8.041.5951-1.3372.5902-1.3671-.332-1.9551-1.9663-1.2536-1.4029-4.7017.9219-5.2695 1.1292-.2758 1.2044-.4228.9004-1.791-.5419-2.4385-.6354-3.0716.8066-4.0352 3.9658-2.5703 14.1231-7.4843 14.1231-7.4843l3.3574-1.5938s.3354 21.303.1191 23.7226c4.7719 3.9189 7.4555 11.7959 11.4356 6.8712l.1132-29.1543c.2377-.6618.4037-.7351 1.1739-.8262.6407-.1232 2.2486-.3018 2.7871-.459.7542-1.2268-1.3779-.5133-2.3418-.2852-5.3189 1.5927-9.2533-6.6725-5.2031-10.8378.7774-.695 3.6805-1.9034 5-1.9864 1.8154-1.472 3.6075-4.2002 2.9492-6.2285-.9381-2.7277-.044-6.9176 2.7617-11.4902 3.0376-4.3159 5.3844-9.1321 6.6152-14.2598 9.4172-1.133 17.5829-3.3194 25.9942-3.4531zm4.6191.6348s12.9171.1044 19.3945 1.1406c5.6725.9073 5.3798.7408 5.3575 4.8515-.016 2.9194-.021 2.8542-.7715 4.2539-1.3834 2.5804-1.1465 5.1235 1.041 8.6856 2.1234 3.4578 3.6763 6.0119 3.6758 6.5039 0 .7632-.1311 1.6937-1.9707 2.9766-2.1707 1.5136-2.5846 2.5724-2.5547 4.1093.024 1.2443-.2121 1.6505-.957 1.6465-.2987 0-1.3528.4878-2.4864 1.0215-1.9942.9389-1.9987.9389-3.8593.9238-.933-.01-1.3848-.3589-1.6446-.2578-.5008.2333-.9561 1.9067-.9414 2.3946.053.1726.3201.068.8692-.1192 3.0855-1.0538 7.6755-.5807 7.8047-.1191.6221.5624.6243 1.4327-.3145 2.334-.609.9547-.8872 1.4476-.6328 2.9257.3456 2.008.089 2.8038-.9395 3.4981-10.1883 4.4837-23.4818-.2182-29.9297-7.752-1.4402-1.7252-1.9941-2.9726-1.9941-2.9726 1.395-.1502 2.7707-.1785 3.9863-.7285 4.9195-2.2258 4.9593-11.4233-1.7246-12.3692-2.7267-.096 5.6315-12.927 8.5918-22.9472zm16.6445 3.207c-3.5071.097-7.171 1.373-10.2714 3.0352-2.3996 1.3406-3.7727 4.0541-3.7727 4.0541s2.0384-1.0798 3.2435-1.7102c4.011-1.9768 10.6715-3.9866 13.3124-2.4494 2.2548 1.3508 3.1299.9104 1.8242-.9062-1.0055-1.399-2.5705-1.9621-4.336-2.0254zm-1.7031 4.4687c-.3544 0-.7251.044-1.0918.1192-2.3131.5153-4.8582 2.4163-6.9668 4.0918-1.04.8263-2.5103 2.4626-2.7402 2.8906-.5204.9687.6271 2.0361 2.1914 1.1816.9099-.4969.9908-.3851 1.8672-.2636 2.0193.6074 4.3226 1.5486 7.8828 1.25.3312.076.307.1538.1914.4648-.2112.5685-1.473 1.6535-3.1191 2.8691-.849.627-1.9734 1.5555-1.9734 1.5555s1.1951.1286 2.4382-.575c1.7638-.9983 3.797-3.2058 5.0391-4.9805.1183-.169.282-.308.3359-.4902.1214-.4106-.622-.2416-1.0195-.3515-.1712-.047-.1367-.4775-.1817-.6758-.1179-.5204.087-1.3812.1817-2.1211.077-.5984.7198-1.0729 1.1426-1.5117 1.8597-1.9305 1.7152-2.8065-.7852-1.3223-.4211.25-.7544.4006-1.1641.4336-3.6905.1159-5.8232-.026-8.9004 2.5605-1.3683 1.1002-2.1909 1.2073-.9726.035 1.8569-1.5009 4.1852-3.6366 6.7598-4.2012 1.5538-.3861 3.0324.8022 3.7128.4961 0-.8489-1.2924-1.4679-2.8281-1.4551zm-.8808 5.2871c.12-.012.2425-.0003.3457.049.4227.2778.8379 1.7172.7988 2.2031-.045.5645-1.0197.3326-1.1543.062l-.5273-1.5996c-.1724-.4052.1771-.6793.5371-.7149zm-1.9551.3497c.1502-.01.292.0009.4199.025.4518.4448.5562 1.4082.8125 2.2032-.1635.5734-3.7962-.2024-4.2519-.8438.4764-.6182 1.9681-1.3413 3.0195-1.3847zm6.791 10.3574c-.2733-.018-.6337.1148-.9609.4492-1.6354 1.6711-1.1097 4.5178.8574 5.4394.9591.4494 2.411.1185 4.5469-.5371 1.0178-.3124 1.7551-.4541 1.9453-.4531.8347 0 1.2887-1.287.7031-1.8789-.6768-.684-2.281-.5836-4.0078.7481-.8734.6735-1.4975.9991-2.2031.9902-1.7269-.022-2.5677-1.795-.8028-3.6582.5876-.6203.3772-1.0695-.078-1.0996zm-10.8184 6.2871c-2.5563-.379-3.8679 3.8833-1.2851 5.9629 2.037 1.6401 5.9038.7795 8.5039-.9375 2.3233-1.5343 3.2881-1.9864 5.1523-1.666 2.2847.3926 2.1986-.5038 1.209-1.6309-1.122-1.2779-3.8926-.8833-6.2109.6504-5.1404 3.4006-6.9984 3.9688-8.4902 2.1289-1.2884-1.5885-.3051-3.6281 1.1049-3.5247.8781.064 1.4214.604 2.2782.886-.6295-1.3922-1.2089-1.713-2.2621-1.8691zm-19.3535 7.5742c2.5939 3.2825 5.0785 5.9956 8.8086 7.9961l.041.6191-12.0605-.025c.8421-1.4681 3.2354-8.4921 3.2109-8.5898zm-40.8379 8.5527c-.2553 4.9478.6355 7.8535 3.5391 11.3125 3.0862 3.6766 2.8563 9.4086.8711 12.9493-.8785 1.5668-2.6667-.3596-1.8242-1.3614 1.1978-1.5037 1.2713-5.175.7051-7.4687-1.2711-3.7915-4.1544-5.6485-5.3223-9.6563-.3932-1.7102-.2695-4.7851-.2695-4.7851zm3.7754.418c.2112-.033.5473.1857 1.045.6152 1.706 1.4734 1.4159 5.6905-.5372 8.3965-.5982.8208-1.0944.5863-1.666-.1758-.7718-.7612-.5049-.8378.1446-2.1738.6772-1.3931.8948-2.9603.7558-4.793-.094-1.2341-.051-1.8206.2578-1.8691zm110.6328 1.4453c1.5054-.023 3.3875.2968 3.5586.8418.163.6631-.1951 1.1929-1.0351 1.5469-2.2031.9283-5.1153-.3695-4.3809-1.9551.1836-.2834.9542-.4201 1.8574-.4336zm-3.8457.3535c.3606-.019.693.049.9981.2246.722.3713-.347 2.9087 3.2461 2.8594.859.1262 1.4928-.071 1.375.3145-.1787.5847-1.7198 1.4621-3.3926 1.709-5.0066.7387-4.7893.4885-4.5625 4.0195.148 2.3049 0 3.0826-.3145 4.4805-.5433 2.4234-.7579 4.7645-.3925 3.9941.4883-1.0298 1.7343-4.2816 1.7265-6.1309-.011-2.7274.9649-3.2676 1.3555-1.291.1671 1.3084-.4211 2.0469.459 3.3809.4992.7496.7285.736.3945 1.8984-.2946 1.0255-.091 1.3271.2676 1.8477.3613.5242.726.6455.4199 1.3789-.66 1.5814.3748 3.0784 1.877 3.2051.6942.058.8865.3608.6777.625-.3673.4561-1.0992.6724-1.707.8046l-15.9024-10.1406c3.2871-7.5827 7.026-11.0717 12.3086-12.8886.4179-.1682.8055-.2724 1.166-.2911zm8.4786 3.2911c.4385-.017.7635.2118 1.1328.6855.976 1.2522.1243 2.8165-2.2754 4.1641-2.0514 1.1644-2.6473 1.3044-3.0918-.5254-.1028-.3302-.377-.7362-.5547-.8985-.4749-.4336-.3665-.7951.2383-1.1152.2894-.1532 1.2111-.5291 1.9492-1.0156 1.2824-.8454 2.0378-1.2738 2.6016-1.2949zm-6.7696 3.6328c.5021.01 1.0209.1293 1.4024.3769.6359.4129.6421 1.4501 0 1.8633-1.277.5199-3.295-.1773-3.125-1.3477.086-.5951.8858-.9057 1.7226-.8925zm8.1817 1.2793c.4529-.012.7936.1993 1.0761.6347.6372.982.096 1.9669-1.6328 2.9981-.3034.1809-.643.3648-1.0195.5488-1.6599.8111-3.7826 1.1624-3.6426.6855.1127-.3838-.4798-2.2776-.7441-2.58 1.7099-.4656 2.8436-.7781 4.2246-1.5899.7203-.4503 1.2853-.6852 1.7383-.6972zm-120.5039 1.3359c.8475 0 1.4724 1.0956 1.1953 1.6582-1.1669 2.7987-1.352 4.0337-.7969 6.9766.4621 2.4496.9966 3.6793 3.5156 7.2988 1.9173 2.7548 2.5324 3.8253 2.0703 4.6953-.3257.4688-1.0585.9076-1.5136.457-.9366-1.222-1.4984-2.7068-2.4122-4.0683-3.5205-5.1531-3.7646-6.4657-4.2148-10.5352-.2057-1.8595.8655-5.8165 1.7813-6.4082.1281-.05.2539-.074.375-.074zm82.5371.3672c-.5176.075-2.3156 3.2416-2.0807 3.4728.8729.8593 3.4526-3.6707 2.0807-3.4728zm30.3027 1.2656c1.4089.042 1.9083 1.303 1.2773 1.9609-.9203.9597-2.5762.2355-2.5761-1.1093 0-.57.2665-.864 1.2988-.8516zm7.8145 1.7949c.805-.074.9149.8365.4863 1.9981-.5361 1.0785-1.1825 1.2611-3.1192 1.8633-2.3192.7211-2.6965.6145-3.0449-1.5137-.1339-.8177-.068-.6348 2.0684-1.2012 1.2147-.3345 2.3595-1.0315 3.6094-1.1465zm-136.9668.9551.5683 4.2988.9258-3.2207zm129.4316 1.4453c1.1412 0 1.753 1.0246 1.1738 1.6367-.3227.3411-1.1443.3471-1.541.1485-.9061-.6607-.7423-1.7897.3672-1.7852zm-34.8594 2.2442 2.2246 1.3691-18.0644 28.4629-2.1778-.047-.207-.4551zm40.9922.2734c1.3337-.019 1.4504 1.2371-.1641 2.3906-.662.4236-1.4062.5273-1.9824.5528-.8031.035-1.344-.1738-1.4062-.7286-.3486-1.3589-.5471-1.6962.6933-1.6152 1.0262-.037 1.8873-.4105 2.8594-.5996zm-5.5234 1.2441c.9221.01 1.5096 1.0035.8906 1.4922-.7647.6038-1.7179.2308-1.7129-.6816 0-.5831.1621-.8141.8223-.8106zm-129.9883 2.0137-4.916 4.3438c1.8019 2.1271 3.3131 4.2517 4.873 6.4824zm99.3809.2793c2.133-.085 2.8338.943 1.8222 1.6348-1.3744.9167-2.5534.8724-4.1133.6601-2.0634-.3827-.4202-2.0315 1.8418-2.2656.1549-.016.3068-.024.4493-.029zm-2.2637 3.0957c.4308-.012 1.0649.109 1.8867.3867 1.3955.4718 3.1347 1.931 3.0527 2.7403-.1326 1.31-2.6043.6334-4.5937-1.2442-1.2463-1.1761-1.2935-1.8575-.3457-1.8828zm-1.8887.021c1.2096.1142 2.4161 4.1991 1.4785 5.4551-.919 1.2311-2.5385-1.4192-2.2441-3.5.1165-.8237.3243-1.9115.6465-1.9512.039 0 .08-.01.1191 0zm-78.9941.8965c.6814.1625 1.5538 1.1026 1.3652 1.8164-.1374.2867-.4239.2052-.7344.1308-.5601-.2364-.9929-1.0152-.8847-1.6621.053-.1748.1279-.275.2539-.2851zm91.666.7031 3.5527 2.4043-3.5527.1387zm-15.2969 2.1191c.012-.0004.023-.0004.035 0 .2684.0004.4859.218.4863.4864-.0004.2684-.2179.4859-.4863.4863-.2684-.0004-.486-.2179-.4864-.4863-.0004-.2553.1966-.4676.4512-.4864zm.5723 2.7481c2.7259.015 3.303.8932 1.2675 1.9648-.846.4455-2.9068.5294-3.9726.1602-1.6915-.5859.3384-2.1378 2.7051-2.125zm22.0527 1.832.1856 2.4668-6.8418.5977-.3516-2.5703zm-25.9844 1.2285c1.2431.074 2.319 3.4747 1.5 5.1563-.448.92-1.0151.7188-1.83-.7949-.788-1.4637-.8299-4.0478.078-4.3301.084-.026.1691-.036.2519-.031zm2.3282 0c.4739-.03 1.2296.1875 2.2187.6954 1.8616.9558 2.922 2.5598 1.9609 3.0664-.8707.4589-2.4223-.086-3.5175-1.2344-1.4498-1.5196-1.5669-2.4703-.6621-2.5274zm-91.3223.961-2.9922 6.0019 5.4199 4.7207zm86.4375 2.4765c.012-.0004.023-.0004.035 0 .2685.0004.486.2179.4864.4864-.0004.2684-.218.4859-.4864.4863-.2684-.0004-.4859-.2179-.4863-.4863-.0004-.2553.1966-.4676.4512-.4864zm29.3848 2.1465.4804 2.375-6.5683 1.6153-.6407-2.586zm13.9843.3262c-2.5082 1.6781-.094 2.6005 1.6993 1.332-.1345-.4322-1.1731-1.3252-1.6993-1.332zm-42.6679.1387c.8012.014 1.5541.2047 1.9863.584.5993.5259.4676.7611-.9473 1.3359-2.5196 1.0236-5.6235.4043-3.8222-1.125.6361-.5401 1.7531-.8131 2.7832-.7949zm-1.8418 3.2265c1.7941.059 5.3156 2.514 4.5625 3.6895-.409.6438-2.764.093-3.6993-.8008-1.229-1.1753-1.8784-2.7465-1.1992-2.8691.1025-.019.2164-.024.336-.02zm-2.2657.1133c.9259-.1721 2.4075 4.1343 1.2891 5.2383-.4181.4127-.5346.388-1.2363-.2324-1.4019-1.2394-1.1607-3.5224-.3203-4.7989.08-.1222.1718-.1892.2675-.207zm54.25 1.3516c-8.7209 3.344-6.4847 6.5297.8848.9179-.2445-.4558-.5493-.667-.8848-.9179zm-19.7793 1.2129.8692 2.4062-6.6152 2.6153-.9727-2.6309zm-113.1445 4.5527-2.2402 5.8828c2.4347.014 4.6312 1.1623 6.8535 2.1836zm115.3438 1.7285 1.4004 2.3633-6.2207 3.3613-1.2422-2.4941zm-144.545 4.6035 2.5508 1.7969-3.7441 4.6445-.3418-.6562.041-3.8555zm147.9414 1.461 1.5059 2.1679-5.9902 4.1543-1.4688-2.3593zm-141.5175 2.7871 2.7519 2.1152-4.3496 5.2383-2.6328-2.0078zm30.2773 1.2949-.1308 6.3027 6.4765.2461zm81.0918.6152c-1.9228.3738-4.3903 1.6228-6.2519 2.2246l7.3613 4.2305zm34.1719.9024 1.7187 2.1308-5.5351 4.6407-1.7735-2.2188zm-139.9238 1.8691 2.5644 2.3789-4.5195 4.8711-2.3731-2.2344zm144.6523 3.4571 1.9902 2.0175-5.0429 5.2344-1.9903-2.0195zm-138.8242 2.5644 1.9863 2.3125-5.1621 4.0938-1.9121-2.3223zm29.7441.543 1.4473 6.1718c-.1053-.4488 6.4264-1.8411 7.2773-1.373zm76.0332.5215 6.1641 6.4941.6933-6.2559zm38.1192 1.0214 2.2304 1.7383-4.1386 5.8848-2.5235-1.9766zm-139.4532 3.9219 1.836 2.6485-5.4102 3.2148-1.5351-2.3379zm145.293.625.3418.3399-.01 4.2011-1.7168 2.5196-2.3437-1.3789zm-34.8711 4.7188 5.4531 9.8925 1.5372-7.3769c-2.0166-.03-5.2078-1.3191-6.9903-2.5156zm-106.1094 1.3203 1.2989 2.8535-5.7149 2.6016-1.3027-2.8399zm3.0879 6.8125 1.045 2.8633-6.0762 2.0136-.9629-2.7617zm-19.6093 1.8222c-1.0375-.018-3.7616 1.0137-7.5586 3.3653l1.8925 1.3222c5.5456-2.9087 6.9999-4.6645 5.6661-4.6875zm48.164.076c.3724-.039.8022.4744 1.1485 1.6094.5234 1.7156.2443 3.8432-.9219 3.8144-.7855-.095-1.077-2.1048-1.0801-2.6875-.01-1.7213.3747-2.6866.8535-2.7363zm5.4043 1.0274 2.3477.2519-.01.6621-18.7012 29.6289-2.2656-1.4355zm-10.0703.6855c.7453.01 1.8359.519 2.8027 1.543.5655.6116 1.1727 1.4804 1.3204 2.3691-.017.2931-.5184.1818-1.004.1133-1.2416-.1751-3.0698-1.0327-3.6523-2.0898-.7157-1.2988-.3115-1.9431.5332-1.9356zm85.9766 1.0547 2.4941 12.1348c.7722-3.0374 2.4035-4.7886 3.6113-7.1739-3.1781-1.4604-4.4832-3.1913-6.1054-4.9609zm-107.4493 2.4551.584 3.1386-6.2988 1.4551-.6523-3.0449zm23.7598 1.0998c2.3037.2572 2.6291.7685 1.0801 1.8066-.9387.6292-3.6788.8063-3.9004.047-.2664-.9128 1.5847-1.8085 2.8203-1.8536zm-43.748.783c-.7075.045-1.6072.3893-2.2246 1.0488l1.955 1.1406c2.0932-1.5096 1.4487-2.2647.2696-2.1894zm40.1679 2.1074c.7041.01 1.1292 1.2637 1.377 2.416.1274 1.0672.053 1.9609-.1094 2.6836-.1896.8448-1.0438.8078-1.4629.1289-1.2286-1.9899-1.1902-5.2455.1953-5.2285zm3.2987 1.5117c-.0004.2684-.2179.486-.4863.4864-.2692.0007-.4879-.2172-.4883-.4864-.0003-.2553.1966-.4675.4767-.4767.28-.01.4975.2083.4979.4767zm-8.4901.3106c.3287-.012.7419.07 1.2246.2519 1.6346.6156 3.8023 3.1141 2.8868 3.459-1.3517.5092-4.3058-.9726-4.8614-2.4687-.28-.7541.027-1.2169.75-1.2422zm-13.4785 2.0117.1504 3.1016-6.625.2695-.1973-3.086zm16.2285 2.6113c.6526-.019 1.306.068 1.8321.2949.9485.4091.2571 1.1495-1.3711 1.7129-1.075.372-2.6073.4675-3.1446.041-1.2567-.989.7258-1.9929 2.6836-2.0488zm-51.289.3613c4.5379 2.7501 13.9492 8.877 13.9492 8.877-.4441.087-.9172.4359-1.3555.7754-.3382.2776-.7041.5356-1.0234.666-.5028.2054-.9662.233-1.3867.3242-2.9249.6347-4.3565 2.2858-3.4434 4.3399.3587.8068.4508.6771-.1719 1.3574-1.7443 1.6609-1.5311 2.1592-.9101 4.2851.01.3006-2.0763 2.8534-.2325 4.7774 1.0199.887 1.0675.3331.6973 2.3496-.1291 1.2125.2027 2.2076 1.9707 2.5547.9831.45.9696.2932.6211 1.125-.093.4673-.1274.8385-.018 1.1191.2841.7178.6268.9376 1.4043 1.2793l.088.7442s-.1966.1026-.2929.1543c-5.6553 3.0319-7.3144 8.2199-1.8536 15.8047.6547.9092 2.3028 3.4746 2.3028 3.4746-1.8723 2.7733-3.6609 5.0583-5.5703 7.5351l5.5585 7.7559c-1.1716 1.5884-3.3368 4.4922-4.2988 7.0957-1.6173 4.3769-.6591 10.1898 4.9297 11.9687 2.3963.7628 5.5603.1437 7.5547-2.1679 1.618-1.8754 2.5003-5.6007 1.0234-9.4805-1.8673-4.3472-4.1075-6.4802-4.832-7.7168l5.9512-7.4531s-4.101-5.886-5.7364-8.0235c10.5931-12.9396 2.9176-17.0313.6153-18.4121-.1231-.074-.3203-.1992-.3203-.1992l-.2071-1.0527s.1833-.022.2735-.033c9.813-1.2139 13.1993-6.673 16.1211-13.5664 5.979 3.8426 21.5371 13.7285 21.5371 13.7285-.2324.76-.4293 2.0278-.4453 2.9668.2788 1.8081.1463 2.626-.584 3.3183-.6873.6516-.5498.9483-.4395 1.6524.1916 1.223.3761 1.3449-.1718 1.9609-.6753.7591-.9009 1.1143-.7754 2.957.075 1.0942.2133 1.9149-.072 2.5606-.373.8405-1.3953 1.2653-2.7363 2.3164-2.3469 1.8396-2.0295 2.4014 1.2109 9.0781 2.7614 5.6897 3.0774 6.9913 2.0176 9.0117-.8818 1.6811-1.2144 2.9818-1.1074 5.4102.027.6193.081 1.2886.078 1.6152-.01.7857 0 .6943-.4512 1.1856-.3534.3826-.94 1.1405-1.3027 1.6836-3.8532 5.7678-13.9903 20.584-13.9903 20.584h-34.1757zm143.7285 1.125c.01 5.2554-.1067 12.0769-1.9199 17.1055l2.0546.9297c-.6632-5.1625.1606-9.4013 4.9063-11.6348-2.1594-1.4628-3.8098-3.9342-5.041-6.4004zm-95.8672 1.5586c.3994-.028.8818.6855 1.4277 2.127.3153.8324.2811 2.2782-.2285 2.834-1.0148 1.1068-2.4121-1.4872-1.9707-3.541.1994-.9275.4609-1.3977.7715-1.42zm2.9726.7266c.011-.0004.022-.0004.033 0 .2692-.0007.4879.2171.4883.4863.0007.27-.2183.489-.4883.4883-.2692-.0004-.487-.2191-.4863-.4883-.0003-.2553.1965-.4675.4511-.4863zm-8.082 1.0293c1.0701.081 2.1271.7145 2.8379 1.3418 1.0427.9201 1.9825 2.1839 1.7285 2.2969-1.612.706-5.7039-1.4518-5.1679-3.1387.1177-.3572.3278-.5206.6015-.5zm-7.1699.2207.043 2.5762-3.9629-2.5293zm90.4727 1.2402c.6415.056 1.6326.8925 1.4785 1.4746-.2759.63-.6147.5723-1.0567-.09-.5515-.8256-.7746-1.3399-.4218-1.3848zm-80.2735 3.1836c.962-.026 1.7923.1852 1.8828.6856 0 .4732-.7339 1.0864-1.6347 1.3633-2.2523.6922-3.94.2449-3.3243-.8575.3862-.7296 1.8394-1.158 3.0762-1.1914zm77.3535.5586c.8996-.013 1.6712 1.7885 1.0938 2.3614-.9523 1.7033-1.0688 7.1505.6113 9.373 2.6103 2.8766 5.0202 6.6225 4.7422 11.6074l-2.5098 1.1211c.1386-4.0995-.025-6.7659-3.2324-10.3027-3.8192-4.1418-2.9195-11.3174-1.6016-13.4278.283-.5209.5967-.7279.8965-.7324zm-105.2402 1.6917 12.0469 8.1719s.032.2151-.031.457c-1.715 6.574-6.7191 11.7887-14.125 12.7442-.8567.1105-.4154-.4267-.9316-1.4571-.5315-1.061-1.5124-1.5212-2.6016-1.5312-3.0581-.028-.4436-1.741 3.2891-2.2305 1.2339-.1892 2.722-.3565 3.5078-1.0996.1705.08-.6482-5.1394.1914-6.9765.4283-1.6524.023-2.452-.4395-1.4356-.2904.638-.6975 2.314-.916 4.0313-.1844 1.45-.4898 1.6474-.832.9433-.1562-.3214-.1549-1.0813.092-1.6816.2782-1.367-1.4493-2.3971-1.1016-3.6485.4629-1.0451-.018-2.1993-.5996-2.582-.3167-.6777-.2799-1.1669-.2383-1.6406.097-1.1083-.6403-2.1731-1.8085-2.6367-.5166-.2604-.3178-.4677.1757-.8106 1.2779-.8879 3.0394.644 4.3218 1.3828zm-7.2715.2793c.2941 0 .5856.026.8633.098.6012.3652 1.0849 2.4418.4141 2.5234-.2472.03-1.0201.1229-1.6192.2989-2.0301.5953-2.9927.5153-2.9531-.6504.04-1.1887 1.7071-2.2424 3.2949-2.2696zm2.6992.211c.7993 0 1.4442.9392.9414 1.4355-.52.5134-1.5177.1387-1.5136-.6035 0-.4001.1819-.8341.5722-.832zm.543 3.2363c.229-.01.4836.04.7559.166.7429.3427 1.1721 1.6171.6992 2.084-.3596.3549-1.3888.2312-1.9395-.2363-.9838-.8353-.508-1.9754.4844-2.0137zm-2.5176.1855c.46.01.7908.1572.8789.4746.076.2732-.051.5254.072.9141.1944.6118.5839 1.0806.2441 1.3262-1.5571-.093-4.7912 1.8582-5.7265 1.7656-.779-.1041-.8671-.8208-.1914-1.9824.7808-1.3424 3.3426-2.527 4.7226-2.4981zm.9414 3.7735c.3392-.021.3955.1653.2578.6601-.098.3517-.017 1.1884.2227 1.7286.2567.579.7222.9236.4805 1.1503-.3988.1145-1.7356.3822-2.8594.8008-1.4506.8012-5.5252 3.2147-4.5-.6445.3267-1.2892 1.8265-2.1849 4.4433-3.0977.993-.3462 1.6159-.5762 1.9551-.5976zm2.1348.047c.6296-.046 1.35.2564 1.6719 1.0371.9448 1.8773-1.7663 2.1447-2.6328.582-.5134-.9258.1514-1.5603.9609-1.6191zm.5176 4.371c1.4086.01 2.5028 1.7504 1.4804 2.4102-.7578.4547-1.6983.3686-2.5664.1543-1.3046-.572-.7027-2.5746 1.086-2.5645zm134.8613.035c5.359 2.7996 12.6334 5.3818 19.7012 7.2988v69.5157h-48.3067l-13.2285-23.0313c-.6206-1.0805-.8748-1.9107-.5701-2.8535.4994-1.545 1.7664-4.6284 2.9902-6.8027 3.1953-5.8541 7.7341-12.2744 5.2754-17.8985-.2811-.643 2.5391-4.1308 2.5391-4.1308 4.4965.2199 8.3569-2.7431 6.5508-9.0938 9.0668-3.6993 16.634-6.7553 25.0488-13.0039zm-137.3594.3418c.1229 0-.2456 1.5177.5235 2.4512.4795.7352.4009.7106-1.2266 1.3515-.6085.3292-1.2193.8292-1.5625 1.1348-2.3301 2.0746-4.6346-.6369-2.3828-2.8164 1.818-1.6304 3.7175-1.9878 4.6172-2.1016.013-.015.023-.019.031-.019zm110.7852 1.4336c.7816.1386 1.7952 1.1764 1.4707 1.7422-1.1023 1.843-1.1536 2.8336-1.252 4.7402-.1098 2.1285.2548 2.4417-.5586 2.0742-.5301-.2472-1.5201-.6718-1.7421-1.2129-.5124-1.2476.7975-7.5715 2.082-7.3437zm-111.5449 5.3418c.8656-.015 1.7732.2671 2.2851.9238.4266.5473.4709 1.0147.047 1.2383-1.0086.5317-4.3457.2557-4.5137-.4277-.2591-1.0545.9165-1.7124 2.1817-1.7344zm50.5703 1.3516c4.0784.016 8.8204.9223 12.5215 2.4882 3.222 1.3633 8.4175 5.1199 11.2109 9.6934 0 0-.662-.011-1.0918.035-6.2283 1.0267-8.4333 8.788-3.1777 12.4433 1.6479 1.0279 2.9785.9199 2.9785.9199 1.3337-.1134-5.9238 13.7815-8.8125 22.4395-8.9387-.3653-15.6948 1.0089-24.4336-1.9922-.9398-1.5568-.7151-4.9955-.029-6.7715.6276-1.6123 1.454-2.8573 1.0547-4.7129-.6955-3.2318-3.6473-7.4403-4.6348-10.1094-.8667-2.0373-.8099-2.7981.6992-3.9648 1.7785-1.3749 2.2169-1.6622 2.7051-2.3574.4547-.6474.2596-.7969.2676-2.2559.01-1.7697-.032-1.4939 1.4336-1.7539.511-.091 1.7156-.4765 2.6367-.9609 1.9106-1.0049 3.243-.969 4.3652-.3457.4881.1313.4417-.3741.6465-1.043.089-.2916.296-.7673.2793-.9121-.034-.2993-.6794-.2146-1.3906-.1152-2.8511.3983-5.0987.4867-6.2539.059-1.0018-.3723-1.0035-1.0472-.418-2.1641.5222-.9957.8909-.979.6777-3.0547-.2676-2.6062.094-3.1545 1.3125-4.0098 1.52-1.0669 4.2811-1.5675 7.4532-1.5546zm14.7402 2.2968h13.0645c-1.7529 2.8705-2.456 5.2514-3.6016 8.4532-4.0489-5.3811-6.6913-6.7338-9.4629-8.4532zm-10.9902 9.3164c-1.5842.045-3.5663.8061-6.0567 2.2305-1.6924.9681-3.074 1.5688-4.8711 1.2383-1.027-.1889-1.1588-.043-1.2929.289-.6046 1.4965 1.6383 3.1017 3.9043 2.0489.6585-.2752 5.7094-2.8899 5.9882-3.1133.3035-.2431 2.3968-.8584 2.9493-.8516 1.6712.021 2.7021 1.3319 2.498 2.8438-.1833 1.3578-1.5794 1.9347-2.4679 1.4802-.8988-.4598-.8118-1.161-1.2094-1.9833-.801 1.8.2616 3.1779 1.9408 3.3532 2.0303-.039 3.8701-2.4251 2.635-4.8678-.9377-1.8536-2.2222-2.7191-4.0176-2.668zm-10.2832 6.9844c-.19 0-.3877.017-.5938.057-1.6447.3127-2.7149.9507-4.4883 1.0977-1.463.3224-1.3544 1.4842-.4394 2.0899.7024.4647 1.5866.1843 4.1465-1.4395 2.5143-1.5949 4.6696 1.7282 2.6582 3.4297-1.2661 1.071-.3962 1.3524.4707.707 2.0879-1.5544 1.0956-5.9183-1.7539-5.9414zm2.0488 11.8281c-.1546.2626-.07.706-.1445 1.0528-.059.2729-.2769.6191-.2383.8047.034.1614.5659.3331.6465.4843.3277.615.1158 2.182-.072 3.3145-.09.5425-.8978.7098-1.2207 1.0371-1.0618 1.0766-.7952 1.4065.3359.9863.7901-.2935.4551-.8373 2.4102-.459 2.5327.4901 4.5409-.1964 6.5332-1.3007 2.2126-1.2265 3.0138-1.9064 3.1035-1.7598.1477.2414.031.3673-1.5469 1.6758-3.9543 3.2798-6.8952 4.0431-9.1132 2.8144-.6644-.4507-1.1961-.6347-.6934.3301.064.1054.603.5223.9785.6914 2.2786 1.0264 5.1359.1568 8.7715-2.7109.7982-.6296 1.5031-1.3349 2.4258-2.1055 3.0167-2.5196 2.222-3.6719-1.1856-2.4453-1.0743.3867-1.3759-.031-2.8281-.5938-1.9508-.7562-2.5912-.8276-4.8359-.8671-1.9541-.034-2.246.149-2.2442-.1797 0-.4176 1.3992-1.7281 2.793-2.5352 1.1732-.6794 1.4932-1.4591 1.5005-1.4551-2.0344.364-4.2422 1.742-5.3758 3.2207zm4.4434 2.043c.1553-.063 3.4105.2127 4.2929.9551.364.3671-.1591.6017-1.5683 1.2695-.7982.3783-1.5302.6897-1.6328.6875-.1253.2268-1.4552-2.7657-1.0918-2.9121zm-1.2422.3145c.18-.01.3466.1743.4199.3261.3273.678.5754 1.3873.7031 2.043.029.2014.1738.4927-.1445.4902-.2504.036-.6639.057-.8125-.1757-.3188-.4995-.6719-2.1975-.5528-2.5274.074-.1879.2546-.1498.3868-.1562zm12.1285 5.4998s-2.2973 1.3469-3.2737 1.818c-5.0163 2.4103-10.4831 3.4732-14.1869 2.0767-1.4587-.55-1.7239-.3573-1.1933.6387.3681.6911 1.0966 1.5018 2.207 1.8066 3.5332.9699 9.2252-.4425 13.6035-3.3086 1.7821-1.1665 2.8434-3.0314 2.8434-3.0314zm32.893 9.0607c.011 0 10.8786 20.3869 11.8378 21.3457l-80.6386-.3437 13.5859-19.1797c.12 1.0775 32.7726 5.5523 55.2149-1.8223z" fill="#004c97" stroke-width=".165327" transform="matrix(6.04148 -.0998464 .100055 6.05413 -21979.3 -12021.4)"/><path d="m-1336.7349 1087.2013 76.7523-117.48926c116.7313 20.19614 221.2222 6.77808 335.55949-15.58041l78.50183 127.54717zm609.79319-443.20516-1.64438-68.9722 24.1772 8.53732c-8.86975-31.94669 11.63507-65.82086 30.78718-67.46906-62.03874-45.21525-11.95635-95.49808-13.02719-96.53797-67.59484-33.48331-34.84417-87.14747-39.57064-91.83252-82.00812-19.82293-51.19396-85.17157-57.25734-78.37784-47.30092 15.07971-74.13942-24.32516-75.47712-56.70507-40.74967 23.99576-104.85526-7.98849-85.5525-45.4371 0 0 21.96128 9.9834 25.77601 7.83165 33.18063-24.97391 31.12977 10.11721 38.23698 17.61502 24.98944-4.0434 40.09271 14.88634 46.48815 24.09667 36.95001-.57372 35.2849-9.41023 36.1973 26.41959 27.95378 6.60912 27.09424 21.68089 43.56436 41.97962 35.09934-.19436 29.38275 11.32532 21.76113 30.8806 25.62983 19.72169 27.93965 35.45353 32.41265 53.69948 27.763 9.54836 32.7827 13.53702 15.15521 37.10018 24.95787 36.11253 13.58658 57.4533 17.32136 59.3849 30.72879 21.40924 15.68431 29.59202 2.56071 38.22451 5.0881 29.03877 8.84658 33.25692-1.37064 63.07569 35.31734 24.19618-4.94679 36.03858-7.01476 35.55775l.30687 24.54646zm-848.21929-165.88574-2.118-85.46133 299.0841 186.33396-36.4211 59.30982zm395.2024 119.29961c79.6539-154.18587 67.5979-137.86803 39.7484-306.92999l200.54619 1.06819c23.38227 50.86311 37.69537 94.20247 96.84809 178.0503-62.37225 17.22437-53.67673 23.24881-56.88251 122.65132zm170.8115-41.34991c-2.1143-4.20275-3.3-7.07701-2.9502-8.97493.7101-2.45015 2.5732-2.36956 4.986-1.0976 8.58987 3.99685 17.16778 7.4228 23.31699-.51214 3.07672-4.14806 2.15993-9.9739-.56574-13.30194-4.97029-9.70656-19.97155-2.37332-25.04975-1.93908-4.7203.18314-6.6057-3.75745-2.8184-9.47391 2.2731-2.50068 3.676-5.23808 4.0034-8.44373 2.2828-22.42897-35.739-13.83605-22.144 7.6519 6.1505 7.94391 2.7212 12.8345-6.2036 7.89637-9.8192-5.43301-23.2609.007-22.6185 11.76636.4866 8.90762 11.7736 14.23225 21.1063 8.69807 2.1547-1.27771 3.8265-2.65188 5.3578-3.34836 4.344-1.97581 7.5169-.45877 6.1436 4.49635-3.814 6.22532-8.2675 15.15597-4.3208 20.90965 3.9885 8.43019 17.2482 7.41905 21.7118 2.06062 3.0735-3.68965 3.8566-9.61906.045-16.38763zm455.03611-456.547674-299.67671-187.267652c17.94649-24.072554 28.49996-43.434794 38.39618-62.713534l260.11947 161.307389zm-464.64721-57.299195 32.93168 154.644099-206.94638 6.36783c-12.2329-51.90265-85.2774-168.632741-85.0537-166.57196l52.9512-136.558327 274.67973-4.866293zm-78.6324-56.482264c5.163-4.889755 4.6889-12.217867-1.2288-20.374054-5.7324-7.90079-3.3316-13.707463 5.7292-8.442758 5.0285 3.252616 12.9285 3.817472 18.2329 2.032626 6.7264-2.416855 9.4466-7.8678 8.3343-14.670483-1.3456-8.229199-10.5302-10.341587-20.2415-6.579088-2.8113.641588-4.4957 2.97648-6.9129 4.11506-5.2268 2.40603-7.4297-3.895441-2.7458-12.18323 5.1927-9.188074-.514-18.856786-10.351-19.554196-10.5144-.745434-16.5676 11.299484-12.1801 17.778332 6.299 9.301571 1.9569 15.922832-6.962 9.77995-12.8347-8.839951-29.2018 2.905191-22.1197 16.251303 3.436 6.475107 14.3598 8.006134 24.0522 3.708426 8.1031-3.593011 10.5948.34628 5.7873 8.788243-9.8795 17.34846 7.0632 32.1757677 20.6059 19.349869zm-302.8452-147.369407-.8236 82.710276c-31.2756-18.428481-26.68-18.740298-27.8169-18.436018 9.521 24.698793-.607 55.58403-26.6249 71.106318 48.0714 43.626897 23.013 75.265944 15.5891 96.479609 61.0533 34.115955 31.3743 95.287865 31.5665 92.143455 59.6313-.64884 59.2877 51.50518 61.3661 73.23058 73.6506-5.84784 64.7399 53.22218 74.5458 58.12925 35.4726-16.58652 77.307-11.79067 89.1707 36.06267 7.6177 27.13492-19.0987 1.30531-30.5286 2.64253-40.3296 26.0507-33.1298-12.80775-35.5129-18.16248-33.6972 3.76025-38.504-12.25814-53.4785-23.4278-36.3361 7.61738-33.5332-4.42263-31.7513-26.59996-28.6943-5.31995-35.2038-23.06631-46.8908-40.34318-39.4607 1.92504-23.8178-26.22684-23.758-31.71167-4.8646-4.21014-27.9056-26.14628-29.4432-51.66943-40.7203-10.78515-15.6095-31.65548-14.2622-38.6948-15.6463-18.851635-19.9086-32.877399-15.1745-57.027668-36.261-16.232929-6.4684-32.453099-4.0783-42.0592374-12.2501-31.1630806-3.8579-40.6898786.4924-57.7309236-23.6048-26.76365-9.7423-25.486801 6.9294-42.236145 2.096-3.005336-4.0485-16.540876-3.8527-24.569866zm202.8378-309.83606-66.8085-115.08457 463.48473-7.65992s-49.28489 70.7319-68.26213 106.22405c-115.88672-16.33433-223.9071-5.88747-328.4141 16.52044z" fill="#c8102e"/><path d="m-1496.4507 1014.3753c-64.4925-23.39626-24.2677-86.6796-6.0471-111.51136-13.5242-20.14506-19.7371-27.21932-33.5298-47.22902 11.5841-18.1527 25.2592-32.07906 33.9193-47.81206-36.3138-39.35601-60.8475-99.486 7.7652-114.8692 77.4554 18.0276 33.0483 86.85751 12.4709 113.54789 7.6526 14.81409 20.7415 28.89475 33.8684 47.47345-11.6396 14.91383-23.8671 28.93488-34.0427 46.04958 30.8641 36.15607 52.4255 83.45157 14.6692 109.41952-10.0754 5.3634-17.7685 7.0106-29.0734 4.9312zm332.4296-621.57268c-1.1471-1.81077-149.2421 246.95824-149.2421 246.95824l17.5537 10.85404 141.8006-230.04206c2.2247 1.62972 4.4057 3.5826 4.0059 6.35712 0 0-116.6652 197.35785-136.1198 228.9155-.5228.84806 30.0374 18.2753 31.0519 18.30942 44.2217-22.71027 230.5057-6.75923 353.86235-16.3648.49319.37068-1.17956 43.41093-1.17956 43.41093-42.18434-54.77074-61.4917-20.03711-112.97979-21.27079-13.4386 4.35709-28.0453 53.8405-30.8734 66.23256-24.6234-2.44805-47.9361 23.65612-41.8612 47.51238 8.4739 26.47475 22.2436 24.24213 37.1851 24.43226-.8886 30.14564-52.7621 110.41781-52.3384 149.54122 56.1679-5.37569 117.00677-7.40718 174.73173-25.8607 0 0 20.75461-63.02703 47.56785-104.78644 8.80722-15.94868 12.76663-39.7438 8.84017-54.63099-2.60006-16.33413 4.38848-20.58736 10.5003-32.15187 3.71812-7.22657 17.89992-7.16473 19.70143-7.71894 36.72458-11.2979 22.75178-58.79977 6.91216-67.02565-19.76327-10.26353-47.17953 6.59921-58.17685-14.69549-11.63747-22.53426-8.76692-69.58238-8.76692-69.58238l-278.58087 5.93509s76.2484-150.88775 74.2297-151.95294c-21.72-11.46093-57.5556-51.95203-57.824-52.37571zm-184.0948 139.23632c1.0515-15.14965-.5913-261.01857-234.8963-379.38639l.7015-32.33713c1.3989-1.68769 212.8708 91.24178 253.0061 341.0506l63.0844-102.57024 23.9791 8.95613c-34.3232 53.48165-102.2218 183.02624-105.8748 164.28703zm-142.5169-86.22524c9.1009-28.54198-6.3474-13.22586-20.6784-14.15068-9.8706-5.16151-19.5885-11.87831-28.7721-17.70654 67.286-37.09077 26.8914-34.6841-12.24-8.77308-10.3451-5.39256-23.5124-17.3549-24.3125-16.31105 75.7848-50.54466 47.0355-51.06107-1.3942-14.57705 1.1355-33.48585.1506-20.90913.6216-32.16704 41.0504-45.46619 2.529-20.49482-.3291-19.91228-11.0243-44.50363 38.3318-35.96474 43.4014-2.2648 8.7649 6.29575 25.92 13.9853 31.3929 41.60862 23.878 14.6556 21.604 27.15955 20.8063 45.20288 9.3921 8.97752 33.5636 27.85196 6.0361 46.10777zm-91.4786-202.39061 1.162-24.73899c3.0392-10.12778 184.2902 114.72131 174.0926 279.16652 2.0944-1.1875-20.0149-11.13958-26.4017-16.67596-1.9018-120.85529-131.9418-224.99541-148.8529-237.75157zm1029.76401 121.65646c-120.4374-52.8094-236.10579-182.2158-244.89017-352.867719l-65.64291 114.197129-24.13264-9.75176c2.26876 1.81516 51.85504-93.982211 103.4389-160.481649 18.41683 215.195009 104.55913 313.981009 233.75108 384.637269zm-627.28071-68.43262c-116.0567-12.46221-284.6089-172.2316-238.092-386.820674 63.4005 32.988352 98.5791 85.4580109 128.6597 114.338379 18.8766 21.348582 88.7235 131.921965 92.8279 176.302725 84.6129 22.60186 246.81888-6.98469 246.81888-6.98469 137.18737 28.26988 282.53889 173.37494 234.40658 383.80393 0 0-36.72378-23.25854-67.55155-50.52022-93.71935-87.64826-124.20335-160.43835-158.22297-240.72859-118.28244-8.74425-228.65624 14.27477-238.84654 10.60914zm624.15017-188.39129c2.19417 10.61368 1.25046 32.6907 1.64695 32.64-30.22768 34.03147-33.41119 34.69319 4.99601 23.28259-4.2507 32.22261-27.92357 37.89455-42.22347 27.18805-5.26967-3.94545-5.68454-26.09652-5.68454-26.09652-23.49993-5.47656-31.65041-12.38389-28.74823-37.61209-27.00843-2.77242-26.16281-15.91294-24.40135-43.341623-24.76899-13.40115-19.01949-35.478551-4.65506-45.103398l12.27813 8.162655c-3.83529 3.547419-1.57912 25.339274 19.66649 8.747814 0 0 17.43763 14.000749 25.79795 19.405519-61.57577 41.050193-23.99449 31.628183 13.90788 4.706298 7.27468 4.787612 17.22799 12.65038 22.39964 16.028898-49.90737 37.053527-65.9794 67.611647 5.0196 11.991807zm5.27073 136.02541-1.58049 28.88491c-124.12414-73.15565-159.02677-171.75989-169.90555-277.2164446 0 0 16.69402 11.8743998 24.32108 16.7909486 13.21691 136.056106 139.488 225.983266 147.16496 231.540586zm-679.1255-346.37067 294.71451-2.98697-75.68331 150.767811 42.0582 48.055905s99.73105-161.235517 149.8212-245.655436l-17.98227-10.35223-143.09946 233.338116-5.94302-6.376762 141.02534-233.115694c-8.77807-5.54851-25.36863-14.40162-25.36863-14.40162s-250.89036 8.17799-359.97466 9.53984c3.2891-15.11837 3.6101-41.81647 3.6101-41.81647 16.4644 22.83284 34.0447 43.1737 71.1732 19.85625 0 0 44.3845.76522 45.9801-1.37405 5.2775-8.8697 14.4428-36.63374 25.1404-67.99621 32.4828.37742 41.3089-22.40395 42.5888-35.60763 3.0273-31.23012-33.4458-39.56194-36.1311-35.19842 6.864-46.73729 61.4494-143.95777 51.5941-147.14002-12.8555-8.2282-138.4837 18.67804-175.0899 23.80233-3.4181-1.25118-20.3512 57.58479-38.8269 82.92478-20.0983 27.56541-26.9405 56.88413-15.994 84.24652-10.3749 30.45292-31.256 27.69433-47.8532 36.54251-18.6391 20.87828-12.8884 52.27688 5.4053 64.1572 12.7398 8.27349 32.0712 7.51184 51.5153-8.82079zm582.08966-221.10848-35.24486-45.74293 32.61948-49.26323c-13.53746-20.70267-35.82325-52.35764-32.34122-77.79916 7.68366-50.45904 75.67412-44.19924 82.37677 3.83888 3.58169 22.28718-12.24609 49.95528-28.39679 73.54527 11.24148 19.72222 15.99378 22.89129 32.24109 45.44218-9.15751 16.80203-31.57575 49.75793-31.57575 49.75793 14.71443 23.85419 35.07099 50.07487 34.03446 74.60485-1.16609 21.0685-23.74312 42.7726-45.21989 38.64421-66.77855-12.83655-30.78729-84.62496-8.49329-113.028z" fill="#ffcd00"/><path d="m1451.2246 468.79492c3.0248 5.6706 11.6152 20.96875 11.6152 20.96875 20.43-4.2283 37.6095-5.30448 55.6641-1.35742l12.8984-19.51953zm2.6621 1.15039h3.6934l7.2461 14.87891 12.5-2.49219-2.1309-12.35547 3.5371.0215 1.791 11.88086 18.3653-.46485 2.3789-11.46875 3.3867.041-2.4297 11.65429 14.543 1.95508 7.1152-13.65039h4.8887l-10.8203 16.85547c-19.2476-3.74347-38.3678-2.48562-54.3711 1.44531zm6.9668 0h10.7832l2.586 10.04297c-1.324.68994-6.2675 1.86937-7.9219 1.70313-1.976-3.45353-4.0182-8.44723-5.4473-11.7461zm20.7969 0h16.4101l-1.4023 8.55274-13.7617.4375zm26.0137 0h12.6464l-4.9921 10.38477-9.5372-1.29492zm48.1445 10.39453c-4.7985-.15837-7.1881 4.34455-7.0742 7.5.739 4.67105 1.7898 5.56359 5.207 11.30274l-5.5019 8.07031 5.8554 7.63477s-.9136 1.06728-1.4551 1.83203c-2.685 3.79006-3.9257 7.33197-3.7539 10.23828.1856 3.13908 2.0206 5.53477 5.4571 6.68359 5.2049 1.1584 8.4956-2.55669 8.6054-6.82226.044-2.87629-1.3486-6.36078-4.123-10.16211-.7532-1.03197-1.1211-1.8418-1.1211-1.8418s3.8827-5.51741 5.3477-8.04101l-5.3067-7.60743c4.2194-6.32689 5.0699-7.73058 5.1875-11.61914-.1911-3.85333-2.9935-7.14453-7.3242-7.16797zm.021.48047c4.8183.37049 7.362 3.94419 6.7226 8.53125-.6542 4.37436-4.6045 8.45019-5.2382 9.85742 1.9002 3.08185 5.4824 7.4629 5.4824 7.4629-1.5201 2.75767-5.4473 8.10351-5.4473 8.10351s.2271.4422.4766.79492c4.099 5.79626 5.2273 8.53568 4.9453 12.00977-.2227 2.74051-2.3916 5.18504-5.0957 5.68164-4.2832.7866-7.7971-2.24764-8.2285-6.34375-.2637-3.58552 2.053-7.06967 3.8535-9.78906.7628-1.13933 1.4177-2.23047 1.418-2.23047l-5.834-7.64258c1.7782-2.81316 4.0249-5.57451 5.6738-7.94922 0 0-.8694-1.3963-1.6758-2.66797-3.1993-5.04336-4.0917-7.62907-3.5996-10.41601 1.0388-3.85957 3.6333-5.57747 6.5469-5.40235zm-.1133 2.57031c-1.7804.0472-3.4809 1.35796-4.1582 3.25196-.9783 3.55208 2.7675 8.92915 4.4726 10.37304 3.195-3.66597 5.231-7.77913 4.0508-10.6582-.7766-1.74099-2.5851-3.01392-4.3652-2.9668zm.4394 1.1504c3.2266.0665 4.4327 3.88825 1.9434 8.23632-.8596 1.48401-2.125 3.03516-2.125 3.03516s-1.182-1.46972-1.8926-2.58008c-2.8838-4.50465-2.1395-8.02211 1.4024-8.65039.2326-.0299.4575-.0454.6718-.041zm-63.3964 1.98632c-8.6506-.1295-21.491 1.86835-30.4629 3.69532-.8611 5.30942-3.5309 10.6359-6.4434 14.86523-2.8053 4.57263-3.8187 8.55351-2.8808 11.28125.8782 2.55386-1.5205 6.36581-4.1543 6.60547-3.2733.29784-5.3566 2.57353-5.3164 5.8125-.093 5.18947 3.4967 8.37019 8.3691 6.60547.4896-.0612.8164.25781.8164.25781l-.2852 29.70313c-2.7419.42967-4.5728 1.02431-6.9043 2.25976-4.3347-4.92725-7.9475-8.41555-11.2695-10.86328-.096-6.61077.1761-13.25999-.1191-19.85547-4.9 1.88704-10.1201 4.98248-14.4141 7.83399-1.442.96353-1.5845 1.50091-1.043 3.93945.3041 1.36825.2286 1.51521-.9003 1.79101-2.3249.56784-3.052 4.26203-1.086 5.51563.9222.58794.9251.61985.3301 1.95703-.9201 2.06829-.8841 6.02342.068 7.67383.5437.94219.5062 1.24785-.2129 1.71484-2.4764 1.60832-2.3082 5.04845.2793 5.69141.6616.16448.8342.44749.6152 1.01172-.8089 2.08394-.07 5.25017 1.7851 7.64844.9647 1.24659.9624 1.23306.3262 1.80664-2.084 1.87899-.9565 5.24593 1.8809 5.61523.9736.12671.9789.12967 1.0918.87305.3254 2.13669.4739 2.73267.9472 3.73632.5968 1.26528 1.314 2.12021 2.6582 3.16407 1.0964.85133 1.0971.86339.5118 2.12109-1.082 2.32529.6389 4.62996 3.3828 4.53516 1.3985-.0483 1.3995-.0507 1.5.44531.4932 2.42743 3.3832 5.27422 5.7558 5.66602 1.2198.20142 1.4119.49172.9981 1.52343-.6664 1.66069-.235 2.73065 1.4472 3.5918 1.1284.57769 1.4588.59909 2.6954.17578 1.3981-.47901 1.4131-.47334 2.6015 1.11328 1.6751 2.23647 2.7853 2.79861 5.5801 2.81836 1.843.0132 1.912.0607 1.9238 1.35742.028 3.07008 3.2822 4.3511 5.3789 2.11719.7561-.80545.7545-.80282 1.4278-.31055 2.9493 2.15645 5.5657 2.71441 5.3222.69727-.5698-4.72182-3.9941-7.60352-3.9941-7.60352l4.2773 1.11524c.1878 4.98534.3674 10.99601 1.4082 15.15234l-19.0644 30.30078-10.2754-6.80468 17.2051-28.02735-4.8399-1.86718c-3.7033 5.81855-6.4312 10.50096-9.8789 15.86523-3.4337-25.13941-21.0153-47.20959-42.2851-56.50391l.072 6.58008c22.3297 11.39871 38.2679 34.92436 37.8438 62.67188-.087.10434-1.8697-.96105-4.2774-2.56055-1.2697-.84356-3.8248-2.51127-4.1425-2.67383 1.033-30.72841-29.5065-48.89773-29.5586-48.03906 0 0-.1921 3.97002-.2793 5.81055 13.0128 8.7006 23.2363 24.52943 24.2715 38.61523.011.11523-6.1075-3.80859-6.1075-3.80859 3.642-1.80923 2.6392-6.49761.016-7.76758-.8209-.36767-.8699-.54419-.461-1.65039.8391-2.27029-.6994-5.68836-2.8183-6.26172-.9289-.25143-1.082-.49339-1.127-1.79492-.083-2.38022-1.4028-3.93642-3.7812-4.45899-.6566-.14424-.6616-.1505-.6973-.9707-.2004-4.61085-4.7192-6.48978-8.1094-3.37109-.3788.34862-.7754 1.01171-.7754 1.01171l-.027 5.00196c1.1575-.63566 2.9153-2.80944 3.6367-2.72071.7969.0929.4106.62888-1.3809 2.17383-1.1622 1.00234-2.291 2.0586-2.291 2.0586l.072 6.58593c1.9306-1.25092 3.8644-2.66462 5.6738-3.92187 1.5595-1.08538 2.3569-1.43838 2.5489-1.125.2152.35224-.1315.81244-1.0176 1.3418-2.3771 1.58021-5.1433 3.43476-7.1426 4.99609l-.01 4.53516.3828.5625.1133 3.9746-.3554.0879v5.00586l47.0625 30.13085 23.8027-37.81445.3926.39649-23.9356 37.59179c2.2703 1.50642 4.6212 3.04487 7.0215 4.26367 1.4537-.84458 2.1419-1.31265 5.0449-1.95312 2.9031-.64047 51.7559.0644 51.7559.0644l.2168 6.04492c-1.725-5.94042-7.2889-7.16614-11.6621-4.50586l-7.1836.01c-.055 0-4.2515 7.62876-4.8672 11.61133-3.0191-.40957-7.0366 2.52762-7.2402 5.50781-.4891 4.24033 2.3012 7.33242 5.9511 6.73047-1.8194 7.45705-6.2241 14.83079-8.4609 21.35156-1.1319 3.0862-.7449 3.63423-.5527 3.71094 10.7169-.15463 20.5758-1.19086 30.7461-4.46484-1.5247-2.48788 2.5324-8.61601 4.6504-13.08399 3.0211-5.36527 3.8866-7.41284 4.1894-9.94531.2158-2.36733-.084-2.92287-.4766-4.78906.3168-1.61034 2.7735-4.43973 2.8301-4.3711 3.3774.48944 6.0341-1.85281 6.4141-4.93359.5839-5.72417-4.2428-8.61924-8.6231-7.42188l-.041-29.14453 3.3672.125 3.7012-1.82422c5.9476 5.06856 9.828 10.25019 16.2305 14.15235l-.1036.25781-4.7578-3.25586.01 19.0957c5.5077-2.86109 10.6427-5.49981 15.5937-9.50195l-.998-.86133.041-2.73047c4.6526.36622 5.1002-5.54444 1.2774-6.25 0 0 .088-.47627.455-1.22851 1.1731-2.40189 1.3186-4.66621.4649-7.16406-.5213-1.52451-.4984-1.90732.1191-1.9043 2.8259.0154 2.5676-4.98857-.3144-6.08398-.9921-.37726-.9216-.0647-.7188-3.16993.1523-2.33227-.4176-3.9141-2.1465-5.96093-.6527-.77235-.598-1.14431.2422-1.65625 2.4124-1.46984.665-5.7135-2.3008-5.58985-1.1584.0484-1.1575.0473-1.2578-1.10937-.2635-3.04029-1.9644-5.9387-4.1933-7.15235-.6906-.37597-.793-.68432-.4043-1.20312 1.8983-2.53355.1236-5.99821-2.5547-4.98633-.5189.19609-1.0667.39362-1.2149.43945-.2116.0655-.3821-.23074-.791-1.3789-1.1139-3.12635-2.1032-4.10586-5.6484-5.59375-.6972-.29262-.7382-.49932-.4238-1.92578.5432-2.46233-2.8558-4.75462-4.6915-3.16407-.7474.64784-.7722.64219-1.6132-.43359-1.6767-1.925-4.4047-3.26612-6.8321-3.51953-1.1609-.1043-1.3351-.19325-1.2402-.63867.6441-3.01694-2.2984-4.98368-4.7441-3.16993-1.1745.87108-1.4776.89801-2.6836.22266-2.5347-1.41948-3.646-1.47317-3.9102-.19141-.082 1.06761.155 2.33103.4141 3.11719.6169 2.11949 1.4166 2.9052 3.166 4.39649 0 0-2.9038-.80296-3.6367-.94922.072-.0758-.211-10.0565-2.1153-15.70899l18.5625-29.48047 10.6328 6.99805-17.0058 26.8418 4.9492 2.00781s6.6104-10.95596 10.0703-16.32812c2.2655 26.68158 22.9362 50.07817 41.6602 57.01953-.063.0316.059-3.83717.1386-5.70899-19.7547-8.67991-38.5448-32.93575-37.3613-62.04687l7.9336 5.06836c2.303 23.33228 12.4885 37.00592 29.4649 48.5664v-7.14843c-11.6911-8.6344-21.4065-19.91184-23.9825-37.95899 0 0 3.9635 2.49761 5.7403 3.6836 0 0-.5008.28687-.7598.50195-2.1211 1.76179-1.4826 5.37603 1.3145 7.42187.4541.33238.4568.33291.029 1.47071-.8483 2.25798.4607 4.98716 2.6699 5.55859 1.2674.3278 1.2603.31208 1.2832 1.75977.045 2.81113 1.1783 4.10669 4.1875 4.77929.4113.0917.4267.13331.4199 1.39258-.017 3.10721 2.9744 5.1971 5.5801 3.89648.8157-.40728 3.3828-2.54882 3.3828-2.54882v-5.00196s-1.1625.94797-2.002 1.72852c-1.4698 1.36675-1.9339 1.53752-1.9296.70312 0-.60527.68-1.40009 2.0898-2.44726.7313-.54308 1.8418-1.70313 1.8418-1.70313v-5.82617s-.6557-1.03784-.6152-2.28125c.022-.6763.2109-1.70312.2109-1.70312l.7031.0156-.01-6.74609-.8536-.66602.037-4.46875-46.4394-29.98633-24.1875 38.38868-.6055-.70704 24.2149-38.14648-6.7774-4.25c-.1453.0357-2.6665 1.50304-5.3945 2.04297s-25.0508-.40953-51.2656-.0742c-.012-1.89925.011-3.01484 0-5.1875 0 0 .4265.23743.5781.58399 2.1054 4.46405 7.4289 4.52503 10.6328 2.5664.7131-.38402.8431-.39702 4.2051-.37305 3.6044.0257 4.0801.0176 4.0801.0176 1.7642-4.63067 3.0182-8.50401 4.164-11.50586 8.9721.74376 9.503-11.44477 2.1211-12.25195-1.2773-.007-.4029-3.39893 2.2969-8.90234 2.793-5.69405 3.1828-6.56799 4.6269-10.38477.944-2.4948 1.3964-4.28387 1.5118-5.37305zm-2.2188 1.53125c.3789-.0126.7641.0431 1.1524.11524.6678.55931-1.0007 4.67308-4.0079 10.89648-2.4822 5.13755-3.6156 7.70002-4.121 9.56836-.2261.83545-.2553 1.69368-.6192 2.47266-1.4564.74351-2.5879 1.75152-3.1504 2.66992 0 0 .1632-1.3694.2715-2.08203.3699-2.43321 1.3381-5.0595 3.5703-9.62695 1.769-3.6349 3.4993-7.53066 4.8457-11.50391.3025-.92786.4422-1.86923.9453-2.21289.3616-.20245.7344-.28429 1.1133-.29688zm-3.6445.15821c.4446-.031.871.006 1.1777.19531.4603.31786-1.7238 5.94956-5.5039 13.76953-4.7166 9.7573-4.9673 16.59332-.7246 18.26563 3.3449 1.31843 6.7144-2.3601 4.6504-5.04297-.9925-1.28987-3.1312-1.39926-3.8731-.0625-.4047.72931.156 1.56985.8731.54687 1.0432-1.48865 3.132.23001 2.6269 1.99219-.3461 1.20858-2.0409 2.18196-3.0918 1.97266-4.6331-.92306-3.761-7.44589 1.045-7.80469 7.4076.64059 6.0443 10.87244-1.1074 11.05664-2.9937-.004-5.7911-2.47266-5.5079-4.75977.3958-2.09361.4556-3.78431-.2539-5.43359-.228-.52977-.5054-1.05728-.4902-1.72461.042-1.85433 1.5713-4.73226 4.9844-11.84375 1.2229-2.54817 2.7234-6.96686 3.4648-9.75586.2617-.81567.1342-1.04337.4414-1.15625.3817-.0838.8445-.18383 1.2891-.21484zm-3.8125.27343c.3447-.0188.691.004 1.043.0195.7002.0302-.9124 5.1618-2.9434 9.5332-1.5423 3.34707-3.6466 7.64703-5.2129 11.62305-.5013.84307-.8351.90866-1.8613.36132-1.1307-.60304-.7953-1.56277 1.873-6.85937 2.012-4.02255 3.945-8.57383 5.3008-13.15625.1225-.5503.3085-1.02715.7656-1.29102.3482-.15182.6904-.21167 1.0352-.23047zm-3.8281.42969c.3874-.0292.7735.0168 1.1171.16797.3736.49274-2.0729 7.40904-5.8554 15.20899-.808 1.65597-1.3535 3.17133-2.166 4.86328-.3905.39198-1.8953.59004-2.6485.74218-.7766-.10329-.041-1.5579 2.1719-6.02343 1.8036-3.6402 2.3163-4.67007 3.2637-6.88477.6903-1.62152 1.6945-4.40642 2.6367-7.00781.076-.20993.1485-.67743.3516-.78516.351-.1479.7414-.25203 1.1289-.28125zm-3.6856.36524c.5999-.0485 1.1405-.00064 1.1094.23632-1.1594 4.8836-3.5057 9.87254-5.4981 13.8418-1.2127 2.40416-2.3255 4.70107-2.4726 5.10547s-.55 1.47646-.8945 2.38281c-2.1769 4.6598.164 8.33305 3.0468 8.58985 4.4963.37133 4.9226-5.91845 1.75-6.52344-1.1965-.20066-2.512.45321-2.5195 1.82617-.084.71819.7998 1.55242.7871.52148-.047-1.87441 2.5772-1.78925 2.9004-.19726.6299 3.1026-2.903 4.61935-5.0078 2.18359-.867-1.0033-.8585-2.14736-.6973-3.17383.4368-2.77635 3.6437-4.78513 6.6153-2.68945 4.0657 2.86744 2.6618 9.2085-2.5918 10.24024-1.7959.46677-4.0596-.12985-5.4766-1.58399-.9024-.92597-1.4957-2.29076-1.7227-3.98437-.1265-.94269-.1764-2.05264-.031-3.0918.4256-3.25535 2.8053-8.009 4.8926-12.03516 1.611-3.34062 2.8763-7.75287 4.3437-11.30273.207-.15125.8669-.29718 1.4668-.3457zm-3.373.60351c.172.001.3431.0243.5156.0762.2391.0737-.9882 3.9305-2.7402 8.09766-1.9281 4.22699-4.4308 9.06311-5.8497 13.22266-.4466 1.0206-.7722.99167-2.0429-.18946-.6707-.62342-.293-1.55333 2.0586-6.34375 3.6176-7.36934 4.9593-10.51275 5.5019-12.26757.255-.82484.4606-1.83747 1.0039-2.15821.5213-.2459 1.0368-.44193 1.5528-.4375zm-4.0684.77735c.3893-.0189.7571.0302.9688.22265-.3828 1.24071-1.6371 4.91859-3.7813 9.27539-1.3453 2.75006-2.6579 5.79671-3.9863 8.63477-.7414 1.7513-.7629 1.7484-2.0274 2.01172-2.1313.44388-2.1314.42048-.248-3.39063 2.4305-4.81771 5.0737-9.5726 6.7383-14.77539.2099-.6739.5029-1.30725.8437-1.65234.1369-.0727.8434-.29474 1.4922-.32617zm-3.6914.6875c.381-.0138.7239.0549.8848.26367.095.8655-2.2478 6.40006-3.6875 8.96484-.4397.78639-.8764 1.80573-1.3711 2.71485-1.8345 2.91249-4.0389 8.50904-4.6075 10.83203-.9024 3.69061 3.3234 6.4822 5.5157 3.79882 1.3913-1.62422-.056-4.54644-2.0606-3.73046-.7002.28499-.4152.59571.541.67578 1.5787.13219 1.6983 2.56214.025 3.0957-1.8592.56807-3.2296-1.04163-3.2226-2.68945.014-3.37918 3.7185-4.6215 6.0371-2.77539 2.3131 1.92217 2.6832 6.4909-.8203 8.26171-3.4155 1.72632-7.6219-.61193-8.4668-4.70507-.6448-3.12383.053-5.98705 3.0664-10.80274 1.7314-2.77203 4.4203-7.55838 5.7969-11.75781.2698-.71177.5085-1.30093.7558-1.59961.2297-.26519.9783-.52393 1.6133-.54687zm91.5684 9.83203-4.5879 5.82226c1.3233 1.90805 4.4687 5.66016 4.4687 5.66016l4.3496-5.60352zm.041 3.25586 1.8984 2.45703-2.1719 2.56054-2.0371-2.39062zm-.1934 1.2832-.789 1.21875.789 1.21875.791-1.21875zm.3653 11.37305s-5.5474 6.06455-4.2735 10.56445c1.1385 4.00897 7.8318 4.71525 8.6524-.88281.4283-2.92222-2.2213-6.82049-4.3789-9.68164zm0 1.19726s1.5921 2.30441 2.7148 4.3457c1.2565 1.94179 1.662 7.22136-2.8027 7.27344-2.431.0284-4.8007-3.00597-2.877-6.89648.5235-1.18484 2.9649-4.72266 2.9649-4.72266zm-91.4434.94922c.2404.035.543.70249.7129 1.125.2643.65655-.4921 2.54716-1.2891 3.48828-.1516.1583-1.1698.24651-2.6836 1.01758 0-.70808.4302-2.26013.7149-2.94727.8543-.8417 1.5166-1.96152 2.4453-2.6582.031-.0234.065-.0304.1-.0254zm-11.1524.36719c.6813.77002 1.3515 1.43745 1.3243 1.91406-.04.69736-.8624 1.55872-1.4844 2.17188-.7806.76949-2.3372.31269-2.332-.68555 0-.36895 2.2247-3.40185 2.4921-3.40039zm23.4766 1c.2467.55825.9341 1.6377 1.4414 1.9707-.9655 5.18653-4.5678 11.64996-4.4472 11.41211 0 0-2.19.38993-3.1192-.082 2.4062-3.33267 4.0182-7.5731 5.1113-11.04492.469-1.4974.6826-2.25154 1.0137-2.25586zm-2.0273.72851c.3681-.0212.5098.27496.2011 1.07813-1.4137 5.73534-4.5936 11.76386-7.0918 12.86133-3.281 1.44138-6.5421.24508-7.9433-2.21875-1.5166-2.66689-1.247-6.87723 3.8066-7.79883 2.9726-.3042 6.018 2.03565 4.4317 5.79687-1.7657 2.79003-6.5102 1.23352-5.1192-2.36523 1.0512-1.31873 3.2519-.17456 2.5332 1.31641-.3647.75634-.012 1.22172.5274.69726 1.7306-1.68134-1.1153-4.56695-3.0352-3.12305-3.1313 2.35503.7358 7.53166 4.3809 5.31055 1.1109-.67688 3.1189-4.47347 3.873-7.24023.3246-1.19088.6179-2.3218 1.3867-3.04492.7315-.68801 1.5756-1.24229 2.0489-1.26954zm-8.2676.23438c.2372.0225.4679.16927.6426.23047.3653.17959.7957.5058.7461.92773-.058.48841-.3371 1.54947-.9004 2.06446-.3394-.11607-1.2759-.48876-1.9141-.66016-.4007-.10763.1321-.96894.377-1.44531.3417-.66409.551-.99505.8105-1.0918.078-.0279.1592-.0329.2383-.0254zm-10.4551.19922c.6246-.057 1.2729.35426 1.8047.57226.095.71202-.813 2.23547-2.291 4.03516-1.2124 1.47623-1.2062 1.4808-2.0117-.14258-.5248-1.05711-.5385-1.02968.957-2.88672.8038-.99821 1.1715-1.54442 1.541-1.57812zm4.7832.50976c.022.38062-.1721 1.22078-.3359 1.70899-1.6762 4.99676-5.5916 9.94768-8.8223 11.16406-4.2168 1.37531-8.0795-.84182-8.1777-5.95117.1069-6.02035 7.2892-7.68963 9.459-2.19922.9796 2.479-1.6901 6.20558-3.9981 5.58398-2.3289-.62723-3.3012-4.25372-1.3808-5.15039 1.2583-.58758 2.5614.39705 2.2871 1.72852-.095.46181-.07.5271.2011.47656 1.1967-.22327.5657-2.62242-.8476-3.2207-2.6704-1.13056-4.6888 2.45838-2.8867 5.13476 2.1571 3.20423 5.5497 2.58924 7.5039-1.36328.3326-.67279.9667-1.63716 1.4023-2.14062 1.1835-1.36685 1.5612-1.9044 2.6074-3.71094.5765-.99514.8838-1.62467 1.1778-1.95117.4685-.0317.7898.0969 1.8105-.10938zm9.459.26368c.506.004.8961.33312.8848 1.0332-.01.58559-.8484 3.05224-1.2403 3.64258-.1505.22661-.5026 1.02107-.5547.84765-.4929-1.6421-1.3746-2.1512-1.5-2.58203-.1469-.50527.2998-.99034.4981-1.44531.4216-.96708 1.2615-1.50121 1.9121-1.49609zm8.7207.55078c.6972.20846 1.439.61355 2.1328.95703.206 0-3.29 10.07793-3.6387 10.10547l-2.8183-.125c1.9216-3.21662 4.3618-10.86992 4.3242-10.9375zm38.0137 14.63281 3.584 2.12695-23.625 37.46485-3.4356-2.62305zm-58.9453.77539c22.0667.082 52.4589.041 52.4589.041l-1.2832 2.42968s-33.1939-.32317-51.1757-.28906zm-29.7891 1.53125-.047 12.31445c-2.2833-1.99421-9.194-6.37869-9.2285-6.27539 0 0 5.9554-3.97119 9.2754-6.03906zm94.4844 1.22461 2.2187 1.39844-24.8242 39.42968-1.3809-2.70312zm-64.6895.54687h3.4551v3.89649h-3.4551zm7.9141 0h4.1933v3.89649h-4.1933zm9.164.041h4.3125v3.89648h-4.3125zm8.9942.0156h4.3594v3.89649h-4.3594zm9.0605.0254h4.3028v3.89649h-4.3028zm9.0664.082h4.4004v2.74609l-.666 1.15039h-3.7344zm-42.4414.99609a.76397556.76397556 87.111732 0 0 -.7636.76563.76397556.76397556 87.111732 0 0 .7636.76367.76397556.76397556 87.111732 0 0 .7657-.76367.76397556.76397556 87.111732 0 0 -.7657-.76563zm8.2832 0a.76397556.76397556 87.111732 0 0 -.7636.76563.76397556.76397556 87.111732 0 0 .7636.76367.76397556.76397556 87.111732 0 0 .7637-.76367.76397556.76397556 87.111732 0 0 -.7637-.76563zm9.17 0a.76397556.76397556 87.111732 0 0 -.7637.76563.76397556.76397556 87.111732 0 0 .7637.76367.76397556.76397556 87.111732 0 0 .7636-.76367.76397556.76397556 87.111732 0 0 -.7636-.76563zm9.1328 0a.76397556.76397556 87.111732 0 0 -.7637.76563.76397556.76397556 87.111732 0 0 .7637.76367.76397556.76397556 87.111732 0 0 .7636-.76367.76397556.76397556 87.111732 0 0 -.7636-.76563zm8.9726 0a.76397556.76397556 87.111732 0 0 -.7636.76563.76397556.76397556 87.111732 0 0 .7636.76367.76397556.76397556 87.111732 0 0 .7657-.76367.76397556.76397556 87.111732 0 0 -.7657-.76563zm9.1211 0a.76397556.76397556 87.111732 0 0 -.7637.76563.76397556.76397556 87.111732 0 0 .7637.76367.76397556.76397556 87.111732 0 0 .7637-.76367.76397556.76397556 87.111732 0 0 -.7637-.76563zm21.4844.27344 42.1055 27.18359-.027 3.75195-43.8301-28.26562zm-2.7617 3.17969.3633.25781-1.7852 2.72656-.3672-.20703zm-65.041.40234h47.2597l-1.4218 2.39062-45.8379-.0684zm-38.7989 1.21875c.3184-.0203.9374.26033 1.9024.80078 2.324 1.30127 3.7872 4.04594 2.7832 5.03711-.8932.88167-2.9859-1.00867-4.2832-3.70703-.6879-1.43039-.8673-2.10113-.4024-2.13086zm83.6231 2.35351-15.2461 24.31836c-3.4468-4.71381-7.3102-8.78577-15.7481-6.02734-4.3987-3.39419-9.0496-3.91773-14-1.03711l.057-17.17187zm-78.4883.01 1.1894 1.02734c-.3502.66973-.5112 1.63968-.7382 2.50391-.018-1.18504-.1226-2.36558-.4512-3.53125zm96.6582.25391 46.9746 30.84179v2.85938l-48.6152-31.25586zm-102.8613.72851c.5749.0242 1.1283.31238 1.6211.75781.8231.74399.4189 2.41288-.5782 3.08008-1.9854 1.3286-4.4267-1.29618-2.7929-3.01367.5797-.60943 1.1751-.84844 1.75-.82422zm7.75.33985 2.5644 2.04882c-4.4527 25.3404 8.2686 50.92219 35.666 58.58789l.3106 3.2461c.052.15473-11.6393-3.46528-16.7461-7.27735-6.9818-4.71313-12.8816-11.35033-16.9492-19.07031-2.7749-4.97787-4.2963-10.45855-5.2793-14.88867-1.1627-7.60041-1.1306-15.12377.4336-22.64648zm-2.9121 3.4375c.9832.0402 1.0906.74698.3007 2.10546-1.0156 1.74688-2.5396 2.96299-5.0078 4-1.3595.57122-1.7142.31051-1.5566-1.13671.2367-2.17609 1.754-3.76938 4.3809-4.60938.6297-.17463 1.2684-.36308 1.8828-.35937zm7.5507.27343c.4015.33917.528.44526 1.0196.86133-.8417.28783-1.4492 1.0801-1.4492 2.01758 0 1.18006.96 2.13672 2.1425 2.13672 1.0599 0 1.9323-.7664 2.1036-1.77539.3827.3279.7446.63398 1.0253.87695-.494 1.24308-1.7082 2.12109-3.1289 2.12109-1.8581 0-3.3672-1.50509-3.3672-3.35937 0-1.22923.6661-2.29471 1.6543-2.87891zm1.7129 1.68164c.1168 0 .2293.0197.336.0508.2686.228.4843.41371.7441.63476.075.15597.1192.32744.1192.51172 0 .66109-.5368 1.19735-1.1993 1.19726-.6624 0-1.2011-.53617-1.2011-1.19726 0-.6611.5387-1.19727 1.2011-1.19727zm-8.084.77344c-.2779 3.26796-.1912 6.68496-.088 10.10547-.6322-2.71062-2.0424-4.73772-4.3907-6.125 1.6216-1.1181 3.3185-2.47925 4.4785-3.98047zm12.3458 2.56641 2.2792 1.96484c-1.9604 26.82456 21.5962 37.00489 22.2286 36.55664l.9941 3.03516c-16.2666-5.5246-27.511-22.30296-25.5019-41.55664zm93.6718 1.08984c.2041.0296.3359.4088.3496 1.36914 0 8.69349 2.6993 44.45909 37.1934 61.84961l-.1191 3.37891c-18.459-7.14772-39.4962-33.51849-39.2286-58.78516-4.7392 7.25073-7.4022 12.08974-11.4707 18.6211l-3.2382-1.53907c5.3266-7.91787 10.3891-16.38553 15.7304-24.16406.3039-.43923.5791-.76005.7832-.73047zm-112.5449 1.00586c.5935-.0379 1.443.24875 2.5137.96484 1.6885 1.12932 3.5825 4.61976 2.9277 5.39844-.5889.7004-3.0917-.13311-4.334-1.44531-2.4617-2.60041-2.6243-4.82123-1.1074-4.91797zm14.3926.34961c1.8579 0 3.3672 1.50119 3.3672 3.35547s-1.5093 3.35937-3.3672 3.35937c-1.8582 0-3.3645-1.50509-3.3653-3.35937.0001-1.85428 1.5071-3.35547 3.3653-3.35547zm7.5371.32031 2.1973 2.57032c.4296 22.51347 18.2367 29.45637 18.0703 29.51171l.5371 2.41993c-.9927.13879-22.0301-9.41926-20.8047-34.50196zm-7.5371.89844c-1.1825 0-2.1406.95666-2.1406 2.13672 0 1.18005.9581 2.13672 2.1406 2.13672 1.1822 0 2.1426-.95667 2.1426-2.13672 0-1.18006-.9604-2.13672-2.1426-2.13672zm0 .93945c.6622 0 1.2012.53618 1.2012 1.19727s-.539 1.19726-1.2012 1.19726c-.6625 0-1.1992-.53617-1.1992-1.19726s.5367-1.19727 1.1992-1.19727zm11.3789 2.03907c.2705.001 1.541 1.84179 1.541 1.84179s-1.3947.48779-1.9961-.11914c-.5975-.60274-.2754-1.72661.4551-1.72265zm97.5058.83007 3.2989 2.25c1.5405 15.18869 10.2597 29.04411 23.4082 38.65625l-.082 3.76172c-16.0141-10.79879-24.9067-25.46975-26.625-44.66797zm-123.4687.25782c2.0189.003 2.8748 3.12873.7148 4.01562-1.3579.55771-2.836-.24699-2.9804-1.625-.1014-.97023.6283-1.98716 1.6035-2.29687.2352-.0747.446-.0941.6621-.0937zm27.375 2.02929c.5291.002 1.1049.30405 1.6504.91797 1.4472 1.62885 1.433 2.10257-.094 2.72071-2.1471.8693-3.9322-.34026-3.2168-2.17969.3755-.96612.9799-1.46008 1.6602-1.45899zm-21.9863.0762c.1744-.004.3369.02.4863.0781 1.5832.61593-1.8487 6.88961-4.1172 7.52539-1.4412.40405-1.7423-.1581-1.2715-2.35937.5237-2.44684 3.2166-5.20939 4.9024-5.24414zm10.0957.14453c1.8582 0 3.3672 1.5011 3.3672 3.35547 0 1.85428-1.509 3.35937-3.3672 3.35937-1.8579 0-3.3672-1.50509-3.3672-3.35937 0-1.85437 1.5093-3.35547 3.3672-3.35547zm0 1.21875c-1.1823 0-2.1406.95658-2.1407 2.13672.0008 1.18005.9584 2.13671 2.1407 2.13671 1.1825 0 2.1406-.95666 2.1406-2.13671 0-1.18014-.9581-2.13672-2.1406-2.13672zm-8.4141.17968c.299 3.10668.8048 5.98155 2.1875 9.80664-1.2967-2.06891-3.1453-3.09591-4.918-4.26757 1.2427-1.84595 2.6805-3.69312 2.7305-5.53907zm8.4141.75977c.6625 0 1.2011.53609 1.2011 1.19727 0 .66109-.5386 1.19726-1.2011 1.19726-.6622 0-1.1992-.53617-1.1992-1.19726 0-.66118.537-1.19727 1.1992-1.19727zm19.0527.36523c3.5107-.0753 5.9942 2.81005 5.8399 5.57422.1027 3.21015.2182 5.26622-.047 9.25391l-2.8496-5.20703c-.04-1.4759.2108-2.59392.098-4.0625-.3232-3.9492-4.2006-3.39981-4.3847-3.00782l-1.2266-1.98828c.9001-.37022 1.7602-.54512 2.5703-.5625zm12.3672.39844c3.2895-.004 5.1944 1.84485 5.2949 5.13477.1925 6.29894-.1445 20.67968-.1445 20.67968l-7.1152.006-3.8848-9.60937s-.1551-.92523-.125-1.5957c.2472-3.08189.093-6.51193.1973-9.29493.4099-2.95055 2.84-5.31703 5.7773-5.32031zm-16.4668.9961c.4577-.006.8823.13306 1.2051.45898 1.6512 1.66574 1.6413 2.75818-.031 3.50976-2.2124.99403-3.3624.80469-4.1172-.67187-.7401-1.44751 1.3087-3.27641 2.9434-3.29687zm103.7461.45312 1.8066 1.16211s-.3809.5932-.5859.94531c-1.0248 1.75947.7167 2.79102 3.1289 1.85742.4354-.16857.8066-.4082.8066-.4082l1.4903 1.01172s-1.0734.57841-2.2442 1.15039c-3.0105 1.47005-5.2862.83637-5.8711-1.74414-.4008-1.7686.1645-2.69959 1.4688-3.97461zm-76.3359.21289c2.7543-.0937 5.4352 2.05397 6.0722 4.93945.264 1.35139-.078 19.21875-.078 19.21875l-10.9277-.006.1914-18.74414c-.072-1.18524 0-2.35764.6347-3.19921 1.2012-1.49278 2.6647-2.15993 4.1075-2.20899zm-11.3477.82031c-2.2074.10138-3.4607 3.66884-1.1895 5.35157.9486.70282.969.83575.461 3.21093-.5793 2.70973.02 6.42117 1.375 8.50977 1.0393 1.72976.8271.84504.2949-.69727-.684-2.89186-.3486-5.01494 1.3242-8.375 1.4948-2.83042 2.9426-7.18276-1.8105-7.96875-.1549-.0256-.3079-.038-.4551-.0312zm90.6934.81446.9882.66601c-.595.80985-1.3302.77123-1.7832.48047-.3994-.48567.795-1.14648.795-1.14648zm-78.7247 1.38476c-2.3714-.0795-3.9349 4.30991-.9003 5.3711.6894.44426.8045 1.02599.3769 1.84765-.5748 1.10368-1.1501 3.72557-1.0605 4.82031.1286 1.57156.5324 3.62376.8496 4.33594.7964 1.96225.6353 1.17956.4277-1.08789-.08-2.53369.4336-4.36249 1.9102-6.7832 1.7541-2.90291 4.169-7.62353-1.3711-8.48438-.078-.0121-.156-.017-.2325-.0195zm-40.8164.0137c1.8582 0 3.3672 1.50119 3.3672 3.35547 0 1.85429-1.509 3.35938-3.3672 3.35938-1.8581 0-3.3671-1.50509-3.3671-3.35938 0-1.85428 1.509-3.35547 3.3671-3.35547zm15.584.36524c.5991-.0292 1.0358.35583 1.5645 1.14258 1.4534 2.16279 1.2881 2.60607-1.5137 4.14453-2.9689 1.62977-4.9546-2.46995-2.1152-4.36719.8587-.57346 1.4654-.89072 2.0644-.91992zm-30.7949.13672c3.1316.0322 8.0229 4.49352 5.6367 5.14062-.3408.0926-.7691.1556-.9511.14453-3.934-.2396-8.4414-5.32349-4.6856-5.28515zm15.2109.71679c-1.1825 0-2.1425.95666-2.1425 2.13672s.96 2.13672 2.1425 2.13672 2.1407-.95666 2.1407-2.13672-.9582-2.13672-2.1407-2.13672zm124.0215.62891 1.5606 1.05859s-.9547.43797-2.0781 1.03711c-3.0544 1.62773-3.9419 2.82257-2.8868 3.88672.3768.38007.8234.54483 1.625.24219 2.1171-.8204 4.0916-2.26512 6.0664-3.40625l1.1739.80469c-.027-.0538-4.6697 3.29525-7.2051 4.70312-3.98 2.03922-6.2533-2.13046-4.0391-4.91406 1.7082-1.69498 3.5392-2.25139 5.7832-3.41211zm-124.0215.31055c.6625 0 1.1993.53617 1.1993 1.19726 0 .6611-.5368 1.19727-1.1993 1.19727-.6624 0-1.2011-.53617-1.2011-1.19727 0-.66109.5387-1.19726 1.2011-1.19726zm126.4629 1.11914.8516.57422s-.092.0422-2.6992 1.53711c-2.8373 1.6266-2.9622 1.65469-3.1192 1.39843-.1392-.0772.054-.74141.9258-1.32617 1.5267-1.02456 4.2291-2.2703 4.041-2.18359zm-73.8183.084c1.9327-.0373 3.9024.87791 5.0273 2.83789.5732 1.48867.6221 2.87058.6153 4.4336l-.047 10.49218h-11.0059s-.5107-7.15146 0-13.10351c.4996-2.99027 2.9252-4.61222 5.4102-4.66016zm-34.1817 1.55274c.6992-.0511 1.2133.63448 1.877 2.11718.6576 1.46849.1641 2.29875-1.9024 3.18946-.261.11265-.5588.19535-.6621.18554-2.0894-.19894-2.9444-2.6032-1.4433-4.0625.9307-.9045 1.5871-1.38995 2.1308-1.42968zm111.8575 1.07422.957.59374s-.4907.44251-4.0449 3.0293c-2.8702 2.08917-3.2831 2.65567-2.6836 3.82813.4838.94625 1.5338.82315 2.9843-.28907 2.0117-1.54265 5.2286-4.15429 5.2286-4.15429v1.78711c-2.0835 1.6706-4.5473 4.38612-6.5489 5.4707-3.8622 1.89854-6.6317-3.18131-3.1015-5.75 3.0428-2.21433 7.209-4.51563 7.209-4.51562zm-77.2579.004c-2.877-.0238-3.947 4.23758-.8535 5.14063.8903.47594.8164.72142.2227 2.84375-.3595 1.28496-.4754 2.8701-.2793 3.87695.2314 1.28363.5169 1.25257.3984-.125 0-.75348.781-2.76395 1.5567-4.02539 2.8688-3.9906 2.1163-7.67267-1.045-7.71094zm-67.0273.0527c1.8978.0129 2.9609 2.64984 1.3145 3.7871-1.1663.80594-3.6066-.17642-3.5997-1.44921.01-1.0849.8622-2.11879 1.8985-2.30274.1334-.0237.2602-.0361.3867-.0352zm5.4609.2207c.5977-.002.9424.8723.9375 2.60156-.01 2.48009-.8894 4.64113-2.4101 5.9043-2.2017 1.82847-2.6941-3.15516-.6367-6.45117.8569-1.37293 1.582-2.05383 2.1093-2.05469zm11.8653.76953c1.8581 0 3.3672 1.50143 3.3672 3.35547 0 1.85428-1.5091 3.35937-3.3672 3.35937-1.8582 0-3.3672-1.50509-3.3672-3.35937 0-1.85404 1.509-3.35547 3.3672-3.35547zm128.4668.10742c.3062.20469.6231.44171.625.4668-2.3348 1.78421-3.2953 2.72593-5.6446 4.46289-.8537.57113-1.5776.42356-1.164-.23633 2.0274-1.64451 3.9296-3.24392 6.1836-4.69336zm-128.4668 1.11133c-1.1825 0-2.1407.95691-2.1407 2.13672 0 1.18006.9582 2.13672 2.1407 2.13672s2.1406-.95666 2.1406-2.13672c0-1.17981-.9581-2.13672-2.1406-2.13672zm-40.2637.0606c22.7709 11.48867 36.9672 32.98325 40.4707 57.46875l11.0625-17.51172 2.9883 1.12695-16.1192 26.2168-.6992-.2168c-.067-25.61356-12.8594-49.84431-37.7539-63.14062zm40.2637.8789c.6624 0 1.1992.53642 1.1992 1.19727 0 .66109-.5368 1.19726-1.1992 1.19726-.6625 0-1.1992-.53617-1.1992-1.19726 0-.66085.5367-1.19727 1.1992-1.19727zm-9.3965.13867c.9955 2.19739 2.2073 4.50363 4.0801 7.13868-1.8992-1.78007-3.9754-1.70425-6.0313-1.97266zm27.0742.47461c.3535-.0172.7059.13235.9824.51172.9312 1.27727 1.1032 2.46181.4551 3.10157-.8874.87607-2.2997.53046-2.9375-.7168-.6635-1.29738.4394-2.84497 1.5-2.89649zm111.7227 1.88672v1.98633c-1.2845 1.42537-3.1116 2.51968-3.9571 4.28125-.7001 1.45867 1.0878 2.23508 2.6172 1.08399.5277-.3974 1.3399-1 1.3399-1v2.44531c-1.2913 1.095-2.6291 2.17114-4.3907 1.8164-1.0269-.31258-1.9276-1.11774-2.1152-2.14648-.7354-3.08207 2.2552-4.69204 4.5762-6.75391.7486-.66555 1.9297-1.71289 1.9297-1.71289zm-124.6582 1.62305c.057-.003.1138 0 .1718 0 1.8582 0 3.3653 1.50119 3.3653 3.35547s-1.5071 3.35937-3.3653 3.35937c-1.8581 0-3.3672-1.50509-3.3672-3.35937 0-1.79633 1.4175-3.26571 3.1954-3.35547zm60.7597.67969c1.0716.0374 2.891 1.71755 3.1856 2.02929 1.0618 1.12378 1.8653 4.39049 1.2402 5.00782-1.3841 1.42542-5.4042-3.31749-5.1641-6.41602.1068-.46461.3811-.63355.7383-.62109zm6.8477.0742c1.8349-.007 2.8052 2.45871 1.3281 3.85547-.5806.54905-1.891.93754-2.6328.42187-2.0456-1.422-.5381-4.18373 1.3047-4.27734zm-52.8672.17578c.7687.004.9141.69305.7402 1.09961-.1655.38702-.7691.41695-1.248.2207-.8139-.3333-.4317-1.3254.5078-1.32031zm-14.5684.28906c-1.1825 0-2.1425.95666-2.1425 2.13672s.96 2.13672 2.1425 2.13672 2.1407-.95666 2.1407-2.13672-.9582-2.13672-2.1407-2.13672zm-16.0293.93945c4.0608.005 8.3448 3.19511 4.6192 3.82813-2.7657.46991-4.5593-.0742-6.7129-2.03711-1.0947-.99747-.7055-1.52779 1.2871-1.75.2663-.0297.5362-.0413.8066-.041zm16.0293 0c.6625 0 1.1993.53617 1.1993 1.19727 0 .66109-.5368 1.19726-1.1993 1.19726-.6624 0-1.2011-.53617-1.2011-1.19726 0-.6611.5387-1.19727 1.2011-1.19727zm5.6211 3.03907c.057-.003.118 0 .1758 0 1.8582 0 3.3672 1.5014 3.3672 3.35546 0 1.85429-1.509 3.35938-3.3672 3.35938-1.858 0-3.3672-1.50509-3.3672-3.35938 0-1.79613 1.4136-3.26592 3.1914-3.35546zm66.1641.16992c.9606-.016 1.8036.1644 2.291.60937.5958.54422-.3007 1.58814-2.1269 2.47656-2.1337 1.03808-5.8535.89418-5.8477-.22656.01-1.49059 3.2286-2.81833 5.6836-2.85937zm-81.0547.88281c1.8664.01 2.3713 5.78586.75 8.55273-.841 1.43565-1.9723.47533-2.7812-2.35937-.6636-2.32472.6081-6.20106 2.0312-6.19336zm15.0664.16602c-1.1823 0-2.1406.95687-2.1406 2.13671 0 1.18006.9583 2.13672 2.1406 2.13672 1.1825 0 2.1406-.95666 2.1406-2.13672 0-1.17984-.9581-2.13671-2.1406-2.13671zm69.625.40429c.2964-.0251.4977.0536.7637.1836 2.0373.99842 3.5189 5.65819 2.457 7.73632-1.118 2.18803-3.6312-2.02371-3.6094-6.04882.01-1.31638.092-1.84597.3887-1.8711zm-89.8516.27149c1.8429-.0134 3.181 2.58582 1.4473 3.89062-.7589.57119-1.9261.66183-2.6426.20703-1.4121-.89606-1.335-3.07746.1348-3.83984.3533-.21632.7148-.2553 1.0605-.25781zm20.2266.26367c.6625 0 1.1992.53638 1.1992 1.19726 0 .6611-.5367 1.19727-1.1992 1.19727-.6623 0-1.1992-.53617-1.1992-1.19727 0-.66088.5369-1.19726 1.1992-1.19726zm-12.5781.40234c1.0085 1.49721 5.0929 5.44973 5.6582 5.79102-1.8046-.58271-3.661-.33579-5.5176-.0879.2092-1.36809.4293-3.61286-.1406-5.70313zm65.6367.33985c27.6856 6.46668 44.5859 35.78318 37.9043 63.28515 0 0-2.3306-1.29856-2.6992-1.91992.9792-4.75889 1.5811-12.29547.3554-19.875-2.0781-12.85616-12.5208-31.72074-35.4003-38.19141-.253-.83143-.1602-3.29882-.1602-3.29882zm14.918.20117c.3131 1.88066.6139 3.77655 1.0781 5.46875-1.9502-1.39815-4.1582-2.59964-6.4199-3.57031 1.6153-.33896 3.0899-.62539 5.3418-1.89844zm7.9824.60351c1.1017-.0284 2.2219.75591 2.1973 2.11133-.011.59655-.6479 1.66801-1.1426 1.91992-1.84.93694-3.7273-.8473-2.916-2.75586.3638-.85607 1.1075-1.25573 1.8613-1.27539zm-69.5566.72852c1.8579 0 3.3671 1.49915 3.3671 3.35352 0 1.85428-1.5092 3.36132-3.3671 3.36132-1.8582 0-3.3672-1.50704-3.3672-3.36132 0-1.85437 1.509-3.35352 3.3672-3.35352zm0 1.21875c-1.1826 0-2.1407.95463-2.1407 2.13477 0 1.18005.9581 2.13671 2.1407 2.13671 1.1823 0 2.1406-.95666 2.1406-2.13671 0-1.18014-.9583-2.13477-2.1406-2.13477zm-57.2891.31836c13.7562 8.10214 26.0974 25.33239 27.0137 44.81836l-3.3321-2.17188c-1.4344-13.12445-8.166-27.40557-23.789-39.11133 0 0 .039-1.26011.1074-3.53515zm76.1777 0h17.7793v3.82422l5.334-2.74024v8.45899l-5.334-3.22071v3.69141h-17.7793v-3.88086l-5.4472 2.62695.062-8.41796 5.3847 3.01953zm-18.8886.61914c.6622 0 1.1992.53609 1.1992 1.19727 0 .66109-.537 1.19921-1.1992 1.19921-.6625 0-1.1993-.53812-1.1993-1.19921 0-.66118.5368-1.19727 1.1993-1.19727zm6.9921.67187c.022-.002.046 0 .068 0l.2109 1.21875c-.035-.002-.068-.006-.1035-.006-1.1825-.00009-2.1406.95664-2.1406 2.13671 0 1.18001.9581 2.13672 2.1406 2.13672.2859 0 .5574-.0529.8067-.15429l.207 1.22265c-.3207.10137-.6595.1543-1.0137.1543-1.8581 0-3.3672-1.50514-3.3672-3.35938 0-1.79636 1.4136-3.25984 3.1914-3.34961zm40.3418.42383c1.8581 0 3.3653 1.49924 3.3653 3.35352 0 1.59243-1.1143 2.92221-2.6055 3.26758l-.2012-1.20703c.9107-.24583 1.5821-1.07399 1.5821-2.06055 0-1.18006-.9582-2.13672-2.1407-2.13672-.048 0-.099.003-.1464.006l-.2051-1.20703c.1199-.0214.2397-.0107.3515-.0156zm23.4336 1.13477c4.1519.0225 5.8738 2.40183 2.4707 3.41211-1.5764.46814-3.6388.21945-5.6777-.68164-1.6998-.75093.6415-2.74436 3.207-2.73047zm-86.789.22656c1.0045-.004 1.9756.15052 2.6933.49024 1.7353.82076 1.696 1.37903-.1601 2.44726-2.5881 1.48964-8.6833-.0188-6.8418-1.69336.8655-.78681 2.6346-1.23823 4.3086-1.24414zm23.1894.36719c.092 0 .1835.0117.2696.0312l.373 2.17773c-.1857.11772-.4063.18555-.6426.18555-.6624 0-1.1992-.53622-1.1992-1.19727 0-.66111.5368-1.19726 1.1992-1.19726zm40.1758.42773c.6575.006 1.1895.53976 1.1895 1.19727 0 .52142-.3365.96077-.8028 1.125zm7.3223.85742c1.8581 0 3.3672 1.49924 3.3672 3.35352s-1.5091 3.36133-3.3672 3.36133c-1.858 0-3.3653-1.50705-3.3653-3.36133s1.5073-3.35352 3.3653-3.35352zm-65.543.84571c.1995-.0111.4265.082.668.27929 2.0174 1.64634 3.0225 5.12984 2.2285 7.72071-.7575 2.47166-3.9016-1.91879-3.8828-5.41992.01-1.61475.3877-2.54699.9863-2.58008zm87.1719.29492c.278.002.5744.21398.8652.69727 1.2532 2.08181 1.1961 6.3816-.1035 7.7207-.7374.75977-1.0115.6148-1.7793-.93555-1.3122-2.65008-.3233-7.49297 1.0176-7.48242zm-21.6289.0762c-1.1824 0-2.1407.95666-2.1407 2.13672s.9583 2.13672 2.1407 2.13672c1.1825 0 2.1425-.95666 2.1425-2.13672s-.96-2.13672-2.1425-2.13672zm-62.8692.57422c2.5419 1.60107 5.1445 3.06097 7.8516 4.27734-2.5331-.59785-4.4053.25208-6.3359 1.39454.3703-2.11361-.3517-3.83177-1.5157-5.67188zm62.8692.36523c.6624 0 1.2011.53618 1.2011 1.19727s-.5387 1.19727-1.2011 1.19727c-.6623 0-1.1985-.53618-1.1993-1.19727.0001-.66109.537-1.19727 1.1993-1.19727zm13.5195.0859c1.8949.267 3.7712.57655 5.9688.16406-.406 1.85893-.5482 3.75464-.3692 5.69141-1.6348-2.11132-3.4585-4.09396-5.5996-5.85547zm-83.0352.79883c.3783-.003.7891.0969 1.2832.25586 1.5577.76263 1.6036 2.64934.088 3.63476-1.9054 1.23883-4.3897-.9356-3.2011-2.80273.6623-.79025 1.1996-1.08306 1.83-1.08789zm76.2715 1.3457c1.858 0 3.3672 1.50119 3.3672 3.35547s-1.5092 3.35938-3.3672 3.35938c-1.8581 0-3.3672-1.5051-3.3672-3.35938s1.509-3.35547 3.3672-3.35547zm19.6934.5625c.3241-.006.6621.0665.998.24219 1.1971.626 1.4497 2.21249.4981 3.13867-1.0539 1.02572-2.4939.84859-3.2031-.39258-.8091-1.41626.3013-2.96157 1.707-2.98828zm-32.4727.4961c16.5715 5.62873 27.6682 24.02505 24.9942 41.73632l-2.0684-1.95117c1.5755-10.0368-3.9482-29.21308-22.4043-37.08593zm12.7793.16015c-1.1825 0-2.1433.95666-2.1425 2.13672-.0001 1.18006.96 2.13672 2.1425 2.13672 1.1824 0 2.1407-.95666 2.1407-2.13672s-.9583-2.13672-2.1407-2.13672zm0 .9375c.6623 0 1.1992.53813 1.1992 1.19922 0 .6611-.5369 1.19727-1.1992 1.19727-.6625 0-1.2011-.53617-1.2011-1.19727 0-.66109.5386-1.19922 1.2011-1.19922zm-63.0097.21289c.8454.0743 2.273-.0783 2.6074.7168.3764 1.00614-1.6919 2.7447-4.3145 3.08594-1.0677.0634-3.3538.33421-3.8359-.4336-.4521-.95795 2.6334-3.3399 5.543-3.36914zm-52.6075.58789c2.2401-.0985 4.7651 2.89271 2.4981 5.33204-1.8146 1.87401-5.5293 4.42773-5.5293 4.42773v-1.64062c-.01-.002 3.5292-3.09041 3.6973-4.25782.3746-2.60271-2.3329-1.09642-3.8223.10742l.2383-2.8125c.6771-.74002 1.8736-1.11033 2.9179-1.15625zm57.2266.70118c1.6608.0633 5.5122 5.98886 4.5313 7.20117-.777.96057-4.1223-1.07116-5.0801-3.45899-.5032-1.25429-.7193-3.56198.5488-3.74218zm25.6113.71875s.1708 13.7846-.6054 15.08593c-3.1128 5.62257-9.833 2.69628-10.4063-1.51757-.413-2.54129-.166-13.54297-.166-13.54297zm.9825 0h10.7363s-.047 19.40278-.4805 20.51562c-.3523.90594-1.9113 2.46741-2.8906 2.89453-3.1534 1.37488-6.5247-.57531-7.3594-4.25781-.602-2.65528-.01-19.15234-.01-19.15234zm11.6367 0h7.1269s.2445 1.02821.5274 1.87304c.4941 1.47458 2.1752 5.70271 2.3691 5.96094.8704 1.15961.9123 13.84269.051 15.28711-3.1435 4.70349-8.3751 3.33528-10.2871-1.87305-.4793-1.66913.2129-21.24804.2129-21.24804zm8.3105.47851c12.7819 6.05854 22.5649 18.90587 21.3399 35.39063l-2.3477-2.33789c.8564-11.37754-7.824-25.59944-17.9531-29.82618zm17.5996.38867c1.858 0 3.3672 1.49924 3.3672 3.35352s-1.5091 3.36133-3.3672 3.36133-3.3672-1.50705-3.3672-3.36133 1.509-3.35352 3.3672-3.35352zm12.6094.33985c1.2503.0183 2.7777.44944 3.9199 1.38867 1.3652 1.12323 1.5569 2.01201.4981 2.33789-2.0461.62957-4.5042.0208-6.0469-1.49609-1.4331-1.40918-.1982-2.25718 1.6289-2.23047zm-12.6094.87695c-1.1825 0-2.1406.95666-2.1406 2.13672s.9581 2.13672 2.1406 2.13672c1.1824 0 2.1426-.95666 2.1426-2.13672s-.9602-2.13672-2.1426-2.13672zm-67.3476.26953c1.7932.01 2.617 2.52775 1.2422 3.80274-.5637.52269-2.104.63485-2.7735.20117-1.8414-1.19304-.7622-4.01633 1.5313-4.00391zm23.7031.63867c-.5933 1.7032-1.5481 3.62518-2.3379 4.93946-2.1165 3.52177-1.842 5.88348.3926 7.07617 3.281 1.75126 5.6655-2.9505 2.4316-4.79492-1.1344-.64671-1.1348-.65515-.7246-2.40039.5119-2.17759.6018-4.7747.2383-4.82032zm43.6445.0312c.6624 0 1.2012.53617 1.2012 1.19727 0 .66109-.5388 1.19735-1.2012 1.19726-.6625 0-1.1992-.53617-1.1992-1.19726 0-.6611.5367-1.19727 1.1992-1.19727zm-32.1367.69141c-.15-.01-.035.86737-.047 2.42188-.018 2.50928-.2286 3.27238-1.8359 6.63671-2.0524 4.29685-1.7788 7.23334.7656 8.18555 1.9763.73918 3.898-.76846 3.9102-3.07031.01-1.09595-.4844-1.95746-1.2364-2.17969-.6798-.0433-1.4338-.35971-1.3808-.68555.4168-2.56575 2.6447-7.3994-.1758-11.30859zm42.4609.3457c1.6616 1.0431 3.3702 2.03348 5.8438 2.15821-1.0539 2.52134-.9474 4.36295-1.1231 6.37304-1.0569-2.70738-2.6903-5.70262-4.7207-8.53125zm-126.375.41797c1.6069.0413 2.9311 2.27718 2.504 3.78906-.373 1.31977-.4894 1.54226-5.6016 4.94922-2.8369 1.89047-3.1348 1.97266-3.1348 1.97266l-1.5195-1.02344s1.2859-.8573 3.3242-2.22461c3.9227-2.63138 4.4993-3.25612 4.0957-4.43164-.4385-1.27756-1.905-1.00966-4.2246.77344-3.4334 2.6386-3.791 2.8125-3.791 2.8125v-1.57422c2.6201-1.84086 5.8014-5.10837 8.3476-5.04297zm101.084.69531c.5378-.0464.7803.32.6465.66211-.064.16403-.2902.27125-.5898.26953-.6159-.003-.5944-.88523-.057-.93164zm-6.3047.4043c.3119 3.57796.4254 6.54939-1.2558 9.45508-2.1801 3.76781-1.6146 6.99853.7187 7.71094 2.324.70988 4.3782-.94966 3.9668-3.20508-.1256-.69053-1.0769-1.8187-1.6562-1.9668-.7148-.1832-.7992-.62484-.3926-2.04297.7884-2.74821.5246-6.22763-.666-8.74218-.1096-.37545-.5474-1.2224-.7149-1.20899zm39.7774.084c.4015-.0741.7855.28284 1.0957 1.30859.7256 2.48415-.8352 6.6247-1.791 7.1543-1.0181 1.00526-1.6546.0457-1.875-2.55469 0-1.58226 1.3658-5.68602 2.5703-5.9082zm-31.957 1.10937c1.9602.0106 2.8839 2.55392 1.416 3.89648-.8177.74813-1.3363.40732-2.1914-1.42578-.7934-1.70032-.549-2.47785.7754-2.4707zm18.2558.52148c1.8581.00009 3.3672 1.4994 3.3672 3.35352 0 1.85428-1.5091 3.35938-3.3672 3.35938s-3.3672-1.5051-3.3672-3.35938c0-1.85412 1.5091-3.35352 3.3672-3.35352zm0 1.2168c-1.1825 0-2.1406.95683-2.1406 2.13672 0 1.18006.9581 2.13672 2.1406 2.13672s2.1426-.95666 2.1426-2.13672c0-1.17989-.9601-2.13672-2.1426-2.13672zm0 .93946c.6624 0 1.2012.53633 1.2012 1.19726 0 .6611-.5388 1.19727-1.2012 1.19727-.6625 0-1.1992-.53617-1.1992-1.19727 0-.66093.5367-1.19735 1.1992-1.19726zm-14.4453.88281c.2748-.0114.5441.0342.793.15429 1.7735.8558 1.5782 3.30668-.3789 4.76954-1.2388.92572-1.7621.60564-2.916-1.78516-.6266-1.29694 1.0166-3.07679 2.5019-3.13867zm-103.0586.34765c.2499-.0229.507-.0217.7754.008 1.8848.20738 2.9865 2.63097 2.5293 4.24804-1.0083 2.49353-4.4223 3.3333-7.0137 4.37696l-1.3437-.98047s1.8995-1.0777 3.7441-1.92578c1.7273-.79395 2.006-1.11015 1.877-2.11133-.252-1.95566-1.1985-1.88445-5.4922.42383-1.7469.93913-3.0313 1.76953-3.0313 1.76953l-.9511-.7793c1.4209-.93386 2.2752-1.44974 3.8281-2.50781 1.9642-1.02407 3.329-2.36147 5.0781-2.52149zm135.1426.32032c.7658.0483 1.476.42324 1.6855 1.05859.6253 1.89595-.6496 3.55931-2.5703 2.81445-1.0424-.40426-1.7817-1.73471-1.1347-2.96679.4317-.67581 1.2537-.9546 2.0195-.90625zm-36.8516.40039 3.0254 5.42383s.039 1.50864.066 2.34765c.1156 3.52176.8727 4.68709 2.9395 4.3457.1477-.0244.8828-.23632.8828-.23632l1.3144 2.20898s-1.4201.61999-1.789.69727c-2.4337.50966-5.8028-1.31399-6.3262-3.75196-.5068-2.35906-.1133-11.03515-.1133-11.03515zm-98.834 2.21484c.526.071.1933.80634-.1757 1.00586-1.7772.90311-3.4573 1.88451-5.3125 2.95117l-1.2403-.76758c2.0593-1.10463 4.1109-2.5347 6.4492-3.17578.1127-.0204.2042-.0238.2793-.0137zm121.3106.71094c1.858 0 3.3672 1.50118 3.3672 3.35547 0 1.85428-1.5091 3.35937-3.3672 3.35937-1.8582 0-3.3672-1.50509-3.3672-3.35937 0-1.85429 1.509-3.35547 3.3672-3.35547zm-14.2422.45898c.7746-.0223 1.4197.31131 1.8398 1.00781.8989 1.48928-.053 3.30732-2.2343 4.27735-1.2181.54162-1.4198.43093-2.7188-1.49024-.8783-1.29863-.8733-1.5323.098-2.35937 1.0884-.9267 2.138-1.41061 3.0156-1.43555zm-118.1621.29492 48.2168 31.15821-1.375 2.33203-46.7481-30.53711zm143.2715.40235c2.9297.056 6.7532 3.44181 5.3984 4.7793-.1438.14196-.4229.24992-.6211.23828-4.1828-.24633-8.7986-5.09439-4.7773-5.01758zm-10.8672.0625c-1.1825 0-2.1406.95666-2.1406 2.13672s.9581 2.13672 2.1406 2.13672c1.1824 0 2.1406-.95666 2.1406-2.13672s-.9582-2.13672-2.1406-2.13672zm-64.3945.59375 1.2773 3.3125-23.998 38.125-2.3575-1.51172zm64.3945.3457c.6624 0 1.2012.53617 1.2012 1.19727 0 .66109-.5388 1.19726-1.2012 1.19726-.6625 0-1.1992-.53617-1.1992-1.19726 0-.6611.5367-1.19727 1.1992-1.19727zm8.8125.39649c1.175 2.18036 3.1335 3.51746 5.3594 4.45507-2.1015 1.73064-3.1603 3.9752-3.0782 6.32227-.5327-3.52316-.9946-7.02846-2.2812-10.77734zm-126.8594 1.15234c.5143.004.9776.10902 1.3438.35937 4.4973 3.07473.3674 6.11724-.016 5.87891l-1.5312-.96484c.5265-.87093 1.7221-2.051-.2012-3.15235-1.0912-.47477-2.3074.0949-3.3672.83008l-1.6074-1.09961s3.1504-1.86796 5.3789-1.85156zm106.0527 1.73828c.1693-.005.3367.006.4981.0371 2.5384.48945 2.3611 3.17643-.291 4.42187-1.5089.70886-1.7746.56412-3.0918-1.69335-.6184-1.05958 1.248-2.71192 2.8847-2.76563zm-106.8652.98633c.2702.007.6152.24355.6563.46484.1305.70554-1.1778 1.41407-1.1778 1.41407l-1.5058-.9961c.6427-.35381 1.3153-.8329 2.0273-.88281zm135.2383.64453c.3677-.0284.6381.14529.7461.58398.5142 2.08815-1.8112 5.96091-3.957 6.58985-1.2529.36697-1.6155-.22114-1.2051-1.95117.5766-2.43061 3.103-5.11997 4.416-5.22266zm-77.7734.16016 3.9043 2.82812-23.6192 36.95313-3.8633-2.4043zm63.7539.29882c1.858 0 3.3672 1.50119 3.3671 3.35547.0008 1.85429-1.5091 3.35938-3.3671 3.35938-1.8582 0-3.3672-1.50509-3.3672-3.35938 0-1.85428 1.509-3.35547 3.3672-3.35547zm0 1.21875c-1.1826 0-2.1426.95666-2.1426 2.13672s.96 2.13672 2.1426 2.13672c1.1824 0 2.1406-.95666 2.1406-2.13672s-.9582-2.13672-2.1406-2.13672zm0 .93946c.6623 0 1.1992.53617 1.1992 1.19726 0 .6611-.5369 1.19727-1.1992 1.19727-.6625 0-1.2012-.53617-1.2012-1.19727 0-.66109.5387-1.19726 1.2012-1.19726zm-53.834.12304c2.5414 2.8605 5.3988 9.25765 15.3711 6.24024 3.3972 2.76231 8.087 4.33457 13.8691 1.26953l.043 17.23828-44.2774.0469zm-80.8672.43946 43.6035 28.63867-1.3652 2.4043-42.2813-26.9668zm122.5215.0351c2.229.54427 2.4798 2.76873.4082 3.61914-1.1088.45532-1.336.34219-2.3946-1.21289-.4222-.6203-.6604-1.13535-.5996-1.29101.8418-.53632 1.7187-.96633 2.586-1.11524zm27.8711 2.34375c.7794.005 1.5541.41723 1.9179 1.22852.546 1.21763.2309 2.23974-.8945 2.91601-1.8633 1.12001-3.9457-.93609-2.9785-2.9414.3884-.80617 1.1759-1.20844 1.9551-1.20313zm-27.3028 2.33789c1.0282.005 1.8906.98554 1.3907 1.58008-.3318.39456-.7574.28131-1.3028-.3457-.6405-.73596-.6778-1.23758-.088-1.23438zm12.5.42774c1.8581 0 3.3672 1.50118 3.3672 3.35547 0 1.85428-1.5091 3.35937-3.3672 3.35937s-3.3672-1.50509-3.3672-3.35937c0-1.85429 1.5091-3.35547 3.3672-3.35547zm9.4864.18555c2.5375.0137 6.0522 4.24538 5.455 6.5664-.1948.7572-1.6186.34682-3.3105-.95117-2.2858-1.75357-3.7638-5.624-2.1445-5.61523zm-9.4864 1.0332c-1.1825 0-2.1406.95666-2.1406 2.13672s.9581 2.13672 2.1406 2.13672 2.1407-.95666 2.1407-2.13672-.9582-2.13672-2.1407-2.13672zm8.1563.43359c.7008 2.04803 1.4181 4.18132 4.582 5.66211-4.9101 2.28255-5.846 6.1263-5.1094 11.05469l-1.1484-.70313c1.052-4.41554 1.8487-9.44383 1.6758-16.01367zm-8.1563.50586c.6624 0 1.1993.53617 1.1993 1.19727 0 .66109-.5369 1.19726-1.1993 1.19726s-1.1992-.53617-1.1992-1.19726c0-.6611.5368-1.19727 1.1992-1.19727zm-.625 5.39258c1.8582 0 3.3672 1.50117 3.3672 3.35547 0 1.17201-.6028 2.20536-1.5156 2.80664l-1.0859-.81055c.8037-.30775 1.375-1.0858 1.375-1.99609 0-1.18008-.9582-2.13672-2.1407-2.13672-1.1261 0-2.0454.86871-2.1308 1.9707l-1.0918-.81445c.4216-1.37395 1.7072-2.375 3.2226-2.375zm15.3184.42969c1.6019.009-.889 4.44154-3.1758 5.65039-1.7413.92015-3.3346.99284-3.3301.15039.012-2.20429 4.0594-5.81403 6.5059-5.80078zm-15.3184 1.72851c.6625 0 1.1993.53616 1.1993 1.19727 0 .66098-.5368 1.19726-1.1993 1.19726-.658-.0717-1.1936-.58778-1.2011-1.19726 0-.66111.5387-1.19727 1.2011-1.19727zm14.8008 4.04102c2.0843.21557 2.5512 2.23105 1.3809 3.42187-1.9363 1.91135-4.5705-.0524-3.3047-2.46289.3438-.65475 1.1351-.97053 1.9238-.95898zm-6.1894 1.80078c2.6968.0838 4.7991 3.74462 4.3125 5.63867-1.7876-.93809-3.4654-2.06389-3.7813-2.28906-.3796-.67089-.4007-1.75625-.5312-3.34961zm-3.6778 2.07422c2.8763 1.92631 5.6995 3.63933 8.4512 5.06836l-8.4316 5.4043zm-75.25 2.50976 45.3926.16407.01 1.90429-46.6407.0254zm-1.8515 2.97657h3.0507v3.71093h-4.1894v-2.04882zm43.6191.0879h3.6719v3.71094h-3.6719zm-36.0332.0254h4.1797v3.71094h-4.1797zm8.6934.0312h4.5156v3.71094h-4.5156zm9.2382 0h4.3438v3.71094h-4.3438zm9.2774.0625h4.1387v3.71094h-4.1387zm-33.8594 1.0039a.76397556.76397556 87.111732 0 0 -.7637.76368.76397556.76397556 87.111732 0 0 .7637.76562.76397556.76397556 87.111732 0 0 .7637-.76562.76397556.76397556 87.111732 0 0 -.7637-.76368zm8.7109 0a.76397556.76397556 87.111732 0 0 -.7636.76368.76397556.76397556 87.111732 0 0 .7636.76562.76397556.76397556 87.111732 0 0 .7637-.76562.76397556.76397556 87.111732 0 0 -.7637-.76368zm8.9122 0a.76397556.76397556 87.111732 0 0 -.7637.76368.76397556.76397556 87.111732 0 0 .7637.76562.76397556.76397556 87.111732 0 0 .7636-.76562.76397556.76397556 87.111732 0 0 -.7636-.76368zm9.1679 0a.76397556.76397556 87.111732 0 0 -.7636.76368.76397556.76397556 87.111732 0 0 .7636.76562.76397556.76397556 87.111732 0 0 .7637-.76562.76397556.76397556 87.111732 0 0 -.7637-.76368zm9.1446 0a.76397556.76397556 87.111732 0 0 -.7657.76368.76397556.76397556 87.111732 0 0 .7657.76562.76397556.76397556 87.111732 0 0 .7636-.76562.76397556.76397556 87.111732 0 0 -.7636-.76368zm8.7597 0a.76397556.76397556 87.111732 0 0 -.7636.76368.76397556.76397556 87.111732 0 0 .7636.76562.76397556.76397556 87.111732 0 0 .7656-.76562.76397556.76397556 87.111732 0 0 -.7656-.76368zm-48.6308 3.56836 50.3476.11914v2.22461l-51.7851-.11914zm42.957 4.6875c5.126-.0566 8.1139 5.65131 4.1074 9.66016-3.6829 3.6851-9.8269-1.02101-6.7597-5.16602 1.7128-2.31417 5.9222-.44972 4.871 2.01758-.6919 1.62381-2.9601.86697-2.8906-.89258 0-.7069-.5199-.22265-.5801.52735-.076.95193.903 2.00528 2.043 2.00781 2.9748.007 3.4198-3.92818.5527-5.37305-2.5612-1.29046-5.2565.35602-5.8789 3.62305-.068.35658-.4901 1.24868-.8125 1.87891-.9471 1.89757-1.2522 2.99269-1.7265 5.16015-.2181.27071-.8835.70301-1.3457.9336-1.4612.72899-1.4007.42325-.8535-1.94922 2.0616-5.65912 2.9174-11.86156 9.2734-12.42774zm15.1582.35547c3.1649-.0679 5.5491 2.53356 5.9648 4.54297 1.8185 6.11577-6.3167 9.86126-9.1523 4.32031-1.5844-3.16739 1.6963-6.94533 4.7031-5.47265 2.4615 1.20559 2.3038 4.95275-.2109 4.93945-1.3652.0641-2.1967-1.16085-1.4434-2.14258.3908-.3869.8586-.0841 1.0547-.73242.082-.27171-.3048-.4876-1.2363-.29883-1.5435.31269-1.3857 3.41681.4043 4.03516 2.6665.921 4.9451-1.88478 3.6758-4.66016-1.5262-3.33662-5.6556-3.35167-7.545.13867-.2743.50729-.7042 1.23342-.9414 1.55469-2.8181 3.81612-3.04 4.38578-3.8789 6.51172-.083.21184-.2315.37048-.4863.3418-.7765 0-1.5381.16751-2.0586.37109-.3512-.0928.1165-1.43155.1504-1.5332 1.9199-5.91484 6.8499-11.77215 11-11.91602zm-25.3105 1.06641c.5906.0393 1.0627.21062.7851.5957-.6682 1.16176-2.6761 4.93487-4.0684 10.51172-.3661-.2278-1.3562-.6377-2.0703-.88672-.2704-.0943-.05-.40559-.066-.87695.5071-2.51566 2.1348-6.91148 3.9297-9.15039.1907-.13976.8996-.23267 1.4903-.19336zm3.3359.0488c1.9247-.0481 1.0786.69597.3203 1.66211-1.7191 2.19037-3.514 8.01043-3.8887 11.01367-.057.45354-.1402.95457-.1875 1.11328-.2678.89812-1.9513-1.03096-1.9433-2.22461.014-2.02763 2.2647-8.2048 3.873-10.56445.5605-.82242.628-.95729 1.8262-1zm-84.0137.3789c-.4116.0105-.8033.0727-1.166.19141-3.9303 1.36952-6.6228 4.7865-5.834 8.88476.8229 3.74991 3.0152 6.29256 5.6992 10.01172 0 0-3.3724 5.21489-5.6855 7.62305l5.4726 7.90234c-1.5135 2.98211-4.1444 5.23805-4.8046 8.91797-1.0322 4.84519 1.5103 9.56678 6.9199 10.00196 4.0364.121 6.6823-2.60064 7.1836-6.72461.6536-4.27382-2.8403-8.4824-5.586-12.43946 1.9303-2.49526 3.8856-5.03835 5.8555-7.53906l-5.5703-7.86133c3.814-5.3132 6.3094-9.52723 5.2598-13.52148-1.0474-3.07692-4.8629-5.52046-7.7442-5.44727zm.1367.59571c1.7767-.0257 3.6086.68394 5.0938 2.23437 3.4158 3.56698 3.1132 6.58429-1.3242 13.18164-.9741 1.44779-1.9297 3.04102-1.9297 3.04102l5.6015 7.7207c-1.8364 2.59193-3.9262 4.89008-5.8437 7.62305 2.5162 3.24129 5.1186 6.51897 5.6582 10.75.4464 3.88477-2.0851 8.02268-6.4141 8.12304-4.2011.0292-7.3984-3.46402-7.3066-7.8496.1978-4.32783 2.7781-7.2552 5.2031-10.79688l-5.4199-7.88672 5.7402-7.64844s-4.1759-5.10171-5.457-8.77929c-1.0409-4.17614.9107-6.55576 1.1699-6.91993 1.2723-1.78734 3.2151-2.76381 5.2285-2.79296zm.1719 2.7207c-2.9761-.0264-5.9262 2.63233-3.7246 8.35937.8329 2.16654 2.1899 3.779 3.7246 5.31836 1.4227-1.65948 3.0099-3.84324 3.8809-5.92578 2.0975-5.01498-.9048-7.72555-3.8809-7.75195zm.125.76367c1.9629.0925 3.9041 1.66182 3.7012 4.44922-.4547 3.03527-2.0536 4.95379-3.8887 7.47852-2.056-2.38661-3.5083-4.37155-3.6484-7.51954-.113-3.11781 1.873-4.50068 3.8359-4.4082zm101.0449 2.125c.1573.87781 1.0149 2.36424.9414 2.71485-.3973.92068-.976 1.3804-1.7832 2.89648-.1694.32316-.09.38861-.5429.30859-.4255-.06-1.1733-.29214-1.5723-.40625-.2279-.066-.4906-.19055-.3828-.48047.7748-1.77765 1.6415-3.89833 3.3398-5.0332zm-15.0664.0898c.4875.082 1.2089 1.98076 1.5274 2.5957l-.961 2.48633c-.091.26784-.1009.31068-.3828.25195-.5475-.0691-1.0282-.11084-1.5742-.0703-1.1916-.14585 1.0531-4.59051 1.3906-5.26367zm2.4317 3.16796c.02-.003.042-.002.062 0 .4893.0631 1.2166.32666 1.7578.5625.2981.12273.3074.13034.1758.5-.2756.54765-.6129 2.12617-.9766 2.67774-.011.0804-1.6994-1.00056-2.1797-1.20899-.019-.30003.5345-2.44708 1.1602-2.53125zm5.209.16797c.5163.11538-.3019 2.76848-.4551 3.09961-.488.72873-1.2473 1.68769-1.8516 2.07422-.3085.19743-1.2578-.36965-1.2363-1.0332.015-.47117.9182-2.84775 1.2187-3.47852.044-.0924 1.7459-.65197 2.3243-.66211zm9.1015.125c.5578.0193 1.2477.52653 1.625.81641.1771.34978.015.70022-.6055 1.76953-.5491.94574-1.1223 1.96849-1.2617 1.85937-.417-.32624-1.19-.74977-1.5722-1.27539-.2849-.39184.2563-1.39352.625-1.9414.5815-.86458.8613-1.17676 1.1894-1.22852zm-30.0742.8711c2.9797-.0824 4.3772.96166 5.6894 3.1914.621 1.05446.629 1.10086.4864 2.08594-.3354 2.31544-.2193 3.87013.3926 5.28906.6968 1.61579.5927 2.17112-1.1114 5.76563-1.7102 3.61882-3.7857 8.02694-5.3633 12.11328-.6997 1.75078-1.3427 3.73386-1.7441 5.35742-.2642 1.02093-2.0178.79663-2.7559.66406-.632.13799.9124-4.10838 3.2012-9.18554 1.8323-4.06385 4.3241-8.64146 5.3184-13.18946.8105-3.70732.5519-5.232.1074-6.78906-1.7155-4.5304-7.6843-3.41952-7.6699.75391.1281 2.70339 3.263 4.15262 4.4121 1.50195.1915-1.21851-.4117-.50988-.916.082-1.0813 1.26828-2.9342-.14267-2.6426-2.01367.3829-2.45743 3.5624-3.26442 5.0996-1.32031 1.6836 2.12918 1.3141 4.32354-1.1172 5.9707-2.5044 1.83587-4.7848.79163-6.0351-1.11523-2.6706-4.28217 1.6687-9.07969 4.6484-9.16211zm12.3047 1.81445c2.4862.051 5.1843 2.1292 5.6211 3.77539.234 1.11695-.1264 2.43285.2734 3.51172.333.86484.6534 1.36236.4141 2.13086-2.046 6.57042-6.8752 13.57892-9.2617 21.35742-.2754.54166-.5289.60821-1.1446.7832-.9538.2712-1.3251.24392-1.4258-.25195 1.661-7.27168 5.9192-12.78558 9.1797-21.58984 1.8472-3.73745-.2408-7.4207-4.0664-7.44141-3.0308-.0163-4.3859 4.72072-1.7324 6.10547 2.5953 1.35421 4.5324-2.20338 2.2246-3.46289-.5569-.30412-.7004-.0135-.2539.52148 1.0275 1.23208.1052 2.88786-1.3242 2.22852-2.2136-1.02064-1.0717-4.78364 1.5117-4.56641 3.9883.33535 4.507 6.12475.4395 7.5918-5.5923 2.01674-8.5262-6.96827-3.2637-9.99219.873-.50172 1.8454-.7179 2.8086-.70117zm11.7812.17969c1.4717-.0368 3.0172.48622 4.2871 1.70312 3.1277 2.99718 2.2935 7.62147-2.9902 16.56641-1.7304 2.99779-3.4171 6.59834-4.3379 9.22851-.2288.65565-.4211.9888-.9414 1.27539-.9163.50457-1.9553.5664-2.0898.21094-.3436-.90902 2.2744-6.56036 6.9355-15.4375 1.2253-2.3657 2.7738-5.11056 2.6953-7.92578-.3073-2.23529-2.1711-3.8445-4.666-3.11328-1.6788.49213-2.3644 2.85595-1.1269 4.04687.5165.4974 1.1526.75768 1.5625.7168.7734.0248 1.6514-.7379.1543-.82031-1.5831-.009-2.1241-1.99458-.7872-2.89063 1.9216-1.28807 4.1279.23103 3.9727 2.73633-.3211 5.03778-7.6917 4.28501-7.8867-.9043-.1207-3.2108 2.4087-5.3223 5.2187-5.39257zm-20.8281 8.0664c1.114-.0853-.8023 5.9051-4.1523 12.625-1.8277 3.72148-3.2132 7.71946-4.6348 11.61133-.3855.52062-2.6939.61673-2.6895.0781 4.1624-12.63252 6.9998-15.2776 8.3887-20.33985.2445-.86162.4218-2.10759.4551-2.21484 1.0348-.29677 1.9077-1.53365 2.6328-1.75977zm-75.8184.88282-4.3398 5.64648 4.2363 5.99609 4.4004-5.73242zm92.0176.47461c.5355-.0237 1.8987.78744 1.9434 1.26953 0 .67652-1.3038 3.93179-2.2754 5.88867-4.2504 8.55978-5.3051 10.86824-6.0391 13.15039-.1324.41161-.349.68506-.6172.78515-.5289.1973-2.0019.48044-2.125.2793.8987-5.00311 7.7791-16.38622 9.1133-21.37304zm5.3477.74804c.2875-.0209.4027.0972.3203.48047-.1335.6202-.8742 2.07975-2.166 4.61328-3.5804 7.02237-5.4583 11.18409-6.0567 13.32227-.1401.50093-.2272.89403-.4668 1.02148-.4922.26187-2.2127.9547-2.2949.20703.538-3.17404 2.6339-5.23962 8.0528-18.47656.2534-.43488.4743-.64839.7128-.6875.6663-.10925 1.2442-.42598 1.8985-.48047zm-16.9356.7168c.7336.1091 2.1449.81131 2.2461 1.45703-.1363.81684-.8866 2.62907-2.6269 5.69141-2.6022 4.57889-5.875 13.97265-5.875 13.97265-.7361.34636-1.4824.59508-2.3008.20117-.2854-1.43842 1.986-6.80242 4.5156-12.44336 1.3759-3.06794 2.9707-6.12658 4.041-8.8789zm6.0782.10156c.7657-.008.1708 1.27877-1.6641 4.89649-2.8068 5.41316-4.5825 9.34332-6.4395 14.66211-.2248.7016-.4333 1.04724-.7226 1.1914-.5529.27545-1.8918.26016-2.127-.0254-.3734-.45439 1.6072-5.77792 3.5371-9.86719 1.7038-3.4367 2.905-6.19637 4.377-9.37304.4028-.63114.4189-.67426.8281-.75586.851-.0677 1.733-.63765 2.211-.72852zm-86.4356.6836 2.2344 2.98437-2.6231 3.25586-2.1816-3.16797zm-.1426 1.91406-.791 1.21875.791 1.21875.7911-1.21875zm-.1933 10.95312s-.9498 1.0913-1.9238 2.81836c-2.8546 4.74265-2.9336 8.24349.4335 10.32227 1.421.72215 3.274.56306 4.4434-.45508 3.8135-3.32014.9787-7.88002-1.4844-10.97266-.6535-.90803-1.4687-1.71289-1.4687-1.71289zm.1386 1.21289c1.4297 1.68335 2.477 2.94668 3.4297 5.0625 1.0959 2.84202.3922 5.07724-1.7285 6.12696-3.3516 1.65913-6.3992-2.06798-4.8086-6.04493 1.1786-2.94718 3.1074-5.14453 3.1074-5.14453zm93.8536 5.61524c.3141.59785-31.8992 8.03465-55.6641 1.65234l-14.4609 20.88086 83.4843-.14453zm-1.2207 1.48047s7.7609 13.40465 11.5703 19.96875h-5.3535l-7.6289-16.29883c-4.0809 1.13533-8.1028 1.95678-12.1836 2.47265l2.7148 13.82618h-4.0078l-2.2656-13.21289c-5.8477.45017-11.8032.62168-17.8848.44921l-2.6211 12.76368h-4.1953l2.6894-12.67579c-4.6162-.62152-9.2119-1.20722-13.9023-1.97656l-7.8652 14.65235h-5.9219l12.3457-18.38868c18.4296 3.69055 35.4236 2.82154 54.5098-1.58007zm-2.9161 7.19531 6.0508 12.77344h-11.4609l-2.1094-11.39649zm-49.0664.92969 10.0196 1.29492-2.586 10.54883h-13.5312zm32.7071 1.57226 1.3769 10.27149h-17.2636l1.9179-10.06836z" stroke-width=".165327" transform="matrix(6.04148 -.0998463 .100055 6.05413 -10089.7 -3284.93)"/></g><path d="m3165.3649-350.16374c-9.1848 13.11502-19.0125 20.6622-19.1758 30.89417-.055 3.31326 1.7344 8.94469 7.3383 10.02263 3.6357.69607 8.6413-2.25028 8.7459-8.23617-.016-1.19167 1.2602-1.16067 1.2483.47229-.1713 4.72155-1.664 10.21871-4.1727 14.69355h12.032c-2.5087-4.47484-4.0014-9.972-4.1727-14.69355-.012-1.63296 1.2643-1.66396 1.2483-.47229.1046 5.98589 5.1102 8.93224 8.7459 8.23617 5.6039-1.07794 7.393-6.70937 7.3382-10.02263-.1632-10.23197-9.9909-17.77915-19.1757-30.89417z"/><path d="m3268.4357-104.53066c-9.1848-13.11503-19.0125-20.66226-19.1757-30.89419-.055-3.31327 1.7343-8.94472 7.3382-10.02262 3.6357-.69609 8.6413 2.25026 8.7459 8.23609-.016 1.19173 1.2602 1.16076 1.2483-.4722-.1713-4.72157-1.664-10.21877-4.1727-14.69354h12.032c-2.5087 4.47477-4.0014 9.97197-4.1727 14.69354-.012 1.63296 1.2643 1.66393 1.2483.4722.1046-5.98583 5.1102-8.93218 8.7459-8.23609 5.6039 1.0779 7.393 6.70935 7.3383 10.02262-.1633 10.23193-9.991 17.77916-19.1758 30.89419z"/></g></svg>