<svg height="88.000275mm" viewBox="0 0 238.11099 332.59947" width="63.000198mm" xmlns="http://www.w3.org/2000/svg"><g transform="matrix(1.06667 0 0 1.06667 -3475.80724373347 502.8369920001)"><rect fill="#fff" height="311.81104" rx="10.677567" ry="10.664032" width="223.22835" x="3258.5591" y="-471.4082"/><path d="m3318.4068-438.71333c-9.226 13.15712-19.0977 20.72857-19.2617 30.99333-.055 3.3239 1.7421 8.97342 7.3711 10.05478 3.652.69833 8.6801-2.25748 8.7851-8.26252-.016-1.19555 1.2659-1.16448 1.2539.47372-.172 4.73672-1.6714 10.25156-4.1914 14.74069h12.086c-2.52-4.48913-4.0194-10.00397-4.1914-14.74069-.012-1.6382 1.2699-1.66927 1.2539-.47372.105 6.00504 5.1331 8.96085 8.7851 8.26252 5.629-1.08136 7.4261-6.73088 7.3711-10.05478-.164-10.26476-10.0357-17.83621-19.2617-30.99333z"/><path d="m3275.7763-421.43493c-4.3106 5.48214-8.9228 8.6369-8.9994 12.91389-.026 1.38495.8139 3.73892 3.4439 4.18949 1.7063.29097 4.0555-.94062 4.1046-3.44272-.01-.49815.5914-.4852.5858.19738-.08 1.97364-.7809 4.27149-1.9583 6.14196h5.6468c-1.1774-1.87047-1.878-4.16832-1.9583-6.14196-.01-.68258.5933-.69553.5858-.19738.049 2.5021 2.3983 3.73369 4.1046 3.44272 2.63-.45057 3.4696-2.80454 3.4439-4.18949-.077-4.27699-4.6889-7.43175-8.9994-12.91389z"/><path d="m3318.4068-258.43246c-9.226-13.15712-19.0977-20.72857-19.2617-30.99333-.055-3.3239 1.7421-8.97342 7.3711-10.05478 3.652-.69833 8.6801 2.25748 8.7851 8.26252-.016 1.19555 1.2659 1.16448 1.2539-.47372-.172-4.73672-1.6714-10.25156-4.1914-14.74069h12.086c-2.52 4.48913-4.0194 10.00397-4.1914 14.74069-.012 1.6382 1.2699 1.66927 1.2539.47372.105-6.00504 5.1331-8.96085 8.7851-8.26252 5.629 1.08136 7.4261 6.73088 7.3711 10.05478-.164 10.26476-10.0357 17.83621-19.2617 30.99333z"/><path d="m3464.5708-209.57029c-4.3106-5.48214-8.9228-8.6369-8.9994-12.91389-.026-1.38495.8139-3.73892 3.4439-4.18949 1.7063-.29097 4.0555.94062 4.1046 3.44272-.01.49815.5914.4852.5858-.19738-.08-1.97364-.7809-4.27149-1.9583-6.14196h5.6468c-1.1774 1.87047-1.878 4.16832-1.9583 6.14196-.01.68258.5933.69553.5858.19738.049-2.5021 2.3983-3.73369 4.1046-3.44272 2.63.45057 3.4696 2.80454 3.4439 4.18949-.077 4.27699-4.6889 7.43175-8.9994 12.91389z"/><path d="m3421.9396-438.71333c-9.226 13.15712-19.0977 20.72857-19.2617 30.99333-.055 3.3239 1.7421 8.97342 7.3711 10.05478 3.652.69833 8.6801-2.25748 8.7851-8.26252-.016-1.19555 1.2659-1.16448 1.2539.47372-.172 4.73672-1.6714 10.25156-4.1914 14.74069h12.086c-2.52-4.48913-4.0194-10.00397-4.1914-14.74069-.012-1.6382 1.2699-1.66927 1.2539-.47372.105 6.00504 5.1331 8.96085 8.7851 8.26252 5.629-1.08136 7.4261-6.73088 7.3711-10.05478-.164-10.26476-10.0357-17.83621-19.2617-30.99333z"/><path d="m3318.4068-372.5729c-9.226 13.15712-19.0977 20.72857-19.2617 30.99333-.055 3.3239 1.7421 8.97342 7.3711 10.05478 3.652.69833 8.6801-2.25748 8.7851-8.26252-.016-1.19555 1.2659-1.16448 1.2539.47372-.172 4.73672-1.6714 10.25156-4.1914 14.74069h12.086c-2.52-4.48913-4.0194-10.00397-4.1914-14.74069-.012-1.6382 1.2699-1.66927 1.2539-.47372.105 6.00504 5.1331 8.96085 8.7851 8.26252 5.629-1.08136 7.4261-6.73088 7.3711-10.05478-.164-10.26476-10.0357-17.83621-19.2617-30.99333z"/><path d="m3370.1732-396.0729c-9.226 13.15712-19.0977 20.72857-19.2617 30.99333-.055 3.3239 1.7421 8.97342 7.3711 10.05478 3.652.69833 8.6801-2.25748 8.7851-8.26252-.016-1.19555 1.2659-1.16448 1.2539.47372-.172 4.73672-1.6714 10.25156-4.1914 14.74069h12.086c-2.52-4.48913-4.0194-10.00397-4.1914-14.74069-.012-1.6382 1.2699-1.66927 1.2539-.47372.105 6.00504 5.1331 8.96085 8.7851 8.26252 5.629-1.08136 7.4261-6.73088 7.3711-10.05478-.164-10.26476-10.0357-17.83621-19.2617-30.99333z"/><path d="m3421.9396-372.5729c-9.226 13.15712-19.0977 20.72857-19.2617 30.99333-.055 3.3239 1.7421 8.97342 7.3711 10.05478 3.652.69833 8.6801-2.25748 8.7851-8.26252-.016-1.19555 1.2659-1.16448 1.2539.47372-.172 4.73672-1.6714 10.25156-4.1914 14.74069h12.086c-2.52-4.48913-4.0194-10.00397-4.1914-14.74069-.012-1.6382 1.2699-1.66927 1.2539-.47372.105 6.00504 5.1331 8.96085 8.7851 8.26252 5.629-1.08136 7.4261-6.73088 7.3711-10.05478-.164-10.26476-10.0357-17.83621-19.2617-30.99333z"/><path d="m3318.4068-192.29202c-9.226-13.15712-19.0977-20.72857-19.2617-30.99333-.055-3.3239 1.7421-8.97342 7.3711-10.05478 3.652-.69833 8.6801 2.25748 8.7851 8.26252-.016 1.19555 1.2659 1.16448 1.2539-.47372-.172-4.73672-1.6714-10.25156-4.1914-14.74069h12.086c-2.52 4.48913-4.0194 10.00397-4.1914 14.74069-.012 1.6382 1.2699 1.66927 1.2539.47372.105-6.00504 5.1331-8.96085 8.7851-8.26252 5.629 1.08136 7.4261 6.73088 7.3711 10.05478-.164 10.26476-10.0357 17.83621-19.2617 30.99333z"/><path d="m3421.9396-192.29202c-9.226-13.15712-19.0977-20.72857-19.2617-30.99333-.055-3.3239 1.7421-8.97342 7.3711-10.05478 3.652-.69833 8.6801 2.25748 8.7851 8.26252-.016 1.19555 1.2659 1.16448 1.2539-.47372-.172-4.73672-1.6714-10.25156-4.1914-14.74069h12.086c-2.52 4.48913-4.0194 10.00397-4.1914 14.74069-.012 1.6382 1.2699 1.66927 1.2539.47372.105-6.00504 5.1331-8.96085 8.7851-8.26252 5.629 1.08136 7.4261 6.73088 7.3711 10.05478-.164 10.26476-10.0357 17.83621-19.2617 30.99333z"/><path d="m3370.1732-234.93245c-9.226-13.15712-19.0977-20.72857-19.2617-30.99333-.055-3.3239 1.7421-8.97342 7.3711-10.05478 3.652-.69833 8.6801 2.25748 8.7851 8.26252-.016 1.19555 1.2659 1.16448 1.2539-.47372-.172-4.73672-1.6714-10.25156-4.1914-14.7407h12.086c-2.52 4.48914-4.0194 10.00398-4.1914 14.7407-.012 1.6382 1.2699 1.66927 1.2539.47372.105-6.00504 5.1331-8.96085 8.7851-8.26252 5.629 1.08136 7.4261 6.73088 7.3711 10.05478-.164 10.26476-10.0357 17.83621-19.2617 30.99333z"/><path d="m3421.9396-258.43246c-9.226-13.15711-19.0977-20.72856-19.2617-30.99332-.055-3.3239 1.7421-8.97342 7.3711-10.05478 3.652-.69833 8.6801 2.25748 8.7851 8.26252-.016 1.19555 1.2659 1.16448 1.2539-.47372-.172-4.73672-1.6714-10.25157-4.1914-14.7407h12.086c-2.52 4.48913-4.0194 10.00398-4.1914 14.7407-.012 1.6382 1.2699 1.66927 1.2539.47372.105-6.00504 5.1331-8.96085 8.7851-8.26252 5.629 1.08136 7.4261 6.73088 7.3711 10.05478-.164 10.26476-10.0357 17.83621-19.2617 30.99332z"/><path d="m3265.7561-424.57045v-32.99935h3.1988v32.99935z"/><path d="m3278.4368-457.57045c-3.0793 0-5.5542 2.81259-5.5542 6.30605v20.38856c0 3.49347 2.4762 6.30474 5.5542 6.30474h1.7974c3.0792 0 5.5593-2.81127 5.5593-6.30474v-20.38856c0-3.49346-2.4814-6.30605-5.5593-6.30605zm.9295 3.12029c1.818 0 3.2798 1.39451 3.2798 3.13862v20.6583c0 1.74412-1.4618 3.15171-3.2798 3.15171-1.8179 0-3.2849-1.40759-3.2849-3.15171v-20.6583c0-1.7428 1.467-3.13862 3.2849-3.13862z"/><g transform="matrix(-1 0 0 1 6929.14 0)"><path d="m3454.5506-206.43478v32.99935h3.1988v-32.99935z"/><path d="m3467.2313-173.43478c-3.0793 0-5.5542-2.81259-5.5542-6.30605v-20.38856c0-3.49347 2.4762-6.30474 5.5542-6.30474h1.7974c3.0792 0 5.5593 2.81127 5.5593 6.30474v20.38856c0 3.49346-2.4814 6.30605-5.5593 6.30605zm.9295-3.12029c1.818 0 3.2798-1.39451 3.2798-3.13862v-20.6583c0-1.74412-1.4618-3.15171-3.2798-3.15171-1.8179 0-3.2849 1.40759-3.2849 3.15171v20.6583c0 1.7428 1.467 3.13862 3.2849 3.13862z"/></g></g></svg>