<?xml version="1.0" encoding="UTF-8" standalone="no"?>
<svg
   width="63.000198mm"
   height="88.000275mm"
   viewBox="0 0 238.11099 332.59947"
   version="1.1"
   id="svg8"
   xmlns="http://www.w3.org/2000/svg"
   xmlns:svg="http://www.w3.org/2000/svg"
   xmlns:rdf="http://www.w3.org/1999/02/22-rdf-syntax-ns#"
   xmlns:cc="http://creativecommons.org/ns#"
   xmlns:dc="http://purl.org/dc/elements/1.1/">
  <title
     id="title8745">Vector Playing Cards</title>
  <defs
     id="defs2" />
  <metadata
     id="metadata5">
    <rdf:RDF>
      <cc:Work
         rdf:about="">
        <dc:format>image/svg+xml</dc:format>
        <dc:type
           rdf:resource="http://purl.org/dc/dcmitype/StillImage" />
        <dc:title>Vector Playing Cards</dc:title>
        <dc:creator>
          <cc:Agent>
            <dc:title>Chris Aguilar</dc:title>
          </cc:Agent>
        </dc:creator>
        <dc:rights>
          <cc:Agent>
            <dc:title>Copyright 2011, 017</dc:title>
          </cc:Agent>
        </dc:rights>
        <dc:publisher>
          <cc:Agent>
            <dc:title>Chris Aguilar</dc:title>
          </cc:Agent>
        </dc:publisher>
        <dc:description>Vector Playing Cards</dc:description>
        <dc:contributor>
          <cc:Agent>
            <dc:title>Chris Aguilar</dc:title>
          </cc:Agent>
        </dc:contributor>
        <cc:license
           rdf:resource="https://opensource.org/licenses/lgpl-3.0.html" />
      </cc:Work>
    </rdf:RDF>
  </metadata>
  <g
     id="layer1"
     transform="translate(264.16507,-718.04341)">
    <g
       transform="matrix(1.06667,0,0,1.06667,-2006.07,1220.88)"
       id="SPADE-5"
       style="display:inline">
      <g
         transform="rotate(180,1744.645,-315.5025)"
         id="g8459-0-4">
        <rect
           ry="10.664032"
           rx="10.677567"
           style="display:inline;opacity:1;fill:#ffffff;fill-opacity:1;stroke:none;stroke-width:1.00057;stroke-miterlimit:4;stroke-dasharray:none;stroke-opacity:1"
           id="rect6920-5-5"
           width="223.22835"
           height="311.81104"
           x="1633.0309"
           y="-471.4082" />
        <path
           style="display:inline;opacity:1"
           id="path6950-9-9"
           d="m 1692.8786,-438.71333 c -9.226,13.15712 -19.0977,20.72857 -19.2617,30.99333 -0.055,3.3239 1.7421,8.97342 7.3711,10.05478 3.652,0.69833 8.6801,-2.25748 8.7851,-8.26252 -0.016,-1.19555 1.2659,-1.16448 1.2539,0.47372 -0.172,4.73672 -1.6714,10.25156 -4.1914,14.74069 4.0287,0 8.0573,0 12.086,0 -2.52,-4.48913 -4.0194,-10.00397 -4.1914,-14.74069 -0.012,-1.6382 1.2699,-1.66927 1.2539,-0.47372 0.105,6.00504 5.1331,8.96085 8.7851,8.26252 5.629,-1.08136 7.4261,-6.73088 7.3711,-10.05478 -0.164,-10.26476 -10.0357,-17.83621 -19.2617,-30.99333 z" />
        <path
           style="display:inline;opacity:1"
           id="path6952-6-0"
           d="m 1650.2481,-421.43493 c -4.3106,5.48214 -8.9228,8.6369 -8.9994,12.91389 -0.026,1.38495 0.8139,3.73892 3.4439,4.18949 1.7063,0.29097 4.0555,-0.94062 4.1046,-3.44272 -0.01,-0.49815 0.5914,-0.4852 0.5858,0.19738 -0.08,1.97364 -0.7809,4.27149 -1.9583,6.14196 1.8823,0 3.7645,0 5.6468,0 -1.1774,-1.87047 -1.878,-4.16832 -1.9583,-6.14196 -0.01,-0.68258 0.5933,-0.69553 0.5858,-0.19738 0.049,2.5021 2.3983,3.73369 4.1046,3.44272 2.63,-0.45057 3.4696,-2.80454 3.4439,-4.18949 -0.077,-4.27699 -4.6889,-7.43175 -8.9994,-12.91389 z" />
        <path
           style="display:inline;opacity:1"
           id="path6956-5-0"
           d="m 1839.0426,-209.57029 c -4.3106,-5.48214 -8.9228,-8.6369 -8.9994,-12.91389 -0.026,-1.38495 0.8139,-3.73892 3.4439,-4.18949 1.7063,-0.29097 4.0555,0.94062 4.1046,3.44272 -0.01,0.49815 0.5914,0.4852 0.5858,-0.19738 -0.08,-1.97364 -0.7809,-4.27149 -1.9583,-6.14196 1.8823,0 3.7645,0 5.6468,0 -1.1774,1.87047 -1.878,4.16832 -1.9583,6.14196 -0.01,0.68258 0.5933,0.69553 0.5858,0.19738 0.049,-2.5021 2.3983,-3.73369 4.1046,-3.44272 2.63,0.45057 3.4696,2.80454 3.4439,4.18949 -0.077,4.27699 -4.6889,7.43175 -8.9994,12.91389 z" />
        <path
           id="path6958-4-1"
           d="m 1796.4114,-438.71333 c -9.226,13.15712 -19.0977,20.72857 -19.2617,30.99333 -0.055,3.3239 1.7421,8.97342 7.3711,10.05478 3.652,0.69833 8.6801,-2.25748 8.7851,-8.26252 -0.016,-1.19555 1.2659,-1.16448 1.2539,0.47372 -0.172,4.73672 -1.6714,10.25156 -4.1914,14.74069 4.0287,0 8.0573,0 12.086,0 -2.52,-4.48913 -4.0194,-10.00397 -4.1914,-14.74069 -0.012,-1.6382 1.2699,-1.66927 1.2539,-0.47372 0.105,6.00504 5.1331,8.96085 8.7851,8.26252 5.629,-1.08136 7.4261,-6.73088 7.3711,-10.05478 -0.164,-10.26476 -10.0357,-17.83621 -19.2617,-30.99333 z"
           style="display:inline;opacity:1" />
        <path
           id="path6970-5-5"
           d="m 1692.8786,-192.29202 c -9.226,-13.15712 -19.0977,-20.72857 -19.2617,-30.99333 -0.055,-3.3239 1.7421,-8.97342 7.3711,-10.05478 3.652,-0.69833 8.6801,2.25748 8.7851,8.26252 -0.016,1.19555 1.2659,1.16448 1.2539,-0.47372 -0.172,-4.73672 -1.6714,-10.25156 -4.1914,-14.74069 4.0287,0 8.0573,0 12.086,0 -2.52,4.48913 -4.0194,10.00397 -4.1914,14.74069 -0.012,1.6382 1.2699,1.66927 1.2539,0.47372 0.105,-6.00504 5.1331,-8.96085 8.7851,-8.26252 5.629,1.08136 7.4261,6.73088 7.3711,10.05478 -0.164,10.26476 -10.0357,17.83621 -19.2617,30.99333 z"
           style="display:inline;opacity:1" />
        <path
           id="path6972-5-8"
           d="m 1796.4114,-192.29202 c -9.226,-13.15712 -19.0977,-20.72857 -19.2617,-30.99333 -0.055,-3.3239 1.7421,-8.97342 7.3711,-10.05478 3.652,-0.69833 8.6801,2.25748 8.7851,8.26252 -0.016,1.19555 1.2659,1.16448 1.2539,-0.47372 -0.172,-4.73672 -1.6714,-10.25156 -4.1914,-14.74069 4.0287,0 8.0573,0 12.086,0 -2.52,4.48913 -4.0194,10.00397 -4.1914,14.74069 -0.012,1.6382 1.2699,1.66927 1.2539,0.47372 0.105,-6.00504 5.1331,-8.96085 8.7851,-8.26252 5.629,1.08136 7.4261,6.73088 7.3711,10.05478 -0.164,10.26476 -10.0357,17.83621 -19.2617,30.99333 z"
           style="display:inline;opacity:1" />
        <path
           id="path6980-6-3"
           d="m 1744.645,-339.50268 c -9.226,13.15712 -19.0977,20.72857 -19.2617,30.99333 -0.055,3.3239 1.7421,8.97342 7.3711,10.05478 3.652,0.69833 8.6801,-2.25748 8.7851,-8.26252 -0.016,-1.19555 1.2659,-1.16448 1.2539,0.47372 -0.172,4.73672 -1.6714,10.25156 -4.1914,14.74069 4.0287,0 8.0573,0 12.086,0 -2.52,-4.48913 -4.0194,-10.00397 -4.1914,-14.74069 -0.012,-1.6382 1.2699,-1.66927 1.2539,-0.47372 0.105,6.00504 5.1331,8.96085 8.7851,8.26252 5.629,-1.08136 7.4261,-6.73088 7.3711,-10.05478 -0.164,-10.26476 -10.0357,-17.83621 -19.2617,-30.99333 z"
           style="display:inline;opacity:1" />
        <path
           style="opacity:1"
           id="path21-4-5-5"
           d="m 1639.8452,-433.11372 3.2348,-0.031 c 0.6171,1.9918 1.9825,4.0164 3.8365,4.5782 5.2378,1.2532 8.6076,-1.7286 9.7172,-5.1662 1.3461,-4.1696 -0.03,-10.0246 -3.636,-12.1029 -2.9879,-1.7233 -7.4274,-0.2697 -9.4664,3.4166 l -2.2654,-1.4117 1.2162,-13.7397 h 14.7995 v 3.2477 h -11.9928 l -0.1903,5.724 c 2.5817,-1.8465 6.5493,-1.8268 9.1296,-0.5317 4.8869,2.3742 7.1574,7.7722 6.2086,14.134 -1.3165,6.3277 -4.2196,9.9133 -10.7676,10.4253 -7.2834,0.067 -9.8548,-5.0339 -9.8239,-8.5422 v 0 z" />
        <path
           id="path21-4-9-2-8"
           d="m 1849.4426,-197.8915 -3.2348,0.031 c -0.6171,-1.9918 -1.9825,-4.0164 -3.8365,-4.5782 -5.2378,-1.2532 -8.6076,1.7286 -9.7172,5.1662 -1.3461,4.1696 0.03,10.0246 3.636,12.1029 2.9879,1.7233 7.4274,0.2697 9.4664,-3.4166 l 2.2654,1.4117 -1.2162,13.7397 h -14.7995 v -3.2477 h 11.9928 l 0.1903,-5.724 c -2.5817,1.8465 -6.5493,1.8268 -9.1296,0.5317 -4.8869,-2.3742 -7.1574,-7.7722 -6.2086,-14.134 1.3165,-6.3277 4.2196,-9.9133 10.7676,-10.4253 7.2834,-0.067 9.8548,5.0339 9.8239,8.5422 v 0 z"
           style="display:inline;opacity:1" />
      </g>
    </g>
  </g>
</svg>
