<svg height="88.000275mm" viewBox="0 0 238.11099 332.59947" width="63.000198mm" xmlns="http://www.w3.org/2000/svg"><g><rect fill="#fff" height="332.5994820368" rx="11.38944039189" ry="11.37500301344" width="238.1109840945" x="-.0000026016" y=".000005306"/><g stroke-width="1.06667"><path d="m18.365153456 53.3049932169c-4.5979983687 5.8476342738-9.5176937427 9.212722123-9.5994006647 13.7748590463-.02773342 1.4772846165.868162713 3.9881937964 3.673504813 4.4688032983 1.820059021.3103689699 4.325880185-1.0033311354 4.378253682-3.6722461424-.0106667-.5313616605.630828638-.517548284.624855286.2105393246-.0853336 2.1052225788-.832962603 4.5562702383-2.088859861 6.5514444732h6.0232828227c-1.255897258-1.9951742349-2.00320626-4.4462218944-2.088859861-6.5514444732-.0106667-.7280876086.632855311-.7419009851.624855286-.2105393246.05226683 2.668915007 2.558194661 3.9826151123 4.378253682 3.6722461424 2.8053421-.4806095019 3.700918232-2.9915186818 3.673504813-4.4688032983-.08213359-4.5621369233-5.001508963-7.9272247725-9.599389998-13.7748590463z"/><path d="m219.746582771 279.2946487657c-4.597987702-5.8476342738-9.517683076-9.212722123-9.599389998-13.7748590463-.02773342-1.4772846165.868162713-3.9881937964 3.673504813-4.4688032983 1.820059021-.3103689699 4.325880185 1.0033311354 4.378253682 3.6722461424-.0106667.5313616605.630828638.517548284.624855286-.2105393246-.0853336-2.1052225788-.832962603-4.5562702383-2.088859861-6.5514444732h6.023272156c-1.255897258 1.9951742349-2.00320626 4.4462218944-2.088859861 6.5514444732-.0106667.7280876086.632855311.7419009851.624855286.2105393246.05226683-2.668915007 2.558194661-3.9826151123 4.378253682-3.6722461424 2.8053421.4806095019 3.700918232 2.9915186818 3.673504813 4.4688032983-.08213359 4.5621369233-5.001508963 7.9272247725-9.599389998 13.7748590463z"/><path d="m119.055494779 34.8746422889c-9.84109742 14.0343051904-20.370943659 22.1105437619-20.545877539 33.0596553111-.05866685 3.545504413 1.858245807 9.5716779114 7.862531237 10.7251321826 3.89547884.7448876611 9.258802267-2.4079861916 9.370802617-8.8133822084-.01706672-1.2752573185 1.350297553-1.2421158816 1.337497513.5053029124-.18346724 5.0525171224-1.782832238 10.9350315052-4.470840638 15.7234518023h12.89177362c-2.6880084-4.7884202971-4.287373398-10.6709346799-4.470840638-15.7234518023-.01280004-1.747418794 1.354564233-1.7805602309 1.337497513-.5053029124.11200035 6.4053960168 5.475323777 9.5582698695 9.370802617 8.8133822084 6.00428543-1.1534542712 7.921198087-7.1796277696 7.862531237-10.7251321826-.17493388-10.9491115492-10.704780119-19.0253501207-20.545877539-33.0596553111z"/><path d="m119.055494779 297.7248610266c-9.84109742-14.0343051904-20.370943659-22.1105437619-20.545877539-33.0596553111-.05866685-3.545504413 1.858245807-9.5716779114 7.862531237-10.7251321826 3.89547884-.7448876611 9.258802267 2.4079861916 9.370802617 8.8133822084-.01706672 1.2752573185 1.350297553 1.2421158816 1.337497513-.5053029124-.18346724-5.0525171224-1.782832238-10.9350315052-4.470840638-15.7234518023h12.89177362c-2.6880084 4.7884202971-4.287373398 10.6709346799-4.470840638 15.7234518023-.01280004 1.747418794 1.354564233 1.7805602309 1.337497513.5053029124.11200035-6.4053960168 5.475323777-9.5582698695 9.370802617-8.8133822084 6.00428543 1.1534542712 7.921198087 7.1796277696 7.862531237 10.7251321826-.17493388 10.9491115492-10.704780119 19.0253501207-20.545877539 33.0596553111z"/><path d="m119.055494779 140.6996663244c-9.84109742 14.0343051904-20.370943659 22.1105437619-20.545877539 33.0596553111-.05866685 3.545504413 1.858245807 9.5716779114 7.862531237 10.7251321826 3.89547884.7448876611 9.258802267-2.4079861916 9.370802617-8.8133822084-.01706672-1.2752573185 1.350297553-1.2421158816 1.337497513.5053029124-.18346724 5.0525171224-1.782832238 10.9350315052-4.470840638 15.7234518023h12.89177362c-2.6880084-4.7884202971-4.287373398-10.6709346799-4.470840638-15.7234518023-.01280004-1.747418794 1.354564233-1.7805602309 1.337497513-.5053029124.11200035 6.4053960168 5.475323777 9.5582698695 9.370802617 8.8133822084 6.00428543-1.1534542712 7.921198087-7.1796277696 7.862531237-10.7251321826-.17493388-10.9491115492-10.704780119-19.0253501207-20.545877539-33.0596553111z"/><path d="m6.9395284177 42.2444679862 2.709981802-1.993179562c2.351900683 3.829771968 4.982202236 6.352233184 9.0058841433 5.919271831 6.036925532-.414827963 8.538373349-6.743274406 7.275329402-11.511609307-1.221870485-4.277986702-6.220712773-6.361939881-10.1950078593-4.08107942-.938029598.540481689-1.843099093.981869735-2.020059646.981869735-.416854636 0-1.360430918-1.877125866-1.231470515-2.449820989 2.667315002-3.895372173 9.1444445763-10.719606832 9.1444445763-10.719606832h-10.1195942903v4.569934281h-3.88374547v-8.199918958h19.7782911403v2.782195361s-5.299109893 5.495910508-7.050368699 8.505839914c4.313080145.157760493 7.789571009 2.891102368 9.037574909 7.212502539.728215609 2.27520711.401814589 7.479276706-.551361723 9.722377049-1.592111642 3.738998351-5.940925232 6.772607831-9.916510989 6.94722171-6.6746768583.448321401-10.2155945903-4.227853212-11.9833867813-7.685997352z"/><path d="m231.169125133 290.3551739964-2.709981802 1.993179562c-2.351900683-3.829771968-4.982202236-6.352233184-9.00589481-5.919271831-6.036925532.414827963-8.538373349 6.743274406-7.275329402 11.511609307 1.221870485 4.277986702 6.220712773 6.361939881 10.195018526 4.08107942.938029598-.540481689 1.843099093-.981869735 2.020059646-.981869735.416854636 0 1.360430918 1.877125866 1.231470515 2.449820989-2.667315002 3.895372173-9.144455243 10.719606832-9.144455243 10.719606832h10.119604957v-4.569934281h3.88374547v8.199918958h-19.778301807v-2.782195361s5.299109893-5.495910508 7.050368699-8.505839914c-4.313080145-.157760493-7.789571009-2.891102368-9.037574909-7.212502539-.728215609-2.27520711-.401814589-7.479276706.551361723-9.722377049 1.592111642-3.738998351 5.940925232-6.772607831 9.916510989-6.94722171 6.674687525-.448321401 10.215605257 4.227853212 11.983397448 7.685997352z"/></g></g></svg>