<svg height="88.000046mm" viewBox="0 0 238.11073 332.5986" width="63.00013mm" xmlns="http://www.w3.org/2000/svg"><g transform="matrix(1.07145 0 0 1.07009 -3610.7964 409.58126)"><rect fill="#fff" height="310.81366" rx="10.62995" ry="10.629899" width="222.23224" x="3370.0093" y="-382.75403"/><path d="m3387.1497-332.94062c-4.2913 5.46461-8.883 8.60928-8.9592 12.87259-.026 1.38052.8103 3.72696 3.4285 4.17609 1.6987.29004 4.0374-.93762 4.0863-3.43171-.01-.49656.5888-.48365.5832.19675-.08 1.96732-.7774 4.25782-1.9496 6.12231h5.6216c-1.1721-1.86449-1.8696-4.15499-1.9495-6.12231-.01-.6804.5906-.69331.5832-.19675.049 2.49409 2.3876 3.72175 4.0862 3.43171 2.6183-.44913 3.4542-2.79557 3.4286-4.17609-.077-4.26331-4.668-7.40798-8.9593-12.87259z"/><path d="m3575.1018-121.75366c-4.2914-5.4646-8.883-8.60927-8.9593-12.87258-.026-1.38052.8103-3.72696 3.4286-4.17609 1.6987-.29004 4.0374.93761 4.0863 3.43171-.01.49655.5887.48364.5831-.19675-.08-1.96733-.7774-4.25783-1.9495-6.12232h5.6216c-1.1722 1.86449-1.8696 4.15499-1.9496 6.12232-.01.68039.5907.6933.5832.19675.049-2.4941 2.3876-3.72175 4.0863-3.43171 2.6183.44913 3.4541 2.79557 3.4285 4.17609-.077 4.26331-4.668 7.40798-8.9592 12.87258z"/><path d="m3379.9121-346.95094h-2.7455v-3.74757h2.7455s.021-2.01922.1-5.58149c.1703-7.59284.3596-8.77155 2.5548-10.86135 4.3351-4.12995 11.595-.76494 11.5092 5.44573-.1255 8.76507-.035 17.12165-.2905 18.30556-.4545 2.08461-.5005 2.20203-.3149 2.58321.3801.76484 3.6594 1.09638 3.6594.88236v3.69136c-2.5049.19448-3.5455-.0409-5.5498-1.47367-1.2505 1.20872-5.0596 2.42262-8.0893.99461-2.3039-1.08592-4.0498-3.89112-3.5787-10.23875zm9.2796 6.54221c-1.3606-1.96838-3.6505-4.65476-5.8046-5.6089-.1344 2.26333.061 4.16124.8551 5.18207 1.2645 1.62508 3.3086 1.99709 4.9495.42683zm1.1289-21.64983c-1.0099-2.86381-3.6043-3.83489-5.4999-2.04274-1.1852 1.11472-1.3747 2.28815-1.4003 8.662-.015 3.93158-.015 5.58408-.015 5.58408 3.6902 1.19826 7.1396 5.50573 7.1101 5.44961l.09-11.89004c.072-1.92921-.024-3.86101-.2841-5.76291z"/><path d="m3582.3365-107.74334h2.7454v3.74758h-2.7454s-.021 2.01922-.1 5.581487c-.1702 7.592835-.3596 8.771553-2.5547 10.861347-4.3352 4.129947-11.5951.764945-11.5093-5.445726.1255-8.765078.035-17.121658.2905-18.305558.4545-2.08461.5005-2.20203.3149-2.58321-.3801-.76485-3.6594-1.09638-3.6594-.88237v-3.69135c2.5049-.19448 3.5455.0409 5.5499 1.47367 1.2504-1.20872 5.0596-2.42263 8.0892-.99461 2.304 1.08591 4.0498 3.89111 3.5788 10.23874zm-9.2797-6.5422c1.3607 1.96838 3.6505 4.65476 5.8046 5.6089.1344-2.26334-.061-4.16125-.855-5.18207-1.2646-1.62509-3.3087-1.99709-4.9496-.42683zm-1.1289 21.649824c1.01 2.86381 3.6044 3.834894 5.5001 2.042745 1.1851-1.114723 1.3746-2.288158 1.4002-8.662004.015-3.931585.015-5.584085.015-5.584085-3.6902-1.19825-7.1397-5.50573-7.1101-5.44961l-.09 11.890047c-.072 1.929209.024 3.86101.2841 5.762907z"/><path d="m3471.6319-97.49955 23.3691-42.70121c0 .0101 5.574 2.20211 12.173 3.91995-6.3331 16.55247-.046 38.387014-.046 38.387014s-35.5142.358594-35.4964.394246zm-64.0409-72.91819c-1.3258-18.13382.766-33.51231 1.6091-50.16615.055-.23247-7.5903-4.9768-7.5903-4.9768l17.9684-10.15245c1.7897.93098 2.818.7685 3.2409-.95483-1.8124-6.17678-2.1678-12.15754 1.9836-17.27367 3.1112-3.73922 10.2117-1.81717 12.2778-1.82553 1.6078-.007 5.4342-12.75863-1.0368-16.51784-1.3717-.79682-2.0209 7.44206-2.9562 10.907-4.1642-2.43912-11.8627-4.49377-12.8901-8.79636-.5264-2.38366 7.0359-6.9708 5.551-9.65808-2.1632-3.9146-7.7502-9.76885-10.1419-8.16199-2.2604 2.04787-7.6525 6.23237-7.6166 9.09591 1.6842 5.13362 5.9657 5.49093 8.2157 10.34773.5608 1.04979 4.6987 5.46131 4.6987 5.46131-1.5536 2.38188.9601 6.54463 1.0773 5.90801l-19.602-8.56501s4.493 33.90601-.2519 38.9242c-.5021.53097 4.198-1.33015 4.2778-1.04027 1.4285 1.81281 17.2596 11.9074 21.7912 15.53556 8.0473-11.25548 10.9863-16.2073 21.358-26.19336 2.2762-1.88669 7.3513-5.33323 10.2533-9.47393 2.3317-3.32699 3.2985-7.074 2.8797-9.98259-.5415-3.76116-.8752-6.33515-3.1899-9.33254-5.3476-6.92455-13.8542-13.52974-13.7041-13.65016l2.9067-2.37098s10.491 8.69907 14.9336 15.09733c2.9932 4.3107 3.0194 10.23936 3.0194 10.23936s6.0712-.24265 7.4631.0251c.1685.0324 25.8015 23.36216 25.8015 23.36216l-48.3988.18388c-9.0359 8.54492-13.8696 15.81577-22.48 28.08888-.5132-.22564-15.6784-12.24652-15.046-10.8986 0 0 3.6362 32.92595 2.0185 44.97485-1.1096 10.2351-2.6292 21.22752-3.3077 30.66669 2.1508-.46912 5.3241-1.08092 5.9251 2.20936.5252 4.49378-5.2451 3.451-5.3794 3.06176.01-.004 3.2205 6.93241 3.2205 6.93241s-4.9977 8.64463-4.8592 8.26864c.086-.23278-4.5424-7.67409-4.5424-7.67409s3.4358-6.24751 3.9528-7.51408c.3533-.86529-5.2582 2.28001-5.4784-2.27934-.2266-4.691 5.8561-3.57175 5.5402-2.97892-.7515-10.0306-2.4299-20.40149-3.4922-28.85255zm75.1478 22.56565c.1381-.10385-13.2636-5.39273-25.5744-4.89418-4.3373-1.69313-11.4114-3.46523-16.1334-.30881-5.3095-3.60493-9.8938-7.57358-14.5514-11.50549 1.3045-.017 6.9151-32.31653 9.3858-42.5071-1.4255-13.63622 11.6767-13.62633 12.8143-2.70407 14.1149 14.63319 31.3972 29.76904 49.2116 44.66112-2.8341 5.89301-13.0632 10.3866-15.1525 17.25853zm30.8603-96.46388c-16.0922-16.44971-49.7699-45.85705-49.7699-45.85705l15.7649-15.42756c8.2753 2.47265 16.7794 4.53915 26.393 4.63656.038.0378 10.5356 4.78864 16.129-.0127l14.5524 11.56146s-6.0357 31.82949-9.5798 42.93866c.075 4.40044-1.5853 9.7599-5.9201 10.556-3.7017.67983-6.5485-4.58232-7.5695-8.39537zm32.5249-38.10557c1.6786-10.34724 2.0245-17.87923 3.1896-29.95101-7.2585 2.13154-7.1602-7.67717-.03-5.09729l-3.305-7.30209 4.8939-8.22481 4.4926 7.81081-3.8686 6.9242c8.3989-.0901 6.1767 8.21599-.8233 6.0732 1.3057 11.56445 4.1805 23.24683 4.0411 34.67951 2.4884 18.33624-3.0617 43.8501-2.1427 44.45501l7.8412 5.40705-1.3398 39.89263-12.3826-5.44075-3.6853 2.49216c1.1829 2.34773 2.6877 4.59861 3.1959 7.14938 0 0 8.5279 7.03202 7.3443 9.22369.5495.32311-6.0687 9.10544-8.0109 8.88561-3.7016-.41896-7.9953-5.22247-9.2316-8.63127-1.0459-3.43622 7.6566-6.80421 6.5589-9.31813-1.3132-3.00711-4.628-4.45321-7.5666-5.3373-4.0512-1.21879-5.9047-4.43403-6.0906-4.43403 0 0-1.5742 12.75044-3.0901 11.73102-6.0979-4.10071-1.9276-17.11125-.7963-16.74876 0 0 2.6631.61349 5.8091.91001 11.0844 1.16417 10.3338-12.49828 8.1856-19.11135-.7677-2.58734 2.5181-1.75657 3.9162-2.14943 5.3824-1.59042 13.7072-7.15858 13.7072-7.15858-8.6633-4.81708-16.3108-10.31384-23.1716-15.52553 0 0-6.3689 10.89552-13.9177 18.45302-5.4953 5.50164-6.3893 7.37475-15.5866 14.45916-.1785.13754-6.9698 8.27731-3.736 17.78159 2.7673 8.13346 16.0677 16.9383 15.9701 17.52596l-2.6185 2.50762c.1057.14579-18.828-11.77456-18.3869-24.59589-.021-.48445-8.6047-.65143-8.6047-.65143l-24.9488-23.17965 21.1342-.091 10.8514 8.88437 6.7802.35294c.4431.3907.689-1.79587 6.6604-6.2611 11.4091-8.53128 25.5457-30.43889 25.5457-30.43889s14.9485 10.53924 14.9635 10.54101c-.7478-15.82822-3.2934-32.84932-1.7464-46.49169zm-54.4246-74.80125s-15.5328 29.24809-24.0503 43.02585l-12.0659-3.46886c5.0561-13.45106.2152-39.08816-1.0569-39.73391z" fill="#ffcd00"/><path d="m1703.918 472.80469v280.69922h174.1523v-280.69922zm58.6582 1.6289c19.7661.80962 39.5527.63086 59.33.63086.1229 1.60015-2.3147 5.6012-4.2421 5.68164l-.9219 1.64649c3.6396-1.2538 5.3397-3.63716 6.4121-7.32813h1.4062s-.261.62271-.7617 2.14649c-1.5157 3.68819-4.5412 7.11344-8.08 7.01172l-.7168 1.28125c4.9238-.15243 8.7247-4.78567 9.8535-8.26172.4339-1.13692.6054-2.17774.6054-2.17774h1.6465s-.3742 1.50766-.5996 2.23243c-2.4148 7.7393-8.8894 10.00072-12.4199 9.83984l-.5469.97851c7.2624.35797 13.0246-5.92256 13.8457-11.32812.1631-.61309.541-1.72266.541-1.72266h1.5s-.3837 1.61755-.4961 2.19922c-1.9412 8.31392-10.5272 13.14136-16.1523 12.21094-.2415.39254-.5073.90111-.6953 1.27148 11.2907-.42725 14.7954-6.27442 17.3711-11.4375 3.0716 4.64745 5.7424 9.64505 13.1035 12.46094v1.7793s-.7713.10235-1.4473-.008c-8.9724-1.45346-11.9403 6.95958-8.1211 19.52539 1.0457 3.44057.5772 2.9133-1.6582 5.0664-1.0652 1.02615-1.3379 3.02149-1.3379 3.02149s.556-.93983 1.4883-1.71485c.4061-.33747 1.2388-.65892 1.8535-1.08398 1.6596-.96539 1.6449-1.62775 1.0489-3.91016-.5408-2.77058-1.4144-5.50709-1.6524-8.32812 1.204.6792 2.0657 1.58351 3.4199 1.74804 0 0-.6393-.76199-1.2617-1.25195-.9592-.66413-1.5793-1.48904-2.2031-2.4375 0 0 .7376.22622 1.1738.36328 3.0914.97202 5.7453.90212 8.7461-.92968.3431 8.28913-.793 20.86493-7.7168 29.85742-5.3116 5.98309-15.4804 1.45608-19.2422-.4336-1.5228-.76375-12.8051-7.64091-16.1992-19.80468l-.5625 1.0664c1.2641 3.06186 2.8848 7.2832 2.8848 7.2832-.079-.42825.4852 3.32916 1.6933 9.70899-.6411.007-1.3486-.17475-2.0449-.36133-1.5136-5.65232-1.9167-10.13166-3.1308-15.59375l-.6719 1.16016c.03.18877 1.6456 10.18802 2.7539 14.16015-.6396-.0608-1.8184-.32617-1.8184-.32617-.903-4.19088-1.6103-7.08526-2.4511-11.20312l-.7188 1.26367c1.0232 3.32609 1.4761 6.3557 2.0274 9.57812-.7957-.12022-1.5974-.19619-2.3555-.61914 0 0-1.0626-5.5206-1.3008-6.12304l-.6367 1.09375c.077.33675.9732 3.30721.9004 4.66211-.7616-.12567-2.0828-.50662-3.0137-.82032-.286.50088-.9727 1.5586-.9727 1.5586v.002s19.6298 6.21032 25.8907 4.41992c-.011.17108 11.9949 5.27042 18.6953.9375 0 0 11.6528 8.66637 16.2051 12.12891 0 .39388 1.6065 2.3476 3.248 3.51562 4.163 2.68534 6.5399 6.06233 6.3223 4.61328.2268-2.19046 2.1565-19.80002 2.5273-22.94726 1.3848-10.60515 1.3833-10.49186-.2226-10.00391-6.9498 1.71224-5.7951-7.63579.6621-5.94336l-3.2735-7.22656s3.6394-6.50771 5.3907-8.93164l4.7129 8.56445-3.8594 7.55274c7.5142-.56574 6.7795 8.9086-.5762 5.73633 0 0-.044 2.81575-.029 2.60937.071-.80568.06-1.49327.3145-1.64453 7.1656 2.54877 8.9746-7.59305 1.1211-7.36328 1.2639-2.20961 2.4487-4.36729 3.7617-6.80274l-5.5508-10.15039-6.2734 10.46485 3.1562 6.5332c-.7094-.18479-1.2794-.0721-2.0391.006-4.6487.95517-3.6488 8.45928 1.6641 7.42773.6073-.11794 1.5195-.57812 1.5195-.57812l-3.4296 30.65039s-.3385.27594-1.7149-.71875c-1.5896-1.1487-4.9204-3.64571-5.1328-3.90234 1.19-19.59556-3.6961-40.21276-9.2754-53.1211-.3546-.99026-.1445-20.42969-.1445-20.42969h31.9316v90.36915c-1.6549-1.05045-3.6196-2.43129-5.3203-3.63477-.5097-.41372-.8258-.90587-.6074-1.69531-.5593 1.20039-.2207 1.71679-.2207 1.71679l6.9863 5.59766-.2773 88.85547c-12.4393-5.54386-11.4781-6.58201-21.4961-9.55664.011-.005 2.2132 4.98264 1.5839 5.88281 1.4927 1.43908 4.0031 4.45208 4.125 7.40039 1.3366 1.16032 1.7104 1.30569 2.7129 2.97656l4.1914-1.51953-.9511 4.37891c4.456 3.13009.165 7.33893-.6602 6.95117 0 0 1.9653 4.2319 2.4141 6.1582-.7039-.048-4.2317-1.96721-5.2149-2.42187-2.5571 5.04841-6.8755.81079-6.9101.0664l-4.791 2.14063 1.6953-5.46875c-3.0847-1.88196-5.1674-4.72756-.1797-7.79102l-1.1524-4.26757 4.1016 1.61718s.7656-1.23365 1.3477-2.13281c-1.5345-6.70129-11.6229-5.43365-14.8633-11.46094 0 0-.7956 7.52364-1.6113 10.2461-.3184 7.19617-5.3457-.0828-5.3457-7.69532 0-1.71912 2.1554-7.50247 2.8847-7.7832.7584-.10571 7.959 3.38676 12.7949-.082 2.2017-2.29718 5.9998-8.75866 2.3516-18.875-1.2072-2.33775 2.2945-2.63458 3.4316-1.8457 0 0 10.5241-5.52172 15.2754-8.18164-7.9701-4.3926-24.5423-16.07809-24.5312-16.63282-2.2103 3.52067-4.7432 6.47283-8.3027 11.45118-5.771 6.81535-10.282 13.29218-17.6055 18.73828-10.2992 7.52145-12.7183 15.09167-9.8457 23.98047 2.1759 6.80955 9.5274 11.32776 17.1191 18.50195-13.0784 11.94374-22.0565 21.76843-28.3535 32.62305 5.315 2.80381 18.1348 6.86328 18.1348 6.86328-4.7611 15.8724-2.5944 28.48115.5429 41.13672 0 0-37.2109.0463-56.5195-.5625-.1653.16324-2.2554.0534-2.2832-.0801-.076-1.41516 3.4791-5.3069 4.543-4.76367.535-.52793 1.6642-.79677 1.4609-1.44532-2.6638-.31865-6.7053 4.29863-6.8652 6.20899h-1.5879c-.3255-.28508 2.8833-7.79922 9.3144-8.39844-.067.27018.8625-.58486.1641-.95117-7.4969.8913-10.9889 9.23594-10.7676 9.34961h-1.1582c2.5492-8.20544 9.1864-10.79604 13.0274-11.15235.037-.016 1.2461-.43762.9218-1.15625-8.4893 1.47857-12.7211 5.16413-14.7617 12.3086h-1.5293c1.1045-7.2465 8.5357-13.59561 16.9356-13.38867.2632-.16724.584-.36362.4472-1.1875-9.3221 1.05359-13.9707 4.17373-17.8007 12.20507-3.4256-8.91904-12.9451-13.15205-13.0586-13.18945 0 0-.231-2.49578.3007-2.39258 8.1221 2.94925 11.2224-4.1245 10.8829-8.23437-.189-2.28699-.059-3.54716-.8223-6.84375-.6801-2.93947-1.1849-4.91909-1.1309-6.19531.053-1.26317.4491-1.5186 1.3789-1.94141 1.7414-.79191 2.8306-3.65914 2.4434-4.00977-.8947 2.08499-3.2582 2.44447-4.3477 3.84571-.8698 1.15387-.4864 2.99173 1.0625 9.37109.9438 3.88719-.1765 2.09995-2.3789.88281l-1.4707-.83593c.9864 1.01731 2.0298 1.97763 3.0352 2.9746.8997.82489.3959 1.33339-.8945.85547-1.8582-.9302-5.4383-.54037-6.8106.63086-.535.38214-.7245.34267-.8594-.01-.6006-9.90763.4373-16.00215 3.709-23.44727 2.1152-5.06145 5.264-8.85128 9.4649-9.12109 4.2324-.35203 10.3166 1.13713 15.8437 4.90234 6.491 4.42195 12.8163 11.14445 13.4883 19.39453.026.0955.4996-.70385.7148-1.12695.2968-.98068-.7853-3.92704-2.4765-7.3418-.3122-2.56806-1.1944-7.07074-1.8867-10.11718.5264-.2403 1.6477-.10511 1.9628.27929 1.1886 5.03628 2.0356 8.95684 3.0547 15.70508.015.65785.8569-.97483.8594-1.4082-.1465-1.00652-2.9507-14.21092-2.8945-13.91016.016-.44892 2.66.14224 2.2969.5586 0 0 2.0099 11.0754 2.1523 10.73242l.6797-.94141s-1.9175-8.0874-1.6778-9.64648c.164-.2385 1.6503.24346 2.1211.5.5919.79586.9709 3.68168 1.2207 5.65039.6836.52361.8193-.9889.7676-1.38868-.4926-.78367-1.0139-3.70892-.623-3.85937.3072-.11826 2.0091.56142 2.3359.85352.3844.34368 1.8716-1.71929 1.4942-2.07618-8.0368-3.08811-18.1769-4.89005-25.8067-5.01171-1.7736.007-2.478-.24349-5.1973-1.22852-6.9251-2.50796-12.6507-.009-13.4902.7832-8.4555-5.89349-17.8945-14.1234-25.4082-19.375-.3535-.23468-1.1965-.37495-1.2891-.375-1.1925 9.14282-2.0246 19.7224-3.041 28.16016-.4134 3.34086-.4474 3.86057-.2949 3.95508 2.4567-1.27634 5.6469-.50059 6.2626 1.58979.9207 3.12609-2.0884 5.27903-5.0341 3.75786-1.0938-.56486-1.2509-.45332-.7519.61524.8615 1.92347 3.3476 6.98828 3.3476 6.98828 0 .002-3.2876 7.01464-4.9863 8.88476-1.656-2.68306-3.8393-5.53658-4.7559-8.46679 1.3012-2.5544 3.7587-5.84518 4.5352-8.36328-2.9372 1.34546-6.2481.92565-6.1777-2.94727.1163-2.80596 2.5548-3.40324 6.0937-2.0957-3.6515-24.11911-4.7006-38.42768-3.8066-38.54883-.2408-.17304-4.5415-3.26895-6.7754-5.45508l.2617-185.56055h54.8125c5.6352 15.15439 4.0834 33.37781.7148 42.86719 5.9833 1.0971 12.0274 2.51569 18.8555 6.44727-11.5352 16.96226-29.6424 35.29407-49.2558 47.03125-1.1121.50325-4.7646-1.7818-5.1934-4.03906-.099-.5243.1893-1.55624.7773-1.53711 1.441.46903 2.8374 1.11219 4.2442 1.6875 0 0-1.9598-4.93248-1.0137-5.68165.6152-.40541 1.1194-.74477 1.5137-1.1621 1.4078-1.82381 1.2952-3.89295-.1953-5.48243-.6006-.63083-1.3002-1.06601-1.6504-1.22656 0 0 1.3828-3.84973 2.0761-5.66406l-5.4433 1.80664c-2.5137-3.71824-5.909-3.64852-7.7402.0391 0 0-1.1761-.43808-3.3887-1.41992-1.9097-.84744-3.086-1.28125-3.086-1.28125.7158 2.13891 1.6521 4.14723 2.4707 6.62305-3.7496 2.39759-2.8944 6.44219.2618 7.64843l-1.6621 5.46094s3.5449-1.32512 5.4668-1.83984c0 0 1.6859 1.69903 2.1855 3.3125.8571 2.76789 2.8024 4.77516 4.0332 5.91797-2.0505 1.50743-3.0637 2.01544-5.373 3.1289l7.9726 3.22852c-.4953-1.69021-1.552-2.94404-1.6582-5.08203-.095-1.83154-.1985-1.86587-1.3789-3.10547-2.1696-1.89718-2.4006-4.14809-3.1289-5.63477-.9946-.58852-1.633-1.52412-2.1016-2.50976-.5246-1.10328-3.9536 1.48183-4.4726.99218-.6359-.68071 1.1053-4.16956.9121-4.51757-1.399-.12012-5.319-3.18421-.6504-6.59766l-1.4902-5.55078s3.5546 1.55742 5.2578 2.42969c1.1834-5.54706 6.5787-2.88737 7.4511-.4961 0 0 4.2769-1.41005 4.0118-.26562-.1192 1.02749-.8145 3.5918-.8145 3.5918 3.8455 3.4152 3.0499 5.09229-.074 7.33203-.048 1.81043.7109 4.625.7109 4.625s-2.1758-.96991-3.6093-1.37696c-.5734.57529-1.2241 1.61514-1.1153 2.15039.9722 4.31678 6.2792 5.51762 14.1426 9.92969.2698-2.78897 2.1872-6.60066 2.4043-9.94726.1351-2.44053.2193-2.47902 1.9316-1.69922 4.5057 3.26397 3.1307 12.23441 1.4883 15.91406-.9725 2.08329-1.1327 2.02988-3.0234 1.42578-2.6181-.83655-7.2464-.50092-9.793.36523-3.5214 1.44662-5.1843 9.32675-5.2226 11.72071-.062 2.27399.1131 4.5282 1.3027 7.33789.4929 1.79757-.4114 3.18285-2.0274 2.70117-.3625-.10804-1.2265-.4375-1.2265-.4375l-15.1992 7.88672.3925.65234s9.8344-5.18781 14.6993-7.73437c2.4287.9502 2.1036 1.14533 3.6777-.5.9422-.97323 1.4059-.99257 2.668-.8711 7.6837.73955 11.0856-.38351 12.414-3.61328.1992-.48471.1233-.46787.9082-.86523 1.4536-.56677 2.137-1.5915 2.211-2.87891.048-.8437.4144-.95909 1.0547-1.54883 1.1955-1.10088 1.4382-2.48194.6855-3.90039-.3543-.6675-.6258-.87765-.4785-1.57031.2468-1.16002-.1816-2.36819-1.293-3.64648-1.2793-1.47133-1.27-1.22206 1.1387-3.47266 4.7317-4.51166 8.9013-7.96472 13.5039-12.04687 3.1479-2.79263 2.8079-2.59229 4.0332-1.31446 4.5106 4.70396 6.2791 12.03663 4.248 18.48633-.095.30289-.1351.2684.1016 0 1.2756-1.45069 1.3109-8.74949.2207-11.98633-1.3288-3.97799-2.6159-6.05042-7.0117-9.94531-2.7441-2.4858-10.2129-9.66016-10.2129-9.66016 10.8648-9.45086 22.5672-21.19779 29.1289-31.99804-3.3673-3.6221-18.9785-6.96289-18.9785-6.96289 1.9431-4.0436 5.7863-22.20939-.7949-42.35157zm67.3965.63086 1.4082.0371c.6581 5.04927 5.18 11.06023 9.873 12.92383.6509.2476 1.2754.9082 1.2754.9082v1.03321s-.8208.24232-1.2832.12695c-3.4873-1.67405-8.3271-5.58735-11.125-12.31641-.2235-1.10955-.1484-2.71289-.1484-2.71289zm2.6289 0h1.5c.8073 4.7809 4.3017 8.10669 8.4277 10.95703v.96094s-.5889.24937-.6367.24219c-3.5759-1.48636-8.9969-6.92992-9.291-12.16016zm2.5879 0h1.8085c.6453 3.2127 2.4005 5.91044 5.5313 7.71875v2.06836c-4.238-2.92516-6.7118-5.81463-7.3398-9.78711zm2.7011 0h1.4492c.4747 2.11687 1.7171 3.4841 3.1895 4.85743v1.94726c-2.4605-1.551-4.2394-4.45975-4.6387-6.80469zm4.6543 0-.016 3.59961c-1.1756-1.08065-1.7839-1.66397-2.207-3.53906zm-29.2695 18.88086c-2.9853 1.35875-3.734 2.26051-3.2988 2.58789.3131.23024 2.2359-.59701 3.1992-.72265 5.1976-1.29024 8.7745-1.60603 12.1621-.125 1.1614.50773 2.0488.70898 2.0488.70898s-.039-1.10351-1.1738-1.99609c-4.0339-2.77514-8.9036-2.20864-12.9375-.45313zm25.6973 1.11914c.2378-.008.4737-.004.707.0137 1.1197.0848 2.1583.47059 2.8398 1.23438l-.023 2.125c-2.4132-2.13856-5.0496-2.0673-7.8223-1.63477.9162-1.02555 2.6338-1.68413 4.2989-1.73828zm-20.8067 1.2793c-4.9165.38282-6.619 2.87728-9.793 5.44922-1.3041.99457-1.007 1.76297.5821 1.50195 1.9615-.32217 2.7525-.24434 5.4277.67188 2.9208 1.00031 5.014 1.41538 6.6192.79687 1.2763-.49185 2.0357-.66866 2.1367-.42578.1392.33471-.9728 1.46483-3.7032 3.66406-.9021.72672-1.3378 1.31641-1.3378 1.31641s.8683-.17176 2.3066-1.16211c1.738-1.3926 2.934-2.28164 3.2969-3.04492.1763-.3709.1901-1.69932.5176-1.69922 1.1039.00033.5365-1.38028-.4668-1.9668-.6594-.47088-.5139-.96541.3398-1.87109 1.3396-1.41345.8844-2.05261-.5703-1.17188-.256.13939-.3815-.29091-1.2695-.82812-1.4048-.84987-2.5888-1.24704-4.086-1.23047zm.5156.86133c1.1277-.007 2.1844.27875 3.0274.99023.5125.43262.5605.92578.5605.92578s-.9981.34412-2.4726.33008c-2.1914-.0208-4.0568.21035-6.6602 1.07617-1.9126.63609-2.6621.75977-2.6621.75977s.6488-.71247 1.2617-1.23633c1.642-1.40353 4.4644-2.83078 6.9453-2.8457zm18.3829.12304c2.2645-.0384 3.712.80434 5.2871 2.13868l-.012.41406s-.9581.0117-1.8984-.31836c-1.7295-.60711-4.0654-.52092-5.6797-.0723-1.6673.46347-1.9542.62656-1.7285-.27539.2764-1.10481 2.0428-1.84338 4.0293-1.88672zm-20.4317 4.04102c.1802-.005.7537.0274.9668.0273.5964 2.91416 2.8111 1.95337 3.0313.17774l.8144.002c-.3461 2.36932-3.5627 4.35327-4.8125-.20703zm19.3613.0293c.3991 2.26211 2.4948 3.00378 3.4063.17383l.7324.0137c-.56 4.71936-5.5393 2.42082-4.7422-.16797zm-20.1543.0215c.236.85652.6311 1.50038.959 2.12696-1.2838-.30667-2.1513-.56617-2.9531-1.11524.687-.6152 1.1493-.84896 1.9941-1.01172zm18.5704.0996c.08.80567.3422 1.5244.7773 2.33008 0 0-.8042-.13571-1.3301-.22461-.511-.0864-1.0989-.38271-1.0019-.77539.2128-.8612.7214-1.09786 1.5547-1.33008zm6.5859.14063c.4618.10272.057-.0273 1.5137.39257 0 0 .035.62786.035.91602-.8334.44752-2.2997 1.00484-2.3418.87891.036.25042.8266-1.98114.793-2.1875zm-18.8359.0215s.2332.0896.457.0879c.2357-.002.3796.1206.4512.29297.1329.31992.014.81699-.2344 1.03516-.4129.32576-1.3594.5664-1.3594.5664.4758-.6607.5574-1.32171.6856-1.98242zm1.9375 12.37109s-1.2624.0961-1.7207.35938c-2.0397 1.17138-1.5541 5.32553.6718 5.87891.895.22249 1.7084.34514 3.2129-.375.896-.42888 2.15-.76471 2.502-.61719.7393.30978.9732-.34556 1.1308-1.08399.3528-1.65192-2.3487-1.69186-4.498.0156-2.712 2.15453-4.798-1.03297-2.2344-3.41797.3388-.31517.9128-.79016.9356-.75977zm-21.3829 8.82422 2.2774 2.63867 1.4316 6.29297c-.8682.14805-1.9199-.33593-1.9199-.33593-.7103-2.84667-1.4052-5.69447-1.7891-8.59571zm31.0215 1.58203c-.023.003-.051.009-.078.0215-.096.0422-.5206.23334-1.1074.29883-.3386.0378-.8501-.20238-1.2149-.17969-.9969.062-1.9285.35576-2.1777.45898-.3069.12709-.6093.18007-.8711.0254-.7436-.43956-2.91-.31549-3.5683.0723-.78.33262-1.6551.33749-2.295.006-.2758-.14306-.5579-.50476-.6074-.45508-.1013.10219-.5192 1.88345-.6445 2.57227 0 .24238-.1666.64659-.066.6875.127.0519.5345-.31992 1.039-.57813 1.0346-.52936 2.1915-.48966 4.2227.01 2.507.6157 3.4825.43715 4.9629-.32032 1.1784-.60293 1.8946-.74697 2.6777-.53124.1932.0532.709.31984.7793.25195.1384-.13354-.2411-.87758-.5664-1.61524-.2353-.53368-.3219-.74449-.4844-.72461zm-27.0547 2.83985c2.2004 2.09093 2.036 1.91444 3.4258 2.94922l-.066 2.01562s-1.7036.0377-2.5391-.22265c-.2637-.78369-1.4067-4.71372-.8223-4.74219zm18.1309.76172c-.4485-.0181-.2108.45211-.014.59375.1488.10282.3688.20146.6641.3125.8211.30836 1.5974.57512 2.4433.85742 0 0-.7385.21617-1.1035.33984-.6558.22219-1.6877.46294-1.8496 1.04492-.0001.11299.1595.13054.3321.0625 1.2027-.47431 4.1418-.78084 5.4785-.52148 1.7348.58719 1.844.18218.1758-.69141-.3359-.13265-1.252-.3164-1.252-.3164s.9866-.33874 1.2441-.47657c.266-.14231.5822-.2841.7657-.43945 1.0346-.6677.3233-.94228-.9942-.30859-1.3189.63442-3.668.62286-4.7383.0215-.4739-.24113-.9337-.46467-1.1523-.47851zm-13.8145 2.85156 2.0528 1.60937-2.0996-.20117zm-46.4746 40.42969c-.4144 0-.75.33824-.75.7539s.3356.75586.75.75586.752-.3402.752-.75586-.3376-.7539-.752-.7539zm2.7403.76172-9.4121 4.48242 2.4882.83398-.021 2.58399 2.291-.73438.9707 2.41211zm.416 2.11132c-.4144 0-.75.33826-.75.75391 0 .41566.3356.75391.75.75391s.7519-.33825.7519-.75391c0-.41565-.3375-.75391-.7519-.75391zm-11.9317 4.58594c-.4144 0-.7519.33239-.7519.74805s.3375.7539.7519.7539.752-.33824.752-.7539-.3376-.74805-.752-.74805zm2.8926 1.40234-10.5644 4.86719 3.1328.95508-.8281 3.23438 2.5507-1.07422 1.4239 2.16992zm.3125 2.31641c-.4144 0-.7519.33825-.7519.75391s.3375.7539.7519.7539.7461-.33824.7461-.7539-.3317-.75391-.7461-.75391zm-20.9629.48438c3.9725-.005 8.4289 1.51262 9.9493 4.92382.4045 1.70539-1.2675 2.71981-4.836 1.73829-5.8991-1.62255-6.9998-1.80454-6.0195-.79883.1292.1325.3885.45791 1.2715.75976 2.2218.75958 6.5236 1.63742 7.6836 1.51758 1.585-.21091 2.6829.5284 2.2871 1.85352-.4495 1.50516-2.5088 2.1228-5.6035 1.68554-3.2052-.45285-4.9698-.82522-6.0352-1.14843-1.3672-.4148-1.4155-.37893-.7676.58398.3374.50141.3714.90399.8711.99805 2.1164-.11982 4.3694.28513 6.3125.46875 3.4883.31311 4.0341 1.30511 1.4727 2.82031-1.2143.71829-4.8462.5226-6.9102-.22266-1.4752-.53264-4.8566-1.29393-3.5527-.26171.3133.24797.206.85535.7519 1.04687 1.7886.24746 6.8442.60466 7.6348 1.32227.5091.46216-.6372 1.63554-2.998 2.24804-3.5533.67537-8.8658.39278-10.2696-.56836-2.5982-5.30786-1.2008-13.99485 2.8672-17.39062 1.298-1.01854 3.5072-1.57308 5.8906-1.57617zm23.295 2.76953c-.4144 0-.7461.33824-.7461.7539 0 .41565.3317.74805.7461.74805s.7519-.3324.7519-.74805c0-.41566-.3375-.7539-.7519-.7539zm3.1386.80468-10.9082 5.44922 2.7578.82032-.6523 3.18554 2.5566-1.05664 1.5469 2.14063zm.084 2.66602c-.4144 0-.7519.33825-.7519.75391s.3375.7539.7519.7539.752-.33824.752-.7539-.3376-.75391-.752-.75391zm6.3438 6.42578c-4.8376 4.72184-10.2898 8.46128-15.2696 13.04688l1.0801-.043 2.7129-2.45508 76.4141-.24023-1.7852 2.61328.752.32422s2.2923-3.39865 2.1367-3.55469c-16.789.0482-29.7481.01-48.166.13672-3.3564-3.33476-6.9028-6.45893-10.4121-9.62696zm-23.2286 3.02735c-.4144 0-.7519.33824-.7519.7539s.3375.75391.7519.75391.7481-.33825.7481-.75391-.3337-.7539-.7481-.7539zm99.7618.57617c7.5819 6.21825 15.2814 11.12608 23.1757 15.83594-4.1202 2.29284-8.9743 4.89232-13.0761 6.97851-1.5615.59183-2.2452-.17985-3.3535.0254-.7991.20426-1.0277.3548-1.5039.98633-.781 1.03566-.5677 1.00145-4.7422.8125-4.2118-.19065-5.948-.0979-6.8536.36523-.8706.44532-2.3632 1.96861-2.3632 2.59961 0 .60734-.4765 1.38529-1.3438 1.64649-1.0103.24608-2.1764 1.04809-2.1269 2.29297-.2701.93727-.8422 1.35365-1.3496 1.86718-1.2005 1.21482-1.0797 2.16899-.7325 3.29688.1607.50564.7748.46656.2813 1.88281-1.2883 3.69698 3.0566 5.68822 3.1308 5.66797l-19.2812 16.55078c-2.1782-1.26279-4.3679-5.10327-5.0977-7.50586-2.6917-8.8615.696-15.86237 5.8106-20.24023 1.7721-1.51691 4.1524-3.32466 4.8144-3.7793 9.6317-8.2393 18.0094-19.90796 24.6114-29.2832zm-96.9766.63672-10.6641 5.05273 3.4336.58008-.6562 2.97656 2.4883-.94531 1.3164 2.50781zm.6523 2.36132c-.4144 0-.7519.33825-.7519.75391s.3375.75.7519.75.7461-.33434.7461-.75c-.0001-.41566-.3317-.75391-.7461-.75391zm96.5118.43946s-3.3695 8.32397-4.0821 11.14453c2.8541-1.47546 11.2149-5.74414 11.2149-5.74414l-3.5762-.66602.4023-3.25976-2.748 1.39843zm-120.6114 3.38672c-.4144 0-.7519.33824-.7519.7539 0 .41565.3375.75391.7519.75391s.752-.33826.752-.75391c0-.41566-.3376-.7539-.752-.7539zm3.2657.6875s-7.9359 3.73401-11.5176 5.3457l3.3437.70312-.5859 3.26172 3.0176-1.17968 1.2168 3.22265zm.4257 2.46289c-.4144 0-.752.33824-.7519.7539 0 .41566.3375.75.7519.75s.752-.33434.752-.75c-.0001-.41566-.3376-.7539-.752-.7539zm112.3008.54297c-.4144 0-.7519.33238-.7519.74804s.3375.75391.7519.75391.7461-.33825.7461-.75391-.3317-.74804-.7461-.74804zm12.9746.68164-3.7773 10.52734 10.2148-5.1582-2.7734-.75977.014-2.60351-2.2813.66601zm-120.7246 2.53125c-.4144 0-.7519.33824-.7519.7539s.3375.75391.7519.75391.752-.33825.752-.75391-.3376-.7539-.752-.7539zm111.7285.1914c-.4143 0-.748.33825-.748.75391s.3337.74805.748.74805c.4144 0 .752-.33239.752-.74805s-.3376-.75391-.752-.75391zm-108.5957.77149-10.8242 5.29687 3.3594.78906-.3691 3.38868 2.7324-1.55469 1.4824 3.0918zm.6758 2.23828c-.4144 0-.709.33826-.709.7539 0 .41566.3376.75.752.75s.7461-.33434.7461-.75c0-.41564-.3747-.7539-.7891-.7539zm112.5606.66601c-.4144 0-.752.33825-.752.75391s.3376.75.752.75.7519-.33434.7519-.75-.3375-.75391-.7519-.75391zm-15.9219.62891-4.0039 10.39453 10.7695-4.94922-3.418-.80273.061-2.71485-2.4024.90625zm-10.168.70508c0 .24015-2.7519 2.9375-2.7519 2.9375l-31.7852.29492c3.4193.15326 9.1893 6.26671 13.3496 9.99023l7.8906-.3164c4.3697-4.30303 10.9353-7.57535 13.8633-12.89063-.207-.2703-.5638-.03-.5664-.0156zm30.0274 2.03515c-.4144 0-.752.33825-.752.75391s.3376.74805.752.74805.7461-.33239.7461-.74805-.3317-.75391-.7461-.75391zm-24.5371 3.62891c-.4144 0-.7461.33239-.7461.74805s.3317.7539.7461.7539.7519-.33824.7519-.7539-.3375-.74805-.7519-.74805zm12.9355 1.03906c.9446.002 2.062.0546 3.2012.0488 2.2783-.0116 4.4728.0672 5.041.50195 3.5215 2.9741 1.853 16.87744-2.5859 18.63282-4.8711 1.09966-8.2412 1.30299-12.4688-1.49414-1.199-.58597-3.4174-2.35946-2.9531-3.82227.633-1.79808 2.2152-1.66611 7.209-.10742 1.8227.56889 2.8236.45378 3.289.0977.4346-.33251-.1329-.70356-1.0644-.70703-.3752-.001-1.9913-.4011-3.3379-.8164-1.9012-.58632-2.4467-.75905-3.6758-.83203-2.0667-.12273-2.668-.2027-2.668-1.47071 0-2.36778 3.2838-2.68094 9.3262-1.29101.7227.16622 2.032.34941 2.3535.33984.233.0892-.4616-.7844-.5781-1.30664-.2181-.18647-.6079-.27562-1.6367-.31055-3.8858-.38231-7.1118-.64581-7.1817-1.15625-.3432-2.50653 4.6827-3.18873 9.8946-1.17773 1.3381.5163 1.3658.30249 1.3554-.0879-.019-.72216-2.2603-1.98377-5.5644-1.94922-3.214.0336-2.7651-1.60305-.1231-2.83398.4516-.21037 1.2234-.25984 2.168-.25782zm-9.2285 2.73438c-.4144 0-.7461.3402-.7461.75586s.3317.7539.7461.7539.7519-.33824.7519-.7539-.3375-.75586-.7519-.75586zm-12.2598 2.39453-4.373 10.92969 11.0449-5.64258-3.6426-.68555.3203-2.30078-2.6699.50781zm-4.9492 7.19727c-.4144 0-.75.33825-.75.7539 0 .41566.3356.75391.75.75391s.7479-.33825.7481-.75391c0-.41565-.3337-.7539-.7481-.7539zm10.0742.44531-3.7129 9.51367 9.4239-4.22266-2.7832-.76172.3964-2.88281-2.3925 1.00781zm-6.5722 2.68359c-.4144 0-.7521.33825-.752.75391 0 .41566.3376.7539.752.7539.4142 0 .748-.33824.748-.7539s-.3338-.75391-.748-.75391zm2.414 3.63281c-.4143 0-.7519.33434-.7519.75s.3376.75391.7519.75391c.4144 0 .7461-.33825.7461-.75391s-.3317-.75-.7461-.75zm-4.7383 2.22852-3.1796 9.01172 8.8554-4.30078-2.5879-.85547s.1422-2.02552-.1015-1.93164c-.1545.0594-1.8203.52539-1.8203.52539zm7.8828 1.07812c-.4143 0-.7499.33239-.75.74805 0 .41566.3357.75391.75.75391.4145 0 .752-.33825.752-.75391s-.3375-.74805-.752-.74805zm34.8497 2.75391s10.1028 5.11214 14.2481 7.05859v94.05274h-55.4434c-6.2681-18.7632-1.7658-35.0625-.1055-41.88867-2.9223-.24428-17.9954-5.1394-18.4472-6.82422 5.9717-9.51319 14.0749-18.15827 22.666-26.05664 8.2505-7.6867 16.411-14.0309 24.041-18.64258 2.9592-1.78856 3.857-2.05102 5.0195-.99024 1.8958 1.72978 3.0763 3.23422 2.4571 4.44532-.1396.27313-.586.72656-.586.72656l-4.5586-1.73828 1.4766 5.18555c-4.1014 1.67438-4.0266 6.12244-.068 8.48046l-2.7246 6.28516 6.3321-2.79492c.2424 1.36988 4.758 4.68249 7.5664.002l5.7168 2.79688-1.9707-7.01953c1.8774-1.79359 2.9713-4.65935.02-7.30079l1.3594-5.5-5.1641 1.68555c-1.2937-1.7735-2.0447-1.65113-2.3418-2.13476-.089-.66067-.1045-2.20025-.9629-3.61915-.71-1.17358-1.5221-2.42012-2.2812-3.29296-.4027-.68278-.082-.74109 1.9804-1.85938.9687-.52539 1.7696-1.05664 1.7696-1.05664zm-46.5899 1.58008c-.4144 0-.7519.33825-.7519.7539 0 .41566.3375.75391.7519.75391s.752-.33825.752-.75391c0-.41565-.3376-.7539-.752-.7539zm3.3848 3.48633c-.4144 0-.752.33435-.752.75 0 .41566.3376.7539.752.7539s.7519-.33824.7519-.7539c0-.41565-.3375-.75-.7519-.75zm-111.9297 7.28906 5.9746 4.04101c.1199.50182-.8983.16543-.3496 6.34766.4958 5.58492 2.1909 15.2709 3.9727 30.98633-7.0954-2.99915-8.4719 9.64853-.1543 6.9375.3738.0778-4.3555 7.36133-4.3555 7.36133s3.788 6.89578 5.6015 9.82617l5.7227-10.18555-3.7422-7.04883c5.8603 2.99492 8.8957-5.92293 2.7422-7.08984-1.4867-.20313-3.1309.54102-3.1309.54102l3.2364-30.50782c2.6086 1.77749 7.3672 5.3418 7.3672 5.3418 1.0832 16.80854.2893 30.81652 9.6601 55.27149l.096 16.93359h-32.6406zm6.5195 3.71875c.012.007.1387.10547.1387.10547-.051-.0829-.097-.1116-.1387-.10547zm57.4844 29.06836c.4437-.0196.857.0967 1.1094.30859.2781.26455.4746.94344.1074 1.11719-.406.0606-1.4609-.90556-1.666-1.35938.1502-.0383.3013-.0599.4492-.0664zm2.8516.3164c.5768-.0117 1.2588.0997 1.5703.45704-.1427 1.10107.5372 3.09176.4082 3.56445-.3481.17133-2.1091-1.72292-2.543-2.18359-.091-.62925.01-1.42787.041-1.78907.1514-.0269.3312-.0449.5235-.0488zm-15.6153.44727c-.1896.0105-.485.0928-.8965.2832-1.0828.5537-2.3141.95371-3.8593.94727-1.24-.005-3.3744-.65079-3.1582-.49219.5647 1.01277 2.0379.48348 2.0664 1.14453-.3669.65376-1.3462.59057-1.834 1.2168-.1024.16601.1436.3073.834.23438 2.0946-.95285 4.8322-.93641 7.3359-.11133.5268.11043.181-.39527 0-.5293-.3251-.23937-.8621-.49064-1.3144-.54492-2.188-.38989-1.2274-.60965.2363-1.26563.8056-.29536 1.1597-.91429.5898-.88281zm18.8047.0742c.5645.0119 1.1708.15525 1.5547.48437.3756 2.43981 1.4464 6.3608 1.2793 7.6836-.1587-.12708-1.5167-1.46973-2.5195-2.89453-.353-.853-.9026-3.8226-.8555-5.24414.169-.0233.3528-.0333.541-.0293zm-14.959 3.30859c-.2907.0228-1.02.395-1.8183.71875-1.3474.54648-2.5949.41852-4.4082-.0879-1.5749-.43983-2.1473-.31723-3.7149.47461-1.0401.66873-2.1796.85599-3.0039.38867-1.0678-.60897-1.0604-.40197-.5312 1.10352.1321.37604-.1293 1.51452.3359 1.77734.3535.1997.7618-.46422 1.0352-.55664.2735-.0924 1.9906.67932 2.9492-.17187 1.7104-.62218 2.2255.38665 3.4101.28906 1.9232-.67997 3.1257-1.38753 4.7774-.0742.098-.49187.4827-3.17815 1.0976-3.81445-.016-.0368-.062-.0521-.1289-.0469zm-3.5039 7.73242c-1.384.0165-2.1315.87004-3.916.70704-1.4252-.10016-1.9143 1.16761-1.3105 2.09179.425.65081.9947.77023 2.9375-.12304.7991-.36742 1.9093-1.17642 2.5586-1.11133 1.9003.19052 2.3597 2.03296.7773 3.58984-.7699.45461-.7761.948-.541.95703.6256.0241 1.8922-.72588 2.1797-1.59961.7877-2.3931-.6295-4.55469-2.6856-4.51172zm6.209 11.02735c-1.8003.38029-4.395 2.45268-5.2773 3.79492-.8252 1.30763-1.6159 2.78701-1.0391 3.51758.4727.5987 1.1347 1.17938 1.1914 1.50391.049.28343-.3377.56517-.6992.9707-1.5812 1.77378-1.2034 1.87036 1.0137.71875 2.4204 3.29572 7.231 2.23444 10.0976.16601 4.5065-2.95724 6.9904-5.78409 3.4395-4.60351-1.629.54157-2.2389.44696-4.2168-.44922-2.9648-1.34337-5.237-1.73624-7.6934-.87695-3.111 1.08832-.725-1.48526 2.7754-3.71485.7583-.48375.8523-1.0357.4082-1.02734zm-19.5059 5.07422c1.053-.0767 2.1448.71207 2.7247 2.61133l-1.0371.0156c-.7424-2.50667-2.536-2.50177-3.3126.0156l-.8671-.0606c.4247-1.56237 1.4393-2.50538 2.4921-2.58203zm18.4747.18945c1.3416-.12876 2.8003 1.25045 2.705 2.62891l-.7793.0351c-.4725-1.5182-2.1389-2.85336-3.3125-.36523l-.541-.11133c.3598-1.49034 1.1227-2.11024 1.9278-2.1875zm-2.4922.3457c.4854 0 .6082.5529.057 1.45118-.3886.63263-.8514.57474-1.3144.0977-.4181-.41935-.3917-.49288.062-.9082.4842-.44246.9041-.64075 1.1953-.64063zm5.7402.0156c.2108-.006.6125.16785 1.0625.32031 1.1829.40068 1.4516.73247.9668 1.21875-.4762.47762-1.3798.62088-1.7969.34961-.019-.59729-.6084-1.05675-.6289-1.65625 0-.16085.1856-.22596.3965-.23242zm-18.5312.0215c.8201-.0376 1.92.44847 1.8398.92383-.088.51873-.8975.85805-1.5645.91406-.4466.0584-.4278-.12287-.5449-.4414-.1045-.28391-.2401-.64622-.3164-.92969-.1839-.54543.1667-.45088.586-.4668zm-5.6094.17969s-.4586 1.37222-.6641 1.83984c-1.7162-.0924-1.5546-.85179-.7441-1.40039.4359-.33281.8769-.33959 1.4082-.43945zm27.6035 2.99609c.096-.0137.1584-.001.1738.0508-1.9607 2.61341-7.2762 4.50386-10.334 1.46289.9029-.45727 1.3917-.62707 2.0489-.45508 2.1369.55921 4.7964.16082 6.6054-.50586.613-.22591 1.2167-.51171 1.5059-.55274zm-28.9356.26368c.3105.005.6968.27491 1.2364.44921 1.5197.49107 4.0443.43467 6.0136-.0215.9432-.21837 1.3888-.51147 1.5958-.36133.3691.26789-.013 1.20228-1.375 1.80274-1.7741.65629-4.4799 1.01336-6.5293-.0352-1.7531-.8968-1.9471-1.85194-.9415-1.83398zm-.4687 1.96289c1.6075 1.06501 3.2166 1.39985 5.2051 1.21484 2.9779-.10935 3.5087-.47733 1 .85547-2.3182 1.23159-5.8917 1.00522-6.5801-.33008-.3945-.76503-.1405-1.67606.375-1.74023zm14.4277 1.78711c-.011 0-.018.0006-.025.004.2403 1.61138 2.9376 3.08709 4.2325 3.43555 2.7472 1.22228 7.1151.012 10.4023-1.41016 2.4004-1.03847 3.2658-2.60567.4063-1.71484-4.6009 1.43337-10.3753 1.54262-13.2676.42969-.9406-.44715-1.5869-.75115-1.7481-.74414zm-15.1386 6.03515c5.7575 1.303 12.715 10.2075 12.6894 14.10156h-1.8594c-2.8307-9.90621-10.1815-12.04916-10.9004-12.64062-.3293-1.21547.084-1.49044.07-1.46094zm-.092 2.50782c6.8424 3.00619 9.2758 8.36932 10.3007 11.59374h-2.0019c-1.4903-4.43667-4.1681-7.60065-8.3145-9.57031-.281-.61775.016-2.02345.016-2.02343zm-.012 3.0371c3.5066 1.03705 6.5982 5.66513 7.4766 8.55664l-1.75-.01c-1.2407-3.22637-2.9992-5.29479-5.793-6.48633-.1155-.60794-.092-1.2952.066-2.06055zm-.059 3.14454c1.6464.33249 4.435 2.89826 4.8359 5.4121h-1.6074c-.5667-1.69441-2.317-3.24164-3.2148-3.87304 0-.30777-.016-1.53906-.016-1.53906zm.1699 2.68359h.01c.1767-.11074 2.6334 2.10885 2.2188 2.72851h-2.2129c-.026-.68999-.043-2.7356-.012-2.72851z" fill="#004c97" stroke-width="1.06667" transform="matrix(.937503 0 0 .937498 1802.06 -802.178)"/><path d="m3491.7386-356.81863c-3.9124 7.60072-23.9858 41.8322-24.1895 43.02342l5.1411 2.28054 24.9571-45.12964s-5.1717-.16873-5.9087-.17432zm59.0537 28.65116-2.1748 3.09903 1.7645 3.54449 2.1385-3.37988zm-91.8201 34.28264s-7.1984 7.17333-10.0113 10.51915c6.047 6.05146 17.6043 13.64994 17.6896 25.34222l7.9683.0304 25.7927 23.13979s23.3566.17059 23.7918.0692c.4704-.10964 8.769-12.02509 8.769-12.02509l14.8007 10.8236s-.7099-11.657-1.2691-18.79985c-.1831-4.77762-.3406-7.71599 3.1408-9.83047-4.784-2.28729-4.4812-6.49187-.9635-9.57984-1.8237-.71151-3.5431-5.42536-3.074-7.62631 0 0-1.5254-1.20623-2.4412-1.8746-2.2322 2.04673-5.7472 5.0575-6.4456 8.25082-.6559 3.49564 2.8831 5.89003 4.9288 3.33626.5766-.71969 1.0909-.51815 1.091.42127 0 1.90597-2.3903 2.98237-4.4123 1.99014-.4724-.23187-.8896-.38599-.9316-.3438 3.8479 9.04147 5.2574 12.52392 3.1185 18.0468-.9244 3.42515-.489 5.46198 1.1634 5.46198.9303 0 .9011.89646-.039 1.22507-1.9974.69836-3.2365-.77806-3.3068-3.93185-.043-1.91677-.076-1.96385-1.0572-1.50107-3.4154 1.61029-7.125-1.2682-5.5178-4.28049.3377-.63288.7367-.43331.9462.46969.3932 1.69444 1.2782 2.44163 2.8771 2.43562 3.6862-.0139 5.2299-5.23776 3.1041-10.49784-.4268-1.05576-.6417-.99565-1.2021.33895-.8791 2.09378-2.3524 2.71013-3.5674 1.49139-.4073-.40846-.6044-1.07135-.3283-1.10402.064-.008.4693-.025.8979-.0387 2.1476-.069 2.8892-2.15884 1.8827-5.30219-.8845-2.76196-1.0208-3.26263-1.2841-4.75986-.4067-2.31347-.123-4.06959 1.0186-6.3142 1.8137-2.54923 3.51-4.23895 5.9822-6.27075-1.5227-1.2768-2.8786-2.26736-4.5971-3.55054 0 0-10.9831 30.22977-10.2056 42.00725-1.3926 15.51787-12.7661 11.22484-13.6034.47782zm.6649 4.6839c3.1112.90561 5.2202 5.8607 6.4824 15.08671.468 3.42143 2.5469 8.21306 4.055 9.34541 3.8053 2.85738 9.7612.65537 9.7659-3.61227.01-5.31281-7.4308-6.10028-7.5453-.79896-.027 1.24951-.6664 1.31457-1.2792.1259-.5467-1.06037-.054-3.0423 1.0089-4.04322.6814-.64148.628-.76242-.671-1.48171-4.5242-2.50503-6.4488-6.24072-4.0309-7.8298 1.0573-.69486 2.5024.18366 1.8392 1.11854-1.0363 1.46091-1.0495 1.69217-.1834 2.90531 2.5515 2.82919 5.7187 2.83696 8.699 4.19333 3.1424 1.43641 4.5774 4.59908 3.4806 7.67001-.2589.72439-.5102 1.43909-.56 1.58823-.1126.33695.072.33888 2.2833.0436 3.5194-.46994 7.4292.79111 9.3556 3.01668 1.0355 1.19629 1.866 3.88574 1.8923 6.1302.01.43212.1377 1.40831.2993 2.16929.1616.76099.376 2.04728.4731 2.85689.9208 7.68081 7.296 11.60926 10.0507 6.19315 1.7336-3.40851-2.2753-6.81787-4.3157-3.67038-.7167 1.10554-1.4556.59719-1.0427-.71664.8023-2.55307 3.9807-2.98733 6.1453-.83769 1.1703 1.16236 1.7316 3.79893 1.1634 5.47166-.2983.87789-.2669.93359.3813.70696 1.4546-.50861 3.9688-.019 4.8709.94906 2.1256 2.28119 1.6994 5.01977-.9172 5.90746-1.1899.39972-2.5376-.0157-2.9785-1.41392-.1936-.99668.4903-1.28341 1.0185-.42611.9895 1.6059 3.1445.31146 2.6358-1.58339-.5787-2.15585-2.4158-2.61356-5.8074-1.44297-5.3913 1.86079-7.1316 1.70548-9.7127-.86675-1.8427-1.83623-2.5355-3.42267-3.0316-6.92431-.5479-3.86646-.6003-3.9666-1.5545-3.15226-4.5625 3.89372-10.5898-1.99045-6.7246-5.85904 1.1951-1.19869 2.0749-.15432.9993 1.18633-1.5702 1.95709.4768 4.68285 3.0413 4.04807 4.6698-1.1559 3.7165-8.0105-1.3372-9.61173-1.5405-.4881-5.7724-.28568-9.0273.43095-9.089 2.00118-13.1044-1.8901-14.9746-14.49748-.2185-1.473-.4742-2.56159-1.3372-5.73314-1.0238-3.76242-4.5059-5.80493-6.406-3.75753-1.5149 1.63241-.7183 3.82971 1.3903 3.83501 2.102.005 1.4578 1.45095-.7337 1.64634-3.8031.33907-4.4646-6.01061-.8159-7.82981 1.3296-.66457 2.3471-.75671 3.6552-.53598zm-50.8498 2.12918 1.2418 4.58128 4.6994 1.33169-1.4901-4.29961zm12.1186 1.4117-1.262 4.08888 3.4999-1.22259 1.2248-3.91842zm38.658 6.69397c.7466 0 1.3516.60702 1.3516 1.35581.0002.74879-.605 1.35581-1.3516 1.35581-.7465 0-1.3516-.60702-1.3517-1.35581 0-.74879.6052-1.35581 1.3517-1.35581zm-44.9261 2.37683-4.0825 1.36341-.7131 3.24149 3.7527-.8449zm8.5267 1.46502-2.9327-.90127.6941 3.34664 3.2061 1.31431zm131.3587-.63392-1.9468 1.51926c5.6749 4.94765-.4506 9.71572-.6409 9.39259 4.1025 2.72366 3.3717 7.02002 2.8394 10.95302-.9711 7.01725-1.3495 13.65451-2.4088 20.84558 0 0 4.9428 3.42105 8.2305 4.74521.062.008.02-42.1943.02-42.1943zm-70.0306 6.35537c.7466 0 1.3517.60702 1.3517 1.35581.0001.74879-.6051 1.35581-1.3517 1.35581-.7465 0-1.3515-.60702-1.3517-1.35581 0-.74879.6052-1.35581 1.3517-1.35581zm-82.9751 3.47001.1694 39.38048 8.127-14.57632-5.5915-6.46961 4.8329-5.17583c-2.8486-4.21774-5.1755-8.69712-7.5378-13.15872zm79.1325 6.00129c.7466 0 1.3517.60702 1.3517 1.35581.0001.7488-.6051 1.35581-1.3517 1.35581-.7465 0-1.3516-.60701-1.3517-1.35581 0-.74879.6052-1.35581 1.3517-1.35581zm18.4504 4.0287c.7465 0 1.3516.60701 1.3517 1.35581 0 .74879-.6052 1.35581-1.3517 1.35581-.7466 0-1.3517-.60702-1.3517-1.35581-.0001-.7488.6051-1.35581 1.3517-1.35581zm52.8501 43.86989 5.9696 6.14563-4.7257 5.82369 7.4048 12.49651-.1183-38.66468zm-150.508-12.93321.2834 42.35592 6.3832 4.67063 1.6188-1.5333c-4.1191-4.41231-1.6588-7.69466 1.4466-9.59383-5.4781-1.27941-3.815-8.56723-3.4881-11.94447-.1339-6.26998 2.1571-13.42423 1.4517-19.45242zm36.7635 5.88739-9.1486 12.78543s-10.0528-7.63768-15.1215-11.08343c.5425 5.5173 1.0369 12.55575 1.7095 18.49058 1.644 8.66541-2.6356 8.81491-2.675 9.64464 6.8022 5.17764 1.093 10.01996.07 9.77665 3.6224 1.97839 3.324 7.9889 3.324 7.9889l1.7179.97466c2.6004-1.76238 5.3963-4.49606 6.3143-7.32621 1.163-3.95327-2.2598-7.23729-4.4123-4.23207-1.0574 1.47625-1.9045.48899-1.0379-1.21054.7909-1.55116 2.8561-2.32994 4.2288-1.59308.7984.42858.6197-.68336-.6131-3.79627-.4135-1.04441-.7498-2.18344-1.3323-4.49354-.5634-2.23448-.3444-4.92844.6324-7.67001 1.4081-3.95271.9086-6.43192-1.3469-6.64831-1.2034-.11547-1.3337-.49339-.3524-1.05075 2.1908-1.24453 4.3151.5273 4.2288 3.52994-.047 1.62392-.029 1.65113.8255 1.30739 4.3227-1.73926 7.7384 2.7601 4.7164 6.21252-.9241 1.05506-1.5056.38563-.8979-1.03139.9392-2.1897.045-3.75051-2.153-3.76721-3.1886-.0242-4.9534 4.39426-3.6978 9.2534.392 1.51654.4524 1.53577 1.511.52296.9396-.89904 1.6421-1.18692 2.3702-.96844 1.5094.4529 1.9052 2.0638.4586 1.86424-2.4857-.34292-3.139 2.26896-1.733 6.91463 2.0547 7.07225-.364 11.01794-6.266 15.28676 2.1289 1.90252 3.4905 2.98346 6.3035 4.70183l10.0433-40.7064s-.1693-2.31167-.4163-3.40108c-.01-10.92646 10.1551-11.97259 13.3361-2.05191.3055.95263 1.9219 3.38496 1.9219 3.38496l52.9116 47.0966s9.878-9.57511 9.7426-9.82859c-7.5043-7.58649-17.6394-12.95026-18.0083-24.98762-1.7982-.052-7.8103.0593-7.8103.0593l-25.728-23.66936c-8.0743.0517-15.2356-.52768-23.6154-.27918zm14.416.88681c1.413-.0446 2.8385.69197 2.8386 1.87393 0 1.01995-.6812 1.25337-1.2455.42611-.7886-1.15634-1.7042-1.24866-2.6358-.26632-2.5822 2.7227 1.4302 5.21113 6.0439 3.74785 2.8255-.89613 4.1936-1.13788 5.2281-.9297 4.3589.87709 6.4638 3.82704 6.8356 9.57298.1891 2.92158.1836 2.91083 1.4434 1.75287 3.0665-2.8183 7.4975-1.24977 8.1873 2.90047.2962 1.78107-1.6154 4.02385-3.4323 4.02385-.7125 0-.5994-.74616.169-1.1137 1.848-.88388 1.9208-3.80668.1255-4.94871-2.3832-1.51595-5.5228.84854-5.4839 4.13038.047 3.945 2.9842 5.7622 8.7859 5.42808.8496-.0489 2.9824-.14946 4.7357-.22274 2.7711-.11838 5.7495-.64209 8.5735 1.49624 2.9572 2.35897 4.9199 7.04839 5.759 13.82442 1.3223 8.33988 2.3441 10.57463 5.1364 10.77502 1.6564.11887 3.0606-1.29638 3.0606-2.94038-.0001-1.15905-1.5287-2.18049-2.6889-1.79645-1.4009.46377-1.6837-1.05851-.3041-1.63665 1.9113-.80106 4.2453.74257 4.7647 3.15225.3027 1.40452-1.2774 4.09856-2.9347 4.77073-4.3233 1.75344-7.3975-1.82868-8.4098-9.84533-.6209-3.67645-.962-6.15497-2.1047-9.29698-2.0975-5.78338-5.5441-8.17001-9.2976-6.4401-4.2505 1.95894-3.407 8.34171 1.0958 8.29465 2.4738.19637 2.992-1.62696 3.0431-3.57913.058-1.43991 1.6851-.0881 1.8244.90298.1334 1.20236-.9412 2.69016-1.8898 3.39397-1.5329 1.02929-.9876.96482.5801 1.37885 4.2148.77883 7.3475 6.37346 4.8274 8.27319-1.3093.8009-2.7005-.37802-1.7925-1.53576 1.4433-1.84051-.9994-4.74837-5.4457-5.72542-5.8236-1.27969-8.1423-5.6275-6.042-10.09594.6949-1.47832.7553-1.44402-2.0854-1.28318-6.2501.35385-8.4693-.5126-10.5672-4.1449-.6331-1.09607-.9127-2.563-1.0476-5.47651-.2413-5.21626-.7154-8.44564-1.371-9.35509-3.2452-4.50257-9.997-3.1552-9.1528 1.8255.4435 2.61543 3.1374 3.45397 4.9771 1.5495 1.3894-1.43837 2.0374-.10192.6807 1.40423-3.2635 3.62338-8.9431-.60639-7.2556-5.40387.3862-1.09814.4381-1.06289-1.6558-1.12338-4.6578-.13456-6.8741-4.13209-3.8716-6.97758.5259-.49827 1.2583-.73688 1.9985-.76023zm11.2383 17.16069c.7465 0 1.3516.60701 1.3516 1.35581 0 .74879-.6051 1.35581-1.3516 1.35581s-1.3517-.60702-1.3517-1.35581c0-.7488.6052-1.35581 1.3517-1.35581zm18.7255 4.81312c.7465 0 1.3517.60702 1.3517 1.35581s-.6052 1.35581-1.3517 1.35581-1.3517-.60702-1.3517-1.35581.6052-1.35581 1.3517-1.35581zm-4.0212 8.84666c.7465 0 1.3516.60702 1.3516 1.35581.0001.74879-.6051 1.35581-1.3516 1.35581s-1.3517-.60702-1.3517-1.35581.6052-1.35581 1.3517-1.35581zm59.5079 5.27306.8566 4.01019 3.1023.81895-.4843-3.43609zm10.8522 1.38808-.067 2.37806 2.7597.32565.9761-4.09941zm-46.3293 3.58975c.7465 0 1.3517.60702 1.3517 1.35581 0 .7488-.6052 1.35581-1.3517 1.35581s-1.3516-.60701-1.3516-1.35581c-.0001-.74879.6051-1.35581 1.3516-1.35581zm39.631 5.52355-3.244.90272-1.5586 4.51844 4.153-1.50799zm6.3453.40674.3972 3.34802 3.9965 1.81167-1.3517-4.77232zm-58.9063 28.53984-24.8107 44.990678 6.7798-.09458 23.4173-42.422998zm-78.0329 10.8914-2.1917 2.95858 2.0806 3.4331 2.3896-3.44763z" fill="#c8102e"/><path d="m1792.2285 468.50781-12.0312.002-.42.47265h-6.2578l-.02-.46875h-40.9922c4.8729 14.819 5.3245 29.42308 1.0957 43.45508 2.4091.1226 12.9211 2.8265 18.707 6.4082-1.0708 2.7622-17.4728 22.99639-28.6074 32.11719 3.1647 3.1435 6.6478 6.28725 10.3086 9.75195 5.5366 5.2694 7.4917 8.89633 7.8574 15.73633-.2483 8.0426-4.7626 12.76873-10.9863 17.20313-5.3241 3.5238-13.76 13.37043-21.2851 23.64843-1.1539 1.5796-4.5508 6.50782-4.5508 6.50782-11.3328-9.2761-23.4687-16.43186-23.7793-16.37696 0 0 12.2451-6.5448 14.8203-7.8789 1.9789 1.2732 4.6649.18501 3.375-2.61719-2.4786-6.3778-.7715-12.95629 2.293-17.52539 1.1868-1.7695 7.5224-2.50116 11.6015-1.44336 2.3147 1.2678 2.779-.36216 4.2227-5.85156 1.4364-5.4614-.8761-12.37008-4.1719-12.39258-.7747-.01-1.2082.28141-1.0488 2.22461.1205 1.4669-.2327 2.22714-.6094 3.15234-.8117 1.9928-1.2455 3.94961-1.5078 6.53321-.3054-.5549-3.6565-3.59041-8.6504-4.87891-3.6258-.4303-5.4675-4.95915-5.3145-4.96875 0 0 .5432-1.22718 1.0196-1.70508 1.2387.5942 2.4552 1.29221 3.9238 1.72461 0 0-.3383-1.81919-.4687-2.30859-.6735-2.5299-.6382-2.91436.3339-3.43946 2.4099-1.3018 2.6645-3.62984.7832-5.74804-.4751-.5419-.875-.88931-1.5136-1.16211l1.1894-4.75196s-1.0886.2342-1.9609.5c-2.5219.7684-2.3351.79461-3.4102-.43359-2.336-2.6708-5.7497-2.06308-6.4453.91992-.059.3409-.2168.88322-.2168.88282l-5.3789-2.61915c.1571 1.2654 1.5547 5.55274 1.5547 5.55274-4.7066 3.6669-.7291 6.91481.5547 7.25781 0 0-1.1002 3.51015-1.4785 4.96875l5.3086-1.52344c.4461 1.0142.9956 1.7857 2.0996 2.4961.288 2.9952 2.5882 5.41018 4.1738 6.86328-.0001-.0001.2278 1.09432.092 1.79492-.3425 1.7416 1.4218 4.50122 1.7207 4.66602-7.285-2.9891-14.8778-6.57751-22.209-10.09961l.457 90.38281s1.7082 1.534 5.0938 3.9668c1.6265 1.1687 1.6258 1.17428 1.2871 2.52148-.4465 1.7761-.3364 3.13047 1.1738 14.82227.8002 6.1831 1.6711 12.59695 2.4512 18.34765.3094 2.0946.3516 3.4375.3516 3.4375-1.6182-.7517-3.9752-.82873-5.1934.54297-2.1014 2.4005-.4194 6.2661 2.6934 6.1836 1.1795-.016 1.8271-.25772 2.6543-.69532l-4.6446 8.1875 5.3477 9.03125 5.334-9.6582-3.8789-7.64063c2.6754 1.494 5.5407 1.35024 6.1445-2.35546.1939-3.5455-3.7928-4.53893-6.4258-3.01563l3.2852-31.75 1.7617 1.29688.5762-.31446-1.5391-1.31836c.3339-5.0508-1.327-6.83824-3.1211-8.06054 6-3.4231 3.3998-8.83606-.5898-10.50196 0 0 2.5918-1.51908 3.1113-3.11328.4422-1.4251.2771-3.6836-.2246-7.6914-.3749-6.1787-1.6992-18.94532-1.6992-18.94532 5.2421 3.9642 10.6238 8.20645 15.6855 12.21485l10.1426-14.14063 24.4492.16992s18.583 16.92165 27.9356 25.55079l8.0722.0723c.9031 12.9827 9.8819 17.30884 18.8106 26.33594l-9.5 9.60742-58.1758-52.11914s-.2777-.76091-.3906-1.22461c-1.3435-5.5202-4.9909-7.83256-8.3067-7.44336-3.4792.4083-6.4462 3.84601-6.2969 9.69531.023.9049.3497 2.5.3497 2.5l-10.6289 44.40235s-4.2484-3.25366-6.543-4.81836l-.5059.29492 6.2207 4.68945.4629-.20117 1.7676 1.38477.1328.94531c5.4417 3.7137 14.6699 10.64453 14.6699 10.64453 4.356-3.2468 8.935-2.16095 13.5215-.93945 0 0 3.3358 1.11677 5.1094 1.10937 9.0123.2031 16.9924 1.95884 25.3691 4.99414l-30.5351 54.29492 58.166.11914c-2.8671-11.364-5.9134-22.90741-.4688-42.29101-5.7364-1.1612-18.4902-6.28125-18.4902-6.28125s-.061-.29058.4785-.95508c2.3576-3.3822 8.3204-12.54861 13.9082-17.84961.6806-.4885 10.4208-9.96963 10.5156-10.26953.053-.1682.2857-.80759.668-1.05859.8976-.6014 3.2852-2.86328 3.2852-2.86328l-12.2129-10.35743s-.5122-.29507-.6856-.39257c-1.7017-.9546-4.7728-6.28061-5.5293-9.84571-1.7404-8.2008 1.4718-14.68509 10.5391-21.34179 8.8526-6.0804 25.6399-29.68208 25.6953-30.20508 9.0517 7.5164 16.1183 11.40779 24.082 16.33789-4.8106 2.7679-8.7331 4.62067-12.0996 6.45117-2.1845 1.2499-2.4842 1.51073-4.33.98633-2.0912.017-2.8056.82431-2.2754 2.63281 3.1653 5.017 1.8053 16.69792-2.4746 18.94922-3.7151 1.9542-7.3277 1.42481-10.3125.31641-2.3038-.7402-2.2737-.7465-3.3008 1.3496-2.2597 4.82724-2.4041 8.89229-.3184 13.52149 1.7113 3.7166 4.255 5.41109 4.5684.40039.1841-2.9424 1.4762-6.38197 1.4355-9.54297 2.5946 2.8732 4.3154 4.18557 8.5742 5.35547 2.8563.4458 5.8892 4.04076 5.795 5.50586-.7844.7943-1.0232 1.80853-1.1504 1.73633-1.3911-.4557-4.4043-1.74024-4.4043-1.74024l1.2832 4.54493s-.2107.20558-.8281.52148c-2.8353 1.451-2.6524 5.37301.3242 6.94141.606.3195.6486.46944.3906 1.30664-.3699 1.864-1.1837 3.11734-1.623 4.96484 0 0 .4055.014 3.8007-1.56055l1.334-.61914.8028.86133c1.7587 1.8858 3.8724 1.8725 5.7167-.0312l.8438-.87305 2.3574 1.19922c2.2223 1.1299 2.8067 1.36328 2.8067 1.36328s-1.28-4.98614-1.5176-5.55664c-.1285-.3082-.3906-.62236-.582-.69336-.3169-.1178-.2672-.19092.5761-.86132 2.1377-1.6992 2.353-4.04408.5313-5.82618-.6945-.6795-.7832-.82226-.7832-.82226l1.1074-4.62305-4.5918 1.52539c-.7243-1.5459-1.8748-2.2478-2.6016-2.5625-.078-2.0859-.3402-4.23129-3.914-7.49219 1.204-1.1033-.2267-3.76116-1.4063-5.35546 2.0104.677 7.0371 2.81054 7.0371 2.81054l.7598-.0293 2.4004 1.15429.2812.42774s7.5518 3.57514 11.0196 5.24804c-.011-.1869-.035-3.92948-.045-45.11718-.011-24.5568.034-44.75352-.02-44.88282-1.8852-1.6686-4.2409-3.25283-5.6719-4.21093-1.6199-1.0837-1.5105-1.07502-1.1738-2.32422.3865-1.4347.3754-3.40693-.1367-7.10157-.378-2.7277-1.7465-12.31914-2.7012-20.06054-.6698-5.4308-.827-6.63597-.9922-7.50977-.2656-2.1996.019-3.15735-.029-3.18945 7.5837 3.2945 8.1827-7.63165.5801-6.15625 1.4545-2.9424 2.6792-4.30817 3.9258-7.45117-1.5854-3.4241-5.0959-9.21485-5.0957-9.21485l-5.5566 9.70508 3.2714 6.71485c-3.7615-.6797-5.7584 2.06639-5.0625 4.52929.7566 2.1784 2.8389 2.79011 4.6758 1.91211 1.415-.5595 1.4139-.70084.1602 9.94336-.3708 3.1473-2.0193 17.86419-2.2461 20.05469-.1524 1.4711-.2464 1.87939-.8438 1.55469-.8097-.3491-1.2732-.8586-2.0859-1.39454l-.4688.44727c.7217.5869 1.5931 1.32331 2.4668 2.12891-.2001 3.898-.1214 6.15639 3.1133 8.05859-5.8633 3.6866-2.4359 9.35773 1.0078 10.17773-2.0525.53174-4.0763 3.17881-3.5859 8.44141l1.6641 21.68945-15.8965-11.83984-9.3301 13.39453-24.582.0273-27.7285-25.09571s-6.0798-.083-8.5743-.14453c.2829-.1321-.524-7.75928-4.5371-12.73828-4.362-5.2018-14.2897-13.78626-14.2832-13.78906l10.4278-10.61914 58.541 52.85351s.2823 1.49651.4316 2.13281c1.9571 8.34424 11.4228 8.85037 13.4356.35157.3252-1.3732.7158-4.56922.5703-4.94922 2.9625-12.7832 6.7182-27.05002 9.5781-38.04492.5752-2.0779.9879-4.19543 1.5742-6.26953l4.5586 3.30468.4902-.51172c-1.7281-1.3418-4.6875-3.48046-4.6875-3.48046l.031-.91016c-9.5049-6.8273-11.4625-8.63918-17.0899-13.11328-4.3606 3.8519-10.5976 2.29189-14.5058.92969-1.0068-.3972-3.4805-1.04297-3.4805-1.04297-9.7346.013-18.286-1.87233-26.3633-4.51953zm-24.2246 1.26563 4.2598.084-25.2012 45.09961-2.6777-1.04883s.2456-.12859.2422-2.02929c0-2.04-.4434-2.91249-1.3594-4.11719-.7672-1.0425-1.0951-1.09896 1.1523-.78906 4.5952.6335 7.8604-4.37872 6.0352-8.29102-.7043-1.5094-.604-1.60101 1.2578-1.78711 5.1247-.5124 7.1174-7.0336 3.4902-10.2832-.7496-.6811-.4142-1.11325.9844-.81055 4.4339.9596 7.8669-3.97234 6.1055-7.83594-.5737-1.0779-.058-1.25648.7519-1.36328 3.7959-.8928 5.0878-3.88292 4.959-6.82812zm-33.9629.01 19.7266.01c-2.6545 4.0723 2.0311 6.48276 2.625 6.19726-4.2529 2.3299-3.085 5.61379-.8789 6.74219 2.14 1.0947 5.3502.1103 4.4941-4.6289l1.0547-.46094c1.0264 1.1641 2.0463 8.38115-5.7813 7.37695-1.3935-.1788-2.1502 1.12486-.9843 1.84766 6.1848 7.1328-3.4965 10.28516-3.918 9.10156l-.031-1.20703c2.6181.4833 5.969-2.90176 3.0312-5.91016-1.6701-1.7103-6.5148-.87574-5.6855 4.31446-2.8617-4.2874-5.9842-2.99557-6.8262-.73047-.6528 1.7562.177 4.16161 3.0312 4.57031-3.1874 2.6785-1.6403 5.66627.5508 6.32617 2.4186.7285 4.8897-.26077 4.2227-4.66797.038-.4175.8809-.28138.9511-.30468 2.5007 6.2592-3.4755 8.55897-6.7031 7.26757-1.1956-.4668-1.821 1.38242-.5508 2.32422 1.9274 1.429 1.3311 5.54279 1.1055 5.58399-3.584-1.3636-8.7191-2.37153-8.5273-2.29493 3.4244-13.5839 3.2037-27.39692-.9043-41.45312zm31.4512.01h1.7812c.023 2.5582-1.084 5.70746-5.4375 6.19336.019-.6863-.031-1.33555-.207-2.06055 1.6322-.3708 3.7989.083 3.8633-4.13281zm7.7793.13867 5.6894.0254-26.7695 47.66406-4.2793-2.20703zm-14.0371 3.61524c1.0054 0 1.8242.81571 1.8242 1.82421s-.8188 1.82813-1.8242 1.82813c-1.0055 0-1.8164-.81963-1.8164-1.82813s.8109-1.82424 1.8164-1.82421zm-11.4102 20.78515c.9308 0 1.6836.7539 1.6836 1.6875 0 .9337-.7528 1.69531-1.6836 1.69531-.9306 0-1.6836-.76161-1.6836-1.69531 0-.9336.753-1.6875 1.6836-1.6875zm88.1289 1.34766 4.5313 7.91211-5.1699 9.18359-4.3145-8.80078zm-.082 2.69531-3.1875 5.2793 2.8945 5.4082 3.2891-5.14062zm.062 2.26367 1.6465 3.19141-2.002 3.23828-1.664-3.42383zm3.1035 10.68164c1.6539.0001 2.9948 1.34681 2.9941 3.00781-.0008 1.66034-1.341 3.00576-2.9941 3.00586-1.6531-.0002-2.9933-1.34562-2.9941-3.00586-.0003-1.661 1.3403-3.00761 2.9941-3.00781zm-7.3613.0547c1.619-.0006 2.9317 1.31736 2.9316 2.94336.0001 1.6259-1.3126 2.94396-2.9316 2.94336-1.6182-.0005-2.9298-1.31816-2.9297-2.94336-.0001-1.6252 1.3114-2.94286 2.9297-2.94336zm3.6191 4.21094s.5571 2.49896.8242 4.75586c.097.8181.3562 2.86322.5762 4.54492.6406 4.973 1.0071 9.05862 1.6328 13.63672 1.5441 11.2606 1.8942 14.85645 1.5293 15.81445-.9743 3.3576-5.542 3.61506-7.4512 1.66406-1.4425-1.4745-1.6542-3.09475-1.0859-7.31445 1.0616-8.3391 1.0388-10.62832 2.1524-19.41992.382-3.6435.8332-7.05809 1.3281-10.65039.1424-1.2851.4941-3.03125.4941-3.03125zm-74.8125 9.54492s14.6312 4.83649 25.7617 4.61719c1.6336 0 1.899-.016 3.9336.65039 1.2064.3951 3.1044.9304 4.2168 1.1875 3.4319.6668 6.4479.47962 9.1192-.61328.4197-.1718 1.0364-.69026 1.6582-.50196.3795.1149.9316.87305.9316.87305-9.7459 2.5956-32.547 2.11603-46.7402-3.88477zm75.168 1.53906c-.061.011-.124.092-.1953.20508-.2384.3777-.042 2.85608.8437 10.73828 1.6922 15.0569 1.6857 15.37989-.3652 16.96289-1.008.778-1.1644 1.08995-.6797 1.37305.3608.2108.3319.21652 1.0664.0176 1.7254-.4806 2.4373-1.85351 2.4238-4.65821-.011-2.138-.035-2.39679-.6992-7.65039-.2299-1.8181-.5449-4.38307-.7011-5.70117-1.1111-9.3796-1.3658-11.33009-1.6934-11.27539zm-76.6406 1.57422c14.5658 5.2318 29.784 6.71493 48.1289 3.89063.5978.53671 1.1886 1.02426 1.7793 1.49804-.278.49226-.5664.98268-.8633 1.47071-.5316.25639-1.0681.50646-1.6113.74804.4963.33242.9998.65871 1.5117.97852.2557.54364.5157 1.08597.7793 1.62695.3335-.51341.6569-1.0304.9707-1.54883.5471-.27231 1.0881-.55331 1.623-.84179-.5314-.28869-1.0536-.58376-1.5683-.88672-.246-.48202-.4872-.96684-.7266-1.45117 2.0607 1.64131 4.123 2.98212 6.4727 4.46875-16.3573 5.0098-42.7754 4.14689-59.0723-3.11915-.6202-.3586-.9824-.64638-.9824-.64648.4929-1.17116 1.1337-2.31597 1.8047-3.41992.1805.4206.3605.84225.5507 1.26172-.088.59525-.1725 1.19031-.2539 1.78711.56-.24452 1.1136-.49563 1.6621-.75196.6044.0782 1.208.14982 1.8106.21289-.2743-.53779-.5405-1.0771-.7988-1.61718.073-.5965.1494-1.19206.2285-1.78711-.5303.26311-1.0659.51987-1.6074.77148-.4599-.0643-.9203-.13718-1.3809-.21094.5205-.8411 1.0537-1.67374 1.543-2.43359zm6.6152 3.58008c-.5108.30082-1.0271.59605-1.5488.88672-.5922-.0387-1.1855-.0838-1.7793-.13672.2736.53223.5547 1.06403.8437 1.59375-.043.59972-.084 1.19991-.1211 1.80078.5392-.28491 1.0716-.57573 1.5996-.87109.6077.0342 1.2149.0618 1.8204.082-.3116-.5172-.6153-1.03657-.9122-1.55664.03-.60021.062-1.19968.098-1.79883zm5.2891 1.3457c-.4901.33416-.9856.6629-1.4864.98828-.5945.002-1.1903-.002-1.7871-.0137.3107.51208.6281 1.02228.9532 1.53125v1.80664c.5179-.32145 1.0301-.64601 1.5371-.97656.6087-.007 1.2164-.0214 1.8222-.041-.3449-.49617-.6841-.9945-1.0156-1.49414-.011-.60082-.017-1.20061-.023-1.80078zm5.3886 1c-.4704.36469-.9469.72674-1.4277 1.08399-.5944.0393-1.1898.0722-1.7871.0996.3438.4915.6941.98094 1.0508 1.46875.036.60137.074 1.20295.1152 1.80468.4963-.35414.987-.71232 1.4727-1.07422.6071-.0448 1.2126-.094 1.8164-.15039-.3745-.47473-.7432-.95285-1.1055-1.43164-.048-.60031-.092-1.20073-.1348-1.80078zm27.3516.41602c-.3373.48481-.6844.96721-1.0391 1.44726-.5546.20889-1.1139.40959-1.6777.60547.4687.37352.9433.74378 1.4258 1.10742.2078.5648.4202 1.12851.6347 1.69141.3754-.48309.7428-.96876 1.1016-1.45703.5685-.22172 1.1327-.45142 1.6914-.6875-.5004-.33791-.9949-.6818-1.4805-1.03125-.2227-.55794-.4405-1.11576-.6562-1.67578zm-21.9004.26758c-.4497.39084-.9055.77931-1.3652 1.16406-.5919.0738-1.1859.14204-1.7813.20508.3731.4705.754.93807 1.1387 1.40429.071.59856.1446 1.19836.2207 1.79688.4742-.38299.9423-.76879 1.4062-1.15821.6033-.0797 1.2055-.16568 1.8047-.25585-.4001-.45288-.7962-.90772-1.1855-1.36524-.082-.59672-.1609-1.19416-.2383-1.79101zm16.4883.29687c-.3771.45893-.7612.91708-1.1524 1.37109-.5715.16818-1.1483.32934-1.7265.48633.4435.40582.8942.80836 1.3496 1.20703.1666.57986.3355 1.15956.5078 1.73828.4083-.45521.81-.9125 1.2051-1.37304.5838-.17794 1.1637-.36225 1.7402-.55274-.4719-.37833-.9357-.76129-1.3945-1.14843-.1794-.5751-.3558-1.1521-.5293-1.72852zm-11 .0898c-.05.0486-.1018.096-.1524.14454-.3792.36419-.7616.7274-1.1484 1.08789-.587.10526-1.1765.20513-1.7676.30078.3986.44908.802.89562 1.211 1.33984.1034.5933.2105 1.18643.3183 1.7793.4164-.37607.8285-.7544 1.2364-1.13477.034-.0322.069-.0634.1035-.0957.5961-.11076 1.1914-.22602 1.7851-.3457-.422-.43278-.8392-.86661-1.2519-1.30274-.1131-.59113-.2247-1.1825-.334-1.77344zm5.5156.10352c-.408.43548-.8214.86842-1.2402 1.29883-.5824.13426-1.1673.26378-1.7539.38867.4207.42932.8465.85635 1.2773 1.28125.1323.58883.2655 1.17913.4024 1.76758.4325-.42977.8607-.86357 1.2832-1.29883.593-.14095 1.1833-.28582 1.7714-.4375-.4457-.40995-.8857-.8242-1.3203-1.24023-.1428-.58616-.2819-1.17304-.4199-1.75977zm-40.1348.95117c.3806-.011 1.2533.84017 1.6133 1.79297.7079 1.8735.3827 3.95107-.7265 4.63867-1.5097.9359-3.2848-.53097-2.2461-1.85547.1836-.2342.4802-.46809.6601-.52539.7762-.2471.9572-1.474.5352-3.5957-.063-.3137.015-.45058.164-.45508zm5.6504.71875c15.7667 5.1775 33.6558 6.91756 52.0879 3.13086 0 0-8.7325 35.77978-8.9218 35.79688zm-7.7304.11133c.8298 0 .9813 1.41111.2324 2.16211-.9561.959-2.7809.18833-2.4004-1.01367.1105-.3493 1.6199-1.14844 2.168-1.14844zm4.5312.82812c.172-.013.4988.3314 1.0156 1.0293 1.7711 2.3915 1.9097 5.062.3243 6.2793-1.8588 1.4272-3.217-.7863-1.668-2.7207.4013-.501.4595-1.42531.2207-3.47461-.085-.7298-.065-1.10055.1074-1.11329zm61.1367.86329c.2036-.01.5642.15076 1.2871.50586 1.1301.5552 1.5226 1.36799.9786 2.02539-.7905.9554-2.9569-.93717-2.5489-2.22657.062-.1961.1251-.29948.2832-.30468zm-1.6992 1.24414c.2833.028.7365.54982 1.2617 1.60742.3374.6793.533.87222 1.1016 1.07812 1.3482.4882 1.5985 1.88989.4121 2.30469-1.2883.4505-2.2466-.47845-2.8359-2.74805-.3888-1.4966-.3085-2.27848.061-2.24218zm-56.3984 1.00195c.1956-.012.5702.42784 1.164 1.30664 1.7622 2.6088 1.1545 7.62006-1.0664 8.78906-.9788.5153-1.66.40304-2.4453-.38476-1.1478-1.1513-.8667-2.06241.8379-2.69141 1.4511-.5353 1.9204-2.19243 1.4727-5.20703-.179-1.2045-.1839-1.799.037-1.8125zm8.3926.82617c10.7675 8.906 20.4887 18.45506 33.0175 29.60156 2.9756-9.1824 7.3118-28.24549 7.3262-28.30859-.4736.3918-21.0458 3.31783-40.3437-1.29297zm47.0234.0254c.1793 0 .6987 1.33835.9941 2.56055.268 1.1073 1.3328 2.9633 1.7442 3.0332 2.1219.3602 3.0265 1.54636 1.9785 2.59766-.7697.772-2.4371.33384-3.2402-.84766-1.5094-2.2205-2.5384-7.34375-1.4766-7.34375zm-120.1426 1.22852c1.2805.011 2.5113.82073 2.8223 2.49023.3618 1.9427-.7337 3.35521-1.6602 3.12891-1.0066-.3775-1.3476-1.97656-1.3476-1.97656s-.2392 1.30273-.6524 1.96093c-.9028 1.382-2.8028-.6683-2.4629-2.6582.3318-1.9431 1.8497-2.95701 3.3008-2.94531zm76.6367.51172c11.726 1.7671 21.8144 2.22407 35.8028.70117l-6.5918 25.67383zm-8.8574.041c.1737.011.5315.32403 1.0879.91407 1.8222 1.9327 2.3463 4.61471 1.1621 5.94531-.7207.8099-1.2046.9051-1.9707.3789-.9786-.6722-1.0539-1.68489-.1562-2.15039.8254-.4282.9007-1.36819.248-3.15039-.4868-1.329-.625-1.9542-.3711-1.9375zm-76.4961.66016 4.2832 1.7832 1.5352 3.63281-4.2735-1.10742zm16.1992.48242-1.2714 3.61328-3.2969 1.23633 1.2832-3.9082zm111.7539.75781c.1586 0 .394.45569.6797 1.40039.7076 2.3387 1.0069 2.92955 1.6524 3.23829 1.0515.5029 1.1287 1.78192.1347 2.23632-.631.2882-.8379.22928-1.2871-.36132-.6995-.91994-1.2631-2.68162-1.3652-4.26172-.096-1.4812-.018-2.24886.1855-2.25196zm-47.6933 1.63282c.1242-.01.3083.17429.5781.49609 1.6646 1.9842 1.8458 5.02795.3555 5.93945-1.4434.8828-3.4634-.93828-2.2051-1.98828 1.196-.3225.9822-1.79038.9941-2.61328.023-1.2803.071-1.81958.2774-1.83398zm12.6465.21093 20.5097 18.69532 4.709-18.49415c-8.1007.72964-16.5644.51293-25.2187-.20117zm-50.3848.93946c6.4799 6.8629 14.9587 12.41458 16.9727 19.23828 3.6095 9.3938.9614 20.29019-7.4883 26.52539-12.8002 8.2908-19.5506 20.29888-27.6094 30.98828-.7065.888-3.1426 4.70312-3.1426 4.70312-6.923-6.1961-19.4214-15.00989-28.5976-19.96289l3.6562-2.05273c7.2121 4.1245 16.179 9.99599 24.2442 16.83789 4.8899-7.3975 10.9007-15.59683 16.2754-21.42383 7.0583-8.7409 14.3468-11.63219 17.3789-16.05859 4.442-6.4841 4.6324-14.17092.9785-20.73242-3.6032-6.2611-10.6107-10.55445-15.2637-15.73829zm61.502.50781h8.0175s-1.1771.98424-2.08 1.58984c-.5663.3799-1.2281.32869-2.4766-.19531-1.2126-.509-3.4609-1.39453-3.4609-1.39453zm9.1816 0 1.8691.0606c-1.3978 1.7609-2.8308 2.89699-4.707 4.46289-.2424.1046-.3768.14596-.9414-.0371-3.8321-1.2716-7.3499-2.88762-11.082-4.41602l3.3281-.0176s1.6005.51327 4.0059 1.51367c2.758 1.14724 3.471 1.50059 4.5351.80079 1.0258-.6844 1.8754-1.71394 2.9922-2.36524zm3.7852 0-.67 2.46289c-1.1181 1.4007-3.3793 3.01757-5.2675 4.60937-.4428.2317-.4277.27158-2.3633-.48242-7.1264-2.776-10.5723-4.58008-10.5723-4.58008l-1.4453-1.29687s1.858.53328 3.084 1.01758c2.5055.9163 5.0075 1.97123 7.414 2.92773 3.0846 1.2211 2.9151 1.25958 5.8711-1.35742 3.2011-2.8338 3.9493-3.30078 3.9493-3.30078zm-107.9649.22656 3.1113 3.57422-4.1445 3.49609-3.1309-3.69531zm118.0078 0c.7152 1.3427 1.1947 2.92995 2.3555 4.06055.8743.8366 1.0933 1.48192.5742 1.95312-1.3527.839-1.5867-.51734-2.0058-1.40234-.7372-1.5593-1.6369-3.66553-.9239-4.61133zm-112.4668.35742c3.4708-.1439 4.2764 4.58759 1.2207 6.14649-1.1187.423-2.4059.23281-3.0996-.46289-.673-.675-.7685-1.24581-.3066-1.59961.7195-.5131 2.4336-.55078 2.4336-.55078s-1.5555-.52662-2.2481-.91602c-1.3634-.7792-.1829-2.52989 2-2.61719zm68.2657.0117c.1876.011.5088.39179.9668 1.15039 1.6731 2.7715 1.5845 8.04606-.1602 9.38086-.9071.694-2.036.59459-2.7949-.24805-1.0005-1.1108-.6928-2.23162.793-2.89062 1.4345-.6363 1.7263-2.06087 1.1426-5.57617-.2036-1.2251-.1919-1.82971.051-1.81641zm-80.1817.008c.8564.039 1.6619.43795 2.1426 1.2168.3509.5787.182 1.00407-.4805 1.29297-.8059.3196-2.3359.60938-2.3359.60938s1.483.24457 2.3789.60937c1.1222.4966 1.0355 1.40841-.6074 2.19141-3.1632 1.5077-6.0707-2.52427-3.543-4.97657.6817-.6613 1.5889-.98234 2.4453-.94336zm82.9043 2.07032h.076c.2904.036.8269.45667 1.3652 1.17187 1.8858 2.5053 2.213 6.26981.6074 7.00391-1.6958.775-2.9168-.82307-1.6953-2.22071.8649-.9897.7582-2.43788-.3906-5.30468-.1671-.417-.1259-.62379.037-.65039zm-77.0547.041c-.5998-.00014-1.0861.48614-1.0859 1.08594-.0002.5998.4861 1.08608 1.0859 1.08594.5991-.00091 1.0842-.48688 1.084-1.08594.0002-.59906-.4849-1.08503-1.084-1.08594zm117.7793.0762c.1487-.011.42.5917.8555 1.8086.9588 2.6782 1.7771 3.80078 2.7637 3.80078 1.2399 0 1.8902 1.70548.9121 2.39258-1.9325 1.3577-4.4648-1.96874-4.6504-6.11524-.055-1.2458-.03-1.87522.1191-1.88672zm-10.2168 1.32618v.002l-.5703 2.18555s-1.3189 1.28446-2.2617 2.10156c-1.4972 1.298-1.8645 1.55634-3.0469 1.15234-1.8193-.6299-3.6206-1.20104-5.5156-1.77734l-4.3828-3.63477 10 3.91407s.8678.25488 1.1699-.0488c1.3097-1.3125 2.7467-2.33033 4.6074-3.89453zm9.4336 2.05859c.1255-.028.2519.13115.3399.53125.4529 2.0578 1.1109 3.54935 1.664 3.78125.7009.2937.9689.90274.6739 1.52344-.8515 1.7901-3.0899-1.37234-3.0899-4.36524-.0002-.8494.2028-1.4229.4121-1.4707zm-36.0898.14453c.1219-.01.3179.17438.6269.48438 1.3826 1.3867 1.8021 5.21803.6914 6.33203-1.6048 1.6097-3.3191-.78143-1.7617-2.45703.412-.4432.413-.47606.3145-2.43946-.068-1.3669-.074-1.90742.1289-1.91992zm-83.7676.38086-1.082 3.5957-3.4551.89258.8086-2.95898zm4.1387.36719c.2741-.011.5855.093.9121.33008 1.4077 1.0228 1.5234 2.77114.8652 4.06054-.6293 1.259-1.9169 1.61949-3.1621 1.49219-1.6152-.1801-2.835-1.30911-2.75-3.03711.028-.8661.4043-1.82613.9883-2.23633.4112-.2889.7491-.17082 1.1054.42188.3324.5797.8985 1.89258.8985 1.89258s.018-1.34637.209-2.03907c.155-.5515.4965-.86696.9336-.88476zm2.6367.31445 2.5019.85742.9903 3.41016-2.8028-1.08984zm142.6855.62695c2.6712 1.8211 3.5995 2.47947 6.4317 5.00977l-.082 44.48633-8.1132-5.05664c.8599-7.2762 1.4137-14.59803 2.3925-21.82813.596-6.8719 1.9126-8.84566-2.6738-11.75976 5.0638-2.4081 3.5723-7.78329.4453-9.95899zm-40.2461.16993-.4531 2.03515c-1.6246 2.7894-3.0795 2.64662-5.5664 1.35352l-2.9863-2.54688c1.9325.404 2.9704 1.0243 4.8594 1.6211.9378.2599 1.2812.094 1.9414-.5.7587-.6927 1.3307-1.21039 2.205-1.96289zm-22.9922.52734c.1848-.018.5276.18862.8497.54102 1.0123 1.108 1.2762 2.19958 1.1894 4.89648-.1948 1.918-.1085 3.34667-1.6777 4.42187-.7664.50384-2.0917.50338-2.6836.01-1.4201-.9538-.6362-2.86178 1.2246-2.95508 1.174-.021 1.6568-3.87059.9902-6.27539-.1034-.3732-.077-.61726.1074-.63476zm32.584.39648c.2282 0 .6318.58347.8711 1.53907.3467 1.3843.8332 2.16263 1.5957 2.55273.9783.5006 1.295 1.4617.67 2.0293-1.2446 1.1299-2.5157-.22584-2.9239-3.11524-.019-.3283-.5923-2.97516-.2129-3.00586zm26.7149.47657c2.775.043 4.3455 1.99066 4.3418 4.35156-.03 1.7023-.9568 3.43394-2.6641 4.15234-4.0761 1.2036-6.3024-1.53281-6.2637-4.19531.031-2.1485 1.8108-4.35189 4.586-4.30859zm-56.8379 1.01953c.2425 0 .6543.34894.8144.52344 2.3346 2.3416 2.439 7.34961.1543 7.34961-2.741-.91014-.6031-2.53143-.5507-2.95313.2142-1.7251-.1803-2.83041-.5821-4.44141-.066-.3573.019-.48051.1641-.47851zm56.9883.29687c-.4898-.015-.456.48026.4414 1.25586 1.6274 1.4063.8307 4.00072-1.2305 4.01172-.9512.01-1.1841.64862-.3555.98242 3.2014 1.2897 5.3865-3.592 2.5176-5.625-.5991-.4245-1.0792-.6161-1.373-.625zm-122.4278.65625c2.576.8807 3.4647 5.80382 3.5625 7.54102.1159 3.0221-1.2875 7.96367-2.539 8.95117-3.2402 2.5565-4.7599-6.48223-1.9883-12.29883.2427-.477.5471-1.12089.4336-2.30859-.1126-1.1785.085-1.87607.5312-1.88477zm85.1309.47461s-.3251 1.47611-.6699 2.28321c-.3993.9338-.6917.96391-1.6211.16601-.5173-.4443-1.375-1.36523-1.375-1.36523.8089.1268 1.5317.54793 2.2187.20703.7332-.3638 1.3246-1.04582 1.4473-1.29102zm9.7793.0781c.1828.01.4149.52026.7246 1.53906.8481 2.7884 1.5908 3.83779 2.7148 3.83789 1.8412-.0001 2.2421 2.22247.5039 2.79297-.6441.2115-.8606.21032-1.6835-.0117-1.2398-.3316-2.9361-4.52661-2.6934-6.66211.114-1.0043.2507-1.50229.4336-1.49609zm-113.3867 1.62109c.6759-.016.9406.31868 1.3379 1.14258.452.9379 1.6397 2.12904 2.6425 2.64844 2.419 1.1927 4.9664 2.12556 7.3575 3.32226 3.0997 1.562 5.8786 6.34485 3.9765 6.84375-.6895.1596-1.484.16617-2.1894.10157-.2305-.12114-.6792-.64252-.9981-1.16602-1.4137-2.3207-4.0588-4.59345-8.1367-5.65625-2.8751-.7492-5.4504-4.3013-6.0039-5.9707-.1434-.4323-.1506-.77122.2363-.88282.818-.236 1.3718-.37301 1.7774-.38281zm87.414.28906c.1284-.021.3163.14332.6016.44922 1.7113 1.8345 1.9242 5.20501.3867 6.15821-1.6667 1.0332-3.1266-.67651-1.8183-2.12891.5767-.6403.576-.6405.5761-2.5625-.0002-1.3245.04-1.88092.2539-1.91602zm24.9102 2.13868c.2054.01.5146.57771.8867 1.69921.5283 1.5913.6005 1.716 1.2051 2.0293 1.0222.5298 1.1879 1.32367.4375 2.07617-1.3986 1.4029-2.808-.8549-2.8125-4.5039 0-.8773.1024-1.30798.2832-1.30078zm-22.3692.25195c.1275.012.4836.29239.7598.62109 2.0963 2.4937 1.6729 8.33279-.666 9.20899-.7809.2925-1.017.306-1.502.0976-1.7436-.7567-1.5316-2.60289.6172-3.77539 1.6069-.8767.4611-6.12944.791-6.15234zm-107.1894 1.83984 8.6562 4.3086s2.3721 5.00947 3.4649 6.88867c.7499 1.3029 2.2515 2.56069.7012 3.42969-2.6043 1.7707-4.0818 2.7791-4.0586 3.8789.019.8897 1.1215 1.79703 2.6054 3.54883 2.1316 2.5161 2.1114 1.93749.1758 5.77539-1.4834 2.6915-2.7441 8.78516-2.7441 8.78516l-8.7442 4.51953c2.6017-6.2332 5.6641-11.53828 9.0977-15.33008-2.5505-1.8999-4.6933-3.87841-6.9297-6.50391 1.6503-2.2167 3.829-4.00629 5.8398-5.93359-4.0837-4.6299-6.6426-9.07099-8.0644-13.36719zm109.4727.0781h.045c.3632.024 1.1929.92866 1.9218 2.38086.9416 1.8758 1.032 4.23717.1954 5.07617-1.4419 1.4463-3.3204-.41137-1.9727-1.95117.9508-.6929.6956-2.41784-.057-4.21094-.3463-.8597-.3399-1.26152-.1328-1.29492zm-110.4297.84179c2.2522 4.8001 4.7695 8.70329 7.3515 12.40039l-5.6328 5.92969c1.7342 2.0185 3.8368 4.18758 6.7871 6.70508-3.6225 4.0407-5.9999 9.69696-8.3789 15.03906zm129.5527.10352c.1952.015.4732.59559.7578 1.76563.359 1.4752.606 1.8522 1.4629 2.2207 1.363.586 1.391 1.90616.057 2.38086-.4904.174-1.4075-.31885-1.7871-.96485-.5-.9227-.7576-2.16448-.7519-3.30078-.079-1.4063.041-2.11806.2617-2.10156zm29.5059.7168c.5662-.022 1.1946.0241 1.7285.17187 2.1288.5985 2.8997 2.73873 2.4843 6.70313-.5561 5.3025-1.2091 11.20282-1.7402 16.07422-.6121 5.6197-1.1191 9.1914-1.1191 9.1914l-.5254-.40429s.1528-3.0402.3515-4.9043c.4761-4.1967.7386-7.87092 1.1426-12.06446.9049-9.3298.6845-12.27962-.998-13.14062-1.3016-.666-1.8625-.27373-.9024.63477 1.8312 1.4161 1.7735 2.00987-.1855 24.98437-.2009 2.3767-.2832 4.05859-.2832 4.05859l-2.4863-1.54882s-.1855-1.96976-.418-4.94336c-.5617-5.601-.8876-11.57271-1.2598-16.94141-.3993-5.7274.6688-7.73159 4.211-7.87109zm-45.8477.84375c.6093.2234 1.8081 2.45825 1.8789 2.65625.2713.7584 1.5059 6.40745-1.6543 4.78515-.842-.4767-.8888-1.22216-.2676-1.94726.6949-.8111.858-1.97643.5098-3.64063-.2119-1.0129-.4668-1.85351-.4668-1.85351zm-92.4004.8789c.091-.017.1946-.0168.3106.01 2.6732.5091 5.6091 2.0731 7.5019 4.0293 1.174 1.2518 1.1149 2.25945-.7207 2.37695-1.7675.2608-1.8039.54964-2.6484-.1836-.3793-.2975-1.1174-1.0276-1.959-1.1582-2.5007-.388-3.8539-4.81021-2.4844-5.07031zm108.2188 1.48438c.2819.4548.3105 1.34993.5449 1.99023.3992 1.7901 1.6242 3.11482 2.7246 2.94922.739-.089 1.7597.13379 1.8691 1.02149.2148.751-.1774 1.4617-.9882 1.7871-.9153.36734-1.9496.14206-2.7305-.59374-1.6455-1.55074-2.6489-6.6131-1.4199-7.1543zm-13.0411.0605c.043-.018.1022-.0178.1817.01.9587.369 2.1816 3.44843 2.3125 5.89063 0 1.7491-.2717 3.95-1.7754 4.7832-.9549.4954-1.9435.24716-2.375-.58984-.5295-1.02684-.1352-2.08518.959-2.58008 1.3385-.6055 1.7728-3.32988.957-5.98828-.04-.3877-.5574-1.39594-.2598-1.51954zm-101.9375 1.28516 7.0547 3.58399c-1.0264 1.4058-1.8326 2.70895-2.3886 4.19335-2.2419-2.5508-3.4184-5.14974-4.6661-7.77734zm104.7696 1.22656c.1212 0 .5277.38567.8828.73047 1.7606 1.7102 2.5201 4.81432 1.457 5.94922-.8498.9073-2.1577.84568-2.4062-.10742-.09-.4672.4046-1.34212.623-1.76172.3251-.6249.2047-2.40859-.2871-3.71289-.2205-.5846-.4255-1.09396-.2695-1.09766zm-49.0078.70508 7.9707.27344 26.7031 24.125-2.5059-.0586-24.5371-22.42383-7.6367.0156zm-46.0801 1.35156c1.0315.0776.6468 2.35889.1562 2.99414-3.043 4.85094-3.875 10.96735-2.0058 16.40235 1.419 3.8544-1.6785 4.08482-2.9492 1.54492-.9769-1.8991-1.8549-5.24581-1.2422-8.72461.7442-4.2256 2.057-11.48647 5.8144-12.20117.082-.0155.1578-.0208.2266-.0156zm103.3457 2.09571c5.576.2056 7.1646 8.18902 6.2285 12.57422-.81 3.7946-2.309 5.6822-4.4375 6.4707-8.7181 3.2296-12.5156-14.4073-4.4277-18.625.9635-.3212 1.8401-.44932 2.6367-.41992zm-57.75 1.05078 7.5176.1543c6.8535 6.2523 14.2207 12.08695 21.5547 19.68945h-3.6993l-19.2129-17.5293-6.5566-.18554zm57.3574 1.16211c-4.0648.1649-4.3952 5.6908-4.2734 7.7832.2959 3.0151 1.4935 7.46859 5.3086 7.11719 2.7997-.2802 4.0955-3.60406 3.8398-7.59766-.2406-3.7578-1.7695-7.30623-4.875-7.30273zm-58.043 1.83398 6.5977.14844 18.0625 16.69922h-2.8789c-5.4195-4.8951-10.7922-10.27043-15.7402-14.45703l-6.8438-.26758zm57.4297.11133c.1087-.0107.2194-.003.3301.0234 1.5865.385 1.4903 3.51941.7305 4.49805-.6903.8006-2.2775-.7156-2.4199-2.625-.067-.89122.5985-1.82189 1.3593-1.89649zm-108.2988.45703c-.5308 1.8234-.8786 3.87315-1.0957 6.08985l-2.7598-3.51758zm111.1152 3.39258c.6744 0 1.2205.54821 1.2207 1.22461 0 .6765-.5463 1.22461-1.2207 1.22461s-1.2186-.54811-1.2187-1.22461c0-.6764.5443-1.22461 1.2187-1.22461zm-55.4199.61523 13.1465 12.39649-3.7441.041-10.7832-9.80468-6.8438-.25782 1.3399-2.33984zm51.127.21094c.6743 0 1.2187.54811 1.2187 1.22461.0001.6765-.5444 1.22461-1.2187 1.22461-.6744 0-1.2207-.54811-1.2207-1.22461-.0001-.6765.5463-1.22461 1.2207-1.22461zm15.6484.0234c7.411 5.7772 17.8701 13.4424 28.7363 19.6582 0-.021-1.7903 1.41214-3.4394 1.86524-8.4568-4.6765-18.5191-11.2728-24.752-16.6211-5.8841 8.688-17.1867 24.49432-27.2343 31.79102-6.3406 4.5498-9.5341 10.15719-9.5157 16.71289.019 6.7816 2.4075 11.1958 9.0586 16.75 4.2904 3.5829 8.9785 8.15625 8.9785 8.15625l-2.7773 2.32031c-9.1738-7.9086-20.879-16.184-18.5606-29.6582.8731-6.1203 2.9066-10.50762 8.6915-15.23242 2.221-1.7244 4.4649-3.06389 6.4218-5.02539 17.9728-19.2834 24.3926-30.7168 24.3926-30.7168zm-13.1172 1.92578c.4532.075.8359.74696 1.0879 1.22656.6796 1.4011 1.0533 3.23803-1.0762 3.36133-1.2614.073-1.9836-2.03362-.8906-3.91016.3103-.554.607-.72283.8789-.67773zm-62.248.85352 7.0957.21289s6.9988 6.11711 10.5312 9.50781h23.7676c13.072 0 23.8158.052 23.877.11328.1625.163-1.6875 2.65625-1.6875 2.65625l-78.3926.0449c.016-.012 4.8421-4.32029 6.5703-5.52929 3.0605-2.1411 5.865-4.13451 8.2383-7.00391zm-48.0371 2.95898c.5128 1.8985.9422 3.83505 1.8281 5.58399l-5.4434 2.89843c1.0002-2.89 2.1459-5.67092 3.6153-8.48242zm151.1406 15.78516c-1.0811 2.9546-3.9108 8.98333-7.3281 13.55273-.6786.8758-1.1426 1.56075-1.1426 1.56055l6.668 6.40429-5.7872 6.17188c3.2505 3.3927 5.9993 8.58926 7.4454 12.72656-2.6253-1.0401-4.0996-1.66936-7.3379-3.47656-.9155-2.3038-1.8479-4.74376-2.877-6.84766-2.362-4.8005-2.3305-4.33154-.4023-5.74414 2.8227-2.068 3.6632-2.54754 2.9297-3.58984-.5159-.7329-3.8458-4.69952-4.0469-4.82422-.3064-.1898-.1701-.77674.3965-1.71484 1.9296-3.4763 3.5103-7.30614 4.4941-10.71094zm1.2617.24218.1758 40.35938c-2.3883-4.8217-4.8738-9.74662-7.6426-12.82422-.1045-.2093 6.041-6.22865 6.041-6.22851-2.2519-2.09294-3.5694-3.344-6.7148-6.25 3.0632-4.42854 5.4882-10.21885 8.1406-15.05665zm-169.1055 1.40039 7.6446 4.45118c-.4046 5.693-.9136 13.16604-1.6973 20.74804-.6565 5.9156-.9282 8.64336.1172 10.28516.8854 1.2008 3.2734 2.49805 3.2734 2.49805-4.0208 1.6333-5.572 6.45003-1.0644 10.05273 0 0-1.0939.86221-1.5801 1.38281l-6.2715-4.70507zm119.6621 2.03907c-1.9061 2.1422-4.8942 5.32034-7.1875 6.83984-3.0588 2.0267-7.3544 5.91561-7.1484 5.97461 0 0-4.5011-.0229-7.5488-.14453l-10.5137-9.41016c-12.0819-.1456-28.5153.15226-47.4141-.0703l2.0997-2.95898zm37.4825 1.84961c-1.0358 3.3366-2.6418 6.4209-4.6758 9.3125-.4711-2.0514-.7303-4.22841-1.7149-5.97071zm-148.5313 1.07031.918.6543s-.5469 6.9655-.7266 9.0039c-.3223 3.7657-.481 7.1594-.8086 10.9961-.6585 7.6177-.5475 8.73971.9434 9.91601 1.1466.8607 1.927.47036.9101-.61914-.67-.8641-.6658-.84619-.8691-2.11719-.1412-.8834-.1192-2.20209.082-5.77539 1.135-20.1265 1.3697-20.80249 1.3946-20.80859l2.2851 1.48242c-.1269.3091 2.0949 20.2841 1.8692 25.25-.2638 5.8066-8.0564 4.52455-8.4258.21485-.1531-.99054 1.3262-17.29493 1.3262-17.29493zm63.5586 1.17187 3.0586.0898 18.8652 17.39453 6.4317.14062-.5606 2.19532-6.2148-.0176zm11.6973 0h2.9609l10.7988 9.81836 6.6485.10352-1.2676 1.89062-6.6113-.1914zm-3.6856.0117 15.9629 14.4375 5.4414.28321-.8379 1.97265-6.4531-.17968-17.9336-16.47657zm-15.3906.0527h3.3145l24.9531 22.53515 6.541.11914-.1 2.0293-7.8731-.0352zm83.4512.61523c.1602-.02.3346-.01.5215.0234 1.3163.3314 1.9662 1.61062 2.8945 6.35742 1.0826 5.5354-1.2647 14.51918-4.2031 16.20508-1.5204 1.1996-3.1737-.0701-2.0996-1.63477 3.5059-5.1081 3.9684-13.46682 1.8945-18.14062-.5751-1.3145-.1296-2.67116.9922-2.8086zm-105.3457.85742c7.9734.096 10.0329 16.51887 2.1894 18.82227-5.0949.7545-7.7175-3.87052-8.457-8.04492-.8711-5.1865 1.4067-10.83555 6.2676-10.77735zm.098 2.14258c-4.1437-.2355-4.8479 5.17134-4.4804 7.71094.4762 3.2918 2.5102 7.06048 5.4687 6.73828 3.8914-.4238 4.3816-5.63501 3.9961-8.25781-.4652-3.1651-2.205-6.03351-4.9844-6.19141zm-.207 1.31641c1.1121-.018 1.931 1.47306 1.627 3.32226-.1968 1.1972-.6505 2.67093-1.9922 1.66993-.6251-.572-1.1855-2.25031-1.0352-3.50391.099-.824.5047-1.46548 1.4004-1.48828zm109.9473 3.79687 3.7422 4.34375-4.252 2.99024c.5976-2.2858.7951-4.71619.5098-7.33399zm-107.2325.39258c.6743 0 1.2188.55202 1.2188 1.22852 0 .6764-.5445 1.22461-1.2188 1.22461-.6745 0-1.2206-.54821-1.2207-1.22461 0-.6765.5462-1.22852 1.2207-1.22852zm-4.3671.75391c.6744 0 1.2207.54811 1.2207 1.22461 0 .6764-.5463 1.22461-1.2207 1.22461-.6745 0-1.2246-.54821-1.2247-1.22461 0-.6765.5502-1.22461 1.2247-1.22461zm2.5976 1.57226c.5113.0682.9192.83032 1.207 1.25977.8166 1.2186.9243 2.74662.3438 3.38672-1.1725 1.3976-3.0037-.096-2.7832-2.25391-.0009-1.0232.2769-2.17245 1.0078-2.37695.077-.0216.1516-.0254.2246-.0156zm10.3262 4.80078c1.7506 0 2.2446 2.07139.7363 3.08399-.9806.6584-1.198 2.79897-.5918 5.76367.4915 2.1411.2348 2.47297-1.039.54297-2.176-3.4986-1.6159-9.39063.8945-9.39063zm-4.0938 1.12696c1.5358-.059 2.0286 1.11803 1.1328 2.01953-.5251.5841-.4726 2.12498.1133 3.39258.8287 1.8353.6342 2.3898-.916.625-2.1427-2.2978-2.1102-5.96901-.3301-6.03711zm101.5118.89258c1.7423 2.3236 3.2875 5.35531 4.6972 8.79101l-7.5547-3.48047zm-113.3516.77929c3.271.025 4.3962 8.1235 2.9648 8.5625-.5346-.6206-.7938-2.62948-1.2324-3.48828-.3405-1.0309-.6363-1.63239-1.1914-1.59765-3.1919.2713-3.0567-2.79105-1.2246-3.36915.237-.075.4655-.10902.6836-.10742zm18.6328 2.95703c.9185.0639.7086 1.58255.168 2.51563-.8489 1.4652-.1492 2.5652-.035 4.2793.095.7784.1375.98411-.5.38671-1.5143-1.3251-2.3186-5.84754-.9551-6.68554.5865-.37783 1.0161-.51739 1.3223-.4961zm75.7617.38282c.932-.0913 1.8037.91641 2.084 1.59375.5992 1.5289.5445 5.27803.2422 7.27343-.4627 3.054-1.1969 5.85829-1.4981 7.95899-1.0692 1.2743-3.7018-3.23527-3.9492-6.79297-.4144-2.8216.4561-8.87448 2.7188-9.92188.134-.062.2692-.0983.4023-.11132zm10.2852.46875c.6621-.03.5103.19313 1 .70703.7437.7802 1.0453.96938 2.0957 1.30078 2.1664.6834 4.5486 3.71416 3.6308 4.63476-.7247.5766-2.6988-.51234-3.373-.74414-.7252-.2505-1.6311-.56396-2.0137-.69336-1.8155-.6141-4.4276-3.97213-3.6152-4.64843.4344-.3617 1.7605-.53284 2.2754-.55664zm-5.2813.55078c1.3422.014 1.7087.35013 2.4766 1.79883 1.138 2.147 3.2514 3.66 6.3223 4.5332 3.9198 1.2003 7.3033 3.47937 7.1386 7.70117-.9354.01-1.8712.074-2.8066.35938-1.0852-3.0629-3.7846-4.81896-6.1074-5.34766-5.3594-1.2197-10.3325-6.67359-8.918-8.83789.6468-.2493 1.2266-.21413 1.8945-.20703zm-92.4453.27539 46.2969 40.4414c-19.5377-7.2707-37.4616-7.11348-54.793-4.42578zm-6.8789.69726c1.7753.185 2.2646 2.60825 2.3379 4.21485 0 2.2137-.6262 2.1307-.9785 0-.168-.9441-.4606-1.31053-1.2207-1.53907-1.7269-.5191-1.8392-2.67568-.1387-2.67578zm24.8574.0312c.9781.08 1.8362.95692 1.7676 1.94922-.087 1.2592-1.8098 1.52719-2.166 1.83789-.8657.7554-.751 2.93612-.3809 5.47852.2832 1.5266-.096 1.45957-.8965.26367-1.4169-2.1175-1.387-5.78992-.4472-7.95312.5297-1.2191 1.3624-1.63858 2.123-1.57618zm-3.873.21289c1.2013.0211.7983 1.55687.5293 2.22852-.4552.5021-.4632 2.85013-.051 4.42773.2289.8723-.1949.94005-.7832.24805-1.8092-2.2955-1.7178-6.4317-.3145-6.8125.2422-.0657.4476-.0948.6192-.0918zm-21.2735 3.25586c1.0745.0644 1.6612 2.32452 1.752 3.47657.1769 2.2423-.4698 2.45748-1.1445.30078-.1732-.5009-.4575-1.00691-.6778-1.15821-1.2603-.865-1.4824-1.53858-.7519-2.27148.2998-.25948.5743-.36251.8222-.34766zm8.5391 1.50977-6.2773 26.85351c15.4491-1.2989 22.4687-1.57299 38.9746 1.66211zm18.332.39453c.1214.0001.2496.0148.3848.0488.9448.2376 1.2712 1.47423.1699 2.64453-.3613.4635-.6984 1.18022-.2578 3.07812.6031 2.59754-.4108 1.76676-1.6465-.68554-.7421-1.4728-.4696-5.08814 1.3496-5.08594zm-29.166.13281c1.6786 0 3.2348 2.73276 3.2598 5.72266.018 2.4166-.3259 2.23906-1.2207-.0684-.6301-1.5272-1.1382-2.07776-2.2813-2.47656-2.118-.7391-1.9334-3.17764.2422-3.17774zm11.3438.77344 29.0722 25.48438c-11.9045-1.9084-23.593-2.0554-34.9433-.625zm24.1953.96094c2.2804 0 3.1774 2.82575.3808 3.81445-1.6666.5892-.9548 3.97002-.6484 5.97852.1159.7572-.1216.81086-.6016.13476-1.7565-2.6008-2.74-9.15833.8692-9.92773zm-3.7578 1.0625c.9788-.052 1.539.94943.6797 2.11523-.4135.6543-.4608 1.35565-.1758 2.62305.7393 2.7259.9309 3.22985-.6133 1.84375-1.6251-1.7234-2.3338-5.13598-.9727-6.14648.3822-.28384.7558-.41835 1.0821-.43555zm-56.7715.0137c2.6987-.019 4.6603 1.73033 4.5566 4.17383-.114 2.6916-1.7955 4.38809-4.2636 4.52929-2.7551.14014-4.4565-2.0653-4.5176-4.3496-.054-2.0176 1.226-4.33222 4.2246-4.35352zm-.045 1.07812c-3.0887-.01-4.2463 4.07484-1.6895 5.96094 1.0961.8084 1.9618.58001 1.0606-.27929-1.6981-1.6191-1.0153-4.29647 1.2207-4.78907 1.1054-.2436.6772-.88854-.5918-.89258zm37.6035.69336-3.7168 18.08594c7.6056-1.1852 16.8069-.8229 23.9082-.1543zm-12.5215.6875c1.8494-.094 2.3897 2.69439 2.4043 3.80469 0 1.4364-.1677 2.18402-.4316 1.41602-.6223-1.8109-1.2376-2.80469-1.9063-2.80469-.3627-.093-.6709-.23781-.9629-.56641-.6573-.8719-.02-1.81311.8965-1.84961zm12.8672.72071 2.4512 2.08789c-1.5771-.6932-2.92 1.09961-2.92 1.09961zm24.7441 1.20117c.8535.072 1.4403.89509.4824 2.21289-.711.8973-.7057 2.79024-.1542 4.99414.1543.6169-.4212.16097-1-.57227-1.097-1.3867-1.611-3.01094-1.4122-4.34374.1103-1.68424 1.2306-2.36342 2.084-2.29102zm-38.291.60156c1.5862.1803 2.1839 3.50277 2.1465 4.50977-.052 1.053-.2898 1.7649-.4981 1.125-.4085-1.3885-1.2537-3.3846-1.9843-3.8418-1.2527-.7838-.8972-1.68197.3359-1.79297zm117.9395.4668c1.9816.091 3.4067 1.37346 3.5117 3.25586.057 1.1719-.429 2.37161-1.1485 2.75781-.7356.3949-1.184-.13963-1.623-1.49023-.3227-.9929-.4375-1.375-.4375-1.375s-.2729 1.24225-.3594 1.50195c-.5734 1.7238-2.4403 1.74025-3.2226-.18555-.8327-2.246 1.4919-4.54714 3.2793-4.46484zm-102.4356.74805c.5573 0 2.7188.9707 2.7188.9707l2.1523 1.91015s-1.9797-.86167-2.6777-1.10937c-1.6666-.5916-1.6313-.59674-2.9766.50586-1.3856 1.1355-2.5234 1.9668-2.5234 1.9668l.4277-2.45313s2.0277-1.79091 2.8789-1.79101zm95.1426.3457 2.9395 1.36914.623 3.05469-2.709-.67383zm-112.5586.0586c2.0403.11375 3.0012 3.53136 3.291 5.62305.3177 2.5928-.4053 2.81399-1.1074.33789-.601-2.1199-1.1914-2.89453-2.2129-2.89453-1.8526.315-2.4294-2.30314-.9121-2.89844.3367-.1321.6499-.18422.9414-.16797zm47.6035.11524c1.9333.1559 1.968 2.9184.066 3.375-1.3242.3185-1.3168 2.37788-.9394 5.36718.086.6819.2689 1.5075.2265 1.6211-.2014.5408-.8745-.28617-1.7812-2.20117-1.3535-3.4928-.9309-7.38279 1.4844-8.05469.3538-.098.6671-.12972.9433-.10742zm79.9434.0605-.8184 3.53321-2.4863-.17188-.094-2.16406zm-84.7383.12891c1.1182-.066 1.5385 1.30947.9473 2.16797-1.3625 1.9785-.1383 3.80471.164 5.35351.053.9-1.105.019-1.7715-1.29296-1.3913-2.7353-1.4727-4.94339-.2226-5.92969.3285-.1929.6248-.28353.8828-.29883zm-24.5684 1.68359c2.1216.5003 3.7136 1.26983 5.9414 2.17383l3.1778 2.81641s-2.7901-1.03247-4.7324-1.85547c-4.3742-1.8535-3.7451-1.91309-7.2032.72851-.9977.76224-2.039 1.63282-2.039 1.63282l.4218-2.26367s1.3067-1.30072 2.9356-2.47852c.7018-.5074 1.0164-.75881 1.498-.75391zm-40.6953 1.06836c2.2373-.0609 3.7082 1.72416 4.2461 3.71875.3117 1.1556.044 2.22303-.018 3.33203-1.5158 11.6485-2.2001 22.47608-3.5664 33.26368-.027.2099-.2754 1.41799-.2754 1.41796 0 0-.1692-.45794-.3965-1.40234-1.6448-9.9707-2.7167-20.91492-4.0996-30.79492-.3161-3.6893-1.2654-8.51343 3.3887-9.45703.2472-.0479.4877-.072.7187-.0781zm22.8496 1.29883c1.4249.022 2.038 4.64529 2.0469 5.11719-.036.8656-.4761.5085-.5859 0-.3523-1.1515-1.0885-2.40094-1.7051-2.89844-.745-.6005-.9214-1.41292-.416-1.91992.2372-.2102.4566-.30193.6601-.29883zm-22.9785.0195c-.9874.04-2.1538.71951-2.5683 1.59571-.8466 1.7896-.6266 5.43226.9824 16.35156.134.9093.3199 2.42701.4121 3.37305.2821 2.8996.6668 5.20305.9433 5.63085.5268.8145.5927-.0609.2149-2.89843-.1928-1.4478-.453-3.66012-.5801-4.91602-.7232-5.1791-.8819-8.86414-1.3301-13.58984-.2243-2.3228.7084-4.03415 2.4571-4.49805.9465-.2511.9975-.6792.1132-.9668-.1974-.064-.4167-.091-.6445-.082zm142.8555.11914 2.9863 3.29883-3.4902 3.62695-3.2852-3.61523zm-6.9024.0156c.837-.024 1.9755.26022 2.6954.98242.9297.9324.8798 1.28236-.6778 1.85156-.7561.2819-1.2773.5-1.2773.5s.703.27793 1.2246.42383c1.4933.5 1.4138 1.36763.043 2.39453-1.8672 1.3983-4.8673-.45667-4.8321-2.91797.028-1.9513 1.2265-3.18807 2.8242-3.23437zm12.0879.0117c3.2696.01 4.4716 4.59975 1.2715 6.21875-1.1874.6007-3.1791.31722-3.6738-.64258-.2396-.7466.03-1.18125.623-1.49805.7216-.3855 1.7793-.71484 1.7793-.71484s-1.7311-.33806-2.2187-1.16016c-1.0516-1.7728.8789-2.16982 2.2187-2.20312zm-106.4687.23047c.8458-.01 2.3236.69685 5.9453 2.16015 1.9899.8041 4.2891 1.72071 4.2891 1.72071l3.2597 2.89257s-4.4657-1.40641-6.0195-2.19531c-.3375-.1714-1.0797-.48872-1.6484-.70312-.5688-.2142-1.9782-.76758-3.1348-1.23438-2.4856-1.0034-2.5146-1.01009-3.3477-.30469-.3561.3015-1.2305.9899-1.9414 1.5293-.7107.5393-1.7486 1.33056-2.3066 1.75586-.658.5015-1.4883 1.25977-1.4883 1.25977l.5254-2.78907s.4699-.46137 1.3086-1.10547c.6795-.5219 1.838-1.41261 2.5742-1.97851.748-.575 1.1386-1.00111 1.9844-1.00781zm30.0273 1.14453c.084-.004.1672.004.25.0273 1.9235.5441 1.966 1.93903.9414 2.70313-.8407.8609-.9555 2.27206-.3398 4.10156.1698.5044.3763 1.10224.3301 1.14844-.8883.8912-3.2262-4.73551-2.668-6.41211.2921-.8771.8964-1.54124 1.4863-1.56836zm70.9629 1.05273a1.0856463 1.0856463 0 0 0 -1.0859 1.08399 1.0856463 1.0856463 0 0 0 1.0859 1.08593 1.0856463 1.0856463 0 0 0 1.084-1.08593 1.0856463 1.0856463 0 0 0 -1.084-1.08399zm-120.4043.54688c.612-.029 1.3215.43629 1.6778 1.40429.9665 2.7072.3767 6.0276-.6114 2.9336-.3798-1.2302-1.4242-2.20617-2.0312-2.98047-.4892-.624.4249-1.33212.9648-1.35742zm19.9844.0781c.392.013.9143.20805 1.8535.59375.8489.3487 3.2382 1.14763 4.5977 1.67383 2.1112.8172 4.3144 1.89453 4.3144 1.89453l-4.7773-.26758s-1.6237-.5431-2.5899-.9414c-3.4996-1.4422-3.3053-1.43373-5.0468-.10743-.6223.4738-1.4063 1.23829-1.4063 1.23829l-2.4297.13476s1.1423-1.22146 2.791-2.44726c.5394-.401 1.2762-.97359 1.6329-1.27149.4103-.3428.6684-.5124 1.0605-.5zm37.7988.93945c.918.1055 1.4952 1.05052 1.5606 1.81641.074.8717-.8995 1.73712-2.1387 1.97852-.2606.9726-1.001 3.1927-.5684 6.5039.3493 1.5514-.3068 1.58534-.9746.0996-1.0821-2.4108-2.6576-9.55917 1.7071-10.38867.1445-.0222.2829-.0242.414-.01zm-5.0312.44141c1.1941.0154 1.2261 1.36003.8203 2.21875-.5701 1.2064-.7588 2.18375-.4473 3.70899.3464 1.6949.4188 2.11203-.541 1.05273-1.8596-2.4868-2.1335-6.45339-.418-6.90039.2201-.0573.4154-.0823.586-.0801zm-55.3008.32813v.002c.1183 0 .2425.00096.375.0234 2.9023.4602 3.7587 5.41826 3.3535 7.53906-.7688 2.5672-.7317.83387-1-.23633-.7145-2.5834-1.5417-3.98922-2.4258-4.13672-2.2316-.3721-2.0769-3.1257-.3027-3.1914zm22.8184 1.07421c.7941.058 2.5018.64764 3.3925 1.11914l-5.3554.043s1.1689-1.22041 1.9629-1.16211zm101.4375.74805c.366-.033.8645.39845 1.4511.99805 1.3426 1.3722.7539 3.53496-1.0605 4.60156-2.8481 1.6743-6.0895-1.48041-4.5254-4.37891.8583-1.5907 1.8895-1.3072 2.7695.9375.1611.2726-.0007-.28174.2988-.96484.3-.6803.7003-1.15986 1.0665-1.19336zm-4.7793.16016-.8536 3.45117-3.4707 1.67383 1.2657-4.25196zm7.2187.58984 2.7656.22266 1.5352 4.48242-3.9863-1.70508zm-65.3379 2.5332c2.0112.083 2.215 1.98847 1.0606 2.82227-.6471.6218-.8706 1.52284-.7364 2.96094.06.6392.1874 1.42082.1817 1.51172-.019.3065-.2739.26021-.6192-.11719-2.1239-2.322-1.8409-7.25894.1133-7.17774zm-60.8379.7461c1.2746.0001 2.7211 3.66335 2.0098 5.06445-.4482.8229-.8815.61866-1.0449-.33594-.1219-.6951-.5193-1.64455-1.5469-1.81445-1.4935-.4784-1.0073-2.91386.582-2.91406zm63.918 2.17773c.1817-.006.3795.007.5976.0391.9739.50504 1.0636 1.62726.1836 2.25586-.6824.4873-.8609.89961-.9668 2.22071.2235 3.0071-1.7896 1.09798-1.621-1.63672.1156-1.87688.5347-2.83912 1.8066-2.87891zm-64.9883.96289c.9149 0 2.0004 1.64728 1.7598 2.60938-.1282.764-.5274.6299-1.086.0625-.2163-.1693-.7011-.34341-.9277-.41211-1.3688-.4151-1.1385-2.25771.2539-2.25781zm25.9981 1.26563c12.3646-.058 25.2262 1.91126 35.916 6.19336-.7759 1.44644-1.4161 2.78173-2.0918 4.07031-.213-.4849-.4301-.96996-.6563-1.45313.081-.5962.1582-1.19333.2325-1.79101-.5573.25122-1.1071.5085-1.6524.77148-.6052-.0707-1.2111-.13385-1.8144-.18945.2809.53424.5554 1.0687.8203 1.60547-.065.59725-.1351 1.19512-.2071 1.79101.5268-.26958 1.0594-.53484 1.5977-.79296.5297.0676 1.0611.14436 1.5918.22461-.3892.73536-.788 1.46053-1.2442 2.17187-12.6169-4.1623-26.224-7.2612-48.8359-3.9043-.9279-.71626-1.1148-.8551-1.6445-1.25976.265-.43631.5325-.87169.8105-1.30469.5391-.24444 1.0839-.48157 1.6328-.71289-.4906-.34203-.9874-.68033-1.4922-1.01172-.2436-.54954-.4916-1.09713-.7421-1.64453-.3433.50547-.6776 1.01322-1.0039 1.52344-.5529.25788-1.1019.52284-1.6446.79492.522.30493 1.0377.61672 1.5449.93359.1827.38293.3619.76632.5411 1.15039-1.5403-1.17493-2.3273-1.76973-5.4844-4.29882 7.1395-1.8371 15.3662-2.82769 23.8262-2.86719zm41.4707.55273c1.1839 0 1.9189 1.33555 1.0507 1.90625-.6082.3996-1.9572.50759-2.2285.17969-.5605-.6776.2336-2.08744 1.1778-2.08594zm-41.9981.75c-.4314.42986-.8574.86202-1.2793 1.29688-.5921.14076-1.1819.28688-1.7695.4375.4445.41032.8822.82235 1.3164 1.23828.1424.58575.2839 1.17151.4219 1.75781.4085-.435.8217-.86655 1.2402-1.29687.5823-.13446 1.1676-.26496 1.7539-.39063-.4214-.42852-.8485-.8551-1.2793-1.2793-.1326-.58832-.2674-1.17576-.4043-1.76367zm-5.7617.11719c-.4089.45306-.8101.90726-1.207 1.36523-.5837.17442-1.1649.3553-1.7422.54102.4683.38203.9302.76845 1.3867 1.1582.1758.5759.349 1.1515.5195 1.72852.3807-.45671.767-.91116 1.1602-1.36328.5726-.16574 1.1499-.32497 1.7285-.48047-.4425-.40654-.8901-.81084-1.3438-1.21094-.1642-.58007-.3325-1.15919-.5019-1.73828zm11.4941.0547c-.2751.25094-.5486.50322-.8203.75586-.1717.15963-.3411.32009-.5117.48047-.5958.11248-1.1917.2287-1.7852.3496.4229.4318.8421.86552 1.2559 1.30079.1146.59094.227 1.18057.3379 1.77148.1833-.17723.3661-.35293.5508-.5293.2475-.23641.4975-.47202.748-.70703.587-.1074 1.1748-.20999 1.7657-.30859-.4011-.4471-.8062-.89348-1.2168-1.33594-.1057-.59283-.2144-1.18499-.3243-1.77734zm-17.2539.41211c-.3796.47826-.7522.95831-1.1172 1.4414-.5706.21346-1.1369.43395-1.6992.66016.4941.34691.982.69992 1.4629 1.05664.2145.56137.4244 1.12247.6328 1.68555.346-.48045.7013-.95767 1.0625-1.4336.5582-.2024 1.1195-.39912 1.6856-.58984-.4656-.3777-.9363-.75192-1.4141-1.12109-.2013-.56715-.4061-1.13364-.6133-1.69922zm22.9864.0234c-.4708.38673-.9374.77727-1.3985 1.16993-.6024.0839-1.2023.17192-1.8008.26562.4025.45059.7989.90435 1.1914 1.35938.086.59626.17 1.19263.252 1.78906.4477-.39388.9002-.78557 1.3574-1.17383.5918-.0783 1.1861-.1526 1.7813-.2207-.3774-.4674-.7602-.93127-1.1485-1.39453-.076-.59808-.1543-1.19693-.2343-1.79493zm5.7129.74415c-.4925.35936-.979.72114-1.461 1.08789-.6065.0508-1.2113.10802-1.8144.16992.3786.47142.75.94454 1.1171 1.41992.054.59995.1053 1.1991.1543 1.79883.4673-.36931.9406-.73348 1.418-1.09571.5943-.0454 1.1899-.0871 1.7871-.12109-.3493-.48776-.7046-.97293-1.0664-1.45703-.042-.60106-.088-1.20138-.1347-1.80273zm5.6679 1.08007c-.5139.32765-1.0223.65961-1.5254.9961-.6084.014-1.2168.0341-1.8222.0605.3504.4923.6958.98664 1.0332 1.48243.018.60134.033 1.20199.045 1.80273.4871-.3404.9788-.67595 1.4766-1.00781.5945-.009 1.1902-.0114 1.7871-.008-.3169-.50818-.6419-1.01452-.9727-1.51953-.01-.60173-.012-1.20422-.022-1.80664zm5.5918 1.44532c-.5354.2916-1.0638.58871-1.5879.89062-.608-.0265-1.2148-.0459-1.8203-.0586.3179.51325.6284 1.02672.9317 1.54297-.022.60044-.048 1.20133-.076 1.80078.5069-.30715 1.0192-.60909 1.5371-.90625.5925.0311 1.1868.0698 1.7812.11523-.2802-.52866-.5675-1.05607-.8632-1.58203.036-.60012.068-1.20153.098-1.80273zm-27.0293 2.93359c11.5923-.014 22.1565 1.99011 31.0547 5.38281 0 0-1.1535 2.49417-1.5605 2.76367-6.3851-2.5565-17.2666-4.9334-24.6192-5.0625-2.6943-.1002-3.2906-.17122-4.2832-.51562-5.6037-1.8485-10.5509-2.64808-15.1133.082l-1.8632-1.32031c5.634-.8991 11.1155-1.32388 16.3847-1.33008zm-49.1289 14.96289c1.6539.0001 2.9945 1.34486 2.9942 3.00586.0003 1.661-1.3403 3.00771-2.9942 3.00781-1.6538-.0002-2.9944-1.34681-2.9941-3.00781-.0003-1.661 1.3403-3.00566 2.9941-3.00586zm86.8106.0781c.949.5818 4.4531 2.13867 4.4531 2.13867l-24.6172 44.64062-5.959.0488zm-79.2911.0801c1.6538.0002 2.9945 1.34682 2.9942 3.00782-.0008 1.6602-1.3411 3.00565-2.9942 3.00585-1.6531-.0001-2.9933-1.34555-2.9941-3.00585-.0003-1.661 1.3402-3.00772 2.9941-3.00782zm84.5489 2.34766c.6607.364 3.0522.76221 3.2597 1.22461.09.2313-.091.68639-.1445 1.27539-.1282 1.419.2239 2.9901 1.0801 4.25 1.403 1.9555-.1152 1.05892-1.5176 1.04492-3.1647-.8109-7.1961 3.51229-5.6641 7.96289.354.9849.2835 1.06423-1.4121 1.58203-3.8495 1.1755-5.5273 5.27274-3.6777 8.93164.9637 1.9065.992 1.80988-.7031 1.95118-4.7102.3922-7.4458 4.58228-5.4688 8.86718.306.6631.1099.84647-.9179 1.03907-3.2155.5917-4.6543 3.28714-5.0606 6.24804l-4.2539.043zm4.0664 1.57617 8.1719 2.23633c-3.3936 11.5733-3.8633 25.01821.2207 40.57031l-18.7891.0195c2.6095-2.3497 1.5794-5.59594-1.4707-6.31054 2.9599-1.7047 2.9611-6.24006-.5859-6.78516-3.1188-.4794-4.7289 2.49471-3.3438 5.47461l-1.332.36523s-.5973-.75174-.7344-1.15234c-1.1764-3.4403 1.2868-6.85515 5.4844-6.84375 2.5891.01 3.1241-.72782 1.6933-2.32422-2.558-2.8538-1.7519-6.8638 1.5879-8.4414 1.5377-.72634 2.4434-.2461 2.4434-.2461l.08 1.89063s-.6243.061-1.1094.13867c-3.689.5917-3.0033 6.4884.7461 6.4375 2.0634-.028 3.5389-1.59706 3.539-3.85156.0002-.6334.0001-1.56836 0-1.56836 1.895 3.2521 5.1504 3.48534 6.5372.83984 1.6319-3.1141-1.3305-5.0714-4.2989-4.75 0 0 .624-.40624 1.0176-.60938 3.1607-1.6303 2.0719-6.28906-1.4238-6.28906-2.3987.0001-3.7983 2.23517-3.0254 4.60547.1241.3803.4179.99024.4179.99024l-1.4257.36328s-.3239-.24741-.4688-.47461c-2.4484-3.8382 1.4825-8.06622 6.4356-7.10742 1.8133.5702 1.7546-.68862.7363-1.82422-1.0947-1.6376-1.9123-3.49141-1.1074-5.34961zm-92.3399 1.67188 4.2891 7.58398-4.8047 8.73242-4.7637-8.17968zm-.4218 3.94726-2.9766 4.11133 2.9141 4.7207 2.7656-4.77734zm-.1289 1.54492 1.9355 2.60157-1.9512 3.19726-1.9101-3zm88.6386 8.19141c.902 0 1.6367.73202 1.6367 1.63672.0001.9046-.7347 1.63672-1.6367 1.63672-.9018 0-1.6328-.73212-1.6328-1.63672 0-.9047.731-1.63672 1.6328-1.63672zm-11.5488 20.55664c.9344 0 1.6953.75606 1.6953 1.69336 0 .9372-.7609 1.69922-1.6953 1.69922s-1.6875-.76202-1.6875-1.69922c0-.9373.7531-1.69336 1.6875-1.69336zm-2.5605 1.13086v.004c-.1548.066-.0004 1.53843.375 2.14843-2.44.1499-3.087 2.02322-3.3243 3.60352l-2.1836-.01c.3641-5.3444 4.9773-5.46469 5.1329-5.74609z" stroke-width="1.06667" transform="matrix(.937503 0 0 .937498 1829.56 -797.178)"/><path d="m3429.5901-350.16374c-9.1848 13.11502-19.0125 20.6622-19.1757 30.89417-.055 3.31326 1.7343 8.94469 7.3382 10.02263 3.6357.69607 8.6414-2.25027 8.7459-8.23617-.016-1.19167 1.2602-1.16067 1.2483.47229-.1712 4.72155-1.664 10.21871-4.1727 14.69355h12.0321c-2.5088-4.47484-4.0015-9.972-4.1727-14.69355-.012-1.63296 1.2642-1.66396 1.2483-.47229.1045 5.9859 5.1102 8.93224 8.7459 8.23617 5.6039-1.07794 7.3929-6.70937 7.3382-10.02263-.1633-10.23197-9.9909-17.77915-19.1758-30.89417z"/><path d="m3532.6609-104.53065c-9.1848-13.11504-19.0124-20.66227-19.1757-30.8942-.055-3.31327 1.7343-8.94471 7.3382-10.02262 3.6357-.69609 8.6414 2.25026 8.7459 8.2361-.016 1.19172 1.2602 1.16075 1.2483-.47221-.1712-4.72157-1.6639-10.21877-4.1727-14.69354h12.0321c-2.5088 4.47477-4.0015 9.97197-4.1727 14.69354-.012 1.63296 1.2642 1.66393 1.2483.47221.1045-5.98584 5.1102-8.93219 8.7459-8.2361 5.6039 1.07791 7.3929 6.70935 7.3382 10.02262-.1633 10.23193-9.9909 17.77916-19.1758 30.8942z"/></g></svg>