<svg height="88.000275mm" viewBox="0 0 238.11099 332.59947" width="63.000198mm" xmlns="http://www.w3.org/2000/svg"><g><rect fill="#fff" height="332.5994820368" rx="11.38944039189" ry="11.37500301344" width="238.1109840945" x=".000003122" y=".000005306"/><g stroke-width="1.06667"><path d="m63.837749281 34.8746422889c-9.84109742 14.0343051904-20.370943659 22.1105437619-20.545877539 33.0596553111-.05866685 3.545504413 1.858245807 9.5716779114 7.862531237 10.7251321826 3.89547884.7448876611 9.258802267-2.4079861916 9.370802617-8.8133822084-.01706672-1.2752573185 1.350297553-1.2421158816 1.337497513.5053029124-.18346724 5.0525171224-1.782832238 10.9350315052-4.470840638 15.7234518023h12.89177362c-2.6880084-4.7884202971-4.287373398-10.6709346799-4.470840638-15.7234518023-.01280004-1.747418794 1.354564233-1.7805602309 1.337497513-.5053029124.11200035 6.4053960168 5.475323777 9.5582698695 9.370802617 8.8133822084 6.00428543-1.1534542712 7.921198087-7.1796277696 7.862531237-10.7251321826-.17493388-10.9491115492-10.704780119-19.0253501207-20.545877539-33.0596553111z"/><path d="m18.365073846 53.3049932169c-4.597987702 5.8476342738-9.517683076 9.212722123-9.599389998 13.7748590463-.02773342 1.4772846165.868162713 3.9881937964 3.673504813 4.4688032983 1.820059021.3103689699 4.325880185-1.0033311354 4.378253682-3.6722461424-.0106667-.5313616605.630828638-.517548284.624855286.2105393246-.0853336 2.1052225788-.832962603 4.5562702383-2.088859861 6.5514444732h6.023272156c-1.255897258-1.9951742349-2.00320626-4.4462218944-2.088859861-6.5514444732-.0106667-.7280876086.632855311-.7419009851.624855286-.2105393246.05226683 2.668915007 2.558194661 3.9826151123 4.378253682 3.6722461424 2.8053421-.4806095019 3.700918232-2.9915186818 3.673504813-4.4688032983-.08213359-4.5621369233-5.001508963-7.9272247725-9.599389998-13.7748590463z"/><path d="m219.746503161 279.2946487657c-4.597987702-5.8476342738-9.517683076-9.212722123-9.599389998-13.7748590463-.02773342-1.4772846165.868162713-3.9881937964 3.673504813-4.4688032983 1.820059021-.3103689699 4.325880185 1.0033311354 4.378253682 3.6722461424-.0106667.5313616605.630828638.517548284.624855286-.2105393246-.0853336-2.1052225788-.832962603-4.5562702383-2.088859861-6.5514444732h6.023272156c-1.255897258 1.9951742349-2.00320626 4.4462218944-2.088859861 6.5514444732-.0106667.7280876086.632855311.7419009851.624855286.2105393246.05226683-2.668915007 2.558194661-3.9826151123 4.378253682-3.6722461424 2.8053421.4806095019 3.700918232 2.9915186818 3.673504813 4.4688032983-.08213359 4.5621369233-5.001508963 7.9272247725-9.599389998 13.7748590463z"/><path d="m174.273081057 34.8746422889c-9.84109742 14.0343051904-20.370943659 22.1105437619-20.545877539 33.0596553111-.05866685 3.545504413 1.858245807 9.5716779114 7.862531237 10.7251321826 3.89547884.7448876611 9.258802267-2.4079861916 9.370802617-8.8133822084-.01706672-1.2752573185 1.350297553-1.2421158816 1.337497513.5053029124-.18346724 5.0525171224-1.782832238 10.9350315052-4.470840638 15.7234518023h12.89177362c-2.6880084-4.7884202971-4.287373398-10.6709346799-4.470840638-15.7234518023-.01280004-1.747418794 1.354564233-1.7805602309 1.337497513-.5053029124.11200035 6.4053960168 5.475323777 9.5582698695 9.370802617 8.8133822084 6.00428543-1.1534542712 7.921198087-7.1796277696 7.862531237-10.7251321826-.17493388-10.9491115492-10.704780119-19.0253501207-20.545877539-33.0596553111z"/><path d="m63.837749281 140.6996663244c-9.84109742 14.0343051904-20.370943659 22.1105437619-20.545877539 33.0596553111-.05866685 3.545504413 1.858245807 9.5716779114 7.862531237 10.7251321826 3.89547884.7448876611 9.258802267-2.4079861916 9.370802617-8.8133822084-.01706672-1.2752573185 1.350297553-1.2421158816 1.337497513.5053029124-.18346724 5.0525171224-1.782832238 10.9350315052-4.470840638 15.7234518023h12.89177362c-2.6880084-4.7884202971-4.287373398-10.6709346799-4.470840638-15.7234518023-.01280004-1.747418794 1.354564233-1.7805602309 1.337497513-.5053029124.11200035 6.4053960168 5.475323777 9.5582698695 9.370802617 8.8133822084 6.00428543-1.1534542712 7.921198087-7.1796277696 7.862531237-10.7251321826-.17493388-10.9491115492-10.704780119-19.0253501207-20.545877539-33.0596553111z"/><path d="m63.837749281 297.7248610266c-9.84109742-14.0343051904-20.370943659-22.1105437619-20.545877539-33.0596553111-.05866685-3.545504413 1.858245807-9.5716779114 7.862531237-10.7251321826 3.89547884-.7448876611 9.258802267 2.4079861916 9.370802617 8.8133822084-.01706672 1.2752573185 1.350297553 1.2421158816 1.337497513-.5053029124-.18346724-5.0525171224-1.782832238-10.9350315052-4.470840638-15.7234518023h12.89177362c-2.6880084 4.7884202971-4.287373398 10.6709346799-4.470840638 15.7234518023-.01280004 1.747418794 1.354564233 1.7805602309 1.337497513.5053029124.11200035-6.4053960168 5.475323777-9.5582698695 9.370802617-8.8133822084 6.00428543 1.1534542712 7.921198087 7.1796277696 7.862531237 10.7251321826-.17493388 10.9491115492-10.704780119 19.0253501207-20.545877539 33.0596553111z"/><path d="m174.273081057 297.7248610266c-9.84109742-14.0343051904-20.370943659-22.1105437619-20.545877539-33.0596553111-.05866685-3.545504413 1.858245807-9.5716779114 7.862531237-10.7251321826 3.89547884-.7448876611 9.258802267 2.4079861916 9.370802617 8.8133822084-.01706672 1.2752573185 1.350297553 1.2421158816 1.337497513-.5053029124-.18346724-5.0525171224-1.782832238-10.9350315052-4.470840638-15.7234518023h12.89177362c-2.6880084 4.7884202971-4.287373398 10.6709346799-4.470840638 15.7234518023-.01280004 1.747418794 1.354564233 1.7805602309 1.337497513.5053029124.11200035-6.4053960168 5.475323777-9.5582698695 9.370802617-8.8133822084 6.00428543 1.1534542712 7.921198087 7.1796277696 7.862531237 10.7251321826-.17493388 10.9491115492-10.704780119 19.0253501207-20.545877539 33.0596553111z"/><path d="m174.273081057 140.6996663244c-9.84109742 14.0343051904-20.370943659 22.1105437619-20.545877539 33.0596553111-.05866685 3.545504413 1.858245807 9.5716779114 7.862531237 10.7251321826 3.89547884.7448876611 9.258802267-2.4079861916 9.370802617-8.8133822084-.01706672-1.2752573185 1.350297553-1.2421158816 1.337497513.5053029124-.18346724 5.0525171224-1.782832238 10.9350315052-4.470840638 15.7234518023h12.89177362c-2.6880084-4.7884202971-4.287373398-10.6709346799-4.470840638-15.7234518023-.01280004-1.747418794 1.354564233-1.7805602309 1.337497513-.5053029124.11200035 6.4053960168 5.475323777 9.5582698695 9.370802617 8.8133822084 6.00428543-1.1534542712 7.921198087-7.1796277696 7.862531237-10.7251321826-.17493388-10.9491115492-10.704780119-19.0253501207-20.545877539-33.0596553111z"/><path d="m8.026481538 39.1307195891c-.433388021-2.962569258-.42240132-10.621259858-.06826688-12.886866938 1.093016749-6.940715023 3.743905033-10.117044949 8.184452243-11.153528188 4.313080145-1.009816489 10.371979079.114560358 11.700836565 5.915538486l-3.605451267.07040022c-1.950086094-3.922252257-6.884394847-2.87467565-9.664243534-1.167790316-2.217500263 1.359150914-3.220063396 7.034368649-2.790835388 7.38348974 0 0 4.193826439-3.106463041 7.500290105-2.877342325 7.065408746.736108967 9.979657853 6.863808116 9.732723748 12.649426196-.224854036 6.960235084-2.431474265 12.526439145-9.920671002 12.896680302-7.120342251-.27520086-10.382859113-4.156919657-11.068514589-10.829473842zm17.560694877-1.838192411c.03840012-4.828708423-2.153073395-8.447813066-6.304233034-8.844507639-4.147106293-.399467915-8.331332702 3.648438068-8.041945131 8.57069345.289387571 4.943375448 2.202460216 9.101575109 7.232769269 9.079281706 5.41015024-.0213334 7.087382148-5.367910108 7.113408896-8.805467517z"/><path d="m230.082002126 293.4689223935c.433388021 2.962569258.42240132 10.621259858.06826688 12.886866938-1.093016749 6.940715023-3.743905033 10.117044949-8.184452243 11.153528188-4.313080145 1.009816489-10.371979079-.114560358-11.700836565-5.915538486l3.605451267-.07040022c1.950086094 3.922252257 6.884394847 2.87467565 9.664243534 1.167790316 2.217500263-1.359150914 3.220063396-7.034368649 2.790835388-7.38348974 0 0-4.193826439 3.106463041-7.500290105 2.877342325-7.065408746-.736108967-9.979657853-6.863808116-9.732723748-12.649426196.224854036-6.960235084 2.431474265-12.526439145 9.920671002-12.896680302 7.120342251.27520086 10.382859113 4.156919657 11.068514589 10.829473842zm-17.560694877 1.838192411c-.03840012 4.828708423 2.153073395 8.447813066 6.304233034 8.844507639 4.147106293.399467915 8.331332702-3.648438068 8.041945131-8.57069345-.289494238-4.943375448-2.202566883-9.101575109-7.232769269-9.079281706-5.41015024.0213334-7.087382148 5.367910108-7.113408896 8.805467517z"/></g></g></svg>