<?xml version="1.0" encoding="UTF-8" standalone="no"?>
<svg
   width="63.000198mm"
   height="88.000275mm"
   viewBox="0 0 238.11099 332.59947"
   version="1.1"
   id="svg8"
   xmlns="http://www.w3.org/2000/svg"
   xmlns:svg="http://www.w3.org/2000/svg"
   xmlns:rdf="http://www.w3.org/1999/02/22-rdf-syntax-ns#"
   xmlns:cc="http://creativecommons.org/ns#"
   xmlns:dc="http://purl.org/dc/elements/1.1/">
  <title
     id="title8745">Vector Playing Cards</title>
  <defs
     id="defs2" />
  <metadata
     id="metadata5">
    <rdf:RDF>
      <cc:Work
         rdf:about="">
        <dc:format>image/svg+xml</dc:format>
        <dc:type
           rdf:resource="http://purl.org/dc/dcmitype/StillImage" />
        <dc:title>Vector Playing Cards</dc:title>
        <dc:creator>
          <cc:Agent>
            <dc:title>Chris Aguilar</dc:title>
          </cc:Agent>
        </dc:creator>
        <dc:rights>
          <cc:Agent>
            <dc:title>Copyright 2011, 017</dc:title>
          </cc:Agent>
        </dc:rights>
        <dc:publisher>
          <cc:Agent>
            <dc:title>Chris Aguilar</dc:title>
          </cc:Agent>
        </dc:publisher>
        <dc:description>Vector Playing Cards</dc:description>
        <dc:contributor>
          <cc:Agent>
            <dc:title>Chris Aguilar</dc:title>
          </cc:Agent>
        </dc:contributor>
        <cc:license
           rdf:resource="https://opensource.org/licenses/lgpl-3.0.html" />
      </cc:Work>
    </rdf:RDF>
  </metadata>
  <g
     id="layer1"
     transform="translate(-888.28359,-1075.6353)">
    <g
       transform="matrix(1.06667,0,0,1.06667,-1860.35,1108.11)"
       id="DIAMOND-9">
      <rect
         y="-30.444927"
         x="2576.8359"
         height="311.81104"
         width="223.22835"
         id="rect6962-4"
         style="display:inline;opacity:1;fill:#ffffff;fill-opacity:1;stroke:#808080;stroke-width:1.00057;stroke-miterlimit:4;stroke-dasharray:none;stroke-opacity:0.75"
         rx="10.677597"
         ry="10.66401" />
      <path
         id="path6994-9"
         d="m 2594.0533,39.528358 c -2.1609,-3.568597 -4.4344,-7.037098 -7.2754,-9.999997 2.841,-2.962801 5.1145,-6.4313 7.2754,-10 2.1609,3.5687 4.4343,7.037199 7.2754,10 -2.8411,2.962899 -5.1145,6.4314 -7.2754,9.999997 z"
         style="display:inline;opacity:1;fill:#c8102e;fill-opacity:1" />
      <path
         id="path6996-5"
         d="m 2740.2166,50.24996 c -5.1862,-8.5648 -10.6425,-16.8891 -17.461,-24 6.8185,-7.1108 12.2748,-15.4351 17.461,-24 5.1862,8.5649 10.6424,16.8892 17.4609,24 -6.8185,7.1109 -12.2747,15.4352 -17.4609,24 z"
         style="display:inline;opacity:1;fill:#c8102e;fill-opacity:1" />
      <path
         style="display:inline;opacity:1;fill:#c8102e;fill-opacity:1"
         d="m 2782.8478,231.393 c -2.1609,-3.5686 -4.4344,-7.0371 -7.2754,-10 2.841,-2.9628 5.1145,-6.4313 7.2754,-10 2.1609,3.5687 4.4343,7.0372 7.2754,10 -2.8411,2.9629 -5.1145,6.4314 -7.2754,10 z"
         id="path6998-7" />
      <path
         id="path7000-7"
         d="m 2636.6838,50.24996 c -5.1862,-8.5648 -10.6425,-16.8891 -17.461,-24 6.8185,-7.1108 12.2748,-15.4351 17.461,-24 5.1862,8.5649 10.6424,16.8892 17.4609,24 -6.8185,7.1109 -12.2747,15.4352 -17.4609,24 z"
         style="display:inline;opacity:1;fill:#c8102e;fill-opacity:1" />
      <path
         id="path7002-0"
         d="m 2740.2166,116.39745 c -5.1862,-8.5648 -10.6425,-16.8891 -17.461,-24 6.8185,-7.1108 12.2748,-15.4351 17.461,-24.000002 5.1862,8.564902 10.6424,16.889202 17.4609,24.000002 -6.8185,7.1109 -12.2747,15.4352 -17.4609,24 z"
         style="display:inline;opacity:1;fill:#c8102e;fill-opacity:1" />
      <path
         style="display:inline;opacity:1;fill:#c8102e;fill-opacity:1"
         d="m 2636.6838,116.39745 c -5.1862,-8.5648 -10.6425,-16.8891 -17.461,-24 6.8185,-7.1108 12.2748,-15.4351 17.461,-23.999998 5.1862,8.564898 10.6424,16.889198 17.4609,23.999998 -6.8185,7.1109 -12.2747,15.4352 -17.4609,24 z"
         id="path7004-0" />
      <path
         style="display:inline;opacity:1;fill:#c8102e;fill-opacity:1"
         d="m 2688.4502,149.46061 c -5.1862,-8.5648 -10.6425,-16.8891 -17.461,-24 6.8185,-7.1108 12.2748,-15.4351 17.461,-24 5.1862,8.5649 10.6424,16.8892 17.4609,24 -6.8185,7.1109 -12.2747,15.4352 -17.4609,24 z"
         id="path7008-2" />
      <path
         style="display:inline;opacity:1;fill:#c8102e;fill-opacity:1"
         d="m 2636.6838,248.67634 c -5.1862,-8.5648 -10.6425,-16.8891 -17.461,-24 6.8185,-7.1108 12.2748,-15.4351 17.461,-24 5.1862,8.5649 10.6424,16.8892 17.4609,24 -6.8185,7.1109 -12.2747,15.4352 -17.4609,24 z"
         id="path7016-2" />
      <path
         style="display:inline;opacity:1;fill:#c8102e;fill-opacity:1"
         d="m 2740.2166,248.68328 c -5.1862,-8.5648 -10.6425,-16.8891 -17.461,-24 6.8185,-7.1108 12.2748,-15.4351 17.461,-24 5.1862,8.5649 10.6424,16.8892 17.4609,24 -6.8185,7.1109 -12.2747,15.4352 -17.4609,24 z"
         id="path7018-0" />
      <path
         style="display:inline;opacity:1;fill:#c8102e;fill-opacity:1"
         d="m 2740.2166,182.52946 c -5.1862,-8.5648 -10.6425,-16.8891 -17.461,-24 6.8185,-7.1108 12.2748,-15.4351 17.461,-24 5.1862,8.5649 10.6424,16.8892 17.4609,24 -6.8185,7.1109 -12.2747,15.4352 -17.4609,24 z"
         id="path7020-7" />
      <path
         id="path7022-4"
         d="m 2636.6838,182.49729 c -5.1862,-8.5648 -10.6425,-16.8891 -17.461,-24 6.8185,-7.1108 12.2748,-15.4351 17.461,-24 5.1862,8.5649 10.6424,16.8892 17.4609,24 -6.8185,7.1109 -12.2747,15.4352 -17.4609,24 z"
         style="display:inline;opacity:1;fill:#c8102e;fill-opacity:1" />
      <path
         d="m 2584.8335,10.0313 3.0188,-0.9571 c 1.1404,3.043 3.4405,3.9439 5.8756,3.7488 4.3688,-0.3483 5.8203,-5.2324 6.1469,-9.5495 -1.7023,1.8057 -4.2595,2.7223 -6.4387,2.6293 -6.9659,-0.3732 -8.7491,-5.9486 -8.8134,-11.7846 -0.1903,-4.9207 1.8437,-8.4849 5.333,-10.1217 1.8488,-0.8288 6.0813,-0.8288 7.9404,0.1532 4.2685,2.2522 5.8512,6.1424 5.5645,15.4313 0,7.6417 -1.6226,16.5417 -9.8137,16.7355 -4.73,0.6547 -8.3261,-3.0273 -8.8134,-6.2852 z m 11.8579,-8.3736 c 1.4207,-0.8995 2.2204,-1.7441 2.8581,-3.0077 0.522,-1.0383 0.7033,-1.5804 0.5528,-3.7278 -0.387,-5.5401 -3.29,-8.6853 -7.5032,-8.062 -2.3503,0.3535 -3.6359,1.6682 -4.3739,4.1128 -1.3616,4.5214 0.3664,9.81 3.6012,11.0278 1.4554,0.5525 3.7053,0.3941 4.865,-0.3431 z"
         id="path29-5-3-7-8"
         style="opacity:1;fill:#c8102e;fill-opacity:1" />
      <path
         d="m 2792.0646,240.8899 -3.0188,0.9572 c -1.1404,-3.043 -3.4405,-3.9439 -5.8756,-3.7488 -4.3688,0.3483 -5.8203,5.2324 -6.1469,9.5495 1.7023,-1.8057 4.2595,-2.7223 6.4387,-2.6293 6.9659,0.3732 8.7491,5.9486 8.8134,11.7846 0.1903,4.9207 -1.8437,8.4849 -5.333,10.1217 -1.8488,0.8288 -6.0813,0.8288 -7.9404,-0.1532 -4.2684,-2.2522 -5.8511,-6.1424 -5.5644,-15.4313 0,-7.6417 1.6225,-16.5417 9.8136,-16.7355 4.73,-0.6547 8.3261,3.0273 8.8134,6.2851 z m -11.8579,8.3737 c -1.4207,0.8995 -2.2204,1.7441 -2.8581,3.0077 -0.522,1.0383 -0.7032,1.5804 -0.5528,3.7278 0.387,5.5401 3.29,8.6853 7.5032,8.062 2.3503,-0.3535 3.6359,-1.6682 4.3739,-4.1128 1.3616,-4.5214 -0.3664,-9.8101 -3.6012,-11.0278 -1.4554,-0.5526 -3.7053,-0.3941 -4.865,0.3431 z"
         id="path29-6-2-9-2"
         style="opacity:1;fill:#c8102e;fill-opacity:1" />
    </g>
  </g>
</svg>
