<?xml version="1.0" encoding="UTF-8" standalone="no"?>
<svg
   width="63.000198mm"
   height="88.000275mm"
   viewBox="0 0 238.11099 332.59947"
   version="1.1"
   id="svg8"
   xmlns="http://www.w3.org/2000/svg"
   xmlns:svg="http://www.w3.org/2000/svg"
   xmlns:rdf="http://www.w3.org/1999/02/22-rdf-syntax-ns#"
   xmlns:cc="http://creativecommons.org/ns#"
   xmlns:dc="http://purl.org/dc/elements/1.1/">
  <title
     id="title8745">Vector Playing Cards</title>
  <defs
     id="defs2" />
  <metadata
     id="metadata5">
    <rdf:RDF>
      <cc:Work
         rdf:about="">
        <dc:format>image/svg+xml</dc:format>
        <dc:type
           rdf:resource="http://purl.org/dc/dcmitype/StillImage" />
        <dc:title>Vector Playing Cards</dc:title>
        <dc:creator>
          <cc:Agent>
            <dc:title>Chris Aguilar</dc:title>
          </cc:Agent>
        </dc:creator>
        <dc:rights>
          <cc:Agent>
            <dc:title>Copyright 2011, 017</dc:title>
          </cc:Agent>
        </dc:rights>
        <dc:publisher>
          <cc:Agent>
            <dc:title>Chris Aguilar</dc:title>
          </cc:Agent>
        </dc:publisher>
        <dc:description>Vector Playing Cards</dc:description>
        <dc:contributor>
          <cc:Agent>
            <dc:title>Chris Aguilar</dc:title>
          </cc:Agent>
        </dc:contributor>
        <cc:license
           rdf:resource="https://opensource.org/licenses/lgpl-3.0.html" />
      </cc:Work>
    </rdf:RDF>
  </metadata>
  <g
     id="layer1"
     transform="translate(552.27546,-718.04301)">
    <g
       transform="matrix(1.06667,0,0,1.06667,-1947.4,1220.88)"
       id="SPADE-4"
       style="display:inline">
      <g
         id="g8473-4-9">
        <rect
           y="-471.4082"
           x="1307.9252"
           height="311.81104"
           width="223.22835"
           id="rect6852-0-4"
           style="display:inline;opacity:1;fill:#ffffff;fill-opacity:1;stroke:#808080;stroke-width:1.00057;stroke-miterlimit:4;stroke-dasharray:none;stroke-opacity:0.75"
           rx="10.677567"
           ry="10.664032" />
        <path
           d="m 1367.773,-438.71333 c -9.226,13.15712 -19.0977,20.72857 -19.2617,30.99333 -0.055,3.3239 1.7421,8.97342 7.3711,10.05478 3.652,0.69833 8.6801,-2.25748 8.7851,-8.26252 -0.016,-1.19555 1.2659,-1.16448 1.2539,0.47372 -0.172,4.73672 -1.6714,10.25156 -4.1914,14.74069 4.0287,0 8.0573,0 12.086,0 -2.52,-4.48913 -4.0194,-10.00397 -4.1914,-14.74069 -0.012,-1.6382 1.2699,-1.66927 1.2539,-0.47372 0.105,6.00504 5.1331,8.96085 8.7851,8.26252 5.629,-1.08136 7.4261,-6.73088 7.3711,-10.05478 -0.164,-10.26476 -10.0357,-17.83621 -19.2617,-30.99333 z"
           id="path6882-1-0"
           style="display:inline;opacity:1" />
        <path
           d="m 1325.1425,-421.43493 c -4.3106,5.48214 -8.9228,8.6369 -8.9994,12.91389 -0.026,1.38495 0.8139,3.73892 3.4439,4.18949 1.7063,0.29097 4.0555,-0.94062 4.1046,-3.44272 -0.01,-0.49815 0.5914,-0.4852 0.5858,0.19738 -0.08,1.97364 -0.7809,4.27149 -1.9583,6.14196 1.8823,0 3.7645,0 5.6468,0 -1.1774,-1.87047 -1.878,-4.16832 -1.9583,-6.14196 -0.01,-0.68258 0.5933,-0.69553 0.5858,-0.19738 0.049,2.5021 2.3983,3.73369 4.1046,3.44272 2.63,-0.45057 3.4696,-2.80454 3.4439,-4.18949 -0.077,-4.27699 -4.6889,-7.43175 -8.9994,-12.91389 z"
           id="path6884-6-5"
           style="display:inline;opacity:1" />
        <path
           d="m 1513.937,-209.57029 c -4.3106,-5.48214 -8.9228,-8.6369 -8.9994,-12.91389 -0.026,-1.38495 0.8139,-3.73892 3.4439,-4.18949 1.7063,-0.29097 4.0555,0.94062 4.1046,3.44272 -0.01,0.49815 0.5914,0.4852 0.5858,-0.19738 -0.08,-1.97364 -0.7809,-4.27149 -1.9583,-6.14196 1.8823,0 3.7645,0 5.6468,0 -1.1774,1.87047 -1.878,4.16832 -1.9583,6.14196 -0.01,0.68258 0.5933,0.69553 0.5858,0.19738 0.049,-2.5021 2.3983,-3.73369 4.1046,-3.44272 2.63,0.45057 3.4696,2.80454 3.4439,4.18949 -0.077,4.27699 -4.6889,7.43175 -8.9994,12.91389 z"
           id="path6888-1-5"
           style="display:inline;opacity:1" />
        <path
           style="display:inline;opacity:1"
           d="m 1471.3058,-438.71333 c -9.226,13.15712 -19.0977,20.72857 -19.2617,30.99333 -0.055,3.3239 1.7421,8.97342 7.3711,10.05478 3.652,0.69833 8.6801,-2.25748 8.7851,-8.26252 -0.016,-1.19555 1.2659,-1.16448 1.2539,0.47372 -0.172,4.73672 -1.6714,10.25156 -4.1914,14.74069 4.0287,0 8.0573,0 12.086,0 -2.52,-4.48913 -4.0194,-10.00397 -4.1914,-14.74069 -0.012,-1.6382 1.2699,-1.66927 1.2539,-0.47372 0.105,6.00504 5.1331,8.96085 8.7851,8.26252 5.629,-1.08136 7.4261,-6.73088 7.3711,-10.05478 -0.164,-10.26476 -10.0357,-17.83621 -19.2617,-30.99333 z"
           id="path6890-4-9" />
        <path
           style="display:inline;opacity:1"
           d="m 1367.773,-192.29202 c -9.226,-13.15712 -19.0977,-20.72857 -19.2617,-30.99333 -0.055,-3.3239 1.7421,-8.97342 7.3711,-10.05478 3.652,-0.69833 8.6801,2.25748 8.7851,8.26252 -0.016,1.19555 1.2659,1.16448 1.2539,-0.47372 -0.172,-4.73672 -1.6714,-10.25156 -4.1914,-14.74069 4.0287,0 8.0573,0 12.086,0 -2.52,4.48913 -4.0194,10.00397 -4.1914,14.74069 -0.012,1.6382 1.2699,1.66927 1.2539,0.47372 0.105,-6.00504 5.1331,-8.96085 8.7851,-8.26252 5.629,1.08136 7.4261,6.73088 7.3711,10.05478 -0.164,10.26476 -10.0357,17.83621 -19.2617,30.99333 z"
           id="path6902-7-5" />
        <path
           style="display:inline;opacity:1"
           d="m 1471.3058,-192.29202 c -9.226,-13.15712 -19.0977,-20.72857 -19.2617,-30.99333 -0.055,-3.3239 1.7421,-8.97342 7.3711,-10.05478 3.652,-0.69833 8.6801,2.25748 8.7851,8.26252 -0.016,1.19555 1.2659,1.16448 1.2539,-0.47372 -0.172,-4.73672 -1.6714,-10.25156 -4.1914,-14.74069 4.0287,0 8.0573,0 12.086,0 -2.52,4.48913 -4.0194,10.00397 -4.1914,14.74069 -0.012,1.6382 1.2699,1.66927 1.2539,0.47372 0.105,-6.00504 5.1331,-8.96085 8.7851,-8.26252 5.629,1.08136 7.4261,6.73088 7.3711,10.05478 -0.164,10.26476 -10.0357,17.83621 -19.2617,30.99333 z"
           id="path6904-9-7" />
        <path
           style="opacity:1"
           id="path19-08-0-9"
           d="m 1325.3725,-424.57454 v -2.9146 h 2.6305 v -4.808 h -13.1577 v -3.3926 l 14.2377,-21.8808 2.3258,0.012 v 21.869 h 4.028 v 3.3926 h -4.028 l -0.076,4.808 h 2.2049 v 2.9186 h -8.1653 z m 2.6305,-24.9853 -9.0396,13.8714 h 9.0396 z" />
        <path
           id="path19-08-1-1-4"
           d="m 1513.7055,-206.43068 v 2.9146 h -2.6305 v 4.808 h 13.1577 v 3.3926 l -14.2377,21.8808 -2.3258,-0.012 v -21.869 h -4.028 v -3.3926 h 4.028 l 0.076,-4.808 h -2.2049 v -2.9186 h 8.1653 z m -2.6305,24.9853 9.0396,-13.8714 h -9.0396 z"
           style="display:inline;opacity:1" />
      </g>
    </g>
  </g>
</svg>
